<svg xmlns="http://www.w3.org/2000/svg" xmlns:xlink="http://www.w3.org/1999/xlink" height="600" width="1200" xmlns:v="https://vecta.io/nano"><style><![CDATA[.B{stroke:#000}.C{fill:none}.D{fill:#ffc72c}.E{stroke-width:1.176}.F{fill:#fff}.G{fill-rule:evenodd}.H{stroke-width:1.177}.I{fill:#012169}.J{stroke-width:2.66}.K{stroke-width:1.428}.L{stroke-width:1.361}.M{fill:#e4002b}.N{stroke-width:1.154}]]></style><clipPath id="A"><path d="M0 0v150h700v150H600zm0 300v50h300V0h300z"/></clipPath><path d="M0 0h1200v600H0z" class="I"/><path d="M0 0l600 300m0-300L0 300" stroke="#fff" stroke-width="60"/><path clip-path="url(#A)" d="M0 0l600 300m0-300L0 300" stroke="#e4002b" stroke-width="40"/><path d="M0 150h700M300 0v350" stroke="#fff" stroke-width="100"/><path d="M0 150h700M300 0v350" stroke="#e4002b" stroke-width="60"/><path d="M0 300h600V0h600v600H0z" class="I"/><circle cx="900" cy="300" r="133.3" class="F"/><g fill="#41b6e6"><path d="M941.6 419.117L900 400.775l-41.6 18.342L900 300z"/><path d="M941.6 180.883L900 199.225l-41.6-18.342L900 300z"/><path d="M780.883 341.6l18.342-41.6-18.342-41.6L900 300z"/><path d="M1019.117 341.6l-18.342-41.6 18.342-41.6L900 300z"/></g><g transform="matrix(.715753 0 0 .770982 121.638562 -284.410205)"><use xlink:href="#C" class="F"/><path d="M1093.48 813.817l-6.238-1.3-4.856-1.5c.46.744 1.134 1.5 2.764 2.056-1.3-.035-3.048.46-3.686.744.638.248 2.446.744 3.757.7-1.595.567-2.197 1.3-2.552 2.056l4.43-1.382 6.38-1.382zm-23.533.107a59.52 59.52 0 0 1-6.238-1.134l-4.9-1.347c.425.744 1.134 1.453 2.8 1.985-1.347 0-3.048.567-3.65.85.638.248 2.445.673 3.757.602-1.56.603-2.162 1.382-2.516 2.126l4.395-1.524c1.985-.603 4.076-1.1 6.344-1.56zm-23.357 1.134l-6.344-.7-4.962-.992c.496.7 1.24 1.382 2.942 1.772-1.3.106-2.977.78-3.58 1.1.673.177 2.48.496 3.792.354-1.524.7-2.056 1.524-2.34 2.304l4.288-1.843c1.914-.744 3.97-1.418 6.202-1.985zm70.423-.78l-6.273 1.134a44.33 44.33 0 0 0-4.891 1.382c.46-.744 1.134-1.5 2.8-1.985-1.3-.035-3.048-.567-3.65-.85.638-.248 2.445-.673 3.757-.638-1.56-.603-2.162-1.347-2.48-2.126l4.395 1.56 6.344 1.524zm23.285 1.95l-6.308.673-4.997 1.028c.532-.7 1.276-1.382 2.977-1.772-1.347-.106-3.013-.78-3.615-1.1.673-.213 2.48-.532 3.828-.354-1.524-.7-2.1-1.524-2.375-2.304l4.288 1.843 6.202 1.985z"/><path d="M1087.49 818.92c-36.08 0-57.947 2.09-56.14 3.686 12.653 5.28 37.568 6.982 56.14 7.017 18.536-.035 43.45-1.737 56.104-7.017 1.807-1.595-20.06-3.686-56.104-3.686z" fill="#ccc"/><g stroke-width=".616" class="B C"><path d="M1143.523 822.713c.32-.85-1.1-1.1-2.587-1.276-5.777-.744-12.192-1.24-17.898-1.666-8.93-.567-17.933-.744-26.935-.85h-17.26c-9.002.106-18.004.284-26.935.85-5.706.425-12.12.92-17.898 1.666-1.49.177-2.906.425-2.587 1.276"/><use xlink:href="#C"/></g></g><g transform="matrix(.374981 0 0 .403915 781.545636 143.684328)"><use xlink:href="#D" class="G M"/><use xlink:href="#D" class="B C H"/><g transform="matrix(-1 0 0 1 777.84445 85.977)"><use xlink:href="#E" class="D"/><g class="B"><use xlink:href="#E" class="C E"/><g class="F H"><use xlink:href="#F"/><use xlink:href="#F" x="-3.361" y="-16.767"/><use xlink:href="#F" x="-2.346" y="-34.503"/><use xlink:href="#F" x="4.474" y="-51.33"/><use xlink:href="#F" x="17.209" y="-64.52"/><use xlink:href="#F" x="33.127" y="-73.16"/><use xlink:href="#F" x="51.318" y="-77.707"/><use xlink:href="#F" x="69.954" y="-76.798"/><use xlink:href="#F" x="120.454" y="-63.61"/><use xlink:href="#F" x="87.7" y="-71.795"/><use xlink:href="#F" x="104.072" y="-66.793"/></g></g></g><use xlink:href="#E" x="-146.056" y="85.977" class="D"/><g class="B"><use xlink:href="#E" x="-146.056" y="85.977" class="C E"/><g class="F H"><use xlink:href="#F" x="-146.046" y="85.976"/><use xlink:href="#F" x="-149.416" y="69.2"/><use xlink:href="#F" x="-148.402" y="51.474"/><use xlink:href="#F" x="-141.581" y="34.647"/><use xlink:href="#F" x="-128.846" y="21.458"/><use xlink:href="#F" x="-112.929" y="12.817"/><use xlink:href="#F" x="-94.738" y="8.27"/><use xlink:href="#F" x="-76.092" y="9.18"/><use xlink:href="#F" x="-25.612" y="22.368"/><use xlink:href="#F" x="-58.346" y="14.182"/><use xlink:href="#F" x="-41.984" y="19.184"/></g><g class="E"><path d="M298.863 276.063c1.896-2.4 4.16-4.184 5.997-6.625 1.93-2.565 3.4-5.805 4.157-9.08-3.353.836-6.594 2.308-9.158 4.236-2.44 1.836-4.224 4.1-6.625 5.997v-30.747c2.4 1.896 4.184 4.16 6.625 5.997 2.565 1.93 5.805 3.4 9.158 4.236-.756-3.273-2.228-6.514-4.157-9.08-1.836-2.44-4.1-4.224-5.997-6.625h34.064c-1.896 2.4-4.16 4.184-5.997 6.625-1.93 2.565-3.4 5.805-4.157 9.08 3.353-.836 6.594-2.308 9.158-4.236 2.44-1.836 4.224-4.1 6.625-5.997v30.747c-2.4-1.896-4.184-4.16-6.625-5.997-2.565-1.93-5.805-3.4-9.158-4.236.756 3.273 2.228 6.514 4.157 9.08 1.836 2.44 4.1 4.224 5.997 6.625z" class="D"/><path d="M324.34 255.22c.004 3.07-1.605 5.908-4.22 7.444a8.33 8.33 0 0 1-8.453 0c-2.615-1.536-4.224-4.374-4.22-7.444-.004-3.07 1.605-5.908 4.22-7.444a8.33 8.33 0 0 1 8.453 0c2.615 1.536 4.224 4.374 4.22 7.444z" class="F"/></g></g><g transform="matrix(.943113 0 0 .943113 127.095127 247.866657)"><use xlink:href="#G" class="D"/><use xlink:href="#G" stroke-width="1.248" class="B C"/><path d="M195.844 28.438V45.5H178.78v8.688h42.813V45.5H204.5V28.438z" class="D"/><path d="M195.844 28.437V45.5H178.78v8.688h42.813V45.5H204.5V28.437z" stroke-width="1.247" class="B C"/></g><rect height="71.72" ry="6.386" width="25.322" x="303.234" y="310.538" class="D G"/><rect height="71.72" ry="6.386" width="25.322" x="303.234" y="310.538" class="B C E"/><g transform="matrix(1.146997 0 0 .906733 44.36912 -542.96701)"><rect height="79.256" ry="3.8" width="7.041" x="221.335" y="941.218" class="D G"/><path d="M224.855 941.218c1.95 0 3.52 1.695 3.52 3.8v71.656c0 2.105-1.57 3.8-3.52 3.8s-3.52-1.695-3.52-3.8v-71.656c0-2.105 1.57-3.8 3.52-3.8z" class="B C N"/></g><g transform="matrix(1.146997 0 0 .906733 49.62704 -542.96698)"><rect height="79.256" ry="3.8" width="7.041" x="240.494" y="941.218" class="D G"/><rect height="79.256" ry="3.8" width="7.041" x="240.494" y="941.218" class="B C N"/></g><g class="B F H"><use xlink:href="#F" x="-0.571" y="26.066"/><use xlink:href="#F" x="-0.571" y="40.173"/><use xlink:href="#F" x="-0.571" y="54.3"/><use xlink:href="#F" x="-0.571" y="68.428"/><use xlink:href="#F" x="-0.571" y="82.555"/></g><use xlink:href="#H" class="D"/><use xlink:href="#H" class="B C E"/><g class="D"><use xlink:href="#I"/><path d="M222.548 441.953c-10.867-.586-21.005-7.374-29.137-21.138-5.273-12.47-11.337-25.1-18.912-38.342 8.73-3.1 18.903-4.736 30.187-5.27-4.59 12.93-9.35 25.528-7.666 35.936 9.48-7.1 12.547-16.767 15.812-26.353l11.02 38.812c-6.69-1.173-3.132-2.555-20.698-5.885 3.52 6.637 11.578 14.832 20.462 15.64zm185.624-6.6c8.884-.807 16.942-9.002 20.462-15.64-17.566 3.33-14.01 4.712-20.698 5.885l11.02-38.812c3.265 9.587 6.33 19.253 15.812 26.353 1.684-10.41-3.077-23.005-7.666-35.936 11.284.535 21.457 2.18 30.187 5.27-7.574 13.242-13.64 25.87-18.912 38.342-8.132 13.764-18.27 20.552-29.137 21.138l-.208.383z"/><path d="M276.89 441.953c-5.477-.3-11.112-1.888-16.048-4.28-4.29-2.08-11.127-8.13-11.127-8.13-3.323 4.312-7.555 7.34-11.583 9.58-5.15 2.862-10.24 3.12-15.586 2.832l-.188 1.873 1.256-8.474c5.974.543 10.3-1.303 14.107-4.596 2.728-2.366 5.215-5.495 5.182-9.02l-.056-6.056c-.012-1.297-1.613-3.133-2.91-3.15-1.236-.017-1.578 1.988-1.908 3.18-.66 2.383.665 5.037 0 7.42-.734 2.626-2.14 4.7-4.45 6.147-1.924 1.206-6.57 1.484-6.57 1.484l1.484-5.723c1.047-4.037-2.872-7.17-3.815-11.234-.607-2.615-.94-5.54 0-8.054 1.018-2.72 3.08-5.368 5.723-6.57.965-.44 2.122-.5 3.18-.424 1.495.106 4.45 1.06 4.45 1.06s-.848-4.09-.636-6.57c.258-3.007 2.805-8.578 4.24-11.234 2.38-4.4 6.168-8.383 6.6-8.8.415.417 4.52 4.238 7.202 8.47 1.615 2.55 3.272 6.234 3.74 9.216.384 2.46.247 7.66.247 7.66s4.366-1.793 5.85-2.003c1.05-.148 2.208-.17 3.2.202 2.72 1.016 4.96 3.514 6.166 6.157 1.114 2.443.984 5.384.56 8.035-.658 4.12-3.078 7.305-1.753 11.26l1.878 5.606s-4.654.046-6.658-1.023c-2.405-1.283-3.954-3.254-4.868-5.822-.83-2.33-.348-5.183-1.788-7.19-.637-.888-1.528-1.87-2.76-1.767-1.292.108-2.2 2.22-2.254 3.516l-.23 5.45c-.07 1.675.693 3.416 1.6 4.77 2.197 3.32 5.468 5.334 9.158 6.83 3.997 1.62 7.6 2.242 11.913 2.293z"/></g><path d="M384.692 421.594l-.126-.21c-.15-2.57.72-6.97.72-6.97.484-2.2 2.362-4.533 4.688-5.375 1.254-.454 2.776-.63 4.125.03.823.402 1.486.714 2.03 1.28s.884 1.312 1.25 2.375c.535 1.554.302 3.174.03 4.563-.447 2.29-.397 4.293.25 5.844.457 1.095 1.377 1.916 2.563 2.625-.22-.783-.38-1.163-.5-2.03-.18-1.287.038-2.617.53-3.78.858-2.028 2.043-3.627 2.844-5.406.764-1.697 1.163-3.62 1.03-5.438-.11-1.5-.552-3.048-1.406-4.125-.926-1.168-2.34-2.137-3.75-2.406-1.255-.24-3.315.187-4.97.72s-2.906 1.125-2.906 1.125l-1.47.687.25-1.594c.86-5.36 1.618-8.08 0-13.094-.665-2.06-1.777-4.334-3.656-6.97-.913-1.28-1.932-2.807-3.094-4.22-3.028 3.447-5.14 6.94-6.344 10.47-1.32 3.863-1.37 9-1.062 13.125l.125 1.656-1.406-.844s-1.6-.98-3.53-1.906-4.287-1.743-5.28-1.656c-1.874.164-3.125 1.06-4.344 2.625-1.035 1.33-1.258 2.48-1.47 4.313-.133 1.158.158 3.335.344 4.75.217 1.66 1.194 3.403 1.47 5.5.09.693.306 1.237.47 1.906s.245 1.455.063 2.375c-.126.636-.314 1.096-.562 1.875.48-.233.81-.35 1.063-.53.927-.666 1.304-1.848 1.906-3.28.324-.77.396-1.464.438-2.28s.082-1.778.5-2.844c.714-1.82 1.554-3.984 3.406-5.312 1.516-1.087 3.538-1.4 5.313-.844 1.05.324 1.803.972 2.344 1.72s.904 1.562 1.28 2.375c.484 1.04.773 2.597 1 3.97a44.76 44.76 0 0 1 .344 2.531l.03.125-.03.156-1.29 4.292-1.646-.37 1.25-4.104a60.17 60.17 0 0 0-.344-2.344c-.22-1.32-.55-2.898-.844-3.53-.387-.832-.735-1.555-1.125-2.094s-.787-.884-1.47-1.094c-1.223-.377-2.81-.147-3.844.594-1.31.94-2.106 2.76-2.812 4.562-.307.783-.333 1.488-.375 2.313s-.086 1.784-.53 2.844c-.552 1.312-1.01 2.928-2.5 4-1.1.8-3.094 1.563-3.094 1.563l-1.75.72.625-1.78s.88-2.613 1.063-3.53c.126-.635.074-1.095-.062-1.656s-.385-1.214-.5-2.094c-.217-1.66-1.194-3.403-1.47-5.5-.18-1.367-.53-3.526-.344-5.156.22-1.9.538-3.55 1.813-5.187 1.396-1.792 3.165-3.043 5.53-3.25 1.87-.164 4.17.846 6.188 1.813 1.298.622 1.692.908 2.344 1.28-.212-3.96-.147-8.526 1.156-12.344 1.382-4.047 3.75-8.036 7.344-11.906l.625-.656.625.656c1.67 1.798 2.812 3.772 3.844 5.22 1.967 2.757 3.185 5.202 3.906 7.438 1.546 4.788.98 8.057.25 12.47.57-.24.768-.372 1.75-.687 1.767-.568 3.922-1.105 5.78-.75 1.9.363 3.613 1.527 4.78 3 1.16 1.462 1.655 3.33 1.78 5.062.156 2.15-.32 4.35-1.187 6.28-.9 1.997-2.088 3.59-2.844 5.375-.38.9-.567 1.943-.437 2.875.194 1.395.938 3.656.938 3.656l.53 1.594-1.625-.53c-2.594-.88-4.292-2.474-5.125-4.47s-.83-4.324-.344-6.812c.255-1.307.4-2.613.03-3.656-.332-.966-.575-1.438-.875-1.75s-.762-.546-1.562-.938c-.74-.362-1.88-.306-2.812.03-1.545.56-3.395 2.628-3.562 4.094-.296 2.59-1.03 5.222-2.28 6.863zm48.75-3.052l.438-.875-.937-.313c-6.98-2.2-13.424-.538-19.5 2.03a134.46 134.46 0 0 0 5.656-20.125c6.625 11.903 12.246 15.797 17.53 18.22l.97.438.22-1.063c1.577-8.127 1.7-18.955-4.97-35.062 7.472.388 14.902 1.284 22.28 4.562l.688-1.562c-8.1-3.6-16.194-4.494-24.187-4.844l-1.375-.062.563 1.25c6.848 15.896 6.85 26.242 5.47 34.22-5.08-2.47-10.22-6.204-16.78-18.72l-1.156-2.187-.437 2.438c-1.425 7.89-3.65 15.79-6.656 23.688l-.75 1.938 1.875-.875c6.137-2.785 12.342-4.598 19.03-2.844l.165.103zm-233.063.25c6.68-1.743 12.87.062 19 2.844l1.875.875-.72-1.937c-3.007-7.898-5.23-15.8-6.656-23.687l-.437-2.437-1.156 2.188c-6.565 12.52-11.732 16.247-16.812 18.72-1.38-7.976-1.348-18.322 5.5-34.22l.53-1.25-1.344.062c-7.994.35-16.086 1.244-24.187 4.844l.688 1.562c7.388-3.283 14.8-4.175 22.28-4.562-6.668 16.108-6.546 26.935-4.97 35.062l.188 1.063 1-.438c5.282-2.42 10.913-6.304 17.53-18.187 1.33 6.704 3.205 13.397 5.656 20.094-6.076-2.57-12.52-4.24-19.5-2.03l-.937.313.438.875-.18.09 2.212.16zm54.883 3.778l-.977-3.652c.017-.154.11-1.03.313-2.25.22-1.32.58-2.898.875-3.53.387-.832.735-1.555 1.125-2.094s.787-.884 1.47-1.094c1.223-.377 2.78-.147 3.813.594 1.31.94 2.137 2.76 2.844 4.562.307.783.333 1.488.375 2.313s.086 1.784.53 2.844c.552 1.312 1.01 2.928 2.5 4 1.1.8 3.094 1.563 3.094 1.563l1.72.72-.594-1.78s-.88-2.613-1.062-3.53c-.126-.635-.074-1.095.063-1.656s.353-1.214.47-2.094c.217-1.66 1.194-3.403 1.47-5.5.18-1.366.563-3.526.375-5.156-.22-1.9-.538-3.55-1.812-5.187-1.396-1.792-3.165-3.043-5.53-3.25-1.87-.164-4.17.846-6.187 1.813-1.298.622-1.692.908-2.344 1.28.212-3.96.147-8.526-1.156-12.344-1.382-4.047-3.75-8.036-7.344-11.906l-.625-.656-.625.656c-1.67 1.798-2.843 3.772-3.875 5.22-1.967 2.757-3.153 5.202-3.875 7.438-1.546 4.788-.98 8.057-.25 12.47-.57-.24-.76-.37-1.75-.687-1.767-.568-3.922-1.105-5.78-.75-1.9.363-3.613 1.527-4.78 3-1.16 1.462-1.655 3.33-1.78 5.062-.156 2.15.32 4.35 1.188 6.28.9 1.997 2.088 3.59 2.844 5.375.38.9.536 1.943.406 2.875-.194 1.396-.906 3.656-.906 3.656l-.53 1.594 1.625-.53c2.594-.88 4.292-2.474 5.125-4.47s.83-4.324.344-6.812c-.255-1.307-.4-2.613-.03-3.656.332-.966.575-1.438.875-1.75s.73-.546 1.53-.938c.74-.36 1.912-.306 2.844.03 1.545.56 3.23 2.65 3.563 4.094v.03c.008.042.806 4.51.688 6.53l2.006.355c-.167-2.83-1.037-7.23-1.037-7.23-.484-2.2-2.33-4.533-4.656-5.375-1.254-.454-2.807-.628-4.156.03-.823.402-1.455.714-2 1.28s-.915 1.312-1.28 2.375c-.535 1.554-.302 3.174-.03 4.563.447 2.29.397 4.293-.25 5.844-.457 1.094-1.346 1.915-2.53 2.625.22-.783.38-1.163.5-2.03.18-1.287-.038-2.617-.53-3.78-.858-2.028-2.043-3.627-2.844-5.406-.764-1.697-1.195-3.62-1.062-5.438.11-1.5.552-3.048 1.406-4.125.926-1.168 2.37-2.137 3.78-2.406 1.255-.24 3.284.187 4.938.72s2.938 1.125 2.938 1.125l1.47.687-.28-1.594c-.86-5.36-1.587-8.08.03-13.094.665-2.06 1.745-4.334 3.625-6.97.913-1.28 1.962-2.807 3.125-4.22 3.027 3.446 5.14 6.94 6.344 10.47 1.32 3.863 1.34 9 1.03 13.125l-.094 1.656 1.406-.844s1.568-.98 3.5-1.906 4.32-1.743 5.313-1.656c1.874.164 3.125 1.06 4.344 2.625 1.035 1.328 1.258 2.48 1.47 4.313.133 1.158-.2 3.334-.375 4.75-.217 1.66-1.163 3.403-1.437 5.5-.09.693-.306 1.237-.47 1.906s-.276 1.455-.094 2.375c.126.636.314 1.096.563 1.875-.48-.233-.81-.35-1.062-.53-.927-.666-1.304-1.848-1.906-3.28-.324-.77-.365-1.464-.406-2.28s-.082-1.778-.5-2.844c-.714-1.82-1.554-3.984-3.406-5.312-1.516-1.087-3.538-1.4-5.312-.844-1.05.324-1.834.972-2.375 1.72s-.872 1.562-1.25 2.375c-.484 1.04-.773 2.597-1 3.97s-.375 2.53-.375 2.53v.125l.03.156 1.008 3.746.497.054 1.16-.428zm64.68-13.84l.03-1.062 1.03.25c4.755 1.192 8.4 2.803 11.406 4.594 3.827 2.272 6.653 4.822 9.625 7.28l.5-28.22c-2.533 2.796-4.9 5.792-8.406 8.188-2.855 1.957-8.2 4.528-13.22 5.094l-1.187.125.25-1.156c.705-3.18.685-5.39 2.28-9.156 1.515-3.574 4.708-8.757 11.063-17.438-5.495-.607-10.283-1.28-17.437-1.28s-11.913.674-17.406 1.28c6.354 8.68 9.548 13.864 11.063 17.438 1.597 3.767 1.576 5.976 2.28 9.156l.25 1.156-1.187-.125c-5.01-.565-10.363-3.137-13.22-5.094-3.483-2.387-5.885-5.37-8.406-8.156l.5 28.156c2.96-2.45 5.813-4.987 9.625-7.25 3.016-1.8 6.62-3.4 11.375-4.594l1.063-.25v1.062l-1.713 1.197c-4.015 1.13-7.225 2.495-9.85 4.053-4.203 2.495-7.24 5.408-10.812 8.25l-1.344 1.063-.03-1.72-.53-32.187-.062-2.125 1.5 1.5c3.298 3.326 5.77 6.952 9.625 9.594 2.377 1.63 7.037 3.807 11.313 4.563-.476-2.563-.686-4.568-1.97-7.594-1.502-3.544-4.595-8.74-11.656-18.28l-.875-1.188 1.47-.156c6.085-.63 11.105-1.47 19-1.47h0c7.895 0 12.915.838 19 1.47l1.5.156-.875 1.188c-7.06 9.54-10.185 14.737-11.688 18.28-1.287 3.037-1.457 5.048-1.937 7.625 4.278-.755 8.903-2.964 11.28-4.594 3.854-2.64 6.358-6.268 9.656-9.594l1.47-1.5-.03 2.125-.562 32.188v1.72l-1.375-1.063c-3.572-2.842-6.578-5.755-10.78-8.25-2.624-1.558-5.834-2.92-9.844-4.03z"/><g class="B E"><use xlink:href="#I" class="C"/><g class="F"><use xlink:href="#J"/><use xlink:href="#J" x="-121.483" y="10.735"/><path d="M429.7 416.872c-.004 2.79 1.46 5.37 3.836 6.767a7.57 7.57 0 0 0 7.684 0c2.377-1.396 3.84-3.977 3.836-6.767.004-2.79-1.46-5.37-3.836-6.767a7.57 7.57 0 0 0-7.684 0c-2.377 1.396-3.84 3.977-3.836 6.767z"/></g></g><g transform="matrix(.998531 -.054185 .054185 .998531 528.799649 -690.208444)"><use xlink:href="#K" class="D"/><use xlink:href="#K" class="B C E"/></g><g transform="matrix(-.998531 -.054185 -.054185 .998531 102.98997 -690.208439)"><use xlink:href="#K" fill="#f6e078"/><use xlink:href="#K" class="B D E"/></g><path d="M209.316 483.204l33.297-2.083c21.242-1.2 44-1.83 55.61-1.83H333.6c11.245 0 34.538.63 55.61 1.83l33.055 2.205 7.388-33.005s-75.7-6.83-113.745-6.83-113.745 6.83-113.745 6.83z" class="D G"/><path d="M315.43 443.85c38.012-.02 76.02 2.04 113.863 6.234l-6.928 33.312c-37.64-3.38-68.45-4.283-106.51-4.58m.505-34.966c-38.012-.02-76.02 2.04-113.863 6.234l6.928 33.312c37.64-3.38 68.45-4.283 106.51-4.58" class="B C E"/><use xlink:href="#L" class="D"/><use xlink:href="#L" stroke-width="1.197" class="B C"/><path d="M247.427 479.04l-.03.024h-.03c-12.57.973-27.115 2.033-39.808 3.893-1.795 2.307-1.944 4.41 1.322 6.094 12.186-1.786 26.554-2.872 39.132-3.845 17.058-1.063 34.257-1.728 51.412-1.9h32.904c10.262 0 31.934.673 51.412 1.935 19.4 1.255 39.19 3.82 39.19 3.82 3.38-1.856 3.012-3.932 1.175-6.094 0 0-19.985-2.636-39.78-3.918-19.705-1.276-41.35-1.935-52-1.935h-32.904c-17.36.056-34.69.936-52 1.935z" class="D"/><path d="M247.427 479.04l-.03.024h-.03c-12.57.973-27.115 2.033-39.808 3.893-1.795 2.307-1.944 4.41 1.322 6.094 12.186-1.786 26.554-2.872 39.132-3.845 17.058-1.063 34.257-1.376 51.412-1.558h32.904c10.262 0 31.934.32 51.412 1.582 19.4 1.255 39.19 3.82 39.19 3.82 3.38-1.856 3.012-3.932 1.175-6.094 0 0-19.985-2.636-39.78-3.918-19.705-1.276-41.35-1.582-52-1.582h-32.904a956.25 956.25 0 0 0-52 1.583z" stroke-width="1.187" class="B C"/><rect height="59.169" ry="3.006" transform="matrix(.505536 0 0 .386916 -1142.49556 132.69887)" width="89.493" x="2840.095" y="823.565" class="B C J"/><g transform="matrix(.505536 0 0 .386916 -1142.49557 132.698878)" class="J"><g class="G"><g stroke="#a0892c"><rect fill="#00247d" height="43.637" ry="5.177" width="70.263" x="2849.71" y="831.331"/><path d="M2918.46 873.455a5.16 5.16 0 0 1-3.664 1.513h-59.908a5.16 5.16 0 0 1-5.177-5.177v-33.282a5.16 5.16 0 0 1 1.513-3.664c.936-.936 68.172 39.675 67.237 40.61z" fill="#2b96f6"/></g><g class="B I"><path d="M2918.46 873.455a5.16 5.16 0 0 1-3.664 1.513h-59.908a5.16 5.16 0 0 1-5.177-5.177v-33.282a5.16 5.16 0 0 1 1.513-3.664c.475-.475 18.04 9.76 35.096 20.073 16.54 10 32.6 20.077 32.14 20.538z"/><path d="M2918.46 832.844a5.16 5.16 0 0 1 1.513 3.664v33.282a5.16 5.16 0 0 1-5.177 5.177h-59.908a5.16 5.16 0 0 1-3.664-1.513c-.936-.936 66.3-41.547 67.237-40.61z"/><path d="M2918.46 873.455a5.16 5.16 0 0 1-3.664 1.513h-59.908a5.16 5.16 0 0 1-3.664-1.513c-.475-.475 16.6-11.163 33.66-21.457 0 0 34.51 20.52 33.576 21.457z"/></g></g><g class="B"><rect height="43.637" ry="5.177" width="70.263" x="2849.71" y="831.331" class="C"/><path d="M2865.158 841.292h39.367v22.304h-39.367z" class="G I"/></g></g><g transform="matrix(.865705 -.085066 .135965 .770241 -234.432928 236.83824)"><g class="G"><rect height="22.674" ry="10.771" width="35.829" x="494.629" y="340.211" class="B D K"/><rect fill="#4a7729" height="16.542" ry="8.271" width="29.954" x="497.566" y="343.276"/></g><rect height="16.542" ry="8.271" width="29.954" x="497.566" y="343.276" class="B C K"/></g><g transform="matrix(-.818136 .142819 .154669 .886016 670.80046 114.488044)"><path d="M626.165 310.883l-23.7-12.77 23.7-12.082 2.88 13.147z" class="B D L"/><g class="M"><path d="M626.165 307.466l-17.183-9.26 17.183-8.76 5.657 8.58z"/><path d="M626.165 307.466l-17.183-9.26 22.66-.18z"/></g><g class="B C L"><path d="M608.937 298.14l22.953-.025"/><path d="M626.165 307.466l-17.183-9.26 17.183-8.76 5.837 8.4z"/></g></g><g class="B F"><use xlink:href="#M" class="H"/><use xlink:href="#M" x="0.782" y="12.187" class="E"/><g class="H"><use xlink:href="#M" x="-51.436" y="2.812"/><use xlink:href="#M" x="-50.654" y="15.001"/></g></g><g transform="matrix(-1 0 0 1 813.09068 103.208)"><g transform="matrix(.865705 -.085066 .135965 .770241 -53.130928 133.63024)"><g class="G"><rect height="22.674" ry="10.771" width="35.829" x="494.629" y="340.211" class="B D K"/><rect fill="#4a7729" height="16.542" ry="8.271" width="29.954" x="497.566" y="343.276"/></g><rect height="16.542" ry="8.271" width="29.954" x="497.566" y="343.276" class="B C K"/></g><g transform="matrix(-.818136 .142819 .154669 .886016 852.10246 11.280044)"><path d="M626.165 310.883l-23.7-12.77 23.7-12.082 2.88 13.147z" class="B D L"/><g class="M"><path d="M626.165 307.466l-17.183-9.26 17.183-8.76 5.657 8.58z"/><path d="M626.165 307.466l-17.183-9.26 22.66-.18z"/></g><g class="B C L"><path d="M608.937 298.14l22.953-.025"/><path d="M626.165 307.466l-17.183-9.26 17.183-8.76 5.837 8.4z"/></g></g><g class="B F H"><use xlink:href="#M" x="181.302" y="-103.208"/><use xlink:href="#M" x="182.084" y="-91.02"/><use xlink:href="#M" x="129.866" y="-100.396"/><use xlink:href="#M" x="130.648" y="-88.207"/></g></g></g><defs ><path id="C" d="M1078.843 808.643c-9.002.106-18.004.284-26.935.85-6.592.496-14.106 1.063-20.52 1.985l-1.63.284c-4.04.78-4.607 5.6-2.48 8.222 4.324 5.423 29.948 9.64 60.215 9.64 30.23 0 55.855-4.218 60.18-9.64 2.126-2.623 1.56-7.443-2.48-8.222l-1.63-.284c-6.38-.92-13.928-1.49-20.52-1.985-8.93-.567-17.933-.744-26.935-.85h-8.612z"/><path id="D" d="M408.742 468.496l8.32-24.3 3.36-10.06 8.328-5.176 8.435-19.172 3.973-5.014.613-17.664s-5.828-12.53-14.846-17.03c-12.9-6.437-30.41-5.552-30.41-5.552s-4.045-10.698-11.464-14.86-15.657-5.167-24.303-5.167-24.164 7.73-32.556 10.004c-4.363 1.18-14.215 5.167-14.215 5.167s-9.852-3.985-14.215-5.167c-8.39-2.273-23.91-10.004-32.555-10.004s-16.615.852-24.303 5.167c-7.15 4.012-16.965 14.86-16.965 14.86S214.7 363 206.805 367.752c-9.848 5.926-16.788 18.39-16.788 18.39l.68 19.3 1.55 7.377 6.364 7.315 8.296 14.774 5.944 14.57 6.36 19.017z"/><path id="E" d="M358.406 213.625c-9.02 2-18.587 5.975-26.125 13.438-6.987 6.918-11.634 15.083-14.312 25-2.507 9.282-2.583 14.802-1.47 24.045 1.434 11.893 8.75 23.83 8.75 23.83l12.61-2.25s-7.6-16.016-8.455-23.11c-1.028-8.523-.996-11.257 1.125-19.108 2.197-8.133 5.386-13.722 10.875-19.156 5.177-5.125 12.47-8.3 19.938-10.03 6.66-1.544 14.188-2.204 20.03-1 11.1 2.288 18.31 5.91 30.375 9.72 8.703 2.746 15.356 3.688 24.156 4.188 5.383.306 11.605-1.037 17.438-2.28s10.72-2.53 10.72-2.53l-3.28-12.594s-4.662 1.234-10.156 2.406-12.358 2.123-13.97 2.03c-8.297-.47-13.168-1.163-20.97-3.625-11.17-3.524-19.074-7.432-31.687-10.062-8.5-1.773-17.217-.765-25.594 1.094z"/><path id="F" d="M323.446 286c.003 2.537-1.326 4.883-3.487 6.152s-4.825 1.27-6.986 0-3.49-3.615-3.487-6.152c-.003-2.537 1.326-4.883 3.487-6.152s4.825-1.27 6.986 0 3.49 3.615 3.487 6.152z"/><path id="G" d="M220.514 50.326c.01 7.27-3.862 13.99-10.155 17.626s-14.05 3.637-20.342 0-10.165-10.358-10.155-17.626c-.01-7.27 3.862-13.99 10.155-17.626s14.05-3.637 20.342 0 10.165 10.358 10.155 17.626z"/><path id="H" d="M441.248 413.398c-6.72 15.023-12.1 29.7-17.375 44.782H207.248c-5.098-14.59-10.297-30.282-16.708-44.782 0 0 13.482 18.865 23.578 23.427 5.608 2.534 12.623 3.29 18.42 1.228 7.642-2.717 17.807-16.58 17.807-16.58s9.14 10.7 15.35 13.51c5.83 2.638 12.644 2.745 19.035 2.456 5.655-.256 11.92-.47 16.58-3.684 7.055-4.87 14.123-21.49 14.123-21.49s6.838 13.078 12.28 17.807c4.49 3.902 10.13 6.816 15.965 7.982s12.2.8 17.807-1.228c7.588-2.736 19.65-14.123 19.65-14.123s8.302 10.297 14.123 12.895c5.635 2.515 12.414 3.256 18.42 1.842 6.357-1.496 11.698-6.1 16.58-10.44 4.357-3.872 10.988-13.602 10.988-13.602z"/><path id="I" d="M315.894 421.91s-4.94 7.603-7.977 10.2c-4.218 3.608-6.992 5.78-12.41 7.49-5.41 1.705-12.953 2.664-18.616 2.354-5.477-.3-11.112-1.888-16.048-4.28-4.29-2.08-11.127-8.13-11.127-8.13-3.323 4.312-7.555 7.34-11.583 9.58-5.15 2.862-10.24 3.12-15.586 2.832-10.867-.586-21.005-7.374-29.137-21.138-5.273-12.47-11.337-25.1-18.912-38.342 8.73-3.1 18.903-4.736 30.187-5.27-4.59 12.93-9.35 25.528-7.666 35.936 9.48-7.1 12.547-16.767 15.812-26.353l11.02 38.812c-6.69-1.173-3.132-2.555-20.698-5.885 3.52 6.637 11.578 14.832 20.462 15.64 5.974.543 10.3-1.303 14.107-4.596 2.728-2.366 5.215-5.495 5.182-9.02l-.056-6.056c-.012-1.297-1.613-3.133-2.91-3.15-1.236-.017-1.578 1.988-1.908 3.18-.66 2.383.665 5.037 0 7.42-.734 2.626-2.14 4.7-4.45 6.147-1.924 1.206-6.57 1.484-6.57 1.484l1.484-5.723c1.047-4.037-2.872-7.17-3.815-11.234-.607-2.615-.94-5.54 0-8.054 1.018-2.72 3.08-5.368 5.723-6.57.965-.44 2.122-.5 3.18-.424 1.495.106 4.45 1.06 4.45 1.06s-.848-4.09-.636-6.57c.258-3.007 2.805-8.578 4.24-11.234 2.38-4.4 6.168-8.383 6.6-8.8.415.417 4.52 4.238 7.202 8.47 1.615 2.55 3.272 6.234 3.74 9.216.384 2.46.247 7.66.247 7.66s4.366-1.793 5.85-2.003c1.05-.148 2.208-.17 3.2.202 2.72 1.016 4.96 3.514 6.166 6.157 1.114 2.443.984 5.384.56 8.035-.658 4.12-3.078 7.305-1.753 11.26l1.878 5.606s-4.654.046-6.658-1.023c-2.405-1.283-3.954-3.254-4.868-5.822-.83-2.33-.348-5.183-1.788-7.19-.637-.888-1.528-1.87-2.76-1.767-1.292.108-2.2 2.22-2.254 3.516l-.23 5.45c-.07 1.675.693 3.416 1.6 4.77 2.197 3.32 5.468 5.334 9.158 6.83 3.997 1.62 7.6 2.242 11.913 2.293 3.597.042 9.85-.547 13.258-1.7 4.2-1.42 6.67-3.22 9.917-6.236 1.83-1.7 3.055-4.168 3.86-6.533.928-2.724.594-7.424.594-7.424-4.178 1.584-7.81 3.713-11.086 6.2-3.7 2.812-6.943 6.08-9.998 9.538l-.297-46.92c4.353 4.802 7.517 9.102 11.87 12.72 3.665 3.045 5.55 4.207 9.214 5.396-1.047-3.774-1.4-6.064-4.103-9.838-3.747-5.233-7.396-10.852-11.932-16.086 8.353-1.39 16.702-1.766 25.167-1.766s16.813.375 25.167 1.766c-4.537 5.233-8.186 10.852-11.932 16.086-2.702 3.774-3.056 6.064-4.103 9.838 3.665-1.19 5.55-2.35 9.214-5.396 4.353-3.616 7.517-7.917 11.87-12.72l-.297 46.92c-3.055-3.457-6.298-6.726-9.998-9.538-3.274-2.488-6.907-4.617-11.086-6.2 0 0-.334 4.7.594 7.424.806 2.365 2.03 4.833 3.86 6.533 3.248 3.015 5.718 4.817 9.917 6.236 3.408 1.152 9.66 1.74 13.258 1.7 4.312-.05 7.917-.673 11.913-2.293 3.7-1.495 6.96-3.5 9.158-6.83.897-1.355 1.66-3.096 1.6-4.77l-.23-5.45c-.054-1.296-.962-3.408-2.254-3.516-1.232-.103-2.123.88-2.76 1.767-1.44 2.006-.958 4.86-1.788 7.19-.914 2.568-2.463 4.54-4.868 5.822-2.004 1.07-6.658 1.023-6.658 1.023l1.878-5.606c1.325-3.955-1.095-7.14-1.753-11.26-.424-2.65-.554-5.592.56-8.035 1.205-2.643 3.445-5.14 6.166-6.157.993-.37 2.152-.35 3.2-.202 1.484.2 5.85 2.003 5.85 2.003s-.138-5.2.247-7.66c.466-2.982 2.123-6.666 3.74-9.216 2.682-4.234 6.787-8.054 7.202-8.47.432.427 4.22 4.4 6.6 8.8 1.434 2.656 3.982 8.226 4.24 11.234.212 2.48-.636 6.57-.636 6.57s2.956-.954 4.45-1.06c1.057-.075 2.215-.015 3.18.424 2.644 1.203 4.704 3.85 5.723 6.57.94 2.514.607 5.44 0 8.054-.943 4.063-4.862 7.196-3.815 11.234l1.484 5.723s-4.646-.278-6.57-1.484c-2.3-1.447-3.718-3.52-4.45-6.147-.665-2.382.66-5.035 0-7.42-.33-1.19-.672-3.197-1.908-3.18-1.297.018-2.897 1.854-2.91 3.15l-.056 6.056c-.033 3.525 2.455 6.654 5.182 9.02 3.797 3.293 8.133 5.14 14.107 4.596 8.884-.807 16.942-9.002 20.462-15.64-17.566 3.33-14.01 4.712-20.698 5.885l11.02-38.812c3.265 9.587 6.33 19.253 15.812 26.353 1.684-10.41-3.077-23.005-7.666-35.936 11.284.535 21.457 2.18 30.187 5.27-7.574 13.242-13.64 25.87-18.912 38.342-8.132 13.764-18.27 20.552-29.137 21.138-5.346.288-10.435.03-15.586-2.832-4.028-2.238-8.26-5.267-11.583-9.58 0 0-6.836 6.052-11.127 8.13-4.936 2.39-10.57 3.98-16.048 4.28-5.663.3-13.207-.65-18.616-2.354-5.418-1.708-8.192-3.88-12.41-7.49-3.037-2.598-7.977-10.2-7.977-10.2z"/><path id="J" d="M323.573 406.137c.004 2.79-1.46 5.37-3.836 6.767a7.57 7.57 0 0 1-7.684 0c-2.377-1.396-3.84-3.977-3.836-6.767-.004-2.79 1.46-5.37 3.836-6.767a7.57 7.57 0 0 1 7.684 0c2.377 1.396 3.84 3.977 3.836 6.767z"/><path id="K" d="M-346.46 1090.707h16.902l2.2 3.806-2.2 3.806h-16.902l-2.707-3.806z"/><path id="L" d="M242.26 444.65l-.032.024h-.032c-13.517.973-29.16 2.033-42.813 3.893-1.93 2.307-2.1 4.41 1.422 6.094 13.106-1.786 28.56-2.872 42.086-3.845 18.346-1.063 36.843-1.728 55.293-1.9h35.387c11.036 0 34.344.673 55.293 1.935 20.853 1.255 42.15 3.82 42.15 3.82 3.634-1.856 3.24-3.932 1.264-6.094 0 0-21.493-2.636-42.78-3.918-21.192-1.276-44.47-1.935-55.925-1.935h-35.387c-18.67.056-37.31.936-55.925 1.935z"/><path id="M" d="M286.18 456.873c.002 1.4-.726 2.674-1.9 3.37a3.77 3.77 0 0 1-3.826 0c-1.184-.695-1.912-1.98-1.9-3.37s.726-2.674 1.9-3.37a3.77 3.77 0 0 1 3.826 0c1.184.695 1.912 1.98 1.9 3.37z"/></defs></svg>