<?xml version="1.0" encoding="UTF-8" standalone="no"?>
<svg xmlns:dc="http://purl.org/dc/elements/1.1/" xmlns:cc="http://creativecommons.org/ns#" xmlns:rdf="http://www.w3.org/1999/02/22-rdf-syntax-ns#" xmlns:svg="http://www.w3.org/2000/svg" xmlns="http://www.w3.org/2000/svg" xmlns:sodipodi="http://sodipodi.sourceforge.net/DTD/sodipodi-0.dtd" xmlns:inkscape="http://www.inkscape.org/namespaces/inkscape" width="1200" height="600" version="1.1" id="svg17" sodipodi:docname="7777.svg" inkscape:version="0.92.2 (5c3e80d, 2017-08-06)">
  <metadata id="metadata23">
    <rdf:RDF>
      <cc:Work rdf:about="">
        <dc:format>image/svg+xml</dc:format>
        <dc:type rdf:resource="http://purl.org/dc/dcmitype/StillImage"/>
        <dc:title/>
      </cc:Work>
    </rdf:RDF>
  </metadata>
  <defs id="defs21"/>
  <sodipodi:namedview pagecolor="#ffffff" bordercolor="#666666" borderopacity="1" objecttolerance="10" gridtolerance="10" guidetolerance="10" inkscape:pageopacity="0" inkscape:pageshadow="2" inkscape:window-width="1920" inkscape:window-height="1057" id="namedview19" showgrid="false" fit-margin-top="0" fit-margin-left="0" fit-margin-right="0" fit-margin-bottom="0" inkscape:zoom="0.81759222" inkscape:cx="605.61487" inkscape:cy="237.68931" inkscape:window-x="-8" inkscape:window-y="-8" inkscape:window-maximized="1" inkscape:current-layer="svg17"/>
  <clipPath id="c">
    <path d="M 0,0 V 150 H 700 V 300 H 600 Z m 0,300 v 50 H 300 V 0 h 300 z" id="path2" inkscape:connector-curvature="0"/>
  </clipPath>
  <rect width="1200" height="600" id="rect5" x="-2.7734375e-005" y="-8.7304688e-005" style="fill:#00205b;stroke:none"/>
  <path d="m 0,0 599.99996,300 m 0,-300 L 0,300" id="path7" inkscape:connector-curvature="0" style="fill:none;stroke:#ffffff;stroke-width:60"/>
  <path d="M 0,0 600,300 M 600,0 0,300" clip-path="url(#c)" id="path9" inkscape:connector-curvature="0" style="fill:none;stroke:#ef3340;stroke-width:40"/>
  <path d="m 0,150 h 699.99996 m -400,-150 v 350" id="path11" inkscape:connector-curvature="0" style="fill:none;stroke:#ffffff;stroke-width:100"/>
  <path d="m 0,150 h 699.99996 m -400,-150 v 350" id="path13" inkscape:connector-curvature="0" style="fill:none;stroke:#ef3340;stroke-width:60"/>
  <path d="M 0,300 H 599.99996 V 0 H 1200 V 600 H 0 Z" id="path15" inkscape:connector-curvature="0" style="fill:#00205b;stroke:none"/>
  <circle r="133.3" cy="300" cx="900" id="circle2028" style="opacity:1;fill:#ffd100;fill-opacity:1;fill-rule:nonzero;stroke:none;stroke-width:5.05285358;stroke-linecap:round;stroke-linejoin:miter;stroke-miterlimit:4;stroke-dasharray:none;stroke-opacity:1;paint-order:stroke fill markers"/>
  <path inkscape:connector-curvature="0" id="path2032" style="fill:#000000;stroke:none;stroke-width:2.11768341;stroke-linecap:butt;stroke-linejoin:miter;stroke-miterlimit:4;stroke-dasharray:none;stroke-opacity:1" d="m 908.65558,244.61275 c -1.0239,1.9969 -4.8466,8.19235 -5.6587,9.1802 -3.2436,3.96801 -4.0487,4.7912 -5.8917,7.27498 -1.0122,1.35716 -3.1707,4.19385 -4.503,6.60945 -2.9118,5.29218 -2.9118,7.2162 -2.9118,7.2162 0,0 -4.1074,2.41089 -4.5005,2.58025 -0.3978,0.16456 -2.2362,1.34536 -4.7689,3.17061 -3.3096,2.378 -1.8526,1.1972 -5.4305,4.23844 -3.067,2.61794 -5.741,7.41854 -7.4123,9.65298 -1.9866,2.64614 -3.5166,6.65414 -3.8415,9.91882 -0.3955,3.97501 0.1342,4.96756 0.1342,8.27464 0,2.54736 -0.6614,4.69712 -2.1209,4.69712 -1.1228,0 -1.4547,0.13407 -2.2503,-2.7755 -0.4614,-1.69578 -0.4872,-1.30068 -0.7909,-5.29218 -0.068,-0.86089 -0.3978,-3.50692 0.7909,-8.20875 1.4829,-5.88733 3.1966,-8.14066 6.1602,-12.69433 2.9776,-4.54886 13.4382,-17.00794 14.8952,-23.68787 1.4383,-6.63524 2.5139,-13.49863 -2.1867,-20.64194 -3.8652,-5.86853 -10.8726,-6.70353 -12.379,-6.87758 -1.8856,-0.22105 -4.3382,-0.59035 -8.168,0.46108 -2.1584,0.59735 -3.6179,1.05844 -6.1977,2.71192 -3.4861,2.22975 -5.1644,4.79591 -6.2237,7.34327 -0.9933,2.3826 -1.5559,4.29023 -0.9933,6.09188 0.379,1.21839 0.9933,1.45593 0.9933,1.45593 0,0 -2.0267,8.07238 -1.3228,9.66009 0.7273,1.61819 2.2597,1.72406 2.9776,1.85103 0.7768,0.13637 0.1153,-4.84529 4.4112,-7.92182 0,0 2.4244,-0.23754 4.8584,-0.96905 1.0333,-0.31513 3.3989,-1.76406 3.8791,-2.20625 1.2994,-1.18781 3.3614,-3.62929 4.8584,-3.32347 0.8451,0.16936 1.5959,0.4092 2.4504,1.25598 1.7701,2.0298 1.3394,4.45019 1.1252,7.27029 -0.1413,1.79705 -1.6737,5.79555 -8.2739,12.7742 -7.9443,8.4017 -10.9243,11.24069 -16.3547,18.24994 -3.9215,5.06873 -5.3363,7.12922 -9.0695,14.03019 -1.2334,2.28153 -4.5688,11.64289 -3.3095,19.51532 1.9114,11.93222 7.6548,17.58901 11.0961,20.63724 3.4508,3.05304 12.0095,6.69883 12.0095,6.69883 0,0 3.9051,2.22504 11.2539,3.29287 11.9176,1.71938 13.4806,1.16671 18.7603,0.4116 5.122,-0.72672 16.8561,-3.25528 20.8294,-4.57955 0.8522,-0.28923 1.3652,1.9852 5.5598,4.43139 3.971,2.31452 4.4371,2.56376 9.7992,2.44849 6.0236,-0.13397 7.0664,-0.87728 9.7309,-1.72167 1.3747,-0.43749 2.1868,-0.72682 3.4437,-0.99026 0.6191,-0.13176 2.1821,-0.26583 3.0459,-0.52926 1.2971,-0.4069 -0.1601,-0.95956 -0.8638,-1.05844 -2.6481,-0.3975 -3.4908,-1.39005 -3.7709,-1.78755 0,0 -0.4637,-0.3951 0.2636,-0.59505 0,0 1.6313,0 5.8258,-1.32187 2.5163,-0.7926 4.6748,-1.69588 6.4897,-2.58026 3.7873,-1.85103 7.5535,-4.3749 9.0671,-5.48982 1.789,-1.32417 3.6414,-2.64604 7.6147,-5.95312 3.9804,-3.31887 4.8326,-5.02874 5.8259,-6.41889 0.6614,-0.93377 0.9438,-2.09328 0.1977,-1.71937 -0.3978,0.19995 -0.9933,0.46338 -1.5206,0.72682 0,0 -1.1275,0.059 -0.466,-0.85849 0.1576,-0.22574 0.845,-0.74321 1.2593,-1.01145 0,0 2.7869,-2.52146 4.7666,-4.81239 2.1773,-2.52847 3.5072,-4.36541 4.5006,-6.019 0,0 0.4708,-0.99255 -0.7933,-0.33161 -1.3912,0.72911 -1.6548,1.12661 -1.6548,1.12661 0,0 -0.9934,0.13177 -0.3319,-1.9851 0.7533,-2.3898 0.7933,-1.85114 1.457,-3.24119 0.6357,-1.33836 2.1845,-3.83864 3.3096,-5.35806 1.1935,-1.6135 2.3162,-2.91187 3.7074,-5.42394 1.3817,-2.50028 0.1082,-1.84174 -1.4571,-1.1996 -1.257,0.52217 -2.3091,0.85388 -2.7799,1.00205 -0.8121,0.25633 -4.3853,1.88163 -5.2962,2.24853 -2.4339,0.98326 -2.78,1.14082 -5.0985,2.31453 -2.8859,1.46293 -4.7572,2.34031 -5.4256,2.64603 -0.7297,0.32932 -0.9934,0.72682 -2.9801,0.86089 -2.7093,0.18115 -2.4504,0.063 -4.2393,0.063 -1.7183,0 -2.9117,0.22585 -4.1028,0 -1.184,-0.22344 -1.9961,0.27283 -0.5955,-1.78525 1.3887,-2.05099 1.1911,-1.78515 2.1843,-3.05294 0.6192,-0.7833 2.6387,-3.63399 2.58,-3.56821 -0.3367,0.38111 2.914,-4.02669 2.7163,-4.49007 -0.1978,-0.46339 -1.5229,0.795 -3.0459,0.72682 -0.9274,0 -2.1844,-0.32932 -2.6481,-0.39751 -0.2565,-0.035 -0.3319,-0.72451 0.7273,-1.71707 0.7556,-0.70332 0.1672,-0.18585 1.789,-1.45593 0.9838,-0.76681 1.9254,-1.73117 2.5822,-2.38271 1.3228,-1.32187 1.7866,-1.71937 3.2436,-3.5728 2.1679,-2.75661 2.9777,-3.97501 2.9777,-3.97501 0,0 0.9367,-1.29368 -0.6615,-0.72922 0,0 -0.2636,0.19995 -2.714,1.45834 -1.1346,0.57865 -2.9965,0.89847 -4.0393,0.92437 -1.0333,0.016 -0.7438,-0.54807 -0.063,-1.05844 0.6686,-0.50097 0.3791,-0.51277 -0.2683,-0.52917 -1.0498,-0.026 -3.4649,0.54797 -2.8458,-0.3975 0.7037,-1.07963 2.7563,-1.49832 2.2503,-1.78295 0,0 -2.7776,0.26343 -4.0369,0.3952 0,0 -0.8615,-0.13177 -0.5296,-0.99265 0.1152,-0.29633 1.7136,-1.66758 1.9183,-2.11687 0,0 1.789,-2.38031 3.312,-4.56306 0,0 3.3754,-3.24349 0.9932,-3.10942 -0.9932,0.066 -3.0459,1.91692 -4.703,2.51207 -1.6547,0.59735 -6.7509,2.84599 -3.7049,-0.46109 0,0 0.6638,-0.59505 1.1911,-1.39005 0,0 2.2502,-2.83899 2.7139,-3.63159 0,0 0.5296,-0.99265 -1.4571,-0.13407 0,0 -3.2671,1.47703 -3.8391,1.1925 -0.6614,-0.33171 -0.4637,-0.01 -0.2001,-1.46303 0.1342,-0.72912 1.1276,-2.97776 1.8572,-4.23374 1.0593,-1.83234 2.3422,-3.43644 2.7141,-3.83634 0.6213,-0.68203 1.0169,-1.14072 -0.4638,-0.795 0,0 -3.0129,2.01809 -5.0984,2.71432 -1.5889,0.52687 -2.3822,0.59515 -3.3756,0.66093 -0.8214,0.054 -3.1118,0.13177 -3.1118,0.13177 0,0 -1.5888,0.13177 -2.4503,0.19995 -1.1252,0.087 -0.066,-0.99255 0.9933,-2.44849 0,0 0.3814,-0.75501 1.523,-2.57325 l 4.2369,-7.14562 c 0,0 1.3394,-1.75226 -0.6614,-0.72682 -0.1412,0.073 -1.0191,0.8021 -1.1275,0.91967 -1.3888,1.51942 -1.5535,1.44654 -3.1094,2.78021 0,0 -1.6548,1.05603 -2.8482,1.38535 0,0 -2.5163,1.39005 -2.4481,0.26814 0.09,-1.58761 0.3979,-2.11917 0.6615,-2.58256 0.3718,-0.65394 0.2637,-0.52927 0.9933,-2.11457 0,0 0.5296,-1.5876 0.9251,-3.77276 l 0.3319,-2.18275 c 0,0 0.2636,-2.52137 -1.0593,-0.066 -1.3157,2.42969 -2.8623,4.09967 -4.2369,5.15811 -0.7697,0.59045 -1.1911,0.92916 -3.9051,1.92172 0,0 -2.2692,1.10782 -3.8416,1.38775 -1.1227,0.19985 -0.6614,-1.78526 -0.3318,-3.30947 0,0 0.466,-1.19011 1.2616,-5.75317 0,0 0.2637,-2.24863 -1.1274,-0.53156 0,0 -0.7039,1.74756 -2.0526,3.63869 -1.6289,2.29802 -2.6482,3.1777 -3.2436,3.90682 0,0 -1.8525,2.57786 -2.514,3.96801 -0.1177,0.23044 -0.4661,-0.063 -0.6614,0.063 -0.5485,0.35511 -0.6638,-5.75326 -0.6638,-5.75326 0,0 -0.3296,-0.72912 -0.9274,-0.066 0,0 -0.6638,1.1902 -1.0569,2.11687 0,0 -0.7298,2.12157 -1.2617,2.51907 -0.5273,0.3975 -1.1228,-6.4235 -0.9934,-8.27463 0,0 -0.1977,-1.91932 -0.7602,-0.83739 z"/>
  <path inkscape:connector-curvature="0" id="path2034" style="fill:#ffd100;fill-opacity:1;stroke:none;stroke-width:1.05936599;stroke-linecap:butt;stroke-linejoin:miter;stroke-miterlimit:4;stroke-dasharray:none;stroke-opacity:1" d="m 857.39528,244.60815 c 0.1668,0.30222 -1.0468,2.54996 -2.5725,3.76596 -1.8636,1.48752 -4.0277,2.08018 -4.753,1.28208 -0.6267,-0.68233 1.2534,-3.51802 2.7298,-4.32082 2.0796,-1.12632 4.3493,-1.16881 4.5957,-0.72722 z"/>
  <path inkscape:connector-curvature="0" id="path2036" style="fill:#000000;fill-opacity:1;fill-rule:nonzero;stroke:none;stroke-width:2.35522175" d="m 851.68038,246.4045 c 0.4611,0.26633 1.6447,1.73496 2.3155,2.32192 0.5293,0.46198 0.5953,0.35831 0.3318,-0.26404 -0.2002,-0.46678 -0.7295,-1.92591 -1.0589,-3.44873 0,0 -2.052,1.12681 -1.5884,1.39085"/>
</svg>