<svg xmlns="http://www.w3.org/2000/svg" height="627.46" width="941.19" viewBox="-74.91 -50.106 744.094 496.062" xmlns:v="https://vecta.io/nano"><path fill="#feea28" d="M-74.9-50.106h744v496h-744z"/><path d="M419.42-5.82l-2.303.053c-9.843.28-12.673 1.037-21.7 5.677-8.26 4.27-13.675 9.228-19.8 18.228-5.6 8.173-9.492 18.86-10.6 28.88-1.723 15.784-4.5 29.934-7.224 36.736-1.652 4.166-6.1 10.283-8.666 11.935-.967.633-1.705 1.39-1.582 1.722.264.79 4.13 1.44 6.574 1.1 3.392-.492 8.683-2.76 12.445-5.29 2.76-1.863 3.392-1.828 2.953.21-1.125 5.38-1.39 7.822-1.53 14.43-.176 8.613.492 11.917 3.832 18.597 1.863 3.744 5.677 8.877 6.187 8.35.123-.123-.123-1.512-.5-3.11-1.635-6.416-1.863-9.755-1.055-15.415 1.424-10.16 3.902-17.4 9.457-27.438l3.674-6.943c.756-1.494 2.267-4.236 3.34-6.1 3.076-5.273 3.305-4.465 2.953 10.933-.14 7.03-.5 13.78-.773 15.01s-.37 2.338-.246 2.46c.35.352 2.426-2.338 4.64-6.01 3.78-6.258 7.54-15.468 8.21-20.038.21-1.354.58-3.023.844-3.69.387-1.037.492-10.388.21-17.35-.07-1.687-.035-1.74 1.67-1.6 1.846.158 9.316-1.213 10.16-1.863.28-.21 1.213-.615 2.092-.914 2.865-.967 9.58-6.205 9.58-7.488 0-.3-.58-.562-1.266-.562-3.18 0-7.312-3.234-8.173-6.416-.28-1.055-.37-3.164-.193-4.658.457-3.937 3.146-6.855 7.84-8.525 8.578-3.076 15.275 0 19.51 8.947 1.775 3.744 1.863 4.22 1.828 8.666-.088 9.773-2.338 14.695-13.36 29.108-1.635 2.144-3.64 4.886-4.465 6.117-.81 1.23-1.617 2.355-1.775 2.478-.158.14-1.723 2.373-3.48 4.974l-6.9 10.02c-10.634 15.17-13.904 22.938-17.42 41.324-1.125 5.94-1.178 9.527-.21 15.046 2.373 13.447 9.298 24.643 27.07 43.732 8.068 8.666 14.01 16.77 17.26 23.554 1.477 3.076 1.688 3.955 1.705 7.61.018 4.57-.404 5.484-3.744 8.19-2.55 2.057-5.467 2.25-10.353.685-6.117-1.95-10.09-4.447-15.064-9.492-2.46-2.478-5.326-5.73-6.345-7.242-2.812-4.113-10.335-15.556-11.952-18.228a316.17 316.17 0 0 0-6.047-9.544l-2.62-4.166c-.246-.545-8.56-13.43-10.072-15.574-3.058-4.324-3.972-5.537-8.507-11.302-4.922-6.24-17.63-19.493-22.692-23.66-5.8-4.763-12.726-8.947-24.485-14.765-6.714-3.322-12.2-6.293-12.18-6.61 0-.352 1.248-.598 3.4-.668 3.603-.088 7.453-1.564 9.843-3.762 1.107-1.002 1.178-1.02 2.988-.158 3.832 1.828 9.298 1.512 11.267-.668.81-.896.738-.967-1.37-1.898-3.4-1.512-4.57-3.55-4.57-7.998v-3.69l2.478-.58c3.094-.72 7.013-3.13 8.84-5.43 1.635-2.092 3.287-5.554 3.305-6.96 0-.79-.264-.633-1.46.81-1.6 1.95-5.22 3.902-7.224 3.902-2.408 0-5.695-2.478-5.695-4.306 0-.334 1.037-.738 2.355-.932 3.744-.545 6.503-2.443 7.277-4.992.3-.967.158-1.037-2.11-.81-5.36.5-6.064-1.142-6.152-14.15l-.07-9.685 1.195-.967c.668-.545 2.232-1.494 3.498-2.127 2.724-1.39 5.185-4.078 6.54-7.12 1.125-2.53 1.863-10.476.967-10.476-.28 0-.668.492-.86 1.107-.615 2.057-3.13 5.572-4.623 6.45-2.092 1.248-4.394 1.107-6.345-.387-.914-.703-1.67-1.582-1.67-1.95s.756-1.318 1.687-2.092c5.36-4.412 8.683-15.046 7.277-23.3-.65-3.867-2.338-9.44-3.304-10.986-.053-.088-1.758.844-3.797 2.092s-5.256 2.865-7.136 3.603c-3.234 1.283-3.832 1.353-11.83 1.353-4.64 0-13.007-.158-18.614-.334-5.6-.193-12.146-.14-14.554.105-5.097.5-6.398 1.195-11.794 6.363-1.916 1.828-4.517 3.937-5.8 4.676-2.848 1.652-7.418 2.865-10.67 2.865-1.353 0-3.885.264-5.642.598-3.568.65-4.36 1.44-3.674 3.69.246.79.72 2.69 1.055 4.22.615 2.777.598 2.83-.896 4.71-2.127 2.707-2.46 4.34-2.795 13.94-.123 3.34-.035 6.187.21 6.328.228.14 1.353-.088 2.478-.545 2.6-1.037 6.38-.65 8.507.86.844.598 2.18 2.092 2.97 3.322 1.213 1.916 1.424 2.777 1.424 5.625 0 1.846-.316 4.306-.703 5.484-.387 1.16-.86 2.848-1.037 3.726-.176.896-1.318 2.953-2.514 4.588-3.832 5.203-10.37 8.42-17.2 8.437h-2.83l-1.828-2.847c-2.215-3.515-4.29-5.783-6.9-7.488-1.758-1.16-2.46-1.318-5.96-1.266-7.03.07-12.005 2.847-14.396 8.015-1.178 2.55-1.3 3.322-1.142 7.312l.158 4.465-1.898-.07c-2.18-.07-4.535-2.056-8.964-7.63-7.558-9.474-10.67-16.206-12.515-27.28-.897-5.273-.88-4.974-.28-7.7.932-4.394 2.9-7.523 7.453-12.005 5.168-5.062 5.783-6.486 3.972-9.246-.633-.967-1.705-2.04-2.39-2.373-.88-.44-1.44-.72-1.758-1.055l-10.8-6.873-3.27-.28c-3.076-.246-3.34-.176-4.623 1.107-1.16 1.16-1.37 1.775-1.37 4.06 0 1.476-.23 3.11-.5 3.638-.703 1.3-2.285 1.23-3.2-.176-.826-1.248-1.142-5.273-.5-6.293.228-.37.475-1.758.545-3.04.193-3.234-1.125-4.64-4.8-5.115l-15.38.14c-.633-.053-1.143.088-2.162.492-1.95 1.16-3.11 2.724-3.533 4.816-.228 1.125.176 2.373 1.723 5.308 1.107 2.092 2.04 4.2 2.04 4.658 0 1.248-1.494 2.654-2.795 2.654-1.178 0-1.723-.598-4.183-4.605-1.863-3.006-3.48-3.69-5.994-2.55-4.85 2.848-7.506 7.716-9.615 13.113-1.02 2.9-.95 3.867.545 6.855 1.8 3.64 3.2 4.254 8.79 3.92 5.15-.28 6.293.334 6.293 3.34 0 1.353-.334 1.97-1.67 2.97-1.846 1.424-3.955 1.705-8.297 1.072-2.53-.352-2.883-.3-4.22.844-1.266 1.1-1.424 1.547-1.353 3.76l.07 2.53c1.53 4.183-5.73 3.164 4.57 12.532.685.457 2.144.967 3.252 1.142 2.162.352 2.53.123 7.505-4.34 4.27-3.832 8.138-1.564 7.892 4.623-.246 5.677-3.78 8.824-11.144 9.826-2.478.334-4.728.475-5 .3-.3-.176-.527-.088-.527.21 0 .756 4.166 3.304 7.418 4.535 2.232.844 3.48 1.002 6.54.79 2.092-.123 4.254-.5 4.834-.81 1.793-.967 2.197-.21 1.863 3.428-.352 3.885-1.23 6.275-2.865 7.752-2.707 2.478-4.728 2.707-9.966 1.213-1.846-.527-3.357-.844-3.357-.703 0 .123.334.86.72 1.617 1.195 2.32 3.972 4.36 7.558 5.52 1.863.615 3.586 1.283 3.832 1.53.264.246-.246 1.037-1.23 1.916-2.144 1.898-4.517 1.97-8.648.264-3.726-1.547-3.902-1.547-3.516.123.176.756.422 2.232.545 3.305.264 2.303 1.81 5.466 3.586 7.347 4.2 4.447 13.745 4.87 20.776.896 1.46-.826 2.883-1.494 3.164-1.494.86 0 .545 3.902-.475 5.906-.527 1.055-1.916 2.724-3.076 3.71l-2.092 1.793h2.46c3.164-.018 10.423-1.564 14.906-3.18 4.06-1.477 4.447-1.53 4.8-.615.352.932-3.797 16.997-5.133 19.845-.633 1.318-2.144 3.516-3.392 4.85-2.02 2.18-2.6 2.496-5.132 2.9-2.11.334-3.463.28-5.133-.228-2.83-.844-3.972-1.863-5.255-4.676-.844-1.846-.967-2.777-.686-5.607.21-2.11.14-3.375-.158-3.375-.826 0-4.008 4.06-5.22 6.68-2.742 5.888-2.847 10.828-.37 16.294 2.338 5.168 7.664 8.947 14.466 10.265 2.53.492 4.148.5 7.63.053 9.246-1.248 15.503-4.517 19.388-10.16 1.564-2.285 2.25-2.848 4.394-3.533 4.306-1.39 9.263-4.43 13.464-8.28 1.564-1.424 2.742-1.178 2.742.58 0 .896 2.953 7.453 4.095 9.105.545.81.158 1.336-3.428 4.763-2.232 2.127-5.906 5.29-8.19 7.03-5 3.85-15.468 10.863-16.19 10.863-.3 0-.826.28-1.195.615-1.002.914-2.285 1.652-5.607 3.27-6.433 3.11-10.265 4.148-15.837 4.236-3.18.053-3.76-.07-5.396-1.318-2.004-1.53-2.197-2.46-1.1-5.15 1.125-2.69.967-5.238-.404-6.54-1.846-1.723-4.043-2.162-6.45-1.266-4.658 2.32-10.09.053-16.013 5.484-3.797 2.672-4.236 5.344-1.582 9.35 1.898 2.883 2.092 5.238.5 6.82-1.02 1.002-1.248 1.037-3.445.44-1.3-.352-2.46-.79-2.602-.984-.844-1.178-3.34-2.566-4.57-2.566-2.988 0-4.886 1.8-6.1 5.836-1.44 8.912.193 11.232 1.125 14.853.264 1.758 2.338 3.62 4.06 3.62 1.95 0 3.006-.562 6.59-3.55 4.06-3.375 6.68-3.322 7.558.158.773 3.076-2.918 6.345-8.314 7.312-2.97.545-4.834 1.3-5.45 2.232-.21.3-.37 1.37-.387 2.39.79 4.535 5.115 7.242 7.752 10.968l2.69 2.496c3.11 2.795 5.976 3.463 8.525 1.97 2.566-1.512 3.674-4.008 4.043-9.246.457-6.117.668-6.908 2.338-8.736 1.107-1.213 1.635-1.477 2.25-1.125.686.387.844 1.37.896 5.607.035 4.904.123 5.29 1.652 7.77 3.217 4 12.322 3.445 18.403-.334 3.13-2.02 4.13-3.85 4.183-7.716.035-2.355-.228-3.55-1.037-4.94-1.652-2.795-1.44-3.445 1.44-4.482l2.53-.896 1.318 1.3c1.248 1.248 1.283 1.53 1.143 5.677-.123 3.217.053 4.904.686 6.45.72 1.828 2.724 4.06 3.638 4.06.158 0 .23-1.336.14-2.988-.193-3.533.914-6.24 5.203-12.533 1.46-2.127 2.777-4.465 2.935-5.203.545-2.496.668-2.654 2.04-2.496.914.105 1.67.685 2.32 1.8.932 1.6.932 1.775.105 6.486-.81 4.623-.738 7.63.228 9.457.28.527.738-.018 1.67-1.986 1.67-3.533 2.83-5.396 5.238-8.455 2.11-2.654 3.498-6.398 3.498-9.404 0-2.637.86-4.746 2.215-5.36 2.408-1.1 2.97 1.97 2.04 11.126-.44 4.183-.07 8.63.72 8.63.246 0 .81-.844 1.248-1.863.422-1.02 1.758-3.445 2.988-5.414 3.656-5.87 7.242-14.8 6.855-17.085-.123-.65.28-2.637.914-4.412.86-2.496 1.37-3.252 2.215-3.375 1.898-.28 2.795 1.828 2.443 5.73-.58 6.363-.562 8.19.07 9.667l.615 1.494 1.547-2.918 2.97-5.572c1.266-2.373 1.44-3.2 1.44-7.048 0-3.287.176-4.553.773-5.133 1.055-1.055 1.547-.984 2.426.37.58.88.633 1.53.246 2.847-.264.95-.72 3.146-1.002 4.922-.44 2.654-.387 3.568.3 5.326.44 1.178.967 2.127 1.195 2.127.21 0 .545-.914.72-2.056.176-1.125 1.46-4.412 2.847-7.312 1.986-4.113 2.566-5.853 2.637-7.998.158-4.2.21-4.465 1.002-4.465 1.39 0 1.88 1.95 1.53 5.994-.3 3.304-.193 4.183.72 6.328.598 1.37 1.494 2.883 2.02 3.357.914.826.95.773.967-1.336.018-2.25.72-4.482 3.375-10.74 1.635-3.85 2.373-7.242 2.812-12.78.246-3.2.967-4.71 2.232-4.71.158 0 .685.28 1.142.615.65.475.897 1.67 1.107 5.08.246 4.465.615 7.066 1.1 7.875.14.246 1.125-1.318 2.197-3.463 1.055-2.144 2.812-5.6 3.92-7.646 2.426-4.553 3.603-10.388 3.11-15.275l-.334-3.2 1.37.334c.756.193 2.513.896 3.92 1.582 6.17 3.006 9.58 4.166 12.76 4.36 2.232.14 4.64.738 7.68 1.97 2.443.984 6.556 2.355 9.158 3.06 5.94 1.6 8.964 3.094 12.954 6.38 3.287 2.707 8.367 8.26 8.367 9.14 0 .28-2.338.598-5.572.756-3.076.14-6.785.5-8.26.79-7.84 1.494-16.68 5.607-22.868 10.6-6.17 4.992-9 7.68-14.642 13.992-6.398 7.17-8.26 8.683-11.988 9.667-1.143.3-7.505.756-14.15 1.002-7.26.28-13.13.756-14.782 1.178-3.744.967-7.558 2.303-8.314 2.918-.334.28-1.53.984-2.637 1.582-2.935 1.582-7.98 6.257-11.69 10.863-1.775 2.232-5.625 6.59-8.543 9.685-8.26 8.84-12.866 11.882-18.632 12.34-4.06.334-7.875-.79-10.546-3.076l-2.074-1.758-1.143 1.863c-.967 1.547-1.16 2.55-1.16 5.87 0 3.603.158 4.254 1.512 6.433 1.863 3.04 6.047 5.396 10.476 5.906 8.296.967 20.864-2.9 27.596-8.5 1.898-1.564 2.654-1.46 3.62.457 1.67 3.322 3.34 4.957 6.486 6.433 2.443 1.142 3.2 1.758 3.428 2.777 1.178 5.185 1.916 6.52 5.256 9.44l1.8 1.582-1.195 4.342c-.65 2.373-1.8 5.203-2.584 6.3-1.986 2.848-7.17 6.52-10.476 7.47l-4.324 1.248c-2.53.756-10.775 1.16-11.882.563-.88-.475-.967-.86-.685-3.656.35-3.568-.07-5.677-1.53-7.54-1.16-1.46-3.902-2.338-6.3-2.02-5.273.897-9.37 3.85-11.935 7.154l-1.793 2.162c-1.828 2.215-2.18 3.937-1.125 5.308.334.422 1.95 1.512 3.603 2.39 3.34 1.758 4.957 3.867 4.465 5.783-.387 1.53-1.353 2.04-4.746 2.46-2.426.3-3.023.176-5.6-1.178-3.656-1.933-5.572-2.267-8.033-1.406-1.494.527-2.232 1.195-3.094 2.83-.633 1.178-1.142 2.76-1.142 3.515-.422 5.466 1.178 13.306 2.478 16.312 1.037 2.057 2.232 2.69 4.85 2.584 2.144-.07 3.4-.756 6.134-3.4 1.8-1.74 2.584-2.162 3.71-2.04 1.97.228 2.672 2.232 1.582 4.535-.65 1.336-1.44 1.933-3.937 2.935-3.568 1.424-4.8 2.953-4.85 6.01-.035 1.107.404 2.724 1.037 3.832 1.37 2.83 6.17 6.59 12.48 7.716 4.306.703 7.892-3.182 8.5-9.228.28-2.918.545-3.62 1.617-4.482 1.494-1.178 2.9-.95 4.27.65.686.81.896 1.758.826 4.043-.176 5.396-.07 5.96 1.547 7.61 2.742 2.55 12.286-.932 16.1-3.69 1.688-1.107 3.2-3.744 3.2-5.607 0-.88-.668-3.27-1.494-5.326-1.793-4.5-1.846-5.642-.28-7.453 1.002-1.142 1.39-1.3 2.11-.844 1.74 1.037 3.2 4.517 3.568 8.455.3 3.094.58 3.955 1.512 4.71 1.635 1.336 2.742 1.23 2.25-.193-.65-1.863-.475-5.43.404-8.543.475-1.635.86-4.43.86-6.24 0-3.13.65-6.135 1.512-7.1.228-.246.72.316 1.1 1.23.545 1.318.598 2.742.23 6.662-.492 5.45-.053 8.19 1.6 10.23 1.16 1.424 1.898.88 1.107-.844-.5-1.125-.316-1.828 1.74-5.976 2.25-4.57 2.338-4.87 2.55-10.142.123-2.988.37-5.45.563-5.45s.738.844 1.23 1.863c.633 1.283.984 3.4 1.142 6.82.193 4.465.37 5.132 1.582 6.662 2.18 2.76 2.478 2.53 2.162-1.635-.246-3.287-.123-4.043.967-6.363 2.6-5.554 4.324-10.283 4.887-13.482.914-5.256 1.687-3.955 1.775 2.953.088 6.52.88 9.316 3.375 11.812 1.687 1.688 2.355 1.67 1.916-.07-.826-3.217-.37-6.24 1.547-10.3 2.918-6.117 4.324-10.107 4.816-13.64 1.02-7.136.95-6.925 2.25-7.242 4.008-1.02 7.294.14 8.226 2.9.352 1.1.035 2.057-2.004 5.748-3.69 6.68-4.043 8.05-3.058 11.62.615 2.18.95 2.303 1.95.668.404-.65 3.322-3.832 6.468-7.066 9.79-10.054 12.093-13.904 11.372-19.09-.527-3.92-2.865-7.312-9.984-14.554-6.644-6.767-8.595-9.28-10.53-13.622-5.466-12.18 2.232-20.003 20.776-21.145 3.252-.21 7.61-.088 10.775.246 6.257.668 13.675.81 16.646.316l2.11-.37.984 2.338c.932 2.18 4.166 12.954 5.713 19.07l2.004 7.945c1.67 6.61 2.02 11.372.95 13.43-.95 1.8-3.463 3.428-5.343 3.428-3.023.018-7.1-3.568-8.683-7.646-.527-1.353-1.16-2.53-1.39-2.6-.246-.088-.95.615-1.582 1.547-1.88 2.76-1.39 8.79 1.142 13.675 1.107 2.144 4.465 5.73 6.925 7.418 5.36 3.656 13.376 4.658 20.108 2.496 3.18-1.02 4.148-1.635 6.732-4.2 1.652-1.652 3.34-3.55 3.762-4.22l.756-1.213 3.674 1.705c2.918 1.353 4.447 1.74 7.4 1.88 3.762.193 5.73-.387 10.335-3.076.86-.5 1.617-.562 2.883-.21 2.55.703 6.732-.37 10.546-2.672 1.793-1.107 3.674-2.338 4.148-2.76 1.195-1.055 1.88-.3 3.322 3.603 1.705 4.623 1.477 11.038-.65 17.736-2.373 7.505-6.3 13.025-11.882 16.75-2.777 1.88-3.322 2.057-5.466 1.846-3.006-.28-4.728-1.846-6.257-5.695-2.02-5.062-2.53-6.03-3.64-6.802-1.617-1.142-4.148-.914-6.82.58l-2.83 1.547c-4.2 4.43-11.285 9.35-12.216 15.064-.246 1.002-.018 1.687.914 2.795 1.055 1.248 1.74 1.547 4.34 1.828 1.705.193 3.48.563 3.955.81 2.53 1.336 2.004 4.482-.984 5.73-1.617.685-2.46.703-6.627.158-2.62-.35-5.308-.5-5.994-.334-2.04.5-3.867 2.25-3.885 3.71-.158 5.923 3.023 13.007 5.73 18.456 1.248 2.478 2.6 3.463 4.763 3.463 1.195 0 2.584-1.37 6.978-7.013 3.27-4.166 5.502-5.818 7.084-5.203 1.318.5.88 2.988-.967 5.43-3.2 4.183-3.48 6.152-1.143 8.437 3.885 3.638 11.355 6.837 16.487 6.82 2.83-.105 5.203-1.424 6.117-3.34.685-1.44.72-2.285.193-6.644-.633-5.45-.21-7.013 2.004-7.593 2.32-.598 3.867 1.758 3.867 5.923 0 4.306.967 7.26 3.04 9.175 1.933 1.898 14.835-2.97 16.77-4.64 3.094-2.883 3.744-6.38 2.02-10.775-.545-1.39-1.002-2.742-1.002-3.006 0-.28.967-.932 2.162-1.44 1.39-.598 2.566-1.564 3.305-2.76 1.055-1.705 1.107-2.11.703-6.363-.668-7.295-.545-10.054.527-11.232 2.303-2.55 4.904.053 5.45 5.45.404 4.043 1.617 7.242 3.322 8.666 1.37 1.16 3.234 1.74 2.777.88-1.635-3.2-1.97-4.553-1.74-7.154.14-1.547.703-3.674 1.23-4.71l2.408-4.746c.79-1.564 1.6-2.847 1.793-2.847.58-.018 1.248 1.6 1.635 3.937.193 1.23.527 2.566.72 2.988 2.777 5.94 4.482 7.945 6.75 7.945 1.44 0 1.46.158.176-3.076-1.39-3.48-1.37-6.363.053-10.564 1.46-4.306 1.617-11.267.316-14.325-1.8-4.236-.246-5.87 2.25-2.338.967 1.353 1.582 3.18 2.11 6.24.422 2.373 1.195 5.273 1.705 6.45 1.002 2.232 2.953 3.937 4.2 3.656.65-.158.65-.422.018-2.162-.86-2.39-.95-7.945-.158-9.95.316-.81.562-3.18.562-5.29.018-3.656-.106-4.096-2.724-9.422-3.2-6.503-3.69-8.876-2.53-11.917 1.424-3.71 3.55-4.693 6.662-3.094 2.566 1.336 3.55 4.13 4 11.443.475 7.523 1.512 11.003 4.2 13.85.967 1.02 1.863 1.723 2.02 1.564.14-.14.035-1.406-.264-2.795-.756-3.515-.686-8.595.158-10.546.37-.896 1.44-4.078 2.355-7.084 1.283-4.254 1.652-6.328 1.652-9.44 0-3.638-.14-4.22-1.635-6.697-2.32-3.797-4.94-5.537-10.265-6.732-4.693-1.055-9.457-.86-12.744.492-1.547.633-3.006 1.02-3.234.86-.21-.158-1.44-1.564-2.724-3.094-3.762-4.465-6.838-6.275-11.83-6.978-4.13-.598-4.254-.668-6.68-3.146-4.605-4.728-11.214-7.453-21.058-8.718-2.338-.3-4.746-.738-5.36-.984-1.055-.404-1.072-.5-.422-2.057 2.18-5.027 3.34-8.525 4.043-12.286.844-4.605 1.002-13.956.28-18.35-.246-1.512-.352-2.848-.228-2.97.3-.3 4 3.69 8.015 8.666 9.527 11.777 16.927 19.16 22.48 22.446 6.9 4.078 12.92 5.87 28.387 8.525 9.896 1.705 12.515 2.62 14.308 5.062 1.723 2.338 2.25 4.64 2.883 12.34.685 8.5 1.39 10.51 4.166 12.146 2.988 1.758 3.357 1.635 2.514-.773-1.3-3.71-1.37-7.734-.246-14.853 1.846-11.69 1.318-17.278-2.092-21.567-1.88-2.39-2.6-2.953-6.52-5.238-1.67-.967-3.023-2.004-3.023-2.303s1.195-1.846 2.672-3.445c6.715-7.277 9.632-14.027 10.212-23.64.598-9.597-4.025-21.04-13.816-34.065-4.447-5.923-4.728-6.697-4.043-11.425.65-4.482 1.46-6.1 4.377-8.79 5.255-4.85 11.302-3.867 15.222 2.496 1.143 1.828 1.512.844.967-2.6-1.1-6.873-3.463-10.353-8.718-12.814-2.514-1.178-3.516-1.353-7.382-1.336-3.78.018-4.904.246-7.435 1.39-5.52 2.53-8.93 7.154-10.792 14.624-.615 2.496-1.266 4.535-1.46 4.553-.545 0-2.795-4.746-3.674-7.75-1.705-5.87-.598-16.294 2.197-20.776 3.04-4.886 6.785-8.103 11.742-10.054 3.04-1.195 4.13-1.336 8.683-1.318 5.713.035 7.962.65 11.69 3.164 1.213.81 2.197 1.266 2.197 1.02 0-1.477-3.392-5.713-6.187-7.7-10.792-7.7-23.905-6.785-36.72 2.6-3.744 2.76-5.695 3.885-5.695 3.322 0-1.142 6.1-6.943 13.85-13.113l3.955-3.234c.984-.844 3.445-2.848 5.466-4.465 9.632-7.752 20.16-19.317 24.362-26.788 5.414-9.632 9.35-21.708 10.933-33.485.5-3.902.158-9.913-.598-9.913-.246 0-.44.3-.44.65 0 1.758-5.924 15.327-9.35 21.427-.932 1.635-5.185 7.804-7.54 10.915-5.097 6.732-15.784 17.402-21.1 21.093-.58.404-2.25 1.635-3.726 2.742-3.234 2.443-10.072 5.906-10.792 5.466-.316-.21.176-1.582 1.283-3.656 1.846-3.392 6.24-11.16 7.1-12.497 13.2-20.917 20.495-38.617 21.18-51.308.475-8.79-1.44-17.806-5.203-24.573-2.6-4.64-10.16-12.076-15.503-15.24-9.2-5.43-15.503-7.136-26.7-7.013zM173.9 30.09v.387c-.035-.07-.035-.21 0-.387z"/><path d="M176.97 358.82c-1.9 8.03-2.5 14.75 4.08 20.02.1-5.4 1.2-9.95 4.4-15.68-2.14-2.1-5.46-4.17-8.5-4.34z" stroke="#000" stroke-width="1.969" fill="red"/><g fill="#fff"><path d="M398.65 1.06c-.53-.018-1.74.666-4.15 2.248-5.82 3.832-12.507 10.306-15.986 15.5-2.957 4.392-6.617 12.43-8.104 17.34-.6 2.142-1.202 4.317-1.455 6.427-.07.75-.498 3.265-.94 5.582-.46 2.324-.822 4.562-.838 4.965-.07 2.253-1.542 11.013-2.427 14.357l-1.2 4.815c-.75 3.344-1.97 7.036-3.28 10.183-.846 2-1.668 4.198-1.834 4.862l-.245 1.265 1.067-1.336c.593-.72 1.676-2.728 2.467-4.45 4.064-9.044 6.285-16.824 7.3-25.465.95-8.127 3.43-20.286 4.94-24.3 1.795-4.766 5.004-10.934 7.582-14.555 2.94-4.13 10.784-12.34 13.614-14.255 1.162-.8 2.198-1.618 2.3-1.83.087-.193.474-.37.862-.37s.696-.23.696-.495c0-.28-.103-.45-.348-.47zm4.917 9.388c-.617 0-5.732 5.027-7.487 7.313-3.637 4.78-5.85 14.093-5.36 22.702.213 3.676.806 6.83 2.3 12.16 4.76 16.926 5.708 22.144 5.605 30.88-.055 3.25.095 4.348.57 4.348.387 0 .917-1.162 1.28-2.814.8-3.573.72-8.356-.245-14.776-.735-5.06-1.225-6.98-4.127-16.405-4.04-13.132-3.93-23.473.395-31.994 1.376-2.707 4.957-7.833 6.404-9.116 1.012-.93 1.415-2.297.664-2.297zm9.756 8.227c-.387.017-.94.1-1.63.32-2.814.862-6.467 4.444-8.23 8.03-3.74 7.612-1.5 21.6 3.953 24.807 2.467 1.44 6.973 2.3 6.973 1.328 0-.245-.632-.672-1.384-.933-4.238-1.534-7.66-6.032-8.404-11.044-.546-3.747-.46-8.768.245-11.195.846-2.933 4.917-8.128 7.463-9.534 1.897-1.037 2.158-1.814 1.012-1.78zm7.44 21.124c-.356-.04-.474.625-.3 1.976.372 2.704 2.45 4.894 4.65 4.894.878 0 1.74-.198 1.874-.42.142-.23-.498-.775-1.43-1.218-2.364-1.2-2.9-3.732-4.8-5.234zm-36.146 2.688c-.95-.047-3.123 7.313-4.245 14.602-.46 2.87-1.154 6.65-1.557 8.428-.4 1.755-.814 3.787-.917 4.475-.2 1.297-1.74 6.8-3.905 13.86-.5 1.62-.925 3.3-1.13 4.325-.27.965-.775 2.403-.965 3.534a62.12 62.12 0 0 1-.395 2.316c-.142.83-.364 2.42-.474 3.558l-.767 6.72c-.474 3.866-.427 5.613.23 10 .822 5.55 1.107 6.767 1.652 6.767.2 0 .356-4.072.372-9.068 0-11.772.838-16.832 3.755-22.532 1.154-2.27 2.957-5.242 3.977-6.593 1.036-1.376 1.874-2.6 1.874-2.743 0-.8-1.557.047-3.2 1.755-1.067 1.1-1.984 1.882-2.07 1.78-.1-.087.387-2.016 1.107-4.3 2.024-6.38 2.6-8.783 3.708-15.938.56-3.637 1.218-7.503 1.486-8.594 1.352-5.906 2.12-11.977 1.55-12.325-.032-.024-.04-.032-.07-.032zM283.2 13.317c-.02 0-.02.017-.02.017-.1.088-.55.88-1.02 1.934-1.3 2.742-.93 5.923.97 8.736 1.65 2.425 6.8 6.357 11.33 8.648 6.9 3.492 8.76 7.013 9.96 9.808s2.52 2.62 2.72 2.636c.2 0 .37-.843.37-1.863-.04-4.623-3.1-8.764-10.87-12.824-5.73-3.006-9-5.334-11.2-8.04-1.35-1.688-2-2.1-2.1-5.237l-.14-3.797zM147.97 14.85c-.14 0-.3.035-.46.07.34-.07.62-.087.93-.07-.15 0-.3-.017-.47 0zm294.9 6.732c-.1.018-.14.035-.17.07-.16.16.15.528.7.8.53.3 2.44 2.004 4.22 3.814 3.6 3.64 4.58 5.836 5.52 12.463.86 6.046.24 10.757-2.32 17.858-1.45 3.972-5.24 10.037-12.26 19.58-4.86 6.662-12.02 16.857-12.9 18.44-.34.58-1.92 3.146-3.52 5.674-9.72 15.35-14.76 28.06-16.2 40.8-1.67 14.73 4.63 27.1 26.05 51.17 10.5 11.8 13.38 15.66 16.86 22.57 2.97 5.88 3.94 12.65 2.46 17.3-.56 1.83.8 1.1 1.88-1.02 1.1-2.13 1.3-7.94.4-11.3-.83-3.06-4.5-10.4-7.1-14.17-1.4-2-5.26-6.57-12.3-14.55-14.04-15.9-20.42-25.07-24.06-34.6-3.1-8.12-1.76-22 3.4-34.9 3.3-8.3 11.22-21.603 21.67-36.474l3.43-4.974c.74-1.1 2.15-2.988 3.13-4.22 2.73-3.34 8.26-11.688 9.83-14.817 6.3-12.515 5.9-26.12-1-34.82-1.35-1.687-6.54-4.798-7.68-4.693zM173.9 30.476c-.04-.07-.04-.2 0-.386-.04.175-.04.316 0 .386zm81.17-6.626c-.4-.036-1 .175-1.65.668-.72.527-.85 1.072-.62 2.53.16 1.02.6 2.197.95 2.636.54.668.7.422.95-1.67-.65-3.058.23-2.285.67-3.304.23-.527.07-.826-.3-.86zm.83 8.9c-.3.035-.82.317-1.5.897-3.1 2.654-4.7 7.048-4.7 13.095-.02 5.167.47 6.152 2.4 4.94.56-.352.5-.844-.16-2.83-1.3-3.832.2-10.037 3.48-14.308.9-1.195 1-1.845.5-1.793zm38.55 2.063c-.9.07-3.63 1.2-4.32 2.4-1.7 2.936-.9 3.357 1.7 3.357 1.23 0 4.76-.582 6.14-.88 3.17-.668 3.22-1.53.18-3.445-1.62-1.037-2.78-1.53-3.7-1.442z"/><path d="M281.54 39.985c-.8 0-3.252 2.443-3.252 3.322 0 .703.553.773 2.416-.37 1.705-1.055 1.995-2.284.976-2.917-.035-.035-.088-.035-.14-.035zm1.67-11.144c-.14.018-.3.053-.457.123-1.424.545-1.876 7.767-.65 10.124 1.95 3.752 6.105 5.307 11.938 4.527 1.02-.137 2.092-.347 3.214-.625 1.212-.3 2.285-.8 2.4-1.107.14-.44-1.02-.527-4.482-.316-5.3.316-8.82-.898-10.104-2.85-1.44-2.197-1.643-4.852-.852-7.155.668-1.934-.064-2.827-.996-2.722zm50.55 21.92c-.158.018-.246.264-.246.72 0 .95 1.635 6.117 2.232 7.1.387.615 1.248.65 1.248.053 0-.246-.44-1.898-1.002-3.674-.773-2.514-1.793-4.27-2.232-4.2zm13.64-9.37c-.316.035-.8.2-1.424.527-1.74.914-3.4.984-5.3.264-1.95-.738-2.18-.088-.492 1.353 1.178 1.037 1.793 1.213 3.4.984 1.195-.158 2.478-.756 3.234-1.512 1.072-1.072 1.23-1.687.563-1.617zm-8.472-27.403c-.264 0-.685.158-1.248.475-1.547.826-3.972 4.2-4.447 6.205-.193.8-.475 1.67-.633 1.933-.37.668-.65 5.765-.352 6.556.316.826 1.248.826 1.476.018.088-.334.404-1.916.703-3.533.563-2.988 1.846-6.064 3.92-9.404.95-1.512 1.143-2.25.58-2.25zm2.83-8.982c-.44 0-.8.3-.8.668 0 1.02-4.2 4.7-5.8 5.097-1.863.44-2.215.65-1.88 1.195.492.8 2.4.527 4.676-.65 2.373-1.195 3.762-2.812 4.27-4.957.246-1.055.14-1.353-.475-1.353zM127.8 58.758c-.3-.053-.598.457-.773 1.494-.28 1.74.44 4.43 2.057 7.664.5 1.002 1.072 2.724 1.283 3.797.193 1.1.563 2.373.826 2.865.563 1.037 2.918 1.178 2.918.176 0-.37-.316-.932-.72-1.266-.387-.334-.967-1.828-1.283-3.322-.3-1.494-1.195-3.92-1.986-5.414-.773-1.477-1.494-3.4-1.6-4.3-.123-1.1-.422-1.652-.72-1.705zm13.324-10.107c-.58 0-.562.193.123.932.932 1.037 1.195 3.2.615 4.904-.457 1.318 0 1.424 1.248.28 1.353-1.195 1.248-4.342-.176-5.343-.615-.422-1.424-.773-1.8-.773zm-14.15-6.68c-.193.035-.3.246-.3.668 0 1.195 2.232 3.955 3.674 4.535 1.4.563 3.27.58 3.27.035 0-.246-1.002-1.02-2.215-1.74-1.213-.703-2.514-1.687-2.865-2.18-.65-.914-1.23-1.37-1.564-1.318h0zm8.824-14.624c-.685-.018-1.986 1.652-6.38 7.54l-1.758 2.6c0 .685 1.195.07 2.97-1.53 1.072-.984 2.443-2.6 3.04-3.603a23.44 23.44 0 0 1 2.057-2.883c.527-.598.8-1.318.633-1.617-.193-.28-.334-.492-.562-.5zm45.666-3.006c-.738 0-.018 1.512 1.4 2.848 2.408 2.338 7.804 4.535 7.804 3.2 0-.2-.826-.773-1.863-1.23-1.02-.457-3.04-1.723-4.465-2.812l-2.865-2.004zm-5.256-1.933a.85.85 0 0 0-.264.053c-.685.123-.984.8-1.23 2.883l-.685 4.095c-.07.264-.106.474-.123.65v.387c.053.176.2.158.5.053.404-.158.967-.773 1.248-1.37.3-.615.685-2.4.86-4 .264-2.303.246-2.777-.316-2.76zM146.88 18.4c-.44.017-.967.474-1.16 1.195-.193.8.2 2.267 1.178 4.342l1.828 4.254c.5 1.705 1.195 1.336 1.02-.58-.088-.932-.633-3.04-1.213-4.7-.58-1.652-1.037-3.357-1.037-3.762 0-.527-.28-.773-.615-.738zm15.538-.95c-.598 0-1.705.23-3.234.756-1.67.563-3.27.738-5.414.545l-3.058-.28 1.178.967c1.687 1.37 6.468 1.3 9.052-.14 2.074-1.178 2.478-1.846 1.477-1.846zM265.98 60.62c-.2-.035-.24.914-.33 3.48-.33 9.315-2.78 14.677-8.8 19.2-1.76 1.336-3.04 2.55-2.88 2.707.42.44 3.06-1.002 5.55-3.023 3.47-2.795 4.56-4.148 6.2-7.558 1.37-2.883 1.53-3.7 1.53-7.68 0-2.848-.27-5.08-.74-6.135-.26-.615-.44-.984-.55-1.002zM150.708 77.423c-.427 0-.743.45-.743 1.067 0 1.723-2.056 5.352-4.08 7.163-2.56 2.316-2.332 2.957.498 1.478 2.04-1.05 3.415-2.767 4.293-5.384.988-2.973.996-4.325.032-4.325zm4.42 15.393c-.514 0-.68.3-.466.965.364 1.146-.9 6.46-2.182 8.918-1.24 2.46-3.336 4.404-4.862 4.593-.704.07-1.36.42-1.486.767-.293.917 2.672.775 4.325-.198 1.795-1.05 4.364-5.044 5.313-8.222.9-3.028.538-6.823-.64-6.823zm-.024 16.428c-.372 0-1.154.878-2.348 2.625-1.02 1.47-3.067 3.526-4.546 4.538-4.293 2.957-3.028 3.858 1.63 1.186 2.8-1.597 4.878-4.23 5.384-6.815.213-1.036.182-1.55-.12-1.534zm-18.484 9.368c-.032.016-.047.016-.047.07 0 1.494 3.052 5.4 5.336 6.846 2.316 1.455 4.103 1.93 4.103 1.083 0-.245-.885-1.036-1.976-1.755-1.075-.72-3.2-2.546-4.72-4.072-1.32-1.336-2.45-2.23-2.696-2.174zm28.833 5.5c-.332 0-.593.632-.593 1.826 0 1.02-.3 3.02-.664 4.443-.56 2.142-.57 2.593-.024 2.593.364 0 .972-.625 1.352-1.384.972-1.913 1.344-4.917.822-6.325-.316-.8-.632-1.178-.893-1.154zm53.807-46.195c-1.3 0-4.78 3.006-5.8 5.027-1.6 3.1-2.03 11.566-.55 10.652.23-.14.56-1.44.7-2.883.37-3.445 1.95-7.03 4.36-9.913 2.15-2.53 2.3-2.883 1.3-2.883zm-19.8 15.486c-.5.035-.932.967-1.547 3.375-.633 2.478-1.53 4.324-3.076 6.398-1.213 1.6-2.197 3.04-2.197 3.217 0 .686 2.935-1.248 4.236-2.777 3.1-3.7 4.728-9.826 2.7-10.212h-.106zm-4.746-4.887c-.492.088-1.125 1.283-1.687 3.428-.86 3.322-2.53 6.504-4.5 8.666-.896.984-.914 1.125-.193 1.125.457 0 1.758-.914 2.865-2.04 2.514-2.496 4.535-6.855 4.324-9.316-.105-1.318-.422-1.916-.8-1.863zm-4.64-6.54c-.105.018-.228.053-.334.105-.246.158-.545 2.162-.668 4.465-.123 2.32-.44 4.5-.72 4.85-.756.984-1.195 2.4-.738 2.4.228 0 .756-.387 1.178-.86 1.107-1.266 2.865-6.345 2.865-8.26 0-1.46-.8-2.742-1.582-2.7zm-3.656-5.43c-.492.07-.8.86-1.213 2.97-.598 2.953-1.635 5.36-3.674 8.455-1.02 1.547-.8 1.705.93.58 1.1-.703 2.18-2.215 4.113-5.677 1.037-1.828 1.1-6.117.07-6.3-.07-.017-.158-.035-.228-.017zM256.42 96.4c-.14.035-.316.264-.562.598-1.248 1.687-.826 4.113 1.582 9.087 1.266 2.62 2.426 5.73 2.55 6.908.28 2.496.88 2.777 1.353.65.422-1.916-.018-3.955-1.758-7.927-.756-1.775-1.652-4.342-1.986-5.713-.65-2.812-.844-3.7-1.178-3.603zm6.943-6.416c-.72-.053-1.336 2.654-1.037 4.728.457 3.023.5 3.252 2.215 8.525.826 2.584 1.512 5.66 1.512 6.82 0 2.32.8 2.83 1.283.808.492-1.898-.14-6.345-1.547-11.1-.685-2.32-1.37-5.396-1.547-6.838s-.5-2.742-.738-2.883c-.053-.035-.106-.035-.14-.053zm6.6-8.578c-1.072-.053-.668 7.523 1.02 15.3.826 3.92 1.494 7.383 1.46 7.7-.035.3-.035 1.002-.018 1.53.123 1.793 1.072.035 1.37-2.514.2-1.758-.158-4.623-1.248-10-.86-4.148-1.547-8.26-1.564-9.158 0-.897-.2-1.95-.457-2.355-.2-.352-.404-.5-.562-.5zm5.976-11.794c-.334.088-.475 1.002-.475 3.164 0 3.04 1.1 7.646 4 16.84.264.844.475 2.514.475 3.726.018 1.213.158 2.725.334 3.357.598 2.25 1.142-.07 1.142-4.886 0-4.763-.527-7.33-3.13-15.626-.685-2.18-1.318-4.5-1.406-5.15-.088-.668-.44-1.3-.773-1.424-.07-.018-.105-.018-.158 0zm7.47-7.435c-.316 0-.492.86-.475 2.7 0 3.4.264 4.517 2.883 12.1 1.072 3.146 2.127 7.05 2.32 8.666.44 3.7.773 4.3 1.37 2.46.316-.95.3-2.62-.053-4.94-.3-1.916-1.16-5.502-1.898-7.963s-1.793-6.345-2.4-8.648c-.72-2.883-1.353-4.36-1.758-4.377zm9.175-7.453c-1.283.37.018 8.384 3.586 22.218.176.686.246 1.97.176 2.847-.176 2.162.72 2.057 1.46-.176.756-2.285.352-5.396-1.617-12.076-.844-2.883-1.88-6.978-2.32-9.087-.44-2.127-1.002-3.814-1.283-3.726zM243.66 100.36c-.03 0-.05.02-.1.02-.2.07-.33.53-.3 1.42.01 3.3.95 5.54 4.4 10.8 1.95 2.93 4.22 7 5.08 9 1.46 3.48 1.5 3.9 1.26 8.63-.15 2.78-.6 5.96-1.1 7.2-.45 1.23-1.17 3.57-1.6 5.2-.43 1.64-.86 3.08-.97 3.2-.1.13-1.2-.93-2.43-2.32-2.63-3.02-6.2-4.88-10.26-5.34-2.4-.26-3.25-.12-5.45.88-5.82 2.7-8.3 6.4-8.44 12.67-.1 6.14 1.67 9.86 6.8 14.26 1.5 1.26 2.6 2.53 2.47 2.76-.44.7-7.52.52-9.3-.23-3.03-1.27-6.63-6.38-8.56-12.18-1.18-3.47-2.43-4.5-2.95-2.4-.66 2.58 2.77 9.77 6.64 13.88 3.1 3.34 5 4.13 10.28 4.27 1.97.06 3.25-.3 5.7-1.54 1.74-.9 3.22-1.95 3.3-2.36.07-.47-.65-1.07-2.02-1.63-2.97-1.22-7.3-5.2-8.7-8-1.43-2.87-1.92-7.38-1.08-10.02 2-6.24 9.13-9.37 15.12-6.64 2.4 1.1 6.07 4.95 8.1 8.56.74 1.28 1.55 2.28 1.8 2.2s.76-1.8 1.1-3.85a86.97 86.97 0 0 1 1.96-8.15c2.14-7.26 2.3-8.23 2.03-12.9-.3-5.67-1.67-9.05-6.6-16.4-2.02-3-4.1-6.68-4.62-8.15-.65-1.86-1.23-2.85-1.6-2.87zm-29.4 12.9c-1.16.176-7.453 6.258-9.72 9.544-4.13 5.976-6.68 14.554-8.455 28.528-.773 6.064-.932 6.873-1.74 8.806-1.283 3.094-.598 3.62 1.336.984 2.144-2.9 2.707-4.623 3.182-9.65.404-4.377 2.092-13.113 3.252-16.874 1.213-3.902 3.814-9.28 5.52-11.337 1.582-1.916 6.82-9.492 6.82-9.86 0-.123-.07-.158-.193-.14zm24.028-6.627c-.3 0-.334.914-.352 3.638-.018 2.918-.316 4.957-1.1 7.03-1.02 2.83-1.424 6.732-.738 7.418.457.457.352.72 2.162-5.484 1.758-6.064 1.916-10.845.422-12.34-.158-.158-.3-.264-.404-.264zm-9.58-2.285c-.334.123-.562.65-.5 1.16.14 1.213-1.23 9.334-1.933 11.6-1.213 3.885-5.836 12.357-7.294 13.394-.475.334-4.623 7.33-5.396 9.087-.72 1.6-.826 6.785-.158 6.785.246 0 .844-1.178 1.318-2.6 1.178-3.568 2.935-6.68 7.418-13.288 4.447-6.54 5.52-8.824 6.486-13.798.914-4.693.95-12.656.07-12.34zm-19.774-2.443c-.123 0-.264.035-.44.07-4.675.88-12.568 5.783-16.892 10.494-4.816 5.256-8.595 13.165-10.617 22.253-.422 1.898-.967 4.025-1.213 4.7s-.932 2.918-1.53 4.957c-1.933 6.627-3.726 10.933-5.853 14-2.074 3.04-.932 3.217 1.635.246 1.002-1.16 2.777-4.008 3.92-6.3 2.092-4.236 2.707-6.082 6.047-18.122 2.812-10.142 5.677-15.608 11.337-21.585 3.357-3.55 6.433-6 10.828-8.595 2.918-1.705 3.603-2.215 2.777-2.127zM261.8 124.3c-.18.07-.2.5-.2 1.52 0 1.9-1.2 6.48-3.2 12.12-2.92 8.23-3.37 14.35-1.4 18.64 1.58 3.4 2.62 5.18 3.06 5.18.23 0 .56-1.14.74-2.5.68-5.1 2.64-9.13 6.48-13.38 4.33-4.8 5.95-7.65 6.7-11.83.56-3.13.28-7.24-.47-6.78-.2.14-.5 1.33-.62 2.63-.12 1.32-.82 3.98-1.56 5.9-1.16 3.04-1.97 4.16-5.82 8.03-2.7 2.74-4.85 5.4-5.45 6.77-.54 1.23-1.2 2.13-1.48 1.97-.26-.16-.45-1.64-.45-3.27 0-2.22.58-4.8 2.3-10.02 2.57-7.8 3.3-13.55 1.9-14.73-.25-.2-.4-.28-.53-.25zm35.96 15.65c-1.705 0-3.34.176-3.972.5-1.758.932-10.37 1.16-12.726.316-2.584-.896-2.812-.2-.633 1.863 2.02 1.934 5.36 2.197 10.757.8 6.838-1.758 10.458-1.23 13.447 1.95 2.074 2.197 3.006 1.934 1.934-.562-.844-1.986-2.514-3.638-4.465-4.377-.88-.334-2.654-.5-4.342-.5zm-17.155-16.118c-.053-.018-.105-.018-.123.018-.44.44 1.072 2.76 2.496 3.814 1.793 1.336 5.045 1.6 10.582.86 5.888-.8 8.753-.387 10.845 1.494 1.828 1.635 2.355.967 1.107-1.44s-3.287-3.18-7.418-2.812c-11.32 1.002-11.425 1.002-14.5-.65-1.353-.738-2.6-1.266-2.988-1.283zm15.134-16.628a.85.85 0 0 0-.176.088c-.756.72.352 4.886 1.898 7.2 2.883 4.3 6.3 5.6 10.037 3.832.914-.44 1.933-1.107 2.232-1.477.492-.58.053-.65-2.584-.404-2.76.246-3.357.14-4.886-.88-1.53-1.037-5.43-6.152-6.064-7.962-.105-.264-.28-.404-.457-.387zm11.25-5.924c-.193 0-.264.176-.264.492 0 1.055 3.428 5.818 4.974 6.925 3.498 2.478 8.2 3.78 9.878 2.725.984-.615.527-1.248-.897-1.248-2.285 0-7.295-2.935-10.353-6.047-1.933-1.97-2.918-2.83-3.34-2.847zm23.22-1.758c-.088 0-.193.053-.3.158-.422.422-.404 1.037.07 2.426 1.23 3.603 2.268 5.08 4.27 6.082 2.092 1.037 4.728 1.318 4.728.5 0-.264-.86-.932-1.916-1.46-2.25-1.16-4.87-4.008-5.87-6.398-.404-.967-.686-1.353-.984-1.318h0zm3.305-12.673c-.264 0-.492.422-.492.914 0 4.324 4.605 7.593 8.578 6.082.668-.246 1.353-.826 1.512-1.248.246-.65-.053-.773-1.547-.703-1.02.053-2.46-.088-3.217-.3-1.336-.387-4.324-3.322-4.324-4.254 0-.264-.228-.492-.5-.492zm1.406-12.392c-.598 0-.5 2.355.123 3.533 1.142 2.127 4.957 3.357 6.838 2.215.826-.527.2-1.283-1.037-1.283-1.353 0-4.13-1.898-4.904-3.357-.334-.615-.8-1.107-1.02-1.107zM150.48 154.75c-.1-.02-.26.2-.45.56-.46.8-.72 2.86-.76 5.96-.03 4.38.07 4.96 1.58 8.03 1.67 3.4 4.56 6.35 6.2 6.35.7 0 .4-.6-1.3-2.7-3.13-3.85-4.36-7.4-4.73-13.68-.2-3.32-.26-4.5-.53-4.53zm317.62 1.55c-3.674 0-6.6 1.424-9.896 4.834-2.53 2.584-4.166 5.888-5.607 11.302-.598 2.303-.5 2.584-.264 3.674 1.055-.668 1.6-2.338 1.95-3.27 2.935-8.12 7.927-13.253 14.536-15 2.953-.8 2.62-1.53-.72-1.53zm-10.406-28.16c-4.78-.088-10.828 2.092-15.802 5.713-3.27 2.4-8.226 7.17-9.474 9.158-1.916 3.058-1.46 3.217 1.53.527 4.236-3.797 9.5-7.945 11.7-9.193 3.744-2.18 11.02-4.2 15.872-4.447 2.53-.123 2.637-.176 1.582-.8-.633-.352-2.637-.773-4.465-.932a16.09 16.09 0 0 0-.932-.035zm28.23-65.756c-.246 0-1.283 1.652-2.426 3.85-5.115 9.95-18.14 25.716-26.7 32.324l-5.96 4.676c-3.1 2.478-9.667 6.45-12.78 7.716-4.816 1.95-1.37 2.1 4.008.158 4.2-1.512 6.293-2.83 12.954-8.173.422-.352 2.443-1.95 4.5-3.586 4.113-3.27 9.826-9.087 13.64-13.886l3.55-4.43c3.656-4.377 10.072-17.296 9.246-18.632 0 0-.018-.018-.035-.018h0zM216.38 172.75c-.05 0-.1 0-.14.01-.76.1-2.02 1.13-4.34 3.34-6.66 6.28-7.56 7.02-13.8 11.13-6.12 4.03-12.7 7.45-20.72 10.8-2.24.93-4.08 1.87-4.08 2.1-.02.22.4.3.86.14.47-.12 3.32-.96 6.33-1.82 8.44-2.48 11.62-3.94 18.35-8.42 8.66-5.8 18.9-15 18.3-16.54-.17-.44-.42-.7-.77-.72zm111.12 7.03c-.264.018-.422.106-.422.264 0 .545 4.816 4.236 7.63 5.836 2.215 1.266 6.134 1.582 8.472.703 2.1-.8 1.44-1.37-1.846-1.582-3.023-.193-4.27-.668-9.28-3.515-1.88-1.055-3.744-1.723-4.553-1.705zm-10.88-7.54c-1.125.088-.703 1.037 1.142 1.986 7.084 3.62 10.248 4.113 15.767 2.408 4.746-1.477 4.693-1.44 4.13-2.004-.334-.334-2.267-.316-5.906.07-5.36.58-5.45.58-9.14-.773-2.04-.756-4.3-1.476-5-1.617-.28-.035-.527-.07-.738-.07h-.246zm-15.626-6.468c-.457.053-.703.28-.703.686 0 1.037 3.762 3.094 7.224 3.955 3.4.844 6.96.633 11.636-.738 1.775-.5 5.343-1.23 7.927-1.617 4.5-.668 4.658-.738 3.234-1.318-1.898-.8-8.595-.37-11.654.72-3.656 1.3-9.58 1.1-13.27-.44-2.18-.914-3.62-1.318-4.394-1.248zm4.553-5.45c-.07-.018-.158 0-.28.018-.5.053-1.494.334-3.48.897-3.674 1.02-6.697 1.037-12.515.088-2.303-.37-3.726-.387-4.658-.035-1.88.72-1.1 1.23 3.533 2.355 4.588 1.125 7.066 1.266 10.107.563 2.53-.58 7.505-2.918 7.505-3.516 0-.2 0-.352-.2-.37zm-29.547-3.2a1.07 1.07 0 0 0-.387.053c-.914.3-.756 1.97.246 2.6 1.23.756 7.593.28 9.544-.738 2.162-1.107 1.53-1.512-2.127-1.318-1.687.07-3.955-.053-5.045-.3-.826-.193-1.705-.3-2.232-.3h0z"/><path d="M149.292 186.943c-.334-.035-1.544.753-2.915 1.878-1.95 1.6-3.625 2.494-5.435 2.915-2.478.598-2.544.65-1.384 1.16 2.25.967 4.764.7 6.4-.642 1.74-1.476 3.68-4.47 3.434-5.262-.018-.035-.046-.05-.1-.05zm-14.823 6.102c-.8-.053-.294 2.355 1.112 5.114.8 1.617 1.482 3.575 1.482 4.348 0 1.723 1.476 2 1.58.296.193-2.707-.27-4.264-1.976-6.918-1.02-1.564-1.988-2.84-2.2-2.84zm-12.72 13.464c-1.072.193-1.3 2.818-.568 6.843.492 2.672.467 3.55-.148 5.238-.773 2.162-.58 4.67.37 4.67.316 0 .86-1.046 1.2-2.347.8-2.812.866-6.058.32-10.945-.334-2.918-.536-3.582-1.186-3.46zm13.638 10.507c-1.353.334-1.78 1.285-.568 1.285.86 0 2.5 2.273 2.94 4.1.58 2.426 1.45 1.58 1.186-1.16-.264-2.724-1.32-4.28-2.866-4.3-.244-.05-.478.045-.692.074zm18.1 16.602c-.826.193-.395 7.683.642 9.265l.84 1.26 6.053-.222c3.322-.123 6.674-.4 7.412-.593.756-.176 1.384-.612 1.384-.964 0-.932-4.693-1.442-9.685-1.038l-4.126.346c-.548-1.755-1.06-3.605-1.334-5.336-.176-1.142-.62-2.352-.988-2.668-.07-.053-.145-.067-.198-.05zm-28.14 1.186c-.72.738.6 2.523 3 4.052 1.74 1.107 3.16 2.573 4.25 4.348 3.164 5.203 5.255 6.406 7.856 4.595 1.582-1.125 1.448-2.398-.222-1.976-1.775.44-3.336-.694-5.4-3.928-1.88-2.935-3.338-4.296-5.78-5.262-.896-.352-2.02-.955-2.495-1.36-.373-.4-.987-.656-1.186-.47zM321.62 191.3c-5.72 0-6.58.14-10.88 1.62-9.74 3.37-15.6 7.47-27.34 19.03l-8.36 8.48c-1.02 1.33.14 1.05 2-.48l1.92-1.63c.56-.6 10.82-9.74 11.7-10.43a279.4 279.4 0 0 0 3.01-2.35c4.44-3.48 9.47-4.54 13.04-2.73 2.67 1.37 3.6 3.03 3.96 7.2.01.2.26.4.52.4.28 0 .5-1.28.5-2.87 0-4.43-2.28-7.27-6.45-8.06l-1.74-.34 1.4-.56c3-1.23 6.87-.1 8.77 2.58 1.28 1.8 2.04 4.9 1.72 7.14-.35 2.55.06 2.7 1.04.4 1.88-4.56.1-9.35-4.48-11.9l-1.5-.82 2.87.2c4.83.32 7 3.4 6.9 9.72-.04 2.73.07 3.08.67 2.46.38-.38.9-1.8 1.16-3.13.75-4.13-1.04-8.2-4.68-10.58-.86-.58-.76-.6 1.02-.44 3.23.34 5.5 1.57 6.96 3.76 1.14 1.73 1.35 2.57 1.35 5.5 0 3.74.44 4.37 1.3 1.9 1.27-3.62.27-9.08-1.9-10.44-.57-.35-1.02-.8-1.02-.98 0-.4 3.04-.04 5.02.58 1.6.5 2.04.18 1.4-.98-.88-1.67-3.43-2.24-9.9-2.22zm12.38.7c-.37 0-.44.34-.2.88.2.47.65 2.1.98 3.64.8 3.7.27 7-2.56 15.06-3.66 10.44-4.6 14.06-5.3 20.1-1.23 10.7-.57 17.1 3 29.27l1.64 5.7c.23.8 1.1 3.6 1.95 6.2 2.18 6.67 2.4 7.63 3 12.64.34 2.92.37 5.33.06 6.94-.83 4.38.45 4.3 1.74-.12 1.5-5.17.42-11.04-5.33-28.8-2.62-8.16-3.43-12.8-3.76-21.67-.4-10.62.23-14.45 4.18-26.05 3.17-9.23 3.3-9.88 3.32-14.38.02-3.8-.2-5.17-1.07-7.08-.6-1.3-1.33-2.36-1.65-2.36zm-153.35 31.9c-.07.018-.14.053-.2.07-.773.3-.773.404.088 1.336.633.703.967 1.986 1.1 4.324.2 4.043.457 4.922 1.143 4.22.28-.28.65-2.18.8-4.183.264-3.463.193-3.726-1.002-4.834-.703-.65-1.37-.984-1.898-.932zm16.593-7.593a.83.83 0 0 0-.527.246c-.176.176-.106.615.158.967 2.127 2.9 2.4 3.533 2.426 5.924.018 1.406-.158 3.515-.387 4.658-.527 2.724.404 2.865 1.53.264 1.16-2.7 1.1-7.892-.123-9.95-.756-1.266-2.18-2.18-3.076-2.1zm15.204-6.416c-.316 0-.668.053-1.037.106-1.16.2-1.16.2.176.773 2.496 1.037 3.06 2.62 2.7 7.453l-.615 5.677c-.404 1.8.563 1.775 1.53-.07 1.037-2.02 1.74-6.925 1.318-9.246-.615-3.322-1.8-4.728-4.06-4.693zm16.575-11.83c-.176.018-.352.07-.527.123-.615.246-.37.685 1.107 2.1 2.248 1.633 1.8 2.814 1.6 5.414-.158 1.97-.158 3.726 0 3.885.527.527 1.107-.264 1.652-2.285 1.107-4.148-1.23-9.474-3.832-9.246zm10.494-4.553c-.422-.018-.756.14-.967.475-.158.264.123.703.668.984 1.67.896 2.25 3.674 1.336 6.486-.422 1.318-.8 2.654-.8 2.935 0 1.072 1.002.492 1.793-1.037.44-.86.914-2.812 1.055-4.342.193-2.32.07-2.988-.844-4.13-.668-.86-1.547-1.336-2.25-1.37zm8.297-6.222c-.685.264-.58.5.615 1.46 1.336 1.072 1.44 1.424 1.652 5.484.193 3.797.316 4.236.95 3.603.5-.492.738-1.828.756-4.166.018-4.43-1.02-6.75-3.024-6.6-.347.007-.675.137-.95.2zm13.94-13.13c-1.53 0-1.46.422.37 1.95 1.16.984 1.582 1.8 1.793 3.515.334 2.918.5 3.463 1.195 3.463.404 0 .5-1.002.37-3.2-.228-3.586-1.617-5.73-3.726-5.73zM249.06 227.82c-2.514.053-6.96.492-10.687 1.143-9.826 1.723-16.505 6.6-27.104 19.792-5.08 6.345-8.666 10.23-12.92 13.956-1.46 1.266-1.46 1.3-.246.984.668-.193 2.02-.844 3.006-1.476 2.215-1.44 7.68-7.066 12.497-12.902 4.864-5.916 11.196-12.586 16.857-15.362 4.43-2.162 11.742-4.22 17.876-5.045 1.3-.176 2.514-.545 2.7-.808.088-.158-.3-.264-1.037-.28-.333-.023-.657-.004-.932 0zM123.3 239.58l1 1.35-1-1.35zm3.93 4.52c.8.84 1.56 1.7 2.2 2.64-.65-.94-1.42-1.8-2.2-2.64zm99.3 13.1c-.02 0-.02 0-.03.02-.16.15.1 1.6.6 3.2 1.23 4.1 4.03 7.2 8.3 9.27 5.33 2.55 7.3 2.62 14.2.45 1.16-.35 1.16-.35.4 1.18-.93 1.78-3.13 3.48-6.24 4.84-3.53 1.52-10.72 1.33-14.8-.4-3.7-1.57-7.47-4.6-9.58-7.68-.84-1.22-1.78-2.1-2.1-2-2.8.94 3.92 8.48 10.42 11.73 2.67 1.33 6.52 2.02 10.58 1.88 3.54-.12 4.73-.4 7.5-1.74 1.83-.88 3.93-2.3 4.7-3.2 1.65-1.95 3.62-6.17 4-8.54.3-1.95-.23-2.24-1.53-.8-.48.5-2.23 1.54-3.92 2.3-4.3 1.93-8.35 1.88-12.78-.18-4.08-1.88-5.96-3.67-7.9-7.52-.8-1.6-1.58-2.8-1.8-2.8zm241.1 5.26c-2.25 0-2.1.563.44 1.758 1.283.598 2.812 1.916 3.937 3.4 1.97 2.637 2.25 3.867 3.4 14.185.615 5.52.72 5.94 1.512 5.94.316 0 .44-2.865.334-8.085-.14-7.892-.193-8.173-1.652-11.038-1.775-3.48-5.256-6.17-7.98-6.17zm-66.3-38.88c-.527-.018-.615.475.088.914.246.158 1.74 2.004 3.322 4.113 5.642 7.576 14.044 16.487 19.546 20.706 4.728 3.64 14.396 9.158 17.894 10.212 4.236 1.283 7.12 1.74 12.234 1.88 3.27.088 4.096-.035 4.096-.598 0-.475-.773-.8-2.355-.967-5.906-.668-13.85-2.883-18.087-5.062-10.23-5.238-17.226-10.898-25.733-20.847-2.637-3.076-9.246-9.562-10.353-10.16-.246-.123-.475-.193-.65-.193zm-226 39.32c-.55-.02-1.06 1.27-1.06 3.94 0 2.84.86 5 2.87 7.15 1.14 1.23 2.58 1.83 2.58 1.1 0-.16-.58-1.05-1.32-2-1.07-1.4-1.35-2.4-1.54-5.43-.2-3.1-.9-4.75-1.53-4.75zm85.76 4.2c-.3.05-.58.55-.76 1.5-.35 1.8.16 3.8 1.92 7.7.56 1.25.96 2.64.9 3.1-.07.45.1.96.4 1.14.9.56.58 3.4-.7 6.13-.7 1.46-2.8 4.36-4.68 6.45-3.43 3.83-5 6.6-5 8.86 0 1.57.8 1.06 1.7-1.07.4-.9 2.55-3.64 4.78-6.05 7.7-8.3 8.33-10.74 4.85-19.17-1.14-2.78-2.2-5.82-2.35-6.75-.2-1.3-.64-1.94-1.02-1.85zm86.7.9c-.27.07-.36.98-.13 2.72.74 6.14 5 12.43 10.04 14.9 2.5 1.25 3.37 1.4 7.56 1.4 5.24-.02 7.9-.63 10.58-2.44l1.8-1.24v1.43c0 2.65-1.92 7.7-3.73 9.82-2.62 3.06-4.22 3.73-9.8 4-4.88.23-5.73.58-3.74 1.64 3.13 1.7 7.7 1.72 11.35.1 4.84-2.18 7.53-6.66 8.32-13.9.4-3.7.23-10.02-.28-10.53-.14-.14-.6.32-1.04 1-2.95 4.62-7.5 6.94-13.57 6.94-7.26 0-12.6-4.18-15.42-12.1-.9-2.53-1.6-3.78-1.96-3.67zm-118.7 13.94c-.04 0-.04.01-.05.01-.57.57 2.47 4.98 4.25 6.17 1.76 1.2 3.23 1.44 3.73.65.15-.24-.2-.73-.83-1.05s-2.4-1.8-3.97-3.34c-1.46-1.42-2.8-2.48-3.13-2.44zm194.7 9.54c-1.35 0-1.2 4.15.23 6.45 5.1 8.2 4.96 10.25-1.44 19.86-2.1 3.17-4.4 9.62-3.92 10.9.2.55.95-.53 2.35-3.32 1.13-2.27 3.5-6.12 5.24-8.56 3.53-4.94 4.4-6.96 4.45-10.1.03-2.55-.67-4.34-3.6-9.18-1.23-2.02-2.3-4.2-2.4-4.85-.1-.66-.5-1.2-.9-1.2zm-187.72 1.88c-.08 0-.17.04-.28.1-.28.16-.5.72-.5 1.2 0 2.06-4.43 9.77-7.2 12.53-2.7 2.7-6.82 5.12-9.74 5.7-.77.16-1.4.47-1.4.7 0 .9 4.06.4 6.7-.86 5.33-2.53 11.57-10.1 12.67-15.38.5-2.46.4-4.03-.23-4zm82.12 1.94c-.37.13.14 1.97 1.63 5.06 2.18 4.45 5.6 7.88 9.5 9.48 3.82 1.56 6.87 1.56 10.37.02 1.5-.67 2.74-1.46 2.74-1.74 0-.34-1.68-.53-4.55-.53-6.48 0-9.74-1.02-13.15-4.13-1.5-1.4-3.4-3.7-4.2-5.13-1.23-2.2-2.04-3.13-2.32-3.03zm81.3 2.32c-.28.1-.16 1.26.58 3.56.84 2.55 1.06 4.42 1.04 9.14 0 6.6-.46 8.44-3.5 14.56-1.83 3.67-7.42 10.4-10.1 12.16-1.47.95-1.84 1.83-.8 1.8.35 0 1.74-.67 3.13-1.46 4.9-2.8 10.13-9.9 12.25-16.64 1.57-4.92 1.53-14.57-.05-18.64-1.1-2.88-2.1-4.44-2.5-4.5h-.05zm-43.1 32.65l-2.86 2.73 2.86-2.73zm-5.5 5.53l-1.46 1.97a23.81 23.81 0 0 1 1.46-1.97zm-124.96.66c-.334.035-.65.193-.95.492-.44.44-.23.967.896 2.232.808.932 1.476 2.092 1.476 2.584s.14 1.037.316 1.23c.8.773 1.16.176 1.16-1.846 0-2.7-1.494-4.834-2.9-4.693zm9.14-8.472c-.492.018-.914.264-1.266.703-.527.615-.44.738.545.738 1.564 0 2.426 1.476 2.742 4.64.387 4.06.65 5 1.248 4.412.316-.316.457-2.144.334-4.57-.158-3.62-.3-4.148-1.406-4.992-.844-.65-1.564-.967-2.197-.932zm9.263-4.922c-.95.018-1.16.86-.193 1.8 1.107 1.125 2.55 5.414 2.55 7.6 0 1.934.86 1.775 1.424-.264.896-3.252-.8-8.332-3.006-9.035a2.6 2.6 0 0 0-.773-.123zm12.312-10.082c-.316.048-.517.2-.517.572a.49.49 0 0 0 .492.492c.28 0 .95.72 1.494 1.617.756 1.23.984 2.496.984 5.45l.017 1.142c-.035 1.336-.158 2.672-.334 3.375l-.176.826a.49.49 0 0 0 .492.492.49.49 0 0 0 .457-.351c.316-.8.457-1.6.896-2.97s.738-6.644.158-8.015c-.567-1.374-2.712-2.648-3.826-2.64-.048-.002-.095.007-.14.01zm19.978-11.802c-.72 0-1.16.14-1.16.457 0 .28.316.5.668.5.37 0 1.547.756 2.6 1.687 1.828 1.582 1.934 1.846 1.916 4.36-.018 2.092-.387 3.34-1.617 5.52l-1.582 3.058c0 .756 1.107.053 2.215-1.424 4.957-6.486 4.904-12.286-.14-13.693-1.16-.316-2.162-.475-2.9-.475zM421.45 337.87c-.88.035-1.617.264-1.8.738-.193.545.07.738.984.738 2.004 0 4.025 2.408 4.412 5.256.422 3.13.598 3.674 1.23 3.674.28 0 .5-1.178.5-2.742 0-2.7-.8-5.027-2.373-6.802-.545-.615-1.846-.914-2.953-.86zm13.306-7.418c-.475 0-.896.123-1.178.404-.352.35-.106.668.808 1.02 1.758.668 2.32 2.25 2.9 8.472.562 5.976.668 6.45 1.424 6.45.404 0 .5-1.95.387-6.68-.14-5.818-.3-6.838-1.213-8.05a4.13 4.13 0 0 0-3.129-1.617zm9.474-13.34c-1.02 0-1.828.3-1.828.914 0 .404.492.8 1.107.896 1.775.246 3.972 2.7 4.57 5.08l1.494 4.94c.28 0 .545-.28.562-.633.3-3.726-1.178-8.93-2.918-10.3-.773-.615-1.97-.896-2.988-.896zm8.894-24.257c-.773.053-1.512.334-2.566.932l-2.092 1.16 3.55.28c2.408.193 3.973.615 4.904 1.283 1.97 1.424 3.533 4.904 3.867 8.613.158 1.775.387 3.498.492 3.85.37 1.16 1.107.615 1.353-1.002.14-.88.193-3.1.106-4.94-.228-5.677-3.058-9.07-8.314-10.054-.444-.1-.9-.103-1.3-.123zM176.97 354.32c.013.36.237.857.457 1.125.545.668 1.898 1.652 3.217 2.285 1.406.703 3.287 1.97 4.183 2.795 1.283 1.213 3.146 2.53 3.7 2.62.035.018.65-.193 1.353-.457 1.652-.633 1.617-1.318-.07-1.74-.756-.193-2.4-1.3-3.638-2.46-1.67-1.564-2.97-2.285-4.974-2.742-1.444-.37-2.888-.78-4.22-1.424zm27.14-4.096c-.106-.018-.193.018-.28.105-.176.158-.07 1.283.193 2.478.28 1.195.633 3.234.8 4.517.422 3.55 1.107 4 4.43 2.83 1.494-.527 4.008-.967 5.572-.967 2.285 0 3.182-.246 4.36-1.195 1.828-1.46 1.406-2.074-.897-1.318-1.125.37-2.373.422-3.656.123-1.406-.316-2.602-.228-4.254.3-1.266.404-2.62.615-3.006.475-.404-.158-.826-1.336-1.02-2.76-.28-2.074-1.494-4.447-2.232-4.588zm-22.218-1.37c-.2.018-.457.07-.756.123-1.635.316-3.375 1.582-3.375 2.426 0 .58 3.445-.018 4.324-.756.352-.28.633-.844.633-1.248 0-.44-.2-.598-.826-.545zm3.094-9.42c-.316-.035-.316.598-.106 2.02.2 1.44.088 2.566-.422 3.533-.422.8-.756 1.512-.756 1.617 0 .527 1.107.07 1.986-.8 1.23-1.213 1.353-4.535.2-5.677-.44-.44-.738-.668-.914-.685zM169.36 323.56c-.228.018-.58.246-1.072.703-1.142 1.037-1.142 3.076.018 8.384.316 1.37.422 3.78.246 5.36-.387 3.375.387 5.8 1.828 5.8.5 0 .932-.106.932-.246s-.28-.668-.598-1.195c-.457-.72-.44-1.547.07-3.638.756-3.164.562-4.974-.967-9.052-.914-2.443-1.002-3.234-.562-4.43.44-1.16.457-1.723.105-1.687zm18.93-7.26c-.352.018-.37.598.158 1.617.88 1.687.88 2.004 0 3.7-.598 1.16-.615 1.37-.035 1.37.387 0 1.037-.492 1.46-1.107 1.055-1.494.967-2.97-.264-4.535-.562-.72-1.037-1.055-1.318-1.037h0zm-6.6-8.156c-.28.018-.58.44-.8 1.265-.404 1.67.2 2.7 2.355 3.762 1.88.932 2.918 1.107 2.918.457 0-.598-2.32-3.06-2.9-3.06-.246 0-.598-.545-.773-1.23-.193-.808-.5-1.213-.8-1.195zm13.464-7.17c-.404 0-2.1 1.055-3.972 2.443-2.056 1.547-4.096 2.7-4.78 2.7-1.213 0-1.547.492-.844 1.213.738.756 4.236-.158 5.96-1.547 2.232-1.8 4.27-4.447 3.7-4.8h-.053zM375.6 381.1c-.475 0-.773.088-.984.28-.404.404-.035.826 1.37 1.564 2.426 1.283 4.254 1.318 5.344.123.88-.967.334-1.933-.703-1.283-.3.176-1.652.035-3.006-.3-.666-.193-1.374-.306-2.02-.387zm16.206-14.976c-.44-.035-.492.545-.018 1.705.387.914 1.037 3.885 1.44 6.574.563 3.885.95 5.062 1.8 5.765 1.336 1.072 1.037 1.1 3.832-.37 1.283-.668 3.7-1.37 5.326-1.547 2.918-.316 5.045-1.037 4.553-1.512-.703-.72-7.136-.615-9.087.14-2.9 1.1-3.48.72-3.885-2.4-.5-4.06-1.107-5.888-2.303-7.172-.756-.8-1.318-1.178-1.67-1.195zm-24.046-2.97c-.334.017-.5.3-.264.88.984 2.285.773 3.533-1.23 7.523-2.7 5.344-2.355 6.38 2.303 7.418 2.4.527 3.322-.158 1.793-1.318l-3.322-2.426 1.424-2.9c1.53-3.1 1.828-6.152.826-8.05-.404-.756-1.1-1.16-1.53-1.125zm-23.87-2.83c-.5-.018-.387.563.422 1.705 1.213 1.705 2.584 5.66 2.6 7.488.018.738.44 2.285.967 3.445 1.107 2.443 2.25 2.707 4.517 1.1 1.652-1.16 1.916-2.162.475-1.705-1.775.563-2.883-.562-3.498-3.515-.967-4.588-2.232-6.96-4.377-8.086-.5-.28-.86-.422-1.107-.422zm8.525-20.8a1 1 0 0 0-.598.123c-.756.475-.5 2.144.457 3.1.527.527 2.04 1.072 3.533 1.283 3.27.422 5.484 2.355 5.484 4.763 0 2.443 1.213 1.53 1.37-1.055.123-1.863-.053-2.4-1.248-3.55-.914-.86-2.338-1.512-4.025-1.828-3.04-.58-3.55-.826-3.55-1.723 0-.562-.756-1.072-1.424-1.125zm11.496-11.056c-.387.07-1.037.8-1.916 2.092-.756 1.16-2.46 3.076-3.78 4.27-1.318 1.178-2.267 2.355-2.127 2.584.334.545 2.4-.2 4.324-1.6 1.37-.967 3.832-5.3 3.85-6.732 0-.457-.123-.65-.35-.615zm2.725-2.496c-.826 0-.3 1.107 1.97 4.078 2.55 3.357 3.48 3.06 1.652-.527-.95-1.828-2.7-3.55-3.62-3.55zM346.3 354.824a4.43 4.43 0 0 0-.967.106c-1.828.37-2.9 1.142-2.9 2.1 0 .914.2.86 2.496-.44 1.916-1.1 2.408-1.793 1.37-1.775z"/></g><g stroke="#000"><path d="M364.3 380.5c-.01 7.3-.6 15.5 12.4 22.7-2.26-7.2-3.5-13.03-2.8-18.9-3.03-2.48-6.77-3.68-9.62-3.8zm29.82 16.1c1.95-3.8 2.83-8.68 2.15-13.3 3.93-2.97 8.56-3.55 11.6-2.84-.77 7.06-2.9 12.35-13.76 16.15zm-33.55-68.54c-7.5-4.15-12.82-7.1-18.67-5.2 3.46 4.27 7.05 7.93 9.9 15.07 4.76-2.82 8.15-6.08 8.77-9.88zm-142.43 32.76c-1.76 8.4-8.26 14.28-16.6 16.14 3.07-4.98 5.23-8.84 5.43-13.47 3.06-1.65 6.98-2.98 11.16-2.67zM116.82 22.55c6.35-.826 11 2.18 15.88 4.746-1.67 3.62-4.12 6.54-7.1 9.28-1.9-5.713-4.83-9.984-8.77-14.027zM165 329.1c-6.64 2.66-12.06 7.42-15.55 13.78 5.6-1.05 11.3-2 16.9-2.5.72-3.46 1.55-7.2-1.34-11.3zm-18.9-142.24c-3.73-6.6-8.28-10.5-15.78-10.04 2.77 4.36 5.18 7.56 5.8 13 3.8 3.7 9.05-.4 9.98-2.97zm45.57 112.7c-5.63-6.23-12.4-9-19.78-8.2 3.7 4.57 7.9 8.85 10.97 14.07 5.57-2.2 6.63-4 8.8-5.88z" stroke-width="1.969" fill="red"/><path d="M244.86 76.265c-9.37-9.123-26.95-8.19-33.9-16.962-2.45-3.2-3.57-6.293-3.96-9.158-2.27-16.136 24.8-22.464 24-3.69-.22 2.97-1.97 5.326-3.26 7.892 7.25 5.396 14.65 10.6 17.1 21.92z" stroke-width="2.478" fill="red"/></g><path fill="#fff" d="M232.6 65.947c-5.94-4.552-19.53-4.693-20.62-18.07-.4-4.816 3.76-9.615 14.82-6.838-6.68-7.33-17.84-.88-17.25 6.996.6 7.998 4 14.325 23.05 17.91z"/><path d="M190.17 10.456c2.78 4.025 2.7 10.388 1.16 16.575-1.6 2.303-10.3-4.43-9.12-5.818 3-3.146 5.56-7.03 7.96-10.757zm-44.4-8.86c7.25.826 12.26 7.207 15.4 13.94-3.16 2.162-7.2 2.654-12.02.615.23-6.064-1.85-9.562-3.37-14.554zm-20 63.295c-4.76-.193-9.03-1.494-12.97-4.833-.35 11.073 8.2 15.925 15.33 15.063.17-2.953-.4-6.275-2.36-10.23zM118.8 210c-6.9 1.85-16.43 4.8-17.9 11.4 6.38-1.4 12.27-1.35 17.94-.23 1.45-3.23 1.08-6.9-.05-11.18zm1.12 47.2c-2.7-8.26-.34-13.22 2.8-19.04 2.45 1.2 5.27 3.7 7.26 6.94-4 3.63-7.36 7.47-10.05 12.1zm47.24-11.6c-1.6 4.2-4.5 10.1-17.54 12.58 2.62-3.5 4.56-6.77 5.2-10.6 4.16-1.54 9.42-2.4 12.33-1.98zm173.67 113.6c-6.17 5.7-13.34 11.68-12.7 20.17 4.96-5.44 11.1-7.3 17.3-8.3-.2-5.22-1.98-8.63-4.6-11.88z" stroke="#000" stroke-width="1.969" fill="red"/><path d="M184.83 21.67c1.3-1.424 2.7-3.76 3.8-5.343.47 1.353-.94 4.64-1.64 5.818-.37.896-1.55 1.054-2.07.457-.32-.422-.3-.633-.1-.932zm-33.8-7.224c.1-2.725-.65-5.062-1.46-7.383 2.16 1.37 3.6 3.656 4.32 6.908.37 1.125-2.93 1.9-2.86.475zM125.8 32.1c-.95-2.162-2.36-4.236-3.76-6.3 2.4.2 3.95 2.408 5.43 4.886.82 1.46-1 2.584-1.67 1.424zm.2 41.272c-3.32.44-8.77-2.53-8.97-5.396 2.3 1.23 5.4 2.53 8.48 3.146.9.3 1.35 2.1.5 2.25zm14.6 114.238c-1.43-3.34-2.9-5.5-5.17-6.37 1.04 2.43 1.85 5.08 2.5 7.77.2.7 3.6.2 2.67-1.4zm-23.23 27.26c-3.22.14-6.26 1.1-8.63 1.86 1.16-3.06 4.57-3.18 7.4-4 1.33-.38 2.8 2.22 1.23 2.15zm5.63 27.14c-1.75 1.76-3.13 5.48-1.74 9.1.67-2.26 1.74-4.87 3.54-7.08.44-.53-1.1-2.62-1.8-2.02zm30.96 13c1.02-2.04 2.1-3.8 2.78-6.37.25-.75 2.25-.47 2.18.3-.37 3.48-2.34 5.9-4.96 6.07zm31.84 45.84c-2.46-4.15-5.22-6.24-8.28-6.17 2.4 2.84 5.15 5.4 5.76 7.78.34 1.27 3.22-.1 2.52-1.6zm-22.4 31.6c-3.13.7-5.9 3.2-7.42 6.26l8.28-4c1-.4.44-2.48-.86-2.27zm15.5 39.33c.5-2.5.54-5.13 1.7-8.47.6-1.62-2.38-1.78-2.5-.3-.1 2.36-.86 7.14.8 8.77zm27.62.08c.7-1.86 1.8-4.13 2.4-6.94.16-.92 2.55-1.38 2.5-.65-.35 3.56-2.35 6.2-4.9 7.6zM355 331.9c-2.28-4.55-5.27-5.64-8.03-6.38 2.32 2.62 4.75 5.24 5.77 8.44.44 1.14 2.65-1 2.26-2.06zm-13.8 33.76c-2.5.98-4.76 2.9-7.08 4.67.35-2.6 2.4-5.36 6.15-6.9 1.07-.44 1.8 1.97.93 2.22zm27.96 18.47c.27 3.62 1.18 8.17 2.04 12.52-4.04-5.26-4.1-8.58-4.7-12.17 0-.95 2.58-1.2 2.67-.35zm28.94 8.27c1.6-2 3.4-4.48 3.03-7.86-.1-.82-2.36-.56-2.36.28-.03 2.3.02 5.03-.67 7.58z" fill="#fff"/><path d="M427.15 281.1l.05-2.3.36.1.37 1.38.55 1.2.97.83 1.74.18.18.6-1.56.1-1.33-.55-.73-.6-.6-.9z" stroke="#000" fill="none"/></svg>