<svg xmlns="http://www.w3.org/2000/svg" xmlns:xlink="http://www.w3.org/1999/xlink" width="720" height="504" viewBox="-2100 -1470 4200 2940" xmlns:v="https://vecta.io/nano"><style><![CDATA[.B{fill:#3f4446}.C{fill:#5b4431}.D{fill:#dcc89c}.E{fill:#00923e}]]></style><defs><clipPath ><path d="M-31.5 0v-70h63V0zM0-47v12h31.5v-12z"/></clipPath><linearGradient id="B" x1="88.412" y1="48.357" x2="111.566" y2="48.357" xlink:href="#P"><stop offset="0" stop-color="#c0a062"/><stop offset=".502" stop-color="#ceb27c"/><stop offset="1" stop-color="#ceb27c"/></linearGradient><radialGradient id="C" cx="100" cy="74.106" r="40.57" fx="100" fy="74.106" xlink:href="#P"><stop offset="0" stop-color="#fff"/><stop offset="1" stop-color="#e8e8e7"/><stop offset="1" stop-color="#e8e8e7"/></radialGradient><linearGradient id="D" x1="88.394" y1="43.415" x2="111.611" y2="43.415" xlink:href="#P"><stop offset="0" stop-color="#c0a062"/><stop offset=".502" stop-color="#dcc89c"/><stop offset="1" stop-color="#dcc89c"/></linearGradient><radialGradient id="E" cx="95.849" cy="69.457" r="18.704" fx="95.849" fy="69.457" xlink:href="#P"><stop offset="0" stop-color="#fffcc8"/><stop offset=".4" stop-color="#7fcfd6"/><stop offset="1" stop-color="#00a3e4"/><stop offset="1" stop-color="#00a3e4"/></radialGradient><linearGradient id="F" x1="109.293" y1="78.526" x2="88.659" y2="78.526" xlink:href="#P"><stop offset="0" stop-color="#f5c491"/><stop offset="1" stop-color="#f5c491"/></linearGradient><linearGradient id="G" x1="88.647" y1="78.588" x2="102.421" y2="78.588" xlink:href="#P"><stop offset="0" stop-color="#42929d"/><stop offset="1" stop-color="#42929d"/></linearGradient><linearGradient id="H" x1="111.327" y1="76.4" x2="98.325" y2="76.4" xlink:href="#P"><stop offset="0" stop-color="#bb825b"/><stop offset="1" stop-color="#bb825b"/></linearGradient><linearGradient id="I" x1="94.737" y1="62.577" x2="95.208" y2="62.577" xlink:href="#P"><stop offset="0" stop-color="#c2c1c1"/><stop offset="1" stop-color="#c2c1c1"/></linearGradient><linearGradient id="J" x1="94.312" y1="66.702" x2="95.676" y2="66.702" xlink:href="#P"><stop offset="0" stop-color="#c2c1c1"/><stop offset="1" stop-color="#c2c1c1"/></linearGradient><linearGradient id="K" x1="94.148" y1="64.77" x2="95.815" y2="64.77" xlink:href="#P"><stop offset="0" stop-color="#c2c1c1"/><stop offset="1" stop-color="#c2c1c1"/></linearGradient><linearGradient id="L" x1="93.379" y1="68.677" x2="96.606" y2="68.677" xlink:href="#P"><stop offset="0" stop-color="#c2c1c1"/><stop offset="1" stop-color="#c2c1c1"/></linearGradient><linearGradient id="M" x1="94.206" y1="63.207" x2="95.757" y2="63.207" xlink:href="#P"><stop offset="0" stop-color="#c2c1c1"/><stop offset="1" stop-color="#c2c1c1"/></linearGradient><linearGradient id="N" x1="88.88" y1="44.97" x2="111.101" y2="44.97" xlink:href="#P"><stop offset="0" stop-color="#968247"/><stop offset=".502" stop-color="#a69464"/><stop offset="1" stop-color="#a69464"/></linearGradient><path id="O" d="M87.11 61.284h0l-.355 1.156-1.156-.002.936.712-.36 1.155.934-.716.934.716-.36-1.155.936-.712-1.156.002z"/><linearGradient id="P" gradientUnits="userSpaceOnUse"/></defs><g transform="matrix(.18 0 0 .18 -1722 1205.4)"><path d="M-2100-14863.333h23333.332V1470H-2100z" fill="#009b3a"/><path d="M-116.667-6696.667L9566.667-513.333 19250-6696.667 9566.667-12880z" fill="#fedf00"/><circle transform="matrix(5.555556 0 0 5.555556 9566.6665 -6696.6667)" cy="0" cx="0" r="735" fill="#fff"/><g transform="matrix(123.22304 0 0 122.99083 -2755.6389 -15306.024)" fill-rule="evenodd"><path d="M111.582 52c-7.693-1.21-15.493-1.075-23.187.053l-.63.092 2.67-6.35.196-.032c3.082-.503 6.197-.847 9.324-.858 3.132-.01 6.256.33 9.342.848l.192.032 2.737 6.314-.645-.1z" class="C"/><path d="M109.235 51.11l-.28-1.114.043.005 2.066.253.503 1.162-2.33-.305zm1.636-1.185l-4.947-.485-.178-1.07.038.003 4.68.497.46 1.062-.052-.007zm-.6-1.384l-1.74-.218-.276-1.093.043.005 1.544.204.48 1.11-.053-.007zm-.62-1.432l-4.2-.45-.187-1.123.04.004 3.946.55.445 1.026-.053-.008zm-4.686-1.606l.19 1.132-.038-.003-4.94-.175-.001-1.213h.03c1.583.004 3.164.097 4.738.257l.023.002zm-5.1-.258l.001 1.213h-.03l-4.64.163-.36.025.19-1.132.023-.002 4.79-.267h.03zm-5.15.302l-.187 1.122-.023.002-4.225.45-.052.007.43-1.026.016-.003 4.04-.55zm-4.606 1.898l1.615-.207-.282 1.12-.02.002-1.754.216-.052.007.477-1.135.017-.002zm-.612 1.455l4.742-.5-.178 1.07-.024.002-5.003.492.446-1.06.017-.002zm-.58 1.38l2.103-.25-.287 1.146-2.33.292.498-1.184.017-.002zm2.133.86l.287-1.144.02-.002 5.58-.37-.1 1.073-5.786.444zm6.087-.456l.1-1.07h.026l1.202-.03 4.267.014.1 1.056c-1.898-.056-3.798-.045-5.696.03h0zm5.998-.02l-.1-1.058.034.001 5.56.357.28 1.112-5.774-.412zm4.795-3.47l.276 1.096-.043-.005-5.27-.36-.093-1.117.034.001 5.096.385zm-5.43-.397l.093 1.118-.033-.001c-1.653-.047-3.307-.04-4.96.01l-.22.007.094-1.128.026-.001 4.998-.006zm-5.326.02l-.094 1.128-.026.001-5.25.373-.043.004.283-1.12.02-.002 3.154-.28 1.957-.104zm-2.603 1.56l3.038-.152 2.258-.042.001 1.086h-.03l-1.376.016-4.055.162-.037.002.178-1.07.024-.002zm5.625-.195l5.235.168.178 1.072-.037-.002-5.375-.152h-.03l-.001-1.086h.03z" fill="url(#B)"/><g class="C"><path d="M99.978 47.546h0c.592 0 .92.438 1.077.917l.75 2.286-3.456-.017.556-2.27c.12-.5.483-.917 1.075-.917h0z"/><path d="M97.908 50.462l.155-1.3c.2-1.095.653-2.19 1.94-2.19.438 0 .84.125 1.17.422.777.703.824 2.08.925 3.056l.035.335-.336-.005-.378-.005-.27-.002-.026-.267-.117-1.162c-.092-.6-.277-1.377-1.014-1.377-.17 0-.324.04-.46.145-.546.427-.567 1.76-.624 2.4l-.024.268-.27.004-.405.007-.34.007.035-.337z"/></g><path d="M98.612 50.486c.087-.967.09-2.816 1.38-2.816 1.33 0 1.332 1.822 1.428 2.8l.38.004c-.128-1.232-.17-3.2-1.797-3.2-1.592 0-1.67 2.01-1.798 3.22l.406-.007z" class="D"/><path d="M99.688 97.852c-.767-1.486-2.62-2.753-4-3.612-2.087-1.3-4.325-2.39-6.487-3.552-2.08-1.118-4.223-2.327-6.07-3.802-1.585-1.266-3.09-2.858-3.697-4.837a6.41 6.41 0 0 1-.282-1.88c0-2.973 1.033-5.645 2.14-8.35.826-2.017 2.006-4.593 1.76-6.8-.25-2.26-1.828-3.8-3.65-4.987l-.323-.21 6.1-7.842.133-.023c9.76-1.664 19.672-1.88 29.42.001l.13.025 6.087 7.838-.323.21c-1.822 1.177-3.4 2.73-3.65 4.987-.246 2.217.934 4.793 1.76 6.8 1.108 2.706 2.14 5.378 2.14 8.35 0 .64-.095 1.268-.282 1.88-.605 1.98-2.11 3.57-3.696 4.837-1.846 1.474-3.99 2.684-6.07 3.802-2.162 1.163-4.4 2.262-6.487 3.552-1.39.86-3.243 2.127-4.01 3.612l-.313.605-.313-.605z" class="B"/><path d="M100 97.692c-2.93-5.675-20.505-9-20.505-17.522s8.878-14.767.1-20.442l5.768-7.434c10.344-1.764 20.097-1.775 29.292 0l5.768 7.434c-8.788 5.675.1 11.93.1 20.442S102.93 92.017 100 97.692h0z" fill="url(#C)"/><path d="M99.755 95.105c-.936-.91-2.042-1.67-3.15-2.354-2.127-1.315-4.377-2.42-6.578-3.604-2.92-1.57-7.896-4.26-8.92-7.607a4.67 4.67 0 0 1-.205-1.368c0-2.704 1.002-5.225 2.01-7.69.97-2.372 2.14-5.046 1.85-7.665-.237-2.134-1.38-3.8-2.992-5.158l-.26-.218 4.614-5.854.135-.022c9.11-1.49 18.376-1.682 27.477-.015l.13.024 4.624 5.867-.26.218c-1.612 1.358-2.755 3.024-2.992 5.158-.29 2.62.878 5.293 1.85 7.665 1.01 2.464 2.01 4.985 2.01 7.69 0 4.146-5.955 7.27-9.125 8.976-2.2 1.184-4.45 2.3-6.578 3.604-1.108.685-2.215 1.444-3.15 2.354l-.245.24-.246-.24z" class="B"/><path d="M100 94.854c.97-.943 2.136-1.737 3.21-2.4 2.125-1.313 4.395-2.43 6.596-3.615 2.973-1.6 8.94-4.705 8.94-8.668 0-2.65-.996-5.14-1.985-7.556-1-2.44-2.172-5.145-1.873-7.836.25-2.264 1.472-4.003 3.115-5.387l-4.332-5.497c-9.068-1.66-18.277-1.468-27.357.016l-4.32 5.48c1.643 1.384 2.863 3.123 3.115 5.387.3 2.69-.874 5.397-1.873 7.836-.99 2.415-1.984 4.905-1.984 7.556a4.31 4.31 0 0 0 .19 1.266c.987 3.226 5.968 5.905 8.75 7.4 2.2 1.184 4.47 2.302 6.596 3.615 1.075.665 2.242 1.458 3.21 2.4h0z" class="E"/><path d="M93.194 42.968V41.89l.324-.032 2.59-.212.382-.025 1.145 1.086.717-.02v-1.132l.355-.004 2.586-.004.356.003v1.13l.728.018 1.134-1.075v-.01l.38.024 2.592.21.324.032v1.09l1.862-.847.418.07 2.593.476.288.058v1.453l-.04.078-.61 1.315-.73.637-.122.093-.15-.024c-3.085-.495-6.187-.795-9.312-.846-3.764-.062-7.5.24-11.207.824l-.15.024-.12-.09-.86-.64-.6-1.296-.04-.077v-1.45l.3-.057a83.85 83.85 0 0 1 2.59-.466l.417-.068 1.862.837z" class="C"/><path d="M90.973 43.646l2.58-.32v-1.1l2.58-.21v1.122l2.58-.09V41.9l2.58-.004v1.126l2.58.08v-1.118l2.58.208v1.105l2.58.327v-1.09l2.582.474v1.07l-.44.844h-.015c-3.813-.605-7.634-.957-11.496-.945-3.64.01-7.244.345-10.838.92l-.007.007-.422-.824v-1.07c.86-.168 1.718-.323 2.58-.464v1.092z" fill="url(#D)"/><g fill="#fff"><use xlink:href="#O"/><use xlink:href="#O" x="-0.972" y="7.859"/><use xlink:href="#O" x="-2.232" y="14.902"/><path d="M99.924 88.44h0l-.355 1.157-1.156-.003.936.712-.36 1.155.934-.716.934.716-.36-1.155.937-.712-1.156.003zm6.97-2.857h0l-.354 1.157-1.156-.002.936.712-.36 1.155.933-.716.934.716-.36-1.155.936-.712-1.156.002zm-14.007 0h0l.355 1.157 1.156-.002-.936.712.36 1.155-.934-.716-.934.716.36-1.155-.936-.712 1.156.002zm-5.542-3.753h0l.355 1.156 1.156-.002-.936.712.36 1.155-.934-.716-.934.716.36-1.155-.936-.712 1.156.002z"/></g><g class="B"><path d="M114.387 86.196h0L84.26 56.07l.315-.36 30.2 30.19z"/><path d="M99.998 56.484c2.426 0 4.682.71 6.602 2.2 8.93 6.93 6.704 27.7-6.602 27.7-2.48 0-4.78-.732-6.728-2.277-8.817-6.998-6.46-27.622 6.728-27.622h0z"/><path d="M99.998 57.114h0c15.064 0 15.163 28.64 0 28.64h0c-15.163 0-15.064-28.64 0-28.64z"/></g><path d="M111.32 71.985H88.667c-.186-7.34 3.602-14.87 11.327-14.87h0c7.726 0 11.514 7.532 11.327 14.87h0z" fill="url(#E)"/><g fill="#b49700"><path d="M88.663 71.22h6.374v.274h-6.378v-.06h.002l.002-.213z"/><path d="M88.716 69.968l6.35 1.26-.053.27-6.315-1.253.018-.276z"/><path d="M88.856 68.664l6.24 2.577-.105.254-6.172-2.55.037-.28z"/><path d="M89.108 67.254l6.013 4.005-.152.228-5.92-3.944.06-.29z"/><path d="M89.524 65.686l5.618 5.597-.194.194-5.515-5.494.09-.297z"/><path d="M90.194 63.917l4.965 7.392-.228.153-4.867-7.247.13-.298z"/><path d="M91.255 61.963l3.915 9.375-.253.106-3.84-9.2.18-.282z"/><path d="M92.87 59.978l2.306 11.39-.27.054-2.27-11.2.232-.235z"/><path d="M95.123 58.304l.05 13.096H94.9l-.05-12.943.274-.154z"/><path d="M97.912 57.3l-2.745 14.12-.27-.052L97.62 57.37l.29-.06z"/><path d="M100.997 57.158l-5.843 14.3-.254-.104 5.8-14.22.287.02z"/><path d="M104.1 57.928l-8.955 13.557-.23-.15 8.926-13.512.258.107z"/><path d="M106.802 59.68l-11.69 11.825-.195-.193L106.596 59.5l.206.182z"/><path d="M108.874 62.185l-13.788 9.338-.154-.227 13.794-9.343.148.23z"/><path d="M110.27 65.112l-15.214 6.422-.107-.253 15.227-6.428.094.258z"/><path d="M111.066 68.228l-16.04 3.31-.055-.27 16.05-3.313.047.27z"/><path d="M111.33 71.413l-16.334.126-.002-.274 16.334-.126.003.274z"/><path d="M95.037 67.237a4.18 4.18 0 0 1 4.184 4.171h-8.368a4.18 4.18 0 0 1 4.184-4.171z"/></g><path d="M95.037 67.596c2.12 0 3.84 1.665 3.84 3.72h-7.68c0-2.054 1.72-3.72 3.84-3.72z" fill="#f8c100"/><path d="M100.57 75.732c-.365-.837 1.9-2.425 2.242-3.108.68-1.325-3.747-1.042-3.626-1.134l-10.447-.057c.034.002 0 .027-.08.07l.07 1.633c2.623.086 6.004-.072 6.087.432.023.137.567-.146.436.001-1.2 1.35.287 3.68 1.806 4.874 4.72 3.713 2.995 5.8-.828 6.638 1.128.432 2.382.672 3.763.672h0c4.36 0 7.456-2.37 9.3-5.744-2.827-1.136-7.612-1.73-8.723-4.277h0z" fill="url(#F)"/><path d="M88.664 71.14l12.772-.005-1.86.584c-.974.306-2.216.846-2.507 1.935-.22.823.13 1.806.457 2.555.478 1.097 1.1 2.148 1.634 3.22.977 1.96 1.82 4.207.828 6.324-7.682-.003-11.443-7.36-11.325-14.614h0z" class="B"/><path d="M99.487 71.433c-7.547 2.37 2.935 8.84.174 14.31-7.357-.208-11.014-7.257-11.003-14.31l10.83-.001z" fill="url(#G)"/><path d="M105.724 67.953c1.602-.17 1.375-3.425 4.227-3.456l.09.002c.888 2.218 1.316 4.726 1.285 7.225H99.457l.132-.394c.236-.706.777-1.503 1.24-2.08.37-.464.806-.932 1.278-1.294.357-.274.862-.58 1.332-.504.324.052.65.14.968.225.28.075 1.05.306 1.318.278h0z" class="B"/><path d="M105.756 68.25c-.438.047-1.607-.382-2.365-.505-1.037-.168-3.076 2.356-3.518 3.68h11.456c-.005-2.282-.396-4.562-1.167-6.612-.07-.01-.138-.018-.208-.017-2.678.028-2.35 3.257-4.198 3.454h0z" class="E"/><path d="M92.993 79.73c-1.24-2.532-1.237-5.008 1.412-6.503l.927-.523-.52.93c-.194.348-.305.724-.265 1.125.123 1.22 1.72 2.465 2.6 3.17l.5.397-.626.13c-1.232.256-2.563.647-3.598 1.386l-.287.205-.155-.317z" class="B"/><path d="M93.26 79.598c-1.432-2.923-.807-4.927 1.29-6.11-.955 1.7.408 3.08 2.42 4.675-1.42.295-2.71.72-3.71 1.436h0z" fill="#fff"/><path d="M96.488 79.662h-.652c.003-.012.005-.025.005-.038v-.36a.15.15 0 0 0-.15-.15h-.36a.15.15 0 0 0-.15.15v.36c0 .013.002.026.005.038H92.58v-.227h-.508v.227h-.57c-.148.117-.148.26 0 .434 1.603.268 3.265.268 4.987 0 .148-.145.148-.3 0-.434h0zm11.776 1.938c-2.473-1.282-5.897-1.556-7.8-3.58-1.942-2.056-2.3-4.353-.78-6.756l.1-.14 11.564.138c.037 3.784-.982 7.583-3.062 10.34z" class="B"/><path d="M99.926 71.433c-1.038 1.64-1.6 3.907.746 6.39 1.86 1.97 5.27 2.23 7.773 3.543 1.906-2.66 2.866-6.224 2.883-9.798l-11.4-.135z" fill="url(#H)"/><path d="M111.328 71.486h-7.077l.88-.552c.788-.494 1.376-1.082 2.003-1.757.407-.438.928-1.046 1.542-1.164a1.26 1.26 0 0 1 .387-.013c.34.04.68.108 1.013.174l.87.166.138.023a20.09 20.09 0 0 1 .242 3.124h0z" class="B"/><path d="M111.133 68.67l-2.104-.373c-1.102-.132-1.707 1.617-3.738 2.89h6.034c-.012-.844-.075-1.687-.192-2.518z" class="E"/><path d="M94.222 63.69h1.518v.804h-1.518z" fill="#f8c300"/><path d="M94.972 62.047a.53.53 0 1 1 0 1.06.53.53 0 1 1 0-1.06z" class="B"/><path d="M94.972 62.342c.13 0 .235.105.235.235s-.105.235-.235.235-.235-.105-.235-.235.106-.235.235-.235z" fill="url(#I)"/><path d="M93.997 68.6h0l.23-3.816h1.53l.235 3.816z" class="B"/><path d="M94.312 68.315h0l.195-3.225h.972l.198 3.225z" fill="url(#J)"/><path d="M93.852 64.197h2.26v1.144h-2.26z" class="B"/><path d="M94.148 64.493h1.667v.553h-1.667z" fill="url(#K)"/><path d="M94.005 65.952h2.898v5.45h-3.82v-5.45h.922z" class="B"/><path d="M93.38 66.247h.46v.46h.46v-.46h.46v.46h.46v-.46h.46v.46h.46v-.46h.46v4.86H93.38v-4.4z" fill="url(#L)"/><g class="B"><path d="M94.977 69.6c.25 0 .434.248.434.522v1.068h-.867v-1.068c0-.274.183-.522.434-.522zm.416-.888h0-.8v-.785h.8zm-2.168-1.452h3.538v.3h-3.538zm0 1.724h3.538v.3h-3.538zm1.91-5.374h0v.82h-.3v-.82z"/><path d="M94.98 62.58c.505 0 1.072.323 1.072.88v.374H93.91v-.374c0-.556.567-.88 1.072-.88h0z"/></g><path d="M94.98 62.876h0c.427 0 .776.262.776.583v.078h-1.55v-.078c0-.32.35-.583.776-.583z" fill="url(#M)"/><path d="M94.438 63.592h0v.828h-.3v-.828zm1.395.008h0v.82h-.308v-.82zm4.732-1.983c1.016-.02 2.02.075 2.98.426.824.3 1.543.766 2.178 1.37l.465.442-2.188.248-.103-.116c-.947-1.064-2.147-1.25-3.44-1.627-.224-.066-.657-.126-.6-.46s.485-.277.72-.28h0z" class="B"/><path d="M100.57 61.917c.984-.02 1.947.07 2.87.408.718.263 1.413.676 2.075 1.305l-1.397.16c-1.012-1.137-2.277-1.335-3.58-1.716-.546-.16-.525-.146.03-.156z" fill="#fff"/><path d="M107.235 62.577c.188.11.33.335.344.546.16.233.167.62-.092.788-.422.274-.865.303-1.296.44.216.685.575 1.353.552 2.088a3.84 3.84 0 0 1-.037.425c-.142 1.022-.643 1.924-.82 2.915-.035.196.002.59-.325.602-.332.01-.318-.38-.353-.575-.123-.696-.175-1.423-.252-2.127-.072-.655-.2-1.926-.576-2.506a4.01 4.01 0 0 0-.774-.364l-.007-.002-.006-.003c-.177-.072-.418-.103-.615-.12l-.608.126-.454.125.08-.464c.037-.218.117-.434.206-.637.176-.4.49-.673.938-.64l1.373-.286.04.003c.24.017.5-.048.727-.127.252-.087.494-.202.735-.317.183-.088.42-.2.62-.248.243-.047.503.133.6.358h0z" class="B"/><path d="M104.534 63.21c.815.057 1.77-.62 2.16-.697.13-.026.367.196.252.307-.075.072-.516.237-.642.303-.083.044.622-.328.716-.314.197.03.32.356.232.424l-.818.258c-.174.08.524-.244.818-.258.105-.005.224.328.075.425-.442.287-1.028.3-1.495.508.177.713.638 1.525.615 2.26-.036 1.15-.66 2.223-.852 3.298-.075.42-.003.514-.09.027-.248-1.402-.262-3.878-.9-4.8-.265-.17-.56-.312-.888-.427-.173-.07-.424-.118-.753-.146l-.692.17c.057-.334.27-1.133.896-1.054l1.377-.287z" fill="#fff"/><g class="B"><path d="M103.096 64.038c.076.006.142-.054.148-.134s-.05-.15-.127-.155a.14.14 0 0 0-.147.134c-.006.08.05.15.127.155zm2.547 1.984h0l.608 2.1-.186.198-.652-2.22zm.27-.448h0l.63 1.324-.12.282-.726-1.503zm1.328-2.77h0l-.996.477-.102-.216.857-.406zm.218.585h0l-1.075.255-.054-.233 1.02-.248zm-3.332 13.818c.117-.47.236-.853.46-1.245l-.553.553-.17-.17.44-.44a3.11 3.11 0 0 0-.848.752l-.014.064.002.08.103 1.05.56-.59.02-.05.001-.003zm1.443-.746l.04 1.396.216-.503v-.03l-.01-.017-.248-.847zm.06 1.958l.117 3.98.005.244h-1.37l.143-4.277-.2-.438.01.687-.24.003-.008-.654-.233.617-.224-.084.247-.654-.462.487-.174-.164.08-.083-.07-.706-.182.687-.23-.06.178-.67-.4.563-.196-.136.435-.627-.602.387-.13-.2.565-.363-.2.04-.07.122-.14-.08-.256.053-.05-.234.07-.014-.144-.138.58-.607-.7.415-.12-.207.78-.455-.87.196-.053-.233.718-.162-.735-.026.008-.24.82.028-.787-.257.074-.227.78.255-.412-.28-.063.01-.01-.06-.2-.142.134-.198.203.138.522-.083-.76-.083.026-.238.86.094-.776-.337.095-.22.782.34-.645-.558.156-.18.64.555-.457-.735.174-.108.046-.113.245.1-.026-.098.1-.027-.196-.145.143-.192.747.553-.553-.72.2-.146.603.786-.33-.92.225-.08.28.775-.072-.82.238-.02.08.904.178-.898.235.046-.176.9.264-.512-.087-.168.213-.1.01.017.026-.05.213.1-.104.202.28.546-.176-.9.235-.046.178.898.08-.904.238.02-.072.82.28-.775.225.08-.33.92.603-.786.2.145-.553.72.747-.553.142.192-.156.116.084.022-.033.125.23-.094.03.076.01-.015.203.126-.457.735.64-.555.156.18-.645.558.782-.34.095.22-.776.337.86-.094.026.238-.76.083.583.093.217-.147.134.198-.294.2v.002h-.002l-.397.27.78-.255.074.227-.787.257.82-.028.008.24-.735.026.718.162-.053.233-.87-.196.78.455-.12.207-.7-.415.58.607-.144.138.07.014-.05.234-.256-.053-.14.08-.07-.122-.2-.04.565.363-.13.2-.602-.387.435.627-.196.136-.4-.563.178.67-.23.06-.182-.687-.07.706.08.083-.174.164-.462-.487.247.654-.224.084-.232-.617-.008.653-.24-.003.01-.687-.212.492zm-1.086-.615l.043-1.288a5.76 5.76 0 0 0-.219.711l-.02.076.003.05.194.45zm2.015-3.1c-.204.082-.447.194-.674.333l.76-.13.04.236-.648.1a3.15 3.15 0 0 1 .906.156l.03.01.034-.01.807-.547-1.105-.175-.088-.012-.064.03zm-1.084.323a4.23 4.23 0 0 1 1.02-.554l.035-.02.006-.038.236-.897-.96.392-.036.05c-.168.258-.295.526-.4.805l.66-.76.18.157-.75.863zm1.247 1.62a2.86 2.86 0 0 0-.941-.799l.5.52-.172.166-.448-.465c.17.346.26.7.368 1.1l.024.087.056.04.52.547.103-1.05.01-.082-.02-.07zm-1.52-2.082a3.74 3.74 0 0 1 .363-.72l.012-.028-.003-.034-.544-1.057-.527 1.023.01.062a3.85 3.85 0 0 1 .451.943l.001-1.058h.24v.87zm1.65 1.067c-.25-.083-.515-.126-.78-.137l.573.188-.075.227-.475-.156a3.15 3.15 0 0 1 .885.842l.008.012H107l.512.107-.568-1.008-.03-.05-.052-.026zm-.007-2.402l.03-.116-.313.232.282-.115zm.2.176l-.107.406.302-.486-.195.08zm-2.744.52l-.033-.044-.057-.027-.9-.364.244.924.04.056c.356.14.797.357 1.126.642l.008.001-.86-.888.172-.166.653.673c-.098-.28-.23-.55-.402-.808h0zm-.786.766l-.06-.02-.067.013-1.044.166.82.556.034.007.03-.004a3.4 3.4 0 0 1 .895-.157l-.65-.1.04-.236.67.115-.674-.33zm.57 1.066l-.487.164-.076-.227.6-.202a3.17 3.17 0 0 0-.8.14l-.045.028-.037.047-.568 1.008.514-.107.02-.025.025-.026c.25-.324.53-.6.855-.8h0zm-1.473.576l-.47.493.22-.046.25-.447zm.433-2.956l-.208-.085.323.52-.114-.434zm.2-.176l.265.1-.294-.218.03.1zm4.568 3.58l.22.046-.47-.493.252.447z"/><path d="M104.863 75.454l-.233 6.95h.88l-.2-6.95c-.17-.234-.315-.182-.445 0h0z"/></g><path d="M104.863 75.454l-.01.335.472.355-.01-.38-.437-.33-.015.02zm-.22 6.554l-.012.365.04.03h.497l-.525-.396zm.025-.732l-.012.365.85.64-.01-.38-.83-.625zm.025-.732l-.012.365.808.61-.01-.382-.785-.592zm.025-.732l-.012.365.762.574-.012-.383-.738-.556zm.024-.732l-.012.365.714.538-.012-.384-.69-.52zm.025-.732l-.012.365.664.5-.013-.384-.64-.482zm.025-.732l-.012.365.614.463-.013-.384-.59-.444zm.025-.732l-.012.365.564.425-.012-.383-.54-.407zm.025-.732l-.012.365.517.39-.01-.382-.494-.372z" fill="#957f66"/><path d="M89.738 45.898l-.86-.64c7.736-1.24 14.417-1.212 22.222.025l-.73.637c-7.038-1.128-13.428-1.155-20.632-.022h0z" fill="url(#N)"/><path d="M107.484 43.064l1.186-.525v.68l-1.186-.155zm-16.152-.525v.696l1.22-.156-1.22-.54zm5.84.185l-.68-.656v.684l.68-.027zm5.67-.012l.67-.644v.67l-.67-.025z" class="D"/><path d="M94.765 50.137l-1.006.067-.896.074.08-.896.245-2.126.017-.188.103-.158c.33-.503.926-.854 1.537-.7.376.1.66.373.81.727l.082.19-.025.204-.347 2.74-.602.058z" class="C"/><path d="M94.728 49.76l-1 .066-.448.037.04-.448.245-2.126.01-.094.052-.08c.24-.365.672-.653 1.123-.532.264.07.456.265.562.51l.04.094-.013.102-.31 2.438-.3.03z" class="D"/><path d="M94.692 49.385l.272-2.137c-.197-.457-.714-.393-1.022.078l-.245 2.126.995-.066zm10.346.752l1.006.067.896.074-.08-.896-.245-2.126-.017-.188-.103-.158c-.33-.503-.927-.854-1.537-.7-.376.1-.658.373-.8.727l-.082.2.025.204.272 2.14.075.6.602.058z" class="C"/><path d="M105.074 49.76l1 .066.448.037-.04-.448-.245-2.126-.008-.094-.052-.08c-.24-.365-.672-.653-1.123-.532a.86.86 0 0 0-.562.511l-.04.094.013.102.272 2.138.038.3.3.03z" class="D"/><path d="M105.11 49.385l-.272-2.137c.198-.457.714-.393 1.022.078l.245 2.126-.995-.066z" class="C"/></g></g></svg>