<svg xmlns="http://www.w3.org/2000/svg" width="900" height="600" xmlns:v="https://vecta.io/nano"><style><![CDATA[.B{fill-rule:evenodd}.C{fill:none}.D{stroke:#231f20}.E{stroke-miterlimit:22.92560005}.F{stroke-width:1.303}.G{fill:#fff200}.H{fill:#00a650}.I{fill:#231f20}.J{stroke-linejoin:round}.K{stroke-width:2.606}.L{fill:#229845}.M{fill:#d2cb54}.N{fill:#e39125}.O{stroke-width:2.585}.P{stroke-width:1.477}]]></style><g transform="matrix(3.56828 0 0 3.56829 .000019 .000001)"><path d="M0 0h252.22v84.074H0V0z" fill="#009b3a"/><path d="M0 84.074h252.22v84.075H0V84.074z" fill="#fff"/><path d="M173.75 35.22v72.43c0 10.75-9.964 19.548-22.14 19.548h-19.918c-3.013 1.114-5.002 3.502-5.457 5.73-.227-2.547-2-4.457-5.286-5.73h-20.3c-12.178 0-22.14-8.797-22.14-19.548V35.22h95.243z" fill="#fedf00"/></g><path d="M356.62 221.63c3.236 0 5.86 3.535 5.86 7.892s-2.623 7.892-5.86 7.892-5.86-3.533-5.86-7.892 2.623-7.892 5.86-7.892" class="B I"/><path d="M356.62 221.63c3.236 0 5.86 3.535 5.86 7.892s-2.623 7.892-5.86 7.892-5.86-3.533-5.86-7.892 2.623-7.892 5.86-7.892z" class="C D E F"/><path d="M349.645 238.737c3.236 0 5.86 3.535 5.86 7.892s-2.624 7.892-5.86 7.892-5.86-3.533-5.86-7.892 2.624-7.892 5.86-7.892" class="B M"/><path d="M349.645 238.737c3.236 0 5.86 3.535 5.86 7.892s-2.624 7.892-5.86 7.892-5.86-3.533-5.86-7.892 2.624-7.892 5.86-7.892z" class="C D E F"/><path d="M486.186 389.918c7.094.548 11.62-1.067 18.845-10.276 5.883-7.5 7.593-15.343 16.448-20.323 9.136-5.138 20.334-5.602 29.078-3.95 12.94 2.443 23.32 13.15 22.418 26.694-1.04 15.635-20.204 25.184-38.024 17.25 4.354-.447 9.748-5.55 15.23-11.02 11.747 2.208 23.323-17.767 7.878-27.133-9.272-4.122-17.654-5.016-24.633-.618-4.538 2.86-5.45 6.04-7.976 10.425-7.59 13.182-15.997 23.776-34.432 23.95 1.505-2.495.165-4.072-2.81-4.626-1.54-.105-.482-.27-2.022-.374" class="B G"/><path d="M486.186 389.918c7.094.548 11.62-1.067 18.845-10.276 5.883-7.5 7.593-15.343 16.448-20.323 9.136-5.138 20.334-5.602 29.078-3.95 12.94 2.443 23.32 13.15 22.418 26.694-1.04 15.635-20.204 25.184-38.024 17.25 4.354-.447 9.748-5.55 15.23-11.02 11.747 2.208 23.323-17.767 7.878-27.133-9.272-4.122-17.654-5.016-24.633-.618-4.538 2.86-5.45 6.04-7.976 10.425-7.59 13.182-15.997 23.776-34.432 23.95 1.505-2.495.165-4.072-2.81-4.626-1.54-.105-.482-.27-2.022-.374z" class="C D E F J"/><g class="B"><path d="M540.963 396.57c7.792 1.17 15.157 1.105 20.89-3.916 10.493-9.194 10.57-24.775-1.937-32.402-5.083-3.1-11.914-4.474-20.18-4.428a55.84 55.84 0 0 0-7.346.684c-1.82.293-3.62.678-5.426 1.157-5.58 1.477-9.572 4.427-12.87 9.23-2.866 4.175-4.858 8.87-8.708 13.073-8.108 8.85-11.082 10.35-17.127 10.085 1.54.104-.517-.012 1.023.092 1.83.71 2.62 2.07 2.32 3.76 23.282-.525 24.16-32.935 46.067-35.345 6.042-1.94 12.926-.715 20.39 2.602 15.444 9.366 3.87 29.34-7.878 27.133-3.163 3.155-6.298 6.187-9.22 8.275" class="H"/><path d="M536.546 263.157l.713.283-.572 108.898c.167-4.622 19.363-20.65 19.435-15.415 1.626-.708-3.77-94.048-4.715-94.048l-14.86.283" class="N"/></g><path d="M536.546 263.157l.713.283-.572 108.898c.167-4.622 19.363-20.65 19.435-15.415 1.626-.708-3.77-94.048-4.715-94.048l-14.86.283z" class="C D E K"/><g class="B I"><path d="M536.18 362.814c1.196-8.827 2.715-8.047 4.563-1.197-.4-2.888-.95-5.1-1.677-6.765-1.15-2.646-1.312-1.226-2.04 1.42-.778 2.825-1.585 6.455-.847 6.542m7.8-4.91c1.694-8.827 3.85-8.048 6.47-1.198-.555-2.888-1.347-5.1-2.38-6.765-1.626-2.646-1.86-1.226-2.9 1.42-1.103 2.825-2.25 6.455-1.2 6.542"/><path d="M539.125 353.953c1.694-8.828 3.85-8.05 6.472-1.197-.553-2.888-1.348-5.1-2.38-6.766-1.626-2.645-1.86-1.225-2.893 1.42-1.1 2.825-2.25 6.455-1.2 6.542m9.364-1.436c1.692-8.828 3.85-8.048 6.47-1.197-.555-2.888-1.348-5.1-2.377-6.766-1.628-2.645-1.86-1.225-2.893 1.42-1.103 2.825-2.25 6.455-1.2 6.542"/><path d="M543.98 345.09c1.694-8.827 3.85-8.047 6.47-1.197-.555-2.888-1.347-5.1-2.38-6.765-1.626-2.647-1.86-1.227-2.89 1.42-1.103 2.826-2.25 6.457-1.2 6.542"/><path d="M539.125 341.14c1.694-8.828 3.85-8.047 6.472-1.197-.553-2.888-1.348-5.1-2.38-6.766-1.626-2.645-1.86-1.225-2.893 1.42-1.1 2.826-2.25 6.455-1.2 6.542m9.364-1.436c1.692-8.828 3.85-8.05 6.47-1.197-.555-2.888-1.348-5.1-2.377-6.766-1.628-2.645-1.86-1.225-2.893 1.42-1.103 2.826-2.25 6.455-1.2 6.542"/><path d="M543.98 332.28c1.694-8.828 3.85-8.05 6.47-1.2-.555-2.888-1.347-5.088-2.38-6.765-1.626-2.647-1.86-1.225-2.89 1.42-1.103 2.826-2.25 6.457-1.2 6.544"/><path d="M539.125 328.326c1.694-8.827 3.85-8.047 6.472-1.197-.553-2.888-1.348-5.088-2.38-6.766-1.626-2.645-1.86-1.224-2.893 1.42-1.1 2.826-2.25 6.455-1.2 6.542m9.364-1.435c1.692-8.828 3.85-8.047 6.47-1.197-.555-2.888-1.348-5.1-2.377-6.765-1.628-2.647-1.86-1.227-2.893 1.42-1.103 2.826-2.25 6.455-1.2 6.542"/><path d="M543.493 320.66c1.537-8.09 3.495-7.376 5.874-1.098-.503-2.647-1.224-4.664-2.16-6.2-1.477-2.426-1.69-1.124-2.626 1.303-1 2.59-2.04 5.915-1.09 5.995"/><path d="M539.087 317.04c1.537-8.1 3.496-7.377 5.874-1.098-.503-2.647-1.224-4.665-2.16-6.2-1.475-2.426-1.688-1.124-2.626 1.302-1 2.6-2.04 5.917-1.1 5.996m8.498-1.318c1.538-8.1 3.495-7.377 5.874-1.098-.5-2.647-1.224-4.665-2.16-6.2-1.477-2.426-1.688-1.124-2.626 1.302-.998 2.6-2.04 5.917-1.1 5.996"/><path d="M543.342 311.32c1.5-8.38 3.386-7.64 5.7-1.137-.487-2.74-1.185-4.83-2.09-6.42-1.43-2.51-1.634-1.163-2.542 1.348-.97 2.68-1.977 6.127-1.056 6.21"/><path d="M539.074 307.57c1.493-8.38 3.386-7.64 5.7-1.137-.487-2.742-1.185-4.83-2.1-6.42-1.43-2.5-1.637-1.163-2.544 1.348-.97 2.68-1.977 6.127-1.056 6.2m8.232-1.365c1.488-8.38 3.383-7.64 5.688-1.137-.487-2.74-1.185-4.83-2.1-6.42-1.43-2.513-1.636-1.165-2.544 1.347-.968 2.682-1.977 6.127-1.053 6.2"/><path d="M543.043 302.1c1.392-8.163 3.166-7.443 5.32-1.106-.456-2.672-1.108-4.707-1.956-6.258-1.337-2.446-1.53-1.134-2.377 1.314-.907 2.613-1.85 5.97-.987 6.05"/><path d="M539.052 298.445c1.392-8.163 3.165-7.443 5.32-1.106-.456-2.672-1.108-4.707-1.956-6.258-1.337-2.446-1.53-1.134-2.377 1.314-.907 2.613-1.85 5.97-.987 6.05m7.695-1.328c1.394-8.164 3.168-7.443 5.322-1.107-.454-2.672-1.1-4.706-1.955-6.256-1.34-2.448-1.53-1.134-2.38 1.314-.905 2.6-1.85 5.97-.988 6.05"/><path d="M544.247 290.244c1.262-6.73 2.866-6.136 4.816-.913-.412-2.202-1.004-3.88-1.77-5.16-1.21-2.017-1.384-.933-2.154 1.085-.82 2.154-1.672 4.923-.892 4.987"/><path d="M540.638 287.23c1.26-6.73 2.863-6.136 4.816-.9-.415-2.202-1.004-3.88-1.772-5.16-1.2-2.017-1.383-.935-2.153 1.084-.82 2.154-1.67 4.922-.9 4.987m6.96-1.096c1.262-6.73 2.866-6.136 4.816-.913-.413-2.202-1.002-3.88-1.77-5.158-1.2-2.018-1.384-.935-2.15 1.082-.82 2.155-1.673 4.923-.896 5m-11.514 61.83c1.28-7.222 2.908-6.585 4.888-.98-.42-2.362-1.017-4.164-1.796-5.534-1.23-2.166-1.406-1.003-2.186 1.163-.833 2.3-1.7 5.28-.907 5.352m.001-12.814c1.28-7.223 2.908-6.586 4.888-.98-.42-2.362-1.017-4.164-1.796-5.534-1.23-2.165-1.406-1.003-2.186 1.163-.833 2.3-1.7 5.28-.907 5.353"/><path d="M536.086 323.656c1.28-7.223 2.908-6.586 4.888-.98-.42-2.364-1.017-4.164-1.796-5.534-1.23-2.166-1.406-1.005-2.186 1.162-.833 2.312-1.7 5.28-.907 5.353m.653-10.78c1.1-7.222 2.52-6.584 4.236-.98-.365-2.362-.88-4.164-1.557-5.534-1.065-2.166-1.218-1.003-1.893 1.162-.723 2.312-1.472 5.28-.786 5.353m.325-9.46c1.024-7.223 2.327-6.586 3.9-.98-.336-2.362-.814-4.164-1.438-5.534-.984-2.165-1.125-1.003-1.747 1.162-.666 2.312-1.36 5.28-.726 5.354m.545-9.702c.88-7.223 2.003-6.586 3.367-.98-.3-2.364-.7-4.164-1.238-5.534-.847-2.166-.968-1.005-1.504 1.162-.575 2.312-1.172 5.28-.625 5.353m15.216 54.605c1.194-8.827 2.715-8.048 4.563-1.198-.4-2.888-.95-5.088-1.677-6.765-1.147-2.647-1.312-1.225-2.04 1.42-.778 2.824-1.585 6.455-.847 6.54m-.692-12.69c1.194-8.828 2.715-8.05 4.563-1.2-.393-2.888-.952-5.088-1.678-6.765-1.147-2.645-1.312-1.225-2.038 1.42-.778 2.826-1.587 6.455-.847 6.542m.677-14.367c.654-8.828 1.486-8.05 2.498-1.2-.214-2.888-.52-5.088-.92-6.765-.627-2.647-.717-1.225-1.117 1.42-.424 2.826-.867 6.455-.462 6.542m-.693-9.457c.654-8.827 1.488-8.047 2.5-1.197-.215-2.888-.522-5.088-.92-6.765-.627-2.647-.717-1.225-1.116 1.42-.426 2.824-.867 6.455-.464 6.54"/><path d="M552.113 301.742c.654-8.828 1.488-8.05 2.5-1.197-.215-2.9-.522-5.1-.92-6.766-.627-2.645-.717-1.225-1.116 1.42-.426 2.826-.867 6.455-.464 6.542m-.693-8.263c.654-8.827 1.486-8.047 2.5-1.197-.217-2.888-.522-5.088-.92-6.765-.627-2.647-.717-1.225-1.116 1.42-.426 2.826-.867 6.457-.464 6.542m-7.564-10.418c1.182-6.9 2.687-6.3 4.516-.938-.387-2.26-.94-3.983-1.66-5.295-1.136-2.07-1.298-.96-2.02 1.112-.768 2.2-1.57 5.052-.836 5.12m0-8.142c1.182-6.9 2.687-6.3 4.516-.938-.387-2.26-.94-3.984-1.66-5.297-1.136-2.07-1.298-.96-2.02 1.112-.768 2.2-1.57 5.054-.836 5.122"/><path d="M539.233 280.185c1.182-6.9 2.685-6.3 4.516-.938-.388-2.26-.94-3.983-1.66-5.297-1.136-2.07-1.298-.96-2.02 1.113-.77 2.2-1.57 5.052-.836 5.12m8.205.002c1.182-6.9 2.685-6.3 4.516-.938-.387-2.26-.94-3.983-1.66-5.297-1.136-2.07-1.296-.96-2.02 1.113-.768 2.2-1.57 5.052-.836 5.12"/></g><path d="M364.967 239.97c3.236 0 5.86 3.535 5.86 7.892s-2.624 7.892-5.86 7.892-5.86-3.535-5.86-7.892 2.624-7.892 5.86-7.892" class="B M"/><path d="M364.967 239.97c3.236 0 5.86 3.535 5.86 7.892s-2.624 7.892-5.86 7.892-5.86-3.535-5.86-7.892 2.624-7.892 5.86-7.892z" class="C D E F"/><path d="M355.25 244.46c3.236 0 5.86 3.535 5.86 7.892s-2.623 7.892-5.86 7.892-5.86-3.533-5.86-7.892 2.623-7.892 5.86-7.892" class="B M"/><path d="M355.25 244.46c3.236 0 5.86 3.535 5.86 7.892s-2.623 7.892-5.86 7.892-5.86-3.533-5.86-7.892 2.623-7.892 5.86-7.892z" class="C D E F"/><path d="M357.218 231.684c3.235 0 5.86 3.535 5.86 7.892s-2.624 7.892-5.86 7.892-5.86-3.535-5.86-7.892 2.624-7.892 5.86-7.892" class="B I"/><path d="M357.218 231.684c3.235 0 5.86 3.535 5.86 7.892s-2.624 7.892-5.86 7.892-5.86-3.535-5.86-7.892 2.624-7.892 5.86-7.892z" class="C D E F"/><path d="M350.815 261.397c-.017.555 5.85 1.717 6.122 1.312-2.092.5-4.184.728-6.275.555l.153-1.868" class="B I"/><path d="M558.52 222.2l19.08-20.41-2.525 8.467 9.68-7.774-6.452 8.33 10.943-6.1-8.14 7.914 13.468-6.525-10.8 8.747 12.9-4.72-11.505 7.5 15.433-4.03-14.175 6.4 17.962-3.19-15.713 6.384 14.6-1.25-14.6 3.75 14.45.555-14.734 2.916 11.926 1.807-11.785 1.39 11.086 2.774-13.193.415 9.12 4.03-10.24-.695 7.717 6.11-34.514-7.22V222.2z" class="C D E K"/><path d="M558.52 222.2l19.08-20.41-2.525 8.467 9.68-7.774-6.452 8.33 10.943-6.1-8.14 7.914 13.468-6.525-10.8 8.747 12.9-4.72-11.505 7.5 15.433-4.03-14.175 6.4 17.962-3.19-15.713 6.384 14.6-1.25-14.6 3.75 14.45.555-14.734 2.916 11.926 1.807-11.785 1.39 11.086 2.774-13.193.415 9.12 4.03-10.24-.695 7.717 6.11-34.514-7.22V222.2" class="B L"/><path d="M556.395 219.513l12.78-24.764-7.164 5.267 4.037-11.675-5.676 8.87 2.02-12.273-4.7 10.288 1.546-14.762-4.572 13.052.027-13.618-3.144 13.273-1.502-15.725-1.172 15.366-3.165-17.784-.638 16.8-3.847-13.985 1.475 14.848-5.51-13.234 2.315 14.69-5.825-10.456 2.748 11.427-6.456-9.338 4.153 12.395-6.964-7.083 4.19 9.274-8.457-5.062 18.75 29.574 5.415 3.32 9.335-8.684z" class="C D E K"/><path d="M556.395 219.513l12.78-24.764-7.164 5.267 4.037-11.675-5.676 8.87 2.02-12.273-4.7 10.288 1.546-14.762-4.572 13.052.027-13.618-3.144 13.273-1.502-15.725-1.172 15.366-3.165-17.784-.638 16.8-3.847-13.985 1.475 14.848-5.51-13.234 2.315 14.69-5.825-10.456 2.748 11.427-6.456-9.338 4.153 12.395-6.964-7.083 4.19 9.274-8.457-5.062 18.75 29.574 5.415 3.32 9.335-8.684" class="B L"/><path d="M566.28 243.593l25.997 10.548-8.9.622 10.75 6.254-10.146-3.068 9.613 8.01-10.34-4.776 10.89 10.203-12.06-6.954 8.986 10.315-11.123-8.04 9.21 12.898-11.004-10.9 9.307 15.532-11.544-12.333 6.288 13.09-8.653-12.217 4.53 13.593-7.915-12.638 2.464 11.688-5.438-10.44 1.25 11.248-5.01-12.08-.62 9.864-2.927-9.738-3.083 9.292-5.242-34.526.508-11.633 14.212 6.192z" class="C D E K"/><path d="M566.28 243.593l25.997 10.548-8.9.622 10.75 6.254-10.146-3.068 9.613 8.01-10.34-4.776 10.89 10.203-12.06-6.954 8.986 10.315-11.123-8.04 9.21 12.898-11.004-10.9 9.307 15.532-11.544-12.333 6.288 13.09-8.653-12.217 4.53 13.593-7.915-12.638 2.464 11.688-5.438-10.44 1.25 11.248-5.01-12.08-.62 9.864-2.927-9.738-3.083 9.292-5.242-34.526.508-11.633 14.212 6.192" class="B L"/><path d="M531.47 243.42l-26 10.548 8.9.622-10.748 6.254 10.144-3.068-9.613 8.007 10.34-4.774-10.89 10.203 12.06-6.954-8.986 10.315 11.125-8.043-9.213 12.9 11.004-10.903-9.307 15.532 11.544-12.333-6.288 13.09L524.2 272.6l-4.53 13.593 7.915-12.638-2.465 11.688 5.438-10.44-1.25 11.248 5.01-12.08.62 9.864 2.926-9.738 3.083 9.292 5.243-34.526-1.978-12.133-12.742 6.69z" class="C D E K"/><path d="M531.47 243.42l-26 10.548 8.9.622-10.748 6.254 10.144-3.068-9.613 8.007 10.34-4.774-10.89 10.203 12.06-6.954-8.986 10.315 11.125-8.043-9.213 12.9 11.004-10.903-9.307 15.532 11.544-12.333-6.288 13.09L524.2 272.6l-4.53 13.593 7.915-12.638-2.465 11.688 5.438-10.44-1.25 11.248 5.01-12.08.62 9.864 2.926-9.738 3.083 9.292 5.243-34.526-1.978-12.133-12.742 6.69" class="B L"/><path d="M533.875 222.2l-19.08-20.412 2.525 8.47-9.68-7.777 6.453 8.332-10.944-6.1 8.138 7.915-13.47-6.527 10.804 8.747-12.908-4.72 11.505 7.5-15.433-4.026 14.17 6.387-17.958-3.194 15.715 6.388-14.593-1.25 14.593 3.75-14.453.555L504 229.143l-11.926 1.805 11.786 1.39-11.084 2.776 13.188.417-9.12 4.028 10.243-.695-7.717 6.1 34.514-7.22 11.898-4.962-11.898-10.588z" class="C D E K"/><path d="M533.875 222.2l-19.08-20.412 2.525 8.47-9.68-7.777 6.453 8.332-10.944-6.1 8.138 7.915-13.47-6.527 10.804 8.747-12.908-4.72 11.505 7.5-15.433-4.026 14.17 6.387-17.958-3.194 15.715 6.388-14.593-1.25 14.593 3.75-14.453.555L504 229.143l-11.926 1.805 11.786 1.39-11.084 2.776 13.188.417-9.12 4.028 10.243-.695-7.717 6.1 34.514-7.22 11.898-4.962-11.898-10.588" class="B L"/><path d="M539.593 233.306l-12.236-2.743 3.092 2.487-5.548-.44 4.503 1.45-5.59.5 5.017.877-6.625.966 6.2.52-5.958 1.5 6.152-.117-6.71 2.376 6.846-1.193-7.424 3.317 7.415-1.58-5.7 3.19 6.326-2.267-5.176 3.816 6.167-2.61-3.93 3.647 4.692-2.435-3.37 3.793 4.96-3.143-2.33 3.762 3.594-2.815-1.28 4.178 10.86-11.29-3.97-5.723z" class="C D E K"/><path d="M539.593 233.306l-12.236-2.743 3.092 2.487-5.548-.44 4.503 1.45-5.59.5 5.017.877-6.625.966 6.2.52-5.958 1.5 6.152-.117-6.71 2.376 6.846-1.193-7.424 3.317 7.415-1.58-5.7 3.19 6.326-2.267-5.176 3.816 6.167-2.61-3.93 3.647 4.692-2.435-3.37 3.793 4.96-3.143-2.33 3.762 3.594-2.815-1.28 4.178 10.86-11.29-3.97-5.723" class="B L"/><path d="M545.968 226.16l-1.686-12.302-1.27 3.737-1.524-5.297.2 4.682-2.418-5 .924 4.958-3.23-5.802 1.68 5.94-3.496-5.003 2.263 5.662-4.596-5.4 3.526 5.93-5.74-5.723 4.092 6.32-5.01-4.158 4.362 5.074-5.426-3.465 4.63 4.804-4.825-2.365 3.947 3.497-4.77-1.8 4.714 3.5-4.378-.84 3.925 2.343-4.406.277 14.487 6.12 4.027-5.687z" class="C D E K"/><path d="M545.968 226.16l-1.686-12.302-1.27 3.737-1.524-5.297.2 4.682-2.418-5 .924 4.958-3.23-5.802 1.68 5.94-3.496-5.003 2.263 5.662-4.596-5.4 3.526 5.93-5.74-5.723 4.092 6.32-5.01-4.158 4.362 5.074-5.426-3.465 4.63 4.804-4.825-2.365 3.947 3.497-4.77-1.8 4.714 3.5-4.378-.84 3.925 2.343-4.406.277 14.487 6.12 4.027-5.687" class="B L"/><path d="M554.976 232.414l12.262-2.62-3.116 2.455 5.55-.387-4.517 1.407 5.583.544-5.025.827 6.615 1.033-6.216.456 5.943 1.552-6.15-.18 6.686 2.44-6.835-1.26 7.39 3.4-7.398-1.653 5.657 3.244-6.304-2.33 5.137 3.87-6.14-2.673 3.89 3.687-4.667-2.483 3.334 3.827-4.93-3.194 2.29 3.787-3.564-2.854 1.237 4.192L550.95 238.1l4.027-5.685z" class="C D E K"/><path d="M554.976 232.414l12.262-2.62-3.116 2.455 5.55-.387-4.517 1.407 5.583.544-5.025.827 6.615 1.033-6.216.456 5.943 1.552-6.15-.18 6.686 2.44-6.835-1.26 7.39 3.4-7.398-1.653 5.657 3.244-6.304-2.33 5.137 3.87-6.14-2.673 3.89 3.687-4.667-2.483 3.334 3.827-4.93-3.194 2.29 3.787-3.564-2.854 1.237 4.192L550.95 238.1l4.027-5.685" class="B L"/><path d="M554.897 230.893l11.086-5.8-3.982.107 4.5-3.242-4.37 1.8 3.92-3.975-4.384 2.57 4.387-5.003-5.052 3.61 3.54-4.97-4.587 4.053 3.523-6.13-4.41 5.32 3.452-7.304-4.585 5.976 2.214-6.088-3.304 5.804 1.414-6.237-2.96 5.96.58-5.3-1.958 4.874.06-5.05-1.694 5.583-.7-4.356-.872 4.455-1.78-3.997-.806 15.566 6.78 1.784z" class="C D E K"/><path d="M554.897 230.893l11.086-5.8-3.982.107 4.5-3.242-4.37 1.8 3.92-3.975-4.384 2.57 4.387-5.003-5.052 3.61 3.54-4.97-4.587 4.053 3.523-6.13-4.41 5.32 3.452-7.304-4.585 5.976 2.214-6.088-3.304 5.804 1.414-6.237-2.96 5.96.58-5.3-1.958 4.874.06-5.05-1.694 5.583-.7-4.356-.872 4.455-1.78-3.997-.806 15.566 6.78 1.784" class="B L"/><path d="M552.27 242.2l6.77 10.452-3.414-2.032 2.308 5.015-2.913-3.696 1.44 5.365-2.544-4.368 1.34 6.496-2.607-5.604.614 6.05-1.985-5.762.025 7.052-1.197-6.777-.62 8.038-1.026-7.436-1.1 6.38v-6.66l-1.865 6.118.38-6.628-2.126 4.897.717-5.195-2.458 4.43 1.3-5.687-2.78 3.45 1.45-4.303-3.53 2.613 7.025-13.95 6.8 1.748z" class="C D E K"/><g class="B"><path d="M552.27 242.2l6.77 10.452-3.414-2.032 2.308 5.015-2.913-3.696 1.44 5.365-2.544-4.368 1.34 6.496-2.607-5.604.614 6.05-1.985-5.762.025 7.052-1.197-6.777-.62 8.038-1.026-7.436-1.1 6.38v-6.66l-1.865 6.118.38-6.628-2.126 4.897.717-5.195-2.458 4.43 1.3-5.687-2.78 3.45 1.45-4.303-3.53 2.613 7.025-13.95 6.8 1.748" class="L"/><path d="M548.032 225.996c4.673 0 8.463 3.75 8.463 8.376s-3.8 8.376-8.463 8.376-8.463-3.75-8.463-8.376 3.788-8.376 8.463-8.376" class="I"/></g><path d="M356.53 187.104l-.24 11.08-.627 11.005c-5.624-8.774-12.42-13.156-21.812-15.896-6.64-1.936-5.852-1.75-.053.636 10.48 4.314 17.33 10.17 21.538 20.35-20.533-2.354-36.055 3.89-46.8 18.345 14.586-13.386 30.244-18.403 46.8-16.487-9.885 7.648-18.207 16.38-22.21 28.123 7.035-12.584 15.092-20.45 23.436-26.99l.008-.57.008.57c8.343 6.542 16.4 14.408 23.436 26.99-4.004-11.742-12.326-20.476-22.21-28.123 16.545-1.916 32.204 3.1 46.8 16.487-10.735-14.456-26.257-20.7-46.8-18.345 4.477-10.828 12.78-16.5 24.567-20.832 3.143-1.16 4.628-1.54.305-.484-10.798 2.647-19.106 6.72-25.198 16.224l-.626-11.013-.32-11.074zM331.52 227c-.44 3.77-.386 7.542 1.43 11.315l2.208-2.572c-2.935-1.552-3.327-5.115-3.637-8.743zm4.05-2.636c-.36 3.085-.317 6.172 1.17 9.257l1.806-2.104c-2.4-1.27-2.723-4.185-2.976-7.153zm4.258.353c-.182 1.554-.16 3.11.59 4.66l.9-1.06c-1.21-.64-1.37-2.107-1.5-3.602zm7.944-15.003l-2.65 3.762 1.72.442.93-4.203zm-3.577-1.785l-3.395 4.82 2.205.566 1.19-5.385zm4.072-11.005c-29.515-18.232-39.042-6.172-48.378 3.976 3.403-2.378 6.808-4.533 10.21-5.136-3.794 2.816-6.472 5.634-8.035 8.45 2.735-2.045 5.47-3.26 8.203-2.65-6.187 5.412-8.503 10.823-11.048 16.236 4.123-4.068 8.19-8.22 13.224-10.935-2.566 3.507-4.296 7.152-4.185 11.1 2.68-3.813 5.357-6.85 8.035-9.774-.505 2.54-.84 5.08 0 7.62 1.528-4.065 3.54-7.65 5.524-11.265l-1.34 8.615c2.846-7.404 5.692-9.568 8.538-10.77-2.065 2.457-3.57 5.328-3.85 9.113 1.726-4.922 5.02-7.9 8.537-10.604-1.38 3.59-2.904 7.178-2.01 10.77 1.368-3.48 3.042-6.35 4.855-8.946-.272 2.857-.423 5.477-1.172 9.278l5.2-6.295-2.176 7.455c-29.553 2.477-42.26 18.726-41.013 46.388 1.953-5.993 3.906-10.467 5.86-14.248-1.48 6.253-2.373 12.41-1.172 18.222 1.158-5.44 2.58-10.354 4.185-14.9 1.11 17.23 3.076 25.404 5.524 28.495-.195-8.656.14-16.526.837-23.856 1.208 4.312 2.854 11.09 6.863 12.923-3.834-7.713-2.346-12.553-1.172-17.56.475 3.368 1.925 6.186 5.524 7.788-2.024-4.404-3.558-8.906-3.348-13.75l3.014 6.295c.34-1.7-.9-8.055-2.344-15.075 1.898 4.53 3.796 8.73 5.692 10.602-1.51-4.972-1.063-9.94-.335-14.9 2 3.755 3.91 7.455 5.022 10.77-7.206 16.664-.87 24.393 3.18 33.63-1.06-3.48-1.506-6.957-1.674-10.438l5.2 8.78c-1.007-2.65-1.844-5.3-1.507-7.953 3.683 4.884 7.366 7.852 11.05 10.935-3.34-4.194-5.332-8.248-5.357-12.094 2.017 3.177 4.804 4.703 7.868 5.632-3.35-2.392-6.1-5.323-7.533-9.444 1.806 1.527 4.025 2.336 6.528 2.65-3.242-2.205-6.005-4.726-8.203-7.62l5.524 2.485-7.365-8.45 6.696 4.14c-3.01-2.964-4.775-5.824-5.692-8.615l7.365 4.308c-2.66-2.238-4.61-4.547-5.524-6.957 2.232 1.488 4.464 2.544 6.696 2.65-2.615-1.625-3.67-3.964-4.018-6.626 1.74 2.216 3.764 3.488 6.027 3.976l-3.683-4.308 6.863 2.154c-3.01-2.288-4.128-4.197-5.357-6.13 1.573.745 3.087 1.658 5.022 1.325-2.624-5.566-.05-9.173 2.807-12.672 2.86 3.5 5.433 7.107 2.81 12.672 1.934.333 3.45-.58 5.022-1.325-1.23 1.933-2.347 3.843-5.357 6.13l6.863-2.154-3.683 4.308c2.262-.488 4.287-1.76 6.026-3.976-.346 2.662-1.402 5-4.017 6.626 2.23-.106 4.463-1.162 6.696-2.65-.915 2.4-2.865 4.72-5.524 6.957l7.365-4.308c-.916 2.79-2.683 5.65-5.692 8.615l6.696-4.14-7.365 8.45 5.524-2.485c-2.197 2.896-4.96 5.416-8.202 7.62 2.503-.316 4.722-1.124 6.528-2.65-1.432 4.12-4.182 7.052-7.533 9.444 3.064-.93 5.85-2.455 7.868-5.632-.026 3.846-2.018 7.9-5.357 12.094 3.683-3.084 7.365-6.05 11.048-10.935.338 2.65-.5 5.3-1.506 7.953l5.19-8.78c-.168 3.48-.614 6.96-1.674 10.438 4.05-9.237 10.387-16.966 3.18-33.63 1.113-3.314 3.012-7.013 5.022-10.77.728 4.97 1.177 9.938-.335 14.9 1.896-1.872 3.793-6.07 5.69-10.602-1.453 7.02-2.683 13.375-2.343 15.075l3.013-6.295c.21 4.846-1.324 9.348-3.348 13.75 3.6-1.602 5.05-4.42 5.524-7.788 1.174 5.01 2.662 9.848-1.172 17.56 4-1.833 5.655-8.6 6.863-12.923.697 7.33 1.032 15.2.837 23.856 2.448-3.09 4.415-11.265 5.523-28.495 1.604 4.556 3.028 9.47 4.186 14.9 1.202-5.81.308-11.97-1.172-18.222 1.953 3.78 3.906 8.254 5.86 14.248 1.248-27.662-11.46-43.91-41.013-46.388l-2.176-7.455 5.19 6.295c-.748-3.8-.9-6.42-1.172-9.278 1.813 2.595 3.488 5.468 4.855 8.946.895-3.59-.628-7.18-2.008-10.77 3.518 2.703 6.81 5.682 8.537 10.604-.28-3.785-1.786-6.656-3.85-9.113 2.845 1.2 5.692 3.365 8.537 10.77l-1.34-8.615c1.984 3.614 3.996 7.2 5.525 11.265.84-2.54.504-5.08 0-7.62 2.678 2.925 5.356 5.96 8.035 9.774.1-3.948-1.618-7.593-4.185-11.1 5.034 2.715 9.1 6.867 13.225 10.935-2.544-5.413-4.862-10.825-11.048-16.236 2.733-.608 5.468.606 8.203 2.65-1.562-2.816-4.24-5.634-8.035-8.45 3.403.603 6.806 2.26 10.21 4.64-7.82-9.55-18.46-21.634-48.378-3.48 2.79-2.62 4.52-5.77 5.524-9.278-2.456 2.32-4.91 3.81-7.365 3.48 3.125-1.71 4.408-5.247 4.855-9.6l-4.185 3.645c.837-2.32 1.005-4.64.502-6.957-.555 1.27-1.28 2.54-3.18 3.8.838-3.505.447-6.7-.502-9.774-.055 2.595-1.004 5.19-2.845 7.786l-.762-10.21v-5.528l-.206 2.756-.204-2.756v5.502l-.76 10.237c-1.84-2.595-2.8-5.19-2.845-7.786-.95 3.063-1.34 6.268-.502 9.774-1.9-1.27-2.625-2.54-3.18-3.8-.503 2.32-.335 4.64.502 6.957l-4.185-3.645c.445 4.364 1.73 7.9 4.854 9.6-2.455.33-4.9-1.16-7.365-3.48 1.005 3.508 2.734 6.657 5.524 9.278z" class="C D E O"/><g class="B L"><path d="M356.53 187.104l-.24 11.08-.627 11.005c-5.624-8.774-12.42-13.156-21.812-15.896-6.64-1.936-5.852-1.75-.053.636 10.48 4.314 17.33 10.17 21.538 20.35-20.533-2.354-36.055 3.89-46.8 18.345 14.586-13.386 30.244-18.403 46.8-16.487-9.885 7.648-18.207 16.38-22.21 28.123 7.035-12.584 15.092-20.45 23.436-26.99l.008-.57.008.57c8.343 6.542 16.4 14.408 23.436 26.99-4.004-11.742-12.326-20.476-22.21-28.123 16.545-1.916 32.204 3.1 46.8 16.487-10.735-14.456-26.257-20.7-46.8-18.345 4.477-10.828 12.78-16.5 24.567-20.832 3.143-1.16 4.628-1.54.305-.484-10.798 2.647-19.106 6.72-25.198 16.224l-.626-11.013-.32-11.074zM331.52 227c-.44 3.77-.386 7.542 1.43 11.315l2.208-2.572c-2.935-1.552-3.327-5.115-3.637-8.743zm4.05-2.636c-.36 3.085-.317 6.172 1.17 9.257l1.806-2.104c-2.4-1.27-2.723-4.185-2.976-7.153zm4.258.353c-.182 1.554-.16 3.11.59 4.66l.9-1.06c-1.21-.64-1.37-2.107-1.5-3.602zm7.944-15.003l-2.65 3.762 1.72.442.93-4.203zm-3.577-1.785l-3.395 4.82 2.205.566 1.19-5.385zm4.072-11.005c-29.515-18.232-39.042-6.172-48.378 3.976 3.403-2.378 6.808-4.533 10.21-5.136-3.794 2.816-6.472 5.634-8.035 8.45 2.735-2.045 5.47-3.26 8.203-2.65-6.187 5.412-8.503 10.823-11.048 16.236 4.123-4.068 8.19-8.22 13.224-10.935-2.566 3.507-4.296 7.152-4.185 11.1 2.68-3.813 5.357-6.85 8.035-9.774-.505 2.54-.84 5.08 0 7.62 1.528-4.065 3.54-7.65 5.524-11.265l-1.34 8.615c2.846-7.404 5.692-9.568 8.538-10.77-2.065 2.457-3.57 5.328-3.85 9.113 1.726-4.922 5.02-7.9 8.537-10.604-1.38 3.59-2.904 7.178-2.01 10.77 1.368-3.48 3.042-6.35 4.855-8.946-.272 2.857-.423 5.477-1.172 9.278l5.2-6.295-2.176 7.455c-29.553 2.477-42.26 18.726-41.013 46.388 1.953-5.993 3.906-10.467 5.86-14.248-1.48 6.253-2.373 12.41-1.172 18.222 1.158-5.44 2.58-10.354 4.185-14.9 1.11 17.23 3.076 25.404 5.524 28.495-.195-8.656.14-16.526.837-23.856 1.208 4.312 2.854 11.09 6.863 12.923-3.834-7.713-2.346-12.553-1.172-17.56.475 3.368 1.925 6.186 5.524 7.788-2.024-4.404-3.558-8.906-3.348-13.75l3.014 6.295c.34-1.7-.9-8.055-2.344-15.075 1.898 4.53 3.796 8.73 5.692 10.602-1.51-4.972-1.063-9.94-.335-14.9 2 3.755 3.91 7.455 5.022 10.77-7.206 16.664-.87 24.393 3.18 33.63-1.06-3.48-1.506-6.957-1.674-10.438l5.2 8.78c-1.007-2.65-1.844-5.3-1.507-7.953 3.683 4.884 7.366 7.852 11.05 10.935-3.34-4.194-5.332-8.248-5.357-12.094 2.017 3.177 4.804 4.703 7.868 5.632-3.35-2.392-6.1-5.323-7.533-9.444 1.806 1.527 4.025 2.336 6.528 2.65-3.242-2.205-6.005-4.726-8.203-7.62l5.524 2.485-7.365-8.45 6.696 4.14c-3.01-2.964-4.775-5.824-5.692-8.615l7.365 4.308c-2.66-2.238-4.61-4.547-5.524-6.957 2.232 1.488 4.464 2.544 6.696 2.65-2.615-1.625-3.67-3.964-4.018-6.626 1.74 2.216 3.764 3.488 6.027 3.976l-3.683-4.308 6.863 2.154c-3.01-2.288-4.128-4.197-5.357-6.13 1.573.745 3.087 1.658 5.022 1.325-2.624-5.566-.05-9.173 2.807-12.672 2.86 3.5 5.433 7.107 2.81 12.672 1.934.333 3.45-.58 5.022-1.325-1.23 1.933-2.347 3.843-5.357 6.13l6.863-2.154-3.683 4.308c2.262-.488 4.287-1.76 6.026-3.976-.346 2.662-1.402 5-4.017 6.626 2.23-.106 4.463-1.162 6.696-2.65-.915 2.4-2.865 4.72-5.524 6.957l7.365-4.308c-.916 2.79-2.683 5.65-5.692 8.615l6.696-4.14-7.365 8.45 5.524-2.485c-2.197 2.896-4.96 5.416-8.202 7.62 2.503-.316 4.722-1.124 6.528-2.65-1.432 4.12-4.182 7.052-7.533 9.444 3.064-.93 5.85-2.455 7.868-5.632-.026 3.846-2.018 7.9-5.357 12.094 3.683-3.084 7.365-6.05 11.048-10.935.338 2.65-.5 5.3-1.506 7.953l5.19-8.78c-.168 3.48-.614 6.96-1.674 10.438 4.05-9.237 10.387-16.966 3.18-33.63 1.113-3.314 3.012-7.013 5.022-10.77.728 4.97 1.177 9.938-.335 14.9 1.896-1.872 3.793-6.07 5.69-10.602-1.453 7.02-2.683 13.375-2.343 15.075l3.013-6.295c.21 4.846-1.324 9.348-3.348 13.75 3.6-1.602 5.05-4.42 5.524-7.788 1.174 5.01 2.662 9.848-1.172 17.56 4-1.833 5.655-8.6 6.863-12.923.697 7.33 1.032 15.2.837 23.856 2.448-3.09 4.415-11.265 5.523-28.495 1.604 4.556 3.028 9.47 4.186 14.9 1.202-5.81.308-11.97-1.172-18.222 1.953 3.78 3.906 8.254 5.86 14.248 1.248-27.662-11.46-43.91-41.013-46.388l-2.176-7.455 5.19 6.295c-.748-3.8-.9-6.42-1.172-9.278 1.813 2.595 3.488 5.468 4.855 8.946.895-3.59-.628-7.18-2.008-10.77 3.518 2.703 6.81 5.682 8.537 10.604-.28-3.785-1.786-6.656-3.85-9.113 2.845 1.2 5.692 3.365 8.537 10.77l-1.34-8.615c1.984 3.614 3.996 7.2 5.525 11.265.84-2.54.504-5.08 0-7.62 2.678 2.925 5.356 5.96 8.035 9.774.1-3.948-1.618-7.593-4.185-11.1 5.034 2.715 9.1 6.867 13.225 10.935-2.544-5.413-4.862-10.825-11.048-16.236 2.733-.608 5.468.606 8.203 2.65-1.562-2.816-4.24-5.634-8.035-8.45 3.403.603 6.806 2.26 10.21 4.64-7.82-9.55-18.46-21.634-48.378-3.48 2.79-2.62 4.52-5.77 5.524-9.278-2.456 2.32-4.91 3.81-7.365 3.48 3.125-1.71 4.408-5.247 4.855-9.6l-4.185 3.645c.837-2.32 1.005-4.64.502-6.957-.555 1.27-1.28 2.54-3.18 3.8.838-3.505.447-6.7-.502-9.774-.055 2.595-1.004 5.19-2.845 7.786l-.762-10.21v-5.528l-.206 2.756-.204-2.756v5.502l-.76 10.237c-1.84-2.595-2.8-5.19-2.845-7.786-.95 3.063-1.34 6.268-.502 9.774-1.9-1.27-2.625-2.54-3.18-3.8-.503 2.32-.335 4.64.502 6.957l-4.185-3.645c.445 4.364 1.73 7.9 4.854 9.6-2.455.33-4.9-1.16-7.365-3.48 1.005 3.508 2.734 6.657 5.524 9.278"/><path d="M451.55 383.204c-6.1-5.174-13.348-9.008-20.666-12.204-9.8-4.28-20.197-7.704-30.393-10.98-7.294-2.912-13.293-7.45-17.422-14.132-10.427-16.88-5.824-43.334-2.44-61.766 5.45-25.223 3.7-50.14-6.415-74l-.2-.468.51-.04c51.127-4.046 102.44-2.944 153.558.638l.515.036-.2.47c-12.1 28.708-10.668 57.864-3.842 87.683 3.227 14.86 4.62 32.345-3.608 45.937-8.69 14.356-23.85 17.936-38.608 23.38-10.408 3.838-21.63 8.452-30.318 15.444l-.24.193-.236-.2"/></g><path d="M451.55 383.204c-6.1-5.174-13.348-9.008-20.666-12.204-9.8-4.28-20.197-7.704-30.393-10.98-7.294-2.912-13.293-7.45-17.422-14.132-10.427-16.88-5.824-43.334-2.44-61.766 5.45-25.223 3.7-50.14-6.415-74l-.2-.468.51-.04c51.127-4.046 102.44-2.944 153.558.638l.515.036-.2.47c-12.1 28.708-10.668 57.864-3.842 87.683 3.227 14.86 4.62 32.345-3.608 45.937-8.69 14.356-23.85 17.936-38.608 23.38-10.408 3.838-21.63 8.452-30.318 15.444l-.24.193-.236-.2z" stroke-width=".281" class="C D E"/><g class="B"><path d="M372.024 208.08c.315.935 10.387 39.718 10.387 39.718l138.65-.157 8.498-38.782c-51.724-3.375-104.132-4.05-157.534-.78" fill="#d3d2d2"/><path d="M452.604 389.746c-2.44.92-6.915-1.253-8.153 2.022-.437 1.155-.51 4.837.29 6.498s1.238 3.465 2.84 4.332 2.62 1.082 4.078.65c3.023-.9 7.696-2.203 8.444-5.92.074-.36-.145-5.704-.145-6.28s0-1.805-1.164-2.96-5.023-.938-5.316 0-.8 1.877-.874 1.66" class="G"/></g><path d="M452.604 389.746c-2.44.92-6.915-1.253-8.153 2.022-.437 1.155-.51 4.837.29 6.498s1.238 3.465 2.84 4.332 2.62 1.082 4.078.65c3.023-.9 7.696-2.203 8.444-5.92.074-.36-.145-5.704-.145-6.28s0-1.805-1.164-2.96-5.023-.938-5.316 0-.8 1.877-.874 1.66z" class="C D E F"/><g class="B"><path d="M372.76 380.146c-4.934-8.05-20.825-29.488-29.204-12.074-1.592 3.306-1.36 6.66.27 9.905 4.095 8.144 13.748 2.786 11.488-1.236-5.4 1.237-4.356-8.884 2.326-5.915 4.05 1.8 9.835 5.9 15.12 9.32m80.136 9.672c-2.27-.102-2.54 13.015.218 12.635s1.796-1.685 2.778-1.002c1.065.74 7.608-8.552 3.65-11.673-.938-.74-1.12-1.13-1.482-1.347-1.876-1.116-3.18-.798-4.208.2-.467.457-.53.756-.957 1.178m78.845-9.673c4.934-8.05 20.824-29.488 29.204-12.074 1.592 3.306 1.36 6.66-.272 9.905-4.093 8.144-13.747 2.786-11.488-1.236 5.4 1.237 4.357-8.884-2.326-5.915-4.05 1.8-9.835 5.9-15.12 9.32" class="H"/><path d="M548.54 367.795c-18.9 17.358-37.895 26.46-57.026 24.072l-4.4 6.578c25.03-1.237 48.673-6.423 66.02-29.514l-2.134-1.778c-1.692-1.412-.817-.866-2.46.64" class="M"/></g><g class="C D E F"><path d="M548.54 367.795c-18.9 17.358-37.895 26.46-57.026 24.072l-4.4 6.578c25.03-1.237 48.673-6.423 66.02-29.514l-2.134-1.778c-1.692-1.412-.817-.866-2.46.64z"/><path d="M496.505 392.525l1.02 5.462"/></g><path d="M459.504 391.4c2.938-.94 5.877-2.092 8.817-4.717 2.514-1.858 5.077-3.516 7.615-2.937 5.394 1.23 4.975 6.924 11.134 6.475 3.287-.24 5.033 3.183 2.776 5.74-2.858 2.413-3.617 2.842-2.985 6.53.355 2.068.916 4.286 1.08 4.396 1.807 5.547-3.878 8.136-9.753 7.83-2.1-.11-4.115-1.048-6.053-2.564-4.178-4-8.303-8.04-13.345-11.398 1.073-1.835 1.55-4.586.715-9.355" class="B G"/><path d="M459.504 391.4c2.938-.94 5.877-2.092 8.817-4.717 2.514-1.858 5.077-3.516 7.615-2.937 5.394 1.23 4.975 6.924 11.134 6.475 3.287-.24 5.033 3.183 2.776 5.74-2.858 2.413-3.617 2.842-2.985 6.53.355 2.068.916 4.286 1.08 4.396 1.807 5.547-3.878 8.136-9.753 7.83-2.1-.11-4.115-1.048-6.053-2.564-4.178-4-8.303-8.04-13.345-11.398 1.073-1.835 1.55-4.586.715-9.355z" class="C D E F"/><g class="B"><path d="M481.337 413.6c.838-1.042 1.307-2.353 1.468-3.89s.014-3.303-.385-5.25c-1.328-2.806-1.07-6.86-1.16-10.88-.04-3.314-5.243-5.074-8.758-4.037-3.105.916-5.812 4.897-9.536 6.4-.985.397-1.92.7-2.657.858.085-1.333-.013-2.943-.352-4.92l.072-.223c2.825-.9 5.65-2.008 8.476-4.5 2.448-1.785 4.942-3.38 7.412-2.823 5.25 1.182 4.84 6.655 10.836 6.224 3.2-.23 4.9 3.06 2.703 5.515-2.783 2.32-3.52 2.732-2.905 6.277.346 1.988.89 4.12 1.05 4.225 1.4 4.244-1.82 6.685-6.076 7.357-.123-.207-.187-.33-.187-.33" class="H"/><path d="M439.922 226.986c-1.884 3.462-12.616 1.94-10.033-3.29-3.455-2.784-3.366-5.13.266-7.035-1.362-4.12.808-4.866 4.585-4.077 2.48-2.738 4.96-2.76 7.44-.065 2.176.24 3.27 1.908 2.79 5.656l-2.723 5.457s-2.326 3.485-2.326 3.354" fill="#fff"/></g><path d="M439.922 226.986c-1.884 3.462-12.616 1.94-10.033-3.29-3.455-2.784-3.366-5.13.266-7.035-1.362-4.12.808-4.866 4.585-4.077 2.48-2.738 4.96-2.76 7.44-.065 2.176.24 3.27 1.908 2.79 5.656l-2.723 5.457s-2.326 3.485-2.326 3.354z" class="C D E F"/><path d="M550.427 381.574C530.563 397.02 507.06 398.978 488.642 398c-2.687 1.835-1.49 3.254-1.235 5.285 24.462-2.67 49.637.864 67.615-20.575l-2.134-1.78c-1.692-1.41-.7-.727-2.46.64" class="B M"/><path d="M550.427 381.574C530.563 397.02 507.06 398.978 488.642 398c-2.687 1.835-1.49 3.254-1.235 5.285 24.462-2.67 49.637.864 67.615-20.575l-2.134-1.78c-1.692-1.41-.7-.727-2.46.64z" class="C D E F"/><path d="M459.827 397.953c2.9.307 5.78-.52 8.67-2.48 6.16-2.907 9.456-2.127 9.887 2.34.196 4.22-.377 7.796-5.687 6.432-2.956-.76-4.937-2.714-7.61-4.162-2.574-1.395-5.247-2.615-5.258-2.128" class="B M"/><path d="M459.827 397.953c2.9.307 5.78-.52 8.67-2.48 6.16-2.907 9.456-2.127 9.887 2.34.196 4.22-.377 7.796-5.687 6.432-2.956-.76-4.937-2.714-7.61-4.162-2.574-1.395-5.247-2.615-5.258-2.128z" class="C D E F"/><path d="M463.04 398.756c.75.35 14.985 2.348 14.985 2.348-.094-1.5.81-.824-.038-3.694-.57.09-15.348 1.903-14.948 1.345" class="B G"/><path d="M463.04 398.756c.75.35 14.985 2.348 14.985 2.348-.094-1.5.81-.824-.038-3.694-.57.09-15.348 1.903-14.948 1.345z" class="C D E F"/><path d="M463.17 398.5c.822.116 14.907-1.4 14.907-1.4-.137-2.637-.957-2.512-3.282-2.978-.728-1.077-11.945 4.38-11.624 4.38" class="B H"/><path d="M463.17 398.5c.822.116 14.907-1.4 14.907-1.4-.137-2.637-.957-2.512-3.282-2.978-.728-1.077-11.945 4.38-11.624 4.38z" class="C D E F"/><g class="B H"><path d="M493.777 385.982c22.976-24.56-20.394-14.347-8.477-4.742-.12-8.088 17.45-10.48 8.477 4.742m13.76-16.78l-4.915 8.997-1.106-.85 6.02-8.146m-37.655 11.927l-8.34 6.04-.63-1.24 8.97-4.803m58.33-8.642l-6.775 12.402-1.524-1.173 8.3-11.23m-1.5 47.12l-22.506-10.474 2.252-.653 20.254 11.127m-4.873 4.395l-12.413-9.135 1.453-.123 10.96 9.258m-2.13-11.996l8.97 3.16-9.092-.973.123-2.2m-7.617-3.16c.737 0 22.605 1.58 22.605 1.58l-21.745.122-.86-1.703"/><path d="M527.073 407.503c.86-.73 9.706-2.675 9.706-2.675l-7.495 4.134-2.2-1.46m-8.97-1.58l16.954-3.77-15.358 5.35-1.596-1.58m-23.714 0c31.985 12.604 7.126 26.466-2.703 8.4 19.028 10.684 17.47.397 2.703-8.4m38.943-37.328l-4.646 12.402-1.725-1.174 6.372-11.23m-55.096 34.466c3.617 9.804-11.503 1.704-16.26-3.9 2.282.863 4.554 2.072 8.38 4.466 4.13 2.826 6.533 1.038 7.88-.567"/></g><path d="M539.662 375.243l3.592 4.267m-15.27 4l3.594 4.267" class="C D E F"/><path d="M539.044 367.964c1.563-8.828 3.554-8.047 5.974-1.197-.512-2.888-1.243-5.09-2.195-6.765-1.504-2.646-1.717-1.226-2.67 1.42-1.017 2.825-2.076 6.455-1.108 6.542" class="B I"/><path d="M514.348 389.528l1.942 5.2m24.9-6.96l3.592 4.267m-14.955 1.295l1.884 5.233m-16.115-2.133l.7 5.5m-19.13-3.883l-.094 5.554" class="C D E F"/><path d="M381.765 248.2c46.268-4.572 92.54-4.382 138.808-.672-1.178 15.454 1.743 32.83 4.462 46.836 2.58 13.288-.624-7.805 2.816 20.886-49.243-6.373-100.282-5.34-152.382.072-.1-11.497 8.86-55.637 6.295-67.12" fill="#2498dc" class="B"/><path d="M381.765 248.2c46.268-4.572 92.54-4.382 138.808-.672-1.178 15.454 1.743 32.83 4.462 46.836 2.58 13.288-.624-7.805 2.816 20.886-49.243-6.373-100.282-5.34-152.382.072-.1-11.497 8.86-55.637 6.295-67.12z" class="C D E O"/><path d="M460.23 226.986c1.884 3.462 12.614 1.94 10.033-3.29 3.454-2.784 3.366-5.13-.266-7.035 1.36-4.12-.808-4.866-4.585-4.077-2.48-2.738-4.96-2.76-7.442-.065-2.175.24-3.27 1.908-2.79 5.656l2.725 5.457s2.326 3.485 2.326 3.354" fill="#fff" class="B"/><path d="M460.23 226.986c1.884 3.462 12.614 1.94 10.033-3.29 3.454-2.784 3.366-5.13-.266-7.035 1.36-4.12-.808-4.866-4.585-4.077-2.48-2.738-4.96-2.76-7.442-.065-2.175.24-3.27 1.908-2.79 5.656l2.725 5.457s2.326 3.485 2.326 3.354z" class="C D E F"/><path d="M452.994 256.777c-18.785 7.917-30.9 24.03-21.656 50.728 8.823-4.814 18.562-11.86 31.072-11.486-16.887-11.598-15.383-25.178-9.417-39.242" class="B N"/><path d="M452.994 256.777c-18.785 7.917-30.9 24.03-21.656 50.728 8.823-4.814 18.562-11.86 31.072-11.486-16.887-11.598-15.383-25.178-9.417-39.242z" class="C D E J P"/><path d="M355.96 367.795c18.9 17.358 37.896 26.46 57.025 24.072l4.4 6.578c-25.03-1.237-48.672-6.423-66.02-29.514l2.134-1.778c1.693-1.412.818-.866 2.46.64" class="B M"/><g class="C D E F"><path d="M355.96 367.795c18.9 17.358 37.896 26.46 57.025 24.072l4.4 6.578c-25.03-1.237-48.672-6.423-66.02-29.514l2.134-1.778c1.693-1.412.818-.866 2.46.64z"/><path d="M407.996 392.525l-1.023 5.462"/></g><path d="M444.997 391.4c-2.94-.94-5.878-2.092-8.817-4.717-2.516-1.858-5.078-3.516-7.615-2.937-5.394 1.23-4.976 6.924-11.136 6.475-3.287-.24-5.03 3.183-2.776 5.74 2.86 2.413 3.617 2.842 2.985 6.53-.354 2.068-.916 4.286-1.08 4.396-1.807 5.547 3.878 8.136 9.755 7.83 2.098-.11 4.114-1.048 6.053-2.564 4.178-4 8.303-8.04 13.345-11.398-1.073-1.835-1.55-4.586-.715-9.355" class="B G"/><path d="M444.997 391.4c-2.94-.94-5.878-2.092-8.817-4.717-2.516-1.858-5.078-3.516-7.615-2.937-5.394 1.23-4.976 6.924-11.136 6.475-3.287-.24-5.03 3.183-2.776 5.74 2.86 2.413 3.617 2.842 2.985 6.53-.354 2.068-.916 4.286-1.08 4.396-1.807 5.547 3.878 8.136 9.755 7.83 2.098-.11 4.114-1.048 6.053-2.564 4.178-4 8.303-8.04 13.345-11.398-1.073-1.835-1.55-4.586-.715-9.355z" class="C D E F"/><g class="B"><path d="M423.163 413.6c-.836-1.04-1.307-2.353-1.468-3.9s-.014-3.303.387-5.252c1.326-2.806 1.07-6.86 1.16-10.88.04-3.314 5.242-5.074 8.758-4.037 3.105.916 5.812 4.896 9.536 6.4.984.397 1.92.71 2.657.858-.086-1.332.01-2.943.35-4.92l-.072-.223c-2.825-.9-5.65-2.008-8.474-4.5-2.448-1.785-4.942-3.38-7.412-2.823-5.25 1.182-4.843 6.655-10.837 6.224-3.2-.23-4.898 3.06-2.703 5.514 2.783 2.32 3.52 2.732 2.907 6.278-.346 1.988-.892 4.12-1.05 4.224-1.4 4.244 1.82 6.686 6.075 7.358.123-.207.187-.33.187-.33" class="H"/><path d="M418.314 389.918c-7.093.548-11.62-1.067-18.843-10.276-5.883-7.5-7.593-15.343-16.448-20.323-9.136-5.138-20.334-5.602-29.08-3.95-12.94 2.443-23.32 13.15-22.418 26.694 1.04 15.635 20.205 25.184 38.024 17.25-4.354-.447-9.748-5.55-15.23-11.02-11.747 2.208-23.322-17.767-7.878-27.133 9.274-4.122 17.654-5.016 24.634-.618 4.538 2.86 5.45 6.04 7.975 10.425 7.59 13.182 15.998 23.776 34.433 23.95-1.507-2.495-.165-4.072 2.81-4.626 1.54-.105.48-.27 2.02-.374" class="G"/></g><path d="M418.314 389.918c-7.093.548-11.62-1.067-18.843-10.276-5.883-7.5-7.593-15.343-16.448-20.323-9.136-5.138-20.334-5.602-29.08-3.95-12.94 2.443-23.32 13.15-22.418 26.694 1.04 15.635 20.205 25.184 38.024 17.25-4.354-.447-9.748-5.55-15.23-11.02-11.747 2.208-23.322-17.767-7.878-27.133 9.274-4.122 17.654-5.016 24.634-.618 4.538 2.86 5.45 6.04 7.975 10.425 7.59 13.182 15.998 23.776 34.433 23.95-1.507-2.495-.165-4.072 2.81-4.626 1.54-.105.48-.27 2.02-.374z" class="C D E F J"/><g class="B"><path d="M363.537 396.57c-7.793 1.17-15.156 1.105-20.888-3.916-10.493-9.194-10.57-24.775 1.936-32.402 5.085-3.1 11.914-4.474 20.18-4.428 2.535.072 4.96.3 7.346.684a55.82 55.82 0 0 1 5.426 1.157c5.58 1.477 9.57 4.427 12.87 9.23 2.866 4.175 4.858 8.87 8.708 13.073 8.107 8.85 11.083 10.35 17.128 10.085-1.54.104.517-.012-1.024.092-1.827.71-2.62 2.07-2.32 3.76-23.282-.525-24.16-32.935-46.066-35.345-6.042-1.94-12.926-.715-20.4 2.602-15.444 9.366-3.87 29.34 7.878 27.133 3.163 3.155 6.3 6.187 9.22 8.275" class="H"/><path d="M354.073 381.574c19.864 15.446 43.37 17.404 61.785 16.427 2.687 1.835 1.49 3.254 1.235 5.285-24.462-2.67-49.637.864-67.614-20.575l2.134-1.78c1.693-1.41.7-.727 2.46.64" class="M"/></g><path d="M354.073 381.574c19.864 15.446 43.37 17.404 61.785 16.427 2.687 1.835 1.49 3.254 1.235 5.285-24.462-2.67-49.637.864-67.614-20.575l2.134-1.78c1.693-1.41.7-.727 2.46.64z" class="C D E F"/><path d="M444.672 397.953c-2.9.307-5.778-.52-8.667-2.48-6.16-2.907-9.456-2.127-9.887 2.34-.196 4.22.376 7.796 5.685 6.432 2.957-.76 4.94-2.714 7.61-4.162 2.574-1.395 5.247-2.615 5.258-2.128" class="B M"/><path d="M444.672 397.953c-2.9.307-5.778-.52-8.667-2.48-6.16-2.907-9.456-2.127-9.887 2.34-.196 4.22.376 7.796 5.685 6.432 2.957-.76 4.94-2.714 7.61-4.162 2.574-1.395 5.247-2.615 5.258-2.128z" class="C D E F"/><path d="M441.33 398.5c-.82.116-14.8 1.32-14.8 1.32.137-2.637.852-5.234 3.177-5.7.726-1.077 11.943 4.38 11.623 4.38" class="B G"/><path d="M441.33 398.5c-.82.116-14.8 1.32-14.8 1.32.137-2.637.852-5.234 3.177-5.7.726-1.077 11.943 4.38 11.623 4.38z" class="C D E F"/><g class="B"><path d="M449.86 385.156c-5.9-5.004-12.948-8.713-20.023-11.805-9.718-4.245-20.033-7.636-30.13-10.88l-.098-.032-.095-.038c-7.813-3.12-14.24-8.017-18.66-15.172-10.875-17.603-6.3-44.337-2.78-63.56l.01-.045.01-.044c5.34-24.712 3.65-49.087-6.27-72.454l-1.59-3.745 4.1-.323c51.258-4.057 102.7-2.955 153.948.634l4.123.29-1.592 3.774c-11.892 28.193-10.407 56.855-3.7 86.145 3.38 15.563 4.69 33.588-3.917 47.804-9.12 15.07-24.45 18.76-39.93 24.47-10.1 3.728-21.145 8.236-29.586 15.03l-1.923 1.548-1.882-1.597zM374.557 210c9.627 22.678 12.255 47.28 6.436 74.206-5.626 30.635-9.648 63.794 19.63 75.48 23.948 7.696 40.092 13.853 51.167 23.25 7.38-5.94 16.888-10.512 30.425-15.503 14.542-5.363 29.775-8.943 38.418-23.225 7.263-11.996 7.456-27.75 3.564-45.67-8.267-36.1-6.505-63.322 3.862-87.902-50.792-3.556-101.853-4.724-153.502-.636" class="I"/><path d="M410.723 385.982c-22.975-24.56 20.394-14.347 8.477-4.742.12-8.088-17.448-10.48-8.477 4.742m-13.76-16.78l4.914 8.997 1.106-.85-6.02-8.146m37.657 11.927l8.34 6.04.63-1.24-8.97-4.803m-58.33-8.642l6.774 12.402 1.524-1.173-8.298-11.23m1.507 47.12l22.506-10.475-2.253-.654-20.253 11.13M382.67 424l12.412-9.136-1.453-.122L382.67 424m2.13-11.998l-8.97 3.16 9.1-.973-.123-2.2m7.62-3.16c-.737 0-22.606 1.58-22.606 1.58l21.746.122.86-1.703m-14.99-1.336c-.86-.73-9.706-2.675-9.706-2.675l7.494 4.134 2.212-1.46m8.97-1.58l-16.955-3.77 15.358 5.35 1.597-1.58m23.71 0c-31.984 12.604-7.126 26.466 2.703 8.4-19.027 10.684-17.47.397-2.703-8.4" class="H"/><path d="M454.365 253.34c-19.545 10.498-32.015 24.825-19.214 52.83 9.063-6.12 19.9-10.37 33.505-11.24-19.516-10.854-19.3-25.733-14.29-41.6" fill="#fff"/></g><path d="M454.365 253.34c-19.545 10.498-32.015 24.825-19.214 52.83 9.063-6.12 19.9-10.37 33.505-11.24-19.516-10.854-19.3-25.733-14.29-41.6z" class="C D E J P"/><g class="B"><path d="M371.168 368.594l4.646 12.402 1.725-1.174-6.372-11.23" class="H"/><path d="M350.363 259.408c-.223 32.6-1.352 64.755-2.557 96.87 7.326.305 14.043 1.915 18.444 8.495l-6.39-105.91c-2.35 3.308-5.697 2.793-9.496.543" class="N"/></g><path d="M350.363 259.408c-.223 32.6-1.352 64.755-2.557 96.87 7.326.305 14.043 1.915 18.444 8.495l-6.39-105.91c-2.35 3.308-5.697 2.793-9.496.543z" class="C D E K"/><path d="M350.136 289.676c-.023.74 7.788 2.284 8.15 1.748-2.785.667-5.57.97-8.354.74l.204-2.487m0 6.686c-.023.74 7.788 2.284 8.15 1.748-2.785.667-5.57.97-8.354.74l.204-2.487m-.332 18.976c-.026.863 9.084 2.665 9.506 2.04-3.248.778-6.496 1.13-9.744.863l.238-2.902m-.73 26.204c-.026.863 9.083 2.665 9.506 2.04-3.248.778-6.496 1.13-9.744.863l.238-2.902m13.956-19.02c.033 1.084-11.406 3.348-11.937 2.56 4.08.977 8.158 1.42 12.236 1.084l-.3-3.644m1.204 21.097c.04 1.358-14.3 4.196-14.966 3.208 5.113 1.225 10.227 1.78 15.34 1.358l-.374-4.566m-2.48-46.58c.033 1.084-11.406 3.347-11.938 2.56 4.08.977 8.158 1.42 12.236 1.084l-.298-3.644m-.872-13.774c.028.938-9.874 2.897-10.334 2.216 3.53.846 7.062 1.23 10.592.938l-.258-3.154m-.675-7.596c.022.73-7.698 2.258-8.056 1.726 2.753.66 5.506.958 8.257.73l-.2-2.457m-.183-9.758c.023.73-7.697 2.258-8.056 1.728 2.753.66 5.506.956 8.258.73l-.202-2.46m-9.887 11.654c-.023.74 7.788 2.286 8.15 1.748-2.785.667-5.57.97-8.354.74l.204-2.488m.912-9.76c-.022.74 7.788 2.284 8.15 1.748-2.785.667-5.57.97-8.355.74l.204-2.488m9.573 11.303c.017.555-5.85 1.715-6.122 1.312 2.092.5 4.184.728 6.275.555l-.153-1.868m0-9.58c.017.555-5.85 1.717-6.122 1.312 2.092.5 4.184.728 6.275.555l-.153-1.868" class="B I"/><path d="M426.26 403.058c-3.617 9.804 11.503 1.704 16.26-3.9-2.282.863-4.552 2.072-8.38 4.466-4.13 2.826-6.533 1.038-7.88-.567" class="B H"/><path d="M364.838 375.243l-3.593 4.267m15.27 4l-3.593 4.267m17.23 1.75l-1.943 5.2m-24.9-6.96l-3.593 4.267m14.956 1.295l-1.883 5.233m16.115-2.133l-.702 5.5m19.132-3.883l.094 5.554" class="C D E F"/><g class="B"><g fill="#99d420"><path d="M448.175 338.85c3.366-3.774 7.662-6.303 16.442-2.83 4.45 1.342 8.78 2.2 12.272-.235-1.948 1.832-2.033 4.67-11.437 2.476-7.1-2.645-12.405-1.5-17.276.6m43.13-12.618c3.366-3.776 7.662-6.303 16.442-2.83 4.45 1.342 8.78 2.2 12.272-.236-1.948 1.832-2.033 4.67-11.437 2.477-7.1-2.645-12.405-1.5-17.276.6m-92.806 17.37c2.776-3.113 6.316-5.2 13.556-2.333 3.67 1.106 7.237 1.823 10.122-.194-1.6 1.508-1.678 3.85-9.436 2.04-5.853-2.182-10.226-1.227-14.242.487m85.775-3.53c4.6 4.398 9.104 4.342 13.493-.162-4.92 2.718-5.9 3.1-13.493.162m-24.067 10.965c4.6 4.398 9.106 4.343 13.493-.162-4.92 2.718-5.9 3.1-13.493.162m-23.592 11.792c4.6 4.398 9.106 4.343 13.493-.162-4.92 2.72-5.9 3.102-13.493.162m-28.594-11.792c4.607 4.398 9.106 4.343 13.493-.162-4.92 2.718-5.9 3.1-13.493.162m-17.752-7.546c4.608 4.397 9.104 4.342 13.492-.162-4.92 2.718-5.9 3.1-13.492.162"/><path d="M408.617 330.23c6.4 6.097 12.624 6.02 18.706-.224-6.823 3.77-8.18 4.3-18.706.224m26.927 8.608c6.4 6.097 12.624 6.02 18.706-.225-6.823 3.77-8.18 4.3-18.706.225m33.48 13.082c2.293-2.568 5.215-4.3 11.2-1.926 3.026.912 5.973 1.505 8.35-.16-1.328 1.248-1.384 3.178-7.786 1.685-4.83-1.8-8.44-1.013-11.756.402M493.807 340c2.293-2.567 5.215-4.3 11.2-1.925 3.028.9 5.974 1.504 8.353-.162-1.328 1.25-1.384 3.18-7.786 1.686-4.83-1.8-8.44-1.012-11.756.4m-50.162 22.994c2.3-2.568 5.215-4.3 11.2-1.925 3.028.912 5.974 1.505 8.353-.16-1.328 1.248-1.384 3.178-7.786 1.684-4.83-1.798-8.44-1.013-11.756.402M416.243 351.2c2.3-2.568 5.215-4.3 11.2-1.926 3.026.913 5.973 1.505 8.35-.16-1.326 1.247-1.384 3.178-7.784 1.684-4.83-1.8-8.44-1.013-11.756.402m-21.327-27.7c3.366-3.774 7.662-6.303 16.44-2.83 4.45 1.342 8.78 2.2 12.273-.236-1.948 1.832-2.035 4.67-11.44 2.477-7.1-2.647-12.405-1.5-17.276.588m25.977 7.548c3.367-3.776 7.663-6.304 16.444-2.83 4.45 1.342 8.78 2.2 12.272-.236-1.948 1.832-2.033 4.67-11.44 2.476-7.1-2.644-12.405-1.488-17.276.6m37.65-8.727c3.366-3.774 7.662-6.303 16.442-2.83 4.448 1.344 8.78 2.2 12.272-.235-1.948 1.832-2.033 4.67-11.437 2.476-7.1-2.645-12.407-1.488-17.276.6m-12.987-.707c6.672 6.366 13.185 6.287 19.54-.236-7.127 3.937-8.545 4.5-19.54.236m33.36 3.536c6.672 6.368 13.186 6.3 19.54-.235-7.13 3.937-8.545 4.5-19.54.235m-97.342-1.662c6.388 6.1 12.623 6.02 18.706-.224-6.824 3.77-8.18 4.3-18.706.224"/></g><path d="M459.194 174.04l17.144 1.726-12.844 11.37 3.638 16.67-14.894-8.578-14.896 8.576 3.64-16.67-12.845-11.37 17.144-1.726 6.958-15.604 6.956 15.604" class="I"/><path d="M452.238 162.988l5.694 12.773 14.033 1.414-10.514 9.306 2.98 13.647-12.193-7.02-12.193 7.02 2.978-13.647-10.514-9.306 14.033-1.414 5.696-12.773" fill="#fff"/><path d="M401.102 227.02l6.317 5.407-2.988-10.223-3.33 4.816" class="H"/></g><path d="M401.102 227.02l6.317 5.407-2.988-10.223-3.33 4.816zm-3.732-9.22c-1.833-1.085-.967-4.42.147-5.258 1.443-1.082 2.155 1.508 1.543 2.606 0 0 2.486-3.87 3.494-2.86a2.14 2.14 0 0 1 .612 1.168c.233 1.25-.04 6.346-2.485 4.7l-3.3-.344z" class="C D E F"/><path d="M397.37 217.8c-1.833-1.085-.967-4.42.147-5.258 1.443-1.082 2.155 1.508 1.543 2.606 0 0 2.486-3.87 3.494-2.86.377.376.54.78.612 1.168.233 1.25-.04 6.346-2.485 4.69l-3.31-.344" class="B G"/><path d="M407.976 213.34c1.813.7.394 3.348-.944 3.004 0 0 2.987 1.08 2.14 2.337s-3.054 1.59-3.308.855c-.048-.138-2.696-1.482-3.5-1.294-2.572.606.404-6.912 5.603-4.903z" class="C D E F"/><path d="M407.976 213.34c1.813.7.394 3.348-.944 3.004 0 0 2.987 1.08 2.14 2.337s-3.054 1.59-3.308.855c-.048-.138-2.696-1.482-3.5-1.294-2.572.606.404-6.912 5.603-4.903" class="B G"/><path d="M396.504 221.79c-2.25-.425-4.778 3.077-4.537 4.55.312 1.905 3.042 1.92 3.4.592 0 0-.498 3.115 1.047 3.015s2.926-1.833 2.393-2.42c-.1-.112-1.634-3.79-1.346-4.55 0 0-.773-1.154-.948-1.188z" class="C D E F"/><path d="M396.504 221.79c-2.25-.425-4.778 3.077-4.537 4.55.312 1.905 3.042 1.92 3.4.592 0 0-.498 3.115 1.047 3.015s2.926-1.833 2.393-2.42c-.1-.112-1.634-3.79-1.346-4.55 0 0-.773-1.154-.948-1.188" class="B G"/><path d="M396.746 217.84c-.163-1.72-3.008-2.347-4.044-1.86-1.345.628.365 2.11 1.422 2.08 0 0-3.837.337-3.436 1.437s1.492 1.163 1.852 1.648c.39.526 3.526.795 3.272-.8l.934-2.505z" class="C D E F"/><path d="M396.746 217.84c-.163-1.72-3.008-2.347-4.044-1.86-1.345.628.365 2.11 1.422 2.08 0 0-3.837.337-3.436 1.437s1.492 1.163 1.852 1.648c.39.526 3.526.795 3.272-.8l.934-2.505" class="B G"/><path d="M398.654 217.55c1.4 0 2.537 1.16 2.537 2.59s-1.136 2.59-2.537 2.59-2.537-1.16-2.537-2.59 1.136-2.59 2.537-2.59z" class="C D E F"/><path d="M398.654 217.55c1.4 0 2.537 1.16 2.537 2.59s-1.136 2.59-2.537 2.59-2.537-1.16-2.537-2.59 1.136-2.59 2.537-2.59" class="B G"/><path d="M400.255 228.058c1.782.647 3.798-1.678 3.18-4.09 5.352 3.686 5.38-7.024-2.137-5.2.54 1.984-.783 4.533-3.098 4.608-.703 1.312.452 4.1 2.056 4.684z" class="C D E F"/><g class="B"><path d="M400.255 228.058c1.782.647 3.798-1.678 3.18-4.09 5.352 3.686 5.38-7.024-2.137-5.2.54 1.984-.783 4.533-3.098 4.608-.703 1.312.452 4.1 2.056 4.684" class="G"/><path d="M411.175 233.188c-2.013-2.21-2-6.293-.597-11.66 1.024 1.183 2.05 1.916 3.073 2.197 0 0 5.122-3.38 5.036-2.704.256.676 0 7.435-.34 7.435l2.646.76c.374 1.358-9.252 5.094-9.817 3.972" class="H"/></g><g class="C D E F"><path d="M411.175 233.188c-2.013-2.21-2-6.293-.597-11.66 1.024 1.183 2.05 1.916 3.073 2.197 0 0 5.122-3.38 5.036-2.704.256.676 0 7.435-.34 7.435l2.646.76c.374 1.358-9.252 5.094-9.817 3.972z"/><path d="M408.444 236.737l7.428-11.406m-2.726 3.52l-1.03-3.65"/></g><path d="M408.538 236.785c-.927-2.83-4.508-4.86-9.903-6.342.523 1.47.652 2.714.386 3.732 0 0-5.52 2.7-4.885 2.966.464.557 6.507 3.717 6.677 3.424l-.657 2.648c1 .998 9.084-5.384 8.383-6.43" class="B H"/><g class="C D E F"><path d="M408.538 236.785c-.927-2.83-4.508-4.86-9.903-6.342.523 1.47.652 2.714.386 3.732 0 0-5.52 2.7-4.885 2.966.464.557 6.507 3.717 6.677 3.424l-.657 2.648c1 .998 9.084-5.384 8.383-6.43z"/><path d="M399.158 236.916l9.18.064m-6.375-.95l-.86-3.396m6.317-1.22c.426.844 1.708 3.972 4.012 5.407s5.038.337 5.72 1.858l.768 1.944"/></g><path d="M449.268 230.34c1.41-4.194-10.048-4.77-11.494-1.513 1.23-1.62.388-2.52-1.395-3.1 6.36-1.395 3.116-5.3-.665-9.337.706-.316 3.52-.633 4.228.484 3.578 5.657 5.31 3.644 4.543-3.77 4.752 6.007 5.3 3.236 5.248-.8 1.77 3.728 3.543 3.77 5.316.132-.02 4.813-.245 10.31 3 4.208-.3 4.814 1.648 6.21 6.3 3.485-1.96 2.718-1.384 4.998 1.33 5.984-.398.13-8.77 1.38-10.033 2.104s-2.723.92-3.52 1.578-3.056.526-2.857.526" class="B H"/><path d="M449.268 230.34c1.41-4.194-10.048-4.77-11.494-1.513 1.23-1.62.388-2.52-1.395-3.1 6.36-1.395 3.116-5.3-.665-9.337.706-.316 3.52-.633 4.228.484 3.578 5.657 5.31 3.644 4.543-3.77 4.752 6.007 5.3 3.236 5.248-.8 1.77 3.728 3.543 3.77 5.316.132-.02 4.813-.245 10.31 3 4.208-.3 4.814 1.648 6.21 6.3 3.485-1.96 2.718-1.384 4.998 1.33 5.984-.398.13-8.77 1.38-10.033 2.104s-2.723.92-3.52 1.578-3.056.526-2.857.526z" class="C D E F J"/><path d="M449.268 230.733c-1.345-1.874-5.83-3.6-10.562-.008-3.3 2.497-3.246.093-5.383.6 1.705 3.88 1.02 6.618-2.06 8.22 2.68 1.535 5.627 1.14 8.837-1.183-.178 1.578-.443 2.718-.797 3.42 3.198-1.132 6.62-5.976 9.833-8.22 0 0 1.395.197 1.328-.46s-1.196-2.368-1.196-2.368" class="B H"/><path d="M449.268 230.733c-1.345-1.874-5.83-3.6-10.562-.008-3.3 2.497-3.246.093-5.383.6 1.705 3.88 1.02 6.618-2.06 8.22 2.68 1.535 5.627 1.14 8.837-1.183-.178 1.578-.443 2.718-.797 3.42 3.198-1.132 6.62-5.976 9.833-8.22 0 0 1.395.197 1.328-.46s-1.196-2.368-1.196-2.368z" class="C D E F J"/><path d="M452.524 231.85c-1.746 2.58 7.682 10.963 9.965 9.338l.068-2.17c4.147.8 6.926-.044 8.77-2.04-2.198-2.065-4.712-3.194-7.44-3.68.685-.768.84-.745 1.527-1.513-.17-1.838-13.207-2.216-12.89.065" class="B H"/><g class="C D E F"><path d="M452.524 231.85c-1.746 2.58 7.682 10.963 9.965 9.338l.068-2.17c4.147.8 6.926-.044 8.77-2.04-2.198-2.065-4.712-3.194-7.44-3.68.685-.768.84-.745 1.527-1.513-.17-1.838-13.207-2.216-12.89.065z" class="J"/><path d="M448.737 234.022c-1.262-.395-5.647-2.63-6.777-1.25s-.797 2.434-3.122 3.485l-2.725 1.118m18.47-4.67c1.595 1.84 3.056 2.96 3.52 3.55"/><path d="M454.85 233.1c.597.197 2.258-.855 4.252.92s2.126 1.972 3.986 2.3 3.4.197 3.72.33m-16.743-8.02c-.132-.395-.73-3.88-2.192-5.13s-2.657-1.84-2.058-2.63m5.248-2.236c.066.8 1.196 2.762.4 4.998s-1.33 3.025-.732 4.273.6 1.446.6 1.446m3.85-8.678s.998 1.513-.464 3.287-2.525 1.973-2.924 3.485-.465 2.302-.465 2.302"/></g><path d="M501.146 227.02l-6.317 5.407 2.99-10.223 3.328 4.816" class="B H"/><path d="M501.146 227.02l-6.317 5.407 3-10.223 3.328 4.816zm3.732-9.22c1.834-1.085.968-4.42-.148-5.258-1.442-1.082-2.154 1.508-1.54 2.606 0 0-2.487-3.87-3.495-2.86a2.15 2.15 0 0 0-.613 1.168c-.233 1.25.042 6.346 2.486 4.7l3.3-.344z" class="C D E F"/><path d="M504.878 217.8c1.834-1.085.968-4.42-.148-5.258-1.442-1.082-2.154 1.508-1.54 2.606 0 0-2.487-3.87-3.495-2.86-.377.376-.54.78-.613 1.168-.233 1.25.042 6.346 2.486 4.69l3.31-.344" class="B G"/><path d="M494.272 213.34c-1.812.7-.393 3.348.946 3.004 0 0-2.987 1.08-2.14 2.337s3.053 1.59 3.308.855c.05-.138 2.696-1.482 3.49-1.294 2.572.606-.404-6.912-5.605-4.903z" class="C D E F"/><path d="M494.272 213.34c-1.812.7-.393 3.348.946 3.004 0 0-2.987 1.08-2.14 2.337s3.053 1.59 3.308.855c.05-.138 2.696-1.482 3.49-1.294 2.572.606-.404-6.912-5.605-4.903" class="B G"/><path d="M505.745 221.79c2.25-.425 4.777 3.077 4.536 4.55-.313 1.905-3.042 1.92-3.39.592 0 0 .498 3.115-1.046 3.015s-2.927-1.833-2.393-2.42c.1-.112 1.634-3.79 1.345-4.55 0 0 .773-1.154.95-1.188z" class="C D E F"/><path d="M505.745 221.79c2.25-.425 4.777 3.077 4.536 4.55-.313 1.905-3.042 1.92-3.39.592 0 0 .498 3.115-1.046 3.015s-2.927-1.833-2.393-2.42c.1-.112 1.634-3.79 1.345-4.55 0 0 .773-1.154.95-1.188" class="B G"/><path d="M505.502 217.84c.163-1.72 3.007-2.348 4.046-1.86 1.343.63-.368 2.1-1.422 2.082 0 0 3.836.337 3.435 1.437s-1.49 1.163-1.853 1.648c-.39.526-3.526.795-3.273-.8l-.933-2.505z" class="C D E F"/><path d="M505.502 217.84c.163-1.72 3.007-2.348 4.046-1.86 1.343.63-.368 2.1-1.422 2.082 0 0 3.836.337 3.435 1.437s-1.49 1.163-1.853 1.648c-.39.526-3.526.795-3.273-.8l-.933-2.505" class="B G"/><path d="M503.596 217.55c-1.402 0-2.538 1.16-2.538 2.59s1.136 2.59 2.538 2.59 2.536-1.16 2.536-2.59-1.136-2.59-2.536-2.59z" class="C D E F"/><path d="M503.596 217.55c-1.402 0-2.538 1.16-2.538 2.59s1.136 2.59 2.538 2.59 2.536-1.16 2.536-2.59-1.136-2.59-2.536-2.59" class="B G"/><path d="M501.993 228.058c-1.782.647-3.796-1.678-3.18-4.09-5.352 3.686-5.38-7.024 2.137-5.2-.54 1.984.783 4.533 3.1 4.608.702 1.312-.454 4.1-2.057 4.684z" class="C D E F"/><g class="B"><path d="M501.993 228.058c-1.782.647-3.796-1.678-3.18-4.09-5.352 3.686-5.38-7.024 2.137-5.2-.54 1.984.783 4.533 3.1 4.608.702 1.312-.454 4.1-2.057 4.684" class="G"/><path d="M491.073 233.188c2.013-2.21 2-6.293.6-11.66-1.024 1.183-2.05 1.916-3.073 2.197 0 0-5.122-3.38-5.038-2.704-.255.676.002 7.435.343 7.435l-2.648.76c-.372 1.358 9.253 5.094 9.817 3.972" class="H"/></g><g class="C D E F"><path d="M491.073 233.188c2.013-2.21 2-6.293.6-11.66-1.024 1.183-2.05 1.916-3.073 2.197 0 0-5.122-3.38-5.038-2.704-.255.676.002 7.435.343 7.435l-2.648.76c-.372 1.358 9.253 5.094 9.817 3.972z"/><path d="M493.805 236.737l-7.428-11.406m2.727 3.52l1.03-3.65"/></g><path d="M493.71 236.785c.927-2.83 4.508-4.86 9.902-6.342-.522 1.47-.652 2.714-.385 3.732 0 0 5.518 2.7 4.884 2.966-.464.557-6.505 3.717-6.676 3.424l.658 2.648c-1 .998-9.085-5.384-8.383-6.43" class="B H"/><g class="C D E F"><path d="M493.71 236.785c.927-2.83 4.508-4.86 9.902-6.342-.522 1.47-.652 2.714-.385 3.732 0 0 5.518 2.7 4.884 2.966-.464.557-6.505 3.717-6.676 3.424l.658 2.648c-1 .998-9.085-5.384-8.383-6.43z"/><path d="M503.1 236.916l-9.18.064m6.377-.95l.86-3.396m-6.317-1.22c-.427.844-1.708 3.972-4.012 5.407s-5.038.337-5.72 1.858l-.768 1.944"/><path d="M448.008 301.8c-.872-.19-4.36-1.533-4.36-1.533s1.937-2.493 1.356-2.396-2.326 2.588-2.326 2.588-.58-1.726-1.55 0-1.647 1.63-1.647 2.398 1.55.575 1.55 1.725.58 2.686.68 2.205l.677-2.875s1.453 0 1.647.67-.29.193-.387 2.59.484.575.775-.19l1.163-3.547 2.42-1.63z" class="J"/></g><path d="M448.008 301.8c-.872-.19-4.36-1.533-4.36-1.533s1.937-2.493 1.356-2.396-2.326 2.588-2.326 2.588-.58-1.726-1.55 0-1.647 1.63-1.647 2.398 1.55.575 1.55 1.725.58 2.686.68 2.205l.677-2.875s1.453 0 1.647.67-.29.193-.387 2.59.484.575.775-.19l1.163-3.547 2.42-1.63" class="B I"/><path d="M453.143 300.076c0 1.437.484 1.82 1.356 2.396s1.453 0 1.453 1.246-1.55 2.207-1.55 2.973 2.714-.48 2.714-1.056-.097-2.204.484-.767 1.55.672 1.55-.67-1.065-4.22-1.84-4.6-2.616-.96-2.81-.48-1.647 1.15-1.356.96z" class="C D E F J"/><path d="M453.143 300.076c0 1.437.484 1.82 1.356 2.396s1.453 0 1.453 1.246-1.55 2.207-1.55 2.973 2.714-.48 2.714-1.056-.097-2.204.484-.767 1.55.672 1.55-.67-1.065-4.22-1.84-4.6-2.616-.96-2.81-.48-1.647 1.15-1.356.96" class="B I"/><path d="M466.9 309.28c-.67-4.33-3.73-7.49-8.72-9.587-.2-.08-.64-.25-.484-.383.596-.52 1.42-.704 2.13-1.056 0 0-.29-.672-1.356-.672s-2.42-.095-2.42-.095c-.324-.734-.163-1.76-.486-2.493 0 0-3.1-.096-3.1.96s.193 1.437.193 1.917-2.13 2.205-2.13 2.205l2.616-.193c1.356-.095 2.52.096 2.52.096s.97 1.054 1.065 1.92 1.937 1.15 1.937 2.107.195 1.438.195 2.302 1.936-.095 1.936-.095c.936.32 3.67.47 2.81.96-1.024.577-2.47-1.16-3.488-.577-.93.53-.58 2.045-.872 3.068 0 0 2.13.48 2.712.48s4.987-.563 4.942-.863z" class="C D E F J"/><path d="M466.9 309.28c-.67-4.33-3.73-7.49-8.72-9.587-.2-.08-.64-.25-.484-.383.596-.52 1.42-.704 2.13-1.056 0 0-.29-.672-1.356-.672s-2.42-.095-2.42-.095c-.324-.734-.163-1.76-.486-2.493 0 0-3.1-.096-3.1.96s.193 1.437.193 1.917-2.13 2.205-2.13 2.205l2.616-.193c1.356-.095 2.52.096 2.52.096s.97 1.054 1.065 1.92 1.937 1.15 1.937 2.107.195 1.438.195 2.302 1.936-.095 1.936-.095c.936.32 3.67.47 2.81.96-1.024.577-2.47-1.16-3.488-.577-.93.53-.58 2.045-.872 3.068 0 0 2.13.48 2.712.48s4.987-.563 4.942-.863" class="B N"/><path d="M444.52 302.76c.38 1.32.677 5.37.677 5.37s.68.286 1.356-.29 1.358-3.45 1.358-3.45l3.1.672s-2.033 3.26-2.033 3.738 1.647-.19 2.228-.767 2.52-3.452 2.52-3.452l-3.584-1.342-3.198-1.63c-.537-.213-3.52-1.247-3.488-.958l1.067 2.11z" class="C D E F J"/><path d="M444.52 302.76c.38 1.32.677 5.37.677 5.37s.68.286 1.356-.3 1.358-3.45 1.358-3.45l3.1.672s-2.033 3.26-2.033 3.738 1.647-.2 2.228-.767 2.52-3.452 2.52-3.452l-3.584-1.342-3.198-1.63c-.537-.213-3.52-1.247-3.488-.958l1.067 2.1m-23.93 7.957c1.067 1.342 4.263 2.493 4.263 2.493l57.054.16 1.556-2.75-62.872.096" class="B N"/><g class="C D E F J"><path d="M420.592 310.718c1.067 1.342 4.263 2.493 4.263 2.493l57.054.16 1.556-2.75-62.872.096z"/><g stroke-linecap="round"><path d="M444.424 306.883c-.484.863-1.453 1.726-.97 2.877s.292 1.63.292 3.644v3.835m2.81-11.123s1.163 2.205 1.163 5.177v5.273m1.742-10.45l.193 6.04v4.22m3.78-15.462s.58-.072.872.6.58.672.968 1.344.484.958-.677 2.205l-4.554 5.177s.387 2.302.387 3.547v3.644"/><path d="M453.434 301.267c1.453 1.917 2.228 1.014 2.42 2.165s-1.065 1.246-2.13 3.26l-2.035 3.93.387 4.698.097 1.247m1.26-8.054l.484 8.15m.388-9.97l1.452 10.257M457.6 309l-.388 5.754v2.684m1.453-8.148l.58 4.603v3.356m.775-7.767c0 .574.872 3.93.775 4.698l-.3 2.493"/></g></g><path d="M430.8 293.257l-2.247.303 4.186 13.436-.306 2.424 4.49.1 4.288-2.728-7.145-1.414 1.53-1.718c-2.095-1.283-3.284-4.804-4.288-8.788l-.51-1.617" class="B I"/></svg>