<svg xmlns="http://www.w3.org/2000/svg" width="1000" height="500" xmlns:v="https://vecta.io/nano"><style><![CDATA[.B{fill:#704624}.C{fill:#7d4e28}.D{fill:#794c27}.E{fill:#ab883f}.F{stroke:#644d1b}.G{fill:#9e7e3a}.H{stroke-width:.296}.I{fill:#c8102e}.J{fill:#b48f42}.K{fill:#88552c}.L{stroke-width:.285}.M{fill:#8c7033}.N{fill:#85522b}]]></style><path d="M0 0h1000v500H0z" class="I"/><path d="M0 0h500v250H0z" fill="#012169"/><g fill="#fff"><path d="M0 0v27.95L444.1 250H500v-27.95L55.9 0H0zm500 0v27.95L55.9 250H0v-27.95L444.1 0H500z"/><path d="M208.333 0v250h83.333V0h-83.333zM0 83.333v83.333h500V83.333H0z"/></g><path d="M0 100v50h500v-50H0zM225 0v250h50V0h-50zM0 250l166.667-83.333h37.267L37.267 250H0zM0 0l166.667 83.333H129.4L0 18.633V0zm296.067 83.333L462.734 0H500L333.334 83.333h-37.267zM500 250l-166.667-83.333H370.6l129.4 64.7V250z" class="I"/><g transform="matrix(1.14115 0 0 1.14115 490.479875 -451.285759)"><path d="M305.132 584.222V520.2H148.867l.754 63.308z" fill="#fff"/><path d="M236.03 584.074v-22.656h68.947V544.23H236.03V520.2h-17.156v24.03H148.92l-.03 17.188h69.985v22.656z" stroke="#000" class="I"/><path d="M148.78 583.557v3.23c.12 4.024.202 10.34.22 17.718v.685l-.33 66.983-.082 2.793c.026 1.087.132 1.906.575 2.958.587 1.39 2.903 3.478 2.903 3.478l33.6 14.486s26.706 12.12 41.022 13.008c.08.005.166-.004.246 0 .08-.004.167.005.246 0 14.316-.89 41.022-13.008 41.022-13.008l33.628-14.486c.044-.04 2.294-2.1 2.875-3.478.41-.974.536-1.745.575-2.71l-.082-3.04-.3-73.856.164-11.53v-2.52l-156.284-.712z" fill="#165016"/><path d="M190.24 667.38c-1.716 0-5.125 1.89-5.888 2.08s-4.6 2.11-4.6 2.11l-.192 2.3s-2.856-.58-4.382-1.534-1.51.385-2.465.767-1.727 1.318-2.11 2.08l-1.15 2.492s-1.707-.001-3.423-.192-1.534.767-1.534.767-1.895.766-2.848.575-1.342.575-1.342.575-1.897 1.315-3.23 1.506c-.934.133-1.392 1.287-1.588 1.972l30.178 13.008s26.706 12.12 41.022 13.008c.08.005.166-.004.246 0 .08-.004.167.005.246 0 14.316-.89 41.022-13.008 41.022-13.008l33.628-14.486c.032-.03 1.207-1.124 2.08-2.246-4.172.16-9.127.583-14.048 1.04-10.144.943-20.814 2.673-22.373.52-4.005-5.53-3.072-1.507-4.026-1.698s-4.765-.383-4.765-.383-2.854-1.15-3.998-1.15-5.148.767-5.148.767l-4.2-.958-4.573-1.342s-3.622.766-4.957.575-5.723-.958-5.723-.958-4.006-.193-5.532-.383-2.28-.74-3.615-.93-1.734.356-3.45.356-3.23-.356-3.23-.356-.963.167-1.917.74-4.39.023-6.107-.74-7.23-2.492-7.23-2.492l-6.5-4.382h-2.3z" class="J"/><path d="M192.014 666.88s1.21 2.768 2.25 4.498 1.903 2.768 3.46 2.768 1.21-.173 3.46.346 4.152 1.73 6.747 1.73 4.152 0 6.055.52 5.017-.346 5.017-.346l-5.882-2.94-3.806-.173c-1.903 0-7.093-1.038-8.13-1.557s-4.152-1.73-4.152-1.73z" class="K"/><g transform="matrix(1.09339 0 0 1.09339 -210.28513 -35.290567)"><path d="M379.635 641.15c-3.596-.63-4.67 3.096-5.418 7.388 0 0 9.752-.59 10.048-1.97s1.675-6.5.985-6.403-5.615.985-5.615.985z" class="B"/><path d="M376.42 614.184c-.274.02-.514.07-.725.175-.844.422-2.75 3.6-2.75 3.6 2.322 1.9 3.814 3.58 4.025 4.425l.625 2.325 2.325 1.05.85 1.275.825 5.075-.625 2.525-.625 2.25-.35.9-.075.125c-.552.95-.77 2.174-1.3 3.15l-1.025 1.8s2.835.483 4.175.1c2.034-.58 4.21-1.677 5.325-3.475.59-.95 1.182-2.488.575-3.375.5-.694.964-1.145 1.1-2.1l.65-4.875v-3.575l-.225-6.125-.425-4.65s-4.208.436-5.475.225l-4.225-.65c-.792 0-1.83-.234-2.65-.175z" stroke-width=".27" class="E F"/><path d="M384.068 644.4s-.985-.493-1.872.197-.605 1.116-1.576 1.28c-1.485.252-2.933 6.18-2.56 6.403 0 0 6.462-.133 9.358-1.38 1.116-.48 2.275-1.2 2.866-2.252.854-1.534 1.173-5.136.582-5.235s-6.797.985-6.797.985z" class="B"/><g class="E F"><path d="M386.996 633.472l-2.928 6.3-1.576 3.35-1.38 3.743s4.015-.062 5.812-.837c1.31-.564 2.653-1.416 3.35-2.66 1.297-2.316 1.653-7.118.963-7.906s-4.242-1.99-4.242-1.99z" stroke-width=".27"/><path d="M372.522 579.69c-11.5.674 4.8 33.82-6.7 33.903-2.738-.387 3.28 4.125 3.28 4.125s.308-.812 2.188-.812 6.188.563 6.188.563 5.352 2.684 7.5 5.906 1.35.802 2.156 3.22-.28 7.25-.28 7.25l-1.562 3.122s3.247-1.27 5.127.61 3.114.914 3.114.914.055-.658.055-1.732-.534 3.524-.265 2.18c-1.468-5.534-3.272-7.416 4.97-12.53 1.252-.22 2.5-.596 3.656-1 2.003-.695 3.624-2.245 5.438-3.344 2.005-1.214 3.95-2.516 6.03-3.594 1.344-.695 4.865-3.568 4.03-2.28-1.038 1.6 4.506-1.84 5.094-.156 1.19 3.41 5.84 2.468 8.844 2.094 2.316-.288 4.235-1.99 6.22-3.22 2.934-1.82 6.27-3.366 8.344-6.125 1.93-2.567 3.616-5.865 3.313-9.062-.332-3.5-2.28-7.485-5.437-9.03-2.78-1.36-5.145-2.032-7.937-2.875-1.928-.582-3.15-1.448-4.75-2.094-2.07-.836-4.092-1.88-6.28-2.312-4.15-.588-16.425-1.392-17.447-4.153-16.985-4.985-26.008-3.476-34.875.437z" class="H"/></g><path d="M443.948 652.245c-.49 0-1.88.327-1.88.327-1.836.515-3.315 2.1-4.496 4.578l8.91.163c1.51 0 1.312-4.25.41-4.415l-2.943-.654z" class="B"/><path d="M446.087 592.338c-.042-.255 6.994.558 9.73 10.546.957 3.497.238 7.248.327 10.873.106 4.332-.82 8.798.245 13 .204.803.948 1.402 1.145 2.207.174.715.146 1.486 0 2.207-.306 1.508-1.8 4.25-1.8 4.25-.788 4.348-1.977 8.662-.41 13.653l-3.76.572-3.352 4.333-1.145.245-4.742-1.553c3.358-2.902 5.468-5.546 6.867-8.012l.572-13.49s-.245-1.88-.245-2.207-5.843-5.543-7.603-9.075c-1.834-3.68-2.78-12.018-2.78-12.018" class="E F H"/><path d="M444.61 622.452l2.08 1.047 2.956 2.398s-.87-10.085-.088-9.356-1.073-.618 1.972 2.073 1.616 2.622 1.616 2.622 1.788 1.374 1.203-.194-.498-3.386-.498-3.386.388-.56.622-3.803c.817-11.3-1.876-14.198-2.2-15.094-21.743-5.93-21.258 10.852-7.654 23.694z" class="C"/><path d="M444.2 590.604c2.754 1.264 5.123 2.913 6.256 5.8 4.06 10.837 3.06 13.3 7.935 17.396.764.644 2.084 1.34 2.9.763 1.58-1.122.907-3.913.458-5.8-.433-1.817-1.98-3.167-2.912-4.786-.74-1.286-2.124-3.912-2.124-3.912l2.9-.763s1.557 3.687 1.984 5.036c.44 1.395 1.986 2.258 2.44 3.65.76 2.327 1.31 5.104.307 7.337-.592 1.32-1.932 2.502-3.357 2.747-1.332.23-2.74-.555-3.815-1.373-3.573-2.716-7.782-10.987-7.782-10.987l-3.205-4.883" class="E F H"/><path d="M458.47 591.47l.03 1.906c0 .714-.155.807-.25 1.188s-.062 1-.062 1l-.875-2.125.156 1.78c0 .64-.156 1.594-.156 1.594l-.97-2.72c-.48-1.442-.164-.317.156 1.125s0 .312 0 1.594-.156 1.59-.156 3.03.18 1.29.5 2.25 1.324 1.648 2.125 1.97l.156.063c.103.026.324.18.375.28s.094.313.094.313.094-.054.094-.156-.042-.278-.094-.406-.156-.25-.156-.25.287.272.313.375a10.21 10.21 0 0 0 .125.406s.088-.2.063-.344-.156-.562-.156-.562.048.022.125.125l.25.344.063.156-.062-.5-.187-.28.03-.03c.07.046.2.15.25.25.05.128.22.47.22.47s.03-.2.03-.344c0-.13-.065-.426-.094-.53.016.026.023.046.063.094.128.154.313.304.313.406s.03.41.03.28.03-.14.03-.344-.006-.372-.03-.5l.28.75-.03-.47-.03-.375c.006-.1.004-.104 0-.125l.125-.062c0-.143-.08-.198-.03-.53s-.097-.634.094-1.062.296-.893.344-1.75.076-.137.22-1.375-.03-1.234-.03-2.28-.187-.53-.187-.53l-.312 1.906c-.2.857-.7 1.403-.844 1.594s.247-.347.438-1.156.077-.6.125-1.562-.125-1.875-.125-1.875.003.483-.187 1.625-.153.683-.344.97-.28.594-.28.594l-.187-2.375c0-.81.028-.316.22-1.125s-.265-2.153-.312-2.344-.06.86-.25 1.906-.092 1.182-.187 1.563-.375.906-.375.906l-.062-1.812-.03-1.406c-.048-.476-.375-1.5-.375-1.5z" fill="#584e19" stroke="#3c3311" stroke-width=".1" stroke-linejoin="round"/><path d="M418.395 612.094c.187 3.17.145.13.93 2.408 1.66 4.804 12.408 16.95 12.3 15.77l-.537 3.757c-1.374 5.43-4.842 7.416-7.916 10.063 0 0-2.274.001-3.086.67-.788.65-1.208 2.818-1.208 2.818l5.053 4.376 2.326-2.632 5.367-2.28-1.208-1.878c3.765-5.953 8.046-9.812 9.526-11.807 0 0 1.773.7 2.28.134 1.423-1.588-.998-4.175-1.073-6.306-.097-2.74.805-8.184.805-8.184s4.478-5.723 5.5-9.123c.478-1.6 1.008-3.655 1.346-5.674.537-3.206.59-6.3-.81-7.206-1.974-1.276-3.086-3.086-4.428-4.428" class="E F H"/><path d="M418.992 647.677c-2.15.17-3.9 2.478-5.396 6.132h9.484c1.548-.748 1.384-1.74 1.472-2.698z" class="B"/><path d="M418.758 648.734c-2.196.765-3.165 2.512-3.894 4.45l2.893-.223 2.228-3.252zm23.565 4.45l1.664.58-1.592 2.82h-3.4c.768-1.095.942-2.125 3.328-3.4zm-59.546-5.72l-2.04-.102c-.306 0-.9 1.44-1.122 2.244-.2.657-.204 2.04-.204 2.04l3.162-.5zm-5.815-4.488s-.856 1.38-1.122 2.142c-.297.85-.5 2.652-.5 2.652l2.55-.204 1.326-4.182z" class="J"/><path d="M387.014 621.466c.994.342 1.398.155 2.236.404s2.547-.217 3.168-.31 1.77-.714 1.273-.248-.9.932-1.15 1.242-.652.528-1.615.466-.932.093-1.925-.155-1.957-1.242-1.957-1.242l-.248-.124z" fill="#866925"/><path d="M385.85 597.605s4.675 2.727 7.013 2.727 8.182 1.17 10.91 1.17 10.91-2.727 13.636-3.117 7.013-4.286 4.286-.78-2.727 6.623-3.506 9.35-.78 7.013-.78 7.013-2.727 1.17-7.402 2.727-16.363 3.506-16.363 3.506-1.558-6.234-3.506-8.96-4.675-6.234-5.844-7.792 1.558-5.844 1.558-5.844z" class="G"/><g transform="matrix(1.036799 0 0 1.036799 657.3576 366.74239)"><g class="G"><path d="M-279.47 197.47s-1.364.33-2.22.844-1.35.862-2.72 1.375-2.156 2.813-2.156 2.813l-.437.25c-.427.256-.677.62-1.53.875s-.76.66-1.187 1.344-1.375 1.125-1.375 1.125-1 .096-1.437.438l-1.47 1.28s-1.198-.092-1.625.25-1.268.68-1.78.938-1.622.5-2.562.5-.94-.004-1.625-.687-1.47.454-1.812.625-1-.008-1.437-.094-.69-.952-1.03-.78-.414 1.104-.5 1.53-.937 1.563-.937 1.563l-1.906.5c-.598.17-1.018.087-1.53.344s.015.256-.156 1.28l-.187 1.125c-.086.513-1.187.5-1.187.5l-.187 2.906v2.22l3.094-.344 3.406-.344s.508.18 1.875 1.375 2.066-.695 2.75-2.062 2.906-3.562 2.906-3.562l1.875-1.72s2.068-1.017 3.094-1.187 3.754-.357 4.438.156c.342.256.71 1.41 1.03 2.563-.002.01.002.02 0 .03-.583 2.96-.937 6.894-.937 7.875 0 1.57 7.063 16.656 7.063 16.656s4.402 1.716 5.344 2.188 2.84 2.145 3.313 3.088.938 3.506.938 3.506c.425-2.776.462-1.686.694-2.53l.4 2.685v1.875c-.622-.024-1.114.734-1.562 1.75l3.438-.625 1.563 4.53s2.906 4.02 3.534 4.178c.403.1 4.28 2.854 7.078 3.14 1.568.16 2.662-1.98 2.944-2.093.785-.314 5.54-2.794 5.54-2.794l-1.62.007-3.32.25 3.594-2.687-3.75-.78s1.248-.934 1.72-1.562 1.875-2.344 1.875-2.344l-2.97.156s-1.593-2.998-1.75-3.47-1.404-2.37-1.875-3.156-.782-.777-.625-1.562.782-2.184.625-2.97-1.404-3.465-1.875-4.25-1.72-2.656-1.72-2.656-1.123-3.934-1.594-4.562-.307-1.402-1.406-2.187-2.187-1.903-2.187-2.53c0-.28-.362-.934-.78-1.625-.008-.013-.023-.018-.03-.03a30.93 30.93 0 0 0-1.406-2.094c-.436-.58-1.945-2.268-2.187-2.53.222-.03 3.84-.48 5-.812 1.196-.342 1.548-1.38 1.72-2.406s.327-3.26.156-4.97-.346-1.695-.687-3.062.348-2.052 1.03-2.906 1.04-1.375 2.406-1.375 3.08 1.72 3.594 1.72.664-.175 2.03-.687 3.243.017 4.78.188 5.13.844 6.156.844 8.72 3.75 8.72 3.75-4.085-3.4-5.28-4.094-3.94-1.877-4.625-2.22-4.28-.844-4.28-.844l-3.75-1.03-6-.53-3.75-.344s-1.52-2.217-2.375-1.875-1.883.17-3.25 0-2.74.017-3.594.188-3.754 1.017-4.437 1.188-1.88.513-2.562 0-.53-1.53-.53-1.53z"/><path d="M-312.74 218.935c.217.542.434 2.93.108 3.688l-.976 2.495s.76-.217 1.4-.108 1.627 1.085 1.627 1.736-.76 2.603-.542 3.47 1.302 2.17 1.302 2.17l1.193.65 1.4.542 1.84 2.413c.65.976 1.524 3.01 1.85 3.445s.76 1.736 1.085 2.278 1.025.898 1.638 1.172c.64.285 2.05.456 2.05.456h1.193l1.736.868 2.06.217 1.302-.217s2.278-.434 3.037-1.193 3.797-2.712 3.797-2.712 2.712-1.085 2.712-2.495-.76-3.146-.217-6.292.542 1.953.65-3.47 2.06-1.52-.542-8.678.434-4.88-3.037-7.376-5.315-2.603-6.617-2.387-6.726-.325-7.702.542-4.23 2.93-5.75 3.688-2.278.65-3.146 1.953-3.47 3.146-3.47 3.146z"/></g><path d="M-293.76 238.657s-.503.412-.57.785c-.148.83.03 1.336-.23 2.14-.2.592-1.025.944-1.493 1.444l-2.73-1.425c-.242-.242-.652-.918-.652-.918s-.314.966-.676.966-1.413.4-1.353.894l.266.145.4.193c.64.285 2.03.46 2.03.46h1.208l1.74.87 1.957.217c.334-.443.697-.946.845-1.353.324-.885.54-1.918.3-2.826-.272-.985-1.04-1.6-1.04-1.6zm-14.115-7.877c-.362 1.2-.853 1.653-1.375 1.906l.625.344.594.25c.72-.6.364-1.58.156-2.5z" class="B"/><path d="M-283.936 228.152c-.016.102-.04.177-.08.16" fill="none" stroke="#262626" class="L"/><g class="D"><path d="M-296.3 236.517c.513-.342 2.137-1.11 2.735-1.367s1.71-.684 2.222-.684 1.624-.513 2.308-.427 1.795.77 1.795.77l.684-2.137 1.538-2.222c.256-.342 1.367-.598.598-.598s-2.99 0-3.93-.085-1.71.94-2.05 1.624-.77 1.026-1.795 1.196l-2.82.427c-1.026.17-.855-.085-1.538.513s-2.99.77-2.99.77.94 1.282 1.453 1.367 1.795.855 1.795.855z"/><path d="M-281.687 234.893c.17.684-.054 4.556-.054 4.556s2.465.04 2.636.895.855.373.855.373l.645.3c.424 1.025 2 1.117 2.536 1.525.78.593.558 1.293 1.346 1.838l-1.6 3.422-.794-3.14-1.98-.7c-.048 1.897.715 3.3-.252 4.877.283-.958-.53-2.602-1.52-4.356l-1.095-.663-1.407-1.397s-.684 1.026-.684 1.71 1.026 2.393 1.026 2.393l1.196.684s.684 0-.342.513-2.393.17-2.393.17l-1.88-1.538.684 3.077.684 1.367-1.88-1.026-1.538-2.564-.342 2.222s-.342 1.71-1.026 2.05-2.222-.17-2.222-.17.513-.855.684-1.538-.342 0-.342 0l-2.393.513v-1.538s1.196-1.026 1.026-1.71-1.71-2.906-1.71-2.906h0s1.364-1.987 1.403-3.378c.018-.63.776 1.123 1.858 1.23 1.028.1.29-4.77.923-4.862.546-.08 1.715 1.45 2.274 1.692 1 .43 1.233-.32 1.233-.32l.684-1.367.513-2.05c.876-1.07 1.2 2.413 3.248-.17z" stroke="#b46531" class="L"/></g><path d="M-289.214 207.31l-5.7 2.228c-.7.276-1.52.7-2.485.828s-1.933-.276-2.762 0-1.566.44-2.532.578-3.656.365-4.622 1.746-1.683 3.9-1.683 3.9 1.243-.414 2.347-.414 1.863.94 3.52.803 2.556-2.045 3.384-2.736 1.587-.257 2.83-.533 3.265-2.434 3.955-2.848 3.747-3.54 3.747-3.54z" class="M"/><path d="M-308.608 213.784c1.026 1.624.77 1.966 1.71 2.393s1.538 1.11 2.05 1.11 2.05.086 2.308.427 2.308 1.026 1.367 1.282-.94 2.478-1.71 2.308-2.05-.855-2.393-1.196-2.564-2.393-2.906-2.478-.855-.256-1.196-.256-1.453-1.026-.94-1.71 1.196-1.367 1.196-1.367z" class="N"/><path d="M-284.56 206.777l-4.112 3.084c-.685.343-.514-1.885-1.713-.514s-3.255 2.056-4.283 3.084-2.056 1.028-2.056 2.056c0 .597-2.19-1.473-3.417-.865a4.95 4.95 0 0 1-3.069.055c-1.342-.437-2.807-1.92-3.013-1.756-.294.232-1.66 1.353-1.184 1.898.232.266.825 1.17 1.875 1.54 1.285.452 3.04.358 3.017.473-.217 1.028 1.338 1.483.822 1.57-2.056.343-1.028 1.542-1.885 2.57s-2.57-2.913-3.598-2.913-3.427-.514-4.112-.17-1.542 1.542-1.2 3.255 1.542 3.427 2.056 4.97l1.028 3.598.514-3.598 1.542 1.885s-.685 2.056 0 3.598 2.227 3.084 2.227 3.084l1.715.862s2.694 3.33 3.036 2.302c-.512-1.028-.246-1.664-.246-1.664l2.348.556 2.056.17 1.028.343.34-1.887s1.03-1.026 2.23-1.026 2.227.17 2.913-.514 1.37-2.227 1.37-2.227h.17l4.112-.343h4.797c1.2 0 3.255-.17 3.255-.17s3.084.685 3.255 1.713 2.227 4.626 2.227 4.626l-1.713-6.168-2.227-1.885-.857-1.885-.17-2.57s.343-1.542-.343-1.885-1.885-.685-1.885-.685l.857-1.713-2.056.343-.514-1.028s1.37-1.2.685-1.37-1.713-.17-1.713-.17-.343-1.542-.857-2.4l-1.37-2.227v-3.77z" class="B"/><path d="M-302.496 222.862c-.514 1.114-.857 3.084-1.2 4.455s-.343 1.713-.343 2.313.343 1.37.6 1.713 1.456 1.628 2.142 1.2 1.542-1.713 1.542-1.713.514 1.8 1.028 2.056 1.8-.343 1.97-.685.6-1.114.942-.17.6 1.97 1.114.857.514-2.056 1.285-3.084.942-1.456 1.2-1.97 1.028-.343-.086-1.713-1.97-2.056-1.97-2.313.428-.77 1.2-.257 2.484 1.37 2.484 1.37l-1.628-1.628c-.685-.685-1.628-1.542-2.484-1.628s-1.885-.6-2.227-.343-.6 1.885-.6 1.885-.685-.086-.77-.514.257-1.456-.257-.77-1.114 2.142-1.628 2.313-.77.77-1.114 0-1.2-1.37-1.2-1.37z" class="G"/><path d="M-297.313 230.53c-.05-.493 1-.132 1.456-.3.487-.175 1.035-.334 1.37-.728.43-.505.34-1.293.643-1.885.135-.265.62-.45.514-.728-.286-.755-1.552-.487-2.356-.557-.727-.063-1.502-.128-2.185.13-.524.197-1.2.13-1.328 1.028s-.257 1.713-.043 2.1.962 1.157 1.628 1.157c.123 0 .337-.097.3-.214z" class="M"/><path d="M-295.8 227.727c.298.37.06 1.057-.532 1.533s-1.313.564-1.612.194-.06-1.057.532-1.533 1.313-.564 1.612-.194z" fill="#634324"/><path d="M-298.205 229.963c.6-1.988 1.595-2.995 3.978-2.924 0 0-3.032-.46-3.912.516-.538.597-.066 2.408-.066 2.408z" fill="#614c32"/><path d="M-302.517 230.928s.496-1.41.798-1.486.916-.142 1.143-.67.777-.718.928-1.17.15-.976.453-1.127.755-.226 1.132-.302 1.057-.226 1.963-.226 1.812.68 1.812.68-1.283 0-1.66-.076-1.887.226-2.19.377-.68.98-.68 1.283-.15.98-.528 1.208-.906.226-1.36.68-1.057.906-1.057.906z" fill="#6e4523"/><path d="M-295.728 222.09c.717-.883 1.24-2.34 2.827-2.57.113-1.95-.56-3.477.77-5.226 1.184-.8 2.034-.963 2.998-1.114-.172 2.185.1 4.276 1.114 5.568-1.3 2.155-2.784 3.755-4.54 4.54" fill="#ac9076" stroke="#865c00" class="L"/><path d="M-298.09 238.15s-.895.945-.987 1.55c-.08.53.423 1.55.423 1.55s.883-.846.987-1.4c.106-.572-.423-1.692-.423-1.692z" class="B"/><path d="M-289.75 226.275s3.875-3.882 6.363-4.83c.92-.35 2.063-.673 2.946-.236.586.3.918 1.012 1.06 1.65.13.58-.058 1.2-.236 1.767-.218.696-.51 1.407-1.002 1.944-.973 1.06-3.653 2.298-3.653 2.298l-2.77.59" class="G"/><path d="M-288.042 226.864c1.453-.177 2.907-.844 4.36-2.12-.567 1.407-1.183 2.78-2.828 3.417z" fill="#7f512a"/><path d="M-266.235 198.688c-.8-.158-3.318-.316-4.266-.316s-3.16.948-3.95.948-2.686.316-3.476.316-2.844-1.106-.948 0 4.424 1.106 5.372.948 4.582-.632 3.318 0-2.054.8-2.37 1.58-.948 1.896.316 1.896 2.212-.316 3.792-.632 4.898-2.686 4.424-1.58-1.896 2.528-2.528 3.16-1.738 3.476-.8 2.528 1.422-1.896 3.002-3.002 4.424-2.686 5.056-2.212 1.422.948 2.37 1.106 4.74-.158 5.846 0 6.162.316 7.9 1.264 4.582 1.58 3.792 1.422-3.792-2.37-5.214-2.844-6.478-1.422-7.9-2.054-7.268-.8-8.058-1.264-3.002.158-3.95-.474-1.738-.8-1.738-.8z" class="B"/><path d="M-224.833 226.478c-.948-.632-.8-1.106-1.896-1.58s-.8-2.37-2.054-1.422-2.844 1.58-1.738 2.37 2.37.8 3.16 1.106 3.634 1.896 3.634 1.896l.632-1.106zm-6.243 1.202l-.632 3.318-.158.632-1.738.158 2.054 1.264 4.424 2.686s-2.054-2.37-2.212-3.318 0-2.212 0-2.212zm1.806 7.612c-.065-.036-.208.356-.423.82-.388-.184-.738-.317-.977-.317h-3l.158 2.06c.518-.086 1.3-.012 2.034.185-.543.2-1.13.276-1.717.423-1.063.266-3.724 1.85-3.724 1.85l5.07-.264 2.562-.502 2.88 2.27s.632-.32.158-1.585-.795-2.063-1.585-2.853c-.367-.367-.876-.716-1.373-1.004v-.58c0-.332-.015-.48-.053-.502z" class="C"/><path d="M-270.5 217.5s2.212.8 2.686 1.58 1.896 2.686 1.896 2.686 0 1.738.8 2.212l2.37 1.58c.632.474 2.054 1.896 2.054 1.896l.8 2.686c.158.632.158 2.212.948 2.844s1.264 1.264 1.896 1.58 1.264.948 1.264 1.58 0 2.37.316 3.476.8 1.738 1.58 2.212 1.58 1.106 2.212 1.264 2.054.316 2.054.316l-2.37.8-1.58-.474c1.106.474 1.738.948 2.686 1.58s.8.8 1.896.948l2.686.474-.158.8s-2.686.474-3.318 0-2.844-1.738-2.844-1.738 2.686 2.212 3.318 2.37 2.054.632.8.632-2.054 1.264-3.002.948-1.896-.316-.948.158 4.424-.306 4.424-.306 2.336-1.385 1.546.037-1.775 1.526-2.88 1.526-1.35 1.113-2.3 1.27-3.16.316-3.16.316-.8-.948-.948-2.686-1.58-4.108-2.054-4.582-.8-3.476-.8-3.476-.474-2.844-.8-3.476-2.37-4.108-2.37-4.108-.158-1.264-.948-3.634-2.528-4.108-2.528-4.108l-3.476-3.634c-1.106-.948-1.422-3.95-1.422-3.95z" class="B"/><path d="M-281.974 230.233s-1.2.604-.725 2.055 1.57 2.176 1.934 2.78 1.934 2.66 1.934 3.626.967 2.176.967 2.176l.604-1.813c.12-.483.363-2.538.604-1.692l.846 3.505c.242.604.483 1.33.483-.242s1.2-3.022 1.33-3.505 0-.725 0-1.813-1.45-2.176-1.45-2.176l-.967 1.2-.846-1.45-1.692-1.33s.967 1.692.363 1.692-.363.604-1.2 0-1.33-1.2-1.33-1.2l-.483-.967zm8.098 8.34l1.088 3.868 3.747.846 4.955 1.813-1.088-2.9-2.66-1.088s-.242-1.692-.846-2.296-1.088-.483-1.2-.967-1.934-1.33-2.176-2.176-.483-2.538-.483-1.2.363 3.263.363 3.263l-.967-1.57zm5.68 6.164c.846.967 1.77 2.547 2.296 3.988.392 1.077.604 3.384.604 3.384s1.17-3.445.483-4.955c-.574-1.262-3.384-2.417-3.384-2.417zm-3.064-17.194s.5 2.746 1.196 3.93c.626 1.082 1.957 1.642 2.564 2.735.86 1.547 1.138 3.374 1.367 5.128.044.34 0 1.026 0 1.026l-.17-4.615c-.044-.855.205-1.794-.17-2.564-.637-1.306-2.338-1.773-3.248-2.906-.655-.815-1.538-2.735-1.538-2.735z" class="D"/><path d="M-292.113 241.303c.256.855.684 1.11 1.282 2.478s.342 2.478.086 2.82-.77 1.453-.77 1.453l.086 1.453 1.538-2.05c.342-.427.855-.94.94-1.367s-.086-1.966-.086-2.564-.17-1.624.17-.855.855 1.367 1.026 2.137.086 1.196.77 2.308l1.624 2.393-.598-2.564c-.17-.94-.086-1.624-.342-2.82s-1.026-2.82-1.026-2.82a2.84 2.84 0 0 0 .94.94c.598.342 1.282.085 1.624.94s.427 2.05 1.026 2.478 1.795 1.11 1.795 1.11-1.453-2.393-1.538-3.248-.684-2.393-.94-2.906-.855-1.196.085-.427l2.137 1.71c.684.598 1.88 1.538 2.393 1.367s1.367-.342 1.367-.342 1.282.427 1.966.855 1.453 2.137 1.453 2.137l.086-1.196-1.196-1.453s-1.026-.855-1.453-.855-1.538-.513-2.05-.855-2.325-1.958-2.325-1.958l.018-2.316s-.513-1.282-.855-1.026-1.282 1.538-1.282 1.538-1.71 1.624-2.137 1.71-.598.427-1.282 0-1.453-2.82-1.538-1.624l-.085 2.735c-.086 1.026-.94 1.624-.94 1.624z" class="B"/><path d="M-285.96 203.614l-2.05 2.222.513 1.88 2.222-2.393 1.367 1.88 2.735.342c.684 0 3.248-1.7 3.248-1.7s-1.367-.513-2.05-.342-2.906.17-2.906.17l2.05-1.88 2.393-1.88s1.538-1.196.342-.855-2.222 1.367-2.222.513.513-2.222.513-2.222l-2.05.342s-.855 0-1.367 1.026-1.367 1.88-1.367 1.88zm8.546 3.76l2.735-.513 2.393-.342s-.855.855-1.538 1.026-2.393.342-2.393.342zm4.786 1.88l2.05-.684a5.3 5.3 0 0 0 1.709.342c.855 0 1.196-.17 2.222-.342s-1.196 1.367-1.196 1.367l-2.393-.684z" class="C"/><path d="M-292.247 235.25s.725.18 1.027.483.423.423.604.846.242 1.027.242 1.027.423.483.363.12 0-.846-.06-1.27-.725-1.027-.725-1.027zm3.687-.122l.483 1.33c.18.604.18.906.483 1.45s.906 1.088.665.725-.423-.363-.483-.846.06-.846-.18-1.27-.18-.483-.423-.846-.544-.544-.544-.544zm-3.446 2.72c0 .363-.12.665.242 1.088s.665.544.725 1.027a15.28 15.28 0 0 1 .06 1.39s.242-.604.242-1.088-.725-1.45-.725-1.45z" fill="#7b542f"/><path d="M-278.47 230.112c.363.302.967.725 1.27.906s1.148.423 1.57.906.483.967.483.967.423-.906-.242-1.4-1.692-.846-1.692-.846zm15.522 11.808s1.447 2.37 1.806 3.7c.275 1.013.05 2.107.236 3.14.217 1.207 1.02 3.533 1.02 3.533s-.413-2.198-.314-3.298c.078-.867.87-1.658.707-2.512-.355-1.872-3.455-4.554-3.455-4.554z" class="D"/><path d="M-273.03 244.313l1.906 1.875c.392.523.594.926.594 1.906s.046 1.514-.28 1.906a1.65 1.65 0 0 1-.375.313v.47c-.622-.024-1.114.734-1.562 1.75l3.438-.625 1.563 4.53s2.903 4.03 3.53 4.188c.403.1 4.295 2.84 7.094 3.125 1.286.13 2.226-1.268 2.688-1.844-.794-.503-1.47-1.03-1.906-1.47-.785-.785-1.037-1.363-1.625-2.344s-1.78-1.97-1.78-1.97l-.97-2c-.392-.654-1.696-1.517-1.5-1.125s.363 1.05.625 2.75 1.07 3.386 1.594 3.844 1.426 1.387.97 1.125-2.866-1.633-3.062-2.156-.648-2.164-.844-2.687-.55-1.954-.812-3-.497-4.382-.562-2.094.438 4.45.438 4.844.517 2.486.125 2.094-1.687-3.594-1.687-3.594l-.97-2.812s.367.055-.156-1.187l-1.28-3c-.13-.262-1.193-1.78-1.062-1.125l.594 2.75.594 3.28s-.398.054-.594-.47-.53-.91-.53-1.562-.125-2.5-.125-2.5-.457-.83-.72-1.156-.324-.13-.78-.72-2.562-1.312-2.562-1.312z" class="B"/><path d="M-263.214 248.358s.85.523.98 1.308.13 2.877.13 2.877.523.13.588-.196-.262-1.896-.327-2.484-1.373-1.504-1.373-1.504zm3.27 3.072c.065.392.588.98 1.1 2.288s.392 1.896 1.1 2.157l1.242.458s-1.046-.262-1.046-.98-.13-1.177-.13-1.7-.523-1.96-.523-1.96zm1.895-4.64c.196.72.458 1.308.458 1.83s-.13 1.438-.13 1.438-.196 1.242.065 1.765l.458.915-.13-1.504c0-.327.327-.98.458-1.308s.196-.523.196-.785-.262-1.046-.458-1.373-.915-.98-.915-.98zm.925 7.116c-.193-.034-.242.04-.062.22.72.72 1.946 2.025 2.47 2.156s1.505.244 2.094.375l1.438.28.313.156.875-.656-3.75-.78s1.248-.934 1.72-1.562l.156-.187c-.235.125-.47.237-.625.28l-2.28.656s-1.765-.836-2.344-.937zm2.03 4.375c-.458 0 .125.875.125.875l.97.5a6.23 6.23 0 0 0 1.375.344l1.563.125 2.406-1.25h-1.625l-3.312.25.938-.687-2.437-.156z" class="N"/><path d="M-266.55 230.38c.327 1.177 1.046 2.55 1.11 2.942s.785 1.96 1.177 2.354 1.308 1.177 1.308 1.177.523.392.654.85l.523 2.027s-.13 1.177.196 1.57.785.654 1.11 1.242.785 1.765.785 1.765l.13-1.83c0-.458-.523-2.027-.654-2.42s-1.177-2.746-1.438-3.204-2.223-1.83-2.223-1.83z" class="D"/><path d="M-281.877 210.543c.537-.805 1.073-1.878 2.683-1.6s2.28.67 4.427.94 3.89.268 5.5.268 3.89-.94 4.427.134.67 3.89.67 3.89-.537 4.16-2.012 3.757-4.83-.94-5.367-.805.134 2.28.134 2.28 1.207 5.635.268 5.903-2.28-2.28-3.086-3.488-2.28-3.488-3.22-4.293-2.28-2.415-2.28-2.415z" class="M"/><path d="M-270.798 220.833s-.13 1.504-.065 1.896.654 1.308.785 1.7.327.85.458 1.438.327 1.96.327 1.96-.13.588.196.785 1.177.392 1.438.588 1.046 1.438.915 1.177-1.504-2.288-1.504-2.288l-.262-.915s.72-.262.98.196 1.634 1.373 1.634 1.373l-1.308-2.42-.262-1.308s-.458-.065-.785-.327-.262-.523-.85-1.242-1.7-2.615-1.7-2.615z" class="D"/><path d="M-280.605 210.96c.327-.392 1.242-.785 1.634-.85l1.242-.262-.392.72h1.1s.72-.523 1.438-.392 1.373.785 1.765.785 1.83-.065 2.288.13l1.896.785-2.157-.262c-.392-.065-1.504-.13-2.027-.196s-1.308-.523-1.634-.588-.458-.196-1.242 0-1.504.327-1.765.327-.72-.196-1.177-.065-.98-.13-.98-.13zm7.005 3.205s.588-.523 1.1-.588 1.1-.392 1.373-.458-.196.458-.392.72-.327.392-.327.392h.72c.262 0 .915.13 1.1-.13s.85-.72.85-.72l.196 1.1h.915c.523 0 .98 0 1.242-.262l.785-.72c.458-.392.392-.392.85-.588s1.1-.262 1.1-.262-1.046.196-1.242.523-.327.85-.588 1.1-.523.915-1.046.98-1.177.065-1.634.065-.98.13-1.634-.13-.915-.523-1.504-.588-1.046 0-1.308-.065-.588-.392-.588-.392zm-7.986-2.55c.588-.065 1.242-.13 1.7.13s1.373.654 1.7.85.588.588 1.177.654 1.1.13 1.438.458.98 1.046 1.438 1.242 1.504.785 1.504.785l1.438.588c.327.13.523.196.915 0s.588-.458.588-.13-.13.523.262.523.785-.065 1.308-.065 1.373-.13 1.373-.13 1.438-.327 1.7-.262.72.327.72.327.196.262-.065.327-.85-.262-.85-.262l-1.765.262-1.96.065c-.392 0-1.96.196-2.484.065s-1.83-1.046-1.83-1.046l-1.57-.915-1.1-.85s-1.046-.785-1.373-.785-.13.196-.85-.065-1.896-1.046-1.896-1.046l-1.046-.588z" class="C"/><path d="M-280.736 213.772c.327.065.85.523 1.242.588l1.896.327c.392.065 1.57.196 1.046.065s-1.11-.13-1.373-.458-.196-.392-.654-.458-.196.065-.785-.065-1.373 0-1.373 0z" class="N"/><path d="M-275.436 216.982c.555 1.387.555 2.127 1.017 2.496s1.1 1.1 1.48 1.572 1.387 3.883 1.294 3.05-1.1-3.976-1.1-3.976l-1.664-1.202z" class="D"/><path d="M-283.28 199.22c-.312.15-.66.294-1.125.47-1.367.513-2.156 2.813-2.156 2.813l-.437.25c-.427.256-.677.62-1.53.875s-.76.66-1.187 1.344-1.375 1.125-1.375 1.125-1 .096-1.437.438l-1.47 1.28s-1.198-.092-1.625.25-1.268.68-1.78.938-1.622.5-2.562.5-.94-.004-1.625-.687-1.47.454-1.812.625-1-.008-1.437-.094-.69-.952-1.03-.78-.414 1.104-.5 1.53-.937 1.563-.937 1.563l-1.906.5c-.598.17-1.018.087-1.53.344s.015.256-.156 1.28l-.094.53c.314.492.698.854.97.72.37-.185 1.224-1.193 1.594-1.562s.548-1.38 1.75-1.656 2.318-.754 2.688-1.03.538-.562 1-.562h1.5c.462 0 1.57-.72 2.125-.72l2.75.094c.462-.093 1.76-1.03 2.406-1.03s1.663-.47 2.125-.656 1.135-.445 1.875-1 2.125-1.22 2.125-1.22l1.188-2.03 2.594-3.406s.304-.2 1.03-1.03z" fill="#7b542f"/><path d="M-291.92 208.7c-1.063 1.196-1.33 1.33-2.126 1.33s-2.26.266-2.26.266l-.93 1.33s1.46-.53 1.993-.53 2.524-.53 2.524-.53z" class="C"/><path d="M-272.68 201.05c-.573.23-2.294.23-3.097.344s-2.064 1.032-2.523 1.49l-2.18 2.064 2.867-.573c.688-.115 1.835-.115 1.835.573s-2.523 1.95-2.523 1.95l-2.523 1.49 3.555-2.294c.573-.46 4.014-1.147 4.014-1.147l1.49 1.032-.803 2.18s1.032.115 1.49-.115 1.95-.344 1.95-.344.23-.23.344-.688-.115-.917.46-1.49l1.49-1.606s-.803-.23-1.262.23-1.835 1.147-1.835 1.147l-2.18.23-1.49-1.95z" fill="#937536"/><path d="M-216.18 252.354c0 1.594.266 4.783-.53 6.11s-3.454 6.908-3.454 6.908 3.72-3.72 4.25-5.048 2.39-3.72 2.39-3.72l-.797-.53z" class="C"/></g><path d="M417.7 586.914c-1.99 0-9.16-.398-11.948-.797s-11.948-2.4-11.948-2.4-6.77 3.584-6.77 6.372 1.99 5.576 5.576 5.576 10.355-2.788 13.142-2.788 8.762.398 11.55.398 6.77-.398 7.965 1.593 1.99 4.38 2.4 5.974-3.584 4.38-3.983 6.77 1.593 7.567 5.177 7.965 9.16-1.593 9.956-4.38 3.584-14.735 3.584-14.735-4.78-2.4-8.363-3.584l-11.948-3.983z" class="J"/><path d="M427.92 645.06l-3.642.548-1.972 2.547 3.067 2.19.876-1.013 5.367-2.3-1.013-1.588-2.684-.383z" class="C"/><path d="M426.94 613.08c0 1.69.507 4.736.846 5.412s6.258 6.596 6.258 6.596.17-.677.677-1.522 3.552-5.412 4.567-6.258 3.9-4.398 3.9-4.398 1.522-3.214 2.2-6.596.846-7.104.846-7.104l-2.537-2.03-1.353 5.92c-.17 1.69-3.214 7.442-3.214 7.442s-2.875 3.045-3.9 3.045-8.288-.507-8.288-.507z" class="G"/></g><path d="M148.283 584.02h156.72" fill="none" stroke="#0a0a0a" stroke-width="1.611"/><path d="M168.95 607.18h-1.653l-2.48 1.102-1.928.275 2.066.275 2.48-1.377zm-1.377 1.93l1.377-.826 2.755.275-2.48.275z" fill="#6a4222"/><path d="M148.862 520.19l-.082 42.282v24.318c.12 4.024.202 10.34.22 17.718v.685l-.33 66.983-.082 2.793c.026 1.087.132 1.906.575 2.958.587 1.39 2.903 3.478 2.903 3.478l33.6 14.486s26.706 12.12 41.022 13.008c.08.005.166-.004.246 0 .08-.004.167.005.246 0 14.316-.89 41.022-13.008 41.022-13.008l33.628-14.486c.044-.04 2.294-2.1 2.875-3.478.41-.974.536-1.745.575-2.71l-.082-3.04-.3-73.856.164-11.53V562.47c-.296-13.388-.108-27.28-.082-42.282h-156.12z" fill="none" stroke="#0a0a0a" stroke-width="1.612"/><path d="M164.47 680.812c2.74 0 26.018 2.74 26.018 2.74s7.532 2.054 14.036 4.108 19.974 14.32 23.055 13.293 11.522-6.446 13.576-7.13 2.74-7.532 2.74-7.532l-9.928-2.74c-2.396-.685-13.694-1.027-16.433-1.37s-18.83-4.45-18.83-4.45l-7.874-4.45s-2.054.342.342 2.396 8.56 5.82 8.56 5.82 7.19 3.08 4.108 2.396-19.856-6.162-21.9-6.162-17.46 3.08-17.46 3.08z" fill="#a5833d"/><g class="K"><path d="M164.84 679.142c-1.216 1.46-1.945 3.404 0 3.647s3.404-1.216 5.592-.973 4.863 1.46 8.997 1.46 13.13 1.702 13.13 1.702l6.08 3.16c1.703.972 4.863 1.46 5.836.243s2.188-4.377 1.216-5.106-1.702-1.702-3.9-1.216-5.836 1.702-5.836 1.702l-7.78-1.216c-.973-.243-2.675-1.702-5.35-1.46s-6.565.243-7.78 0-3.404-.486-5.35-.486-4.863-1.46-4.863-1.46zm79.5 2.675s-2.918 2.188-3.9 2.188-2.675-.73-3.9-.243-3.16 2.918-3.16 2.918-1.216 1.46-.243 1.46 3.16-1.702 4.62-1.46 1.945 3.404.973 3.9-3.16.486-4.377.486h-2.675s-4.377-.486-3.9.486 2.675 1.702 2.675 3.404-2.188 4.134-3.404 4.134-3.404.243-4.863-.486-5.106-3.647-1.945-.973 5.592 3.9 7.05 3.9l5.35-.243c2.675-.243 6.322-1.46 7.78-1.46s6.08-1.216 7.294-1.945 2.432-1.46 2.918-3.404-.973-5.106-.973-5.106-1.46-3.9-2.188-4.377-3.16-3.16-3.16-3.16z"/><path d="M202.246 689.786l7.25 2.416c1.074.537 11.545 5.37 11.545 5.37l-8.6-7.25-7.25-3.5 2.416 3.5zm5.37-5.638l9.128 6.444 11.008.268-10.47-2.416zm-18.256 4.564l13.156 9.665 10.47-2.148c-9.705-1.287-16.577-4.46-23.627-7.518z"/></g><path d="M184.775 669.423c-.242 2.18.242 5.568.242 5.568s10.893-.726 9.683-2.905-2.42-4.84-2.42-4.84c-3.156.072-5.64.816-7.504 2.18z" fill="#a06434"/><g class="K"><path d="M174.82 671.86v3.63s4.6-.242 5.8.242 6.778 1.695 6.778 1.695l-7.02-3.4-.484-.968zm-.596.443l.342 3.595c.17.685.685 1.712 1.54 1.883s2.568.17 3.766.17 2.9-.342 2.9-.342l-6.162.856c-1.198 0-3.08-.17-4.45-.342s-2.568.514-2.568-.17.514-2.225 1.198-3.08 3.423-2.568 3.423-2.568zm79.596 20.954l1.732-2.165 7.36-.866 5.63 4.33-6.494 3.03zm-57.17-17.923l3.766 2.74 12.667 1.37-14.38-.685zm14.72 8.216l7.874 3.423c1.712 1.027 10.955 2.054 10.955 2.054s-8.216-3.08-9.586-3.08-9.243-2.396-9.243-2.396zm2.397-1.7c1.37 0 13 2.396 13 2.396l4.108.685zm-21.567-2.397c1.37.342 11.64 3.423 11.64 3.423l-7.2-2.74zm60.252 0l3.423-.685s1.37 1.027 3.08 1.027 5.478 1.027 5.478 1.027l-6.505.685-3.08-1.027z"/><path d="M241.497 678.073l-3.423-1.027s-3.08.685-4.45.685h-2.054s3.423.685 4.793.685 5.135-.342 5.135-.342zm43.82 6.162l5.478-2.054s5.82-.342 4.108-.685-6.162-2.396-7.532-1.027-2.054 3.766-2.054 3.766zm-64.36-1.71c2.396 0 8.56 1.37 9.928 1.712s4.45.685 2.74 1.027-6.505-.342-7.874-.685-4.793-2.054-4.793-2.054z"/></g><path d="M249.37 680.127c2.054 0 5.135 3.08 7.19 3.423s7.19 1.37 8.9 2.054 6.847 1.027 6.847 1.027-7.19 1.37-8.56 1.027-3.08-1.37-6.505-2.054-7.874-5.478-7.874-5.478z" fill="#a5833d"/></g></svg>