<svg xmlns="http://www.w3.org/2000/svg" width="1920" height="1200" shape-rendering="geometricPrecision" image-rendering="optimizeQuality" fill-rule="evenodd" xmlns:v="https://vecta.io/nano"><style><![CDATA[.K{stroke-width:.9}.L{stroke:#f4c600}.M{fill:#f4c600}.N{fill:#d32927}.O{stroke:#d32927}.P{stroke:#1f1a17}.Q{fill:#1f1a17}]]></style><g class="K"><path d="M.054 0H1920v1200H.054z" class="L M"/><path d="M.03 0h1919.95v399.84H.03z" class="N O"/><path d="M168.944 33.947c.132 2.836-1.878 7.05-1.878 7.05-12.03 2.17-5.64-14.1-12.403-19.162 7.14-.722 13.95 4.976 14.28 12.112zm-29.69.905c6.764 15.184-3.758 36.514 12.778 45.913 4.134 1.085 7.14-2.168 9.02-5.06-2.256-9.038-10.902-14.46-10.15-25.308 7.14-5.422 22.55 5.062 26.308-7.952 1.128-2.17 3.384-1.447 5.263-1.447 15.785 16.27-10.9 32.538 1.128 47.722 27.8 17.715 52.242 50.975 90.2 50.252 44.725 12.654 96.592 14.463 144.322 15.548-1.504 6.506-16.16 3.974-10.9 14.822 4.512 5.062 10.9 10.122 18.043 11.206-4.136 3.978-6.017 11.2-11.653 12.294 13.154 3.615 16.537 19.522 28.563 24.223 2.633 2.9 4.135 6.868 7.518 8.675 16.912-11.206 18.04-35.07 27.06-51.337l4.5 1.807c-7.518 22.776-23.303 49.168-14.66 77.367 31.195-11.57 27.814-46.998 40.6-69.413 1.128 0 3.008-.723 3.76.724-3.007 18.438-12.402 34.344-12.778 53.867 3.007 3.617 9.02 4.7 12.778 1.808 3.758-2.17 10.898-5.06 14.283 0 1.502.723 2.255 3.255 4.5 2.53 1.502-16.993 25.557-5.424 27.06-19.885-1.127-1.446-3.383-.723-4.5-2.9v-1.447c11.276-1.447 27.813-5.784 36.08 4.338 1.505 4.34-3.758 3.978-6.4 5.062-3.38 1.447-6.013-2.53-9.018 0 .376 3.253 9.018 8.316 1.878 12.292-7.14 1.446-13.905-3.254-19.92 0 2.255 8.678 13.905 10.486 21.046 15.546 3.007 5.785-6.014 10.486-10.147 13.016-7.894.363-15.034-4.338-22.55-2.53 1.504 6.868 9.397 9.762 15.4 11.93v1.806c-15.034 2.53-28.94-3.617-39.84-13.737h-3.383c-1.13 7.952-2.256 18.437.75 26.03-9.396 1.085-13.905-7.955-18.793-14.1-6.4-7.955-4.885-20.6-16.16-24.948-3.758 3.98-.75 9.763.75 13.74-6.764 6.87.377 24.224-14.28 23.5-7.892-8.678-13.155-18.798-24.43-22.776-1.88-12.293 1.505-25.67-10.147-32.9-2.63 7.232-.752 18.438-9.77 20.97-3.383-18.438-34.578-37.598-9.772-55.676 0-2.53 0-5.422-3.006-6.868-1.504 1.446-4.135.722-6.014.722 0-10.483 5.26-30.007-8.27-35.43-42.845-3.253-86.066-6.146-126.28-15.547l-8.268 1.808c37.207 23.14 84.563 6.87 121.773 29.285 6.012 3.254 7.9 12.292 5.636 19.16-3.383 6.146-3.758 14.46-10.9 18.074l-14.283-5.783c-2.63 4.698 5.263 7.952 3.383 13.74-7.514 1.806-7.514-9.04-12.4-13.017-4.136-2.893-7.894-5.785-12.78-6.146-3.758 5.062 2.255 10.485 2.633 15.547-12.027.722-11.652-16.992-24.43-18.078-2.63 6.5 4.5 11.2 5.64 17.354-10.9 1.084-12.78-25.306-26.3-13.74-2.63 3.978 9.398 10.847 0 9.4-7.14-6.507-9.77-21.332-22.55-16.63.754 2.894 2.258 5.062 1.882 7.954-7.893-1.807-9.398-24.945-20.672-14.822.376 2.53 3.383 5.424.75 7.952-9.396-5.06-10.524-18.797-20.672-22.775-3.383 2.893-1.128 8.675-1.88 11.57-4.508 1.084-6.764-7.6-10.898-1.807 30.066 30.367 73.287 50.615 121.772 50.25 3.006 1.085 4.886 3.98 4.5 6.87-4.135 5.785-10.524 2.172-16.16 1.808l-.754 5.06c-7.9-4.697-14.28-12.653-24.43-11.93-5.26 3.615 3.008 10.485-3.756 11.93-7.143-5.422-6.015-19.883-18.794-18.076-7.9 3.615 9.396 25.306-8.27 14.823-4.134-7.6-4.885-19.524-16.16-23.498-7.892 3.252-3.383 11.928-4.5 17.352-7.14-2.53-4.5-11.57-7.14-17.352-2.255-1.8-2.255-6.146-6.4-6.146-6.387 1.084-2.254 8.314-3.382 12.3-10.146-3.254-1.504-19.884-14.657-22.776-3.383-.724-7.14 1.084-7.14 4.338-.374 4.7 3.007 7.593 1.88 12.294-6.767-2.53-9.02-10.847-9.02-18.08-2.255-3.974-4.5-8.675-10.147-10.484-5.64 3.615-3.384 11.93-2.632 17.354 1.878.723.75 2.167 1.128 3.252-10.524-3.252-7.14-16.63-9.02-26.028-3.006-2.53-4.134-7.593-9.02-6.87-5.64 6.87-4.512 18.076-4.512 25.306-13.153-6.868-4.5-26.03-14.656-34.707-1.504-2.53-4.135-2.893-7.14-2.53-6.4 4.338-3 13.737-2.63 19.885-4.887 0-8.646-6.148-10.15-10.485-9.02-21.332 14.66-35.07 3.76-54.592-2.256-11.2-15.785-18.438-27.06-19.885-10.9 1.084-22.552 12.654-32.323 3.255 1.502-8.676 12.027-15.908 3.383-26.03 0-3.255 4.134-5.063 7.142-5.063 13.154-.36 24.053 7.593 30.817 18.078 2.256 2.53 6.767 3.615 9.772 1.808 7.518-11.2-8.268-15.185-13.53-21.692-7.14-3.978-16.16-5.424-20.672-13.74.754-13.74 17.666-15.184 19.168-28.924 2.63-8.676 15.4-2.53 14.283 5.425zm-27.81-1.808l-1.128 6.87c-15.035 7.954-18.417-6.87-32.5-6.418-6.373.206 7.046-7.682 14.47-7.32 7.515-.363 15.785 1.084 19.17 6.868zm405.906-6.868c4.5 9.037-6.013 21.33 5.26 26.75 11.653-11.206 25.935-16.63 41.343-19.16l10.9-6.87c-5.262 9.4-13.53 17.715-15.4 28.56 7.14 3.615 10.148-7.592 16.537-8.676 13.907-1.447 25.182-8.315 36.834-15.546-.377 14.822-16.54 24.222-23.303 35.8l2.63 2.53 28.94-7.954c-19.544 15.906 1.504 45.553-21.8 58.93 6.764 3.617 12.404 7.232 16.163 14.1.75 7.6 0 14.823-6.4 19.885-9.774 6.506-24.054 10.844-36.08 5.06 0 16.27 18.8 22.415 25.557 34.707-15.034 12.293-29.693-3.253-43.598-6.868-1.88 6.868 3.383 13.015 5.637 19.16-4.133 1.085-15.785-6.868-18.04 3.615-1.878 3.977 6.765 7.955 0 10.123-9.02-.722-16.537 1.446-24.43 2.9 3.007-15.544 2.256-37.598 22.553-44.467-1.88-11.93 13.904-9.038 17.285-15.547l-23.676-6.146c-3.007 5.424.377 16.63-9.02 19.884s-18.042-.722-24.43-7.6c-3.007-3.615 1.88-6.507 3.007-9.762 6.765 2.53 14.658.36 18.04-5.785l1.505-1.806c-2.256-3.978-6.014-.363-9.772-2.53-3.38-3.254-10.147-3.254-11.65-7.232 5.637-.36 10.147 4.34 15.4 2.893-1.127-7.6-9.396-9.038-15.4-10.483-3.758-.363-6.4 3.253-8.268 6.146l-5.263-2.894c-6.764 13.74 21.8 25.308-2.632 30.37-9.02 1.447-12.778-8.316-16.537-13.737-3.38-10.124 12.404-11.2 10.9-19.163-10.524-.722-18.792-8.676-27.813-10.483 3.758 9.762 16.16 18.8 6.4 29.647 10.147 13.013 4.5 29.645-3.007 42.66-1.878 2.168-4.887 2.9-7.892 2.53 0-6.146-9.398 1.083-7.14-6.146-3.008-2.53-8.27-1.084-6.4-6.87 3.76-.723 8.27-5.785 7.892-10.485.754-4.338-.75-7.954-4.5-10.485-3.383-.363-9.02 1.447-10.522-1.807-1.128-5.062 6.764-.724 9.02-4.34 5.64-3.976 0-11.207 2.63-16.27l14.282-9.76c-3.006-1.447-4.886-7.956-9.02-4.34-7.142 4.7-6.767 17.354-16.913 17.354-9.772.723-18.794-3.255-24.43-8.678 12.405-1.446 25.935-5.06 32.322-17.354.754-6.145-4.132-7.592-6.387-13.015-4.5-9.4-3.382-23.5 3.007-31.815 6.763-4.338 9.77-11.57 18.04-12.3-.75 3.614.377 9.4 4.512 11.206 10.898-.36 6.764-14.1 11.65-20.608 6.013-2.9 6.764-9.4 7.9-14.823l5.64 19.885c6.012-17 28.938-18.438 37.958-32.898zm528.432 28.56c22.55 3.254 49.6 7.6 63.894-13.74l7.518-9.76c1.5.36 3.38 2.17 3.38 3.615-2.257 13.737-15.4 26.4-25.935 31.1-14.28 6.87-39.087-1.446-55.998 3.615 3.758 4.7 12.778.723 15.4 6.87-40.215 3.977-69.906-22.416-112.753-16.63-16.16.723-32.7 1.446-46.98 6.146.752 3.615 4.508 3.254 7.14 4.338 36.458 1.808 71.4-.723 104.485 8.678v1.083c27.8 7.593 63.893 13.74 92.08 2.53v3.254c-56.375 30.37-104.483-17.715-164.24-5.785-.377.723-1.88 1.085-1.504 2.53 10.898 1.807 24.054 7.955 27.06 19.885 1.505 7.952.754 17.354-3.005 24.222-4.887-6.146-1.13-15.907-7.142-21.7-9.02-12.293-22.55-17.354-37.96-17.354l-1.504 1.808c10.902 2.53 23.302 7.954 28.565 18.076 3.006 7.593 6.014 18.076 1.127 25.307-3.758-9.762-6.013-23.138-19.167-28.56-22.175-17.353-54.497-11.93-81.182-19.16-21.423-7.954-19.92-38.322-45.1-36.515-32.323.36-64.645 1.084-90.954 15.546 29.692-5.422 63.516-11.93 96.592-6.868 2.63 1.084 4.885 4.338 2.63 6.868-28.2-2.168-60.887-4.338-84.94 8.678-3.758 3.977-3.758 9.4 0 13.015 21.422 17.715 49.05 12.554 81.182 14.1 28.187 1.355 67.65-7.593 98.47 3.253-51.5 9.04-111.624 11.932-166.12 5.422-12.404-2.9-24.054-7.954-36.082-12.3-3.007 2.53 1.505 4.337 3.007 6.145 21.047 17 47.64 15.093 77.424 18.076 48.692 4.876 93.586-3.615 139.812-7.592l3.76 1.808c-52.244 17.714-143.76 15.455-175.143 10.123-33.7-5.728-67.274-6.507-77.422-39.77-1.128-12.653 6.767-23.138 18.04-29.646 48.107-24.946 102.5-21.5 166.872-24.222 67.605-2.85 130.136 2.7 194.686 23.5zm298.42 5.06c4.885-6.146-4.5-11.568-5.263-18.077 19.544 7.592 30.443 32.9 54.873 26.754 5.263-2.17 3.007-6.508 1.127-9.4-4.508-5.424-14.28-10.485-15.408-18.077l28.94 13.015c6.387-2.168-1.128-6.507 0-10.483 3.383 0 4.885 3.977 9.02 2.53 4.135-3.976 0-8.676 0-13.015 9.396 3.977 13.908 16.27 24.43 19.883 5.263-2.9-3.007-7.952 0-11.93 10.524 2.893 22.55 16.63 29.692 26.753 12.778 1.447 27.437 8.315 39.462.724 3.758-8.678-7.14-11.57-7.14-19.885 6.765 5.06 13.155 7.592 19.167 12.293 1.502-7.232-6.4-13.016-5.64-20.97 7.894-1.085 13.154 13.013 19.168 6.145l-1.878-4.338c9.02 2.893 13.53 13.016 20.67 18.077 2.256 2.893 5.637 1.085 6.4-1.446-1.128-5.425-5.26-11.207-3.757-15.907 13.905 4.7 19.543 18.076 32.697 24.583 42.848 1.447 87.573.723 123.276 18.8 10.525 5.424 16.162 15.907 19.92 25.307 10.524-13.737 31.945-13.737 48.86-10.485 23.678 5.424 43.975 29.646 70.283 18.438-4.135 11.932-15.034 27.477-29.693 28.56-26.308.36-46.227-14.1-69.53-20.97-28.94 1.447-22.926 41.94-54.122 42.66-45.476 7.6-93.208 0-139.813 0-88.322-4.7-174.012-15.184-261.583-20.97-10.147 1.807-21.05 1.085-29.692 6.148 75.92.722 143.196 27.475 219.115 31.1 69.156 6.87 147.705 40.853 213.854 4.338 10.524-4.338 17.288-11.57 28.938-13.74 11.652 13.74 25.558 29.284 43.224 32.9.374 6.508-8.27 10.122-7.14 15.546 6.013-.723 11.274-6.145 14.28-10.122 2.63 5.42-2.254 11.206-4.5 15.546 5.262 1.084 11.652-1.808 15.4-4.34.75 11.57-9.77 18.8-19.168 24.224-1.504 1.084-3.758 1.446-5.262 3.613 10.9 2.53 20.295-3.976 29.7-7.954-1.502 20.248-30.067 23.863-45.853 33.985 2.257 6.145 11.653 4.7 16.162 2.53 4.5-5.783 12.778-7.952 18.8-4.338 2.255 2.53 6.4 4.338 6.4 7.593-13.532 3.615-25.18 10.846-40.6 10.485 0 1.447 1.505 2.9 2.63 2.53l26.3 2.9c-7.517 5.784-18.04 13.377-30.82 10.122-1.878-1.444-4.133-1.806-7.14-1.444-1.127 10.845 13.53 11.93 20.673 17.352-4.136 5.062-13.155 4.702-19.545 3.255-6.013.363-12.777-4.7-17.287 1.085l10.9 8.675c-8.27-1.084-15.787.724-21.8 5.062l10.147 10.483c-12.027 3.98-22.926-3.614-35.327-3.614-5.64-3.615-12.027-11.207-18.795-6.87 2.63 4.337 7.518 7.952 11.652 12.3-19.92 5.787-27.8-23.138-48.86-24.582-5.263 5.422 5.263 6.507 4.5 12.292 1.88 3.976 4.135 8.678 1.88 13.015-8.644 7.955-9.772-6.508-19.922-.724-3.005 3.617-4.13 7.956-9.77 8.68-5.637-1.085-9.774-1.447-11.652-6.146-4.5-8.676 12.778-18.077-1.127-20.97-15.4 6.508-3.006 17.353-12.403 26.03-3.383 3.617-8.646 1.085-12.027-.723-.376-2.53-2.256-4.338-1.502-6.87 6.764-.36 13.152-2.53 16.9-7.954-1.127-1.083-1.127-2.53-2.63-3.614-7.14 2.893-14.658 9.76-22.55 5.424-6.014-4.34-7.892-10.122-10.9-15.547 4.136-7.6 13.908-3.976 19.922-4.337 3.005 2.168 6.4 3.974 10.9 3.252l4.508-4.337c-7.14-8.316-18.416-13.737-29.7-11.206-8.643 4.698-14.28 18.438-25.556 13.737-2.256-2.893-3-6.146-2.63-10.124 5.26-4.338 11.65 4.338 17.288-1.084l4.5-5.06c-3.758-2.894-9.77 1.806-14.658-1.084-4.135-4.34-8.268-13.017-5.26-18.8 11.272-6.87 21.422 4.7 32.322 5.784 7.9 5.06 19.167 9.04 28.186 3.615-.75-6.146-7.518-8.315-12.778-9.4 3.383-4.338 11.65-1.807 12.778-7.954-3.76-9.04-12.402 2.9-17.287-3.615 12.4 0 8.268-19.885 22.55-13.74 10.146 7.954 16.537 27.84 33.45 26.754 11.653-1.084 22.175-6.5 29.7-15.547.754-5.062-.374-9.76-2.63-13.74-48.108-32.537-119.14-17-169.505 0-41.342 7.6-90.202 15.184-131.92 3.254l3.006-1.447c64.645-1.084 127.786-6.145 185.665-22.775 8.27-1.447 17.3-.363 24.43-4.338-5.263-14.463-21.422-25.308-35.33-31.094-7.893 5.786-16.913-7.6-25.932-1.807 3.38 5.062 16.16 7.593 12.403 16.63-7.517-9.4-19.17-16.63-31.57-18.438l-1.88 1.807c5.262 5.784 12.403 9.4 16.54 15.547-6.014.723-10.148-7.593-17.3-6.146l-1.88 1.807c5.64 3.977 12.403 10.483 14.66 17.353-2.63.724-7.14-5.784-10.9-3.253 3.384 2.53 4.512 8.678 2.63 13.016-18.8 7.952-43.597 3.977-61.26-3.617l-20.673-16.63c-3.758 3.977-.75 9.398.754 13.013 1.878 1.8 3.756 4.338 1.878 6.148l-3.758 1.808c-18.8-1.085-28.2-14.102-43.972-22.416-2.63 7.955 11.65 15.184 5.26 21.692-14.282-3.978-27.437-9.763-38.713-20.245-4.885 7.23 9.022 11.568 10.9 18.438-10.147-1.8-21.046-6.148-30.067-13.016-1.88 4.7 3.008 9.038 6.4 13.016 1.878 3.977 12.027 2.53 7.14 7.6-10.15.363-17.663-6.145-25.935-11.206l-3.756 5.422-10.9-12.293c-3.385 3.254 0 10.486-6.013 11.2l-10.15-18.077-5.26 11.206c-7.143-5.424-12.78-14.1-16.162-22.415-3.38 1.8-4.135 5.062-3.758 8.678l2.63 2.53c-1.88 1.807-4.5 5.06-7.14 2.53-4.134-8.315-10.898-16.268-8.27-26.03-3.006.363-6.765 5.785-9.02 9.4-6.765-9.762-12.027-25.3-27.813-24.222-3.758-.363-6.765.36-9.02 3.613 26.308 33.625 62 67.246 105.6 71.946l52.244 5.062c-49.612 6.507-96.968-1.807-131.545-34.708-16.537-32.176-49.6-57.123-85.7-62.183-16.537 0-33.826-1.084-48.1 4.337 33.827 1.808 68.78 3.617 92.08 27.477 2.257 13.74-18.416 15.907-16.16 29.646 3.38 9.04 6.4 20.968 16.16 24.223 4.135.36 8.644 3.254 12.78 1.084.373-1.084 2.254-4.34 2.63-2.893 6.387 6.87 10.146 15.9 7.14 25.308-3.383 3.978-4.512 10.486-2.63 15.546 4.5 2.17 2.63 6.87 3.758 10.486-11.653 3.977-22.175 2.168-31.57-6.148-3.008 2.17-2.255 6.87-1.128 9.763 3.758 2.9 9.02 5.42 10.9 9.4l-19.92-6.146c-3.383 5.422-4.5 11.57-6.4 17.353-8.268-1.446-16.913-9.037-25.934-8.678-3.007 7.232 11.276 9.04 3.382 14.825-10.522 2.9-17.287-11.2-25.932-5.062 1.878 3.615 3.76 8.678 1.878 13.016-9.02 6.146-31.194-26.03-24.428 1.447-7.14 3.976-7.894-6.146-13.53-7.593-5.263 1.447-5.263 7.593-3.758 11.2-9.02-.725-17.663-13.016-25.935-6.146-1.127 5.42 1.128 9.038 5.263 12.292-13.155 3.255-18.8-9.76-30.82-11.208-3.007 4.337 5.636 6.146 3.757 11.208-9.396 2.53-21.046-16.993-24.428 0 3.005 1.084 5.636 3.977 4.5 7.592-6.765 1.807-14.283-1.084-18.793-5.062s-6.765-11.206-13.53-12.3c-3.383 3.254 3.005 5.06.75 8.675-6.014 2.893-11.652-9.038-14.283 0-1.127 5.424 5.263 7.955 4.5 13.017-16.537-3.98-37.96-10.124-41.718-29.285l-5.263-5.424c-7.14 4.34-.75 15.548-5.26 21.692-2.63 1.808-6.013.725-9.02 1.085-4.886-6.507-8.27-15.907-18.04-15.546-4.885 1.084-9.396 5.422-14.66 2.53-10.522-11.928 22.553-18.437 4.5-27.835-10.522 1.444-8.643 19.883-21.423 13.013-4.5-9.038-12.4-13.376-21.046-17.354.376-3.976 7.14-7.954 12.027-8.676 16.537-7.592 45.853 26.03 43.22-6.868-10.9-11.57-27.813-3.254-40.6-6.87 0-9.762 2.63-20.97 7.892-28.923 19.918 1.446 32.698 15.183 46.23 29.646 7.14-3.254 4.13-13.016 3.38-19.16l-7.892-8.678c2.63-4.7 10.148-1.446 14.283-4.338 10.146-.724 17.663-14.46 28.187-6.868-2.256 7.952-4.134 16.63-1.878 25.306 7.9 12.654 21.422 22.776 36.08 26.03 30.066-1.447 62.014-1.085 84.563-18.438-28.564-3.254-65.395-5.062-79.303-34.708-3.383-14.1 5.64-18.8 12.778-28.56 10.525-8.315 21.8-15.184 34.954-17.354l3.007-2.53-3.007-1.808c-113.127-9.398-198.067 52.785-298.42 76.286-27.436 5.42-55.998 15.543-85.7 7.952.75-5.062-2.254-8.316 3.757-10.485 125.53-1.447 222.876-73.754 347.277-81.708 3.76-1.084 9.02-.722 11.653-3.253-26.686-2.893-55.625.724-79.304 6.868.377-1.444-1.128-2.53-1.88-3.615l-3.758 3.615-1.878-4.337-5.263 4.337c-.374-1.084.75-2.9-.75-3.615l-4.508 3.615-3-2.53c-1.127 1.087-1.127 2.53-2.63 3.256.75-1.447-.75-2.17-1.88-3.256l-5.262 5.062L877 195.36l-7.14 6.146c0-1.806-.754-5.42-2.63-3.615-4.512 2.53-1.88 10.486-9.02 8.678.377-2.168 2.63-3.977 1.88-6.868-5.64 1.083-7.14 7.6-12.027 11.206 1.502-2.53 1.502-6.87 0-9.4-6.013 2.894-5.64 11.57-12.403 13.74l-1.127-7.954c-4.886 4.337-6.014 11.2-12.404 14.1.752-2.9 2.632-9.038-1.128-13.015-7.14 5.42-6.764 13.376-15.032 17.353 0-4.7 3.757-9.76 0-14.1-7.894 3.98-4.886 14.825-13.53 18.44.75-6.5-1.128-12.656-6.4-15.546-.75 7.952-1.127 19.16-10.148 20.606 1.505-6.506-1.127-13.376-5.26-16.268-3.76 6.87-3 16.268-10.9 20.607 1.88-5.784 1.128-12.653-2.63-17.353-6.014 8.315-4.886 22.053-18.04 25.3 2.63-5.062 6.4-14.46 3.76-22.778l-3.008-2.53c-4.884 8.678-6.4 21.33-18.038 24.222 3.382-6.145 5.26-15.544 1.878-22.414-4.5 7.6-7.894 19.522-18.04 23.5-1.504-7.232 3.383-15.547-.754-22.778-5.26 9.4-10.898 19.162-19.918 26.03 4.5-7.593 3.383-19.524.75-27.478-4.886 6.146-7.515 15.184-14.282 21.693-2.255 3.615-2.255 7.6-7.14 8.675l.75-27.113h-1.88c-6.4 7.592-8.644 17.714-15.032 24.223H645.1c3.007-7.593 9.77-18.08 1.88-26.03-7.143 2.53-4.512 11.57-9.022 16.63-2.254 3.617-6.763 7.955-9.77 9.402.75-7.232 2.63-15.9-1.88-23.14-5.64 7.955-6.765 14.46-9.77 23.14-3.384-6.148-13.154-8.316-19.168-7.593 1.878-4.34 8.27-5.785 11.652-9.76 3.758-5.785 8.268-12.293 5.636-19.884-6.014-4.7-13.154 2.168-19.168-2.532-1.127-3.253 5.64-3.976 8.27-6.146l-.75-.723c6.4-3.254 10.147-8.678 15.032-13.015-6.764-4.338-16.9-6.508-20.67-13.016 141.314 4.34 281.127-10.485 422.07-14.1 66.15-5.425 131.92-12.293 196.94-20.6l1.505-1.807c-20.295-3.253-43.222-1.446-63.143 1.807-175.14 19.162-355.92 27.84-539.33 26.03-2.63-.723-5.356 1.537-7.894-1.808-.374-4.698 7.894-5.422 12.403-6.145 200.7 4.7 396.136-8.678 587.438-28.56 71.4-5.06 151.843-9.04 223.628 0 68.027 3.615 133.422 13.74 202.954 14.823 18.04-1.084 35.705-3.615 51.5-11.207 5.263-4.7 8.268-12.292 4.5-18.44-9.772-10.845-23.678-11.206-37.208-13.013l-69.53-3.255-271.356-1.806-311.948 8.675c-9.772 1.447-21.048 4.338-30.82.723 54.875-18.438 119.14-.36 178.525-8.676 64.27-2.53 127.035-9.038 193.183-7.6l275.115.723c28.94 3.976 64.644-1.085 81.18 26.752 3.758-3.615.752-9.037-1.128-13.015-22.174-23.5-54.872-22.415-86.443-24.223l-351.035 1.084c-43.972 6.508-89.825 1.085-134.176 7.593-3.757-1.446-15.784.36-10.147-7.593 21.423-17.714 52.617-13.375 81.182-14.1 0-3.977-3.007-10.123-7.142-11.93 0-1.084.376-2.17-.75-2.893 9.02-.723 15.4 4.338 21.422 7.955 4.136-1.808 1.505-4.34 1.128-6.87-3.006-2.53-7.9-4.7-10.147-8.676 7.14-3.615 11.65 2.893 17.288 4.338 2.256-2.893 0-6.507-1.878-8.676 10.148-2.53 18.8 10.122 27.06 14.823.376-2.893-.376-6.87-2.632-9.762 4.5-4.338 9.397.723 13.53 2.53 12.027 8.315 20.297 24.584 36.834 21.692 4.133.36 6.764-3.254 10.146-5.062-2.254-3.253-7.14-6.868-6.387-12.292 6.764-.723 11.274 4.338 17.3 6.146 0-7.23-6.4-13.74-13.53-19.16l10.522-.724v-8.676c13.53 7.592 22.926 19.16 36.082 26.753z" class="L M"/><path d="M138.5 52.926c-1.5 1.8-5.636 3.98-8.268 1.8.377-6.146-.377-11.93-2.632-17.354 6.768 2.53 9.772 8.676 10.9 15.545zm867.44 0c4.5.364 9.02-.722 12.778 1.085-6.013 5.785-18.417 2.894-27.06 2.53-43.975-17-98.095-10.485-146.954-15.546 55.998-3.977 110.874-2.53 161.235 11.93zM498.18 65.943c-2.63-9.038 3.758-17.714 11.65-24.223-.75 9.4-2.63 19.162-11.65 24.223zm45.1 1.807l-5.26-.723c-3.008-7.592 4.132-15.184 10.9-18.438l5.26-2.53c-3.382 5.422-7.515 14.46-10.898 21.692zM183.602 54.736c-1.505 3.615-.75 11.207-7.518 9.4H172.7c-1.88-4.338 4.134-3.253 4.5-6.868 1.505-3.617-3.38-6.87.75-9.4 3.385 1.446 4.9 3.254 5.64 6.87z" class="N O"/><path d="M1124.33 47.867c3.758 12.292-13.155 18.438-19.92 24.946h-5.263c4.136-10.846 20.296-13.74 25.182-24.946z" class="L M"/><path d="M879.658 80.765c-9.396 7.593-23.865 2.894-32.322 0-14.562-7.5-29.597-26.03-22.55-31.1 7.988-1.266 8.38 12.363 15.4 18.8 15.598 14.28 30.067 14.1 39.463 12.3zM597.403 50.397c-10.525 9.4-21.047 19.162-28.94 30.368-5.637 1.447-4.5-5.784-3.383-8.675 7.143-11.57 20.67-16.268 32.323-21.693zM472.247 70.282c-1.13 1.084-2.256 2.53-3.758 1.808-3.383-5.062-1.88-12.654.75-17.354 2.632 4.7 5.263 10.122 3.007 15.546zm-21.047 23.5c-6.4 0-9.774-5.785-10.524-11.2v-4.338c3.757 5.785 15.033 5.785 10.524 15.547zM597.403 105c-1.88 1.807-4.885 3.977-7.143 1.807-6.387-9.04 10.526-16.63 12.78-26.032 3.005 9.04-1.504 17.715-5.637 24.224zm-87.573 2.53c2.255-7.23 3.383-14.823 3.007-23.14 5.637 14.463 1.88 32.9-7.518 43.385 2.63-10.485-14.656-8.678-21.422-14.1-5.262-4.7-13.907-6.146-15.4-13.737 7.142 6.868 14.283-2.894 22.55 1.806-1.88-6.87-10.9-13.015-18.793-14.1l-7.517 1.084c.75-3.615 5.637-4.34 8.268-6.146 17.666-.723 23.68 17 36.833 24.946z" class="N O"/><path d="M998.802 95.59l-27.063 6.145-15.408-16.63c15.784-.36 30.066 2.893 42.47 10.485z" class="L M"/><path d="M112.945 88.72c3.006 3.615-.377 8.315-3.385 10.123-4.51 2.53-9.02 0-10.9-3.254v-3.615c5.263 5.424 9.772-1.807 14.284-3.254z" class="N O"/><path d="M82.5 93.782c-1.128 9.76-14.282 2.167-19.92 6.868 1.505-4.7 3.478-9.31 13.53-11.206 3.006-.363 6.4 1.084 6.4 4.338z" class="L M"/><path d="M530.878 114.75c13.906-.723 38.712-6.508 49.612 6.87-7.894-1.085-20.297-5.785-25.558.724 6.014 1.807 12.027 5.06 16.537 7.952-10.9 3.255-25.18 8.676-35.33 0-3.383-1.084-5.262-6.508-9.77-4.338-4.512 1.808-1.88 8.678-8.27 7.593 6.4-14.463 10.526-32.54 25.182-41.577-4.134 7.6-11.275 14.1-12.403 22.776zm-84.186-11.57c.75 2.53-.754 4.338-1.505 6.145-3.76-2.168-10.15-7.952-10.15-13.013 4.136 1.806 9.397 3.252 11.654 6.868zm-255.198 6.146c-3.007 6.87-7.892 16.27-18.04 16.63 1.88-8.315 8.644-18.438 17.3-19.884l.75 3.253z" class="N O"/><path d="M493.4 105.233c-4.058 2.168-1.352 6.94-2.255 10.413-1.804-1.303-4.5-4.34-3.157-7.376 1.804-1.302 2.706-4.338 5.412-3.037zm-356.778 14.58c5.637 8.676 1.505 20.245-3.758 27.837h-1.878c-3.76-9.4-1.882-22.776-15.034-26.03-2.633-1.807-8.27-1.807-7.518-5.422 9.77-2.17 20.295-3.977 28.188 3.615z" class="L M"/><path d="M1793.7 122.343c1.88-1.8-1.502-3.977-1.878-6.146 13.905 1.806 27.436 15.907 43.972 13.015-4.5 7.23-13.53 10.846-22.55 7.955-25.557-2.53-45.852-27.84-73.664-14.823 2.255-3.977 6.4-6.87 11.65-8.678 15.785-1.084 28.563 4.7 42.47 8.678zm-67.65 6.867c-.376 9.4-5.637 16.992-12.778 23.5-14.28 11.93-33.826 11.57-52.24 13.016l-105.612-5.062-189.423-15.546c-.75-1.808-2.255-.723-3.76-1.084 25.558-5.424 49.612 3.254 75.17 2.53 78.55 1.446 152.6 15.546 232.645 11.568 16.537-3.254 36.456-2.17 45.1-20.967 1.127-6.146 5.262-14.463 0-19.885 5.262 1.807 9.02 7.23 10.9 11.93zm-1516.517-6.867c2.632 7.952-5.26 11.568-10.9 14.1l-7.9 1.446c5.636-4.7 10.147-14.823 16.912-18.076l1.878 2.53z" class="N O"/><path d="M547.746 120.898c-2.444 2.35-5.375 8.46-2.444 12.7-2.44-1.4-4.396-5.64-3.418-9.4 1.952-.94 2.93-4.23 5.862-3.29z" class="L M"/><path d="M228.702 136.442c1.505 9.04-9.77 10.123-15.4 13.737-4.5-8.313 7.14-13.013 10.9-18.076 1.88 1.084 3.758 1.447 4.5 4.338zm376.97.724c-5.637 5.784-13.908 7.23-21.8 5.06l-.752-.723c5.262-2.893 14.283-9.4 22.552-4.337z" class="N O"/><path d="M118.583 140.78c-.847 9.308-8.646 15.183-17.3 15.545 8.644-3.976 1.505-29.646 17.3-15.544z" class="L M"/><path d="M458.718 145.84c.75 4.7-5.64 5.062-8.268 6.87h-2.632c-1.505-4.338 4.885-7.954 7.14-11.93 2.632.36 4.5 2.168 3.758 5.06zm138.685 2.532c-4.134 8.676-15.034 5.422-23.302 6.148 3.758-7.232 14.66-5.785 23.302-6.148zM1475 192.842c-13.905 8.675-32.322 1.444-48.482 2.53-60.5-3.976-110.5-34.345-173.264-30.367 19.544-9.4 42.097-.724 63.142-1.084 51.5 12.654 103.356 25.308 158.604 28.923zm-900.9-14.824v1.807c-5.263-1.083-8.646-5.06-10.9-9.76 7.14-3.977 9.396 2.893 10.9 7.954zm-13.53-6.868c-1.504 4.7 2.63 8.676 0 13.016l-9.02-10.485c1.502-2.17 5.26-3.253 9.02-2.53z" class="N O"/><path d="M498.18 180.548c-4.886 16.632-15.222 40.22-23.868 55.407 0 0 3.29-30.28 15.507-58.297 2.628-1.084 7.61 1.084 8.36 2.9z" class="L M"/><path d="M1740.33 200.433c7.52 13.376-2.254 26.03-5.26 38.322-3.758 1.085-7.517 4.7-10.9 3.254 9.02-10.122 12.777-26.03 7.14-39.045l-4.5-3.253c-19.17 6.145-39.84 12.653-61.265 11.206 21.048-4.7 39.465-14.46 59.385-21.7 8.643-.724 11.275 5.784 15.408 11.206zm-602.47-.723c7.14 2.53 15.034 4.7 19.92 11.206.374 6.87-7.517 7.954-12.027 10.485-10.148 1.084-18.04-9.4-27.8-4.337-1.505 6.144 6.763 3.253 8.268 6.868l5.262 5.062-32.324-7.593v2.53c9.398 5.422 21.425 10.123 27.063 19.16-8.268-2.17-16.162-10.122-24.43-6.146l19.922 14.824c-12.78 6.868-26.3 18.8-42.47 16.268-7.14-1.446-16.535-2.53-19.167-9.4 3.005-2.168 6.4 2.168 9.02.723-8.646-11.93-24.43-14.823-37.585-19.885 7.143-5.42 16.913 2.53 25.935 2.53-3.758-6.506-16.162-7.952-22.55-13.013 8.268-3.617 14.28 4.698 21.796 1.807-10.898-7.593-26.684-7.232-38.7-13.737v-2.53c24.053-28.2 66.9-16.632 96.215-7.955 7.892-2.168 16.913-1.808 23.678-6.868zm451.76 43.384c-10.9 5.785-9.02-10.122-16.16-14.1 7.9.723 13.154 7.592 16.16 14.1z" class="N O"/></g><path d="M1600.52 239.478c0 2.172.376 4.34-1.878 5.425-6.39-2.53-7.142-10.124-11.652-14.823 5.26 1.084 11.652 3.614 13.53 9.398z" class="N"/><g class="K"><path d="M1614.05 238.755c0 2.17.377 5.785-2.63 6.148-6.765-2.53-6.765-10.485-11.652-14.823 5.636 1.084 10.147 3.977 14.282 8.675z" class="N O"/><path d="M889.807 249.24c1.502 3.253-2.63 3.615-4.5 4.337-12.778 1.8-9.397-13.376-19.922-14.823 9.772-2.893 20.295 2.895 24.43 10.486zm-507.762-9.762c-24.43 12.294-49.985 24.586-72.16 40.132-.378.723.75 1.807 1.502 1.446 30.82-14.823 60.5-27.115 95.84-31.814 6.765 5.062 5.64 14.46 4.512 21.7l-9.022 8.678c6.014 2.9 13.156 5.785 20.673 3.254 5.262-1.447 8.27-8.676 15.4-6.148 3.758 4.7 6.014 10.847 7.894 14.825-3.76.723-7.143-5.424-10.525-.724l4.5 6.868c-6.4.725-13.907-5.06-19.92-1.806.376 5.784 6.767 7.952 10.9 10.483-7.892 9.04-24.805 1.446-36.08 0-3.758 2.893.75 6.87 2.63 9.402-8.644 2.53-18.04-3.978-25.18-1.447.376 5.42 7.518 5.42 9.774 8.675-10.9 0-24.054 0-34.202-3.613-3.758 1.444-.754 4.698.75 6.145 1.502 2.53 4.134 2.168 6.4 3.253v1.808c-13.905 2.53-24.803-6.508-37.96-.724 0 4.34 5.262 3.255 7.14 6.146 19.922 1.084 36.458 9.4 52.62 18.8-17.3.722-34.202-5.425-48.107-15.547-3.76 1.084-10.522-2.53-11.652 3.615L327.93 355.9c-13.53 3.98-20.295-21.33-33.45-12.3-.754 6.144 4.134 9.4 7.892 12.3-22.55 7.232-28.187-31.814-49.6-16.63 7.517 4.34 10.9 8.315 16.538 14.824 1.88 3.976-5.262 5.422-8.268 3.613-7.14-3.613-7.894-14.46-17.3-14.822-3.758 2.893.75 11.93-7.14 10.483-7.14-5.062-13.154-10.122-16.912-19.16-2.255-.724-4.5.722-4.5 2.53-2.255 5.422 3.758 7.592 1.502 13.013-6.012 3.98-7.142-4.337-11.652-5.06 3.008-8.678-1.127-16.993-3.382-24.585-5.64-4.7-8.646-9.4-15.4-11.206-8.644 8.675 6.387 16.63 9.02 25.306.377 7.592-1.878 14.46-7.14 19.885H185.1c3.006-4.702 5.26-10.847 5.637-17.354-2.63-2.17-5.263-5.06-9.02-6.146-3.76 4.7 3.757 8.316 0 13.016-5.64-.363-12.403-8.68-20.67-4.34-3.758 3.255-8.27 4.34-12.78 6.146 2.63-3.615 5.636-9.038 1.878-13.016-3.006-5.062-8.27-1.444-11.652 0-7.514 6.87-17.663 9.762-23.676 18.078-14.657 1.084-4.135-19.522-18.8-20.6-.754-2.9-4.886-3.976-4.512-6.87 0-4.698 3.758-6.144 7.14-8.675 15.785-3.615 28.2 6.146 42.47 1.447 1.505-1.085.377-3.256.75-5.062-2.63-6.148-7.892.722-11.65-2.53-13.53-3.617-27.813-5.424-41.342-1.085-6.012-11.206 6.013-20.245 7.142-31.1h10.9c12.778 8.315 25.932 17 41.342 19.885l3.758-3.254c-4.5-15.9-24.807-6.508-30.07-20.246-1.502-12.654 15.4-11.208 15.4-23.138 2.63-2.894 6.765-3.254 10.15-1.807 6.763 5.06 7.514 12.654 11.65 19.16 21.798 24.584 61.26 9.4 89.074 19.884 51.5 2.9 86.445-33.26 130.793-47h3.006zm-258.953 9.762c-.378 2.53 1.127 6.507-2.632 6.868-8.27-1.447-9.772-10.122-14.66-14.823 6.767.723 13.53 2.17 17.3 7.955z" class="L M"/><path d="M1672.68 252.494c7.894 6.87 10.9 16.994 8.27 27.116-4.512 8.316-9.397 20.245-22.55 18.8h-3.007c6.014-3.978 12.404-8.678 13.532-15.547 1.878-8.316-1.88-14.823-7.143-20.608-8.642-9.4-20.295-13.015-31.57-14.822 13.904-2.894 31.194-2.894 42.468 5.06zm70.28 23.5c.754 7.954-9.77 8.315-7.14 17.354-11.275 3.978-6.4 19.885-21.8 19.885 5.637 6.868-6.014 9.4-10.522 10.484-9.02-.724-19.545 2.17-25.558-6.146 4.5-1.806 11.65-2.53 14.66-7.6l-1.878-1.808c4.5-4.7 13.904-1.447 18.8-6.146-1.127-2.17-3.383-1.808-5.263-1.808 3.758-6.868 14.66-3.976 17.3-11.93l-5.637-2.9c3.757-6.5 15.4-4.7 11.652-14.463l-5.263-3.615c7.14-5.06 13.154-11.93 17.3-19.16 12.027 8.315-6.4 20.244 3.38 27.837zM152.783 261.17c.752 2.53 3.758 6.508 0 8.676-1.88.363-3.758 3.255-5.26 1.084-4.886-3.253-1.88-9.76-8.27-11.57-.754-10.122 12.402-2.9 13.53 1.808zm895.617 19.885c-24.054 1.808-48.482-8.676-65.772-24.223 23.68 4.34 42.847 18.8 65.772 24.223zm-132.66-14.46c-1.505 5.424.374 12.653-6.015 15.544-2.255-1.807-4.133-7.592-4.5-10.483.754-3.977 1.13-9.4 5.263-11.2 4.134-.36 4.5 3.255 5.263 6.148z" class="N O"/><path d="M616.57 271.656c.75 13.015-14.66 16.993-22.552 24.223-6.4.722-10.522-5.785-16.537-3.254-1.127 3.976 3.383 13.376-4.508 14.46-11.277 1.8-23.304-10.122-31.572-.723-6.013 1.085-12.777-1.084-14.282-6.868.75-4.338 1.128-9.4 5.263-11.2 18.415 2.53 42.47 7.955 54.12-8.676 2.63-6.146 3.383-13.737 10.147-17.354 8.644-1.808 13.906 3.977 19.92 9.4zm960.65-1.808c1.128 1.808-2.256 5.425-3.758 7.954-4.136-.723-7.894-6.507-11.653-9.76 3.758-3.615 10.902-.36 15.4 1.807z" class="L M"/></g><g class="N"><path d="M1186.35 285.394c-3.383 8.675-13.155 14.46-21.424 14.822 9.397-9.038 18.415-19.884 19.92-32.9 4.512 3.615 2.255 12.654 1.505 18.078z"/><path d="M858.986 280.332v1.807c-4.884-8.676-27.436 3.615-16.91-12.292 6.764 1.084 13.154 4.34 16.91 10.485z" class="K O"/></g><path d="M822.155 277.8c.377 13.377-18.04 2.17-23.678 11.2-.377-7.232 9.396-12.653 16.537-15.547 4.135-1.444 5.262 1.8 7.14 4.338zM80.62 289c.377 2.9-.377 6.146-3.758 6.87-6.014-1.447-13.528-4.338-19.542-.723 4.133-6.508 19.918-21.693 23.3-6.146z" class="L M K"/><path d="M1151.4 295.88v2.53c-30.444 26.752-71.787 34.345-113.88 37.598l-14.282-2.9c4.135-4.34 0-12.653 6.4-15.547 13.154 3.978 33.826 8.316 43.22-3.253 9.77-2.53 25.557 5.784 29.7-7.232 8.644-5.784 17.666 4.338 26.3-1.446l.75-9.76c8.27 2.53 15.785-5.062 21.8 0zm-915.555 13.015l-1.128 6.144c-3.384-6.507-14.657-13.015-7.142-20.97 7.142 1.8 7.517 8.316 8.27 14.825zm18.04-6.148l-1.13 10.486c-5.637-4.338-10.524-7.593-9.77-16.27 4.885-7.23 10.524 1.447 10.9 5.784zm16.91 1.083l-.75 8.676c-6.013-3.613-7.892-9.76-10.9-15.545 5.263-6.87 10.148 2.168 11.65 6.868z" class="N O K"/><path d="M502.7 302.024c13.907 1.807 28.94 5.784 32.7 19.884.376 3.617-3.76 3.254-5.637 4.337-15.034 2.532-26.31-11.928-40.592-4.337.754 8.316 14.66 4.7 11.652 13.015-10.147 1.81-20.67-9.037-30.443-2.53 2.255 4.34 5.263 8.678 10.9 9.4-21.798 11.21-30.444-20.245-49.6-11.208.376 9.4 17.288 9.4 12.403 19.885-18.79 14.1-27.813-18.438-45.103-8.678-.376 5.42 6.767 6.146 8.27 10.485-12.778-.723-22.926-11.932-37.208-11.932 43.222-7.23 83.06-20.967 118.4-46.277 7.14-2.89 9.772 6.87 14.282 7.955z" class="K L M"/><path d="M105.05 295.156c3.007 6.868-4.5 6.145-9.02 8.675H90.4c-1.878-2.53 0-5.06 1.88-6.868 4.134 4.338 8.644-1.447 12.778-1.807zm830.6 27.837c-4.5 7.232-12.027 7.232-19.918 6.87 7.14-7.23 16.16-16.63 18.04-27.115 6.014 5.785 4.134 13.376 1.878 20.245z" class="N O K"/><path d="M1523.1 313.233c-.752 7.952-13.155 2.53-18.04 7.952h-1.88c-1.505-6.868 8.268-11.206 13.53-14.1 4.134-1.084 5.263 3.978 6.4 6.148z" class="K L M"/><path d="M971.74 315.764c0 6.868-2.632 11.93-7.893 14.822H960.1c1.127-6.87 5.26-12.653 3.756-20.607 5.64-4.34 5.64 3.254 7.893 5.785zm-16.913 5.42c0 7.592-7.518 13.737-13.53 17.354h-6.4c2.63-5.422 7.517-9.038 10.9-14.823l3.383-13.737c6.013.36 3.76 7.23 5.637 11.206zm-108.242 4.34c-1.878 1.806-4.5 3.615-6.4 1.806-6.014-5.06 4.135-8.314 1.88-14.098 5.26 1.806 4.133 7.6 4.5 12.292z" class="N O K"/><path d="M822.907 331.67c1.88 6.868-16.912 13.737-16.912 13.737.374-7.232 1.58-11.242 6.185-17.93 3.007-3.977 12.606-1.232 10.727 4.194z" class="K L M"/><path d="M130.232 331.67c-1.504 5.42-8.644 8.675-14.28 10.122-1.128-2.17-4.136-3.617-3.006-6.87 6-.36 10.897-6.145 17.287-3.252zm764.085 11.932c-1.128 3.976 2.256 10.123-2.63 11.208-5.64-4.338-8.646-12.292-7.52-18.8 7.52-4.7 8.27 3.615 10.148 7.593z" class="N O K"/><path d="M94.903 341.793v2.893c-6.013 2.17-12.402 4.698-16.913 8.675-1.127-7.23 5.262-11.928 10.9-16.63 3.758-.36 5.262 2.17 6.013 5.06z" class="K L M"/><path d="M1614.05 360.23v.723c-3.38-2.167-9.02-5.424-8.268-10.484 1.502-.725 2.254-3.256 4.51-2.53-1.505 3.976 2.63 8.316 3.758 12.292z" class="K N O"/><path d="M171.575 350.47c.376 9.76-6.4 17.353-12.403 23.498h-2.632c13.908-5.785-6.4-31.1 15.034-23.498zm1381.965 5.422c-4.5 4.7-13.154 4.7-19.917 6.87-1.13-2.9 1.127-6.87 3.005-9.4 3.384-2.53 7.893-6.506 12.403-3.615 1.505 2.17 2.63 4.34 4.5 6.146zm-678.392 2.53c1.88 6.146-4.134 10.845-9.02 13.015l-7.142 1.8c1.504-4.7 2.054-15.038 8.27-18.438 3.758-.723 6.765 1.083 7.892 3.614zm757.692 9.4c.75 3.976-.377 6.87-2.63 9.76.374-5.42-12.403-9.76-2.63-14.823 3.383 0 3.758 3.254 5.263 5.062z" class="L M K"/><path d="M.013 1102.7H1919.46v94.1H.013z" stroke="#fff" fill="#fff" class="K"/><path d="M731.03 655.35c-1.144-6.5 1.514-15.312-.477-18.14l-24.823-58.717c-15.276 3.343-18.14-15.752-5.332-21.06L835 531.904l85.166-46.976c-1.9-4.2-5.825-13.365-5.348-13.365 7.638-4.537 15.992-7.877 26.255-8.354l3.82 11.217s5.25-.954 5.5-.716c-.24.24-1.722-12.705-1.67-14.082 8.832-2.865 23.106-2.148 31.507-.24 0 0-1.433 14.082-1.67 14.082 1.455.456 5.01.954 5.01.954.24 0 3.057-10.98 3.103-11.217 8.83 0 21.244 4.057 28.643 8.114l-3.103 6.922s38.2 11.695 37.713 12.172l193.16-38.392c5.187-.99 8.158.684 9.484 5.692 2.147 8.115-9.07 13.605-26.017 16.47-18.14 57.523-45.158 117.196-74.948 172.57 27.21 29.597 169 99.77 169 99.77h140.825c7.162 0 17.296 7.962 17.296 17.127 4.2 1.527 9.165.765 11.84 5.728 1.146 10.313-10.692 8.02-15.658 13.75-5.73 10.692-15.658 20.622-22.915 30.17v6.494c7.257 1.9 18.333-1.147 21.005 7.256 0 3.054-.383 6.11-3.437 8.02-2.674.38-6.873-1.146-7.256 3.056 2.29 7.256-4.2 11.074-7.638 16.42-10.422 1.776-7.256 11.076-7.256 11.076 1.146 11.075 3.232 23.927.176 34.62l-12.78.132-.1-41.665c-.477 0-6.207.383-10.025 0l-.176 41.665-17.185 17.185c-3.818 27.88 10.3 66.833-19.478 79.82-7.254 2.672-13.286 2.635-21.004-3.438-5.728-5.347-8.402-14.13-4.583-21.386 3.436-7.258 12.22-9.93 20.24-10.694-1.147-6.11-8.785-3.818-12.986-5.728l1.147-8.02c16.04-27.113 34.833-58.85 42.1-89.4h-8.594c-5.727 23.68-17.28 46.926-31.03 67.548 4.2-18.712 6.493-45.015 3.82-67.548.478 0-8.59 0-8.114 0 7.16 86.405-34.37 143.212-89.065 173.42 0 0-11.185 3.925-33.62 3.925H1101.71l-11.218-29.596h164.693c31.984 0 103.113-54.9 80.2-147.748.477 0-4.87 0-7.16 0 19.572 86.405-44.396 139.394-80.2 139.394h-150.85c-5.5-4.058 2.387-8.594.954-17.902h145.6c24.823 0 77.335-41.294 56.81-121.492.272.25-9.07 0-8.594 0 20.05 58.717-20.05 115.525-55.853 113.138h-139.87c-6.204-9.31-17.422-14.082-31.873-11.896-6.5 1.91-13.905 5.022-16.58 11.896h-22.915c-6.206-8.593-18.553-15.334-33.067-11.896-6.11 1.91-13.428 5.022-16.102 11.896.08.012-16.66-.142-25.062.24-5.967-9.07-18.793-15.573-32.923-12.135-6.494 1.91-13.81 5.022-16.485 11.896-6.36-.29-16.23-.24-16.23-.24-1.662-.912-4.34-5.985-5.857-7.075-9.42-6.77-26.278-7.658-33.99-2.674-6.22 4.02-8.37 7.84-8.02 9.93-66.703-1.613-142.447 8.783-175.29-54.23-10.31-20.622-12.665-45.483-9.93-71.413.13.152-8.702-.087-8.702-.087-4.535 51.08 8.32 92.888 49.185 115.8s88.06 16.9 142.48 18.34c-.477 10.502 6.922 15.754 10.264 18.14-.005.14-62.303.292-62.297 0-38.78-1.128-84.565-4.674-111.834-17.386-47.355-27.495-67.214-79.435-63.014-134.81-.11-.087-5.79.295-8.463-.087-3.437 56.523 13.43 110.837 63.456 141.39 28.064 15.364 75.263 18.263 116.752 19-.24-.018 76.634-.04 76.618 0 3.057 9.167 7.877 29.596 8.355 29.596-.478-.237-97.624-.237-97.624-.237-55.207-.22-111.9-6.716-151.074-47.605-36.663-38.2-53.482-91.788-51.174-142.064.08-.087-9.29.117-8.99-.087-1.9 72.56 28.847 144.444 96.06 178.05 48.82 20.776 82.237 17.433 128.32 19.095l86.39-.23 6.922 25.54c-114.81 23.63-201.214 14.083-264.784-60.063-41.503-48.406-75.234-104.26-101.585-163.07-6.493-.763-13.86 1.155-17.568-6.49-.348-10.254-12.474-14.264-13.238-22.665 15.276 0 5.5-14.8 3.343-19.335-8.402-14.51-22.198-25.778-37.952-30.552-4.296-.477-3.34-9.07 0-8.83 16.71-2.387 24.823-21.96 40.577-20.05h146.078L731.03 655.35z" class="K P Q"/><path d="M971.627 479.2c6.1-.38 16.947 2.626 16.947 2.864l2.627-9.548 11.694 3.104-7.494 17.712c-17.948-5.73-42.964-5.538-60.53.2l-7.877-17.424c2.624-1.433 7.877-3.104 10.5-3.58-.237.098 3.724 9.168 3.82 9.3 5.348-1.527 15.515-2.72 15.753-2.626l-.716-11.934c3.58-.956 12.4-.956 15.514 0 0 4.057-.24 11.934-.24 11.934zm244.173-3.104c-17.902 57.046-42.614 113.03-71.64 164.97 0 0-26.94-23.906-36.007-35.84 19.095-45.83 47.913-85.296 88.8-125.073-.477 0 13.5-3.293 18.856-4.057zm-212.2 23.868l5.97-15.752 31.5 8.115zm167.33-14.32c-24.824 8.404-58.846 32.07-86.342 16.795-.54-.565 86.342-17.033 86.342-16.795zm-195.962 19.574v-4.535c6.684 0 14.082.716 15.992 1.9-3.103.954-15.992 2.626-15.992 2.626zm84.802 2.95c-21.005 19.095-52.703 29.026-79.818 17.186.033-.086 79.754-17.27 79.818-17.186zM957.033 529.17c-8.02 18.33-31.713 26.4-47.737 27.496-13.744.932-24.442-4.582-32.843-12.984 27.113-4.202 53.466-10.692 80.58-14.512zM801.22 574.998c-13.748 1.9-27.878-2.293-38.572-8.402l82.492-17.185c-8.02 16.422-27.116 22.152-43.92 25.587zm-69.234 51.7c-6.874-17.185-13.64-33.38-21.278-49.8L742 569.9c-4.774 13.844-8.115 36.95-10.024 56.808zm407.594 23.524c-17.583 25.645-30.17 50.793-49.646 74.1-3.437-37.045 2.944-77.564 14.4-109.07 0 0 22.436 24.824 35.245 34.982zM812.295 876.317c11.074 12.984 23.472 28.175 37.602 38.486h-97.384c-28.403.954-38.2-26.017-36.455-68.655 8.767-.565 24.52 2.062 25.585-9.93v-8.402c4.584.765 10.815-2.08 10.63-7.055-.24-6.444-2.993-7.074-6.813-8.602l-8.4-.764V770.15c3.437.38 9.006-2.14 8.53-7.4-.345-3.795-2.037-6.36-6.62-7.123-8.402 2.674-11.758-16.27-22.737-18.178.476.478-75.425 0-75.425 0l89.76-70.04c9.167 77.526 38.955 146.65 81.728 208.9zM714.322 747.96c3.58 1.43 5.552 6.53 5.552 6.53h-251.3l13.733-7.006 232.004.476z" class="L M K"/><path d="M1147.6 909.542c-41.628-32.08-78.67-69.124-121.827-97.384 18.332-19.476 41.804-43.193 54.693-61.333 10.68 43.884 28.563 113.653 67.134 158.718z" stroke="#fff" fill="#fff" class="K"/><path d="M1460.93 756.553c5.252.956 5.172 5.193 5.934 7.103H1210.23s.78-6.756 4.377-7.58c16.454-.37 246.324.477 246.324.477zm-740.292 12.83c4.584.383 2.994 7.696 2.674 8.02H479.66s-2.83-4.86-8.4-8.02c7.48.298 249.378 0 249.378 0zm741.662 9.166c-2.674 2.674-4.2 7.257-7.638 8.02h-244.415c-.765-3.056.383-6.873 2.672-8.02h249.38zm-516.452 86.368l-24.822-18.14c-.24-3.104.477-33.655.477-33.178 8.114-3.34 17.185-5.5 24.456-4.88l-.1 56.198zm45.938-53.524c.367.058 2.685 19.346 2.994 19.153 0 0-18.592 15.272-25.063 21.243v-43.92c6.814-.847 16.7 1.194 22.07 3.523zm8.004 14.856l-2.387-13.365s9.3 1.9 12.174 4.534l-9.787 8.83zm-94.042 9.3c0-1.433 1.604-13.633 1.433-13.606 3.103-2.387 4.043-3.853 8.354-5.727l-.477 25.778-9.3-6.444zm129.192-2.017l-14.513 1.528-2.258-13.596c6.206 2.627 11.695 7.4 16.772 12.067zm-32.84 4.584c-.15-.07-.513-2.235-.397-2.33 2.226-2.932 8.846-8.132 10.98-10.74l2.02 11.16-12.602 1.9zm-273.695-11.162c1.9 1.9 2.148 6.207-.5 7.342H499.902c-2.545-.18-3.262-6.865 0-7.256 8.9.154 228.503-.086 228.503-.086zM898.35 840.57c.416-.227.255 1.757.255 2.902-.015-.037-11.233-.754-11.075-.762l1.273-6.197s5.667 2.636 9.547 4.057zm547.8-4.774c2.864 0-.477 7.4-3.58 7.64-2.148.237-225.067.037-225.067.037-5.743-.992-3.356-7.676-.015-7.436 8.117-.24 215.296-.477 228.663-.24zM1133.1 914.9h-72.56l-18.33-76.762 90.892 76.762zm-92.43-57.668l-14.896 1.9-4.263-18.798c-.346.25 14.306-2.138 14.32-1.9l4.838 18.798zm-34.67 39.44c-7.638-3.103-26.256-10.264-36.28-17.424.222.015 0-15.992 0-15.992l26.653-22.446c4.2 17.948 6.956 37.532 9.628 55.86zm14.43-36.766c.367.248-13.953 2.635-13.75 2.672.034-.037-3.785-19.13-3.818-19.095l13.4-2.424 4.167 18.847zM869 909.8c-1.9.764-3.676 2.147-5.968 2.147-3.102-26.493 5.4-48.223 18.013-66.555L869 909.8zm-189.595-63.652c-6.842 88.227 50.674 98.014 82.187 98.014h458.278c18.602.06 53-31.03 37.713-85.45-.477 0 5.92 0 8.594 0 17.662 60.15-22.437 94.52-41.42 92.84h-466.68c-94.344.487-88.22-84.4-87.074-105.404h8.404zm23.675 0c-1.16 67.94 17.697 81.067 64.24 80.112l434.52-.296c27.578.296 40.944-37.655 30.92-67.252h7.638c14.32 37.235-8.115 74.47-33.893 74.47h-452.55c-60.148.954-58-54.898-58-87.122l7.128.087zm192.478 18.33l-11.838-.763 3.183-15.267 10.98.717zm19.032-11.494c.034.06-.318 9.202-.7 13.404-.253-.038-11.7-.992-11.84-.763l1.8-16.22 6.683.477s3.846 2.75 4.057 3.103zm5.027 35.554c-.254-3.093.463-32.7.463-32.7l23.4 16.23s-20.05 15.992-23.854 16.46zm126.413-10.31l-15.658 1.9-2.88-15.696c4.584-1.146 9.978-.764 14.56-1.9l3.977 15.696zm-20.7 2.922l-15.214 2.805-2.674-15.658c-.253-.275 14.15-3.413 14.308-3.14l3.58 15.993zm-130.56-10.98l-1.894 14.55-12.665-.946c-.347.3 2.864-14.798 2.735-14.713-.1-.085 11.57.834 11.824 1.108zm19.1 1.565c-.493.106-.38 9.93-.764 14.895.034.01-14.05-1.183-13.747-1.146l1.9-14.512c4.2.383 12.348.63 12.6.763zm5.236 43.07c.032-.084.104-15.367.477-15.754 7.98-4.626 16.838-10.92 26.255-18.378l.1 34.218-26.843-.086zm116.244-11.22l-3.58-18.616c-.254-.035 14.354-2.1 14.798-2.148l4.058 18.38-15.276 2.386z" class="L M K"/><path d="M522.816 897.704c-2.07 4.21-18.313 12.385-25.698 10.416.24 5.5 3.82 9.262 5.728 11.934 22.915 19.478 58.922 29.968 64.65 63.576 5.347 17.568-19.15 71.37-18.612 71.456-5.8-.562-16.23-2.865-16.708-3.343 10.98-22.436 28.063-60.475 16.224-78.042-19.475-29.407-74.47-35.517-66.067-79.817 11.838 3.437 24.38-.515 33.163-10.826l7.32 14.646z" class="K P Q"/><path d="M1029.87 904.778c-.206-.13-17.424-5.5-17.424-5.728.255-.3-1.432-10.024-1.194-10.024-.015.202 14.832-2.66 15.038-2.627l3.58 18.38zM892.1 890.065l-1.16 11.372-14.56 5.5 3.103-17.663c.13-.035 12.174.477 12.616.802zm115.57 24.738h-37.95V887.83c4.297 3.818 36.758 16.946 36.758 16.946l1.193 10.025zm-94.998-21.96c-3.104 1.67-9.787 5.013-15.278 6.683l.954-8.593c.298 0 10.475.648 14.323 1.193-.203.246 0 .24 0 .717zm141.058 20.05c-3.437-1.144-15.275-5.5-14.798-5.25.08.298 12.87-2.024 12.65-1.672.22-.352 1.893 7.173 2.147 6.922z" class="L M K"/><path d="M541.036 929.124c-8.354.24-21.578-7.78-25.78-15.037 4.058.716 13.128-5.967 13.128-5.967l12.65 21.004z" class="K P Q"/><path d="M911.955 902.153l-.75 12.736-15.48-.086c-.24 0 .477-6.683.954-6.683.956-1.194 10.502-3.343 15.276-5.967zm123.405 12.65h-21.243l-1.193-7.877c0-.24 13.366 5 22.436 7.877zm-159.446 0l13.604-4.536-.477 4.536z" class="L M K"/><path d="M1402.43 1052.14l-21.96 3.552c-4.583-25.203-42.68-34.252-41.152-61.748l12.984-15.658c-3.82 36.28 50.5 39.866 50.128 73.854zm-491.908-54.035s-26.562-.112-26.495 0c-.237-1.9-1.17-3-1.083-6.073l4.426-11.83c-.206.442 12.794.138 12.65 0-.717 6.922 2.147 14.322 10.5 17.902zm63.015-17.902c.24 5.25.24 10.264 9.07 17.902H949.2c-3.82-5.013 4.534-7.877 2.864-17.902-.1-.324 21.242 0 21.482 0zM716.232 1080.7c-59.672-2.387-113.08-14.674-155.1-23.266 8.117-14.8 18.957-52.025 21.25-67.302 33.113 56.675 89.444 81.02 133.84 90.568zm655.648-23.56c-36.28 8.402-101.435 19.903-127.7 21.335 36.758-13.844 66.854-50 87.86-75.595 5.728 26.255 36.778 34.785 39.833 54.26zm-440.114-21.1H889.04l-10.263-29.6h43.68zm72.564 0h-48.695l-10.74-29.6h50.123zm281.9 2.57c-22.148 24.442-56.822 40.156-82.122 41.6 0 0-66.355-4.297-90.702-12.4l-8.593-24.824h162.307c6.683 0 13-2.445 19.1-4.354zm-275.93 19.63l-46.54-.47-5.25-14.8h47.5zm77.33 5.73l-52.03-4.77-5.26-16.23h50.37zm-153.477-21l5.5 17.185c-8.784-.762-42.488 3.58-42.488 3.343l-5.967-20.528h42.964z" class="P Q K"/><path d="M954.06 457.717c-9.308-3.103-30.248-6.615-39.622-7.877-15.992-2.148-56.33-4.296-80.996 10.635-6.124 6.073 8.198 16.098 6.493 23.68-4.5 13.424-10.006 16.682-25.03 19.63-45.065 3.82-74.647-29.56-115.128-37.198-9.944-1.23-18.298-.038-17.568 7.637 6.19 12.614 8.538 26.675 2.674 42.01-16.053 41.972-116.303 10.943-182.657 7.602-29.218-1.472-62.14 11.876-72.833 17.987 39.717-35.135 79.103-36.8 147.78-27.535 60.15 8.115 87.836 3.82 89.38-14.474-1.064-18.94-14.43-21.328-9.896-35.41 4.433-13.762 16.926-17.707 31.03-20.29 33.592-6.146 113.375 53.943 126.66 37.368 4.583-9.164-16.308-15.015-8.033-27.343 16.037-19.858 38.9-23.49 66.593-26.017 24.474-2.232 56.474 4.393 80.915 12.41.687-1.376.24 18.92.24 17.186z" class="K N O"/><path d="M946.46 426.687c0-7.017 8.276-12.705 18.483-12.705s18.487 5.688 18.487 12.705-8.277 12.71-18.487 12.71-18.483-5.69-18.483-12.71z" class="K P Q"/><path d="M929.33 505.932c4.583-1.91 16.516-5.013 24.87-4.774l-.046 6.683c-.19-.477-66.45 11.458-98.91 19.478l67.213-36.663 6.874 15.276z" class="K L M"/><g class="P Q K"><path d="M600.47 585.415c0-6.458 7.375-11.695 16.47-11.695s16.47 5.237 16.47 11.695-7.372 11.695-16.47 11.695-16.47-5.236-16.47-11.695z"/><path d="M609.3 595.44h15.037v142.018H609.3z"/></g><path d="M609.3 659.647c-21.482-14.082-30.826 2.633-49.06-3.305-20.636-6.72-32.08-3.054-45.064 3.82 5.73-13.748 1.513-50.637-2.784-56.367 6.207-3.818 18.286-9.724 45.176 1.375 14.02 5.785 28.422-16.402 51.73-.898v55.376z" class="K N O"/><path d="M574.213 737.458L609.3 658.93v15.515l-27.926 63.013zm85.212 0l-35.088-78.528v15.515l27.927 63.013z" class="P Q K"/><path d="M1202.9 746.53c-8.355 1.432-11.015 9.872-9.484 17.127-6.032.06-12.106 3.125-11.283 8.413-.38 6.49 5.73 8.114 11.283 8.008v39.72c-4.967 0-10.313-1.147-13.75 3.437-1.526 2.29-.014 4.88-.396 7.552 3.056 4.965 9.18 3.905 14.146 4.286-1.53 9.167 6.11 16.422 12.984 20.24 6.11 1.527 12.984 6.494 14.51 12.984 2.293 7.64 3.136 16.385.844 24.787-9.547 22.533-21.72 23.392-53.928 21.807-30.1-28.968-37.535-52.176-53.083-89.746-13.276-32.076-16.546-49.625-23.79-85.775 19.86-27.113 43.44-61.58 55.852-84.018 47.26 37.235 105.214 66.737 157.533 91.18H1202.9z" class="K L M"/><g class="P Q K"><path d="M1314.86 595.2c0-6.46 7.374-11.695 16.468-11.695s16.47 5.235 16.47 11.695-7.374 11.695-16.47 11.695-16.468-5.236-16.468-11.695z"/><path d="M1323.7 605.226h15.04v142.018h-15.04z"/></g><path d="M1323.7 669.433c-21.482-14.083-30.827 2.633-49.06-3.306-20.637-6.72-32.08-3.053-45.064 3.82 5.73-13.748 1.513-50.64-2.784-56.367 6.206-3.82 18.285-9.725 45.176 1.374 14.018 5.786 28.422-16.4 51.73-.896v55.376z" class="K N O"/><path d="M1288.6 747.244l35.1-78.527v15.514l-27.93 63.013zm85.2 0l-35.08-78.527v15.514l27.92 63.013z" class="P Q K"/><path d="M532.682 805.723l-10.264-16.7c3.185-1.66 7.638-2.147 10.326-2.444l-.063 19.153zm-3.582 2.147l-19.27-8.316c1.37-3.38 4.735-5.815 7.097-7.437-.454.2 12.207 15.862 12.172 15.754zm-23.087 3.524l1.144-6.493 19.558 6.493zm31.92-5.432l10.264-16.708c-3.182-1.66-7.637-2.148-10.325-2.446l.06 19.154zm3.58 2.138l19.272-8.316c-1.37-3.38-4.736-5.816-7.1-7.437.454.2-12.206 15.86-12.172 15.754zm23.092 3.532l-1.146-6.493-19.56 6.493zm46.128-6.147l-10.264-16.708c3.185-1.66 7.637-2.15 10.326-2.446l-.063 19.154zm-3.58 2.147l-19.27-8.316c1.37-3.38 4.734-5.815 7.097-7.436-.454.2 12.205 15.86 12.172 15.752zm-23.09 3.523l1.145-6.494 19.558 6.494zm31.92-5.432l10.264-16.7c-3.182-1.66-7.637-2.147-10.325-2.444l.06 19.153zm3.58 2.147l19.272-8.316c-1.37-3.38-4.736-5.815-7.1-7.437.454.2-12.206 15.862-12.172 15.754zm23.1 3.524L641.5 804.9l-19.56 6.493zm46.13-6.15l-10.264-16.708c3.184-1.66 7.637-2.147 10.326-2.444l-.063 19.152zm-3.58 2.15l-19.27-8.317c1.37-3.38 4.734-5.815 7.097-7.437-.454.2 12.206 15.86 12.172 15.755zm-23.088 3.523l1.143-6.493 19.558 6.493zm31.92-5.432l10.264-16.708c-3.183-1.66-7.637-2.15-10.325-2.446l.06 19.154zm3.582 2.147l19.272-8.316c-1.37-3.38-4.736-5.815-7.1-7.436.454.2-12.205 15.86-12.172 15.752zm23.1 3.523l-1.144-6.494-19.56 6.494zm528.995 2.685l-10.264-16.708c3.184-1.66 7.638-2.15 10.328-2.446l-.064 19.154zm-3.58 2.146l-19.27-8.316c1.368-3.38 4.734-5.813 7.097-7.436-.454.2 12.206 15.86 12.172 15.752zm-23.1 3.524l1.14-6.494 19.56 6.494zm31.92-5.433l10.264-16.7c-3.184-1.66-7.64-2.147-10.325-2.444l.06 19.153zm3.58 2.15l19.27-8.317c-1.37-3.38-4.736-5.815-7.098-7.437.454.2-12.207 15.862-12.172 15.755zm23.1 3.522l-1.15-6.493-19.55 6.493zm46.13-6.148l-10.264-16.708c3.185-1.66 7.64-2.147 10.328-2.444l-.064 19.152zm-3.58 2.148l-19.27-8.317c1.368-3.38 4.734-5.815 7.097-7.437-.454.2 12.206 15.86 12.172 15.755zm-23.1 3.522l1.14-6.492 19.56 6.492zm31.92-5.43l10.263-16.708c-3.183-1.66-7.638-2.15-10.326-2.446l.064 19.154zm3.58 2.146l19.27-8.316c-1.37-3.38-4.736-5.813-7.098-7.436.452.2-12.207 15.86-12.172 15.752zm23.1 3.524l-1.15-6.494-19.55 6.494zm46.13-6.15l-10.264-16.708c3.185-1.66 7.64-2.15 10.326-2.445l-.063 19.153zm-3.58 2.15l-19.27-8.316c1.368-3.38 4.734-5.815 7.096-7.437-.454.2 12.207 15.862 12.174 15.754zm-23.1 3.522l1.14-6.494 19.56 6.494zm31.92-5.432l10.263-16.708c-3.182-1.66-7.637-2.147-10.325-2.444l.063 19.152zm3.58 2.148l19.272-8.317c-1.37-3.38-4.736-5.815-7.098-7.437.452.2-12.207 15.86-12.174 15.755zm23.1 3.522l-1.15-6.492-19.55 6.492z" class="L M K"/><path d="M1115.4 1112.9c155.152 37.958 163.955-18.86 377.18-11.22 114.44 4.102 105.635 24.827 243.547 24.827 58.595 0 125.163-13.998 183.822-23.297l-.994-50.563c-58.434 11.55-113.644 25.74-186.74 27.072-100.244 1.826-167.255-33.422-254.796-33.422-114.437 0-173.32 35.8-279.737 33.9 0 0-75.8-7.64-100.743-14.324l-79.226-7.162c-22.218-.656-48.905-.954-73.113.24-21.077.814-48.464 3.774-67.733 7.162-75.803 13.608-102.533 16.017-170.68 14.562-89.496-1.9-164.302-34.853-252.348-34.853-93.9 0-141.348 34.376-205.402 34.376-68.466 0-169.7-53.952-248.437-23.394v54.428c100.744-29.6 147.814 15.278 252.35 15.278 86.073 0 113.452-26.534 204.9-25.782 115.906.956 191.406 25.782 253.328 25.782 66.5 0 106.613-7.16 179.237-18.62 13.938-2.387 38.146-4.297 70.3-5.6 25.064-.596 42.182-.358 72.38 1.075 23.597 1.9 53.185 4.058 82.893 9.548zm-1115.4 36.53c78.248-24.768 156.902 11.7 232.787 17.187 52.818 3.82 131-24.978 214.693-26.737 90.964-1.9 167.256 22.917 259.506 26.297 58.896 2.158 164.408-22.435 270.135-24.865 83.14-1.9 110.05 8.04 194.657 22.192 10.948 1.832 22.735 2.577 35.2 2.526 88.994-.37 163.038-26.063 249.9-25.672 106.123.477 161.2 26.258 261.64 26.258 120.012 0 145.166-11.68 199.465-20.497 1.478-.5 1.055 52.98 1.055 52.98l-1919.04.803v-50.474z" stroke="#1a3c86" fill="#1a3c86" class="K"/><path d="M1046.8 980.347c.237 5.25.237 10.263 9.07 17.902h-33.417c-3.82-5.014 4.535-7.877 2.865-17.902-.1-.324 21.242 0 21.482 0zm31.76 55.703h-50.36l-10.75-29.6h50.85z" class="P Q K"/><path d="M522.895 846.06h180.448v3.343H522.895zm712.245 12.65h212.9v3.343h-212.9zm-334.404-25.538l1.194-9.07-7.638 5.25z" class="L M K"/><path d="M954.202 434.327h20.766v28.88h-20.766z" class="K P Q"/><path d="M875.44 1044.45h9.547l29.833 101.64-11.456.48zm68.127-.7l9.148.06 33.7 97.5H974.5zm71.233 1.4h8.1l32.26 98.8-10.5-.48zm75.68-.25h7.4l41.54 112.42-10.26-1.9z" class="L M K"/><path d="M877.217 979.048c1.56 7.123-1.78 9.748-3.213 13.1 16.422 45.448 35 107.552 51.795 152.998l-10.98.954-48.692-156.817c3.82-1.432 9.3-10.263-1.512-13.662-5.347-1.146-11.616-.66-12.984 5.346-.765 5.346 4.58 6.493 7.254 9.165 15.658 49.646 31.826 106.13 45.192 156.922l-8.354 1.672L853.54 995.47c-6.1-4.2-12.76-12.544-8.178-19.802 7.256-11.074 28.402-9.308 31.854 3.38zm65.878.652c1.56 7.123-1.78 9.75-3.214 13.1l55.613 148.537h-9.547l-53.943-151.4c3.82-1.433 9.3-10.264-1.512-13.663-5.347-1.147-11.616-.658-12.984 5.347-.764 5.346 4.58 6.5 7.254 9.164 15.66 49.648 36.84 99.76 50.205 150.553l-8.593.954-46.958-146.16c-6.1-4.2-12.76-12.543-8.178-19.798 7.258-11.076 28.404-9.3 31.856 3.378zm73.035.63c1.56 7.124-1.78 9.75-3.214 13.092l53.705 152.666-11.218-1.67-50.363-153.86c3.82-1.43 9.3-10.263-1.512-13.663-5.347-1.146-11.616-.658-12.984 5.344-.765 5.347 4.582 6.494 7.256 9.167 15.658 49.647 33.735 101.028 47.1 151.82l-9.308-.716-43.14-145.755c-6.1-4.2-12.762-12.544-8.18-19.8 7.258-11.076 28.404-9.3 31.857 3.377zm73.04.644c1.56 7.124-1.78 9.75-3.2 13.1 16.422 45.445 47.64 119.946 64.445 165.392l-10.98-1.9L1078.08 991.2c3.818-1.433 9.308-10.264-1.513-13.663-5.346-1.148-11.614-.658-12.984 5.346-.764 5.347 4.583 6.493 7.257 9.165 15.658 49.648 44.714 113.035 58.08 163.827l-10.74-2.148-52.687-156.333c-6.1-4.2-12.76-12.543-8.18-19.8 7.258-11.075 28.404-9.3 31.855 3.378z" class="P Q K"/><path d="M1084.6 633.43c-9.885 39.37-9.93 69.124-6.493 103.877-16.04 25.206-40.018 47.5-60.64 70.805-40.577-17.663-91.355-15.047-123.435 8.63-28.643 20.242-42.01 51.556-43.154 82.49-47.276-48.633-60.64-75.367-79.054-122.6-21.404-54.895-33.717-93.887-28.37-148.5 1.528-17.565 5.075-34.81 9.275-51.23 16.422 12.984 40.48 13.366 61.485 9.93 18.713-5.728 40.865-15.658 47.74-36.663 16.803 21.767 43.71 22.494 68.153 16.383 16.04-4.2 29.995-17.53 40.687-30.13 25.59 13.366 64.924 7.637 88.984-9.167 6.1-4.583 11.837-10.694 14.51-17.568 14.132 16.04 43.665 9.844 56.14 6.494 12.35-3.32 29.405-14.513 29.405-14.513-36.28 37.428-63.6 85.413-75.233 131.756z" stroke="#fff" fill="#fff" class="K"/></svg>