<svg xmlns="http://www.w3.org/2000/svg" xmlns:xlink="http://www.w3.org/1999/xlink" width="992" height="496" xmlns:v="https://vecta.io/nano"><style><![CDATA[.B{fill:none}.C{fill-rule:evenodd}.D{fill:#fed501}.E{fill:#016b29}.F{stroke:#000}.G{stroke-width:1.898}.H{stroke:#fed501}.I{stroke-width:1.246}]]></style><g class="C"><path fill="#076a21" d="M0 0h992v496H0z"/><path fill="#fdd401" d="M0 248.03h992v248H0z"/></g><path d="M782.44 189.74l-4.86-38.338" class="B F G"/><g stroke="#003d00" class="I"><path d="M825.47 373.48s-13.543-9.85-15.4-20.315S807 328.54 807 328.54l9.85 5.54 1.847 20.315c.616 6.156 6.772 19.084 6.772 19.084zm20.427-118.78c10.42-.82 10.97 15.975 10.97 15.975s-18.468-9.85-26.47-9.85 15.502-6.125 15.502-6.125z" class="C E"/><path d="M856.545 269.922c-.404-.404-14.068-13.825-20.778-13.664s-6.872.323-6.872.323" class="B"/><path d="M741.132 262.054h-16.006c-5.54 0-16.006-1.23-16.006-1.23s14.775 9.85 22.777 9.234 27.087.616 27.087.616l-11.08-8.003-6.772-.616z" class="C E"/><path d="M710.692 261.352s14.715 4.204 20.536 4.447 22.153-.81 22.153-.81" class="B"/><g class="C E"><path d="M823.623 372.248c-1.847-3.078-9.85-12.312-11.08-20.315s1.847-19.084 1.847-19.084M714.66 355.01s30.78-39.4 36.32-44.324 30.78-17.853 33.858-20.93 32.01-30.78 38.167-33.243 24.01-1.847 24.01-1.847-6.156 1.23-9.85 4.31-11.696 11.696-17.237 15.4-48.017 30.78-53.558 36.936-13.543 16.62-17.853 20.315-33.858 23.393-33.858 23.393z"/><path d="M740.516 262.054s17.853 11.696 20.93 15.4 17.853 18.468 19.084 20.93 20.93 30.78 26.47 35.705 11.08 12.928 11.696 16.62l.616 3.694s-1.23-25.24-2.462-27.702-6.772-4.31-11.696-9.85-14.775-10.465-24.624-25.855c-3.078-7.387-20.93-28.318-25.24-29.55s-14.775.616-14.775.616z"/><path d="M859.943 337.158s-3.694-16.62-17.237-26.47-36.936-19.084-62.176-19.7-38.783 1.847-40.63 2.462-6.156 10.465-6.156 10.465 25.24-5.54 40.63-5.54 46.17 11.696 52.326 15.4 33.243 23.393 33.243 23.393z"/></g><g class="B"><path d="M716.507 353.164l28.933-25.855c3.694-3.694 11.08-16.006 16.62-19.7s45.555-33.243 48.633-35.705 19.7-16.62 19.7-16.62"/><path d="M739.285 298.99s27.087-5.54 39.4-4.925 56.02 17.853 60.33 20.93 18.468 19.7 18.468 19.7"/><path d="M818.698 341.467l-44.324-56.02c-6.772-7.387-27.702-24.01-27.702-24.01"/></g><path d="M707.89 318.074l18.468-14.16L739.9 293.45l7.938-1.13s-8.553 12.21-13.478 15.905-26.47 9.85-26.47 9.85z" class="C E"/><path d="M743.15 293.073s-8.405 8.6-11.598 10.946-21.306 12.64-21.306 12.64" class="B"/><path d="M786.07 424.574l-1.23-182.22s4.31-3.078 6.156-11.696-1.23-40.014-1.23-40.014-21.546-4.31-20.93-1.847 2.462 29.55 3.694 34.474 6.772 19.084 6.772 19.084l-3.694 165.598c0 6.156 10.465 16.62 10.465 16.62z" class="C E"/><path d="M775.307 198.82l-1.372 17.837m2.744 1.83c0-1.83 1.372-18.752 1.372-18.752m2.744 22.4L780.338 197m3.66 30.643l.457-27.44m.457 32.93s3.2-7.318 3.2-14.178v-16.465m-12.84 205.005s3.536-2.6 7.508 3.48c2.744 4.116 3.2 10.574 3.324 12.662" class="B"/></g><g class="C"><path fill="#dd1810" d="M718.354 140.78s1.847 23.393 8.618 29.55 24.01 6.772 24.01 6.772-19.084 10.465-20.315 20.93 10.465 25.24 10.465 25.24 3.694-5.54 6.156-6.772 8.003-.616 11.08-2.462 10.465-10.465 13.543-10.465 12.312 8.618 16.006 10.465 9.234 3.694 11.696 5.54 6.156 3.694 6.156 3.694 4.31-4.31 6.156-7.387 0-4.925 1.847-8.003 10.465-12.312 8.618-17.237-4.31-6.156-8.618-6.772-8.618 0-8.618 0l8.618-4.925s4.925 1.847 9.234 1.847 19.7-4.925 22.777-5.54 10.465 1.23 10.465 1.23-2.462-26.47-23.393-27.702-18.468 11.696-24.01 15.4-9.85 8.618-9.85 8.618 1.847-6.156 4.925-9.85 10.465-11.08 12.928-14.775 5.54-12.928 5.54-17.237-3.078-11.696-3.078-15.4.616-7.387.616-7.387-12.312 3.694-19.7 9.85-15.4 20.315-15.4 20.315-5.54-10.465-9.234-13.543-13.543-8.003-16.006-10.465-5.54-7.387-5.54-7.387-8.003 16.62-8.003 22.162 4.31 14.16 4.31 14.16c-6.156-2.462-13.543.616-19.084.616s-12.928-3.078-12.928-3.078z" class="F I"/><g fill="#fee500"><path d="M741.942 203.78s4.32-9.18 9.72-10.8 23.22 2.16 23.22 2.16l-2.7 5.94s-7.02 0-7.56-2.16 1.62-3.24 1.62-3.24-8.1-.54-12.96 0-11.34 8.1-11.34 8.1z"/><path d="M787.84 194.6s3.78.54 5.94 3.24 5.4 8.64 5.4 8.64 2.16-4.32-.54-7.56-4.86-4.86-4.86-4.86l2.16-3.24s3.24.54 4.86 3.24 3.24 3.78 3.24 3.78 1.08-3.78-1.08-5.94-3.78-2.7-3.78-2.7 2.16-1.62 5.4-.54 8.64 4.32 8.64 4.32-3.24-5.4-5.94-5.94-6.48-.54-6.48-.54 14.04-14.58 19.44-17.82 15.66-4.86 15.66-4.86 0-2.16-3.78-2.7-19.98 8.1-19.98 8.1l3.78-6.48s-23.758 14.04-26.458 17.82 4.32-10.26 7.02-13.5 8.1-8.1 9.72-12.96 3.24-8.64 3.24-8.64-10.26 9.72-12.42 12.96-3.78 9.72-7.02 8.1-3.78-5.94-3.78-5.94-1.08 7.56-3.24 7.02-3.24-3.24-3.24-3.24 0 4.86-2.7 4.32-.54-4.32-2.7-8.1-5.4-4.32-5.4-4.32 2.7 5.94 2.16 8.64-1.08 9.18-4.86 7.02-4.32-5.4-7.02-4.86 1.08 2.7-.54 4.32-4.86 2.7-4.86 2.7 3.78.54 5.94 3.78 7.02 3.24 9.18 7.56 3.24 10.8 3.24 10.8l15.66-1.62z"/></g><path d="M766.24 170.84l12.96 21.6s4.32-5.94 7.02-5.94 5.94 2.16 5.94 2.16 1.62-10.26 1.08-13.5-2.16-6.48-5.94-6.48-4.86-.54-5.94 2.16-1.08 11.34-1.08 11.34-1.62-9.72-5.4-12.42-3.78-3.78-6.48-2.16-2.16 3.24-2.16 3.24z" class="E"/><path fill="#fee500" d="M752.74 186.5s3.24 3.24 7.02 3.24 14.58 1.62 14.58 1.62l-.54-2.16s-18.36-4.32-21.06-2.7zm-2.16 14.58s-3.78 1.08-5.4 4.32.54 5.4.54 5.4 0-3.78 2.7-5.4 2.16-4.32 2.16-4.32zm-19.98-35.098s2.7 3.24 5.4 3.24 8.1 1.08 8.1 1.08-6.48 3.24-9.18 2.16-4.32-6.48-4.32-6.48zm9.72-16.74s2.7 2.16 6.48 4.32 6.48 2.16 6.48 2.16-1.08-2.16-4.32-3.78-8.64-2.7-8.64-2.7zm14.04-20.52s-1.62 4.86 0 9.18 5.4 8.1 5.4 8.1 1.62-6.48-.54-9.18-4.86-8.1-4.86-8.1zm5.4-1.62s2.16 3.24 3.24 5.94 4.32 5.4 4.32 5.4 0-4.86-2.16-7.02-5.4-4.32-5.4-4.32zm52.917 1.62s-2.16 0-3.78 3.24-.54 6.48-.54 6.48.54-2.16 2.7-4.86 1.62-4.86 1.62-4.86z"/><path d="M794.86 149.782c.001-1.492-1.45-2.702-3.24-2.702s-3.24 1.2-3.24 2.702 1.45 2.702 3.24 2.702 3.24-1.2 3.24-2.702zm-4.86 5.4c.001-1.492-1.45-2.702-3.24-2.702s-3.24 1.2-3.24 2.702 1.45 2.702 3.24 2.702 3.24-1.2 3.24-2.702z"/><use xlink:href="#D"/><path d="M803.498 155.182c.001-1.492-1.45-2.702-3.24-2.702s-3.24 1.2-3.24 2.702 1.45 2.702 3.24 2.702 3.24-1.2 3.24-2.702zm-27.538-6.48c.001-1.492-1.45-2.702-3.24-2.702s-3.24 1.2-3.24 2.702 1.45 2.702 3.24 2.702 3.24-1.2 3.24-2.702z"/><use xlink:href="#D" x="-18.358" y="-3.24"/><path d="M787.3 149.242c.001-1.492-1.45-2.702-3.24-2.702s-3.24 1.2-3.24 2.702 1.45 2.702 3.24 2.702 3.24-1.2 3.24-2.702zm-17.28 4.86c.001-1.492-1.45-2.702-3.24-2.702s-3.24 1.2-3.24 2.702 1.45 2.702 3.24 2.702 3.24-1.2 3.24-2.702zm-11.88 3.24c.001-1.492-1.45-2.702-3.24-2.702s-3.24 1.2-3.24 2.702 1.45 2.702 3.24 2.702 3.24-1.2 3.24-2.702zm52.377 15.12c.001-1.492-1.45-2.702-3.24-2.702s-3.24 1.2-3.24 2.702 1.45 2.702 3.24 2.702 3.24-1.2 3.24-2.702zm7.56 2.7c.001-1.492-1.45-2.702-3.24-2.702s-3.24 1.2-3.24 2.702 1.45 2.702 3.24 2.702 3.24-1.2 3.24-2.702zm2.7-5.4c.001-1.492-1.45-2.702-3.24-2.702s-3.24 1.2-3.24 2.702 1.45 2.702 3.24 2.702 3.24-1.2 3.24-2.702z"/><use xlink:href="#D" x="34.558" y="19.978" fill-opacity=".75"/><path d="M766.78 189.2c.001-1.492-1.45-2.702-3.24-2.702s-3.24 1.2-3.24 2.702 1.45 2.702 3.24 2.702 3.24-1.2 3.24-2.702zm6.48 3.24c.001-1.492-1.45-2.702-3.24-2.702s-3.24 1.2-3.24 2.702 1.45 2.702 3.24 2.702 3.24-1.2 3.24-2.702zm21.6 7.02c.001-1.492-1.45-2.702-3.24-2.702s-3.24 1.2-3.24 2.702 1.45 2.702 3.24 2.702 3.24-1.2 3.24-2.702z"/><path d="M790.54 197.84c.001-1.492-1.45-2.702-3.24-2.702s-3.24 1.2-3.24 2.702 1.45 2.702 3.24 2.702 3.24-1.2 3.24-2.702zm-39.417-33.478c.001-1.492-1.45-2.702-3.24-2.702s-3.24 1.2-3.24 2.702 1.45 2.702 3.24 2.702 3.24-1.2 3.24-2.702zm6.48 3.24c.001-1.492-1.45-2.702-3.24-2.702s-3.24 1.2-3.24 2.702 1.45 2.702 3.24 2.702 3.24-1.2 3.24-2.702zm9.18 5.94c.001-1.492-1.45-2.702-3.24-2.702s-3.24 1.2-3.24 2.702 1.45 2.702 3.24 2.702 3.24-1.2 3.24-2.702zm-7.02 1.08c.001-1.492-1.45-2.702-3.24-2.702s-3.24 1.2-3.24 2.702 1.45 2.702 3.24 2.702 3.24-1.2 3.24-2.702zm3.24 5.94c.001-1.492-1.45-2.702-3.24-2.702s-3.24 1.2-3.24 2.702 1.45 2.702 3.24 2.702 3.24-1.2 3.24-2.702zm7.02-.54c.001-1.492-1.45-2.702-3.24-2.702s-3.24 1.2-3.24 2.702 1.45 2.702 3.24 2.702 3.24-1.2 3.24-2.702zm-5.4-16.2c.001-1.492-1.45-2.702-3.24-2.702s-3.24 1.2-3.24 2.702 1.45 2.702 3.24 2.702 3.24-1.2 3.24-2.702zm6.48-2.7c.001-1.492-1.45-2.702-3.24-2.702s-3.24 1.2-3.24 2.702 1.45 2.702 3.24 2.702 3.24-1.2 3.24-2.702zm6.48-5.926c.001-1.492-1.45-2.702-3.24-2.702s-3.24 1.2-3.24 2.702 1.45 2.702 3.24 2.702 3.24-1.2 3.24-2.702z"/><path d="M780.82 154.102c.001-1.492-1.45-2.702-3.24-2.702s-3.24 1.2-3.24 2.702 1.45 2.702 3.24 2.702 3.24-1.2 3.24-2.702zm3.78 8.64c.001-1.492-1.45-2.702-3.24-2.702s-3.24 1.2-3.24 2.702 1.45 2.702 3.24 2.702 3.24-1.2 3.24-2.702zm12.42 7.02c.001-1.492-1.45-2.702-3.24-2.702s-3.24 1.2-3.24 2.702 1.45 2.702 3.24 2.702 3.24-1.2 3.24-2.702zm6.48-5.94c.001-1.492-1.45-2.702-3.24-2.702s-3.24 1.2-3.24 2.702 1.45 2.702 3.24 2.702 3.24-1.2 3.24-2.702zm7.02-14.04c.001-1.492-1.45-2.702-3.24-2.702s-3.24 1.2-3.24 2.702 1.45 2.702 3.24 2.702 3.24-1.2 3.24-2.702zm-10.8 41.577c.001-1.492-1.45-2.702-3.24-2.702s-3.24 1.2-3.24 2.702 1.45 2.702 3.24 2.702 3.24-1.2 3.24-2.702z"/></g><path d="M788.24 186.542c.947-8.114 3.092-15.56 4.04-23.675" class="B F G"/><g class="C"><use xlink:href="#D" x="-0.54" y="34.558"/><path d="M799.718 180.02c.001-1.492-1.45-2.702-3.24-2.702s-3.24 1.2-3.24 2.702 1.45 2.702 3.24 2.702 3.24-1.2 3.24-2.702zM768.4 199.46c.001-1.492-1.45-2.702-3.24-2.702s-3.24 1.2-3.24 2.702 1.45 2.702 3.24 2.702 3.24-1.2 3.24-2.702z"/><path d="M773.8 198.38c.001-1.492-1.45-2.702-3.24-2.702s-3.24 1.2-3.24 2.702 1.45 2.702 3.24 2.702 3.24-1.2 3.24-2.702zm7.02 1.08c.001-1.492-1.45-2.702-3.24-2.702s-3.24 1.2-3.24 2.702 1.45 2.702 3.24 2.702 3.24-1.2 3.24-2.702zm-10.8-31.318c.001-1.492-1.45-2.702-3.24-2.702s-3.24 1.2-3.24 2.702 1.45 2.702 3.24 2.702 3.24-1.2 3.24-2.702z"/><use xlink:href="#D" x="-22.678" y="22.678" fill-opacity=".75"/></g><path d="M791.072 187.453c3.667-11.265 5.47-24.128 5.407-36.59" class="B F G"/><path d="M795.94 162.74c.001-1.492-1.45-2.702-3.24-2.702s-3.24 1.2-3.24 2.702 1.45 2.702 3.24 2.702 3.24-1.2 3.24-2.702zm12.42 18.36c.001-1.492-1.45-2.702-3.24-2.702s-3.24 1.2-3.24 2.702 1.45 2.702 3.24 2.702 3.24-1.2 3.24-2.702z" class="C"/><path d="M782.047 188.428c3.163-10.64 4.46-22.08 4.69-33.12m-7.412 35.504c-2.728-12.597-1.992-25.06-4.986-37.79m3.092 34.965c-4.303-9.135-5.942-18.67-10.112-27.405" class="B F G"/><g transform="matrix(.90164 0 0 .90164 -104.8469 9.874816)"><g id="A" stroke="#917b01" stroke-width=".5" class="C"><path d="M265.307 205.58s5.314-51.24 4.175-51.62-2.847.76-3.985.2-.033-3.522-.033-3.522c1.576-.49 3.148-.52 4.73-1.474s3.172-2.83 4.757-4.247l-4.813-27.565c5.8 6.512 9.26 22.153 10.257 23.316.907-1.6 4.127-16.093 10.382-23.843l-4.672 27.617c1.53 1.7 2.53 3.535 3.884 4.387s3.342 1.712 4.517 1.717c1.604-.802 1.165 2.095.027 3.044s-3.985.38-3.985.38l4.744 51.62s-8.16-2.277-14.423-2.657-15.562 2.657-15.562 2.657z" class="D"/><path d="M270.048 170.85c.87-2.743 1.49-21.453 2.1-22.923m.372 21.747c.248-2.743.745-21.55.745-21.55m-5.296 56.29c1-4.04 1.732-31.603 2.453-33.768m4.083-22.326l-.124 21.356m-3.526 33.006c.29-4.04.866-31.748.866-31.748m4.398-1.455c.248-.5.124-21.062.124-21.062m-3.08 22.805l-.144 31.46m4.712-33.3l.124-20.964m-2.816 53.975c.29-.722.144-31.026.144-31.026m1.732 30.882l.144-30.882m1.876.577l.144 30.016m2.165-30.45l-.144 30.16m2.02-30.305l-.144 30.305m2.165-28.717l-.144 29.294m1.732-29.583l.722 30.016m-7.982-53.872l.124 20.376m8.58 3.48l1.732 30.016m-8.45-54.166l-.124 20.474m8.862 3.676l2.165 31.026m-9.29-55.274l-.124 20.572m1.86-19.494l-.124 19.886m1.49-20.082l.62 20.376m.62-20.376l1.49 20.376m.248-20.376l1.86 21.062" class="B"/><g class="D"><path d="M278.816 139.772s-15.027-.423-17.304-1.182-3.606-.76-3.606-.76 1.898-3.796 3.606-4.175 6.263 1.898 6.263 1.898l11.758 4.046s14.052-6.133 18.227-5.754 4.365 3.416 4.365 3.416-2.277.95-3.226 1.518-20.082.992-20.082.992z"/><path d="M261.752 146.322s-3.325-3.754-.897-6.372 36.974-1.78 38.682-.26.663 5.24.663 5.24-1.898-.76-4.175-.95-6.452 3.796-6.452 3.796-14.423 1.708-15.182 1.328-2.467-5.124-5.504-5.124-7.135 2.34-7.135 2.34z"/><path d="M260.95 150.59c1.044 1.044 7.913-.838 9.213-.724l19.66 1.717c4.53.395 7.445-2.062 8.963-2.252s.22-5.7-3.64-5.76-25.377-.006-29.637.136-5.603 5.84-4.56 6.885z"/></g><path d="M260.632 144.228s1.206-2.482 2.766-2.624 33.05-.496 34.184-.07 2.624 2.908 2.624 2.908" class="B"/><g class="D"><path d="M266.825 127.204s-.38-.57-1.328-2.467-1.328-5.314-1.328-5.314 4.175-.95 5.883.2S280.3 130.43 280.3 130.43s7.21-8.73 9.3-10.438 6.073-.2 6.073-.2-.95 5.883-2.657 7.59l-13.854 14.233-12.335-14.423z"/><path d="M278.212 128.153l-.2-13.854c-.2-2.277 2.277-3.416 2.277-3.416s1.898 1.708 1.708 3.796 0 14.992 0 14.992l-3.796-1.518z"/></g><path d="M258.15 137.42c.355-.07 3.546-1.844 5.46-1.56s32.552-.07 33.9.07 4.397 1.277 4.397 1.277m-40.92 13.333c1.277-1.56 2.128-3.12 4.184-3.688s29.574-.922 30.496-.638 3.333 2.624 3.333 2.624" class="B"/><g class="D"><path d="M264.902 134.803l-6.806-4.753s3.226-1.518 5.883-.95 15.94 10.084 15.94 10.084 12.525-9.325 15.372-10.084 6.073 1.518 6.073 1.518-5.176 2.976-6.884 5.064-14.613 13.017-14.613 13.017-12.88-12.38-14.967-13.897z"/><path d="M276.694 137.262s-3.606-17.27-3.796-19.737.57-5.504.57-5.504 3.226 1.708 3.985 3.796 3.226 14.992 3.226 14.992 1.14-13.474 2.088-15.182 4.175-3.416 4.175-3.416.95 3.606.38 5.693l-5.314 19.926-5.314-.57z"/></g><path d="M260.136 129.476s2.837 1.135 4.326 2.482 15.106 13.262 15.106 13.262 13.404-12.766 14.822-13.333 6.596-1.277 6.596-1.277" class="B"/><path d="M263.79 127.773l15.75 15.94s12.905-12.525 14.803-14.803l3.985-4.744s-6.452.76-8.54 2.657-9.68 10.817-9.68 10.817-9.3-9.49-11.197-11.766-7.59-1.518-7.59-1.518l2.467 3.416z" class="D"/><path d="M262.087 124.194l17.643 16.484 16.486-16.035" class="B"/><path d="M280.68 133.466s-10.248-11.766-11.576-14.233-.95-4.175-.95-4.175 2.657-.57 4.175 1.14 8.16 11.387 8.16 11.387 5.693-9.49 7.022-10.817 4.365-1.708 4.365-1.708-.2 2.467-1.708 5.124-9.49 13.284-9.49 13.284z" class="D"/><g class="B"><path d="M268.533 115.438L280.3 130.05l11.197-14.803"/><path d="M280.206 111.108l.213 18.58m-6.737-17.305l6.88 18.794 6.17-18.368m-21.845 6.95l15.035 17.234 15.106-17.092"/></g><path d="M268.343 172.56h23.722l-.76-9.68h-22.014l-.95 9.68z" class="D"/><path d="M279.523 172.81l12.122-5.34m-22.8.722l9.957-5.195" class="B"/></g><use id="B" width="744.094" height="1052.362" xlink:href="#A" x="46.178"/><use width="744.094" height="1052.362" xlink:href="#B" x="45.601" y="-.289"/><g class="C"><path fill="#fdd401" d="M240.945 31.9H407.48v70.866H240.945z"/><path fill="#0139ab" d="M375.388 93.563a1.233 2.6 73.114 1 0-.716-2.36 1.233 2.6 73.114 1 0 .716 2.36zm7.25 2.337a1.233 2.6 14.511 1 0-2.387-.618 1.233 2.6 14.511 1 0 2.387.618zm8.106-.697a1.233 2.6-64.112 1 0 1.077-2.219 1.233 2.6-64.112 1 0-1.077 2.219zm-15.955-7.58a1.233 2.6 86.195 1 0-.164-2.461 1.233 2.6 86.195 1 0 .164 2.461zm-53.153-4.513a1.233 2.6-78.608 1 0 .487-2.418 1.233 2.6-78.608 1 0-.487 2.418zm-2.888 4.91a1.233 2.6 76.376 1 0-.581-2.397 1.233 2.6 76.376 1 0 .581 2.397zm11.957 8.542a1.231 2.604 3.433 1 0-2.465-.017 1.231 2.604 3.433 1 0 2.465.017zm-8.783-3.013a1.233 2.6 43.294 1 0-1.795-1.691 1.233 2.6 43.294 1 0 1.795 1.691zm-54.8-51.895a1.233 2.6 18.301 1 0-2.341-.774 1.233 2.6 18.301 1 0 2.341.774zm-6.997-3.78a2.6 1.233 65.758 1 0-2.249 1.013 2.6 1.233 65.758 1 0 2.249-1.013zm-9.906 13.068a2.6 1.233-.569 1 0 .024 2.466 2.6 1.233-.569 1 0-.024-2.466zm1.52-11.575a2.6 1.233 20.847 1 0-.878 2.305 2.6 1.233 20.847 1 0 .878-2.305zm1.557 41.625a2.6 1.233-1.69 1 0 .073 2.465 2.6 1.233-1.69 1 0-.073-2.465zm-2.692 7.7A2.6 1.233-34.402 1 0 252 90.727a2.6 1.233-34.402 1 0-1.393-2.035zm6.668 6.678a1.233 2.6 19.947 1 0-2.318-.841 1.233 2.6 19.947 1 0 2.318.841zm7.132 1.825a1.233 2.6 0 1 0-2.466 0 1.233 2.6 0 1 0 2.466 0z"/><g fill="#d4170f"><path d="M345.472 37.304s-13.565-.866-15.585 0-2.31 3.752-4.33 3.752-8.947-.577-10.68-.29-5.484 2.31-5.484 5.195.72 7.808 11.256 8.08c11.112.29 30.016-6.927 30.016-6.927l.29 2.886s4.33-4.906 6.638-5.195 4.618 1.154 3.752 2.31-1.732 2.02-1.732 2.02 5.195-1.443 5.195-3.175-1.154-2.02-1.154-2.02 3.175.29 4.33 0 2.31 1.443 1.732 2.598-1.732 2.886-1.732 2.886 5.195-1.443 4.618-2.886-.577-2.31-.577-2.31 4.618-.866 5.484.577-2.02 8.658-2.02 8.658 1.732-4.618 5.484-5.484 5.772-1.732 8.08-.29 10.102 4.618 9.813 8.658c0 2.02-3.463 3.752-8.947 4.04s-23.378-4.04-36.077-4.04-18.47 2.31-26.553 2.886-51.085 0-51.085 0-10.68-3.752-12.7-7.504 2.598-7.793 2.598-7.793L264.37 42.5l-2.02 1.443s1.732-4.33-1.732-4.33-3.175 4.33-3.175 4.33-2.31-4.33-3.752-4.618-2.31 4.618-2.31 4.618 4.04 1.443 3.752 3.463-5.195 2.02-5.195 2.02-.29 3.752.866 4.618 3.463-2.31 4.618-2.02.866 9.524.866 9.524l1.732-2.02.29 8.08 1.732-4.04.29 8.947 6.35-4.33-2.886 9.524 4.04-4.04v5.772l21.935-4.618-2.31 4.04s-5.772 4.906-11.833 5.484-10.68 1.154-13.565.866-5.772-5.484-6.927-5.195.866 3.175-.29 4.618-5.772 2.598-4.33 3.463 6.35.577 6.35 2.02-3.175 3.463-.866 4.618 5.195-3.463 5.772-2.31-.577 3.752 1.732 3.752 2.31-3.175 2.31-3.175l11.256 3.463-2.598-4.33s3.752 2.31 5.484 2.886 4.33.577 4.33.577l-3.463-4.618 7.504 4.04-1.732-4.618 6.35 3.752-1.154-4.04s2.598 2.31 4.618 2.31 3.175-1.732 3.175-1.732l-2.02-2.598s2.31 1.443 5.195 1.732 7.504-1.732 7.504-1.732l-5.484-1.732 5.195-1.732-2.598-1.732 3.752-6.35s1.443.29 6.638 0S339.41 65.3 346.338 65.588s19.626 13.565 25.398 13.276 16.45-1.154 16.45-1.154l-2.598 5.195c-.866 1.732-.866 4.04-.866 4.04l-5.484-.866s.29-1.154-2.02-1.154-1.154 4.33-1.154 4.33-1.732 2.886-.29 3.175 3.463-2.02 4.618-.866-.577 3.463 1.154 3.752.866-4.33 3.175-4.04 3.463 3.175 4.906 2.886 2.02-2.886 2.02-2.886-2.02-.866-2.02-2.31 2.31-5.195 3.752-5.195 1.154 2.886 1.154 2.886l1.443-3.175 1.732.577-2.31-4.33 4.906.577-2.886-3.175 3.175-.29s-2.31-1.154-2.31-2.886.866-4.33.866-4.33-6.35 2.31-12.988.577-15.008-9.813-15.008-9.813 15.297 2.598 19.626 2.31 9.813-.577 10.68-4.04-5.195-12.988-5.195-12.988v3.752s-5.772-6.06-25.11-7.504-33.768 11.545-50.508 10.102c-15.008-1.732-8.37-10.68-.866-9.813 4.618.577 11.833 3.175 15.297 3.175s9.236-3.752 10.4-8.08z"/><path d="M357.305 65.877c-2.02.29-24.244.866-25.11 9.236s8.947 7.215 8.947 7.215l-.29 2.886s-6.35 1.154-10.102 1.154-3.463-4.33-5.484-4.906-2.598 3.175-2.598 3.175l-3.175.29.29 3.175 2.02 1.154.29 2.31 1.732 2.598 2.598-1.443.866 3.752s.866-.866 2.02-1.154 2.02 1.443 2.02 1.443-.29-3.752 3.175-4.04 5.772 3.752 5.772 3.752v-4.04l3.175 3.175.577-4.33 3.752 3.752.866-3.752 2.02 1.732v-3.752l6.35 3.175.866-3.752 5.195 1.443-1.732-1.732h5.484s-2.02-4.618-3.752-6.35-10.967-4.618-11.256-7.215 5.484-8.947 5.484-8.947z"/><g stroke-width=".875" class="H"><path d="M281.688 52.023c-1.154 0-12.4 10.68-13.854 12.7s-.577 5.195-.577 5.195l4.906-4.906s-1.443 2.886-1.443 5.195.866 4.906.866 4.906l2.598-6.35V80.02l3.752-5.484-2.31 10.967 4.906-8.08s-2.598 3.752-1.443 6.35 2.02 3.175 2.02 3.175l2.31-9.524s-.29 5.772.866 7.793 3.175 3.175 3.175 3.175l.577-6.638c.29-2.886-.577-5.195-.577-5.195s2.598 3.463 2.31 5.484-1.154 4.618-1.154 4.618 3.175-3.175 3.752-5.772-.577-4.906-.577-4.906.577 5.484 1.732 6.927 3.175 3.175 3.175 3.175v-9.813s.29 5.484 1.732 6.927 4.33 1.443 4.33 1.443-2.31-4.04-2.598-7.504.577-4.906.577-4.906l1.154 6.35c.29 1.732.866 3.752.866 3.752l.866-6.927c.29-2.02-.29-3.463-.29-3.463s2.598 4.04 2.02 5.195 0 2.31 0 2.31 1.443-5.195 1.443-7.504-1.443-4.33-1.443-4.33l3.752 5.195s1.154-4.906-.577-9.524-10.68-9.813-10.68-9.813l-16.162-1.443z"/><path d="M277.647 45.674s-3.175 2.598-3.175 5.772 2.02 4.04 2.02 4.04l-1.154 5.772 2.02-1.154.29 5.772 2.02-2.886.866 5.484 2.02-2.02v5.484l2.02-2.598 1.154 2.886 1.732-3.175 1.732 2.886 1.443-2.886 3.463.866-.577-1.732 2.31.29-.866-4.618 2.31 3.175.29-3.752 2.598 1.732s1.732-7.504 1.732-12.122-1.443-7.215-1.443-7.215l2.886-4.33-4.906 1.443-1.443-4.04-2.886 2.31-.866-1.732-1.154 1.443-1.443-3.463-2.02 3.463-3.175-2.31-.577 3.175-2.598-1.154-.29 2.886s-4.33-3.175-5.772-3.175 1.443 5.484 1.443 5.484z"/></g></g></g><path stroke-width=".75" d="M279.668 54.332c2.02-.577.866 5.195 3.175 5.772s5.484-2.02 5.484-2.02.866 2.886 3.463 2.598 4.04-6.06 4.04-6.06" class="B H"/><g class="C"><path d="M284.286 64.722s2.93-3.72 3.05-6.183c.116-2.398-1.544-2.652-1.53-3.668s.673-1.374 2.086-1.424c1.48-.052 2.498.605 2.57 1.616.067.944-2.136 1-2.136 3.598s3.175 6.06 3.175 6.06-1.818-.29-2.395 0-1.068 2.31-1.068 2.31.135-1.8-1.308-2.088-2.444-.22-2.444-.22z" class="D"/><path fill="#0139ab" d="M289.088 62.72a1.233 2.6 0 1 0-2.466 0 1.233 2.6 0 1 0 2.466 0z"/><path d="M287.423 46.87c-1.437 1.2-2.576.828-4.58-.042-.113.983.866 4.33 2.598 4.04s1.983-4 1.983-4zm-1.29 2.045c0 .532-.432.964-.964.964s-.964-.432-.964-.964.432-.964.964-.964.964.432.964.964zm4.492-1.82c1.437 1.2 2.5.147 4.504-.722.113.983-.828 4.82-2.56 4.532s-1.945-3.356-1.945-3.8zm1.253 1.856c0 .532.432.964.964.964s.964-.432.964-.964-.432-.964-.964-.964-.964.432-.964.964z" class="D"/></g><path stroke-width=".75" d="M306.162 80.514l2.46-5.56s.107 3.1.535 2.567 1.497-3.85 1.497-3.85 1.497 2.14 1.925 1.4l1.07-1.71s.962 2.78 1.176 2.032 1.07-2.46 1.07-2.46 1.4 2.78 1.4 2.14.428-2.673.428-2.673l1.07 1.497 1.818-2.46s-.214 2.887.214 2.14 1.176-2.353 1.176-2.353 1.176 1.818 1.71 1.07.855-1.4.855-1.4h1.4l.962-1.604 1.176 1.283.856-1.176m18.5 9.41c4.49-.107 4.705-1.71 4.705-1.71m-.962 3.315s2.032-.32 2.78-1.4m0 2.567c2.78-.107 2.673-1.497 2.673-1.497m.428 2.353c2.673.642 2.246-1.497 2.246-1.497m-.32 3.743c1.4-.107 1.604-1.818 1.604-1.818m11.977-16.255c3.53-.642 2.78-.107 2.78-.107m-.856 1.925c1.71.107 2.78-1.283 2.78-1.283m-.75 2.567c1.818-.214 2.032-1.283 2.032-1.283m.428 2.353c1.71-.214 1.925-1.176 1.925-1.176m.107 2.14c1.818-.75 1.497-1.283 1.497-1.283" class="B H"/><g class="C"><path d="M344.157 38.05c-6.347-.807-7.337 2.972-7.337 2.972s3.78-1.504 4.11-1.137-.734 2.495-.293 2.275 3.008-2.018 3.522-4.11z" class="D"/><path fill="#feffff" d="M237.402 28.346h173.622v177.165c0 17.717-21.26 17.717-85.04 38.976-63.78-21.26-88.242-22.352-88.583-38.976V28.346zm7.087 7.087h159.45v170.08c0 7.087-14.173 10.63-77.953 31.9-63.78-21.26-81.496-24.803-81.496-31.9V35.433z"/></g></g><defs ><path id="D" d="M800.258 150.862c.001-1.492-1.45-2.702-3.24-2.702s-3.24 1.2-3.24 2.702 1.45 2.702 3.24 2.702 3.24-1.2 3.24-2.702z"/></defs></svg>