<svg xmlns="http://www.w3.org/2000/svg" xmlns:xlink="http://www.w3.org/1999/xlink" width="2800" height="1400" fill-rule="evenodd" xmlns:v="https://vecta.io/nano"><style><![CDATA[.B{fill-rule:nonzero}.C{stroke-opacity:.94}.D{fill:#fff}.E{fill:#187b01}.F{fill:#d51810}.G{fill:#fedc00}.H{stroke-width:1pt}.I{fill:#0738ac}.J{stroke:#1e501f}]]></style><path d="M0 0h2800v1400H0z" class="D"/><path d="M2000 0h800v1400h-800z" class="I"/><path d="M0 0h800v1400H0z" class="E"/><path d="M1180.2 417.518h441.254V597.74H1180.2z" class="D"/><path d="M1179.375 597.747v141.156c-.04 26.936 5.477 52.16 15.156 75.53l1.656-3.875-2.03-6.094 74.78-183.062 131.125 335.156 131.156-335.156 75.094 183.53-2.25 5.844 1.5 3.53c7.84-19 12.823-39.122 14.563-60.656.527-5.976.465-11.954.47-17.937v-137.97h-441.22zm16.188 219.094c17.014 39.685 46.037 73.935 80.156 102-33.315-28.363-61.044-63.275-80.156-102zm408.094 1.97c-18.742 37.277-45.497 70.927-77.47 98.53 18.622-15.586 35.35-32.73 48.844-50.625 11.592-15.228 21.235-31.12 28.625-47.906zm-141.25 141.75c-19.735 10.207-40.487 18.32-61.812 23.97 4.567-.113 9.634-1.265 16.938-3.812 14.88-5.33 30-12.145 44.875-20.156zm-123.844.438c12.198 6.578 24.765 12.463 37.688 17.5 10.747 3.632 16.618 5.996 23.313 6.063-21.036-5.57-41.5-13.546-61-23.562zm60.125 20.063l1.313 3.5c.042 0 .083-.03.125-.03l1.125-2.97-1.187 1.03-1.375-1.53z" class="I"/><g class="D"><path d="M1429.12 877.81c-4.296-20.64-9.177-38.537-4.286-59.83 7.894-34.857 6.536-38.03-.636-72.416-4.886-25.966 8.483-50.933 5.9-76.836-1.74-27.094-11.536-41.642 0-68.58l-13.188.305c-12.78 24.74-1.207 42.454.332 68.583 2.635 26.465-11.176 50.62-6.52 76.688 6.615 28.416 8.47 43.69.804 72.404-6.2 23.796 4.54 58.752 8.085 83.34l9.518-23.658z"/><path d="M1422.85 817.53l3.983.902v.006l-.42 1.937-.366 1.918-.313 1.9-.262 1.884-.215 1.87-.168 1.857-.124 1.844-.08 1.832-.04 1.822v1.815l.037 1.807.072 1.804.11 1.798.138 1.795.17 1.792.198 1.79.224 1.794.25 1.793.273 1.798.294 1.8.313 1.806.33 1.812.347 1.82.36 1.826.373 1.837.384 1.847.39 1.86.8 3.756.406 1.9.406 1.916.405 1.933-3.997.83-.403-1.922-1.613-7.57-.393-1.868-.386-1.86-.378-1.856-.365-1.852-.352-1.847-.338-1.845-.32-1.844-.3-1.843-.28-1.845-.256-1.847-.232-1.848-.206-1.854-.174-1.86-.145-1.864-.11-1.873-.077-1.88-.04-1.9v-1.903l.04-1.912.084-1.924.13-1.938.175-1.95.227-1.968.276-1.983.33-2 .385-2.017.44-2.036v.006zm3.983.902v.006l-.01.048.012-.054zm-4.633-72.49l4.013-.756-.01-.04 2.412 11.56.515 2.526.477 2.402.44 2.295.403 2.194.363 2.11.326 2.034.285 1.97.243 1.92.202 1.88.158 1.85.115 1.83.072 1.824.025 1.825-.02 1.838-.066 1.863-.116 1.896-.162 1.94-.2 1.995-.26 2.062-.306 2.14-.357 2.23-.405 2.332-.456 2.444-.505 2.568-.558 2.705-.61 2.854-.66 3.013-.715 3.185-3.983-.902.712-3.17.657-2.992.604-2.828.55-2.674.5-2.53.45-2.4.396-2.28.347-2.168.296-2.073.25-1.987.2-1.912.155-1.85.11-1.8.064-1.76.02-1.736-.022-1.723-.067-1.722-.1-1.736-.15-1.76-.192-1.796-.234-1.846-.275-1.905-.317-1.98-.355-2.062-.396-2.157-.436-2.264-.472-2.38-.5-2.5-.548-2.65-1.87-8.937zm.01.04l-.01-.04v-.007l.01.046zm5.85-77.12l4.075-.262-.01-.072.203 2.5.113 2.5.03 2.483-.047 2.47-.117 2.463-.18 2.453-.235 2.446-.287 2.435-.33 2.43-.367 2.42-.397 2.413-.42 2.407-.44 2.4-.45 2.393-.908 4.772-.445 2.38-.432 2.374-.41 2.368-.385 2.366-.353 2.36-.315 2.357-.27 2.355-.22 2.352-.164 2.35-.103 2.347-.034 2.346.04 2.346.118 2.346.203 2.343.295 2.347.392 2.35-4.013.756-.418-2.515-.316-2.505-.217-2.497-.125-2.487-.043-2.478.037-2.47.108-2.46.17-2.452.23-2.44.28-2.435.322-2.426.363-2.42.392-2.413.418-2.406.437-2.4.448-2.393.908-4.774.447-2.38.435-2.376.416-2.37.4-2.368.358-2.363.32-2.36.278-2.357.228-2.356.174-2.354.1-2.352.045-2.35-.028-2.35-.106-2.35-.19-2.352-.01-.072zm.01.072v-.072l.01.072zm2.08-66.743l-.094-4.082 1.924 2.844-.996 2.43-.876 2.36-.763 2.29-.657 2.23-.555 2.172-.46 2.122-.37 2.076-.286 2.035-.207 2-.132 1.97-.064 1.948v1.93l.06 1.915.112 1.906.16 1.904.205 1.905.243 1.913.276 1.924.306 1.94.33 1.96.347 1.985.73 4.067.37 2.087.366 2.13.36 2.176.345 2.228.324 2.283.3 2.342.27 2.405.232 2.473.188 2.543-4.075.262-.183-2.465-.224-2.398-.26-2.336-.292-2.28-.317-2.23-.338-2.183-.353-2.14-.364-2.106-.37-2.073-.73-4.07-.352-2.007-.335-1.996-.313-1.988-.286-1.985-.253-1.984-.215-1.993-.168-2.003-.12-2.015-.06-2.035v-2.06l.07-2.082.142-2.114.22-2.146.307-2.184.396-2.225.493-2.27.59-2.318.7-2.368.808-2.426.924-2.486 1.045-2.55 1.924 2.844zm-.094-4.082l3.174-.073-1.25 2.917-1.924-2.844zm-13.188.305l13.188-.305.094 4.082-13.188.305-1.86-2.978 1.767-1.104zm-1.767 1.104l.556-1.076 1.21-.028-1.767 1.104zm4.178 69.318l-4.063.404-.01-.082-.17-2.378-.22-2.334-.266-2.294-.307-2.258-.34-2.225-.367-2.194-.4-2.168-.405-2.145-.415-2.122-.833-4.198-.406-2.08-.39-2.07-.37-2.066-.34-2.06-.303-2.063-.263-2.065-.214-2.072-.158-2.08-.097-2.09-.027-2.104.05-2.12.13-2.137.223-2.157.316-2.177.422-2.202.53-2.225.646-2.252.767-2.28.894-2.3 1.026-2.34 1.166-2.376 3.628 1.873-1.1 2.223-.956 2.18-.83 2.14-.707 2.105-.594 2.075-.488 2.046-.386 2.022-.293 2.004-.204 1.987-.122 1.974-.045 1.968.025 1.962.1 1.96.15 1.965.202 1.968.252 1.977.294 1.988.33 2.002.36 2.018.384 2.04.402 2.06.833 4.198.42 2.14.4 2.176.397 2.21.377 2.25.35 2.287.316 2.332.275 2.376.23 2.424.176 2.474-.01-.082zm-4.063.404l-.01-.057v-.025l.01.082zm-2.5 76.023l-3.978.926-.02-.104-.397-2.52-.29-2.51-.193-2.494-.1-2.48-.015-2.47.064-2.457.134-2.445.2-2.433.257-2.422.307-2.413.353-2.402.39-2.396.42-2.387.445-2.38.462-2.374.474-2.372.957-4.73.47-2.36.454-2.357.435-2.36.41-2.356.376-2.36.334-2.356.292-2.362.24-2.362.183-2.367.118-2.37.05-2.376-.026-2.383-.106-2.39-.194-2.4 4.063-.404.206 2.55.113 2.532.028 2.516-.052 2.502-.125 2.486-.2 2.47-.248 2.457-.3 2.443-.346 2.43-.385 2.418-.416 2.406-.442 2.396-.46 2.386-.472 2.38-1.428 7.087-.457 2.35-.438 2.346-.413 2.34-.38 2.337-.34 2.334-.298 2.333-.248 2.33-.2 2.33-.13 2.33-.06 2.332.013 2.334.094 2.337.18 2.34.272 2.348.37 2.355-.02-.104zm-3.978.926l-.012-.05-.01-.054.02.104zm4.77 72.457l-3.952-1.032v-.01l.684-2.63.63-2.552.574-2.48.523-2.415.47-2.355.418-2.298.37-2.248.32-2.2.27-2.158.223-2.124.178-2.093.132-2.065.087-2.044.045-2.03v-2.02l-.04-2.015-.08-2.014-.122-2.02-.162-2.03-.2-2.046-.237-2.067-.275-2.093-.312-2.122-.347-2.16-.38-2.198-.417-2.245-.45-2.296-.482-2.35-.514-2.41-.546-2.474-.575-2.544-.605-2.62 3.978-.926.607 2.635.58 2.563.55 2.5.52 2.438.49 2.383.457 2.334.424 2.288.39 2.248.357 2.212.32 2.18.285 2.154.245 2.135.208 2.117.167 2.107.126 2.1.085 2.096.043 2.098v2.105l-.045 2.117-.092 2.13-.137 2.152-.185 2.176-.233 2.204-.28 2.238-.33 2.277-.38 2.318-.43 2.367-.484 2.42-.535 2.477-.588 2.538-.643 2.607-.698 2.68v-.01zm-3.952-1.032v-.01l-.034.128.03-.117zm8.166 83.094l3.79 1.524-3.915-.47-.35-2.3-.386-2.37-.42-2.426-.45-2.48-.475-2.528-.496-2.57-.51-2.61-1.6-8.034-.533-2.732-.527-2.75-.516-2.767-.5-2.78-.483-2.787-.457-2.792-.43-2.792-.397-2.8-.36-2.782-.318-2.77-.272-2.756-.22-2.738-.164-2.717-.105-2.692-.04-2.66.03-2.63.105-2.593.184-2.554.27-2.51.36-2.46.456-2.41.554-2.356 3.952 1.032-.51 2.17-.423 2.238-.335 2.3-.254 2.362-.175 2.417-.1 2.47-.028 2.516.037 2.56.1 2.597.16 2.63.215 2.662.265 2.687.31 2.71.352 2.727.4 2.74.423 2.75.452 2.754.476 2.754.496 2.753.514 2.746.522 2.734.53 2.72.534 2.7 1.056 5.332.514 2.62.498 2.588.48 2.55.456 2.51.427 2.46.393 2.414.357 2.36-3.915-.47zm3.79 1.524l-2.832 7.04-1.083-7.51 3.915.47zm9.518-23.657l-9.518 23.657-3.79-1.524 9.518-23.658 3.893.346-.104 1.178zm.104-1.178l.126.606-.23.572.104-1.178z" class="B"/></g><path d="M1268.938 647.435l-70.03 171.313-2.72-8.187-1.72 4.063c39.54 81.828 117.583 146.933 205.594 170.063l-32.22-84.47-98.906-252.78zm131.125 337.25c88.043-23.145 166.063-88.2 205.625-170.062l-1.625-3.844-2.97 7.813-69.875-171.156-98.594 251.97-32.562 85.28z" class="F"/><path d="M1400.07 956.572l131.15-335.158 75.1 183.533-5.24 13.656-69.86-171.153-131.15 335.154-131.14-335.154-70 171.307-4.76-14.282 74.77-183.06z" class="D"/><path d="M1620.6 479.162v55.566h-192.75v63.034h-55.72v-63.034H1179.4v-55.566h192.75V416.29h55.72v62.873z" class="F"/><g class="B"><path d="M1427.86 412.955l3.34 3.334-3.34-3.334h-55.73v6.665h55.73l-3.33-3.33h6.67v-3.334zm-55.72 188.133l-3.34-3.33 3.34 3.33h55.72v-6.664h-55.72l3.33 3.333h-6.67v3.33z" fill="#231f20"/><path d="M1623.94 597.757V416.29l-3.335-3.334H1179.39l-3.338 3.334v322.614c0 76.53 43.397 139.107 101.137 185.44 22.715 18.28 48.978 34.778 75.253 47.467 13.793 5.998 32.426 15.337 47.63 16.195 15.197-.85 33.85-10.202 47.635-16.195 26.628-12.84 52.147-29.035 75.248-47.467 57.387-46.316 101.26-109.108 100.985-185.44V597.757zM1182.725 419.62h434.542v319.283c.013 74.7-42.59 134.783-98.433 180.357-23.698 18.43-46.926 33.468-73.982 46.52-12.682 5.908-30.703 14.218-44.78 15.56-14.094-1.35-32.072-9.643-44.77-15.56-26.692-12.895-50.658-28.23-73.985-46.52-55.833-45.15-98.713-106.002-98.6-180.357V419.62zm-3.334-6.665h-3.338v3.334l3.338-3.334zm437.876 184.802l3.338-3.333v6.664l-3.338-3.33zm6.673-181.468v-3.334h-3.335l3.335 3.334z"/></g><g class="D"><path d="M1383.1 912.592c13.337-32.626 2.87-63.927 8.57-94.155 8.44-35.802 6.85-37.136-.63-72.387-5.01-25.286 9.396-50.618 6.357-76.86-2.027-27.888-12.353-41.058 0-68.584l-13.355.322c-5.213 13.95-6.998 15.53-5.223 31.752 1.696 12.396 4.597 24.38 5.38 36.847 2.693 26.022-11.094 51.092-6.176 76.675 7.24 36.4 9.1 35.522.308 72.39-4.3 22.447 1.144 46.13-4.438 70.186l9.21 23.813z"/><path d="M1389.67 817.968l3.973.938.02-.09-.477 2.774-.393 2.785-.315 2.796-.243 2.806-.18 2.818-.122 2.83-.074 2.842-.028 2.855.01 2.867.034 2.877.055 2.9.07 2.902.155 5.84.07 2.936.054 2.95.034 2.962v2.975l-.037 2.985-.08 3-.132 3.01-.192 3.02-.26 3.033-.334 3.047-.42 3.057-.508 3.067-.607 3.08-.71 3.09-.827 3.098-.946 3.1-1.074 3.12-1.21 3.125-3.78-1.545 1.155-2.983 1.024-2.975.904-2.97.79-2.963.683-2.96.58-2.954.49-2.952.403-2.946.325-2.943.25-2.94.188-2.936.128-2.935.08-2.933.034-2.93v-2.928l-.032-2.924-.054-2.924-.07-2.922-.226-8.754-.055-2.916-.037-2.913-.01-2.91.03-2.91.074-2.9.126-2.907.184-2.908.253-2.906.327-2.904.4-2.9.498-2.9.02-.09zm-.02.09l.01-.028.014-.063-.02.09zm-.627-71.613l4.006-.794-.01-.027.683 3.204 1.84 8.557.54 2.543.502 2.41.464 2.293.423 2.184.386 2.09.344 2.01.3 1.942.26 1.885.215 1.844.17 1.812.124 1.79.078 1.783.03 1.787-.02 1.8-.07 1.826-.12 1.863-.17 1.91-.22 1.97-.273 2.043-.324 2.128-.378 2.225-.43 2.336-.484 2.458-.537 2.594-.594 2.74-.65 2.903-.706 3.078-.764 3.266-3.973-.938.76-3.25.702-3.06.645-2.88.587-2.71.53-2.556.475-2.413.42-2.282.366-2.164.314-2.057.26-1.963.21-1.88.16-1.814.115-1.76.064-1.717.018-1.69-.027-1.676-.073-1.675-.117-1.69-.162-1.715-.206-1.756-.25-1.81-.292-1.876-.334-1.955-.377-2.046-.418-2.15-.457-2.264-.5-2.392-.536-2.533-2.532-11.79zm.01.027l-.01-.037v.01l.01.027zm6.318-77.135l4.072-.295-.01-.087.243 2.538.143 2.528.053 2.518-.033 2.51-.11 2.498-.18 2.487-.24 2.477-.296 2.468-.345 2.457-.386 2.448-.42 2.438-.448 2.43-.47 2.42-.48 2.412-.49 2.405-.488 2.394-.482 2.388-.468 2.378-.448 2.372-.42 2.362-.387 2.354-.348 2.347-.3 2.34-.248 2.332-.19 2.322-.124 2.317-.052 2.308.026 2.3.11 2.296.2 2.29.295 2.284.4 2.28-4.006.794-.43-2.46-.32-2.46-.214-2.454-.116-2.45-.028-2.445.057-2.44.13-2.435.198-2.43.258-2.426.312-2.422.358-2.418.397-2.413.43-2.41.455-2.407.472-2.404.484-2.4.974-4.794.478-2.393.462-2.392.44-2.388.41-2.388.377-2.385.335-2.383.287-2.38.232-2.38.17-2.38.104-2.378.03-2.376-.048-2.376-.136-2.376-.227-2.378-.01-.087zm.01.087v-.087l.01.087zm2.078-66.778l-.1-4.082 1.912 2.877-1.067 2.48-.94 2.396-.82 2.322-.706 2.248-.598 2.183-.496 2.122-.4 2.068-.31 2.022-.224 1.978-.145 1.946-.073 1.918-.01 1.894.06 1.88.115 1.87.168 1.867.214 1.868.256 1.878.294 1.89.325 1.9.352 1.935.372 1.963.386 1.997.396 2.037.4 2.08.4 2.132.39 2.185.376 2.245.354 2.31.33 2.376.298 2.453.26 2.53.217 2.614-4.072.295-.2-2.53-.253-2.453-.288-2.38-.32-2.313-.347-2.252-.366-2.198-.384-2.147-.392-2.104-.397-2.067-.396-2.035-.39-2.007-.377-1.987-.357-1.972-.334-1.96-.304-1.957-.268-1.958-.226-1.963-.177-1.976-.122-2-.06-2 .01-2.036.078-2.065.157-2.098.243-2.137.333-2.178.43-2.224.532-2.276.638-2.33.75-2.39.87-2.454.99-2.524 1.12-2.598 1.912 2.877zm-.1-4.082l3.24-.078-1.326 2.955-1.912-2.877zm-13.355.322l13.355-.322.1 4.082-13.355.322-1.962-2.756 1.863-1.326zm-1.863 1.326l.483-1.293 1.38-.033-1.863 1.326zm-1.287 32.2l-4.046.553-.01-.054-.158-1.495-.137-1.417-.116-1.344-.097-1.276-.073-1.215-.053-1.155-.033-1.104-.012-1.058.012-1.016.032-.976.054-.944.076-.915.1-.892.12-.87.143-.852.164-.84.187-.832.207-.826.228-.824.248-.83.267-.834.286-.847.305-.867.324-.888.34-.917.36-.95 1.197-3.104.893-2.337.476-1.264 3.824 1.43-.48 1.28-.462 1.212-.86 2.232-.398 1.03-.376.98-.354.932-.332.89-.312.853-.288.82-.267.793-.246.768-.224.75-.202.735-.183.73-.163.728-.143.73-.124.74-.106.757-.085.778-.07.81-.047.84-.03.883-.01.926.01.976.03 1.03.05 1.09.07 1.156.092 1.226.11 1.3.135 1.38.153 1.462-.01-.054zm-4.046.553v.001l-.01-.056.01.054zm9.432 36.36l-4.06.42-.01-.083-.078-1.146-.1-1.146-.1-1.142-.112-1.142-.12-1.14-.13-1.14-.14-1.14-.148-1.14-.155-1.14-.162-1.137-.168-1.136-.175-1.14-.18-1.137-.184-1.137-.19-1.14-.19-1.14-.195-1.14-.196-1.14-.6-3.432-.2-1.147-.397-2.3-.196-1.155-.19-1.154-.2-1.16-.186-1.16-.183-1.165-.175-1.167-.17-1.168-.165-1.174 4.047-.553.16 1.148.168 1.15.173 1.146.178 1.146.183 1.146.188 1.144.19 1.144.194 1.143.196 1.143.598 3.435.4 2.29.198 1.148.39 2.297.19 1.15.187 1.154.182 1.154.177 1.157.172 1.16.164 1.16.16 1.162.15 1.167.144 1.167.133 1.174.125 1.174.115 1.178.105 1.182.092 1.186.08 1.188-.01-.083zm-4.06.42v-.083l.01.083zm-2.144 76.067l-4.004.796v-.013l-.422-2.48-.314-2.477-.215-2.47-.12-2.464-.035-2.457.046-2.45.118-2.44.183-2.437.242-2.428.294-2.422.34-2.417.378-2.412.41-2.405.435-2.4.454-2.396.465-2.39.94-4.773.462-2.38.45-2.378.428-2.375.403-2.37.37-2.37.33-2.368.286-2.365.234-2.363.177-2.36.113-2.36.045-2.36-.03-2.36-.11-2.36-.198-2.36 4.06-.42.213 2.513.118 2.504.033 2.493-.047 2.485-.12 2.473-.184 2.465-.243 2.456-.295 2.445-.34 2.437-.378 2.428-.4 2.42-.435 2.41-.454 2.406-.466 2.396-.94 4.773-.46 2.376-.45 2.37-.428 2.363-.402 2.357-.37 2.353-.33 2.346-.285 2.342-.233 2.336-.176 2.33-.11 2.328-.044 2.322.033 2.317.113 2.317.2 2.313.293 2.31.393 2.31v-.013zm-4.004.796v-.013l-.027-.143.03.156zm4.316 72.378l-4.01-.77.02-.09.79-3.34.73-3.132.668-2.936.6-2.753.55-2.583.5-2.427.435-2.283.378-2.154.322-2.04.27-1.935.216-1.846.165-1.773.116-1.71.067-1.668.02-1.637-.026-1.622-.072-1.62-.117-1.638-.16-1.67-.203-1.713-.247-1.772-.29-1.845-.33-1.932-.372-2.033-.412-2.146-.452-2.274-.49-2.413-2.317-11.314-.664-3.31 4.004-.796.66 3.3.63 3.096.595 2.907.563 2.732.528 2.572.49 2.425.455 2.293.42 2.177.38 2.073.34 1.982.3 1.91.256 1.85.215 1.798.17 1.766.124 1.742.077 1.734.028 1.737-.023 1.753-.072 1.78-.123 1.82-.175 1.872-.228 1.938-.28 2.017-.334 2.11-.4 2.216-.444 2.335-.5 2.47-.557 2.62-.614 2.78-.673 2.957-.734 3.15-.776 3.267zm-4.01-.77v-.023l.015-.066-.02.09zm-.53 69.835l-3.808 1.472-.085-1.198.48-2.202.42-2.203.367-2.2.313-2.202.267-2.202.22-2.202.18-2.203.143-2.202.11-2.203.08-2.2.054-2.203.03-2.2.013-2.2v-2.2l-.014-2.197-.02-2.198-.07-6.582-.013-2.192v-2.19l.014-2.186.033-2.186.055-2.184.084-2.182.115-2.18.15-2.178.188-2.172.232-2.172.28-2.167.332-2.164.384-2.16 4.01.77-.367 2.056-.315 2.067-.267 2.075-.222 2.087-.183 2.096-.145 2.107-.1 2.118-.082 2.127-.056 2.137-.03 2.146-.014 2.156v2.165l.013 2.173.045 4.374.026 2.2.02 2.207.014 2.216v2.224l-.013 2.23-.033 2.24-.054 2.245-.082 2.254-.113 2.26-.148 2.268-.188 2.274-.228 2.28-.276 2.287-.327 2.29-.38 2.297-.442 2.302-.502 2.306-.085-1.198zm-3.808 1.472l-.227-.587.142-.61.085 1.198zm9.21 23.813l-9.21-23.813 3.808-1.472 9.21 23.813-.014 1.508-3.794-.037zm3.794.037l-1.942 4.752-1.852-4.788 3.794.037z" class="B"/></g><path d="M1179.4 601.088l-3.33-3.33 3.33 3.33h441.22v-6.664H1179.4l3.34 3.333h-6.67v3.33z" fill="#231f20" class="B"/><path d="M1268.3 726.203a17.09 17.09 0 0 1 3.33 33.815c-22.26 3.032-28.852-27.346-6.826-33.5l3.496-.314zm263.56 0c-20.435 1.237-23.3 28.46-3.338 33.815 22.265 3.032 28.852-27.35 6.82-33.5l-3.483-.314zm-263.56 63.03a17.09 17.09 0 0 1 3.33 33.813c-22.264 3.02-28.865-27.313-6.826-33.496l3.496-.317zm263.56 0a17.09 17.09 0 0 0-3.338 33.813c22.268 3.02 28.86-27.318 6.82-33.496l-3.483-.317z" class="G"/><path d="M1176.06 597.757h6.67l-3.34 3.33h441.22v-6.664H1179.4l-3.33 3.333 3.33-3.333h-3.33z" class="B"/><path d="M1293.72 123.997l-1.75 1.906-2.062 2.687-.812.97-.78.47-1.594-.312-2.687-.812-2.72-.156h-5.687l-1.78.156v1.125l1.125 1.125 2.063 3.156.813 3.03.78 3.344.47 3 .313 2.063-1.25 1.75-.97 1.594c-4.244 7.14-4.362 12.93-8.406 19.375-2.747 3.463-6.762 4.605-10.78 7.438l-1.437.97-.812 1.594.5 2.53.78 2.688 1.594 2.563 1.094 2.53.344 1.594.625 1.25 1.75 1.438 2.22 1.125 1.906 1.406 1.594 1.594.313 1.594 2.22.938h3.656l4.438-.625 4.28-.625 1.75.313 1.75.938 2.063 1.438.313 2.22.97 3.344 2.375 3.188 2.688 3c8.71 6.39 1.45.67 7 12.688 2.796 5.355 4.58 7.313 6.188 13.344l2.375 5.25 10.813 10.97 1.25.78 2.563 1.438 2.22 1.563 2.375 1.438 2.53 1.75.97.78.938 2.875.97 3.344.625 3.156c2.212 13.963 2.77 21.582 2.22 35.906-1.557 16.702-4.356 11.62-15.406 18.72-3.606 3.666-2.2 4.215-6.656 8.72l-1.75 1.438-2.375.47-2.875 3.344-2.844 2.53-3.187 2.375c-9.36 7.663-23.104 12.31-27.28 24.625l-.97 2.375-1.28 2.22-1.094 1.75-1.125 1.594-2.22 1.75-2.375 1.094-.312.5-1.75 1.594-1.125 3.813-1.406 1.094c-7.628 7.906-9.624 14.42-3.03 23.5 4.783 5.38 22.382 5.253 28.094 2.53 5.894-1.854 15.6-6.36 20.97-7.125 2.8-3.195 8.918-5.355 13.03-5.875 8.476-1.467 20.722-1.877 28.094-4.78 14.18-6.746 29.13-4.623 44.28-3.97h5.406l5.25-.625 4.906-.47 4.938-1.437 4.125 1.906c5.776 3.115 15.893 3.792 22.53 4.906 26.063.275 12.716.1 33.344 5.25l2.375.656 2.72.47 2.53.156 2.844.156 1.75.78c6.75 3.025 11.206 3.868 18.594 3.813l1.094 2.375L1509 412.8l3.813 1.875 3.97.813 3.97.625 2.063.656h1.906l3.97.625 3.813.156h4.125l3.5-.78 1.75-.656 1.438-1.437c7.864-9.357 4.294-28.056-6.22-34.594-11.075-9.326-13.5-8.95-18.72-22.875-9.816-14.98-11.088-2.24-10-25.22 1.647-14.495-5.5-13.513-4.437-30.187v-11.094l-3.844-4.78-2.22-5.562c-3.316-11.444 1.82-22.797 3.656-33.97 3.954-10.675 1.662-13.66.97-23.812-.633-7.613 2.56-4.62 2.844-15.875 1.854-3.908 2.64-9.244 5.25-11.906 2.013-3.508 4.517-7.69 4.125-11.906h.938l.156-8.562.5-.656 1.094-4.125v-2.22l-.156-2.375v-.812l-.47-2.687c-3.045-7.923 1.775-3.933-4.625-13.812-4.547-5.398-6.272-3.804-11.72-10l-1.594-.47-.656-.312-2.22-.156-3-2.25-1.594-.47h-1.28l-2.375.47-2.375-.937-1.594-.812h-.47l-1.28.97-4.906.313h-2.375l-1.906.97c-4.752 2.353-10.403 4.392-15.562 6.97l-2.562 1.438-2.22 1.438-1.906 2.063-2.53 1.25-.656 1.438-1.094 2.063-2.22 1.438-2.53 1.094-1.594 1.906-.625 1.438.156.78-1.125 2.406-2.844 2.688.313.938-.97 2.25-1.25 1.563-1.594 1.906-1.28 2.25-.156 1.25.47.656c-4.926 11.667 2.46 5.214-6.187 15.375l-10.156.97-3.5-.47-3.97-.97-3.5-.47-3.625-.812-3.5-.937-3.656-1.125-3.97-1.094c-10.274-3.327-10.757-4.773-18.72-9.22l-2.406-2.53-.937-1.125-.625-.625-2.094-1.437-2.375-1.25-1.094.313-.812.78-.78-1.75v-1.594l-1.75-.47-.312-2.22-.156-1.28-.47-.312-.344-.156-.78-1.437-1.594-1.406-1.094-.812-.97-1.562-.625-.5-.5-.312-.47-1.75-2.53-.47-.78-.47v-.812l-.344.344-2.375-2.562-.312-1.28-.625-.156-.5.5-1.406-.97-.97-2.22-.78.97-.156-.344-1.75-1.406-.97-2.062-.625.156-1.28-.97-.47-1.906-.937.344-1.28.313-.78-1.437-.47.313-.5 1.75-1.125 1.438-1.875-3.187-.97.813-.156-.344-.937-.937-.97-1.75-1.125 1.75-2.03-2.22-1.437 1.906-1.28-1.75-.937 1.094-1.125-.47-5.406-3c-5.506-3.997-12.74-5.5-17.125-10.97zm133.813 138.906l3.5 1.28 1.906 2.688.156.344c-.128 23.47 43.934 18.048 18.906 56.03-6.218.48-9.884-2.62-15.72-2.375-9.507-.69-19.132.103-28.594 1.094-15.384 2.863-27.925-.587-43.656 3.97l-.47-1.75.47-1.25 2.875-2.375 1.406-3.5c2.125-5.398 2.43-11.174 4.125-17l1.28-2.844 1.594-3.187 2.688-2.53.813-1.75.938-2.062.156-2.062.97-4.437 1.25-3.812 2.875-2.875 2.063-.937h5.063l2.563-.312c4.304.06 7.987-1.826 12.22-2.72 4.214-1.3 8.294-3.863 12.844-5.22l2.875-1.125 3.5-.937 1.406-.344zm50.03 37l2.53.813L1482 302.3l.344.625c1.186 4.05 2.97 10.05 4.594 13.813 1.642 6.63 5.157 7.882 3.813 16.03l-1.594.156h-2.844l-2.72-.937-2.844-1.594-2.562-.97-1.594-.47-5.687-1.28c1.195-9.387.238-20.007 6.656-27.78z"/><path d="M1300.38 140.192l1.264.8.952.638 2.386 2.062 1.584 2.86 1.432 3.014.954 3.02-.8 1.267-1.595.634-4.284-2.696-2.858-3.02-1.43-.157.476-.8-.314-.476-1.114-.795-.953-1.744-3.334-1.6-1.743-1.586v-.952c-.226-5.738 1.2-8.48 3.177-13.5 2.046 4.515 2.6 5.3 3.967 10.48l2.224 2.543zm-17.78.953l-2.06-3.496-.96-3.177v-.952l.96.48 1.1.953 2.38 1.905 1.58 2.22zm20.8-5.715l.158-.32 1.6.32.948.952.162.32 1.1.633 2.54 1.1 3.015 1.748c6.575 3.233 2.645 7.703 5.398 10.8l2.066-1.434 1.43.796 2.062-.314 2.22-.32.162 1.1.958.796h2.535l1.43 1.43 1.748 1.1 1.6.314.153-.476.476.162.796.952 1.27 1.43 1.743-.32.482.476.8.795h2.382l.795 1.906 1.272.156 1.267-.156.795.952.8.8 2.382 1.115 1.6 1.905.634-.158 1.586.8.957 1.1 1.744 2.224 1.586 2.386 1.27 3.017 1.43 2.38v1.43l1.272.8h.47l-.632.794-1.268.472-3.977.482-2.06.314v.476h.8l1.267.48 3.024.948 2.06.638-2.853.472-2.7.476h-.314v.638l.787.634 2.543.476 1.906.482-3.015 1.106-2.382.952-.32.796h.48l1.267.8 3.02.48 1.745.478-2.54.476h-2.224l-.48.318.48 1.74 1.748.324.314.157 3.972.315-.956.48-1.426.796-4.134.634-2.692.314v1.434l.795.314 1.424.157 3.015.476 2.382.32c-2.968 1.266-8.578.45-10.956 3.014l.642.477 11.265-.795-2.538 3.02-3.34 1.1-.787.32h-2.543l-1.6.633-.153.162.153.472.957.638 1.6.952 1.425.158-4.602 1.272-3.496 1.267-.8.32.315.476.476.633 1.906.638h1.6l-1.6 1.107-.796.8v.476l.48.95 1.263.638-1.424.633-.633 1.43.795.796-1.6.8.32.638-2.224 2.858-1.586.477.314.632.958.634 1.428-.32 2.382-.947 1.263-2.225 1.272-2.378 1.276-1.9 1.272-.793 2.373-3.653 2.23-2.7v-1.1c3.012-4.814 7.1-1.65 11.427-4.287l1.115.476 1.902.634 4.45 2.063 2.066.638.796.952-1.743 2.22-.48 2.067v.476l.48.953.468 1.586-.948 3.015.48 3.02.468.477.633.948 1.114 2.224 1.6.796-.795.638-.796 1.266-.795 2.858-1.9 1.75.948 1.428.157 1.1-1.106 1.1-3.816 2.38-.795 1.906.795.314-.314.796-3.015 2.224-1.43 2.54v.795l.8.476.795.32-.795.472-1.1.795-2.063 2.858-1.1 2.54 1.263.952h1.115l-1.115 2.544v1.905l.795.314-1.74 2.858-.48 2.544v.47l.948.32.795-.474-.32 1.1v6.665l-.944 3.02 1.74 1.272-1.424 2.533-.633 1.9v.796l.787.157h1.748l3.496-1.27 2.382-.958.633-1.9-.32-1.587v-.634l.638-.638.47-1.743.48-3.8 1.905-2.382 2.068-4.925 2.062-3.334-.322-.8 1.428-1.748.638-1.27v-.64l-1.272-.63.95-.476.48-.953-1.106-2.224 1.106-1.743 1.114-1.272.314-1.27-.314-.16 1.743-2.54.796-2.224-.32-.477.32-2.7.8-2.382.324-.476 2.06-.633 1.587-.32.16-.477-.16-1.424.16-1.905 3.653-2.224 1.586-2.382 1.272.634h1.43l.158-.158.638-1.743.8-1.748.473 1.267.638 1.434 2.067-1.75 1.906-1.114h.476l-1.277 4.13v2.858l.32.634 2.068-.476.63-1.586.326-.162 1.745-1.107 1.43-.48.634-.158 3.333-4.287 3.334-.16 2.382-.47.8-.477-.8 2.857v2.54l.48.476 1.9-.952 1.115-1.586.472-.162v.796l-.472 1.586v2.857l.472 2.544h.473l1.433.157h2.697l1.744-1.905-.312 1.748.472 1.272 2.386-1.115v1.115l.633.8 1.426-.8 1.906-2.386 1.27-2.54 1.12-2.382 1.736-3.177 1.117-.795-1.117-1.426h-1.736l-1.12.477.163-1.27.476-1.75 1.905-3.807 1.6-2.7.63.32 4.13-2.386.158.796.476.48 1.748-1.276 1.27-1.267.153-.32.642 1.114h1.267l2.062-2.38v2.062l.954 1.27 2.695-1.27 1.43-.32.48.638 2.692-1.114 2.237-.634.62.634.157 1.114-.47 2.06-1.43 2.225-1.115 1.748-.63 1.9.315 1.106 3.492-1.106 2.854.472.808.633-.162 1.6-.162 1.906-2.858 2.38-1.114 2.54.47.638-.47 1.107-.468 1.6v4.287l.782 2.7 1.9.952 1.748-.162.162-.47.162.8.625.795 1.905-.16 1.756.314-.167 3.338.482 2.7v.8l.63.477c2.564-1.802 6.775-6.933 9.365-8.575l-.948-2.543 1.1-3.33-1.1-1.1h-1.43l.628-.638.8-1.748v-1.586l.787-3.65.804-.796v-.8l.787-2.7.32-1.904.642-2.063.156-1.9-.156-1.43 1.743-1.905.795-1.902.476-2.224.315-2.22v-4.925l-.8-4.602-.322-4.134-2.06-3.33-1.904-2.224-.162-.476-2.858.156-2.7.796-.47-.158 1.27-2.38 1.102-1.272.158-.8-3.96 1.586-3.33 1.905h-.957l2.7-3.177 1.745-2.696.315-.476h-1.43l-.956 1.1-2.06 1.586-2.224 1.748-2.228 1.6-2.052 1.267-1.436.477 3.33-7.14-.788.8-1.105.953-2.865 3.02-1.897 2.057-2.4 1.586-1.748 1.272h-.625l.944-2.858.322-2.057-.64-.163-.8.795-.953 1.267-2.542 2.702-2.374 1.743 1.267-3.5 1.107-2.854v-.796c-4.4 2.747-4.598 6.647-8.724 9.207l1.586-3.495 1.594-2.858.15-.796-.476-.314c-6.3 5.13-2.637 5.558-9.847 12.223l-1.432 1.114-1.744.796-.8.8-.952 2.225-1.43 2.062-1.115 1.748-1.743 1.586-.952.477-.954-1.43-1.1-.952-.8 1.428-1.114.476.32-4.286.952-3.97.32-.477-1.12-.952-.154.476 1.586-4.443.315-3.177-.315-.953.157-1.267.8-2.544 1.107-2.38 1.905-2.224 1.1-2.22.484-1.1.948-3.493 1.263-3.34-.154-.634-2.224.477.477-.953 1.747-1.586 1.906-1.905 1.264-1.748.803-2.062-.165-.796-2.536 1.434 2.06-3.496 2.857-2.38.8-.477-1.75-.32c2.127-3.887 4.108-1.735 6.827-5.554v-1.272l2.062-2.225 2.23-2.062 2.535-1.748 2.696-1.902 2.4-.794c3.73-1.97 9.973-2.842 14.128-4.607l.787-.795 1.6-.47 3.97.156 2.386-.952 3.5 1.586 2.06-.32.162-.948.956.157 1.745.8 3.015 2.7 2.858-.476.468.796 1.6 1.1 1.114.952 2.867 2.382.468.795 1.582-.477c3.505 3.02 3.557 4.57 5.726 8.733l-1.272.314c1.902 4.15 4.922 13.1 3.65 17.304l-.634-1.263-1.114-1.27v3.806l.643 3.34-.32.8h-1.913l.332.478.47 1.428.158 2.067v2.22l-1.43 2.858-.315 2.857-.48.952v.478h-1.264v.794l-.324 1.74-1.1 3.34-1.267 1.43-.314 1.905-.804 2.062-1.424-1.428c-1 4.176-.285 6.353-3.024 11.113-2.275 3.112-5.313 6.392-7.617 9.365l2.227-.47 2.06-.478h.472c3.5 11.25 1.46 23.274-1.26 34.45l-1.272 4.765-1.114 4.6-.8 4.92-.322.634-1.43 1.905-1.43 1.43-.63 1.424-.476 2.857 1.106-.314.798-.953.63 1.587.957 1.1 1.27 2.857 1.902 2.696 2.06 2.543 2.4 2.544.468 1.743c.456 8.137-4.28 17.752.157 25.1l1.27-1.272v-.162c3.092 7.818 6.606 12.4 2.072 20.963-2.168 10.922 2.855 8.306-10.318 12.385l-.476-3.02.8-2.863v-.632l-2.858 2.7-1.114 2.857-.157.958h-2.22l-1.748-1.434.952-3.177 1.906-2.22.638-.477-4.137 1.424-2.212 2.706-.32.948v.795l-.957.314-.953-1.585.638-2.062 1.272-1.748 2.06-1.43 2.066-1.43 2.068-.948c8.037-2.484 8.245-6.3 4.286-13.337-11.244-32.88-3.27-16.7-27.95-40.964l-3.334-3.97-3.015-3.5-3.33-3.972-2.857-3.8-2.863-3.65-1.902-1.272-4.13-1.585c-9.77-2.3-15.8-4.067-24.77.794-5.622 2.82-14.86 7.5-21.273 7.146l-3.968.63h-3.176l-1.1-.63-.634-1.272v-2.224l2.543-4.602.63-3.65c-4.623 10.403-6.12 8.26-11.908 16.83l-1.106 2.057-.638 1.906v1.905l-.634 3.334-.477 3.334-1.428 2.857-2.22 2.386-1.272.95-1.114 2.382-.8 1.907-.638 2.06c-.528 3.733-1.637 7.375-2.067 11.113-1.276 8.196-3.895 5.414-6.03 10.794l-1.906 8.737-1.748 1.904-1.582 1.114-1.272 1.744-1.905 1.43c-2.463 2.024-7.146 6.614-8.894 9.208l-1.424-.948-1.433-1.915-.634-1.74-1.272 3.653-1.904.948-1.1-.314-.953-3.017-.472-2.386-.318-.476-1.434 3.015-.948 2.863-.638.314-2.068-1.1.796-3.97 1.6-2.543.477-.472.8-.162 1.12-.952 1.9-.476h.953l2.543-.634c10.483-5.627 7.14-15.175 10.795-25.88 7.928-40.454 4.253-28.342-4.45-64.144l-.948.162-.638.953 2.38 18.1-2.7-1.748-1.424-1.6h-1.114l-1.743-2.858-1.114-2.538-.317-.472-.956.472-.315 1.586c-3.743-4.76-.263-7.226-2.543-12.7l1.114-1.428-.162-1.586v-.32l-.157-2.224h1.114l.95-.633-.315-3.172 1.27-2.225h.948v-1.114l.634-.63 1.272-1.115V228.6l-.157-2.225-1.267-4.444-.482-2.7-1.428 3.02-.476 3.015-.315.476-.634-1.1-.957-.953-.952 2.062-.95 1.748-.318.477-.315-1.9-1.115-.8-1.27 3.5-.8 3.017-.324.795-1.42-1.1-.796 3.015-1.114 2.066h-.796l-.318 4.13.318 3.488-.318.795-1.426-1.267-.952-2.544v-3.176l.476-3.5.314-3.015-.314-1.587 1.426-3.334.476-1.905.48-.32.948-3.967.8-2.702-.8-.794-3.805.794-2.386 1.587-1.1-.157.32.476-.32 1.586-.796 3.177-.785 2.224-1.272.634-.953 1.114-1.115-1.748-1.1-.796-1.745 2.544-.952 1.902-.162.318c-3.126-5.673-2.815-12.192 0-17.94l.638-1.43.476-2.224 1.43-2.7.633-2.22.628-.315c2.935-5.46 10.573-19.695 8.58-25.25l-.158 1.114-.795 2.063-.953 4.13-1.27 2.062-.32.954-.796.318-1.263 1.744-.162 1.905-1.586 3.02-.795.633-1.1 1.748-1.276 1.267-.468.162-1.906 2.22-1.752 1.43V204l-1.745 2.22-1.9 1.272h-.472l-1.272 2.062-1.426.795h-.476l-.957.476-1.267-4.126.472-3.333.48-.796.315-2.224.64-2.22-.482-.32 2.063-1.43 1.272-1.267h.48l.63-2.386-.472-1.743-.158-.476.953.476 1.1.633-1.43-2.857-2.06-1.592-.642-.156-2.216-.158-.638.634.158.795-1.264 2.225-.322 2.22v.314l-1.43-.314v.638l-.634.8-1.748.634-.473 1.6-2.543.795-1.266.953-.954-.32-4.924-.952h-4.445l-1.27.318-3.814.8-2.7-.157-.8-.314-.796-1.9 1.905-1.268 2.067-.48 1.743-.472 3.816-.638 4.283-.953 3.653-.472 2.378-.48.48-.472c-7.682-2.956-14.805 2.82-22.392 2.692l-3.964-2.22-1.6-2.062-.8-1.748v-2.063l1.905-2.22.477-2.543v-.634l-2.858-1.6 1.587-2.06 2.38-.638.315-.634 1.277-.795 3-1.906 2.546-2.695 1.745-2.7.63-3.177v-2.224l.796-.953 2.38-2.378 2.07-2.224 2.536-1.6 2.543-.948 1.583-.477.162.8 1.1 1.1 2.862 2.067 1.1 2.38 1.585.633 1.592 1.1 1.105.796 2.538 2.7 2.23 2.858 1.582 3.333.638 1.586 1.114.953h.63l1.43.157 3.332.482 2.066.314.482-.796-.32-.8-.952-1.114-1.114-1.1-1.75.318-1.745-.318 3.332-2.225 2.548-1.1h1.1l1.423-1.905.634-1.267-.634-.638 1.115-.633.8-1.115-1.272-1.743v-3.177l-.634-2.062.634-.32-1.743-.8-.957-1.272-1.584-3.177-1.27-2.696-1.587-2.857c-2.8-3.883-5.635-5.394-7.784-9.528l.8.158 3.015 1.748z" class="D"/><path d="M1277.83 161.466V161l.8.476 1.27.792 3.18 1.75 1.9.634-1.9 1.1-2.23 1.272h-.47v-2.86l-1.75-2.382zm16.03 12.38l1.75 1.276.47.157-1.1.32h-1.26l-2.23-1.43-1.58-.637h-.64l-1.75-1.1-1.74-.476h-2.22l.3-1.428.63.476 1.75.472 3.34.48 1.9 1.1z"/><path d="M1308.47 175.28l-1.1-.157-.64-.477-.16-.315-1.58-.794-1.9.794 1.9 2.063h.48l3.33.314 3.17-.314-1.42-.953zm-4.45 1.1l-.63.476.16 2.062h.8l3 .476 3.66.796-1.6-1.115-3.33-1.74-1.1-.642z" class="B"/><path d="M1310.85 185.76l-2.066-1.43h-2.06l-.16.315.795 1.277.796 1.106v.156l-1.906-.947h-1.6l1.905 2.378-3.174-1.43-2.857-1.26-.476-.163v-.795l1.904-.158.315-1.428.796-.638-.796-1.1v-1.43c4.062 1.212 5.07 1.178 8.26 4.605l.314.953z"/><path d="M1337.2 199.73l.8-.958.95-1.9-2.22 2.857z" class="B"/><path d="M1334.98 205.923l2.54-2.697 1.75-2.224.16-.637v.795l-.16 1.114-1.6 2.22-1.74 1.43zm-7.3 10.952l-.796-1.43 3.017-1.585 2.38-2.382-.315-.32.8-.8.158-.958 2.22-.63c-2.216 2.464-3.853 5.402-6.345 7.618l-1.1.477z"/><path d="M1423.58 234.184v-.634l-1.43-1.114-1.27 2.067 1.43.792z" class="B"/><path d="M1443.1 234.5c-.8 3.014-2.28 6.255-3.176 9.522l-.945.162-.96-.796 1.43-5.078 1.9-4.13.476-.795.948.162.32.953z"/><path d="M1442.15 246.408l2.23.794v-.633l-.8-1.752.8-3.326-.33-1.747-.95-.48-1.74 4.922z" class="B"/><path d="M1490.42 243.073v.633l-.315 1.272-1.428 2.543.31 2.22-.787.795-.162 1.267.638.64.472 1.27-.472 2.22.63 1.586-.32.633-.31 2.068c1.732 8.08-.672 5.18-4.296 10.95l.158-5.236-.946-3.02-1.114-.633-.152-4.13-1.59-2.538h-1.115v-1.743l-.3-2.225.787-1.1 2.23-2.062 2.054-2.544 1.9-1.905 2.696-.952h1.433z"/><path d="M1436.75 264.66l.325.638.156 1.905 1.114 3.334.95 2.068 1.1-.324.162-1.1v-1.906l.318.634.477 1.272.795 2.543 1.43 1.583.156-2.536-.156-2.07v-.47l.468.318.802.634.63 1.905.793 1.43.322 1.905.633.952h.153v-5.558l.324-.476.48.953 1.106 1.276 1.268 3.33.956 2.22.63-.472.322-1.272.48.477.3 1.267 1.276 2.863.948 1.9.48-1.744v-1.44l.784.476.638 1.272.48 3.5 1.898.162 1.433 1.744 1.433.156h.315v.638l.48 1.272.16 2.536.945 1.6.804-.476.782-.953v.477l2.237 3.652-.807 2.698-.788 2.7-.643 2.7-.314 3.014-.315 2.698-.152 2.7-.162 3.015-.32 3.02v2.7l-.324 3.015.957 1.1 1.586-1.6.158-2.696.315-3.177.646-2.7.16-2.854.62-2.706.8-2.854.8-3.015.796-2.382 1.596-2.544 1.582-2.22.95-.32 1.114.32c-6.626 6.367-5.604 18.455-7.94 27.148-.86 6.443-1.375.732-7.146 8.577l-1.43 2.063-1.266 1.424-1.434.953-1.583.795-3.8-1.1-.163-2.386-.463-2.057-2.237 3.645-2.378.798-.795-.798-.477-2.698-.318-2.062-1.426 2.7-1.424 1.9-.48.158c-.633-9.226 5.36-7.3 10.952-8.408l.956-.796 1.1-3.02 1.898-2.695 1.117-2.858 1.434-2.858.787-3 1.1-2.863.64-3.33c2.7-9.182-4.15-17.624-11.592-22.074-11.037-8.1-14.333-7.923-15.085-23.336l.638.158.947 3.33zm-94.78 2.863c7.47 20.414 6.754 28.083 2.068 49.535-1.645 5.24-.353 11.1-5.56 14.604l-1.748 1.115-2.062.318-2.38.315-1.1-.315-2.382 1.744-1.905 1.583v.643-1.748l-1.586-.796-1.114 1.902-1.426.96h-.476l.476-4.448 1.902-3.172 1.114-.32 1.586-.158c4.665-.777 10.36-4.26 12.223-8.735 4.137-17.935-.26-39.005-1.586-57.313l.952.157.482.795 1.263 1.748 1.27 1.586z" class="D"/><path d="M1372.46 289.27v.162l-2.7 1.9-2.23-.32h-.63l1.74-2.7 2.06-1.43.64-.477 1.43.953zm90.5 33.823c-.77 2.556-3.722 9.196-6.98 9.047v-1.43l1.264-.947.638-.796 1.586-2.062 1.116-1.906 1.27-2.066.634-2.063.157-1.114.315 1.586v1.752z"/><path d="M1443.6 326.743l-1.12.63-1.268 2.067-1.27 2.224-.482 2.382v2.538l.482 1.267c4.856 2.91 6.502.132 13.175 2.548 11.785.055 6.473-7.612 14.448-8.735 5.92 1.23 11.852 2.7 17.31 5.398l-3.8 1.59-2.386 2.54-.472.956-.634 2.378v1.748l.32.476.315.634 3.8.796.476.947 1.1.163h6.515l2.698.947c6.013-.387 9.6-5.4 14.443.796 4.585 4.543 4.678 5.002 7.468 10.798l1.434 2.063 1.106 1.905 1.105 1.586 1.272 1.906-.314 1.11-.796.957-1.91-.314-4.445-1.12-3.968-1.106-3.648-1.433-4.13-.157-1.902.157-2.543-1.272-2.538-1.424-2.544-1.267-2.697-.957c-3.717-1.14-9.862-1.34-13.8-1.424l-3.025.314-2.06-.952-4.126-1.43-4.765-.794-4.602-.478c-8.49.53-7.06-.288-15.404-3.33-4.807-1.526-11.016-1.245-16.035-1.905-10.31.775-7.78-1.943-17.467-1.433-5.702.26-11.31 1.202-16.985 1.748-13.483-2.85-19.463 2.445-31.592 3.653-8.893.242-4.755-2.373-14.928 1.266-7.452 2.928-6.163 2.953-13.657 2.702-3.45.046-9.995 1.208-13.172 2.538-8.804 2.72-2.888 3.356-11.432 3.497l-2.544.8-2.534 1.114-2.544.95-.957.48-1.743-.32c-4.925-.587-10.548 1.518-14.448 4.287 2.782-12.385 10.54-14.652 19.053-20.803 5-3.465 8.7-7.084 13.97-9.84 6.065-5.117 7.023-.67 13.495-2.22v3.8l1.586 2.535.633.162h1.434l2.062.32 4.446 1.424 2.862-1.424 3.805 1.267c6.168-2.394 4.93-7.3 12.38-13.337 3.395-3.84 12.984-6.647 18.105-6.665 11.972-.82 23.413.004 35.245-2.858 14.506-2.033 18.135-2.597 32.39 0l1.75.634z" fill="#cdcdcd"/><path d="M1427.23 364.37c3.305 4.394 12.33 5.898 17.298 4.448l-.783-1.433c-8.272 2.067-14.733-4.104-19.853-9.68 22.66-4.07 29.988 15.055 33.823 33.34-8.003 2.245-12.452-7.077-17.79-9.208-7.87-3.68-18.84-3.343-24.924-6.51l.157.477.8 1.27 2.216.638 1.748.63 2.695 1.272 3.338.79 3.016.952c6.98 1.58 14.192 4.402 18.41 10.48-13.814-2.083-25.083-.174-36.027-10.64-5.4-5.69-4.376-5.737-7.626-11.743-2.304-6.124-5.685-6.494-7.467-12.066 7.247-2.6 19.58-3.606 25.564 2.22l5.4 4.763z" class="F"/><path d="M1395 360.558c2.765 3.666 4.1 8.187 6.197 12.23l1.428 2.538v.953l-.314 1.272-1.114 2.062-1.43.956c-13.966 1.183-24.676-12.984-37.783-13.184l-.32 1.272c7.957 1.202 18.172 9.56 25.717 12.7l3.824 1.114 3.794.953 3.82.32 2.378-.796 2.062-1.1.48-.48.63-1.743v-2.062l5.56 8.098c-15.894 7.153-31.7-3.935-45.724-10.323l-4.283-2.382-2.858.796-1.272 1.272v2.7l1.272 2.693 2.062 1.27.953-.32.638-.788-2.23-2.4-1.1-1.9v-.953l1.1-.314h2.067l3.33 2.378 3.025 1.9.947 1.106c3.7 2.636 5.837 1.454 10.642 5.72l-2.386.162h-2.224l-3.174-3.816-3.176-1.114-.948-.162-.32.958.638.16 1.426.633 1.904 1.43.476 1.9-.952.476-1.906.785-2.7-.156-1.743-.63c-5.6-1.14-4.568-.554-9.527-3.972l-2.067-1.434-1.43-1.582-1.424-1.748-1.434-1.748c-2.692-3.16-3.722-7.07-3.8-11.113l-2.38.476-1.424-.638-.473-.315.473-1.267 1.424-1.587 2.705-.48 3.017-.314c5.58-2.433 8.187-2.294 14.443-1.434l3.338.952 3.965 1.276 3.658 1.27 3.176 1.586 3.808 1.43 3.5 1.6 3.496 1.264 1.748-.154.633-.8-.633-1.6-2.23-2.54-2.854-1.747-2.858-1.592-3.333-1.428-1.586-.8-.796.32-.796-.48-.8 1.27.948.478 1.434 1.114 3.496 1.1 2.215 1.747-5.235-2.224-4.45-2.067-1.43-.158-.8-.8c7.162-3.526 15.464-4.1 23.02-1.272l2.853 3.172zm76.2 5.554c4.822 4.632 8.3 13.968 15.715 14.767l2.382-.315 1.428-1.905-.314-1.586-.32-.324-.952-.947c-2.25-.66-7.43-3.816-9.37-5.245.8 5.4 5.142 3.4 8.256 7.465l-1.902.157-2.067-.634-1.27-.795-2.063-1.743-1.745-2.063-1.904-2.386-1.592-1.9-.952-1.272.952-1.586 1.115-.638.157-.157h4.602c5.913.6 12.555 3.3 15.086 9.054 3 5.25 3.445 8.978 3.968 14.92l-1.105 2.38-1.596 1.43-.634.16-3.805-.957-2.386-1.743-.473-.477v1.586l1.267 1.6.476.63.795.638 2.54 1.43 1.748.157 2.853-1.1 1.272.32v.633l-1.272 2.062-1.904 1.273c-2.812.82-7.116-2.283-8.25-4.763l-.958.796.162.8.952 2.067 1.748 1.272 1.587 1.424 2.224.634.8.162.795.318 2.22-.48 1.905-.472 1.748-.162 1.43 2.54c-10.204 1.586-16.48-3.356-20-12.38l-.8-1.9-.952-2.22-1.1-2.54-.634-2.224-1.43-2.062-1.114-2.063-1.744-2.066-2.224-.634-1.582.314h-.324l-.638 1.272v1.586l1.6 3.496 1.115 2.38-.162-3.5-.154-2.858.788-.318 1.433.952.953 1.748 1.105 1.743.643 1.586c1.795 5.35 4.095 10.573 7.298 15.243l-1.745-.157-3.8-.634-3.807-.48-3.338-.634-3.334-1.1-1.9-.477-2.216-4.92v-4.126l.314-.958c2.94.446 5.197 2.86 6.197 5.56 2.602 2.55.8 2.832 6.35 6.665l-1.114-2.378-2.222-1.434-.16-.63-.638-1.43c-.927-2.024-5.844-8.28-6.194-10.326l-2.22-.63-1.586.63-1.582 3.658.3 3.015v.634l2.858 5.396-1.272-.32-2.38-1.586-.948-2.22-1.586-2.225-.804-2.38-.468-1.424-.795-4.606.947-3.815.638-.8 1.754-1.267 1.105-.958v-.476h-3.182l-2.535.958-.48.156-2.854-4.92-2.068-3.815-.314-1.1 1.586-.952 1.748-.472 4.45-.162 4.13.634 4.12 1.748 3.658 2.22z" class="G"/><path d="M1338 367.384l3.178.638.8.32c.5 5.39 1.506 7.422 4.763 11.747l1.43 1.586 1.272 1.27 1.59 1.906 1.743 1.43 1.43.314 1.105.79c-7.736 6.052-17.637 5.733-26.832 7.306 2.453-4.657 6.03-5.9 10.964-7.146l1.42 1.748 1.114-.794v-1.426c-3.517-3.27-6.213-2.513-10.16-.48l-2.853 2.22-2.863 2.543-3.02 2.54-1.582 1.115-3.5-.476c-5.095-4.972-9.285-10.79-13.015-16.83-7.574-10.887 10.182-3.428 13.814-3.02l2.7.634 2.693.32h2.704l2.22-.32 2.067-1.582.634-2.224.16-.476-.48-2.072-1.27-1.744-1.748-.314-1.263 1.114.476 1.43h1.424l.32.32-.47 1.268-1.12.8-1.266.157h-3.335l-3.334-.47-3.172-.954-3.34-.638-1.6-.152c7.37-3.202 15.102-7.298 23.34-4.767l2.862 2.38z" class="F"/><path d="M1434.85 373.74c6.804.902 8.063-3.467 14.285 1.905l-6.98-.633-5.56.633-1.432.158-1.748-.158-4.284-1.1-3.65-2.225-3.33-2.538-3.5-2.857-1.264-1.115c4.6 1.357 11.683 6.783 15.715 7.465l1.745.476z"/><path d="M1524.87 389.3l10.637 4.28.476-.633c-11.9-5.92-16.936-6.984-25.408-19.687 7.137.663 14.504 3.074 20.644 6.51l2.7 1.423 2.216 1.277.8 1.586.473 1.743c1.225 3.594 4.946 9.685 5.09 13.338-.817 14.218-.072 12.84-12.4 12.858l-3.176-.154h-1.748l-1.905-.162-4.76-.948-4.287-1.753-3.33-2.854-3.182-3.49-1.428-1.905-6.984-28.742 2.062-.634 1.905.476h.64l2.22 1.43 2.224 1.423 2.216 1.9c3.344 2.936 8.163 8.966 11.757 11.276l2.538 1.43z" class="F"/><path d="M1304.98 384.852l-.633 1.272-.953.633h-1.114l-3.653-.476-2.536-.48-2.862-.472-2.7-.957-1.272-.63-.314 1.586c8.613 3.66 7.23 4.704 17.62 4.606l.637 1.424c-3.576 3.283-8.526.96-12.384-.633l-.315 1.11.315 1.43 1.748.476 1.266.48 3.177.947 3.017.638 3.338-.16 3.177-1.424 1.425.947.796 1.272.157.638-2.378 2.54-2.067 1.272-.795.314h-5.083l-2.534-.638c-7.355-2.764-8.88-5.167-16.515-8.09l.952 2.06 1.43 1.11.633.16 1.433 1.272c3.424 3.335 8.452 3.998 12.385 6.503l-.318 1.434c-10.723 1.058-14.874-2.14-24.137-4.925l-2.696.476-1.748.638-.32.48-1.424 3.01.315 2.544v.476l.8 1.744h-4.122l-3.014-1.744-.48-.476-2.22-4.606.154-4.13v-1.114c1.846-5.283 10.066-5.34 13.02-7.456-5.89-3.934-6.415-1.463-3.017-7.15 2.833-3.01 6.537-2.68 9.684-5.235 7.648-7.082 18.676-3.25 23.18 5.715l.956 1.586z" class="G"/><path d="M1336.73 379.298l.476.794.315.8c-15.04-.37-14.414 4.87-29.848-4.287l.48-1.585c7.565 5.434 17.182 2.134 25.722 3.33l2.854.958zM1526.62 402l2.378.162 1.114-.958.154-.314-1.582-1.905-2.063-1.6v-.638c10.765 2.973 4.137 11.316-3.18 5.244-5.555-3.126-4.1-5.5-8.728-8.735-3.508-5.406-4.538-2.076-8.098-6.185 9.234 2.085 10.743 9.298 17.94 13.8l2.067 1.1z"/><path d="M1291.17 406.92l-.643.478-1.43 1.582-2.062 1.118-2.06.633c-4.308-.613-10.636-.81-13.342-3.648l.163-2.387 1.428-1.114.154-.154 1.9.154 1.905.638 6.67 1.906 3.335.48 3.972.314z" class="G"/><use xlink:href="#D" class="I"/><g class="D"><path d="M1373.72 490.6l-13.33 13.018v13.176l-13.023 13.18h52.554l-13.023-13.18v-13.176l-13.18-13.018zm52.397 0l13.176 13.018v13.176l13.18 13.18h-52.716l13.185-13.18v-13.176l13.175-13.018z"/><path d="M1386.9 542.982v13.02l-8.9 8.73 21.9 4.607 21.9-4.445-8.73-8.892v-13.02l-13.18-13.178zm-26.67 12.068l-10.64-11.6-5.88-10.323 3.5-3.333 13.02 13.178zm87.8-8.26l-8.74 9.213v-13.02l13.18-13.178 3.5 3.653zm-74.46-56.362h52.55l-13.02-13.176v-13.017l-13.18-13.177-13.02 13.177v13.017z"/><path d="M1373.56 490.428h-33.65l7.14-16.348 13.18-14.6v17.78zm52.56 0l13.17-13.176V459.3l13.02 14.13 7.15 16.987z"/></g><g transform="matrix(2.531298 0 0 2.531298 755.62258 14.59204)" id="A"><g class="H J C"><path d="M158.373 402.156c-.418-1.67-1.67-11.7-2.507-16.715s-7.94-18.386-7.94-18.386 12.118 10.03 14.625 17.133 4.597 14.208 3.76 20.058-2.09 8.775-2.09 8.775l-5.85-10.865z" class="E"/><path d="M160.044 406.334s-.836-17.55-1.67-22.147-9.193-15.46-9.193-15.46" fill="none"/><path d="M176.76 421.796c-1.67 0-12.536-3.76-17.968-3.76s-12.954 8.357-12.954 8.357 7.104-2.09 12.118-2.09 10.03 4.18 15.043 4.18 16.297.836 16.297.836l-12.536-7.522z" class="E"/><path d="M147.1 425.556s8.357-4.597 12.536-4.597 20.894 2.925 20.894 2.925" fill="none"/><g class="E"><path d="M231.918 446.032s-18.386-17.55-20.058-23.4-2.925-26.744-2.925-26.744 10.03 12.954 12.118 16.297 7.522 16.715 10.03 19.64 10.03 15.88 12.536 17.55 7.522 4.18 7.522 4.18l-19.222-7.522z"/><path d="M215.62 439.764s-35.937 2.507-40.533 2.09-33.012-10.447-33.012-10.447 23.82 21.73 33.012 22.983 31.758-1.254 35.52-2.09 20.058-3.76 24.654-2.507 17.55 3.76 17.55 3.76l-37.2-13.8z"/></g><path d="M241.11 449.375c-1.67-.418-20.476-17.55-23.4-23.4s-7.522-29.25-7.522-29.25" fill="none"/></g><path d="M345.692 488.492s-20.472-12.283-28.66-15.208l-101.193-34.51c-4.095-1.755-18.465-17.485-21.424-28.148s-5.483-22.74-5.483-22.74-.037 18.55 3.956 27.286c3.87 8.47 12.355 17.615 13.45 19.803-1.094 0-29.05-13.87-37.082-21.87s-24.192-31.653-24.192-37.503-1.456-38.668-1.456-38.668l-1.47 33.99s-9.944-17.548-10.53-26.907-1.755-18.133 1.17-22.227 10.53-10.53 10.53-10.53-10.533 5.85-12.288 8.774-2.92 5.264-2.92 5.264-3.5-22.227-2.34-25.152 6.434-2.925 6.434-2.925l-4.39-1.683-3.8 2.268s-1.755-9.944 0-12.283 5.85-1.755 5.85-1.755l-5.264-1.755s-1.17-5.264 1.755-8.19 4.094-5.85 4.094-5.85l-5.264 2.34 3.5-11.114s-6.367 9.37-6.805 13.09-.22 22.976-.22 22.976l-8.315.22 8.534 1.75s.875 14.442 1.313 16.85 1.75 13.13 1.75 13.13l-9.628-9.628s11.16 15.317 11.816 21.006.438 7.66.438 7.66l-14.223-11.816s16.85 16.192 18.38 20.787 4.376 11.816 4.376 11.816-6.564-5.033-8.753-6.127-8.534-2.626-8.534-2.626 9.847 6.346 13.566 10.722 12.035 14.442 15.317 20.787 12.9 19.037 12.9 19.037-5.69-3.282-11.597-6.127-18.162-4.595-18.162-4.595 19.037 8.534 26.695 13.13 28.227 20.35 50.765 28.446l96.497 33.48c8.315 3.72 40.918 25.164 40.918 25.164l-.034-9.833z" fill="#62310e"/><path d="M144.165 432.242s23.4 18.386 30.505 19.64 26.744-4.597 34.265-4.597 32.594 2.09 32.594 2.09" fill="none" class="C H J"/><g id="B"><path d="M184.123 377.452c-1.238 1.547-7.427-5.88-9.902-5.57s-6.19 6.498-6.19 10.212 3.095 8.665 5.57 8.665 7.427-4.332 8.974-3.404-8.046 14.544 3.404 14.235 9.902-3.094 9.593-5.26-4.642-6.498-3.713-7.736 5.88 3.404 9.902 3.404 5.57-1.857 5.57-6.19-1.547-9.284-4.023-8.974-8.665 6.808-10.52 3.404 4.023-8.355 4.023-12.07-.928-7.736-6.19-7.427-7.117 3.713-7.427 6.19 2.166 8.974.928 10.52z" fill="#d5105a" stroke="#000" class="H"/><g fill="#62310e"><path d="M173.91 358.575c-1.083 1.702 9.593 24.137 12.07 26.613s16.7 15.472 18.258 14.854-12.997-12.687-17.02-18.876-12.223-24.292-13.306-22.6z"/><path d="M171.48 404.083c1.702 1.083 6.498-10.83 12.997-17.33 2.476-2.476 22.9-20.114 22.28-21.66s-17.64 15.782-23.828 19.805S169.78 403 171.48 404.083z"/></g><path d="M193.097 382.403a5.57 5.57 0 1 1-11.14 0 5.57 5.57 0 1 1 11.14 0z" fill="#fedd00"/></g><use transform="matrix(-.977479 .211034 -.211034 -.977479 390.9528 730.2023)" width="744.094" height="1052.362" xlink:href="#B"/><use transform="matrix(-.923884 .382673 -.382673 -.923884 470.1689 622.1612)" width="744.094" height="1052.362" xlink:href="#B"/><g class="H"><g fill="#d5105a" stroke="#000"><path d="M125.018 360.74s-10.52-9.284-15.782-9.593-10.212-.3-10.212 1.547 3.713 1.547 3.713 3.713-5.57.928-5.57 3.094 7.736 6.808 10.52 5.88 14.544-5.57 17.33-4.642zm-9.903-23.207s-7.117-6.498-9.902-6.498-5.57 1.857-5.57 3.713 3.095 4.332 6.2 4.332 9.284-1.547 9.284-1.547zm3.085-16.4s-2.785-1.547-4.95-1.547-4.332 3.095-6.808 3.095-4.642-2.166-4.332-4.023 2.785-3.404 6.808-3.404 8.974 3.404 9.284 5.88zm18.886-5.57s3.713-6.2 7.736-6.498 5.88 2.476 5.88 4.023-3.095 3.713-5.57 3.713-3.713-1.857-8.046-1.238zm-8.974-18.567s3.713-.3 3.713 2.166.928 5.26 2.166 5.26 2.785-1.857 2.476-4.332-.928-5.88-3.404-5.88-4.023 1.238-4.95 2.785zm-10.212-1.857c-1.857.3-5.88 2.166-6.2 4.642s1.547 3.404 1.547 3.404 4.023-2.785 4.332-4.642.3-3.404.3-3.404zm4.333-17.938c-1.238 0-4.642.928-6.2 3.094s-.62 4.332.928 4.642 0-2.166 2.476-3.404 2.785-4.332 2.785-4.332zm1.547 7.726s3.404-1.547 4.642.62 2.166 4.023 3.713 3.713 2.785-4.95.928-6.808-5.57-1.238-7.117-1.238-2.166 3.713-2.166 3.713zm4.023-25.376s.928-4.95 3.713-6.2 4.95.3 4.95 2.166-1.238 4.023-3.713 4.023h-4.95zm.62 11.45c1.857-.928 1.547-4.332 3.713-4.642s3.095 1.547 3.095 3.095 0 2.785-2.785 2.476-4.023-.928-4.023-.928z"/><path d="M124.4 266.668s0-4.332 1.238-6.19 5.26 0 4.332 1.857-4.332 1.857-5.57 4.332z"/></g><path d="M321.76 479.88c-2.09.836-14.625 1.67-19.222 1.254s-16.715-4.18-24.236-3.76-20.476 5.85-20.476 5.85 7.94.836 10.865 2.507 10.447 3.76 16.715 4.18 18.804-4.18 23.4-4.597 20.476-.418 20.476-.418l-7.522-5.014z" class="C E J"/></g></g><use transform="matrix(-1 0 0 1 2800 -.000114)" width="744.094" height="1052.362" xlink:href="#A"/><use xlink:href="#D" fill="none" stroke="#000" stroke-width="7"/><defs ><path id="D" d="M1399.92 445.027c78.077 3.4 83.7 111.914 6.346 123.36-82.194 4.453-94.1-110.64-12.696-123.045l6.35-.315z"/></defs></svg>