<svg xmlns="http://www.w3.org/2000/svg" height="600" width="1000" xmlns:v="https://vecta.io/nano"><path fill="#fff" d="M0 300h1000v300H0z"/><path fill="#e60000" d="M0 0h1000v300H0z"/><path fill="#fff" d="M350.5 121.7v126.6c0 42.17-3.04 86.7 6.08 120.8 8.62 32.28 27.34 57.9 50.3 76.58 11.55 9.4 24.32 17.3 40.1 23.22 15.5 5.82 33.2 10.4 53.36 10.23 40.25-.35 70.8-15.2 93.43-33.45 23-18.52 41.5-44.8 49.77-77.13 8.77-34.27 6.08-78.46 6.08-120.8v-126.9H350.76c-.32.04-.3.43-.27.83z"/><path d="M350.76 120.86H649.6v126.9c0 42.35 2.7 86.54-6.08 120.8-8.28 32.33-26.78 58.6-49.77 77.13-22.64 18.25-53.18 33.1-93.44 33.45-20.14.17-37.84-4.4-53.35-10.23-15.77-5.9-28.54-13.83-40.1-23.22-22.97-18.68-41.7-44.3-50.3-76.58-9.12-34.12-6.08-78.64-6.08-120.8V121.7c-.03-.4-.05-.8.27-.83zm2.77 4.42v124.4c0 31.07-1.05 63.7 1.38 91.8.8 9.2 2.93 17.57 5.25 25.98 4.57 16.57 11 30.45 18.8 43.4 3.9 6.47 8.88 11.3 14.1 16.86 5.13 5.45 10.16 10.82 15.76 15.48 10.95 9.1 24.5 16.9 39.53 22.67 15.12 5.82 32.7 10.23 51.97 10.23 19.46 0 36.73-4.6 51.7-10.5 23.46-9.25 39.93-21.74 55.3-37.88 5.27-5.53 10.16-10.7 14.1-17.14 7.78-12.75 14.33-27.17 18.8-43.4 9.12-33.13 6.36-76.64 6.36-118.05V124.45H353.8c-.33.05-.3.44-.28.83z"/><path fill="#e60000" d="M565.57 179.74c1.5 1.76 1.86 4.86 1.66 7.46-.87 10.9-7.66 20.07-19.08 20.74-1-1.1-1.83-2.9-.83-4.15 1-1.24 3.88-.86 4.98-1.1 8.95-1.97 14.4-11.05 13.27-22.95zm-131.6 22.67c4.03 2.5 8.02 7.73 14.66 5.8 2.5-5.68-3.67-4.1-7.47-4.97-3.35-.78-7.3-5-9.12-8.85-1.92-4.02-2.47-7.88-2.77-13-2.5 7.93 1.4 16.2 4.7 21zm83.22-60.27c1.2 2.85 5.1 3 7.74 4.43 1.2 1.17 4.12 4.52 4.98 4.14-1-5.92-6.7-12.8-12.72-8.57zm-6.36-4.42c-6.04 1.7-13.72 1.76-15.76 7.47-2.54-.08-3.5-2.18-3.04-4.43 1.16-5.84 13.2-4.83 18.8-3.04zm116.4 120.26c-6.76-6.7-12.65-15.43-18.25-25.7-3.55-6.53-8.4-13.77-12.16-20.74-1.96-3.62-3.76-9.15-7.47-5.25 5.45 2.4 6.24 10.94-1.66 10.5 1.07 2.35 3.62 4.35 2.77 7.74 8.32 10.64 17.74 24.03 27.37 34.28 6 6.4 11.36 13.93 22.94 13-1.33-3.33-3.77-6.2-5.8-9.12-14.95-21.52-27.45-45.8-40.37-69.12-.6 1.25-1.88 1.8-3.3 2.2 2.05 1.4 5 4.1 3.04 7.75 10.68 19 22.22 38.6 34 55.56 0-.28-.22-.33-.28-.55-.32-.14-.62-.3-.82-.55zm-107-119.7c-3.78 5.68-16.5.85-20.46 6.08 1.58 1.05 2.32 2.94 4.42 3.32 3 .55 6.18-1.72 8.85-2.2-.12-1.35-2.64-.3-2.76-1.66 5.27-3.08 8.5 4.27 14.1 4.42 6.92 4.14 7.35 14.77 11.88 21.3-3.46-.13-3.62-3.57-5.8-4.97 4.15 10.65-4.33 22.03-.83 31.23-7.22-.7-3.48-10.5-1.94-14.65-1.84.1-2.5 3.76-3.6 5.53.72 8.72-5.6 14.05-4.15 23.5-2.68 2-4.63 5.17-3.32 9.68-1.1-.2-1.58.26-2.5.27 1.56-4.9 3.46-12.7.56-17.4.45 7.92-1.4 15.43-4.42 20.73 7.53-3.8 14.7-.34 16.86 6.08 1.16 3.46 1.2 9.28 1.38 13.27.73 16.1-2.57 33.2-4.15 48.1-.44 4.23-.77 8.1-.55 11.62.76 12.52 9.35 17.93 12.16 28.75-1.8.3-2.67-1.06-4.14-.28-1.74 4.63-2.3 10.4-3.87 15.2-1.12.84-1.3-1.17-2.77-.83-1.2.45-.87 2.45-1.93 3.04-3.6-2.3-3.22-8.17-3.87-13.27-.36-2.82-1.17-5.54-1.4-8.02-6.82-4.44-7.83 6.52-8 13.55-.35 13.64 4.77 21.2 16.58 22.4 5.1.5 9.48-.72 11.62 2.2.6.84.47 2.15.82 3.04.88 2.2 2.76 3.78 2.77 5.8-3.05-.1-5.67-1.07-8.85-1.1-2.62-.02-4.83 1.08-7.2 1.38-7.42.97-14.42-4.28-15.47-10.78 4.63 3.52 13.73 7.9 21 4.43 1.9.23 2.2 2.04 4.43 1.93-.9-2.27-5.9-6.57-8.57-2.48-11.8.26-17.25-5.8-20.18-14.38-.34 15.08 5.7 26.18 11.6 35.94 11.26 13.05 44.42 6.03 54.46 21 2.54 3.8 4.43 10.7 3.32 17.4-1.55 9.3-7.58 14.72-18.25 15.48 6.65-4.3 14.22-7.74 13.55-19.35-.64-11-10.8-16.5-21-18.8-.2 7.28 10.75 11.2 13 17.42.88 2.44.8 5.45-1.94 6.1-2.76-1.62-4.7-4.3-7.18-6.37-7.52-6.2-17.28-10.66-26.54-15.47-12.72-6.63-20.57-16.22-22.95-33.18-.73 13.5 2.06 27.54 8.3 35.66 4.84 6.3 14.5 5.8 21.28 10.78 1.25.9 2.56 2.25 2.2 4.43-.65.9-2.7.44-4.14.55 2.1 4.7 7.54 6.1 10.78 9.68-21.27-3.43-31.87-17.53-40.36-33.73-.06 13.63-.88 27.68 3.87 36.77 1.44 2.76 3.56 4.8 5.25 8.02 1.03 1.97 1.1 6.26-.28 8-1.8.94-4.35 1.4-6.9.83-.6 4-2.63 8.05-4.7 9.68-1.1-.45-2.08-1.95-2.76-3.04-1.18-1.88-2.12-3.53-2.2-6.64-5.83 1.5-9.72-1.9-7.75-7.46.8-2.22 2.97-3.88 4.15-6.1 5.42-10.1 6-25.85 5.26-41.74-7.95 16.2-19.42 28.87-39 33.45 3.17-2.83 7.22-4.77 9.68-8.3-1.93-1-4.56-.6-4.42-3.6.26-5.76 14.55-4.92 19.07-7.46 6.75-3.8 10.42-17.08 11.34-26.26.4-4.2.18-7.6.27-12.45-1.75 4.28-2.1 8.52-3.6 12.17-8.87 21.5-38.92 22.52-52.25 40.1-2.45-1.52-1.32-6.52-.55-8.02 2.62-5.16 12.02-9.04 13.26-16.04-8.5.94-16.23 5.24-19.34 11.9-2.9 6.16-1.24 14.06 2.76 18.52 2.68 3 6.4 4.36 9.12 6.9-12.44.16-20.7-7.83-19.35-21 .63-6.13 4.58-13.24 9.4-16.3 4.56-2.9 11.27-4 16.86-4.98 6.75-1.2 14.2-.43 21-2.76 11.13-3.8 16.23-15.88 19.36-27.64 1.14-4.33 2.32-8.35 2.2-14.1-3.97 7.96-11.27 14.97-23.5 12.16-1.46 1.2-2.4 2.95-3.32 4.7 1.64-.12 1.87-1.64 3.04-2.2 9 3.72 16.48-3.08 20.74-6.64-1.43 9.1-7.44 14.65-17.14 13.27-.92-.13-1.95-.82-3.04-.83-3.8-.04-6.2 3.22-9.68 2.77-.04-2.02 1.5-2.54 2.2-4.15 1.43-3.22 1.02-7.65 4.98-8.85 2.57-.77 5.3-.1 7.46-.27 5.5-.42 11.34-2.13 13.82-6.36 4.42-7.5 3.1-20.4.56-30.4-.47.01-.72-.2-.83-.55-10.78-1.2-4.72 20.17-12.44 22.4-.97-.32-.2-2.38-1.1-2.77-1.7-.12-.67 2.46-2.2 2.5-2.48-2.42.9-7.6-3.04-8-2.53-.27-3.12 3.26-6.63 1.65-1.18-7.97 4.8-12.65 8.3-18.24 2.5-4 4.83-8.15 5.25-14.38 1.52-22.27-9.32-42.5-7.74-68 .35-5.67 1.75-9.66 3.32-14.92 2.73-1.7 5.6-3.25 10.5-2.77.92-3.05 1.08-6.84 2.22-9.67 2.05-1.08 6.1-.15 8-1.4-2.3-1.2-6.87-.13-9.67-.82 2.92-1.97 7.25-2.53 11.33-3.32-1.2-1.58-5-.52-7.46-.83 4-6.13 7.4-12.9 15.2-15.2-4.07-1.27-10.5-.2-15.48-.55 4.03-6.66 17.74-3.64 19.9-12.16.4-1.44-.57-4.25 1.38-4.15.4 1.73-1.48 5.88-1.94 8.57 3.83-.96 3.2-8.8 7.2-10.5.67 1.55.25 4.17.83 5.8 1.3-4.15 2.1-10.22 5.25-11.6.88 2.32-.6 4.27-.55 6.63 4.8-4.17 1.66-15.3-1.1-18.24 1.48-.46 3.6-.3 4.98-.83-7.15-.56-12.6-5.6-19.35-6.64-2.8-.42-4.17-.64-6.08-2.2 1.24-5.2 8.02-4.67 13-6.08 1.12-.32 2.2-1.43 3.32-1.66 2.34-.48 4.8.37 6.9 0zm-149.56 3.6c10.6 2.33 22.78 3.07 36.2 2.48 10.18-.44 20.2-.2 27.65 3.32 4.1 3.86 7.74 12.7 4.7 20.18-.43-3.23.3-9.52-3.32-11.05 1.5 5.07 1.5 12.07-1.1 16.3-2.88 4.68-9.77 6.03-14.1 8.84-.17 1.1 1.5.33 1.1 1.66 1.68 28.64 16.9 43.72 45.9 45.06.2 1.5-.22 2.36-.55 3.32-16.32.15-28.25-4.9-36.5-14.37-8.25-9.5-13.12-25.24-10.5-40.92 9.73 2.9 11.04-11.03 2.2-10.23 3.97-7.76-8.34-11.27-10.22-4.7.34 1.6.7 3.17 1.1 4.7-8.75-1.9-7.05 12.53.83 10.23-.36 39.53 17.65 60.68 52.25 65.24 2.1 11.9 2.58 26.58 1.38 40.92-.63 7.54-.95 15.16-1.66 21-.62 5.14-2.8 13.76-9.12 11.06-4.24-6.15-4.65-15.75-5.53-24.88-.9-9.32-2.02-18.54-4.7-25.7.8 31.76-3.8 66.84-19.63 82.93-2.75 2.8-6.9 4.85-11.88 4.98 5.44-31.3 9.3-65.4 8-102.57 4.26 2.96 8.52-.38 10.5-3.6 1.55 10-1 19.38-1.94 29.03-1.85 19.35-2.12 39.62-6.08 57.22 2.27-1.86 2.2-5.2 2.77-8 3.96-19.82 4.07-46.1 7.18-67.18 2.2 1.38 4.7 1.43 6.9.55 2.2-.87 3.06-3.04 4.43-3.32.5 5.06 2.48 9.68 8.84 8.02 3.32 10.62-.1 29.73 1.1 42.85 2.24-12.28 3.68-30.98.28-43.13 3.08-3.95 8.06-8.85 6.35-15.76-3.12 5.34-3.4 16.23-12.7 13.55-.82-1.83-1.72-3.43-1.94-5.8-.38-4.23 2.8-9.32-.27-11.06-1.66 3.17-1.95 9.18-4.7 11.6-5.52 4.87-8.52-1.46-8.02-8.02.26-3.46 2.4-7.66 0-8.84-3.03 3.22-3.54 11.5-9.68 10.78-2.3-.27-3.45-2.53-3.04-5.8.56-4.36 4.8-8.77 4.15-11.33-2.24.3-3.2 3.35-5.25 4.97-1.76 1.4-4.06 2.47-7.2 1.66-1.97-3.04.17-5.63 1.66-7.74 1.55-2.2 3.98-4.18 4.15-6.36-3.22-.95-8.35 6.3-12.44 1.94.06-5.93 5.4-6.56 7.74-10.23-1.33-2.02-9.88 4.26-11.34-.55-1.3-4.35 5.87-5.85 8.02-8.3-3.7-.88-9.6-.3-9.95-3.6-.43-4 5.76-2.84 8.3-4.98-.58-2.05-3.54-.84-5.25-1.38-1.64-.52-3.2-1.94-3.04-3.32.33-2.8 4.98-1.55 7.18-3.04-1.44-2.28-5.4-1-6.9 0-1.32.9-1.26 1.9-2.2 3.32-2.73 4.04-7.25 8.9-11.88 13.27-7.06 6.64-15.5 14.28-27.37 8.57 11.17-12.88 25.26-22.84 35.66-36.5-11.2 4.2-35.12 10.08-37.05-6.36 15.6-3.4 30.84-7.13 44.5-12.44-16.47-1.04-33.2-1.8-34-18.52zm32.34 6.35c1.27.94 3.2 1.24 3.87 2.77-10.86.76-22.3-1.37-30.4-3.32 8.77 3.8 23.1 5.7 35.1 3.6-1.5-.62-3.05-1.2-3.87-2.5 1.96-1.18 5.48-.8 7.74-1.66-3.62-.16-8.76.42-12.44 1.1zm-1.38 20.46c-.03-.33-.08-.65-.55-.55-11.18 3.93-22.72 7.5-37.05 8.3 15.5 1.44 26.37-4 37.6-7.74zm-9.95 24.05c-4.4 5.23-9.85 10.33-14.93 14.66-1.76 1.5-3.78 2.66-4.98 4.42 9.96-6.72 18.55-14.8 25.7-24.33-2.5 1.18-3.02 4.35-5.8 5.25zm-32.07 82.94c10.12-.72 15.93-8.7 21.3-14.93 6.9-8.03 14.08-16.36 19.07-25.7 3.34-2.02 4.83-6.35 6.36-10.23.94-2.38 2.47-4.57 2.2-6.08-7.84.54-6.72-7.9-1.66-10.5-1.13-.34-1.92-1.02-3.3-1.1-11.6 18.36-19.58 41.8-34.3 56.12 12.1-18.04 22.7-37.57 32.35-58.06-.28-.9-.83-1.56-.83-2.76.84-1.83 2.2-3.14 3.87-4.15-1.6-.42-2.54-1.5-3.87-2.2-12.53 27.74-26.96 53.58-41.2 79.62zm227.25-32.9c5.4 18.73 11.3 37.77 17.96 55.3 2.7 7.1 6.76 13.75 7.74 21.57-6.53-12.03-11.25-25.43-16.03-38.98-4.83-13.7-8.92-28.1-12.16-43.13-2.43 1.4-6.54.78-8.85-.28 0 10.3 3.07 19.4 6.36 27.93 7.95 20.58 14.24 43.38 24.33 61.64 5.16 9.36 11.2 18.44 23.5 18.8-7.22-17.98-17.07-37.48-21.28-59.44-1.44-7.5-2.32-15.36-4.15-22.94-1.03-4.25-2.9-8.83-4.42-13.27-3.17-9.18-6.74-16.86-11.9-23.22-1.55 1.4-4.68-.25-6.08.27 3.5 3.63 3.35 10.12 4.98 15.76zm-178.04-13.54c-.02-.17-.04-.33-.28-.28-5.57 8.6-9.53 17-12.16 27.92-3.58 14.82-4.76 34.46-9.12 49.2-4.3 14.52-11.22 29.44-15.5 43.4 2.17-.23 3.8-.98 6.1-1.1 8.26-3.78 12.6-11.5 16.3-19.63 11.24-24.65 20.04-53.46 27.92-80.73-1.35-2.2-.82-6.46-.28-9.12-2.46 1.4-5.35 1.96-8.57.83-5.2 25.98-12.62 51.04-21.3 73.54-1.23 3.2-1.8 6.92-4.42 9.4 6.6-20.96 13.9-42.68 19.63-64.14 1-3.78 1.74-7.6 2.76-11.34 1.1-4 1.43-7.7 2.22-11.88.48-2.58 2.34-5.15 2.2-6.36-1.83.3-3.6.8-5.53.28zm215.08-90.68c-.6 15.98-16.86 18.7-34 19.07 13.7 5.76 29.96 8.94 47.28 11.06-1.52 15.52-26.62 13.15-38.98 8.02 10.78 12.62 25.15 24.06 38.7 34.83-3.4 3.42-10.6 3.54-14.65 2.5-4.6-1.2-9.02-5.08-13-8.57-5.38-4.72-9.85-8.2-13.54-13.54-1.82-2.64-5.2-6.37-9.68-3.88.96 2.2 6.55.2 7.2 3.05 1.03 4.56-6.4 2.25-8 5.52 2.85 1.58 8.9-.05 8 5.26-1.8 2.15-5.87 2.05-9.12 2.76.96 3.48 8.43 2.8 7.74 8.85-2.66 3.42-8.62-.6-11.06.27 2.2 3.54 10.26 5.8 6.9 11.34-4.4.94-7.98-2.66-11.06-3.04-1.03 2.52 3.7 4.83 5.53 8 1.1 1.92 2.12 5.35 0 6.64-6.7.72-8.2-5.23-12.16-6.36-.6 1.42.97 3.25 1.93 4.98 1.62 2.9 3.88 6.78 1.66 11.33-7.5 2.27-8.6-6.2-11.9-9.95-2.43.76-.44 3.5 0 5.8.83 4.3.63 9.73-1.38 12.44-8.43 1.5-8.74-7.22-11.06-12.72-2.66 1.86-.05 6.43 0 10.23.05 3.1-.64 5.26-2.2 7.2-9.18 1.48-9.2-8.45-12.7-13.55-1.27 7.62 3.4 11.7 6.9 15.48-3.03 13.46-.9 30.47 1.66 43.13.4-13.3-2.47-28.4-.56-42.3 6.14.23 8.9-2.9 8.57-9.12 2.06 2.9 8.25 5.3 11.6 2.76 3.56 17.56 4 38.2 7.47 55.57 1.34 6.74 1.57 13.8 4.98 19.07-5-25.95-8.3-56.03-11.06-85.14 1.52-.3 3.28 3.6 6.36 3.87 1.66.13 2.98-.72 4.14-1.1.87 37.2 5.04 71.08 12.17 102-6.87.88-10.67-3.7-14.66-6.63-13.95-19.4-21.02-45.7-19.35-80.73-1.27 1.7-1.38 4.18-1.93 6.36-2.36 9.33-3.6 19.77-4.15 32.07-.2 4.37-.44 8.8-1.94 12.44-1.16.9-3.6 1.57-5.52.83-5.98-6.98-5.8-17.62-6.92-29.03-.48-4.93-1.7-10.17-1.93-15.48-.44-9.6-.05-19.64 1.1-27.92 32.18-6.15 51.17-25.5 49.76-65.24 7.96 1.43 9.44-12.77 0-10.8 6.17-10.34-15.24-10.56-9.4 0-9.27-.3-5.5 14.2 3.32 10.5 1.03 3.85 1.75 7.5 1.38 12.16-2.08 26-19.17 42.7-46.45 43.13-.3-.98-.3-2.28-.55-3.32 28.3-1.93 43.3-17.15 44.23-46.44-.1-.95.1-1.58 1.1-1.38-8.55-4.35-18.22-7.6-16.86-21.3.13-1.36.42-2.55 1.1-3.87-2.95.28-4.42 7.57-2.48 11.06-.07.7-.48-.38-1.1 0-3.6-13.94 2.76-23.17 15.76-24.06 7.67-.52 16.9-.16 25.7-.55 10.36-.45 19.9-2.46 27.1-3.6zm-8.57 6.9c.8-.38 3.08-1.58 1.38-1.1-7.73 3.06-19.25 5.25-29.3 4.15.57-1.63 2.83-1.58 3.6-3.04-3.44-.6-8-.1-11.9-.27-.36-.04-2-.05-1.1.27h2.22c2.03.37 4.36.43 6.36.83-1 1.5-2.8 2.2-3.87 3.6 12.47.3 24.7-.7 32.62-4.42zm-21 20.46c-.47-.07-.7.3 0 .27 10.2 3.73 23.2 8.74 37.04 6.1-14 .5-25.74-3.3-37.04-6.36zm30.4 42.02c-9.9-6.52-18.6-15.7-26.82-22.95 7.48 8.93 16.5 17.8 26.82 22.95z"/><path d="M536 335.66c8.1 13.64 16.93 26.56 24.88 40.36 4.82.5 8.07.08 10.23-3.04 1.4-2.04 1.18-5.25 2.5-7.18 2.22-3.3 9.2-2.65 13-.83.02 2.64-5.5 2.95-6.64 1.1-1.4.25-2.3 1.02-3.6 1.4.26 1.35 1.42 1.83.83 3.3-.76.44-1.67.73-2.77.83-.27 2.58-1.67 4.04-3.04 5.53 6.33 4.53 12.27-2.2 17.97-2.2 4.73-.02 7.05 4.9 13 3.32-.08.92-.28 1.74-.82 2.2.9 2.52 3.97 2.84 4.7 5.52-2.73 3.1-5.66-1.43-6.35-3.86-3.07.4-4.04-1.3-6.1-1.94-.1 3.37-4.85 3.46-4.7-.27-7.2.43-15.86 5.5-21.57 1.1.1 2.1 2.66 2.83 4.43 3.87 1.7 1 4.02 2.14 5.52 3.32.94.74 1.46 1.9 2.5 2.5 1.55.87 3.7.67 4.43 2.48-1.22 2.34 1.13 5 0 6.37-4 .66-3.2-5.8-7.75-5.54-1-4.97-7.48-4.5-9.95-8-2.44-.23-5.37.02-6.08-1.94-2.12.37-3.65 1.12-5.8 1.38-2.1.27-4.47-.6-6.37-.27-2.9.5-5.84 5.6-8.84 1.93 1.43-2.26 4.96-2.4 5.8-5.25 3.7-.16 7.13-.6 10.5-1.1 1.86-1.48-.46-4.24-1.93-6.63-6.7-10.8-16.1-21.5-22.67-31.52.22-3.65.9-6.84 4.7-6.9zm46.17 26c.47.45 1 .84 1.93.83.43-.96 2.63-2.46 1.38-3.32-.97.97-3.22.65-3.3 2.5zm21.28 19.07c.3.06.43.3.55.56 1.93-.56 3.85-1.13 4.7-2.77-1.77-2-5.32-.72-5.25 2.2zm-60.27 1.66c.4-.44.98-.68.83-1.66-.2-.06-.32-.23-.27-.55-3.7-1.56-3.83 2.1-.56 2.2zm42.85 13.55c1.2.36 2.58.55 4.15.55.38-2.6-4.48-4.26-4.15-.55zM469.1 346.16c-6.15 9.62-16.13 19.77-24.06 29.6-.67.83-3.07 3.55-2.76 4.7.85 3.2 8.1.22 10.78 1.1.78 1.24 1.34 2.7 2.2 3.87.85.44 2.5.07 2.5 1.4-1.65 2.7-5.7.07-6.9-1.1-1.37.2-2.75.38-4.42.27-2.17-2.64-7.57-.7-11.06-.55-1 2.6-3.12 4.07-6.36 4.42-2.1 3.72-4.7 6.93-9.68 7.75-1.5 3.06-.92 9.53-5.25 8.84.16-2.58 2.82-6.52-.55-8.57 5.07-5.24 12.35-8.28 16.03-14.92-3.9-1.08-9.4-.56-12.7-2.22-1.06 1.85-4.1 3.4-4.98.28-2.7.42-4.17 2.1-6.9 2.5-1.46 1.5-1.6 4.3-3.32 5.53-6.53.94-3.92-4.56-1.1-5.8.43-1.5-.96-2.15-.28-3.04 1.3-.98 2.22-.3 3.32-.55 3.4-.78 5.7-4.27 8.84-4.43 2.32-.1 5.9 1.48 8.57 2.2 2.68.74 5.3 2.1 8.57 1.4-2.9-1.7-1.47-7.74-5.8-8.02-.5-.8-.1-2.48-.83-3.04-1.98-.3-5.7 1.05-7.2-.83-1.53.32-3.68 2.5-4.98.55.4-2.73 3.57-2.7 4.98-4.42 3.87 1.66 9.2 1.85 12.44 4.15 1.73 4.46 5.03 15.36 10.23 9.12 2.08-2.5 3.82-5.65 6.08-8.57l19.08-24.33c-.05-.24.1-.26.27-.28 1.06-.4 2.64.8 4.15.83.2.9.58 1.64 1.1 2.2zm-56.13 17.15c.48-.44 1-.84.83-1.94-1.37-.56-2.8-1.06-4.7-1.1.5 1.8 1.87 2.75 3.87 3.05zm45.62 17.14c-.27 1.3-1.23 1.9-2.76 1.93-1.32-1.76 1.38-2.87 2.76-1.93zm-60 .55c1.28 2.47-1.9 3.24-3.87 2.5.25-2.03 1.8-3.03 3.87-2.5zm14.65 18.52c-.04.88.74.93.55 1.94-1.5.7-2.88 1.53-4.42 2.2-.27-2.94 1.3-4.06 3.87-4.15zm166.98-238.85c1.22 2.4 0 4.73-.83 6.63 9.68-2.68 9.03 11.15 0 8.57 2.7 37.65-14.95 59.67-48.38 63.03-.3-1.46-.7-2.8-.83-4.42 13.45-1.84 25.28-5.54 33.73-13.55 9.88-9.37 16.78-27.98 11.6-45.6-3.73 1.67-10.36-.58-8.02-6.64 1.2-1.02 2.74-1.7 5.26-1.38-3.6-4.7 2.06-10.57 7.46-6.63zm-161.45 14.37c-4.1 34.55 14.13 58.04 47.55 58.9.36 1.3.28 3.03.28 4.7-16.1.57-29.58-7-37.6-16.03-7.9-8.88-11.87-21.57-13.27-35.1-.4-3.86-.2-7.9 0-11.88-7.24 3.17-10.3-9.1-1.38-8.3-.16-1.06-1.46-3.84-.55-6.08 4.32-4.7 11.62 1.93 6.63 6.36 9.9-2.18 7.26 12.36-1.66 7.46z" fill="#fde44a"/><path fill="#e60000" d="M512.77 165.36c-.1 2.1-1.9 2.54-3.6 3.05.4-1.83.82-3.6 3.6-3.05zm-2.5-3.87c.98.4 2.3.48 3.32.83-.36-4.15-2.27-6.77-5.8-7.74 1 2.14 2.3 3.98 2.5 6.9z"/><path fill="#fde44a" d="M490.1 170.34c7.1-3.4 20.7 3.82 24.33-3.6 1.2-2.42.66-6.3 0-8.02-2.35-6.2-14.08-9.85-20.46-5.25-4.65-4.37-16.46-4.13-17.7 3.04-2.77-6.46 2.83-11.24 8.57-11.9 1.3-1.27 2.2-5.6 5.25-3.32 1.3 7.92 10.98 7.08 18.25 9.96 4.14 1.64 9.5 5.62 10.23 9.4.82 4.15-1.87 8.44-4.15 10.23-6.13 4.8-18.1 1.75-24.33-.56z"/><path fill="#e60000" d="M511.66 163.43c-10.5-1.03-24.36-.64-33.73 1.93 7.75-5.2 23.7-4.94 33.73-1.93z"/><path d="M523 139.1c11.4 4.17 6.87 25.76 16.3 30.96-1.38.74-3.97.27-5.53.83.1 6.34-4.73 13.3-3.86 19.63.32 2.4 2.24 3.55 2.48 5.53-2.05 1.93-5.24.38-7.46-.55-2.8 3.8-5.58 12.75-1.38 17.14-2.98-.3-4.8.55-5.8 2.2-1.12 5.17 3.1 4.66 5.8 6.63 2.27 1.66 2.76 3.45 4.42 4.98 27.02.54 44.35-16.62 43.4-44.23-.6-1.06-2.1-1.22-3.3-1.66.35 7.44-.53 14.57-4.15 19.9-2.1 3.12-7.1 6.72-9.68 7.74-4 1.6-10.3 1.23-8.3-4.97 5-1.73 10.86-2.6 14.1-6.08.8-2.62 2.72-4.6 3.6-7.74.7-2.48 1.72-7.33.83-10.23-.37-1.22-5.18-4.83-6.35-6.1-3.12-3.33-6.36-7.38-5.8-14.65.36-4.76 2-9.53 4.97-12.44 5.87-5.75 17.93-4.77 28.76-5.25 14.4-.63 27.66-1.05 39.25-4.42.1 16.42-12.58 20.03-26.54 22.4 2.16 1.83 5.4 2.5 8.3 3.32 9.64 2.76 20.97 4.12 32.62 5.53-2.42 14.08-19.75 17.18-35.4 12.7 9.5 11.62 22.4 22.22 35.4 31.24-2.8 2.9-6.63 4.66-11.6 4.7-11.82.1-18.96-9.73-26.54-14.37 12.2 24.75 25.87 48.03 40.9 69.94-10.9 3.7-18.38-4.68-24.05-10.78-3.4-3.68-6.88-7.33-9.95-11.06-6.73-8.18-12.53-16.97-18.52-23.5 4.88 8.2 10.34 16.54 13.27 27.1 2.9 10.5 4.66 22.14 6.9 33.73 4.32 22.36 14.92 40.7 21.56 60-5.8-.6-12.32-1.28-16.03-4.42-2.25-1.9-4.84-5.86-6.92-8.85-14.6-21-22.1-52.8-32.06-77.96-.7 4 .08 8.4.27 12.72.3 6.72.08 13.7.83 20.18 2.6 22.42 6.3 44.47 10.5 63.86-17-1.28-24.1-15.82-29.3-30.13-5.4-14.86-8.87-30.4-7.74-49.5-4.6 11.36-1.85 30.04-6.08 41.75-1.6.88-3.68 1.3-6.36 1.1-9-8.87-6.83-28.93-9.95-43.68-4.12 16.96-4.34 37.33 3.87 48.38 1.15 1.56 2.8 3.18 3.6 4.98 2.14 4.86 1.5 10.55 4.15 14.93 7.25 12 14.38 22.07 21 33.45 5.03 1.88 8.38-.62 9.68-4.15.5-1.4.1-3.38.83-4.7 1-1.85 4.6-2.03 7.18-3.6 1.08-.65 2.35-2.54 3.6-3.04 2.98-1.2 7 .08 9.67 1.1-2.3.56-5.46.25-6.36 2.2.32 2 2.34 1.38 2.5 3.05.33 3.7-6.5 4.14-9.12 2.76-1.25.55-.06 2.35 0 3.32-1.54 1.68-4.43 2.02-4.42 5.25 3.28 1.5 6.83-.07 10.23-1.66 1.33-.62 2.96-2.06 4.42-1.94 1.55.14 3.32 2.73 4.97 3.32 6.23 2.25 15.83-1.8 16.87 4.98-1.8-.9-4.92-.72-5.53 1.1.1 2 1.94 2.03 1.66 3.86-.3 1.92-2.85 2.78-5.26 1.94-1.92-.67-3.8-5-6.9-4.97-2.46 2.1-6.4 1.46-7.46-1.4-4.05.83-7.7 2.06-11.34 3.32 1.65 4.72 8.8 6.32 13.27 9.12.87 1.45 1.2 3.43 1.4 5.53-1.92-.02-1.53-2.34-3.6-2.2-2.02.95-1.22 3.45-3.04 4.15-3.67 1.4-5.45-6.9-9.4-7.2-.2-1.08-1.03-1.55-1.38-2.5-2.67-1.48-5.7-2.6-8.02-4.42-6.26-1.32-11.02-1.32-17.7-.28-1.5 2.14-8.98 4.34-9.95.55-.6-2.3 1.15-2.6 1.93-4.42-.35-2.98-3.46-.24-3.87-.83 2.9-7.3 12.3.75 19.08-2.76-7.27-12.55-15.84-23.8-25.16-34.3-.75 1.55-1.8 2.8-4.42 2.5-.7.67-.48 2.28-1.66 2.5-6.55-.74-4.9-11.1-6.36-17.14-.25-1.03-1-4.5-2.5-4.7-2.96-.38-3.87 9.37-3.87 11.34 0 6.72 1.8 17.35 8.85 20.18 7 2.8 15.85-.8 19.35 4.42.93 1.4 1.52 4.66 2.5 6.36 1.25 2.2 5 5.5-.28 6.08-2.03.23-3-1.3-4.97-1.66-5.7-1.07-14.44 1.56-19.9-.55-2-.78-2.74-2.16-4.42-3.3.45 4.75 2.67 9.43 4.97 13 2.26 3.5 5.46 7.06 9.68 8.84 6.66 2.82 14.88 3.24 22.4 4.7 14.97 2.92 28.24 7.43 28.75 24.88.45 14.94-13 26.36-27.92 19.08 10.35-.2 19.45-5.78 19.9-16.04.44-9.9-7.7-16.47-16.3-17.97 1.4 5.56 10.5 8.65 11.6 15.5.4 2.47-.72 7.1-3.87 6.63-2.24-.33-4.34-3.98-6.36-5.8-6.3-5.7-14.95-9.8-22.67-13.55-5.74-2.8-11.3-5.5-15.2-8.85-4.43-3.8-7.07-9.54-10.22-13.82 1.7 9.7 3.17 18.6 11.05 23.78 4.08 2.67 12.28 3.7 16.3 6.35 2.92 1.92 5.66 5.6 2.22 8.85 3.74 4 8.6 6.9 14.1 9.12-24.48.6-35.9-14.24-46.17-28.75-1.7 12.16.14 24.1 4.7 31.8 1.54 2.6 4.24 4.96 4.98 7.2 1.5 4.52-1.38 11.14-7.2 9.68-2.43 3.93-4.86 7.85-6.9 12.16-3.02-3.7-5.02-8.44-8.02-12.16-4.45.45-7.35-2.72-6.64-7.74.73-5.1 6.3-8.7 8.02-14.93 2.57-9.3 1.83-18.14 2.5-28.2-1.98 1.36-2.85 3.7-4.15 5.53-8.9 12.45-21.54 22.96-42.3 24.05 5.08-2.75 10.6-5.08 14.1-9.4-1.63-2.12-3.05-5.3-.83-7.74 7.75-4.57 19.58-3.32 23.78-11.06 2.6-4.78 4.16-11.5 5.25-18.52-2.67 4-6.22 9-10.5 12.72-8.2 7.12-20.8 10.34-30.4 17.14-1.9 1.34-4.2 3.15-6.64 5.25-2.38 2.04-7.74 9.44-9.12 2.2-1.98-10.42 9.8-13.54 12.44-20.46-9.06.35-18.48 10.1-16.03 20.74 1.82 7.9 8.88 13.2 18.52 13.82-10.06 5.12-21.56-.67-25.7-8.02-5.05-10.94-.2-23.6 6.36-28.75 12.14-9.5 37.45-3.72 48.65-14.93 3.73-3.73 5.23-8.34 7.2-14.37-3.34 1.2-8.93 3.3-14.65 3.04-1.9-.1-3.97-1.06-5.8-.83-3.22.4-5.8 3.98-8.57 1.66 1.56-2.14 2.22-3.98 3.04-6.1 1.24-3.17 1.56-7.07 4.7-8.56 5.95-2.83 17.14.07 21-6.1 2.1-3.32 3.03-11.42 2.77-17.42-.18-3.97-.27-10.84-2.77-11.05-1.08-.1-2.34 1.33-2.76 2.2-1.68 3.52-1.3 8.83-2.77 13-1.04 2.96-2.75 5.2-4.7 6.9-2.03-.54-4.48-.68-5.52-2.2l-27.37 32.35c5.63 2.63 14-3.08 18.24 1.1-1 1.37-3.1 1.68-4.42 2.76.27 2.05 2.16 1.54 1.66 3.6-.7 2.8-7.14 1.84-8.3-.28-5.1.7-8.94-2.15-13.54-.55-2.84 1-4.52 4.56-7.74 4.98-1.2 4.8-7.82 4.7-9.96 8.57-1.16 2.1-.3 4.87-2.2 6.9-1.42.3-2.6 1.1-4.14.55-1.1-.45-.6-2.54-1.1-3.6-2.26.13-2.84 1.95-3.32 3.87-1.44-2.43-.63-6.44.56-8.57.76-.44 1.62-.77 2.48-1.1 3.22-6.2 12.08-6.72 14.1-14.1-2.67-.47-5.92-2.5-8.84-1.93-1.3.25-1.6 1.55-2.77 1.66-1.5.14-2.26-1.3-3.6-1.4-1.32-.08-4.1 1.2-4.98 1.94-1.44 1.2-1.37 3.67-3.04 4.97-1.72.8-4.56.6-6.08-.27-1.12-1.24.33-3.36-.83-4.43-1.4-1.2-2.55 1.42-3.32.83-.15-6.65 7.87-5.45 13.82-8.3 1.62-.77 3.52-2.98 5.26-3.32 4.93-.95 9.83 3.43 14.37 3.88 2.05-4.2-2.9-5.86-4.15-8.58-4.65-1.04-7.58.2-11.88-.27-1.28-1.8-.02-3.96.83-5.25-.9-1.6-3.43-2.72-5.8-1.94 1.43-1.6 3.52-3.14 5.53-3.04 1.4.07 2.48 1.55 3.87 2.2 4.15 1.97 10.15 3.08 14.38 4.15 2.1 1.48 2.63 11.62 6.35 11.6 1.9-.01 6.36-6.6 7.47-8.02 6.58-8.4 13.6-18.7 19.35-26.26-3-6.17 1.87-10.1 4.42-13.55 4.27-5.77 7.9-13.24 8.57-23.22.37-5.36-.96-10.7-1.93-15.76-1.47-7.63-1.32-13.73-3.04-21.84-3 15.06.1 36.24-6.9 47.28-9.66 5.63-11.13-9.48-11.9-17.98-.82-9.16-1.12-17.58-3.32-23.22 1.2 21.32-2.32 38.72-8.57 55.3-4.7 12.43-10.48 23.93-26 25.15 5-30.02 9.18-62.34 8.57-97.03-2.5 5.3-4.2 11.27-6.08 17.14-5.08 15.94-9.62 32.38-16.3 47.28-.42.93-.57 2.8-1.93 3.04-3 8.1-8.6 19.1-16.6 23.5-2.7 1.5-6.5 2.55-11.34 2.22 5.88-19.1 16.34-37.1 19.63-59.44 1.76-11.9 2.96-23.37 5.53-34 2.55-10.52 6.34-19.33 11.6-27.64-9.7 11.57-18.25 27.62-30.13 38.7-4.3 4.02-10.98 9.76-18.24 8.02 11.85-24.27 25.6-46.65 36.5-71.88-8.18 6.6-22.56 21.96-35.4 11.34 10.2-11.55 23.03-20.47 32.07-33.18-13.6 4.8-31.6 4.06-32.9-11.6 13.63-1.94 26.2-4.94 37.32-9.4-1.36-1.37-3.58-1.12-5.25-1.38-11.56-1.78-21.36-6.66-21.3-20.46 15.66 4.63 36.86 1.32 55.02 2.76 12.4 1 18.73 9.1 17.97 20.46-.6 8.95-6.32 11.7-11.34 17.14-.46 8.9 3.02 17.32 8.3 20.46 3 1.8 7.5.97 11.05 3.04 1.38 2.53-.02 5.22-1.65 6.36-14.4-1.6-22.44-12.3-20.74-28.2-1.92-.17-2.9.6-3.87 1.38-1.38 25.8 19 44.86 43.4 43.68 4.52-.2 6.84-7.42 13.83-5.25 1.42-1.9.5-6.13 1.93-8.02-1.4-1.53-4.67-1.22-6.9-1.93 8.03-.43 9.15-5.65 13.27-11.06 2.03-2.67 4.64-4.6 6.63-7.46-5.1-3.2-12.63.56-14.65 3.04 1.83-6.06 6.84-7.8 13.55-10.5 4.2-1.7 12.08-4.2 8.84-9.67-4.65-2.72-11.48-3.26-16.58-5.53 2.8-6.56 21.03 2.47 21.84-5.26-4.02-1.45-10.28-1.3-14.93-1.1-5.56.24-10.85.96-15.48 2.2-7.04 1.9-12.27 6.58-19.08 7.74 12.98-7.54 28.6-18.03 49.76-13 .83-7.93-9.8-10.9-14.37-6.08-5.76-4.67-15.85-4.72-17.97 3.04-.44 1.37 1.06 2.23.55 2.76-4.44-3-3.47-11.56.28-14.65 1.6-1.33 4.06-1.45 6.08-2.77 2.36-1.52 3-5.33 7.2-3.3 1.75-.9 1.77-2.4 3.04-3.32 8.8-6.3 25.76 4.96 34.83-2.2.54.6-1.47 1.24-2.5 1.93-1.13.77-2.4 1.76-3.04 2.5zm-30.96 1.66c-.45 2.25.5 4.35 3.04 4.42 2.04-5.7 9.72-5.76 15.76-7.46-5.6-1.8-17.64-2.8-18.8 3.04zm21.3-2.5c-1.12.23-2.2 1.34-3.32 1.66-4.97 1.42-11.75.9-13 6.08 1.92 1.57 3.3 1.8 6.08 2.2 6.76 1.03 12.2 6.08 19.35 6.64-1.4.55-3.5.37-4.98.83 2.78 2.94 5.9 14.07 1.1 18.25-.05-2.37 1.44-4.32.55-6.64-3.13 1.4-3.95 7.46-5.25 11.6-.57-1.64-.16-4.26-.83-5.8-4 1.72-3.36 9.55-7.2 10.5.47-2.7 2.35-6.84 1.94-8.57-1.95-.1-.98 2.7-1.38 4.15-2.17 8.52-15.88 5.5-19.9 12.16 5 .35 11.4-.72 15.48.55-7.8 2.32-11.2 9.08-15.2 15.2 2.45.3 6.27-.75 7.46.83-4.08.8-8.4 1.35-11.33 3.32 2.8.7 7.36-.37 9.67.83-1.9 1.23-5.96.3-8 1.38-1.13 2.83-1.3 6.63-2.2 9.67-4.9-.48-7.78 1.07-10.5 2.77-1.57 5.26-2.96 9.25-3.32 14.92-1.58 25.5 9.26 45.74 7.74 68-.42 6.23-2.75 10.37-5.25 14.38-3.48 5.6-9.46 10.27-8.3 18.25 3.5 1.6 4.1-1.93 6.63-1.66 3.95.4.56 5.6 3.04 8 1.54-.03.52-2.6 2.2-2.48.9.38.14 2.44 1.1 2.76 7.72-2.22 1.66-23.58 12.44-22.4.1.34.36.56.83.55 2.55 10.02 3.86 22.9-.55 30.4-2.5 4.23-8.33 5.94-13.83 6.36-2.15.16-4.9-.5-7.46.28-3.96 1.2-3.55 5.62-4.98 8.84-.7 1.6-2.25 2.14-2.2 4.15 3.48.45 5.9-2.8 9.68-2.77 1.1.02 2.12.7 3.04.83 9.7 1.38 15.7-4.16 17.14-13.27-4.26 3.56-11.73 10.36-20.73 6.64-1.18.57-1.4 2.1-3.05 2.2.93-1.75 1.86-3.5 3.32-4.7 12.24 2.8 19.54-4.2 23.5-12.16.1 5.75-1.06 9.77-2.2 14.1-3.13 11.76-8.22 23.83-19.35 27.64-6.82 2.33-14.27 1.57-21 2.77-5.6.98-12.3 2.08-16.87 4.97-4.82 3.07-8.77 10.18-9.4 16.3-1.35 13.18 6.92 21.17 19.36 21-2.72-2.55-6.44-3.92-9.13-6.9-4-4.46-5.65-12.36-2.76-18.52 3.1-6.65 10.85-10.95 19.35-11.9-1.25 7-10.64 10.88-13.27 16.04-.77 1.5-1.9 6.5.55 8.02 13.34-17.57 43.38-18.6 52.25-40.1 1.5-3.65 1.85-7.9 3.6-12.17-.1 4.84.14 8.26-.28 12.45-.92 9.18-4.58 22.46-11.34 26.26-4.5 2.54-18.8 1.7-19.07 7.46-.14 3 2.5 2.6 4.42 3.6-2.46 3.52-6.5 5.47-9.67 8.3 19.56-4.58 31.03-17.25 38.98-33.45.75 15.9.16 31.65-5.26 41.74-1.18 2.2-3.36 3.87-4.14 6.1-1.98 5.56 1.9 8.97 7.74 7.46.1 3.1 1.04 4.76 2.2 6.64.68 1.1 1.66 2.6 2.76 3.04 2.07-1.62 4.1-5.66 4.7-9.68 2.56.57 5.1.1 6.92-.83 1.4-1.75 1.3-6.04.27-8-1.7-3.23-3.8-5.26-5.25-8.02-4.75-9.1-3.93-23.14-3.87-36.77 8.5 16.2 19.1 30.3 40.36 33.73-3.23-3.58-8.66-4.97-10.78-9.68 1.46-.1 3.5.36 4.15-.55.34-2.18-.97-3.52-2.22-4.43-6.8-4.97-16.44-4.47-21.28-10.78-6.24-8.12-9.03-22.15-8.3-35.66 2.38 16.96 10.23 26.55 22.95 33.18 9.26 4.8 19.02 9.26 26.54 15.47 2.5 2.06 4.42 4.75 7.2 6.37 2.73-.64 2.8-3.65 1.93-6.1-2.24-6.22-13.2-10.14-13-17.42 10.2 2.3 20.37 7.8 21 18.8.68 11.6-6.9 15.04-13.55 19.36 10.67-.77 16.7-6.18 18.25-15.48 1.1-6.72-.78-13.63-3.32-17.42-10.04-14.98-43.2-7.96-54.46-21-5.9-9.76-11.94-20.86-11.6-35.94 2.93 8.6 8.4 14.64 20.18 14.38 2.67-4.08 7.67.2 8.57 2.48-2.22.1-2.54-1.7-4.42-1.93-7.27 3.47-16.37-.9-21-4.43 1.06 6.5 8.06 11.75 15.48 10.8 2.35-.3 4.56-1.4 7.18-1.4 3.18.04 5.8 1 8.85 1.1-.01-2.03-1.9-3.62-2.76-5.8-.36-.9-.22-2.2-.83-3.04-2.14-2.93-6.5-1.7-11.62-2.2-11.8-1.18-16.93-8.75-16.58-22.4.18-7.03 1.2-18 8-13.55.22 2.48 1.03 5.2 1.4 8.02.65 5.1.27 10.98 3.87 13.27 1.07-.6.72-2.6 1.94-3.04 1.47-.34 1.65 1.67 2.76.83 1.57-4.8 2.14-10.58 3.87-15.2 1.47-.78 2.33.57 4.15.28-2.82-10.82-11.4-16.23-12.17-28.75-.2-3.53.1-7.4.56-11.62 1.57-14.9 4.87-32 4.14-48.1-.18-4-.22-9.8-1.38-13.27-2.16-6.42-9.33-9.87-16.86-6.08 3.03-5.3 4.87-12.8 4.42-20.73 2.9 4.72 1 12.52-.55 17.4.9-.01 1.37-.46 2.5-.27-1.3-4.5.64-7.67 3.3-9.68-1.44-9.45 4.88-14.78 4.15-23.5 1.1-1.76 1.75-5.43 3.6-5.53-1.54 4.15-5.28 13.96 1.93 14.66-3.5-9.2 4.98-20.6.83-31.24 2.2 1.4 2.34 4.84 5.8 4.97-4.53-6.52-4.96-17.15-11.88-21.28-5.6-.16-8.83-7.5-14.1-4.43.12 1.36 2.64.3 2.76 1.66-2.67.5-5.86 2.76-8.84 2.2-2.1-.38-2.85-2.27-4.43-3.32 3.96-5.23 16.7-.4 20.46-6.08-2.1.37-4.57-.48-6.9 0zm83.5 3.87c-8.8.4-18.04.03-25.7.55-13 .9-19.37 10.12-15.76 24.06.63-.38 1.04.7 1.1 0-1.94-3.5-.47-10.78 2.48-11.06-.68 1.32-.97 2.5-1.1 3.87-1.36 13.7 8.3 16.94 16.86 21.3-1.02-.2-1.22.43-1.1 1.38-.93 29.3-15.94 44.5-44.23 46.44.25 1.04.24 2.34.55 3.32 27.28-.44 44.37-17.12 46.45-43.13.37-4.65-.35-8.3-1.38-12.16-8.82 3.7-12.6-10.8-3.32-10.5-5.84-10.56 15.57-10.34 9.4 0 9.44-1.98 7.96 12.22 0 10.8 1.4 39.75-17.58 59.1-49.76 65.24-1.16 8.28-1.54 18.33-1.1 27.92.24 5.3 1.45 10.55 1.93 15.48 1.13 11.4.94 22.05 6.92 29.03 1.93.74 4.36.07 5.52-.83 1.5-3.63 1.75-8.07 1.94-12.44.54-12.3 1.8-22.74 4.15-32.07.55-2.18.66-4.65 1.93-6.36-1.67 35.03 5.4 61.32 19.35 80.73 4 2.92 7.8 7.5 14.66 6.63-7.13-30.93-11.3-64.8-12.17-102-1.16.4-2.48 1.24-4.14 1.1-3.08-.26-4.84-4.17-6.36-3.87 2.77 29.1 6.05 59.2 11.06 85.14-3.4-5.27-3.64-12.33-4.98-19.07-3.47-17.36-3.9-38-7.47-55.57-3.36 2.53-9.55.13-11.6-2.76.34 6.23-2.43 9.35-8.57 9.12-1.9 13.9.96 29 .56 42.3-2.56-12.66-4.7-29.68-1.66-43.13-3.5-3.78-8.18-7.86-6.9-15.48 3.5 5.1 3.53 15.03 12.7 13.55 1.57-1.93 2.26-4.1 2.2-7.2-.05-3.8-2.66-8.37 0-10.23 2.32 5.5 2.63 14.22 11.06 12.72 2-2.7 2.2-8.13 1.38-12.44-.44-2.3-2.43-5.05 0-5.8 3.3 3.74 4.4 12.22 11.9 9.95 2.22-4.55-.04-8.43-1.66-11.33-.96-1.73-2.54-3.56-1.93-4.98 3.95 1.13 5.45 7.08 12.16 6.36 2.12-1.3 1.1-4.72 0-6.64-1.83-3.18-6.56-5.48-5.53-8 3.08.38 6.66 3.98 11.06 3.04 3.35-5.54-4.72-7.8-6.9-11.34 2.44-.87 8.4 3.15 11.06-.27.7-6.05-6.78-5.37-7.74-8.85 3.25-.7 7.3-.6 9.12-2.76.9-5.3-5.16-3.68-8-5.26 1.6-3.27 9.04-.96 8-5.52-.64-2.86-6.23-.86-7.2-3.05 4.47-2.5 7.86 1.24 9.68 3.88 3.7 5.34 8.17 8.82 13.54 13.54 3.98 3.5 8.4 7.38 13 8.57 4.05 1.06 11.26.93 14.65-2.5-13.55-10.77-27.92-22.2-38.7-34.83 12.36 5.13 37.46 7.5 38.98-8.02-17.32-2.12-33.6-5.3-47.28-11.06 17.15-.36 33.4-3.1 34-19.07-7.18 1.13-16.73 3.14-27.1 3.6zm-79.62 0c1.2 2.85 5.1 3 7.74 4.43 1.2 1.17 4.12 4.52 4.98 4.14-1-5.92-6.7-12.8-12.72-8.57zm-2.77 28.75c2.28-1.78 4.97-6.07 4.15-10.22-.74-3.78-6.1-7.77-10.23-9.4-7.26-2.88-16.94-2.04-18.25-9.96-3.04-2.3-3.95 2.05-5.25 3.32-5.74.65-11.34 5.43-8.57 11.9 1.23-7.17 13.05-7.4 17.7-3.04 6.37-4.6 18.1-.94 20.46 5.25.65 1.73 1.18 5.6 0 8.02-3.65 7.4-17.23.2-24.33 3.6 6.22 2.3 18.2 5.35 24.32.55zm-109.75-10.5c-13.68 5.3-28.93 9.04-44.5 12.44 1.93 16.43 25.84 10.55 37.05 6.36-10.4 13.65-24.5 23.6-35.67 36.5 11.87 5.7 20.32-1.94 27.37-8.57 4.64-4.36 9.16-9.23 11.9-13.27.95-1.4.88-2.43 2.2-3.32 1.5-1 5.47-2.3 6.9 0-2.2 1.5-6.85.23-7.18 3.04-.17 1.38 1.4 2.8 3.04 3.32 1.7.54 4.66-.68 5.25 1.38-2.53 2.14-8.73.98-8.3 4.98.35 3.3 6.24 2.7 9.95 3.6-2.15 2.45-9.33 3.95-8.02 8.3 1.46 4.82 10-1.46 11.34.56-2.33 3.66-7.68 4.3-7.75 10.23 4.1 4.36 9.23-2.9 12.45-1.94-.17 2.17-2.6 4.16-4.15 6.36-1.5 2.1-3.63 4.7-1.66 7.74 3.13.8 5.43-.27 7.2-1.66 2.05-1.63 3-4.67 5.25-4.97.66 2.56-3.6 6.97-4.15 11.33-.4 3.28.75 5.54 3.04 5.8 6.14.7 6.65-7.56 9.68-10.8 2.4 1.18.26 5.4 0 8.85-.5 6.55 2.5 12.9 8.02 8.02 2.74-2.43 3.04-8.44 4.7-11.62 3.08 1.75-.1 6.83.28 11.06.2 2.38 1.12 3.98 1.93 5.8 9.33 2.68 9.6-8.2 12.72-13.55 1.7 6.9-3.27 11.8-6.36 15.76 3.4 12.15 1.96 30.85-.27 43.13-1.2-13.12 2.2-32.23-1.1-42.85-6.36 1.65-8.33-2.96-8.84-8.02-1.37.27-2.24 2.45-4.43 3.32-2.22.88-4.72.83-6.9-.55-3.1 21.1-3.22 47.36-7.2 67.17-.56 2.83-.5 6.16-2.76 8.02 3.96-17.6 4.23-37.87 6.08-57.23.92-9.64 3.5-19 1.94-29.02-2 3.2-6.26 6.54-10.5 3.6 1.3 37.16-2.57 71.26-8 102.57 4.97-.13 9.13-2.18 11.88-4.98 15.84-16.1 20.43-51.17 19.63-82.94 2.68 7.18 3.8 16.4 4.7 25.7.87 9.14 1.3 18.74 5.53 24.9 6.3 2.7 8.5-5.92 9.12-11.06.7-5.85 1.03-13.47 1.66-21 1.2-14.34.72-29.03-1.38-40.92-34.6-4.57-52.62-25.7-52.25-65.24-7.88 2.3-9.58-12.12-.83-10.23-.4-1.53-.76-3.1-1.1-4.7 1.9-6.57 14.2-3.06 10.23 4.7 8.83-.8 7.52 13.12-2.2 10.23-2.6 15.68 2.26 31.42 10.5 40.9 8.24 9.5 20.17 14.53 36.5 14.38.33-.96.75-1.83.55-3.32-28.98-1.34-44.2-16.42-45.9-45.06.4-1.33-1.27-.57-1.1-1.66 4.33-2.8 11.22-4.16 14.1-8.85 2.6-4.23 2.6-11.23 1.1-16.3 3.62 1.53 2.88 7.82 3.32 11.06 3.04-7.48-.6-16.32-4.7-20.18-7.46-3.53-17.47-3.76-27.65-3.32-13.43.6-25.6-.15-36.2-2.5.8 16.72 17.53 17.5 34 18.53zm103.4-16.6c-1.53.03-2.05 1.08-3.3 1.38-1.07-.03-1.1-1.12-1.94-1.38-.65 3.48 6.53 2.56 5.25 0zm2.22 17.7c.98.4 2.3.48 3.32.83-.36-4.15-2.27-6.77-5.8-7.74 1 2.14 2.3 3.98 2.5 6.9zm62.48 5.8c-2.52-.3-4.06.36-5.26 1.38-2.34 6.06 4.3 8.3 8.02 6.64 5.17 17.63-1.73 36.24-11.6 45.6-8.45 8-20.28 11.7-33.73 13.55.13 1.62.54 2.96.83 4.42 33.43-3.36 51.07-25.38 48.38-63.03 9.03 2.58 9.68-11.25 0-8.57.83-1.9 2.05-4.23.83-6.64-5.4-3.93-11.05 1.95-7.46 6.64zm-152.33.28c5-4.43-2.3-11.06-6.64-6.36-.9 2.24.4 5.02.56 6.08-8.93-.8-5.86 11.47 1.38 8.3-.22 3.98-.4 8.02 0 11.88 1.4 13.54 5.38 26.23 13.27 35.1 8.02 9.03 21.5 16.6 37.6 16.03 0-1.66.08-3.4-.28-4.7-33.42-.85-51.66-24.34-47.55-58.9 8.92 4.9 11.57-9.64 1.66-7.46zm57.5-2.22c9.37-2.57 23.24-2.96 33.73-1.93-10.02-3-25.98-3.26-33.73 1.93zm31.24 3.05c1.7-.5 3.5-.94 3.6-3.05-2.78-.56-3.2 1.22-3.6 3.05zm43.13 34.28c-1.1.24-3.98-.14-4.98 1.1-1 1.25-.16 3.06.83 4.15 11.42-.67 18.2-9.85 19.08-20.74.2-2.6-.15-5.7-1.66-7.46 1.14 11.9-4.32 20.98-13.27 22.95zm-118.33-.28c4.03 2.5 8.02 7.73 14.66 5.8 2.5-5.68-3.67-4.1-7.47-4.97-3.35-.78-7.3-5-9.12-8.85-1.92-4.02-2.47-7.88-2.77-13-2.5 7.93 1.4 16.2 4.7 21zm193.25 55.57c-6.76-6.7-12.65-15.43-18.25-25.7-3.55-6.53-8.4-13.77-12.16-20.74-1.96-3.62-3.76-9.15-7.47-5.25 5.45 2.4 6.24 10.94-1.66 10.5 1.07 2.35 3.62 4.35 2.77 7.74 8.32 10.64 17.74 24.03 27.37 34.28 6 6.4 11.36 13.93 22.94 13-1.33-3.33-3.77-6.2-5.8-9.12-14.95-21.52-27.45-45.8-40.37-69.12-.6 1.25-1.88 1.8-3.3 2.2 2.05 1.4 5 4.1 3.04 7.75 10.68 19 22.22 38.6 34 55.56 0-.28-.22-.33-.28-.55-.32-.14-.62-.3-.82-.55zm-267.6 17.7c10.12-.72 15.93-8.7 21.3-14.93 6.9-8.03 14.08-16.36 19.07-25.7 3.34-2.02 4.83-6.35 6.36-10.23.94-2.38 2.47-4.57 2.2-6.08-7.84.54-6.72-7.9-1.66-10.5-1.13-.34-1.92-1.02-3.3-1.1-11.6 18.36-19.58 41.8-34.3 56.12 12.1-18.04 22.7-37.57 32.35-58.06-.28-.9-.83-1.56-.83-2.76.84-1.83 2.2-3.14 3.87-4.15-1.6-.42-2.54-1.5-3.87-2.2-12.53 27.74-26.96 53.58-41.2 79.62zm227.25-32.9c5.4 18.73 11.3 37.77 17.96 55.3 2.7 7.1 6.76 13.75 7.74 21.57-6.53-12.03-11.25-25.43-16.03-38.98-4.83-13.7-8.92-28.1-12.16-43.13-2.43 1.4-6.54.78-8.85-.28 0 10.3 3.07 19.4 6.36 27.93 7.95 20.58 14.24 43.38 24.33 61.64 5.16 9.36 11.2 18.44 23.5 18.8-7.22-17.98-17.07-37.48-21.28-59.44-1.44-7.5-2.32-15.36-4.15-22.94-1.03-4.25-2.9-8.83-4.42-13.27-3.17-9.18-6.74-16.86-11.9-23.22-1.55 1.4-4.68-.25-6.08.27 3.5 3.63 3.35 10.12 4.98 15.76zm-178.04-13.54c-.02-.17-.04-.33-.28-.28-5.57 8.6-9.53 17-12.16 27.92-3.58 14.82-4.76 34.46-9.12 49.2-4.3 14.52-11.22 29.44-15.5 43.4 2.17-.23 3.8-.98 6.1-1.1 8.26-3.78 12.6-11.5 16.3-19.63 11.24-24.65 20.04-53.46 27.92-80.73-1.35-2.2-.82-6.46-.28-9.12-2.46 1.4-5.35 1.96-8.57.83-5.2 25.98-12.62 51.04-21.3 73.54-1.23 3.2-1.8 6.92-4.42 9.4 6.6-20.96 13.9-42.68 19.63-64.14 1-3.78 1.74-7.6 2.76-11.34 1.1-4 1.43-7.7 2.22-11.88.48-2.58 2.34-5.15 2.2-6.36-1.83.3-3.6.8-5.53.28zM531.3 342.57c6.58 10 15.98 20.72 22.67 31.52 1.47 2.38 3.8 5.15 1.93 6.63-3.37.5-6.8.95-10.5 1.1-.85 2.84-4.38 3-5.8 5.25 3 3.68 5.95-1.43 8.85-1.93 1.9-.34 4.26.53 6.36.27 2.15-.26 3.68-1.02 5.8-1.38.7 1.96 3.64 1.7 6.08 1.93 2.47 3.52 8.95 3.04 9.95 8.02 4.54-.28 3.75 6.2 7.75 5.53 1.13-1.35-1.22-4.03 0-6.36-.73-1.8-2.88-1.62-4.43-2.5-1.03-.57-1.54-1.74-2.5-2.5-1.5-1.18-3.8-2.3-5.52-3.3-1.77-1.04-4.34-1.76-4.43-3.87 5.7 4.38 14.36-.68 21.57-1.1-.16 3.74 4.6 3.65 4.7.28 2.05.62 3.02 2.33 6.1 1.93.7 2.43 3.63 6.97 6.36 3.87-.73-2.7-3.8-3-4.7-5.53.54-.46.74-1.28.82-2.2-5.94 1.6-8.26-3.33-13-3.3-5.7.01-11.64 6.74-17.97 2.2 1.37-1.5 2.77-2.95 3.04-5.53 1.1-.1 2-.4 2.77-.83.6-1.5-.57-1.96-.83-3.32 1.3-.36 2.2-1.13 3.6-1.38 1.15 1.85 6.66 1.54 6.64-1.1-3.8-1.8-10.77-2.47-13 .83-1.3 1.93-1.08 5.14-2.5 7.2-2.16 3.12-5.4 3.54-10.23 3.04-7.95-13.8-16.77-26.73-24.88-40.36-3.8.07-4.48 3.26-4.7 6.9zm-63.3 1.38c-1.5-.04-3.1-1.23-4.15-.83-.17.02-.32.05-.27.28-5.4 6.65-13.3 16.87-19.08 24.33-2.26 2.92-4 6.08-6.08 8.57-5.2 6.24-8.5-4.65-10.23-9.12-3.24-2.3-8.57-2.5-12.44-4.15-1.4 1.73-4.57 1.7-4.98 4.42 1.3 1.96 3.45-.23 4.98-.55 1.5 1.88 5.2.54 7.2.83.72.57.33 2.25.83 3.04 4.32.28 2.9 6.3 5.8 8.02-3.27.72-5.9-.64-8.57-1.4-2.67-.73-6.25-2.32-8.57-2.2-3.13.15-5.45 3.65-8.84 4.42-1.1.25-2.03-.43-3.32.55-.7.9.7 1.53.27 3.04-2.8 1.25-5.42 6.75 1.1 5.8 1.72-1.23 1.85-4.04 3.32-5.53 2.74-.4 4.2-2.07 6.9-2.5.88 3.12 3.9 1.57 4.98-.28 3.32 1.66 8.8 1.14 12.7 2.22-3.68 6.64-10.96 9.68-16.03 14.93 3.37 2.04.7 5.98.55 8.57 4.33.68 3.76-5.8 5.25-8.85 5-.82 7.6-4.02 9.68-7.74 3.24-.36 5.37-1.82 6.36-4.43 3.5-.15 8.9-2.1 11.06.55 1.67.1 3.05-.07 4.42-.27 1.22 1.2 5.26 3.83 6.9 1.1.02-1.32-1.64-.95-2.5-1.4-.87-1.16-1.43-2.62-2.2-3.87-2.68-.88-9.93 2.1-10.78-1.1-.3-1.15 2.08-3.87 2.76-4.7 7.93-9.82 17.9-19.97 24.05-29.58-.52-.58-.9-1.32-1.1-2.22zm114.18 17.7c.47.45 1 .84 1.93.83.43-.96 2.63-2.46 1.38-3.32-.97.97-3.22.65-3.3 2.5zm-169.2 1.66c.48-.44 1-.84.83-1.94-1.37-.56-2.8-1.06-4.7-1.1.5 1.8 1.87 2.75 3.87 3.05zm190.48 17.4c.3.06.43.3.55.56 1.93-.56 3.85-1.13 4.7-2.77-1.77-2-5.32-.72-5.25 2.2zm-60.27 1.66c.4-.44.98-.68.83-1.66-.2-.06-.32-.23-.27-.55-3.7-1.56-3.83 2.1-.56 2.2zm-87.35 0c1.53-.03 2.5-.64 2.76-1.93-1.38-.94-4.08.17-2.76 1.93zm-61.1 1.1c1.98.75 5.15-.02 3.87-2.5-2.06-.54-3.62.46-3.87 2.5zm191.3 12.44c1.2.36 2.58.55 4.15.55.38-2.6-4.48-4.26-4.15-.55zm-176.65 7.74c1.54-.68 2.9-1.52 4.42-2.2.2-1-.6-1.06-.55-1.94-2.58.1-4.14 1.2-3.87 4.15zm173.34-253.8c1.08-1.4 2.87-2.1 3.87-3.6-2-.4-4.33-.46-6.36-.83H578c-.9-.32.75-.3 1.1-.28 3.9.17 8.45-.33 11.9.28-.76 1.46-3.02 1.4-3.6 3.04 10.05 1.1 21.57-1.1 29.3-4.15 1.7-.47-.57.73-1.38 1.1-7.9 3.73-20.15 4.7-32.62 4.42zm11.6 16.04c-.47-.07-.7.3 0 .27 10.2 3.73 23.2 8.74 37.04 6.1-14 .5-25.74-3.3-37.04-6.36zm30.4 42.02c-9.9-6.52-18.6-15.7-26.82-22.95 7.48 8.93 16.5 17.8 26.82 22.95zm-209.28-60.82c-2.26.87-5.78.48-7.74 1.66.82 1.3 2.37 1.87 3.87 2.5-12 2.1-26.34.2-35.1-3.6 8.12 1.95 19.55 4.08 30.4 3.32-.68-1.53-2.6-1.82-3.87-2.76 3.68-.7 8.82-1.27 12.44-1.1zm-13.82 21.56c-.03-.33-.08-.65-.55-.55-11.18 3.93-22.72 7.5-37.05 8.3 15.5 1.44 26.37-4 37.6-7.74zm-4.15 18.8c-7.16 9.52-15.75 17.6-25.7 24.33 1.2-1.76 3.22-2.92 4.98-4.42 5.08-4.33 10.52-9.43 14.93-14.66 2.78-.9 3.3-4.07 5.8-5.25z"/><path d="M590.45 191.35c-.38 1.18-3.33 1-4.43.55.2-1.8 3.37-1.04 4.43-.55zm-5.8 9.4c1.76-.18 4.24.36 5.53-.28-1.57-.2-4.8-1.98-5.53.28zm-1.66 9.68c2.07.33 3.8 2.16 6.1 1.38-1.43-1.52-4.17-1.73-6.1-2.77v1.4zm-3.87 9.12c2.67.56 4.22 2.23 6.9 2.76-1.7-1.98-4.47-2.9-6.9-4.14v1.38zm-5.52 8.85c2.45.95 3.96 4.32 6.63 4.14-1.96-2.37-3.86-4.8-6.63-6.36-.66.65.04 1.36 0 2.22zm-2.77 14.65c-1.4-3.4-2.35-7.23-5.25-9.12 1.24 3.54 2.48 7.1 5.25 9.12zm-13 8c-.24-3.26-1.4-8-3.32-10.5 0 3.54 1.76 7.6 3.32 10.5zM544 255.2c-.24-3.8-1.44-6.67-1.93-10.23h-1.38c.67 3.84 1.03 8 3.3 10.23zm-134.35-61.1c-1-.86-4.3.62-4.43-1.1 1.38-.23 4.38-.8 4.43 1.1zm-3.87 9.12c2.02-.2 4.47.04 5.53-1.1-1.64-1.48-4.58.1-5.53 1.1zm1.38 10.78c2.6-.62 6.13-.32 6.63-3.04-2.12 1.1-5.4 1.04-6.63 3.04zm3.6 9.95c2.73.2 6.1-1.24 6.9-3.87-2.68.9-4.78 2.4-6.9 3.87zm6.36 10.5c2.67-.5 6.35-3.76 6.36-6.9-2.67 1.75-4.4 4.44-6.36 6.9zm9.68 9.95c1.82-.3 2.12-2.76 2.76-4.15.77-1.66 1.65-3.36 2.2-4.97-.35-.02-.38-.36-.83-.28-1.56 2.95-3.15 5.88-4.14 9.4zm13.54 7.74c.86-3.4 2.8-7.14 2.77-10.5h-.83c-.75 3.04-2.44 8.04-1.94 10.5zm14.1 3.6c1.45-2.8 2.27-6.2 2.2-10.5h-.82c-.7 3.08-1.8 7.23-1.4 10.5zm45.06 63.3c.7 4.23 1.2 9.7.56 14.38-1.38-3.73-1.4-10.02-.56-14.38zm-.27 46.73l-4.98-41.75c-.47 10.43.93 19.6 2.5 29.85 1.2 7.95 2 16.37 2.5 24.6.94 15.53.02 31.6.83 47.27.1 1.76.2 3.65 1.1 5.53-3.1-37.37 3-73.47 4.98-107.54-1.3 15-1.67 30.95-6.9 42.03zm17.4-173.9c.74.02-.26 4.13.83 4.7.5.08.86-1.3 1.1-.55-.25 1.4-.97 2.35-1.1 3.87-2.3-1.35-.9-5.28-.83-8.02zm-6.35 22.67c.14-2.25 1.86-4.4 1.66-6.08-.78.43-.76 1.64-1.66 1.94-.77-.9.22-3.55-.56-4.43-.95 2.12-2.17 7.44.56 8.57zm-13.83 21.57c.28-1.66 1.2-2.67.83-4.98-1.4-.3.3 2.52-1.1 2.2-3.15-2.64-.66-11.2-1.66-14.65-.35 5.67-2.4 14.55 1.93 17.42zm-4.42-7.47c-.16-1.85-2.06-1.32-3.04-2.2-1.78-1.62-1.38-3.92-1.94-6.9-.88 4.6.05 9.44 4.98 9.12zm11.9 4.98c.06-.22.23-.32.55-.28.22-1.04.48-2.34 0-3.32-1.16-.42-.04 1.43-.83 1.4-2.46-1.32-2.38-5.18-3.32-8.02.3 4.3-.22 9.44 3.6 10.23zm-5.8 27.37c4.47-.52 4.97-9.87 4.98-14.93-1.3 3.34-1.14 13.78-5.53 13.54-4.15-.22-4.18-9.87-5.25-13.54.33 5.83.57 15.54 5.8 14.93zm9.4 7.46c.7 5.46-1.56 13.47.83 18.25 4.2.75 6.13-4.52 7.46-7.47 1.58-3.46 2.76-6.83 3.32-9.67.24 7.5-3.4 13.55-6.9 18.24-3.13 1.8-5.25-.6-6.36-2.5-2.34 2.74-3.05 7.62-7.18 7.74-4.68.15-5.7-5.9-7.47-9.95-1.97 2.02-1 5.72-4.7 5.8-5.76.14-7.9-13.08-9.4-17.7 1.5 2.7 2.32 5.67 3.87 9.12 1.02 2.25 3 7.24 5.53 7.2 4.76-.1 3.13-13.54 3.04-18.25 1.55 8.6 3.05 17.23 8.3 22.12 7.96-2.9 7.68-14.06 9.67-22.95zm-1.66 25.7c1.6 3.7-2.56 11.54 1.94 13.55 5.28-1.54 5.37-8.27 7.46-13 .07 6.8-3 16.94-10.78 14.1-1 1.68-1.9 3.44-3.32 4.7-1.76.32-2.5.05-4.42 0-1.36-1.5-2.45-3.26-3.32-5.25-5.28 6.23-9.84-5.52-10.5-11.33 1.95 3.6 2.56 11.9 7.18 11.33 4.66-.57 1-8.78 1.66-13.55 1.34 5.08 1.82 17.52 8.02 16.87 5.08-.54 4.4-13.18 6.08-17.42zm-.55-78.5c-.24 4.94.15 11.4 3.6 13.54 1.57.57 1.38-1.53 2.22-.82.7.9-.28 1.97-.83 2.48-5.35-1.22-5.62-8.9-4.98-15.2zm-27.64 26.8c1.47 4.34 2.46 11.23 4.42 14.93.43.82 1.8 2.9 3.04 2.77 2.84-.34 3.7-9.97 3.87-13.55.05-1.08-.04-2.44 0-3.6 1.97 6.07 1.65 16.03 5.53 20.18 1.5 1.6 3.26 1.96 5.25.55 4.7-3.34 5.84-12.85 6.64-20.46.87 3.7-.64 13.67 2.76 16.6 5.67-1.8 5.95-8.98 6.9-15.48 1.24 3.37.1 9.1 2.5 11.33 4.53-2.2 5.15-8.3 6.36-13.82.58 2.94-1.6 16.53-6.08 15.76-1.9-.33-1.37-3.33-3.05-4.43-.75 5.7-7.15 13.38-9.95 4.43-3.04 3.13-3.04 9.3-9.67 8.85-3.62-2.56-4.76-7.6-6.9-11.62-1.15 2.08-1.87 4.6-2.77 6.92-4.8 1.07-5.56-3.93-6.9-7.2-1.58.44-1.82 2.23-3.04 3.04-5.18-2.1-4.78-9.78-5.25-16.6 1.26 5.74 1.1 12.9 5.53 15.48 2.7-2.75.86-9.85.83-14.1zm15.2 34c2.18 3.08 2.36 8.15 5.25 10.5 3.74-1.43 3.9-6.4 5.25-10.23 0 4.65-.88 12.15-6.35 11.34-2-3.25-3.22-7.3-4.15-11.6zm11.06 19.9c-.17-1.36.8.3 0 .28-.42 4.45-1.25 10.9-4.7 11.34-3.88.47-4.26-6.7-5.25-10.5 1.7 2.9 1.93 7.28 4.97 8.84 2.72-2.25 3.48-6.47 4.98-9.95z"/><path fill="#fff" d="M502.8 143.8c.85.26.87 1.35 1.94 1.38 1.26-.3 1.78-1.35 3.3-1.38 1.28 2.56-5.9 3.48-5.25 0z"/></svg>