<svg xmlns="http://www.w3.org/2000/svg" height="600" width="900" xmlns:v="https://vecta.io/nano"><style><![CDATA[.B{fill:#ffce00}.C{fill:#d00}.D{fill:#fff}]]></style><path d="M0 0h900v600H0z"/><path d="M0 200h900v400H0z" class="C"/><path d="M0 400h900v200H0z" class="B"/><path d="M129.4 19.496c1.52 1.605 2.97 3.502 3.88 5.405 2.52-.452 5.1.453 6.32 2.59.7 1.444-1.3.456-1.75 1.068-1.14.376-2.52 1.215-2.8 2.438-.32 1.215.22 1.892 1.13 2.577.76.46 1.6-.073 2.36-.228 1.45-.91 2.2-2.28 2.75-3.727 1.3-.15 2.43.913 2.96 2.06.53 1.21.7 2.822-.08 3.955.16.69 1.15 1.064 1.53 1.676 1.06 1.517 3.2 3.12 1.98 5.096-1.07 1.985-3.2 3.58-4.72 5.1.07 1.37.76 2.817-.16 4.032-1.13-.526-2.43-1.06-3.64-.603-.85.45-1.53 1.137-1.6 2.058.15 1.06.4 2.05 1.37 2.736 1.75 1.293 4.87 1.146 6.78.15 1.06-.69 1.75-1.753 1.98-2.887-.08-.615-.68-1.075-1.15-1.455l-1.97-.154c.38-1.594 1.97-2.968 3.5-3.19.7-.306 1.6-.073 2.45-.228.83-2.434 2.05-4.803 3.96-6.776 1.52 2.05 2.72 4.493 3.12 7.004.3.456.82.147 1.2.456 1 .226 1.83 1.212 2.05 2.206.16 1.142-1.6.454-2.13 1.142-1.06.84-1.06 2.206-.68 3.274.6 1.9 2.6 2.438 4.34 2.585 2.27 0 4.26-.9 5.86-2.744l.53-1.366c-.23-.84-.6-1.75-1.52-2.128-1.53-.763-3.05.228-4.5.298-.3-1.37.38-2.426 1.3-3.502-1.3-2.202-2.82-4.334-3.04-6.85 1.52-1.517 3.42-2.206 5.4-2.74l.3-.303c.16-1.745 1.07-3.122 2.14-4.41.9.836 1.9 1.676 3.2 1.37.77.074 1.3-.762 1.75-1.296.24-.84.38-1.598 0-2.36-.98-.983-2.43-1.215-3.73-.828l-.14-.232c.75-1.982 2.74-3.274 4.86-3.35.84-.302 1.75.685 2.2-.53 1.38-2.357 3.5-4.11 5.78-5.255 2.67 1.296 4.04 4.036 4.57 6.694 1.6.762 3.35 2.287 3.43 4.265l-.08 1.296c-1.06 0-2.66-.69-3.35.766-.38.526-.15 1.21 0 1.823.38.456.92.526 1.37.677 1 0 1.83-.828 2.2-1.668.77-.46 1.22.758 1.76 1.064.38.836.45 1.904.3 2.74 1.98 1.52 4.04 3.502 4.34 6.087-.76 1.908-2.66 3.433-4.34 4.647-.22 1.363 0 2.972-1.37 3.805-1.14-.46-2.43-1.07-3.57-.078-1.07.6-.92 1.98-.6 2.887 1.52 2.67 4.95 2.593 7.77 2.213 1.3-.305 2.66-1.215 3.1-2.588v-1.595c-.38-.917-1.2-1.52-2.05-1.908-.08-1.22 1.14-2.21 1.98-2.82.76-.755 2.06-.22 2.74-1.13 1.06-1.602 2.13-3.274 3.95-4.04.6-.154.9.3 1.37.535 2.28 1.904 3.05 4.636 3.28 7.456 1.06.836 1.98 2.2 1.5 3.734-1.06.233-2.34 0-2.96 1.293-.46 1.374 0 2.74.83 3.804 2.52 2.356 6.55 3.193 9.75 1.753 1-.61 1.9-1.68 2.28-2.74.1-1.223-.9-2.137-1.83-2.67l-2.5-.91c-.68-.074-1.15.378-1.83.22-.4-1.362.98-2.275 1.37-3.494-1.6-1.064-3.27-2.66-3.65-4.566 1.22-2.74 4.03-4.26 6.85-4.717 1.37-1.75 2.66-4.49 5.25-4.49.53 1.056-.3 2.43.98 3.188.46.314 1.22.233 1.76.078.53-.302 1.22-.836 1.22-1.517 0-1.448-.77-2.585-2.06-3.2-.46-.22-1.37-.297-1.3-.986 1-1.904 3.36-2.438 5.25-2.206l2.36.376c2.06-1.823 3.5-4.493 6.25-5.097 2.28 1.37 3.12 4.04 3.5 6.467 1.14.537 2.36 1.75 2.6 3.05-.23.68-.9 1.365-1.37 2.054-2.44 3.654-2.9 7.995-2.74 12.407-.7 4.41-4.34 7.54-7.93 10.042-1.67 1.53-2.88 3.583-2.8 5.94l3.27 3.424c0 1.06-1.14 1.52-1.75 2.36-.84.38-1.22 1.374-1.83 1.977.15 3.045 4.34.75 5.03 3.727.22.762.53 1.447.14 2.206a4.83 4.83 0 0 1-3.19 2.894l-.3.46c.07 3.196-.15 6.84.15 9.9V134.8l.22 1.6c-.37 10.58.4 20.77 0 31.2l.24.7c0 5.72-.16 12.03.15 17.66-.3 7.14.23 14.3 0 21.46-.15 9.52-1.9 18.2-4.33 27.02-7.32 26.1-27.1 49.7-51.7 62.56-11.5 5.94-23.9 10.04-37.07 11.57l-.22.14c-2.9 0-5.48.76-8.38.54l-.46.22c-3.04-.15-6 .16-9.28-.22-5.94-.07-11.33-1.22-16.9-2.3-21.465-4.7-41.634-15.82-56.703-32.87-13.7-15.67-22.227-34.4-24.967-54.72-.836-4.5-.913-9.75-.99-14.77-.302-7.77.155-15.6-.147-23.67.147-.38.147-1.06-.155-1.44.233-12.56-.224-24.5 0-36.46-.302-1.6-.077-3.5-.154-5.32.154-9.9-.225-19.4-.07-28.78-.302-1.14-.155-2.73-.232-4.1-.07-4.95.302-10.276-.07-15.68-1.68-.612-3.43-1.9-3.43-3.878-.077-1.072.604-1.99 1.293-2.674 1.068-.604 3.196-.457 2.895-2.357l-.3-1.064c-1.138-1.067-2.275-2.124-3.274-3.347 1-1.293 2.593-2.357 3.43-3.73-.155-1.448-1.068-2.736-2.06-3.878-3.955-2.054-8.374-5.483-8.822-10.282-.612-1.9.077-3.877.224-5.626.154-3.498.99-7.54-1.517-10.74-.69-.298-1.293-.758-2.128-.607-.078-.983.526-2.05 1.292-2.89.604-.758 1.896-.15 2.275-1.212.62-1.833 1.603-3.66 3.205-4.953 2.135.686 3.8 2.435 5.1 4.42.758.375 1.207-.615 1.973-.615 1.904-.225 3.73.46 4.8 2.21.07.232.3.387.224.68-.38.155-.913-.074-1.363 0-1.3.3-2.135 1.378-2.747 2.434 0 .92-.232 1.985.45 2.67.472.616 1.154.987 1.757 1.22 1.524.302 2.593-.53 3.576-1.366 1-1.068 1.068-2.747.62-4.113 1.052-.302 2.276.382 3.336.835 1.377.755 2.143 2.2 2.368 3.576 1.138.836 2.584 1.068 3.73 1.68 1.36.91 3.04 2.124 3.04 3.88-.68 1.897-1.75 3.58-3.196 5.02.828 1.598.913 3.808-.233 5.25-1.516-.685-3.188-1.675-4.8-.526-.92.603-1.145 1.668-1.293 2.732.148 1.14.836 2.132 1.672 3.05 2.275 1.676 5.626.987 7.987-.08 1.3-.68 1.98-2.128 1.904-3.5-.078-1.227-1.138-2.14-2.05-2.748h-.99c.155-1.985 1.834-3.576 3.653-4.187l1.068-.306c.38-2.356.766-4.864 2.74-6.312 2.43.755 4.256 3.12 5.178 5.48 1.44-.15 3.04.372 3.8 1.75.147.53.387 1.146.232 1.68-.767 0-1.44.375-1.68 1.134-.224.913.156 2.132.766 2.968 1.672 1.598 4.033 1.598 6.247 1.3 1.896-.76 4.256-1.525 4.937-3.73-.077-.836-.68-1.223-1.285-1.672-1.602-1.072-4.04-.534-5.634.15-.465-.538-.232-1.602-.232-2.365.155-.604.534-1.215.302-1.753-2.507-.986-4.79-3.265-5.86-5.785.914-1.973 2.663-3.575 4.49-4.644.232-.762-.224-2.128.387-2.886.37-.302.526-.99 1.137-.762.458.68 1.293 1.296 2.052 1.675 1.068.155 1.98-.228 2.437-1.145.465-.612 0-1.366-.146-1.9-.99-1.07-2.353-1.676-3.808-1.827-.38-.9.3-1.908.836-2.74 1.144-1.22 2.894-1.826 4.566-1.292.758-.383.758-1.443 1.145-2.206.983-2.213 2.13-4.717 4.264-6.245 2.275.91 3.878 3.196 5.48 4.948.83-.383 1.896-.607 2.88-.456 1.222.3 2.067 1.444 2.214 2.663-.38.378-.836-.147-1.37.077-.906.3-1.896.983-1.974 1.98-.077.914.612 1.602 1.215 2.206.76.53 1.447-.08 2.13-.306.456-.986 1.446-.538 2.136-.228 1.37.91 2.43 2.438 2.817 4.032 1.75.607 3.653.99 4.867 2.666 1.518 2.055-.31 4.493-1.446 6.312-.527.538-1.293 1.227-.527 1.912.45.754.225 1.74 0 2.433-1.447.23-3.203.07-4.117 1.366-.766.9-.766 2.06-.766 3.123.155 1.068 1.223 1.75 1.99 2.35 1.75.693 4.1.465 5.626-.6 1.07-.988 2.516-2.288 1.75-4.033-.456-1-1.593-1.908-2.74-1.908-.526-.374.077-.84 0-1.288.835-1.296 2.206-1.6 3.59-1.6.294-.53.37-1.218.518-1.68.612-1.67 1.68-3.04 2.748-4.415l.526.16c1.606 1.52 2.596 3.653 3.426 5.626 1.83 0 3.58.228 4.65 1.68-.23.836-1.07 1.448-1.37 2.206-.6 1.22-.47 2.817.15 4.033 1.07 1.98 3.12 2.437 5.25 2.36 2.28-.457 5.02-1.447 5.63-3.955.6-.917-.07-1.826-.23-2.747-1-1.22-2.44-2.202-4.1-1.98-.9.158-1.9.61-2.74 1.303-.38-1.597.4-2.824 1-4.113l-.07-.387c-2.05-1.207-4.04-2.658-5.25-4.938.22-1.675 1.52-3.122 2.96-4.04l1.83-1.064c.38-2.047.83-4.11 2.43-5.63h.46c.23 1.52 1.3 3.045 2.9 3.653a2.59 2.59 0 0 0 2.57-1.448c.16-.684.32-1.667-.07-2.275-1.06-1.606-2.9-2.357-4.8-2.062 0-1.22 1.22-1.75 1.98-2.508 1.44-.99 3.2-.92 4.87-.69.38-.538.92-1.21 1-1.977 1.07-1.754 2.52-3.804 4.26-5.248 1.37-1.752 2.83.225 3.96.984z"/><path d="M126.92 19.86c2.36 2.06 3.9 4.493 5.04 7.08 1.36-.382 2.58-1.214 4.03-.685.53.078 1.22.15 1.6.685-.52.303-1.3.527-1.97.836-1.3.766-2.9 2.055-3.06 3.73.24 1.52 1 2.89 2.3 3.65.84.612 2.05.612 3.05.38 2.12-.608 3.2-2.817 4.33-4.408.53.148.76.832.92 1.293 0 1.366-.46 2.585-1.3 3.502.3.755 1.37.682 1.82 1.367 1 .913 2.13 1.98 2.6 3.35-.7 2.665-3.74 3.726-5.94 4.8.68 1.075 1.45 2.206 1.52 3.36l-.15.143c-1.68-.375-3.27.15-4.64.76-1.83 1.52-2.75 3.657-2.75 5.788.15 2.207 1.6 4.103 3.74 4.87 1.52.68 3.26.228 5.02.228 2.82-.604 5.93-1.904 6.93-5.018.44-1.677 0-3.27-1-4.567l-1.36-.917c.76-.918 2.13-1.285 3.34-.99.4.155.76.236 1.14.3.62-.763.45-1.83.92-2.593.45-1.06.83-2.283 1.6-3.193h.3c1 1.672 1.6 3.657 1.83 5.63.45.453.84-.306 1.37 0 .6.155 1.37.232 1.52.99-2.2.3-3.73 2.747-4.26 4.717-.38 2.21.6 4.036 2.27 5.25 3.05 2.058 7.55 1.757 10.6-.225 1.98-1.373 3.65-3.354 3.42-5.935-.38-1.835-1.67-3.963-3.73-4.266l-2.65.074c.22-.452.52-1.137 1.13-1.288.15-.534.9-.534 1.14-1.068-1.6-1.374-3.04-3.193-3.95-5.255.22-1.057 1.75-1.215 2.58-1.823l3.12-.763c.16-.69-.37-1.365-.22-2.205.3-.534.38-1.22.9-1.675 1 .603 2.28 1.14 3.5 1 1.14-.154 2.3-.76 2.8-1.83.92-1.214.62-2.654 0-3.877-.6-1.14-1.74-1.525-2.8-1.98.53-.604 1.45-.685 2.3-.527.68 0 1.28 1.06 1.9.372 1.14-2.128 2.97-4.256 5.02-5.71l.3-.074c1.5 1.757 2.2 3.963 2.13 6.32 1.44.538 3.5.69 4.34 2.36-1 .305-2.6.15-3.5 1.064-.52.913-1.14 1.757-.9 2.968.3.917.9 1.68 1.82 2.287 1.45.913 2.97.074 4.27-.84-.16-.156.15-.226.22-.38.55.224.3 1.137.24 1.598l-.84.84c1.75 1.215 4.2 2.964 4.7 5.317-1.36 1.84-3.42 2.743-5.24 3.73.75.925 1.68 1.525 1.6 2.818l-.23.835c-1.3-.608-3.66-.685-4.87.24-2.06 1.36-2.97 3.954-2.75 6.164.16 2.28 2.6 4.183 4.65 4.86 3.35.92 7.38.387 9.74-2.12 1.9-1.83 3.12-4.49 2.2-7.077-.22-1.072-1.06-1.986-2.06-2.52-.14-.76.93-1.138 1.46-1.366.9-.458 1.98.607 2.52-.3.75-1.362 1.44-2.732 2.88-3.804.46-.077.85.534 1 .843 1.37 1.83 1.14 4.33.92 6.4.9.228 1.97.228 2.5 1 .08.608-.83.31-1.14.534-1.9.53-3.35 2.283-3.43 4.183-.15 1.823.76 4.1 2.44 5.26.76.6 1.67 1.06 2.36 1.59 1.74.375 3.34 1.37 5.47 1.215 1.07.534 2-.225 3.13-.225 1.98-.538 3.8-1.822 4.72-3.73.37-1.6.3-3.425-.62-4.79-1.2-1.528-2.9-2.364-4.56-2.816-.4-.08-.84.22-1.06-.225.38-1.296 1.75-1.912 2.88-2.446.23-.298-.23-.6-.45-.685-1.68-.45-3.2-1.672-4.2-3.12.08-.987 1.07-1.29 1.67-1.896a19.11 19.11 0 0 1 4.73-1.831c.53-1.296 1.14-3.045 2.73-3.273.15.762.47 1.524 1.15 2.06.83.522 2.13.835 3.12.375.53-.457 1.2-.375 1.6-1.06l-.15-.152c1.15-.158 1.07-1.45 1.3-2.286.3-1.672-1.07-2.666-2.14-3.653l-.76-.233.54-.53c1.82-.303 3.35.46 4.8 1.14 1.6-1.672 2.66-3.878 4.87-5.104.83-.294.75.766 1.05 1.145.92 1.602.32 3.657.54 5.483.54.15 1-.62 1.6-.62.6.08 1.36-.07 1.5.62-1.74 2.133-3.73 4.412-4.18 7.236-.84 2.427-.3 5.248-.92 7.833-.45 5.402-6.16 7.15-8.67 11.415-.92 1.142-1 2.66-1.22 4.037-1.15 1.21-2.67 2.356-3.5 3.804.3.534.6 1.137 1.2 1.44.77 1.15 2.97 1.99 2.36 3.58-1.22-.453-2.74-.15-3.88-.828-5.78-.84-11.72-2.136-17.5-2.9-5.48-.994-10.58-1.52-16.14-2.283l-.22-.155-14.32-1.52c-2.96-.074-5.7-.303-8.6-.686-5.25-.38-9.28-.38-14.46-.68-1.3-.318-2.97 0-4.33-.233-5.94-.38-11.58 0-17.74-.305-.7.155-1.67.22-2.36 0-3.72.305-7.7.078-11.57.155-1.75.305-3.58.065-5.4.227-1.45.233-3.1-.162-4.5.306-5.1.078-9.9.376-14.768.836-2.36.077-4.8.453-7.004.53-.983.233-2.352.233-3.428.384-5.248.762-10.96.91-16.284 1.903-2.508.156-4.868.763-7.384 1.06-5.255.766-10.494 1.6-15.672 2.596-6.4.984-12.56 2.504-18.962 3.727-.3-.46 0-1.146.155-1.603l3.576-3.88-.062-.302-3.583-3.584c-1-3.498-4.42-5.86-7.392-7.53-3.196-2.056-4.18-5.786-4.42-9.13.163-.917.24-2.132.387-3.2.69-2.128.155-4.41.38-6.47-.294-1.146-.38-2.438-1.067-3.425-.527-.91-1.293-1.818-2.052-2.585.232-.534.99-.46 1.448-.758.38-.155.68.448 1.068.07-.078-1.827.31-3.507 1.44-4.795 2.368.84 3.5 3.2 4.798 4.95 1.37-.685 2.895-1.98 4.567-1.14-.836.762-2.283 1.284-2.74 2.51-.302 1.22-.99 2.968 0 4.265.836 1.67 2.74 2.202 4.41 2.046 2.06-.15 3.886-1.594 4.644-3.498.077-.534.3-.994.387-1.44 1.525.53 2.05 2.207 2.353 3.727 2.67.53 5.557 1.21 7.16 3.58-.457 1.75-2.06 3.57-3.962 3.804h-1.82c-.077 1.06 1.363 1.52 1.595 2.51.225.686.758 1.293.457 2.132-2.214 0-4.343.535-5.86 2.43-1.672 1.91-1.98 4.72-.99 7.007 1.904 3.573 6.47 3.8 10.123 3.197 3.127-.69 6.16-2.593 7.54-5.635.526-2.05 0-4.194-1.525-5.552-.836-.913-1.99-1.15-3.05-1.606 0-.526.61-1.142 1.223-1.367 1-.228 2.43-.463 3.35.225.448-.074.147-.688.147-.91.077-.758-.38-1.374-.225-2.13.078-.986.38-2.136.983-3.045 1.3.608 1.826 1.974 2.585 3.12.3.91.62 1.907 1 2.818.456 0 .456-.612.913-.837.463-.46 1.137-.684 1.818-.383.388-.077.612.383.844.608-1.37.758-2.29 2.356-2.507 3.88-.38 2.59.982 4.798 3.04 6.087 2.663 1.83 6.393 1.366 9.2.232 2.36-.832 4.334-3.12 4.643-5.638.233-1.288-.077-2.58-.836-3.572-1.524-2.202-4.116-1.977-6.4-1.9-.224-.84.69-1.37 1.3-1.75.224-.086.456-.24.526-.392-.906-.684-2.2-.684-3.266-1.215-1.68-.9-3.274-2.205-4.188-4.032 0-1.06 1.068-1.52 1.673-2.2.905-.758 2.05-1.06 3.196-1.218l.155-.3c-.233-.766-1.068-1.52-.535-2.36 1.44.763 3.576 1.896 5.1.457 1.215-.99 1.524-2.44 1.138-3.886-1.06-1.598-2.508-2.357-4.11-2.968-.07-.607.612-1.137 1.138-1.447 1.146-.37 2.67-.37 3.584.46l.225-.15c.766-2.818 1.67-5.785 3.652-7.995 1.517.607 2.37 2.287 3.36 3.51l1.284 2.276c.62.08.62-.91 1.068-1.215.68-.767 1.672-1.447 2.74-.987 0 .073.3.22.224.453-2.05.608-3.413 2.588-3.575 4.798.077.91.843 1.668 1.602 2.283 1.602.608 3.12-.077 4.257-1.223 1.68.914 2.522 2.67 2.522 4.567 1.13.154 2.508-.535 3.57.077.998.457 2.058.84 2.515 1.83-.155 2.055-1.75 3.726-3.653 4.41l-1.98.692c.68.605 1.524 1.13 1.903 2.125l-.147.232c-2.592.678-5.333 2.965-5.866 5.704-.457.23.077.685-.224.992-.535 2.282.603 4.105 2.205 5.47 2.662 2.36 7.15 1.91 10.053.237 1.82-1.293 3.723-2.89 3.87-5.33.378-1.752-.527-3.196-1.518-4.34-.457-.457-1.067-.678-1.594-1.138.527-.917 1.896-.686 2.81-.612.457-1.602.68-3.34 1.835-4.717 1.37 1.216 1.82 3.266 2.2 4.872 1.22-.31 3.12-.607 4.18.306-1.5 1.664-3.42 3.73-2.66 6.165.23 1.903 1.67 3.424 3.2 4.485 3.96 1.446 9.3.998 12.4-1.974.23-.682 1-.99 1.23-1.68 1.13-2.05 1.2-4.183.07-6.237-1.3-1.982-3.35-3.576-6-3.27-.4 0-.7.302-1.08.074-.22-.46.47-.994.7-1.524.24-.38.77-.306.84-.755-.53-.686-1.67-.538-2.44-.995-1.44-.836-3.1-1.904-3.88-3.498.38-2.205 2.9-3.204 4.73-3.73 0-.534-.08-1.293 0-1.9.2-.62.2-1.3.68-1.83.54.15.9.994 1.37 1.447 1.45 1 3.65 1.98 5.33.685.98-.763 1.9-1.754 1.9-3.127 0-2.58-2.5-4.257-4.42-5.174 1.22-.91 3.13-.76 4.42 0 .85-.608.77-1.896 1.36-2.81.93-1.754 2.06-3.503 3.74-4.8h.37z" class="B"/><path d="M127.92 31.05c1.36 5.32-.54 10.804.38 16.214h.23c2.06-3.432 5.03-7.1 9.2-7.616.7-.3 1.14 0 1.75.16.15.445-.38.68-.68 1.052-4.2.317-8.15 3.657-9.67 7.46-.54 1.525-1.3 3.12-.9 4.8-.16.457-.7.383-1.07.302-.54-.608.22-1.06 0-1.826-.24-3.2-2.3-6.24-5.26-7.837-2.2-1.223-4.8-1.524-6.92-2.898.08-.298-.38-.523-.07-.832 1.74 0 3.58.7 5.25 1.374 2.58.983 4.78 2.964 6.55 5.174.14-.914.3-1.75-.1-2.67-.15-2.2.4-4.558.4-6.996.07-2.36 0-5.252.07-7.232.6.232.6.913.84 1.373zm53.74 2.434c-.16 5.407-1.6 10.274-2.36 15.672l.07.082c2.2-2.128 4.64-4.412 7.53-5.023.84.302 1.68-.608 2.37.15-1.07 1.598-3.36.84-4.8 1.822l-2.12 1.525c-.77.08-.7.995-1.38 1.37-.46.457-1.07 1-1.3 1.68-.84.832-1.68 2.124-1.37 3.196-.38.913.3 2.512-.77 2.887-1.74-.228-.15-1.974-.38-3.042.77-1.977-.6-3.42-1.14-5.015-1.3-2.213-3.5-3.738-5.55-5.182-.3.074-.54-.15-.7-.46.6-1 1.75-.15 2.44.158 2.36 1.598 4.26 3.805 5.4 6.386.6-.372.46-1.448.7-2.13.22-1.447.68-2.66.6-4.257.46-.53.15-1.45.3-2.055.08-.997.3-1.903.46-2.897.38-1.827 1.06-3.577 1.6-5.325.3-.155.15.302.38.456zM73.422 38.128c.6 3.348 1.602 6.466 1.98 9.895.302.534.155 1.296.534 1.822.68-.607.604-1.525 1.137-2.132 1.525-2.964 4.42-5.178 7.462-6.087.386.383.147.9 0 1.37-1.216 1.22-2.965 1.146-4.187 2.2-3.275 3.114-4.188 7.607-3.808 12.02.162.314-.294.7-.604.766a1.14 1.14 0 0 1-.766-.689c0-2.205-.68-4.636-2.353-6.3-2.36-3.042-6.168-3.727-9.597-4.486-.758-.235-.836-.997-.913-1.602.6-.154 1.223.453 1.827.605 3.962 0 7.46 1.602 9.898 4.566.302-.383.232-1.142.077-1.598-.38-5.02-2.515-9.284-1.9-14.005.232-.15.465.16.62.305.37 1.065.68 2.2.604 3.352zM16.343 42c3.034 2.894 1.672 7.612 1.74 11.34.387 1.373.922 2.817 2.137 3.73 1.672-2.67 3.04-6.16 6.238-7.457 1.447-.465 3.196-1.064 4.72-.383.232.232-.077.607-.224.836-.612.762-1.75.383-2.585.762-2.972.76-5.558 3.425-6.548 6.242-.7 1.447.836 2.055 1.362 3.046 1 1.52 2.136 3.114 2.136 4.95-.387.22-.766-.077-1.223.073l-.3-.073c-.535-4.42-6.014-6.1-6.927-10.352-.527-3.583.604-7.387-.836-10.58 0-.763-.612-1.53.077-2.133h.232zm221.857.912c-3.27 3.727-1.52 8.6-3.65 12.782-1.52 3.73-5.78 5.642-7.7 9.2.08.607-.68.607-1 1-.83-.612-.07-1.672 0-2.357.47-1.594 2.36-2.52 3.13-3.966.7-3.193-.77-6.606-3.74-8.444-.53-.608-.98-1.293-.98-2.055.15-.294.08-.7.37-.84 2.06 2.36 4.95 4.346 5.56 7.612.38.847 0 1.757.3 2.67.76-.073 1.06-.986 1.6-1.447 2.9-3.73 1.6-9.055 3.8-13.095.6-.526 1.3-1.525 2.28-1.06z"/><path d="M136.44 54.338c-.15.16-.53.228-.53-.077 0-.38.22-.76.3-1.064.16.224.47.762.23 1.14zm-17.72.836l-.08.305c-.3.15-.4-.146-.54-.305l.4-1.293c.37.233.37.914.23 1.293zm51.75-1.06c0 .224.15.533-.16.607-.3-.224-.07-.607.16-.607zm-22.3 2.276c-.15.082-.3-.07-.37-.224l.98-1.22c.08.533-.22 1.064-.6 1.443zm-64.76-.303c.387.53.766 1.138.836 1.753l-.75.612c-.612-.766-.922-1.834-.535-2.894l.225-.156c.224.156.224.453.224.685zm55.03.84c-.17.453-.17 1.064-.7 1.22-.76-.232-1.53-1-1.53-1.826.23-.3.54-.465.92-.616.45.232.92.84 1.3 1.223zm31.35-.607c-.16.298-.3.758-.68.835-.24.07-.3-.15-.46-.3.22-.302.3-.76.76-.9.15.074.45.15.38.384zm16.37 1.366l-.54.378c-.3-.525-.08-1.137 0-1.675.16.383.76.766.54 1.297zm-80.98-.53a.58.58 0 0 1-.39.531c-.3-.306-.76-.84-.45-1.215.37.073.45.456.84.684zm52.2 0l-.08.147c-.15-.224-.4-.6-.3-.83.3.073.23.456.4.684zm-39.5-.15c-.15.298-.46.682-.84.836-.23.074-.45-.154-.52-.38.14-.306.45-.7.83-1a.88.88 0 0 1 .53.533zm29 .536c.07.375-.3.375-.46.607-.46.38-.77-.155-1-.46.07-.53.6-.608 1-.682.3 0 .37.298.46.535zm-52.524 1.287c-.224-.077-.378-.228-.456-.375.302-.538.682-1 1.215-1.297.302.685-.456 1.22-.76 1.672zm47.044.306c-.7.15-1.45.073-1.82-.383.15-.45.07-1.138.53-1.37l1.2.306.08 1.447zm2.88-.913c.23.762-.45.762-.9.986-.68 0-.22-.832-.38-1.215.23-.228 1.36-.53 1.3.23zm23.3.38c-.23.15-.45.383-.76.306-.15-.233-.53-.53-.23-.84.46-.525 1.68-.073 1 .535z" class="B"/><path d="M153.18 58.982c.62.6.08 1.52-.14 2.21-.38.527-1 .603-1.6.763-.6-.08-1.15-.3-1.6-.69-.6-.534-.46-1.293-.3-2.06.23-.607.83-.986 1.44-1.215.83 0 1.83.073 2.2.99z"/><path d="M107.06 58.75c-.15.232-.15.534-.46.61-.37-.155-.83-.155-.98-.61.07-.225.22-.604.45-.686.53-.073.7.388 1 .686z" class="B"/><path d="M100.83 59.435c0 .537.3 1.374-.23 1.91-.46.527-1.065.755-1.754.836-.69-.155-1.602-.616-1.904-1.373-.225-.763.155-1.3.38-1.904.465-.38 1.068-.685 1.68-.84.767.156 1.52.608 1.83 1.37z"/><path d="M159.5 58.452c-.16.22.07.754-.4.754-.3-.073-.6-.15-.76-.456-.15-.76 1-.9 1.15-.298zm-43.68.298c-.23.383-.62.534-.98.6l-.4-.534c.22-.527 1.22-.987 1.37-.077z" class="B"/><path d="M129.9 60.81c.7.91 2.13 1.292 2.06 2.58l-4.58 4.338-.53-.224-4.18-4.265.23-.533 4.33-4.253c1.07.603 1.6 1.672 2.67 2.357z"/><path d="M165.37 59.133c.15.607-.7.375-.92.677-.53.085-.45-.45-.45-.755 0-.456.45-.305.68-.53.38-.073.62.302.7.608zm23.06.375c.15.538-.3.84-.46 1.223-.76.225-1.2-.685-1.6-1.15 0-.45.53-.6.7-.983.53.15.9.534 1.37.9zm-26.03-.526v.913c-.53 0-1.45.376-1.6-.313.08-.298-.15-.755.23-.983.38.228 1.05-.147 1.37.383zm-76.038.6c-.147.464 0 1.15-.534 1.374-.526-.147-1.068-.38-1.37-.9-.147-.6.534-.762.844-1.22.448 0 .836.457 1.06.755zm111.888-.45c-.38.375-.7 1-1.23.84l-.15-.162c.15-.526.85-.526 1.15-.983.08.078.23.155.23.306zm-105.418.302c.07.836-1 .836-1.517 1.14-.3-.228-.542-.604-.464-.994.7.08 1.37-1.282 1.98-.147zm16.968 0v.762c-.52.15-1.22.074-1.74-.225-.08-.3.07-.6.3-.917.46.15 1.07.15 1.44.38zm3.6.147c.07.766-.92.464-1.38.7-.22-.074-.6 0-.6-.3-.15-.6.3-.6.6-.766.46.078 1.22-.3 1.38.376zm38.8.4c-.15.3-.4.76-.76.76-.38.078-.7-.383-.76-.685 0-.306.07-.84.53-.84.38.078 1.07.155 1 .766zm-52.5 0c.225.604-.24.837-.62.984-.448 0-.603-.38-.836-.685-.077-.46.233-.763.612-.836s.7.305.843.537zM89.5 59.8c-.078.538.604 1.536-.387 1.536-.534-.08-1.216.22-1.594-.318-.155-.525.147-.982.378-1.365l1.603.147z" class="B"/><path d="M180.44 64.914c0 .762-.92.925-1.38 1.366l-3.95 2.744c-1.6-1.52-2.66-3.58-4.03-5.325.9-.836 1.97-1.745 3.04-2.353l2.43-1.683.4.077 3.5 5.174z"/><path d="M191.25 60.653c-.3.375.14 1.22-.6 1.22-.38-.384-1.3.08-1.14-.763.14-.3.22-.685.53-.913.37.15.9.074 1.22.456zm4.5.077c.07.38-.24.534-.54.615-.46 0-.14-.537-.46-.693.08-.456 1-.607 1 .078zM45.1 61.2c-.233.225-.38-.235-.38-.382l.07-.384c.077.228.3.453.3.766zm22.228-.614c-.077.38-.077.77-.464 1-.147 0-.38-.077-.302-.22.078-.236.534-.843.766-.77zm126.262.69c.15.608-.53.3-.84.53h-.3c.08-.378-.15-.985.16-1.218.45 0 1.13.077.98.7z" class="B"/><path d="M129.75 63.165c-.6.84-1.45 1.52-2.28 2.28-.85-.37-1.6-1.13-2.13-1.973l-.4-.16.1-.45 2.2-2.132c.93.685 1.9 1.37 2.52 2.434z" class="C"/><path d="M207.92 61.794c-.47.08-.4-.448-.47-.766v-.22c.3.22.76.607.47.985zm-152.988.608c-.155.233-.464.078-.464-.073l-.534-1.22c.464.236.913.763.998 1.292z" class="B"/><path d="M74.8 62.1l4.713 3.804c-1.146 1.822-2.44 3.424-3.878 5.023h-.69l-4.49-3.498a1.24 1.24 0 0 1-.154-.914l3.877-4.562.62.147z"/><path d="M176.94 62.863c.22.836 1.75 1.595 1 2.357-1 .3-1.6 1.296-2.52 1.374-.6-.84-1.37-1.598-1.82-2.67l.23-.375c1-.16 2.28-2.895 3.12-.685z" class="C"/><path d="M65.435 62.553c-.147.685-.99.76-1.456 1.146-.526.15-.448-.387-.68-.61.232-.608 1.145-.535 1.68-.987.457-.228.3.3.457.452z" class="B"/><path d="M140.94 62.705c.37.313.15.92.15 1.3-2.2.15-4.57.23-6.7-.08-.54-.375.07-.835-.08-1.218l.38-.152 6.25.152z"/><path d="M45.42 63.088c-.162.383 0 1-.542 1.226-.3-.16-.603-.3-.827-.615.3-.387.38-.913.68-1.146.217.152.7.152.7.535zm12.778.835c-.612.3-1.292.08-1.826-.224-.38-.228-.232-.762-.148-1.064.682.453 2.284.07 1.974 1.288z" class="B"/><path d="M116.58 63.165c.07 1.75-2.13.6-2.9 1.068l-3.8.08c-.38-.236-.38-.843-.22-1.226 1.82-.608 3.65-.07 5.48-.453.53 0 1.37-.155 1.44.53zm31.82.913c.07.836-.08 1.827-.92 2.202l-1.14.4c-.77-.23-1.44-.464-1.83-1.297-.37-.46.08-1.06.08-1.598.38-.758 1.2-1.223 2.2-1.07.7.232 1.37.607 1.6 1.373z"/><path d="M210.05 63.165c.07.147.07.383-.15.534-.4.15-.7-.228-1-.387v-.607c.53-.225.7.46 1.15.46z" class="B"/><path d="M105.08 63.312c.38.538 1.15 1.22.6 1.98-.15.763-.76.987-1.2 1.378-.84.224-1.67-.077-2.28-.615-.47-.612-.47-1.598-.17-2.206.32-.612.93-.832 1.54-1.064.52 0 1.06.232 1.5.526zm98.05 1.002c.14.832-.1 1.525-.7 2.128-.54.38-1.23.678-1.9.38-.6-.228-1.14-.766-1.45-1.378-.23-1.056.3-1.896 1.14-2.28.53-.302 1.15-.228 1.76-.077.37.224.9.688 1.15 1.226z"/><path d="M61.774 63.312c.154.692-.07 1.002-.68 1.076-.534-.074-1.293.298-1.447-.3 0-.38-.155-1 .464-.913.603.224 1.37-.53 1.664.147z" class="B"/><path d="M157.3 64.314c.45.526.16 1.362-.15 1.893-.38.615-1.06.762-1.75.913-.46-.15-1-.15-1.37-.604-.38-.61-.7-1.223-.54-1.985.38-.68 1-1.293 1.76-1.366.9-.147 1.66.46 2.05 1.15z"/><path d="M221.08 63.312c-.15.313-.3.766-.68.92-.7-.457.46-.685.68-.92zM30.878 65.22l-.534.38c-.38-.603-.612-1.366-.38-2.2.603.46 1.068 1.07.913 1.83z" class="B"/><path d="M96.485 64.233c.457.607.38 1.443.155 2.047-.464.615-1.068.994-1.75 1.15-.535-.233-1.154-.3-1.532-.685-.604-.608-.458-1.146-.458-1.986.156-.604.836-.983 1.3-1.288.913-.082 1.75 0 2.283.762zm70.715-.155c.38.3.15.836.15 1.142-.83.38-2.12.154-3.1.154l-3.58-.3c-.3-.233-.3-.685-.23-1.07.07-.228.38-.154.53-.305 2.2-.074 4.27.224 6.24.38zM51.883 65.293c.232.546 0 1.223-.232 1.753-.38.68-1.138.762-1.826.995-.76-.078-1.518-.538-1.827-1.296-.38-.7 0-1.452.3-2.06.38-.453.983-.682 1.518-.763.92 0 1.6.608 2.058 1.37zm37.444-.68c0 .302.084.68-.225.832l-6.1.542c-.6 0-.38-.612-.6-1.072.3-.836 1.447-.155 1.98-.6 1.215.074 2.437-.236 3.575-.4.457.08 1.533-.224 1.37.7z"/><path d="M147.18 64.612c-.08.384-.3.762-.76.762-.46.07-.7-.3-.77-.688.15-.298.15-.763.62-.763.52-.147.83.3.9.7zm65.68-.082c0 .615-.53.542-.9.383-.22-.228-.6-.302-.6-.68.3-.534 1.13-.078 1.5.298zm-108.3.156c-.07.387-.3.913-.75.758-.4.077-.77-.15-.7-.53 0-.302.08-.76.47-.836.52-.074.76.3.98.608z" class="B"/><path d="M75.558 64.686c.526.534 1.292.835 1.75 1.52-.155.615-1.06 1-1.06 1.447a5.23 5.23 0 0 1-1.076 1.149c-1.06-.54-1.904-1.3-2.74-2.058.387-.992 1.455-1.75 2.06-2.667.534-.155.68.534 1.068.608z" class="C"/><path d="M201.83 64.612c.15.46-.16.9-.62.987-.46-.078-1-.306-.83-.84 0-.3.3-.445.53-.604.38 0 .7.16.92.457zm-45.6.302c.07.46-.3.685-.6.84-.37.152-.76-.077-.84-.38-.15-.534.16-.986.62-1.06.38-.08.6.372.83.6zm62.57 0c.08.46-.45.306-.76.53-.24.077-.46-.15-.6-.37 0-.542.84-.387 1.22-.615l.15.456zm-123.15.232c0 .453-.232.84-.6 1-.38.143-.76-.15-.836-.46-.07-.383 0-.762.38-1 .3 0 .913 0 1.067.46z" class="B"/><path d="M116.65 65.073c.08.37.08.766-.14 1.064-2.36-.08-4.34.457-6.7.143-.22-.375-.14-.76 0-1.134 1.52-.615 3.8-.073 5.48-.46.54 0 1.15-.074 1.37.387zm24.35-.16c.15.306.22.84-.07 1.142-2.06.08-4.57.224-6.63-.15-.23-.23-.15-.76 0-1.065l.15-.154c2.22 0 4.57-.155 6.55.228z"/><path d="M43.888 65.444c.077.46-.38.542-.603.836-.612 0-.457-.68-.837-.836-.155-.37.155-.604.457-.758.38.154.836.387.983.758zm172.162.076c-.53 0-1.28.318-1.52-.228 0-.147-.14-.38.16-.534.38.314 1.6-.228 1.36.762zm-165.305.385c-.085.302-.3.7-.7.84-.534.077-.766-.465-.913-.76.077-.3.224-.612.534-.693.45-.073.914.08 1.068.612z" class="B"/><path d="M189.87 66.516c.4.306.16.84 0 1.138-2.43.154-4.56-.38-6.7-.983.15-.39-.23-1.072.37-1.227 2.14.232 4.27.612 6.32 1.072z"/><path d="M33.24 66.442c-.3.453-.147 1.672-1.146 1.138-.456-.225-.828-.685-.456-1.138l.533-.766c.45.077 1.07.23 1.07.766zm8.52.528c-.147.534-.76.534-1.215.685-.233-.457-.612-.9-.612-1.517.38-.298 1.37-.917 1.525.143l.302.7z" class="B"/><path d="M166.12 66.056c.4.15 1.07-.07 1.07.538l-.07.836c-2.2.297-4.57-.075-6.7-.384.07-.375-.3-1.207.23-1.293 1.82-.154 3.65.233 5.47.303zm-76.63 0c.07.46.147.913-.078 1.374-2.058.452-4.34.452-6.47.6-.54-.387-.154-.844-.154-1.296 1.524-.538 3.35-.465 5.1-.7h1.603z"/><path d="M39.175 67.882c-.534.38-.998.38-1.525.46-.302-.535-.372-1.146-.232-1.75 1.153-.84 1.68.452 1.757 1.288zm-3.12-.228c0 .534-.464.84-1 .7-.302-.155-.766-.155-.998-.535.3-.378-.07-1.214.62-1.366.604.303 1.82.152 1.37 1.212z" class="B"/><path d="M67.408 67.58c-.147.763-1.06.682-1.594.833l-3.808.6c-.7-.22-1.37.46-1.594-.53 0-.38-.078-.913.457-.913.526-.225 1.284 0 1.826-.383 1.138-.077 2.507-.228 3.653-.526.68-.155.913.45 1.06.9zm129.922.608c.08.762.22 1.75-.38 2.283-.6.457-1.52.53-2.28.3-1-.224-1.07-1.288-1.22-2.13.15-.833 1-1.444 1.67-1.672.92.077 1.9.305 2.2 1.22zm-7.7.38c0 .457.23 1.145-.3 1.37-2.28-.074-4.1-.913-6.3-1.06-.6-.3-.08-.762-.08-1.15.84-.453 1.67-.073 2.58.08 1.37-.08 2.6.76 4.1.76zm-132.967-.154c.465.6.698 1.3.542 2.058-.3.693-1 1.3-1.834 1.373-.604.152-1.068-.228-1.594-.464-.38-.608-.612-1.292-.457-2.05.232-.688.836-1.366 1.517-1.447.766-.155 1.293.232 1.826.53z"/><path d="M196.27 68.803c.08.3-.08.836-.46.91-.6.078-1.07-.15-1.14-.688 0-.383.45-.61.83-.836.4-.074.6.38.77.615z" class="B"/><path d="M206.46 69.33c.3.608.4 1.443.23 2.206-.37.762-1.2.913-1.97 1.068-.7-.074-1.37-.38-1.68-1.068-.6-.763-.08-1.447.16-2.13.45-.53 1-.684 1.52-.84.68-.074 1.2.383 1.74.762zm-138.897-.228c.07.537 0 1.295-.758 1.222-1.904.224-3.886.677-5.8.604a.94.94 0 0 1-.146-.991c.68-.835 1.748-.225 2.584-.608l2.663-.305c.38-.302 1.222-.457 1.447.078z"/><path d="M55.993 69.562c.077.526-.155 1.063-.612 1.063-.45.147-.68-.228-.913-.46-.07-.526.232-.68.533-.986.38 0 .767.065.992.383z" class="B"/><path d="M47.928 70.397c.456.604.604 1.297.456 1.974-.146.457-.386.92-.843 1.15-.457-.314-.294.3-.758.22-.99.306-1.75-.376-2.13-1.138-.224-.685-.155-1.525.294-2.132.922-.608 2.067-.76 2.98-.074z"/><path d="M205.7 70.548c-.2.306-.37.763-.75.832-.46-.07-.84-.38-.92-.832-.07-.383.3-.383.54-.533.6-.152.92.15 1.13.533z" class="B"/><path d="M216.97 70.548c1.3.38 2.8.38 3.8 1.146l-.3 1.06-4.72-.836c-.53-.607-1.97.15-1.9-1.064.38-1.6 2.05-.23 3.12-.306z"/><path d="M138.05 70.625c4.8.303 8.97.147 13.7.303 2.2-.074 4.26.452 6.47.383 3.36.305 7.1.305 10.65.607l.4.15c2.74.228 5.47.155 8 .685 3.35 0 6.4.767 9.6.913 13.62 1.6 27.7 3.73 41.17 6.475.3.37 1 0 1.36.297 1.46.232 2.9.608 4.27 1.142.38.53.6 1.068.45 1.675-.52 1.065-1.6 1.374-2.73 1.223-10.66-2.438-22.15-4.337-33.2-5.785l-15.6-1.904c-4.87-.534-9.82-1-14.62-1.288-3.03-.155-5.93-.47-8.98-.616-5.24-.305-10.65-.38-15.82-.6-7.7-.228-15.77-.147-23.53-.074-2.35.306-4.1 0-6.46.306-3.73-.08-7.4.147-10.96.38-.92.38-2.06.078-2.975.306-3.274.3-6.548.155-9.736.763-10.5.68-20.556 1.973-30.757 3.424-1.067.453-2.36.224-3.35.612l-2.128.224c-1.518.534-3.344.298-4.8.913-5.402.76-10.812 1.83-16.292 2.9-1.137.526-2.205.302-3.35.758-2.36.383-4.72.914-7.073 1.448-.612 0-1.3-.225-1.525-.76-.456-.383-.225-.987-.077-1.37.835-1.525 2.67-1.06 3.954-1.68 9.512-2.055 19.024-3.955 28.55-5.472 2.508-.236 4.937-.762 7.298-1.076 8.908-1.362 18.04-2.662 26.87-3.115 3.955-.53 7.918-.9 11.95-1.138 1.832.155 3.952-.383 5.782-.236 1.07-.216 2.36.155 3.34-.302 10.3-.378 19.73-.607 30.16-.453zm-90.888.99c.163.453-.147.755-.456.913-.45.074-.836-.08-.992-.533-.232-.534.3-.685.612-.918.38 0 .7.233.836.538z" class="B"/><path d="M232.12 73.52c-.6.986-1.53 1.67-2.36 2.434-.84-.763-1.67-1.224-2.37-2.214.08-.913 1.3-1.595 1.98-2.36 1.15.155 1.9 1.374 2.75 2.14z" class="C"/><path d="M39.78 72.224c-.078.38 0 .766-.302.983-2.2.158-4.187 1.3-6.385.92-.233-.387-.233-.7-.163-1.138 2.06-.693 4.35-.92 6.47-1.22l.38.453zm180.4 1.296c.14.3.14.754-.1 1.06-1.3.15-2.66-.155-3.88-.604l-2.67-.538c-.07-.38-.15-.9.16-1.215 1.97-.078 3.95.766 5.93.983l.55.314z"/><path d="M25.553 75.266c-.69.836-1.602 1.68-2.445 2.356l-.38-.074-1.98-2.046c.31-.995 1.454-1.76 2.3-2.597.836.616 1.973 1.37 2.515 2.36z" class="C"/><path d="M40.08 74.128c0 .526.23 1.138-.45 1.22l-6.02.91c-.07-.387-.518-.685-.302-1.223 1.455-.607 3.197-.68 4.722-1.056.688.07 1.6-.612 2.05.15z"/><path d="M134.62 76.256c3.04.453 6.54-.073 9.66.155l12.4.534c3.05 0 5.33.452 8.3.53 3.57.146 7.08.603 10.65.913 9.52.61 19.1 2.05 28.55 3.343 1.2.232 2.35.538 3.64.615 6.56 1.068 12.95 2.198 19.4 3.5l-.22.154.45.225c.16 2.82-.3 5.634.16 8.374l-.08.15c.23 4.647-.08 9.82.08 14.62l.15.38-.15 13.1.15.3c-.08 5.33.3 11.04-.15 16.3.68.14-.08.53.3.83v15.45c.3.15.16.4.08.7l.15 29.2c-.23.17.23.4.07.62.16 5.86-.14 11.2.16 16.97-.3 1.82.08 4.58-.38 6.47 0 4.34-.62 8.3-1.45 12.57-.3 2.35-1.07 4.7-1.68 6.84-.07-.16-.23.08-.3.08 0 .23.3.07.3.14.1.77-.52 1.53-.45 2.14-.23.46-.45 1-.45 1.45-.77 2.35-1.53 4.87-2.52 6.92-3.66-2.05-7.07-5.4-10.28-7.6-1.6-1.3-2.58-2.53-4.18-3.74-.15-.38-.75-.7-.9-1-.76-.83-2.13-2.05-3.35-3.12-.7-.6-.9-1.15-1.83-1.75-2.37-2.2-4.72-4.72-6.77-6.77v-.08c-.15 0-.54-.46-.4-.77-1.06-.45-1.44-1.06-2.36-1.96-1-1.3-2.12-2.3-3.2-3.36h.07c-.83-.75-1.67-2.05-2.88-3.1-.7-.77-1.22-1.54-1.68-2.3-.76-.08-.84-1-1.68-1.37-.6-.77-.6-1.3-1.6-1.98.07-.68-.84-.54-.76-1.14-.38-.3-1-.76-1.06-1.3-.7-.07-.4-.9-.92-.9-.38-.77-1.07-1.3-1.38-2-.3-.46-1-1-1.14-1.43l-1.52-2.07h.08c-1-.9-1.9-2.2-2.52-3.5-2.58-3.2-4.03-5.55-6.16-8.52l.16-.4c-.62-.15-.7-.52-.77-.68-1.67-2.2-3.42-5.17-4.8-7.38-.38-1-1.22-1.68-1.6-2.82-.76-.68-.9-2.05-1.67-2.74-.53-1.22-1.37-2.5-1.98-3.66-.68-1.5-1.6-2.96-2.2-4.7-1.14-1.83-1.45-2.82-2.36-4.72-1.9-4.1-3.88-8.3-5.56-13-.6-.4-.54-1.06-.75-1.52-1-1.9-1.3-4.1-2.22-5.86 0-.46-.7-1.22-.6-1.75-.68-1.45-.98-3.43-1.75-4.65-1.67-5.02-3.2-10.35-4.8-15.6-.15-1-.38-1.6-.53-2.58-.38-.3.07-.92-.38-1.07l-1.6-8.144c-.38-1.754-.45-3.12-.92-5.027l.23-.077c-.75-1.212-.52-2.8-.83-4.335-.7-3.81-1.07-7.766-1.68-11.87l.08-.992 1.74-.228c1.45-.073 2.9.228 4.35 0z" class="C"/><path d="M126.47 76.635c.08 9.822-1.37 18.192-2.97 27.405-.83 2.5-.83 5.4-1.9 7.9-1.52 5.56-2.88 10.96-5.17 16.2l-.4.15c-8.5.4-17.873-.08-26.17.3l-4.868-.08-.31-1.14c.162-9.06-.302-16.97-.225-26.25l-.147-22.607c2.895-.615 6.014-.758 9.048-.92 1.903 0 3.738-.38 5.71-.302l.38-.143c4.95.066 9.3-.766 14.24-.542 4.18-.533 8.2-.224 12.55-.297l.23.297z" class="D"/><path d="M82.175 79.146c.38 3.963-.077 7.992.31 11.648-.084 3.193 0 7.535-.084 10.726-.38.3.154.47 0 .84.31 7.3.23 14.46.31 22l-.155.15.233.14v5.5l.38.3c10.812.3 21.384-.46 31.974 0 .14.76-.38 1.83-.77 2.52-.53 1.83-1.6 3.58-2.14 5.4-1.88 4.42-3.94 9.2-5.93 13.08-.07.77-.37.93-.76 1.7l-.76.52c-5.176.08-10.5-.22-15.453.24a83.14 83.14 0 0 0-6.316 0l-.224.37c-.156 8.6.3 16.3.077 24.74l-.155.16.232.15-.154 12.02c-2.594 3.43-4.644 6.54-7.384 9.9-1.138 1.3-2.06 2.65-3.42 3.8 0 .62-.766.77-.92 1.23-2.8 2.9-5.17 6.17-8.22 9.35-.758.7-1.446 1.22-1.972 2.14l-1.835 1.67c-.147-4.42-.45-7.68-.147-11.63-.155-.93-.155-1.83-.085-2.83 0-2.28-.07-4.7.085-6.77 0 .07.077.07.147.07l.077-.07-.31-.15c-.07-2.74-.217-5.33-.07-8.22.07-3.43.07-7.08-.147-10.36 0-1.44.07-2.9.07-4.4-.224-3.33.147-6.92-.3-10.72-.077-1.83 0-2.9.163-4.73-.24-1.97.077-3.27-.3-5.18l-.45-.3-22.684.08c-.766.07-1.757.3-2.368.07-1.74 0-4.102.15-5.78-.15-.225-1.2.232-3.1-.225-4.48-.077-4.42.07-9.6 0-13.94-.077-1.52-.148-2.96-.077-4.56l.457-.3h29.533c.457-.3 1.37.23 1.517-.6-.078-3.43.077-6.47 0-9.97-.372-.6-.078-1.2-.147-1.9-.077-1.37.147-3.58 0-5.02.07-1 0-2.13 0-3.05.224-.68 0-1.52 0-2.5-.077-6.4.147-12.943.07-19.4-.294-1.756-.146-4.34-.07-6.25.68-.68 1.75-.45 2.74-.6 4.946-.92 11.037-1.757 16.44-2.365 1.672-.077 3.04-.533 4.87-.382l.154.382z" class="C"/><path d="M55.838 82.196c.232 4.098.085 8.598.155 12.476l.077 27.548v6.24l-.38.3H42.293c-.386.38-1-.3-1.377.23-.294-.38-.526.15-.835 0l-13.4-.07-.232-.23c-.224-3.65.232-7.62-.224-11.35.526-.6-.225-1.14 0-1.82.077-5.48.224-12.4-.078-17.9l.078-10.047c8.598-1.977 17.127-3.656 26.027-4.945l.3-.15c1.068 0 2.128-.534 3.266-.302zM230.6 86.604c-.15 11.578.16 21.996.16 33.716v18.34c.37.47-.16.9.22 1.38-.38 12.77.15 24.72.15 37.2l.08 21.62c.3.84.23 1.9.08 2.74.3 4.35-.3 7.7-.38 12.03-.23 2.28-.7 4.5-.92 6.78-.6 2.5-.76 4.55-1.5 7.07-6.1 27.02-24.44 51.7-49.4 65.6-13.16 7.46-27.47 12.04-43 13.4-1.9.24-3.95.24-5.93.48-4.27.22-7.9-.17-12.1-.38-1.22-.17-2.67-.3-4.03-.47-.68-.15-1.45-.15-2.05-.4-18.35-2.65-35.237-10.03-49.702-21.46-16.446-13.08-28.17-31.27-34.1-50.53-1.75-6.16-3.274-12.78-3.653-19.25l-.154-.4-.147-3.95c-.7-6.7-.086-12.86-.233-19.34l-.224-1.13-.147-45.28-.085-7.84c-.155-5.1 0-10.36-.078-15.68l-.155-.3c.233-10.5-.302-21.473.078-32.35.24-.163.534-.232.844-.163l.224.313c.077 4.8-.155 9.97.077 14.68l-.077 17.2.147.6c-.147 12.4.3 23.06.232 35.38-.232 11.05.38 21.23.077 31.9l.225.52-.078 19.4.233 1.45c.077 2.5.3 4.87.456 7.53l.155.3c1.293 12.5 5.48 24.28 11.2 35.18 6.765 12.77 16.973 24.58 29.07 33.4 1.826 1.23 3.73 2.9 5.712 3.8 1.75 1.3 3.652 2.14 5.4 3.34 5.558 3.05 11.34 5.5 17.274 7.54 9.297 2.9 19.337 5.18 29.387 5.18l1.14.22c1.9-.07 4.03.08 5.93-.22 3.5-.16 7-.16 10.27-.92 10.74-1.14 20.8-4.56 30.45-8.9 19.33-9.2 37.53-25.8 47.2-45.2 6-11.65 9.66-24.2 11.03-37.37.15-.84-.22-1.9.3-2.52l.08-3.5a135.23 135.23 0 0 0 0-11.03v-12.4a1.86 1.86 0 0 1-.15-1.45l-.23-36.76c0-2.9.15-6.3-.15-9.05v-14.4l-.16-.45.1-13.1-.16-.38c.07-5.78.07-12.478-.07-18.342V86.53c.3-.53.75-.15 1.13.074z" class="D"/><path d="M209.74 102.6c7.7 5.25 13 13.85 15.07 22.15.45 2.05.77 3.96.9 6.32.46 1.06 0 1.37.23 2.5-.08.84 0 1.9-.3 2.67 0 .7.22 1.52-.16 2.06.1.98-.38 2.2-.52 3.34-.84 4.34-2.52 7.92-4.73 11.72.08.23-.3.54-.46.76-8.52 13.18-23.6 19.95-39.72 17.43-9.28-1.6-18.5-6.85-24.2-14.46-2.44-3.1-4.65-6.84-5.72-10.73-.6-.76-.6-1.82-.98-2.8-.46-2.28-1.07-4.27-1.15-6.62.24-1.68-.53-2.97.08-4.96-.15-1.6.23-3.03.46-4.64.3-1.74 1-3.8 1.37-5.63l-.15-.22c.52-.46.75-1.3 1.06-2 2.74-6.46 7.68-13.16 14-17.2 5.7-4.253 12.87-6.16 20.02-6.845 9.52-.457 17.6 2.128 24.9 7.155z"/><path d="M200.38 99.77c10.12 3.58 18.8 12.94 21.77 23.22.53 2.13 1.22 4.03 1.37 6.24.46 2.8.3 5.93.07 8.74-.6 1.38-.3 3.13-.9 4.42-2.36 8.75-7.77 17.05-16 21.76-2.28 1.7-5.02 2.9-7.76 3.9-5.33 1.82-11.8 2.43-17.65 1.5-8.6-1.36-16.83-5.4-22.46-12.25-6.16-6.93-8.9-15.3-8.9-24.8.3-1.44.37-2.82.6-4.34 1.83-13.4 12.56-25.57 25.66-29.223 4.26-1.22 9.05-1.83 13.46-1.448 1.15-.15 2.06.46 3.2.384 2.6.456 5.18.986 7.54 1.896z" class="D"/><path d="M188.43 99.622c.46.618.6 1.528.23 2.208-.53.9-1.76 1.07-2.6.6-.6-.23-.76-.92-1.06-1.37.07-.9.6-1.83 1.52-2.133.75-.15 1.3.302 1.9.685z"/><path d="M187.74 100.54c.23.53-.3.83-.6 1.14-.54.15-.84-.38-1-.76.07-.46.38-.84.75-.92.3.24.7.24.84.54z" class="D"/><path d="M202.74 108.83a29.43 29.43 0 0 1 13.4 30.44c-1.53 8-6.93 15.6-14.1 19.64-3.88 2.12-8 3.73-12.7 3.96-1.44.38-3.12.14-4.72.22-1.07-.3-2.2-.37-3.34-.52-10.28-1.68-20.1-10.13-22.92-20.25-1.14-3.35-1.45-7.46-1.14-11.26.84-8.84 5.86-17.2 13.7-22.1 6.47-4.1 14.92-5.85 22.83-3.8 3.27.6 6.17 2.06 9 3.66z"/><path d="M189.04 106.47c.68 1.98 1.06 4.35 1.22 6.4-.16 2.6.07 5.86-.76 8.46-.53.22-1.07 0-1.53 0-1.2-.08-2.44 0-3.58.15L184 121c-.6-2.9-.6-6.25-.6-9.13l.98-5.1c.15-.3.46-.37.77-.37l3.88.07z" class="D"/><path d="M203.43 111.8c1.6 1.3 3.26 2.82 4.63 4.33l.15.38c-3.26 1.23-6.77 2.75-9.58 4.73-.15-.16-.38 0-.53.08v.37c-1.45.46-2.52 3.58-4.1 1.53.07 0 .15.07.15 0-.15-.16-.46 0-.7-.23-.45-.7-2.2-.54-1.68-1.6 0-1.6.7-2.5.47-4.2.45-3.42-.38-7.15-.6-10.35 4.26.68 8.3 2.6 11.8 4.95zm-21.77-1.3c-.54 3.73-.38 6.85.3 10.74v.84l-3.2 1.9c-1.44-1-2.8-2.05-4.33-3.12-2.9-1.75-5.7-2.97-8.76-4.1.38-1 1.67-1.9 2.44-2.82.45-.6 1.37-.76 1.6-1.37 3.64-2.9 7.76-4.95 12.32-5.63.15 1.14-.45 2.44-.37 3.57z" class="C"/><path d="M226.86 109.67c0 .15-.22.08-.3.08 0-.16.15-.08.3-.08zm-71.08.08c0 .15-.24.07-.3.15v-.15h.3zm3.27 6.92c.46.53.46 1.45.23 2.05-.3.46-.7.76-1.14 1-.84.15-1.37-.16-1.98-.54-.38-.62-.7-1.37-.3-2.13.23-.6.76-.84 1.3-1.06.76-.08 1.44.08 1.9.68zm58.38-.07c.53.6.76 1.6.3 2.3-.38.53-1 1-1.76 1-.75 0-1.28-.54-1.66-1.07-.24-.68-.08-1.6.38-2.2.76-.6 2.05-.68 2.74 0z"/><path d="M158.36 117.8c0 .53-.3.75-.75.9-.3-.08-.62-.22-.7-.53-.07-.53.08-1.14.7-1.14.45.07.68.3.75.76zm58.38 0c0 .46-.15 1-.77.9-.38-.08-.75-.38-.68-.83 0-.54.38-.54.76-.77.3.08.7.3.7.7zm-4.4 5.2c-.38 1.15-1.75 1.66-2.5 2.43-3.28 2.28-6.86 4.04-10.66 4.87-.68-1.52-1.2-3.1-2.36-4.4.07-.54.53-1.07 1.07-1.3 3.34-2.97 7.53-4.86 11.72-6.24 1.37 1.22 1.97 3.05 2.74 4.65zm-35.17 2.58a17.16 17.16 0 0 0-2.35 4.18c-.6.46-1.15-.08-1.76-.15-4.1-1.6-8.06-3.58-11.34-6.77.46-1.6 1.22-3.05 2.3-4.28 4.86 1.16 9.35 3.44 13.16 7.02z" class="D"/><path d="M197.64 121.47v-.08h.15z"/><path d="M196.87 129.3c.68 1.98 1.45 4.42.85 6.78-.77 3.88-4.2 7.46-8.08 8.3-4.4 1.06-8.52-.4-11.5-3.8-2.44-3.05-2.82-7.7-1.2-11.27 1.37-3.57 5.17-5.7 8.83-6.3 4.63-.08 9.14 1.9 11.1 6.3z" class="D"/><path d="M171.76 131.2c.6.47 1.52.4 2.14.84.14.92.22 2.44-.08 3.5-4.5 1.37-9.14 3.95-12.63 7l-.4-.22c-.53-1.9-1.14-4.03-1.36-6l.07-2.3c.23.08.15-.23.15-.23-.45-.07 0-.68-.22-.83-.23-1.37.45-2.44.22-3.43.6-.68.23-1.98.76-2.74.16-.6.07-1.2.46-1.6 3.2 2.36 7 4.72 10.88 6zm41.4-5.55c1.22 2.43 1.14 6.16 1.3 8.83l-.23.23c.54.45-.08 1.45.08 2.05-.08 1.68-.7 3.42-1.14 5.02-.62-.15-1.14-.6-1.7-.98-3.48-2.5-7.52-4.26-11.56-5.48-.38-.3 0-.53-.23-.92.4-.38 0-.84 0-1.13-.46-.92.84-.92 1.52-1.23a39.63 39.63 0 0 0 8.22-3.88c1.07-.68 2.36-1.67 3.36-2.5h.38z" class="C"/><path d="M227.4 126.1c.08.15-.06.07-.15.15v-.23s.15 0 .15.08zm-37.3 4.27c.4.6.9 1.14 1.22 1.9.38 1.52.3 3.35-.75 4.5-1 1.15-2.3 1.98-3.8 1.83-1.23 0-2.22-.54-3.13-1.22-1.2-1.3-1.97-3.12-1.28-4.94.52-1.6 2.2-3.05 3.87-3.28 1.52-.08 2.75.38 3.88 1.22z"/><path d="M189.5 132.65c.3.84.3 2.2-.46 2.97-.77 1-2.06 1.14-3.27.92a3.5 3.5 0 0 1-1.76-3.05c.16-.53.38-1.22.84-1.45.38-.53 1.06-.84 1.75-.98 1.22-.15 2.2.68 2.9 1.6z" class="C"/><path d="M226.18 137.22l-.3-.23c.08-.07.17-.3.38-.23l-.07.46z"/><path d="M212.17 144.15l.16.3c-.54 1.52-1.37 2.9-2.28 4.1l-.62.08c-4.56-1.37-9.2-3.05-12.63-6.63.07-.68.75-.9.92-1.6.76-.85.9-1.98 1.5-2.9 4.8 1 9.22 3.43 12.94 6.63zm-37.52-6.4c.53 1.68 1.53 2.97 2.43 4.42-3.57 3.5-7.98 5.63-12.48 7.07l-.53-.07c-1-1.22-1.75-2.67-2.28-4.18a30.4 30.4 0 0 1 12.56-7.4l.3.15z" class="D"/><path d="M195.5 143.7c2.9 2.74 6.85 4.5 10.43 6.16l2.37.68-.24.7c-4.03 4.34-9.52 8.22-15.68 9.06l-.3-.08c.3-.54.08-1.2.54-1.52-.46-1.3.22-1.98.07-3.2.3-1.3-.07-2.82.15-4.2.08-.6-.22-1.06-.22-1.75-.3-1.14-.16-2.45-.54-3.5.16-.3.16-.3.16-.54.9-.3 1.06-.98 2.13-1.13.3-.3.54-.84 1.13-.7zm-13.47 2.04c-.6 2.5-.6 4.64-.9 7.23-.15.08-.23.08-.38.16.7 0 .38 1.06.46 1.6.08.6-.23 1.22.16 1.75-.16 1.3.3 2.68.22 3.8-.53.14-.7-.23-1.14-.08-3.43-.9-6.32-2.05-9.22-4.1-1.97-1.38-3.88-2.75-5.4-4.73.92-.84 2.82-1.2 4.1-1.97 3.28-1.22 6.02-3.5 8.76-5.63 1.06.68 2.13 1.6 3.34 1.97z" class="C"/><path d="M190.03 146.5c.76 3.74 1.06 9.6-.23 13.7.07.4-.38.54-.53.77-1.83 0-3.66.3-5.26-.3-1.06-4.26-1.06-10.06.08-14.23 1.68-.38 3.27.53 4.8-.16.38.08 1.06-.45 1.14.23z" class="D"/><path d="M217.65 148.03c.47.6.47 1.52.4 2.2-.24.68-1 .9-1.6 1.13-.77-.07-1.67-.23-1.9-1.13-.38-.6-.14-1.37.16-1.9.76-1 2.05-.9 2.96-.3zm-58.6.3c.4.54.53 1.07.6 1.67-.3.77-.76 1.53-1.6 1.76-.68.15-1.3-.23-1.76-.7-.6-.6-.76-1.52-.3-2.2.16-.54.7-.7 1.15-.92.68-.15 1.3.16 1.9.38z"/><path d="M217.04 149.32c.16.46-.3.92-.68.92-.4.07-1-.4-.84-.77-.07-.46.38-.68.7-.83.38.07.76.3.83.68zm-58.68.46c0 .3-.15.75-.53.7-.37.06-.68-.1-.84-.47-.15-.45.16-1 .62-1 .53 0 .6.4.75.77zm-54.18 6.46c-5.334 10.5-11.503 20.7-18.197 30.67-.387.15-.387.77-.836.77-.302-7.68-.225-14.1-.302-21.55v-10.2l.225-.23 10.502-.07.155-.15 8.603.15-.15.6zm-47.808.23c-.148 9.3.387 19.72.232 29.38v17.58l.225.62-.07 18.03c-7.004 7.15-14.535 13.47-22.073 19.64-.844-.1-.844-1.3-1.3-1.98-1.82-4.57-3.274-9.36-4.257-14.17-1.068-5.1-1.75-10.5-1.98-15.67l-.232-.38.077-9.43c-.302-6.17 0-11.88-.077-18.12-.302-1.45-.07-3.12-.155-4.73.232-7-.218-13.85 0-20.7l.3-.3h23.365l.3-.23h5.093l.534.46z" class="D"/><path d="M138.66 161.2c.3.23.76.6 1.13.23l1.07.3c-.3 1.15-1.44 2.13-.7 3.35.6.7 1.06 2.05 2.22 1.53.76-.4 1.35-1 2.12-1.08 0-.07.23-.2.08-.3-.08-.16-.08-.3-.16-.54.6-.14 0-1.13.84-1.06.38.52.23 1.3.92 1.68l1.82-.08c-.07.54-.6.83-1 1.22-.23.08-.53-.08-.53.22h.08c-1.14.9-2.83 2.13-3.73 3.27-1.3.3-2.82-.46-4.18-.6-2.67-.6-5.1-.68-7.7-.9-.75 0-1.82.15-2.2-.37 0-.24-.37-.7-.22-1.07-.54-.77-.23-1-.46-2.06.38-.46-.7-.6-.6-1-.4-.16-.3-.76-.55-.98 1.15.44 2.14-1.15 2.75-1 0 1 .08 1.9 1.06 2.5.23-.07.54.3.47.46.7.4 1.44.92 2.2.4 1.37-.47 1.98-1.54 1.98-2.6-.3-.46-.08-1.45-.45-1.7.9-.6 1.75.62 2.5-.44.15-.3.38-.6.77-.6.15.3.3.83.46 1.2z" class="C"/><path d="M188.5 165.45c.47.6.47 1.53.16 2.2-.46.83-1.3.76-2.06.9-.7-.37-1.52-.76-1.6-1.75l.15-1.14c.83-1 2.43-1.13 3.34-.23z"/><path d="M187.74 166.45c-.08.37-.15 1.05-.76.9-.38.07-.6-.24-.76-.54-.07-.45.3-.76.62-.9.44-.14.6.46.9.54z" class="D"/><path d="M227.7 167.5c0 .08-.37.08-.23-.07.08.07.23 0 .23.07z"/><path d="M107.07 180c.12-.47.08-.96-.01-1.37-.23-.16-.3-.3-.15-.46-.15-.23.15-.3.15-.62.83-.53 1.68-1.52 1.6-2.28.4-.07.62.54.92.76.22.6-.15 1.07.15 1.76.53.38 1.14.53 1.22 1.13l-1.13 1.6-2.75-.5z" class="C"/><path d="M109.82 180.5l-.02.01c.3.53.46 1.07 1 1.53a2.7 2.7 0 0 1-.61 2.58c-2.3 1.45-2.12 4.7-1.6 7.24.4 1.2 1 2.58 2.3 2.97.45 1.67-1.37 3.1-2.58 4.1-.4 0-.6.3-.77.68 0 .23.3.47.54.4 2.2-.84 4.32-2.82 4.32-5.4.7.08.62 1.08 1.3 1.22h3.58c1.98-.45 3.73-2.36 5.93-1.75.54.1.6-.6 1-.76l2.97-.46c.38-.46.38-1.06.46-1.66.07-.62.07-1.53-.77-1.46-1.37-.07-2.5 0-3.42-1 .3-.83-.76-1.97.53-2.2.84-.3.98.52 1.52.76 1.6.3 2.82-.4 4.42 0-.84 1.3-3.2-.15-3.8 1.44 1.97.3 3.95.08 5.7-.38.62-.45 1.08-.9 1.3-1.6-.07-1.98-.54-3.8-2.2-5.03v-.15c1.36.23 2.06 1.75 2.6 2.9.15.15.45.15.53.38.3.68-.92 1.52.23 1.6 1.3-.6 1.52-1.83 1.67-3.12.08-1.07-.6-1.98-1.52-2.5-.3-.15-.76-.46-1.07-.15-.23.15-.23.37-.07.6.07.3.53.3.53.7-.6.08-1.06-.84-1.6-1.14-1.75-1-3.74-1.38-5.57-2.06-1.06.23-1.9-.2-2.8-.38-.3-.76-.83-1.97-.24-2.58.47.15 1.15.98 1.84.45.23-.38.38-.83.3-1.22-.3-.45-.77-.98-1.45-.98-.7-.23-1 .38-1.2.75-.3-.15-.54-.6-.3-.98.38-.6 1.15-.6 1.84-.85 1.13-.52 2.5-.37 3.34-1.44l.9-1.75c3.28-.23 5.86.46 8.75.76.23.14.68.14 1 .23 1.44.23 2.58.53 3.95.93 0 1.2 1.37 2.27.54 3.56-.47.54-1.3 1.23-1 1.97.62.4 1-.37 1.6-.37.47-.6 1.07-.68 1.83-.53.07.3-.07.76.07 1.13-.45 1-1.36 2.06-1.3 3.13.92.4 1.15-1.22 2.06-1.36.37.14.54-.24.92-.17-.08.7.45 1.68-.47 2.06 0 2.05-.68 4.87.7 6.55l-.08 1.36c-1.5.54-1.83-2.13-3.42-1.3-.53 1.52 1.3 2.6.37 4.12-.37.37-.52.98-.2 1.36.83 1.98 3.8 2.45 3.42 4.95.15.46.08 1.23 0 1.6-.92-1.3-2.06-2.67-3.66-3.35-.75-.6-.45-1.75-1.14-2.36-1.06.23-.45 1.67-.53 2.44.68 2.2 3.27 2.97 3.8 5.33.07.68.3 1.44-.15 1.98-.85-.4-1.3-1.15-1.68-1.9-.3-.54 0-1.75-.92-1.9-.76.6-1.37 1.75-1.14 3.04.6 1.37.6 3.12-.23 4.34-.22.16-.53.45-.76.4-1-1.6-.3-4.12-2.28-5.04-.38 0-.53.38-.53.7.38 1.52 1 2.74.46 4.35-1.07 1.2.14 2.88-.6 4.33-.15.98-1.07 1.82-1.9 2.13l-1.6.15c.16-.7.6-1.36.92-1.97l-.08-1.84c-.9-1.52-2.2-3.34-1.22-5.25.92-1.5 2.75-2.66 2.75-4.56 0-.16-.24-.23-.3-.3-1.22.3-1.6 1.6-2.3 2.36-3.43 3.8-4.63 8.52-7.84 12.4-.98 1.14-2.36 1.98-3.88 1.37-1.14-.92-1.05-2.52-1.6-3.65-1.44-.46-1.52 1.67-2.57 2.35-1.16.7-2.14 1.52-3.5 1.6-1.15-.08-2.06-.68-2.44-1.74.23-.62-.3-.92-.53-1.38 1.67-.83 3.2 1.68 4.94.4 1.07-.54 2.3-1.22 2.67-2.44.15-.47.15-.92.07-1.3-.3-.3-.52 0-.76.22-.44 1.2-1.67 2.43-3.12 2.5-1.6-.68-3.72-1.44-5.17.08-.54.53-1 1.37-1.74 1.37.07-.92.82-1.9 1.13-2.66-.16-.23-.6-.1-.83.07-1.4 1.52-2.98 2.75-4.95 3.2.52-2.28 1.6-4.35 2.27-6.54.92-1.37 1.7-3.5 3.58-3.67.3-.07.3-.37.17-.6-.4-.3-1-.37-1.53-.23l-.93.62c-3.2 3.73-4.02 9.73-9.268 11.56-3.963 1.9-8.986.9-12.26-1.67-.38-.3-.534-.92-.534-1.22 2.74.7 4.72 3.8 7.91 2.66 4.35-.38 7.543-3.72 9.363-7.53l2.6-5.56c-.68-.6-1.36.38-1.98.77-2.5 2.13-5.01 5.55-8.82 4.33-.232-.15-.535-.45-.388-.76 1.603 0 3.43-.23 4.877-1 1.37-1.07 2.97-2.52 2.43-4.5-.3-.38-.7-.68-.98-.15-.986 1.44-2.596 3.12-4.654 2.66-.527.08-1.06-.15-1.594-.37v-.23c.913-.3 1.826-.77 2.74-1.15.465-1.14 1.525-1.98 1.904-3.12-1.44-.53-2.283 1.6-3.808.92 1.3-.77 2.283-2 2.817-3.36-.077-.37-.147-.83-.534-1.06-1.145-.23-1.524 1.14-2.438 1.53-.3.3-.906.22-1.284.07.3-.46.224-.77.154-1.22l-.92-.6c.61-.76.766-2 1.826-2.2 1.068-.08 2.06.07 2.964.3 1.068-.46.844-1.6.913-2.66-.07-1.68.3-3.58-1.13-4.5.448-.23.68-.77.526-1.23-.054-.13-.17-.24-.302-.3-.217-.13-.503-.13-.69.01-.302.45-.534 1.14-.077 1.36-1.068-.3-1.827.62-2.662 1h.077c-.303.3-.604-.24-.76-.3-.387-.53.535-1.98-.766-2.3l.225-.15c-.147-.07-.147-.38-.372-.3v.07c0 .16-.155.1-.232.1l-.147-.1c.75-.68 2.584.1 3.04-1.37.38-.22.302-.37.69-.45.728.24 1.154 1.24 1.92 1.54.2.07.4.1.657.06 1 .07 1.685-.68 2.135-1.44.6-1.1 0-2.3-.38-3.13.45 0 .92-.46 1.06-.84l.38-.02c.12 2.02 1.53 2.15 2.6 2.46.7-.08 1.3-.3 1.9-.6a1.73 1.73 0 0 0 .47-.83l2.75.5z" class="B"/><path d="M101.73 179c.15-.3-.3-.68-.68-.68-.6-.08-.83.45-1.206.84l.296.15c-.226.37-.838-.07-1.294.22v-.08c-.612.16-.457 0-.983-.3l.224-.24c.07.08.38 0 .302-.07.078-.15.155-.22 0-.38.155-.53 1.75-1.07 1.455-1.9.07-.06.296-.06.296-.3-.373-.3-.226-.68-.296-1 .376-.07.526.24.756.6.3 1.36 1.97-.3 2.28.9-.07 1.15-.75 1.07-.73 2.38l-.42-.17zm-24.222 42.9c-.092-.35-.28-.68-.588-.95-.76-.62-3.034.22-2.887-.92.38.08.232-.3.38-.45.457-.85 2.206-.68 2.13-2.06v-.7c.38.08.92 0 1.223.3.224.46.38 1.14 1.06 1.3.7 0 1.215-.6 1.525.3.216.98-.674 1.84-.6 2.7l-2.252.46zm-5.078 5.5c-.76.76-.836 2.13-2.205 1.98-.604-.3-.767-.77-.906-1.3.14-.38-.163-.38.14-.76-.225-.84-.905-1.67-2.05-1.83l-.07-.15c.147-.45.983-.68 1.293-.76.7-.23 1.06.6 1.826.3.604-.6.836-1.22 1.827-1.3.07.43.75.8.503 1.16l-.356 2.65zm67.9 51.46c-.4-.3-.7-.4-1.15-.3-.37.45-.3.97-.83 1.06-.38-.16-.45.15-.77-.1-.22-.3.08-.75.08-.97.08-.1.15-1.16.7-1.37.3-.4.08-.92-.23-1.23-.6-.38-1.44-.68-1.68-.6l.24-.08-.08-.08c.22-.3.83-.38 1.3-.15.36.15.9.46 1.28.08.6-.54.4-1.83 1.68-1.7.53.33-.16 1.15.08 1.7.15 1.14 1.45 1.44 2.43 1.75l-3.04 1.98zm1.2 5.17c-.45.4-.84.6-.84 1.3.46.9.08 1.74-.14 2.58-.54.16-1.3-.23-1.98-.45-.6.3-1.45.52-2.2.83-.3-.22 0-.83.3-1.13.6-.53 1.58-.7 1.3-1.7-.4-.3-.54-.37-.76-.84 1.22-.52 2.65-.68 3.73-1.75l.6 1.15z" class="C"/><path d="M145.5 288.75l.3-.23c.16-1 .62-3.05-.76-3.9-.83-.68-2.28-.83-3.5-.6l-.6-1.15c.07-.83.9-1.28.45-2.2-.38-.55-1.14-1.07-1.06-1.83l3.04-1.98c.7-.08 1.83.3 2.43-.3.62-.6 1.22-1.2 1.22-2.13.77-.38 1.53-.77 1.38-1.75-.08-3.35-2.13-5.86-2.83-8.98-.3-.24-.6.08-.9.23-.24-.76.9-1.98-.4-2.14-.75.68-.3 2.3-1.75 2.52l-4.27.98c.85-2.28 3.73-2.28 4.9-4.4 1.13-2.52 1.13-5.94-.84-8 .9-1.46 3.04-1.08 3.5-2.9 1-1.6.47-3.58.62-5.25-.3-.54-.15-1.38-.85-1.67-1.36-.24-.9 1.44-1.67 1.9-.07.53-.68.68-1 .98-.38-.14-.3.38-.68.16-.77-4.65-2.2-9.2-5.8-12.64-3.2-2.2-7.6-2.73-9.36-6.84-.76-.6-1.67-.4-2.36.07-1.52 1.37-2.28 3.35-3.96 4.65-.83-.47-1.14-2.3-2.5-1.7-1.67 1.54-1.74 3.75-2.58 5.56-.24.77-.76 1.52-1.52 1.83-.24-.76.3-1.44.45-2.13.68-1.22 1.83-3.04.68-4.5-.52-.46-1.3-.9-1.82-.23-1.67 1.6-2.06 3.8-3.5 5.56-.3-.15-.6-.54-.76-.9-.53-1.3.92-2.97-.68-3.8-1.98.08-1.98 2.37-2.74 3.65-.23.77-.7 1.37-1.22 1.98-.37.07-.3-.3-.3-.53-.15-1.22 2-2.73-.06-3.5-1.76 1-4.266 1.53-4.955 3.73-.457.92-.603 1.9-1.362 2.68-.233-1-.472-2.44.224-3.36 0-.22.147-.83-.3-.83-1.835.6-2.29 2.9-4.273 3.1-.68-1.06.3-2.35 0-3.5-.612-.83-2.283.3-2.507-.9-.233-.23-.534-.23-.76-.08-1 1.83-1.68 4.12-3.583 5.18-.612.6-.68-.7-1.292-.3l-.07-.08c.68-1 1.292-2.2 1.447-3.35-.766-.07-1.447-.6-2.136-.3-.232-.6-.302-1.3-.69-1.92-1.826-1.66-4.635-1.74-6.85-.97-.533.3-1.06.6-1 1.2l-1.904-2.43c-.147-1.14-.526-2.66-1.75-3.12l.356-2.65c-.008.02-.03.03-.046.05.836.7 1.215.85 2.353.76.92-.45 1.756-1.06 2.3-1.97.178-.6.248-1.18.124-1.7l2.252-.46c.024.36.233.72.743 1.1 1.672 1.14 3.723 2.05 5.86 1.82 2.05-.84 4.264-.98 6.54-.98 4.42-.7 8.38-2.44 12.79-3.06 2.06-.75 3.8-2.05 5.4-3.72.52.3.9 1 1.44 1.3 1.15.23 2.22 1.22 3.5.54 1.38-.3 2.6-1.22 3.52-2.36.6.3.6 1.14.98 1.67.84 1.15 1.98 1.53 3.36 1.53 1.52 0 2.73-.92 3.73-2.14.6-2.96 3.4-4.8 4.1-7.6.24-.3.4-.6.7-.83.6 1.2 1.9 2.57 1.07 4.1-.16.84-1.52 1.68-.53 2.37.6.23 1.36.3 1.98.6 1.13-.23 2.05-.46 3.04-.98 1.14 2.43 4.1 2.96 5.93 5 6.47 5.48 10.8 13.17 13.77 20.86 1.77.53 3.66.08 5.18-.6 1.68-.84 3.05-2.28 3.2-4.1-.6-7.92-4.64-14.7-8.83-21.16-2.6-4.96-3.73-10.73-4.04-16.07-.9-4.8 1.38-8.75.16-13.24-.16-1.22-.6-2.66-1-3.96 1.14-.23 2.36 2.44 3.05.6.14-1.97 1-4.1.38-6.24-.16-1.74-1-2.97-1.37-4.57 1.3.4 1.82 1.83 2.36 2.97 1.14 2.96 1.82 6.47.98 9.82.08.9-.3 1.98.4 2.6 1.3.36 1.67-1.9 3.05-1.84-1.98 3.88-3.58 7.23-2.98 12.1-.23.84.15 1.83 0 2.74.08 2.75 1 5.18 2.13 7.46.38.16.77.3 1.14 0 1.3-1.75 1.07-4.1 2.36-5.85.3-.77.92-1.53 1.76-1.83.3.6.07 1.6-.23 2.43-.92 2.05-2.22 4.1-1.9 6.47-.38 2.74-.3 6.16 2.36 7.84.3.07.6.38.92.15 1.2-1.14.45-2.9 1.44-4.12.92-1.6 2.52-2.88 2.74-4.7.23-.47.84-.84 1.23-1.15-.7 2.97-2.3 5.63-2.98 8.6-.76 2.52-.3 5.87-.38 8.4.38.9.76 1.9 1.68 2.43.3.07.75 0 .68-.46.23-1.44.07-2.6.76-3.88 1.14-1.76 3.12-2.44 4.4-4.04l.08.08c-.7 2.8-3.43 4.8-3.65 7.84-.38 1.75-.46 3.65-.08 5.33.08.46.6.6 1 .54 1-.24 1.6-1.3 2.3-2.06 1.3-1.3 3.2-1.52 4.4-2.9.46 2.36-2.43 3.28-3.73 4.72-2.2 1.74-2.28 4.87-4.72 6.47-.53.46-1.06 1.07-.76 1.83.53 1 1.6.84 2.44 1 4.4-1.3 7.08-6.55 11.57-7.7 1.82-.3 2.97 1.14 3.73 2.43.38 1.45-.54 2.3-1.23 3.2-.22.16-.52.3-.76.3-.06-.4 0-.6.16-1.14.53-.76 1.52-1.37 1.07-2.44-.4-.6-1.07-1-1.76-1.14-2.9.3-4.8 3.73-7.3 5.17-2.05 1.52-4.25 3.27-7 3.35-1.83.16-2.06 2.13-2.52 3.5-1.14-.16-1.98-3.6-3.2-1.44-.16 1.58-.7 2.96-1 4.4-.6-.3-.77-1-1.07-1.53-.46-.84-.84-2-1.9-2.12-.76 0-1.37-.3-2.06-.24-.83.16-1.75.54-2.05 1.37.07 2.82 1.75 5.03 1.3 8.06-.53 1.9-.9 3.9-1.37 5.87.15.7.38 1.37.84 1.9 1.44 1.36 3.03.16 4.64-.15 1.6-.7 2.82-2.05 3.88-3.35 2.44-1.15 4.27 1.6 7 .37.6-.2 1.13-.75 1.82-.75l.23 1.14c.6 0 1 .6 1.68.3 0 1.52-1.83 1.83-2.9 2.28-1.44-.38-2.9-1.14-4.5-.6-.68.08-1.3.23-1.97.3-.77 1.14-1.9 1.14-2.75 2.22-.08.45.46.37.7.53.9.14 1.75.45 2.82.37 0 .76-.46 1.6-.85 2.3-.83 1.3-2.43.9-3.26 2.13.07.3.45.46.76.38 1.9-.08 2.8-2.5 4.72-2.37 1-.14 2.13.24 2.9-.37 0 1.3-1.45 1.98-2.44 2.5-.15.77.76.53 1.14 1-1.3 1.36-3.27-.23-4.94.6-.54.23-1.53.07-1.53 1-.08.6.6.38.92.6 1.52-.23 2.73 1 4.18 1.3.16.3.6.76.38 1.07-1.52-.92-3.12-.38-4.87-.7-.6.07-1 .7-1.3 1.15.38 1.52 2.36 1.75 2.43 3.5.23.67.16 1.52.08 2.13-.6.3-1.3-.38-1.52.38l-.15.77c-1 .06-1.53-1-1.9-1.6-.45-1.14-1.3-2.66-2.66-2.66-1.07 1.14.3 2.2.3 3.34.85 1.22 2.37 2.3 1.84 3.9-1.37-.47-2.13-2.13-2.97-3.27-.23-.16-.68-.23-.84.06-.9 1.15-.76 2.9-1.6 3.96-.07-1.14-.45-2.42-1.6-2.97-.82-.45-1.82-.6-2.88-.52-.16-.62.07-1.37-.23-1.9 0-.46-.15-1.06-.7-1.36-.83.3-1.06 1.3-1.2 2.04-.3 1.75-.84 3.5-1.07 5.26-.46.68-.46 1.68-1.38 2.05-.9.23-2.2 0-2.66 1l-1.3-.68z" class="B"/><path d="M146.8 289.43c-.22 1 1.22 1.3 1 2.45-1.22.37-2.36.37-3.12 1.36-.24.08-.53-.16-.7-.16-.45-.83 1.22-1.75 0-2.2-.3.1-.7-.3-.76-.37.52-1 1.75-.7 2.28-1.75l1.3.68zm-70.716-56.47c-.224.6.457 1.07 0 1.6-1 .45-1.284.38-2.275.08-.7.15-1.224.84-1.6 1.06l.085.15c.147.53-.302.53-.612.84-.3-.15.078-.53-.232-.84.3-.15-.077-.15 0-.3.457-.38 0-.6.3-1.07h.078c0-1-.922-1.67.232-2.27 1.06.07 1.826-.84 2.12-1.68l1.904 2.43z" class="C"/><path d="M134.3 173.37c.23.22.15.6.08.9-.54.76-1.75 0-2.14 1-1.36.08-.36-1.98-1.9-1.98-.14-.07-.14-.24-.14-.38 1.36-1.13 2.74.3 4.1.46z"/><path d="M117.57 176.64c-.23 1.68.23 3.28 1.5 4.26 2.52.6 4.66 2.14 7.1 2.98 1.82-.08 3.66 0 4.95 1.13-2.13 1.22-4.27-.6-6.54-.68-2.83-.6-7.1-.9-7.62-4.65-.45-1.6.07-2.97.15-4.4.46.3 0 1 .46 1.37z" class="C"/><path d="M125.1 180.15c-.07.22-.3.37-.52.53a.73.73 0 0 1-.54-.68l.08-.4c.3.23 1.14-.08.98.54zm2.74.3c0 .46-.37.6-.76.7-.46.15-.84-.08-1.13-.38.08-.38-.16-.83.22-1 .54.3 1.3.08 1.67.68z" class="B"/><path d="M108.82 180.22c-.16.3-.53.53-.93.46-.45.07-.2-.46-.2-.68.3-.32.9-.16 1.14.22zm28.76 2.88c0 2.13-.45 4.2-2.35 5.32h-.46c1.3-1.52 1.83-3.57 1.67-5.7-.38-.76-.6-1.68-1.3-2.3-.07-.22.08-.37.23-.44 1.3.37 2.05 1.74 2.2 3.1z"/><path d="M129.6 181.13v.15c-.45.23-.53-.38-.84-.53.24-.15.92-.07.84.38z" class="B"/><path d="M156.62 188.97c-.23 2.9.37 5.48-.7 8.07a.65.65 0 0 1-.46.45c-.22-.45 0-1.13.15-1.67.08-2.28.08-4.63-.45-6.78-.08-.38.08-.83.3-1.2.83-.22.83.76 1.15 1.14zm-49.72-.6c0 .38-.38.6-.68.77-.4 0-.9.14-1.06-.3.22-.6.98-.3 1.2-1 .38-.15.53.23.53.53zm-4.1 4.04c-.54 1-1.3 2.37-2.6 2.45-.306-.68.53-1.08.9-1.6 1.53-1.6.47-3.42 1.3-5.25 1.07 1 .6 3.12.4 4.4zm31.74-3.8c0 .54-.76.75-1.3.92-.23 0-.38-.1-.53-.17.3-.75 1.2-.68 1.82-.75zm3.96 1.9c1.3 1.97 1 4.8.16 6.85-.16.14-.3.38-.54.3-.7-1 .38-1.83.08-2.97.38-.23.23-.7.23-1-.23-1.06-.77-1.9-.92-2.97.3-.15 0-.83.54-.76l.45.54zm-31.74 0c.23.45-.3.76-.53.98-.4 0-.9-.08-.9-.53.22-.38.9-.7 1.44-.45zm.68 2.35c-.14.6-.75.7-1.2.84l-.7-.07c0-.77.76-.6 1.15-1.15.37 0 .6.08.75.38zm29 3.65c-.6 1.97-1.3 4.03-3.12 5.47-.15-2.28 2.2-3.64 2.13-5.93.38-.84 1.15-.16 1 .46z"/><path d="M108.66 196.2c-.08.9-1.06.84-1.6 1.15-.23-.4-.07-.6-.15-1 .23-.3.53-.38.77-.54.38 0 .83.07.98.38zm24.66.76c-.68 2.66-3.42 4.95-6.1 5.33-.07 0-.15.23-.3.23.24.38 1.07.3 1.46.07.6-.38 1.3-.6 1.9-.83-.3 2.66-2.28 5.02-4.63 6.4-.23 0-.46.23-.7.08.32-1.67 2.6-1.98 2.68-3.8-2.2-.7-4.35.46-6.17 1.37-.23-.07-.92.07-.84-.53 2.06-.68 2.37-3.28 4.57-3.73 2.36-.76 5.26-1 6.54-3.58l1.23-1.75c.3.08.22.45.37.76zm-3.72-.36c-.76 1.28-1.82 2.5-2.8 3.5-.38.38-1 .38-1.44.22-.16-.07-.3-.4-.08-.53 1.52-.76 2.36-2.9 4.1-3.42l.22.23zm-4.88.6c-.3 1.3-2.05 1.36-2.5 2.66-.4.16-1.08.24-1.22-.07.37-1.23 1.9-1.53 2.35-2.67.3-.3 1.23-.46 1.37.08zm-10.72-.16c0 .54-.23 1.2-.76 1.5-.3 0-.7-.14-.6-.45.16-.6.84-1.14 1.37-1.06zm6.23.76c-.6 1.6-2.28 2.74-3.72 3.43-.4 0-.7.08-.84-.3.22-.83 1.13-.68 1.6-1.37.83-.6 1.45-2.36 2.9-1.97l.07.22zm-9.83 3.88c-.68.84-1.83 1.44-2.97 1.15-.23-.16-.53-.1-.53-.38.9-.6 2.2-.85 3.27-1l.23.22zm9.45 2.37c-2.28 3.03-6.54 2.12-9.13 4.7-.3.53-.84 1.06-1.44 1.06 0-.23 0-.6.15-.9 2.05-2.2 4.72-3.36 7.6-3.97.92-.68 2.13-1 2.6-2.12.6.07.3.9.23 1.22zm40.65 9.58l.23-.08c.08-1.3-.14-2.8.85-3.65.3 2.2.38 4.34-.24 6.32-.9-.3-1.22-1.44-1.9-2.2-.93-1.52-1.53-3.13-2.22-4.8l.4-.53c1.67 1.3 1.9 3.34 2.88 4.94zm-41.93-4.1c-.32.7-1.38.46-1.92 1.06-.07-.14-.3 0-.45-.07-.17-.6.23-1 .7-1.3.52-.23 1.44-.3 1.68.3zm13.9 1.06v.08l-.15-.22.15-.08c.07.08 0 .15 0 .22zm-8.98.84c.24.6.16 1.75 1.08 1.98 1.37-.3 1.66-1.9 2.72-2.52.62 1.08-.14 2.2-.83 3.05-.76.77-2.05 1.3-3.12.85-1.22-.54-.84-1.9-1.05-2.9.2-.45.07-1.36.75-1.36l.45.9zm44.45 5.78c-.38 2.8-.53 5.48-1.37 8.14h-.22c-.7-1.6-1.6-3.27-1.76-5.17.16-.4.7-.4.77 0 .53.45.45 1.07.83 1.6.84-1.3.16-3.5 1.45-4.64l.3.08zm30.45 2.07c0 .14-.15.14-.23.14 0-.14.15-.14.23-.14zm-119.267 2.66c-.38.22-.766.15-1.068-.08-.077-.3.233-.7.534-.84.457.24.914.3.534.92zm39.587-.6c-.08 1.22 1.6 2.9 0 3.8-1.45-.9-3.52-.37-4.88.23-2.05.9-2.13 3.95-4.4 4.4-.08-1.22.83-2.28 1.6-3.34 1.5-.68 1.82-2.2 1.9-3.58l.6-.53c.46.3.46 1 .54 1.52 1.36-.08.6-2.06 1.82-2.44.54.46.76 1.22.76 2 1.37-.17.54-1.9 1.75-2.37l.32.3zm-14.62 2.06c.24.14.1.37.1.6-.47.53-1.37 0-1.98.38-1.75 1.07-4.198 2.06-6.172 1.07 1.363-.62 3.042-.76 4.422-1.52 1.14-.23 2.43-1.83 3.64-.53zm30.2 1.37c-1.14 1.67-2.8 2.73-4.64 3.27-.08-.1-.16-.15-.3-.24.53-1.67 2.42-1.6 3.5-2.82l1.52-1.44c.3.23.15.84-.08 1.23zm1.15 1c-.22 1.74-2.13 1.97-3.2 2.95-.14 0-.46.23-.53-.07.53-1.68 2.3-2.13 3.43-3.12.15-.07.3.16.3.24zm-61.27 1.14c0 .3-.294.6-.526.45-.387.08-.465-.16-.465-.4-.07-.6.92-.52 1-.06zm132.9-.08c0 .08-.07.08-.07.14l-.15-.22c.08 0 .15 0 .22.08zm-.07.22c.07.23-.38.23-.54.23-.14.16.4-.23.54-.23zm-70.87.38c-.37 1.06-1.13 1.75-2.05 2.27-.3 0-.52 0-.68-.2.45-.55.6-1.3 1.37-1.54.08-.45.53-.52.92-.68.14 0 .37-.08.44.16zm-54.5.84c.154.3.154.92-.224 1.15-1.224.6-2.206-.7-3.43-.6-.155-.25-.224-.7.155-.92 1.215-.93 2.206.45 3.498.37zm8.607.3c-.077.38.225 1.08-.232 1.22-.604 0-.836-.6-.758-1.07 0-.67.836-.6 1-.15zm2.128.26c0 .37.155.68-.3.9-.457.08-.76-.38-.844-.76-.07-.3.232-.52.387-.68.38-.07.604.3.758.55zm-5.625.28a.78.78 0 0 1-.387.68c-.38-.22-.534-.76-.3-1.14.3-.75 1.154 0 .697.46zm1.593 0c-.155.22 0 .68-.457.68-.533-.08-.3-.76-.378-1.14.378-.7.758.07.835.46zm49.157-.23c-.3.77-1.14 1.6-1.98 1.76-.15 0-.38-.08-.45-.23.6-.62 1.36-2.3 2.43-1.53zm-61.718.3c-.224.3-.302 1.06-.913.83-.302-.08-.534-.52-.534-.76-.07-.23.077-.44.232-.54.527-.07 1.068-.07 1.215.47zm63.018.74c-.08.7-.7 1.23-1.3 1.53-.3 0-.7.07-.9-.07.38-.76.98-1.15 1.6-1.75a.51.51 0 0 1 .61.29zm31.3 2.07c0 1.37.22 3.13-.77 3.97-.22-1.07-.68-2.3-.37-3.36 0-.53-.16-1.14.15-1.52.45.08.68.7 1 .9zm-30.24-.22c0 .75-.68.9-1.13 1.36-.3 0-.6.32-.92.1-.3-.3.16-.62.24-1 .53-.3 1.37-1.6 1.8-.46zm1.08 1.68c-.24.6-.92 1.13-1.52 1.2l-.47-.46c.54-.38 1.67-2.2 2-.75zm.84 1.74c-.32.38-.84.9-1.3.46-.3-.24.08-.46.14-.7.32-.23 1.45-.6 1.16.23zm.92 1c0 .38-.46.67-.77.76-.3.15-.6-.16-.6-.38 0-.23.32-.53.54-.6.3 0 .68 0 .84.22zm24.95.9c.08.3 0 .77-.46.77-.38.07-.45-.3-.53-.54-.08-.3.23-.54.38-.68.3-.08.45.3.6.45zm-24.2.46c.22.53-.23.84-.6 1a.74.74 0 0 1-.85-.39c0-.37.4-.44.7-.6.3.08.53-.15.76 0zm23.13 1.53c-.15.14-.38.14-.6.14-.46-.23-.16-.68-.23-1 .37-.6 1.22.3.83.85z"/><path d="M96.106 263.57c-.844-.62-2.593.14-2.747-.86.154-.06.773-.44.92-.75 0-.45.457-.38.457-.76l-.38-1.23c.08 0 .147-.06.226-.15l-.08-.06c.08-.24.31.15.458.3-.07.1.23.54.534.54.766-.3 1.524-.68 2.368-.62.604.4.68 1 .76 1.6-.465.3.077 1-.3 1.44l-2.206.55z" class="C"/><path d="M97.545 274.9c.085-1.13 0-1.98-.905-2.67-.76-.68-1.75-1.13-2.74-.68l-.843-2.97c1.378.23 2.438-1 3.05-2.14.155-.9 1.06-2.2 0-2.87l2.206-.55c.456.92 1.455 1.68 2.518 1.9.07 1.07 1.13.46 1.74.6 1.14-1 1.6-2.5 3.05-3.12 2.36-1.3 5.56-.6 7.7-2.27.9-.92-.15-2.14-.53-3.13-.7-.9-1.46-2.2-.77-3.43.7-1.6 2.66-1.97 3.5-3.5-.24-.98-1-1.82-.54-2.97-.14-.45-.7-.68-1.14-.6-.38 1.22-1.53.4-2.05 1.37-1.3.3-2.9.38-4.04-.3-.45-.68-1.06-1-1-1.9.15-.45.38-.83.92-.83.14 0 .3 0 .38.15-.62.37-.17.9.07 1.3.53.53 1.3 0 1.9-.15 1.9-1.3 4.33-3.5 6.6-1.82.7.37 1.45-.7 1.75.45.54.4.92-.37 1.3-.6.76-1.6 2.36-2.43 3.87-2.9 1.7.37 3.73 0 5.34.53.6-.16 1.36-.37 1.98-.23.46 1 .23 2.22.83 3.2.53.46 1.07 1.07 1.76.98.37-.46-.4-.98-.4-1.6.08-1.06-.45-1.98-.98-2.8.22-.3.44-.77.84-.7h.14c-.3 1.67.84 3.04 2.06 3.88.3-.08.6.46.84 0-.3-1.3-1.53-1.97-1.37-3.35.07-.6-.6-1.5.46-1.6h.37c.08.9.08 2.28 1.07 2.9.38.3.84.76 1.38.46.3-.62-.47-1.3-.7-1.9-.08-.9-.15-1.75-.77-2.36l.38-.38c.7.52 1.44 1.07 2.13 1.9.9.84.84 1.98 1.3 3.05.23.98.37 2.2.53 3.42-.68 1.3-1.97 1.9-3.42 2.22-1.3.9-2.6 2.04-4.27 2.27-1.52 1.22-3.58 1.83-4.7 3.58 0-.84.22-1.9-.54-2.6-.76-.07-.68.6-.92 1-.6 2.66.24 5.17-1.2 7.53-.07.08-.15.54-.37.3-1.15-1.98-.08-4.55-.92-6.53-.53.45-.3 1.44-.68 2.05-.47 3.2-.47 6.62 0 9.75.22.52.6.9 1.06 1.2-2 1.75-3.27 4.26-2.74 6.84.07 1.23.24 2.98-.92 3.8-.9-.9-.98-2.12-.76-3.33 0-.6 1.07-1.45 0-1.76-.45.38-.9 1.07-1 1.67-.75 1.6-.67 3.66-2.36 4.73h-.52c-.3-2-.24-3.66.83-5.33.15-.3.76-.46.53-1-.15-.23-.46-.3-.76-.15-.9 1.98-2.2 3.8-2.82 5.86-.3.75-.76 1.67-1.5 2.05-.77-.9-.47-2.27-.08-3.27 0-.9 1.2-1.83.22-2.6-1.74-.38-1.9 1.52-3.04 2.36-.45.46-1.06 1-1.82.84-.54-1.37 1.98-2.52 0-3.5-.92-.3-1.53 1-2.37 1.38-.6-.3-1.3-.9-2.05-.6-.83.45-1.9.52-2.67.83-.9-.38-1.126.7-1.823.92l-1.602-2.3z" class="B"/><path d="M99.147 277.2c-.232.76-.3 1.37-.077 2.2-.224.23-.07.53-.37.53l-1.455-.75c-1.595.14-1.982 2.27-3.112 2.43-.62-.47.303-1.46.224-2.3h.08c.147-.68-.457-1.52.224-2.12l1.292.14c.913-.6 1.594-1.3 1.594-2.43l1.602 2.3zm-5.247-5.65c-.843.15-1.903.76-2.817.15-1.068-.22.147-1.45-.836-1.6-.92-.24-1.98.53-2.74-.1.448-.76 2.275-.3 2.205-1.36.225-.4.836-1.3 1.517-1.6 1.223-.23.914 1.3 1.827 1.52l.843 2.97z" class="C"/><path d="M144.06 239.58c.15.77-.32 1.37-.7 1.76a2.4 2.4 0 0 1-.46-1.9c.16-.46 1.15-.37 1.15.15zm21.54.38c0 .45-.47.4-.77.45-.3 0-.53-.14-.53-.45-.07-.45.38-.53.62-.68.3 0 .9.15.68.68zm-1.6.9c-.16.3-.38.76-.76.7-.23 0-.54-.3-.54-.53-.07-.3.3-.54.45-.84.47 0 .92.22.85.68zm-2.2.76c-.15.3-.15.93-.68.85-.3 0-.4-.38-.46-.7 0-.23.23-.45.46-.6.3 0 .6.16.68.45zm6.84.23c.15.62-.6.46-.9.3-.08-.23-.24-.75.15-1 .38.08.46.54.76.68zm-8.74.16c0 .3.07.68-.23.83-.45.1-.76-.3-.84-.68a.53.53 0 0 1 .3-.61c.32.07.77.07.77.46zm-2.07.38c.08.38 0 .7-.37.76-.47.15-.55-.38-.7-.6-.15-.77.98-.84 1.06-.16zm-9.67 0c.24.3 0 .6-.3.6-.4.23-.77-.07-1.16-.16-.37-.3-.07-.75.17-.9.52-.08.9.23 1.28.46zm18.74.45c0 .16-.15.4-.3.46-.22-.07-.46-.15-.6-.37 0-.16-.16-.54.14-.54.4-.16.62.16.77.45zm-41.42.77c.16.3-.14.53-.38.7-.3 0-.76-.1-.68-.46 0-.3-.16-.84.3-.76.38 0 .76.15.76.53zm2.75.08c0 .46-.54.62-.85.84-.46 0-1.14.07-1.06-.6-.08-.38.15-.46.4-.54.52.08 1.2-.07 1.52.3zm-4.33.52c0 .38-.4.46-.7.62-.4.07-.46-.3-.7-.53 0-.4.23-.62.4-.85.53-.15 1.14.16 1 .76zm24.87.08c0 .3-.15.53-.37.6-.46 0-.84-.07-1.14-.46-.08-.23.07-.37.3-.53.45.08 1-.07 1.2.4zm7.46 1.3c0 .3-.23.3-.45.53-.24 0-.53.08-.53-.23-.16-.38.15-.54.37-.62.24 0 .6 0 .6.32zm-37.07.9c0 .68-.76.76-1.2 1.14-.6-.38-1.44.68-1.6-.3.23-1.38 1.9-.54 2.5-1.6.46 0 .22.47.3.77zm30-.15v.55c-.54.14-1-.1-1.37-.4-.23-.23-.15-.68.22-.68a1.01 1.01 0 0 1 1.15.52zm-10.73.4c0 .37-.08.76-.46.9-.3 0-.46-.3-.46-.6.23-.23-.23-.83.3-.76.24.07.62.07.62.46zm18.2-.08c.15.3-.32.6-.53.7-.3-.08-.55.15-.7-.16-.23-.76.76-.76 1.22-.53zm-20.02 1.3c.08.3-.16.62-.54.54-.3.08-.37-.3-.45-.46-.23-.92 1.07-.84 1-.08zm12.47 0c.1.54-.52.77-.9 1-.3.07-.37-.3-.52-.54.15-.38.15-.83.6-1 .37 0 .67.16.82.53zm8 .45c-.3.54-.9.76-1.37.3-.16-.15-.3-.3-.23-.46.3-.38.83-.38 1.15-.23.15.15.37.23.45.38zm-22.37.17c0 .3-.23.68-.53.68-.23-.08-.6-.15-.53-.53-.07-.3.07-.6.38-.7.38-.08.53.23.68.54zm-5.95-.17c-.08.54-.6 1.07-.98 1.22-.23-.6.07-1.22.46-1.6.22 0 .44.15.52.38zm4.2.93c-.08.3.07.52-.23.68-.4.07-.7-.16-.83-.46-.17-.3.14-.53.36-.67.3-.08.7.07.7.45z"/><path d="M157.07 249.63c.15.6-.53.53-.84.7-.3.07-.45-.16-.6-.3 0-.3.08-.6.38-.68.4 0 .84-.08 1.07.3zm-25.72.7c-.15.15-.4.38-.62.22 0-.3-.46-.53-.22-.83.3-.7 1.2 0 .84.6zm-13.1 0c.4 1.2-1.06 1.6-1.22 2.6-.38.22-.38-.3-.52-.46-.48-1.07.68-1.75.98-2.6a.76.76 0 0 1 .76.47zm11.95.22c0 .3-.24.46-.46.54-.3.07-.3-.3-.53-.47 0-.67 1-.9 1-.07zm17.67.06c-.7.54.07 1.3-.7 1.84-1.07.23-.23 1.37-1.14 1.75-.47-.3-1.37 0-1.45-.76-.16-.83 1.06-.83.84-1.68.3-.68 1.52-.45 1.2-1.44.38-.38 1.15-.3 1.23.3zm-22.6.17c.22.9-.4 1.45-.92 1.98-.53-.14 0-.92-.45-1.14.23-.46.76-2.28 1.37-.84zm31.96.53c-.38.6-.92 1.14-1.68 1.22-.3 0-.76.08-.76-.3.3-.9 1.45-1 2.37-1.14l.07.23zm-38.97 2.98c0 1.82-2.05.97-3.1 1.6-.3-.23-.08-.7.14-.83.7-.47 1.75-.16 2.06-1.22.38-.24.9-.08.9.46zm38.75-.16c-.37.92-1.3 1.13-2.2 1.22-.3-.16-.84-.38-.45-.84.76-.45 1.67-.3 2.44-.76.22-.08.38.15.22.38zm-10.58 2.36c0 .3-.38.46-.62.46-.45.15-.83-.15-1.13-.3-.16-.22-.46-.53-.24-.9.77-.6 1.68 0 2 .76zm10.35-.38c-.15 1.14-1.52 1.2-2.36 1.68-.24.07-.47-.1-.54-.32.38-1.36 1.9-1.14 2.9-1.36zm-39.87 1.3c0 1.45-.54 2.75-1.46 3.8-.23 0-.45.23-.76.07-.07-.53.47-.9.6-1.45.6-.98-.08-2.5.84-3.2.4 0 .6.46.77.76z"/><path d="M156.4 258.84c-.92.68-1.76 1.75-2.9 1.3-.23-.23-.23-.62 0-.77.92-.4 1.98-.6 2.9-.83v.3zm.07 1.9c-.6.9-1.6 1.97-2.82 1.84a.77.77 0 0 1-.16-.7c.76-.84 2.05-.6 2.9-1.3l.08.15zm8.6 2.2c-.14 1.14-1.44 2.05-1.98 3.12.92.3 1.6-.54 2.6-.3-.3 1.07-1.37 1.68-2.43 1.83.6.46 1.75-.08 2.13.53-.38 1.14-1.45.84-2.3 1.07-.38 0-.53-.23-.83 0-.08.38.38.38.53.54.23 0 .53-.08.68.07-.3 1.14-1.9.22-1.98 1.6-.37.45-.76-.08-1.14-.16-.76.24-1.75.38-2.28 1.14.45.3 1 1 1.52 1.45-.07.38.16 1-.14 1.22-.85-1-2.37-.77-2.82-2.06-.08-.52 0-1.3.53-1.75 1.6-1.3 4.93-1.6 4.64-4.33-.9-.23-2.13 0-2.35-1.22l.07-.23c2.2.3 3.88-1.06 5.32-2.6l.23.08zm-49.78.38c.07.38-.22.68-.52.84-.3 0-.85.15-.7-.38.15-.32.15-.77.6-.77.3-.07.53.16.6.3zm-6 .67c-1.07 1.83-3.5 1.07-4.73 2.74-.68.62-.98 1.22-1.6 1.83l-.15-.08c.45-1.75 1.52-3.57 3.34-4.18 1 .6.68-.68 1.53-.6.6 0 1.22-.14 1.6.3zm4.25.93c-.22.15-.68.15-1 0-.16-.08 0-.3-.07-.46.3-.76 1.68-.38 1.06.46zm-1.36-.08c.06.54-.46.9-.85 1h-.53c-.07-.45.08-.84.24-1.22.37-.22 1.2-.45 1.14.23zm38.27.68c0 .47 0 1-.52.9-.38-.15-1-.44-.54-.98.16-.53 1-.6 1.06.07zm-51.594 0c0 .47-.224 1-.612 1.15-.3.07-.534-.16-.7-.45.24-.4.767-1.53 1.3-.7zm51.454 2.97c0 .38 0 .76-.45.84-.23-.08-.6-.22-.6-.53.07-.3.14-.62.45-.7s.38.23.6.38zm-50.23 3.12c0 .6.38 1.6-.303 2.05-.317.24-.697.4-1.145.47-.465-.92.828-1.83 0-2.82-.76-.98-1.982-.98-2.973-1.38 0-.45.7-.52 1.138-.52 1.447-.16 2.748.83 3.283 2.2zm50.37-.45c.08.3-.22.38-.37.53-.38-.08-.76-.38-.7-.76.16-.76 1-.46 1.06.23zm-.14 2.8c.15.6-.52.4-.9.46-.3 0-.46-.3-.53-.53.07-.3.07-.7.53-.7.4-.07.7.45.9.76zm-47.34-.3c-.08.77-1 1.23-1.52 1.46-.47 0-1 0-1.22-.47-.15-.75.68-.22 1.06-.6.45-.46 1.22-1.14 1.68-.4zm47.4 2.37c.07.45-.6.7-.83 1-.54.23-1.22.16-1.6-.07-.3-.16-.15-.55-.15-.77.6-.6 1.6-.23 2.43-.38l.15.23zm1.07 5.1c-.23.3-.23.92-.83.76-.24 0-.4-.22-.4-.45.15-.38.22-.83.68-.9.38-.08.38.4.54.6zm-.92 1.84c.1.22-.23.38-.38.46-.3 0-.76 0-.76-.4a.94.94 0 0 1 .4-.76c.37.08.6.3.75.7zm-.68 1.83c.16.23-.15.38-.4.3-.45-.08-1.2-.4-.83-1.07.45-.76 1.3.22 1.22.76zm-.92 1.43c0 .3-.3.54-.52.7-.3 0-.6-.15-.7-.45-.15-.4.23-.62.45-.76.4-.08.9.07.76.52zm-2.82 3.9c-.15.08-.3.53-.68.46-.23 0-.3-.15-.4-.38.16-.4 1-.7 1.07-.08z"/><path d="M98.133 184.58c.032-.05.11-.17.086-.22-.03-.1-.194-.2-.27-.24l-.294-.22c-.1-.08-.155-.17-.225-.27-.084-.1-.2-.15-.278-.24-.194-.18-.348-.36-.565-.5-.163-.13-.193-.15-.35-.08-.147.08-.263.1-.363.24-.18.2-.395.4-.565.62-.186.24-.287.4-.61.45l-.937.1c-.302.03-.65.07-.944.2-.147.06-.4.17-.193.3.13.1.433.13.425-.12.255.13.085.26.008.4.255.16.533.23.68.53.055.1.07.25.086.38.023.15 0 .27-.016.42-.023.33-.085.57.008.88.085.28.302.48.573.48.162.02.232 0 .34-.1a.54.54 0 0 1 .355-.2c.264-.06.473-.3.705-.4s.48-.33.727-.34c.147-.02.9.14.83-.1-.016-.06-.1-.1-.132-.13-.062-.07-.086-.13-.116-.22-.04-.14-.047-.33.03-.5.024-.05.086-.1.117-.14.054-.1.07-.17.14-.24.116-.14.302-.1.418-.2.147-.12.24-.4.332-.55z" class="C"/></svg>