<svg xmlns="http://www.w3.org/2000/svg" xmlns:xlink="http://www.w3.org/1999/xlink" width="1000" height="666.667" viewBox="0 0.003 1000 666.667" xmlns:v="https://vecta.io/nano"><style><![CDATA[.B{fill:#008f4c}.C{stroke:#000}.D{fill:none}.E{fill:#999}.F{stroke-width:.262}.G{stroke-linecap:round}.H{stroke-width:2}.I{stroke-width:.212}.J{stroke-width:.328}.K{stroke-width:.234}.L{fill:#eac102}.M{stroke-width:.374}.N{stroke-width:.21}.O{stroke-width:.224}.P{fill:#ed1c24}.Q{stroke-width:.187}.R{fill:#da121a}.S{fill:#e4d8cc}.T{stroke-width:.155}.U{stroke-miterlimit:4.0999999}.V{stroke:#010101}.W{stroke-width:.201}.X{stroke-width:.023}.Y{stroke-width:.181}.Z{fill:#fbea0e}.a{fill:#e3e4e5}.b{stroke-width:.242}.c{stroke-width:.329}.d{stroke-linejoin:round}.e{stroke-width:.355}.f{stroke-width:.253}.g{stroke-width:.246}.h{stroke-width:.255}]]></style><path fill="#fcdd09" d="M0 .003h1000V666.67H0z"/><path d="M0 518.52h1000v74.074H0z" class="R"/><path d="M0 444.448h1000v74.073H0z" class="Z"/><path d="M0 370.373h1000v74.075H0z" class="R"/><path d="M0 296.3h1000v74.073H0z" class="Z"/><path d="M0 222.226h1000V296.3H0z" class="R"/><path d="M0 148.15h1000v74.074H0z" class="Z"/><path d="M0 74.078h1000v74.074H0z" class="R"/><g class="C"><path d="M222.61 369.106l-.122-112.2h99.626l.245 112.445" stroke-width=".336" class="L"/><path d="M321.878 369.1l-.12-112.2h99.034l.243 112.444" fill="#0071bc" stroke-width=".335"/><path d="M222.533 368.76l198.496.446s.433 42.172-.82 56.794c-.126 16.957-20.916 93.195-100.48 93.185-80.91.446-97.093-68.638-97.194-97.204V368.76z" class="J L"/><path d="M321.794 519.112c-18.527.553-35.515-2.348-46.555-8.38-9.15-5.002-17.693-9.355-25.252-17.87-5.7-6.42-11.382-13.953-15.517-21.822-1.305-2.48-2.49-5.035-3.448-7.645-3.117-8.483-8.034-22.243-8.354-37.107-.492-22.854-.233-48.427-.075-57.455l99.202.158" stroke-width=".327" class="a"/><path d="M311.246 503.245c-1-.383-.8-2.654-.127-2.544 1.86-.01 1.585 2.5 1.7 3.033-.53.18-.973-.1-1.573-.5zm-8.768-6.115c-.613-.587-2 .444-2.673-.574s3.822-6.293 4.165-6.82c.654-1.154.35-3.27.524-3.84 1.06-1.525 2.697-3.388 3.673-4.18l3.2 1.905c.35 1.766-1.816 4.522-1.9 5.037-.227 1.6-1.44 2.782-2.62 4.177-1.223 1.448-3.182 2.557-4.392 4.295z" class="E M"/></g><path d="M209.927 335.678c1.767 2.946 3.53 6.48 4.415 11.192s3.434 11.3 10 12.952c5.302 1.47 10.013 3.832 11.2 7.95 1.177 4.124 2.02 9.38 2.022 9.292l8.2-11.598c-.086-1.55-.15-5.328-.15-9.744-.1-6.422-4.85-8-9.565-9.756s-10-3.96-11.462-6.613c-1.472-2.647-5.227-7.208-7.3-8.97-2.058-1.77-7.358 5.296-7.358 5.296h0zm8.66 54.662c4.552 8.18 5.03 19.394 6.903 27.222 4.257.137 8.865-11.268 14.198-14.73.308-6.14 1.866-14.622 3.634-17.268 8.532-12.44 2.527-19.556 2.527-19.556-8.53 10.014-8.82 17.175-27.25 24.316l-.013.017z" transform="matrix(.186001 .020405 -.020405 .186001 275.47771 395.80747)" class="C E H"/><g class="C F L"><path d="M216.87 216.35c-2.875-.015-2.927 10.338 1.825 10.173 2.36-.08 52.328-5.054 102.932-5.028 51.446.026 103.976 3.712 105.135 3.63 2.142-.15 4.23-8.867 2.544-8.98-.277-.018-15.23 12.946-27.578-1.724-12.034 8.792-16.29 5.69-26.78-.548-11.37 5.186-13.578 8.13-26.336-1.177-13.493 7.83-15.935 7.187-27.086-1.11-8.308 8.767-17.77 6.36-24.93 1.21-13.14 7.974-18.874 6.88-28.355 1.286-11.804 6.16-13.19 8.37-25.954.223-14.335 13.847-24.8 2.047-25.418 2.043z"/><path d="M218.4 224.998c-2.874-.015-4.265 3.64.486 3.476 2.36-.08 52.552-4.16 103.157-4.135 51.446.026 103.307 4.16 104.466 4.076 2.142-.15 2.22-3.286.534-3.4-.85-.056-52.997-4.792-105.1-4.78-51.075.012-102.116 4.77-103.542 4.763z"/></g><g class="B"><path d="M272.9 286.55c-3.445-.087-5.568-2.232-25.192-2.232-11.998 0-13.854 14.72-8.56 18.214 1.873 1.236 9.31 3.075 14.737 5.594 4.767 2.213 7.473 5.256 10.464 4.682 4.847-.93 6.646-1.322 11.405-.634 8.29 1.2 18.643-1.83 22.79-6.08 1.192-1.222-.15-14.047-.705-15.582-.52-1.437-5.627-3.207-7.346-3.95-5.2-2.253-14.417-1.35-17.592-.012z"/><path d="M273.928 298.955c.305-.26-2.148 0-4.465 0-1.417 0-1.347 1.682-1.116 2.473.218.742 3.486.92 4.24.76 1.57-.334 1.462-1.026 2.232-1.9.673-.763.33-.705-.893-1.33z" class="C b"/></g><path d="M269.523 311.69l4.394-6.666s.86 16.724.86 25.146-1.587 8.842-.176 14.857c.353 1.507 1.397 4.285 4.165 5.38 3.916 1.55 10.197 1.742 13.967 3.58s4.322 5.164 3.505 6.22c-1.234-.947-2.314-2.698-5.23-3.207-2.15-.375-2.57-.077-5.27-.204-1.114-.052-1.006 1.696-.372 4.432-3.745-2.887-7.316-4.436-8.425-4.06-.974.33.608 4.57.554 6.222-1.2-2.477-3.172-3.664-3.725-3.592s-1.468 3.82-1.907 4.34c-1.002-1.053-1.12-5.482-1.63-5.47-1.112.026-1.914.42-5.612 3.392.198-2.565 2-5.548 1.046-5.534-1.04.016-4.9 3.286-7.344 4.623-.008-2.002 2.806-4.533 1.8-4.516-.82.014-2.208-.516-3.936-.218-2.505.43-5.722 1.86-8.944 3.042.036-1.547 2.968-4.257 5.296-5.425 2.525-1.266 5.5-.467 9.024-2.738s4.245-5.168 5.5-12.592-1.766-6.445-.976-14.867 3.435-12.146 3.435-12.146z" fill="#784421" stroke-width=".277" class="C"/><path d="M217.54 228.405c-.642 4.896 3.5 21.243 4.797 24.847 8.57.436 57.933-3.427 101.077-3.405 51.446.026 96.163 3.042 97.322 2.96 2.142-.15 6.907-24.494 5.223-24.607-.85-.057-49.648-4.347-101.752-4.334-51.073.012-105.24 4.547-106.666 4.54z" class="C F L"/><path d="M263.618 237.015c0-2.966 2.58-5.358 5.763-5.358s5.773 2.392 5.773 5.358-2.582 5.368-5.773 5.368c-3.182 0-5.763-2.4-5.763-5.368z" class="C P c d"/><path d="M338.86 271.46l12.655.1-1.36 13.162 12.063-3.325v15.785l-12.135-3.268.448 15.45c.22 5.427.943 6.088.943 6.088l-3.87-.933-2.366 15.722-2.56-15.79-3.87 1s.676-1.005 1.072-6.256l1.022-15.26-11.607 3.57-.03-16.08 10.777 3.218-1.184-13.174z" stroke-width=".655" class="C a"/><path d="M316.463 235.04c0-2.966 2.582-5.36 5.763-5.36s5.773 2.393 5.773 5.36-2.58 5.368-5.773 5.368c-3.18.001-5.763-2.4-5.763-5.368zm52.01.703c0-2.965 2.58-5.358 5.763-5.358s5.773 2.393 5.773 5.358-2.58 5.368-5.773 5.368c-3.182.001-5.763-2.4-5.763-5.368z" class="P c d C"/><g class="F C"><path d="M243.88 244.286l-7.132-5.7 5.7-7.133 7.132 5.7zm155.84-.336l-5.908-6.97 6.97-5.908 5.908 6.97zm-51.897-2.1l-6.035-6.86 6.86-6.035 6.035 6.86zm-52.227.007l-6.54-6.38 6.38-6.54 6.54 6.38z" class="B"/><path d="M238.015 402.79c-.516-.9-1.03-3.816-1.664-5.227-1.58-.426-4.34-.073-6.25-1.146-2.134-1.344.807-3.966.598-4.96-.134-.068-.564-.543-.707-.74-.068-.35.3-1.03.553-1.142l.003-.008c-.328-.225-.767-1.537.653-1.504.48-.18.583-.486.757-.8l-.688-.393c-1.154-.65-.6-1.313.185-1.922l3.316-2.29c.424-.218.52-.39.54-.834s.4-.99.74-1.33 1.637-1.32 1.56-1.59.303-.815.425-.9.283-.372.347-.488.283-.37.52-.39.58-.36.528-.54.573-.893.78-.853.616.116 1.016-.19c.297-.582 1.106-.98 1.53-1.116l1.036-.392c.066.012.802-.326 1.27-.216s1.652.162 1.652.162l1.44.27s.558.084.995.25l1.913.8c.032.03.655.026 1.43.534s1.51 1.37 1.86 1.415.45.554.45.554.385.668.847.926l.7.92 1.01 1.178 1.095 2.112s.553.475.39 1.202l.112 2.787a3.49 3.49 0 0 0 .121.598l-.24 1.38s-.064.115-.167.436-.375 1.626-1.12 1.874c.045.328-.325.66-.823 1.2-.576.46-1.81 1.045-1.6 1.23s-.16.092-.434-.056c-.2-.187-.518-.31-.576.104-.084.558-.024.89-.614.865s-1.59.78-1.55 1.255l-1.252.514s-.172.132-.044.58-.397 1.492-.484 1.55c-.06.13-.056 3.28-.117 3.41-3.206-.132-9.008.24-12.03.914z" class="S"/></g><path d="M246.69 395.097c-1.703-1.357 3.475-4.526 3.61-3.936.06.263 3.423 2.56 3.32 2.808-.14.383-.954 1.055-2.78 3.818-.55.41-1.82-1.07-4.15-2.7z"/><path d="M238.54 377.23c.67-.3.32.07.93-.538.163-.745-.032-.357.343-.64.895-.674 2.71-1.608 4.016-2.02 1.344-.426 2.72-.062 4.18.222.847.195 2.595.51 4.237 1.522.764.47 1.5.926 2.21 1.594.91.868 1.743 1.988 2.432 2.858.16.203 1.024 1.85 1.825 3.324.344.633.096 1.72.133 2.483.054 1.094.36 2.073-.358 3.67-.46 1.024-.52 1.47-.89 1.587-.37 1.623-2.456 2.085-3.412 2.614l-.54.024c-.343-.725-1.637-2.108-2.2-2.695-1.592-1.734-2.034-3.596-4.114-4.283-1.795-2.152-6.924-5.286-9.052-7.1-1.076-1.056-.748-.663-.62-1.266l.872-1.353z"/><path d="M240.42 375.882c-.546.075-.914.2-.738.686a9.06 9.06 0 0 0 .528 1.193s-.834-.787-1.138-.58-.877.435-.614.7c.16.277.885 1.098.885 1.098l-1.098-.764c-.36.305-.642 1.056-.033 1.774l2.832 3.407c.3.482 1.182 1.162 1.663 1.43l1.92 1.195-1.22-.3c-.19-.082 1.74 2.025 2.13 2.148.428-.33 4.12-1.253 3.912 2.29-.204.706-.227 1.198-.227 1.198s.7.327.83.777.85.853 1.31 1.045 1.278.438 1.037.303.686.79.947.998 1.04-.56.327-1.715c-.267-.653-1.266-2.03-1.34-2.576s-1.5-2.576-2.05-3.223c-.077-.37.034-.572-.44-.963s-1.28-1.383-1.702-1.87-.855-.73-1.433-1.05-3.888-3.396-4.52-4.512c-.588-.642 2.89 2.87 3.344 3.187.75.576 1.1.556.114-.843-.4-.658-2.487-3.795-4.23-5.505l-.992.473z" class="C E T"/><path d="M246.95 389.818c.018.012.087.07.108.15.016.102.026.19.016.277-.03.102-.046.195-.11.273a.63.63 0 0 1-.243.133c-.108.043-.178.056-.273.07-.096-.007-.206.022-.287.018-.054.024-.15.012-.212.038-.076.034-.126.044-.177.124-.073.068-.14.164-.2.245l-.2.245c-.08.05-.145.062-.254.037-.085-.03-.167-.072-.253-.12-.022-.074-.076-.172-.094-.253l.076-.136" class="D G U V W"/><path d="M245.808 388.684c.788-.436 4.072-.216 2.112 1.816-.285.172-.074.432.098.29 2.238-2.445-1.288-2.87-2.152-2.382-.35.206-.068.293-.058.275h0z"/><g class="C"><g class="D"><g class="I"><path d="M238.698 379.4c.985.524 1.985 1.154 2.498 2.1s1.136 1.485 1.985 1.96l1.273.733" class="G"/><path d="M249.885 387.55c1.278 1.54 1.464 1.885 1.905 2.714l1.026 1.738c.286.5.378.94.378.94.206.504-.97-2.048-2.422-2.468-.47-.263-.543-.303-.71-1.028s-.445-1.415-1.005-2.115l-1.558-1.9"/></g><path d="M243.568 392.02c.098.054.406.688.535.828.128.096.34.21.72.176.642-.193 1.715-1.154 2.312-1.302.942.1 1.686-.252 2.02-.44" class="G N"/></g><path d="M237.42 382.5c.418 1.215.804 2.122 1.686 2.896-.16.227-2.142-.644-3.067-.606 0 0 .04-.658.384-1.23s.996-1.06.996-1.06z" class="O"/><g class="E"><g transform="matrix(.163469 .091053 -.091053 .163469 249.31312 321.34012)" class="H"><path d="M209.926 335.682c1.77 2.944 3.536 6.478 4.414 11.186.888 4.715 3.438 11.3 10.012 12.955 5.3 1.474 10 3.827 11.2 7.95s2.016 9.38 2.022 9.292l8.193-11.6c-.092-1.55-.153-5.327-.156-9.74-.1-6.426-4.85-8-9.56-9.76s-10-3.96-11.465-6.608-5.228-7.208-7.288-8.976-7.363 5.303-7.363 5.303h0zm-40.376 98.802c8.302 7.58 20.748 23.242 22.618 31.072 3.248-6.17 23.882-26.977 28.495-32.67 13.92-16.996 20.9-44.672 22.657-47.323 8.534-12.436 2.532-19.553 2.532-19.553-8.53 10.008-12.037 18.963-23.67 30.736l-15.528 16.547-15.16 10.547-21.944 10.645z"/><path d="M166.768 456.046c-.236 2.03 7.998 13.748 12.594 14.062 4.523.312 10.193 1.193 12.314-3.526 0 0-.048-4.86-6.006-14.14-3.207-5.006-5.556-6.66-5.556-6.66l-13.346 10.265zm89.308-138.286c-8.802-7.374-22.393.22-35.55 5.26-4.12.293-5.595-.295-5.595-.295l1.177 6.478c5.838 6.02 8.578 2.068 16.475 5.22 8.154 3.248 30.3 31.984 27.86 47.423-2.456 15.646-37.333 40.27-46.623 46.854 9.23 4.572 21.896 14.633 27.123 23.747 14.724-7.222 34.47-28.323 42.15-47.494 1.713-4.335-1.04-18.985-1.245-26.034-.676-23.8-18.623-55.173-25.775-61.16z"/></g><path d="M254.112 393.648c.08-.49.3-.366.606.046.44.78-.62 1.55-1.487 1.36-.512-.042-.466-.648.253-.54.638.16.648-.904.628-.866l.037.02-.037-.02z" class="Q"/></g><path d="M255.4 402.686l-.028.05c.076-.137.035-.068-.075.22l-.383.777-.345.532m.32-1.535l-.05.092c.095-.17.064-.125-.04.158-.13.267-.152.432-.284.685-.14.253-.28.433-.42.67m-10.498 7.777l.037.022c-.03.03-.13.233-.204.366-.1.2-.223.393-.33.503m-.2-.7l-.04.074.04-.074-.04.074.04-.074-.355.727c-.047.085-.068.158-.14.164m-.18-.936l-.373.844c-.085.154-.126.154-.2.3m-.122-.912l-.026.047c.07-.127.03-.064-.068.208l-.303.63c-.144.24-.255.313-.388.522m.007-1.024a8.8 8.8 0 0 0-.231.504l-.3.52c-.116.16-.258.326-.38.42l-.062.1m15.946-11.454c-.03.075-.123.372-.282.507-.084.15-.145.22-.225.317" class="D K"/><g class="e"><path d="M255.014 394.17c.44.38 1.712.953 2.395.865l.684-.087" class="E"/><path d="M254.88 394.415c.375.444 1.54 1.21 2.228 1.232l.7.022" class="D"/></g><path d="M254.478 395.043c.085.448.178.7.028 1.152l-.15.45m-.27-1.62c.064.604.184.87.044 1.363l-.14.5" class="Q D"/><path d="M253.674 395.164c-.242.734-.43 2.272-.273 2.892l.156.623" class="D e"/><path d="M237.834 412.762c-.24-.178-.5-.873-.538-1.085s-.003-.28-.003-.28m-.093 1.483c-.24-.223-.53-.98-.566-1.203l-.038-.277" class="O D"/><path d="M236.75 413.346c-.277-.197-.63-.996-.678-1.243l-.05-.246" class="D f"/><path d="M257.915 412.957c.24-.265.66-.823.8-1.258l.15-.435m-3.292-15.682c.167.203.476.478.667.534l.193.054" class="Q D"/><path d="M260.3 396.446c.638.868.828 3.926.76 4.283l-.07.36" class="D g"/><g class="F L"><path d="M243.973 190.547c-1.45-.8-2.786-.833-4.84.047-.8-1.204-5.625-6.848-7.53-8.85.28-2.908 6.35-7.574 9.334-7.525 2.934.05 8.64 2.676 9.9 7.634-2.523 3.078-5.868 7.132-6.874 8.694zm-4.777 6.286c2.563 1.244 2.953.737 4.952-.125.783 1.2 5.243 6.496 7.133 8.5-.347 1.622-3.944 6.6-8.607 6.736-2.26.066-8.675-1.732-9.9-6.7 2.546-3.06 5.416-6.868 6.432-8.423z"/><path d="M244.114 196.6c.92-1.15 1.617-3.78-.03-6.003.8-1.148 4.727-6.787 6.86-8.54 1.596.452 4.053 6.264 3.88 10.925-.083 2.26.152 8.693-3.5 12.222-2.886-2.74-5.794-7.207-7.223-8.603zm-4.892-6.043c-.885 1.176-1.845 3.992-.138 6.167-.78 1.17-4.368 6.582-6.453 8.394-1.608-.408-4.225-6.15-4.183-10.813.02-2.26-.395-8.685 3.147-12.314 2.962 2.658 6.16 7.2 7.627 8.566z"/><path d="M243.8 198.456c-2.6.992-5.524-.22-6.56-2.706s.22-5.3 2.806-6.3 5.525.204 6.567 2.7-.205 5.3-2.788 6.317m53.443-10.03c-1.45-.8-2.786-.833-4.84.046-.8-1.203-5.625-6.847-7.53-8.85.28-2.908 6.35-7.574 9.334-7.525 2.933.05 8.64 2.676 9.908 7.634-2.524 3.078-5.868 7.133-6.873 8.694zm-4.778 6.286c2.563 1.244 2.953.737 4.952-.125.783 1.2 5.242 6.496 7.132 8.5-.347 1.622-3.944 6.6-8.605 6.736-2.26.066-8.676-1.732-9.9-6.7 2.544-3.06 5.414-6.868 6.432-8.423z"/><path d="M297.4 194.47c.92-1.15 1.616-3.78-.03-6.003.8-1.148 4.725-6.787 6.86-8.54 1.596.452 4.053 6.264 3.882 10.925-.083 2.258.15 8.693-3.5 12.222-2.886-2.74-5.794-7.207-7.223-8.603zm-4.893-6.045c-.887 1.176-1.846 4-.14 6.167-.78 1.17-4.367 6.582-6.453 8.393-1.608-.407-4.225-6.15-4.183-10.813.02-2.26-.393-8.685 3.15-12.314 2.96 2.658 6.16 7.2 7.627 8.566z"/><path d="M297.074 196.335c-2.6.992-5.524-.22-6.56-2.706s.22-5.3 2.806-6.3 5.525.204 6.567 2.7-.205 5.3-2.788 6.317m53.937-7.806c-1.413-.853-2.747-.952-4.838-.162-.738-1.237-5.324-7.084-7.14-9.166.404-2.893 6.672-7.293 9.65-7.115 2.927.176 8.516 3.046 9.57 8.055-2.654 2.966-6.17 6.873-7.243 8.4zm-5.044 6.073c2.508 1.354 2.92.864 4.953.1.73 1.242 4.957 6.716 6.758 8.8-.416 1.606-4.225 6.424-8.887 6.358-2.26-.032-8.593-2.106-9.613-7.12 2.673-2.948 5.706-6.63 6.8-8.138z"/><path d="M350.916 194.573c.968-1.1 1.78-3.708.23-6 .86-1.112 5.015-6.576 7.224-8.236 1.574.52 3.778 6.433 3.406 11.083-.18 2.253-.224 8.7-4.013 12.06-2.766-2.862-5.48-7.45-6.846-8.906zm-4.626-6.25c-.937 1.136-2.016 3.9-.404 6.156-.83 1.135-4.648 6.387-6.8 8.107-1.588-.476-3.956-6.326-3.713-10.983.117-2.258-.02-8.694 3.677-12.167 2.844 2.784 5.843 7.47 7.25 8.887z"/><path d="M350.382 196.566c-2.63.88-5.5-.457-6.437-2.987s.45-5.296 3.076-6.183 5.5.443 6.445 2.97-.434 5.297-3.058 6.2m54.604-6.048c-1.383-.9-2.713-1.047-4.83-.33-.694-1.262-5.075-7.265-6.817-9.4.505-2.877 6.922-7.056 9.892-6.776 2.92.277 8.404 3.34 9.284 8.383-2.755 2.87-6.405 6.653-7.53 8.132zm-5.252 5.895c2.46 1.44 2.887.966 4.948.26.685 1.266 4.72 6.884 6.447 9.04-.47 1.6-4.445 6.273-9.104 6.045-2.258-.1-8.514-2.403-9.36-7.45 2.775-2.853 5.933-6.426 7.068-7.896z"/><path d="M404.683 196.544c1.006-1.076 1.906-3.644.44-5.987.898-1.08 5.24-6.4 7.505-7.98 1.556.574 3.553 6.56 3.018 11.194-.258 2.246-.524 8.678-4.43 11.913-2.664-2.956-5.216-7.636-6.53-9.14zm-4.407-6.406c-.975 1.103-2.15 3.836-.617 6.138-.868 1.106-4.867 6.22-7.088 7.865-1.57-.532-3.733-6.46-3.33-11.106.196-2.252.283-8.7 4.098-12.032 2.745 2.882 5.58 7.67 6.937 9.134z"/><path d="M403.977 198.634c-2.658.788-5.5-.648-6.33-3.2s.633-5.277 3.3-6.072 5.492.634 6.338 3.192-.618 5.28-3.272 6.08m-139.915-19.762l6.447-.12c.7.001 4.63.583 6.58 4.306 2.037 1.028 2.33 1.14 4.305 2.95-.002 2.453.014 8.622-1.5 12.657-.14.495-1.25 1.515-2.494 1.876-.112 6.302-6.544 12.02-9.302 12.3-3.167-.003-10.504-6.386-9.3-12.646-1.625-.602-2.422-1.994-2.614-2.878-.598-2.753-1.967-7.8-1.716-11.435 2.072-1.772 2.998-1.403 4.275-2.364 1.724-2.54 3.343-4.57 5.34-4.646z"/><path d="M277.28 159.8c-2.037 1.6-6.184 5.2-6.226 8.122s-.042 4.15.1 6.65 1.3 8.4 1.325 10.092.32 3.84.373 5.682-.47 4.006-2.027 5c-1.635 1.053-4.727.778-6.012-.223-1.342-1.045-1.63-3.387-1.872-5.02-.244-1.652.193-3.176.2-4.9s.87-8.26 1.35-10.6.108-4.278.1-6.598c-.022-2.93-3.073-5.08-6.56-7.787 1.38-1.3 2.34-2.222 4.704-2.88.887-3 2.816-4.766 5.085-7.1 2.162 2.105 4.022 4.744 4.396 7.17 1.65-.07 3.678 1.325 5.053 2.355zm40.236 17.778l6.447-.12c.7.001 4.63.583 6.58 4.306 2.037 1.028 2.33 1.14 4.306 2.95-.002 2.453.014 8.622-1.5 12.656-.138.495-1.25 1.515-2.494 1.876-.1 6.302-6.543 12.02-9.3 12.3-3.168-.003-10.504-6.386-9.3-12.647-1.625-.602-2.423-1.994-2.614-2.878-.598-2.753-1.967-7.8-1.716-11.435 2.07-1.772 2.998-1.403 4.275-2.364 1.724-2.538 3.343-4.566 5.34-4.644z"/><path d="M330.533 157.933c-2.036 1.592-6.184 5.2-6.226 8.122s-.042 4.15.108 6.65 1.3 8.4 1.325 10.092.32 3.84.373 5.682-.47 4.006-2.026 5c-1.636 1.053-4.727.778-6.013-.223-1.34-1.045-1.63-3.386-1.87-5.018-.244-1.652.193-3.176.2-4.9s.87-8.26 1.35-10.6.1-4.278.1-6.598c-.022-2.93-3.073-5.08-6.56-7.787 1.38-1.312 2.34-2.222 4.705-2.88.885-3 2.816-4.766 5.084-7.1 2.162 2.105 4.024 4.744 4.396 7.17 1.65-.07 3.68 1.326 5.054 2.355zm41.23 20.984l6.447-.12c.7.001 4.63.583 6.58 4.307 2.037 1.028 2.33 1.138 4.305 2.95-.002 2.453.014 8.622-1.5 12.657-.14.494-1.25 1.515-2.494 1.875-.112 6.303-6.543 12.02-9.302 12.3-3.167-.003-10.504-6.386-9.3-12.647-1.626-.602-2.423-1.994-2.615-2.877-.598-2.753-1.967-7.8-1.716-11.435 2.072-1.772 2.998-1.403 4.275-2.364 1.724-2.54 3.343-4.567 5.34-4.645z"/><path d="M384.1 160.613c-2.037 1.59-6.184 5.2-6.226 8.122s-.042 4.15.11 6.65 1.31 8.41 1.325 10.092.32 3.84.373 5.682-.47 4.006-2.027 5.01c-1.635 1.053-4.727.778-6.012-.223-1.342-1.045-1.63-3.387-1.872-5.02-.244-1.652.193-3.176.2-4.9s.87-8.26 1.35-10.59.108-4.278.09-6.598c-.022-2.93-3.073-5.08-6.56-7.787 1.38-1.31 2.34-2.222 4.704-2.88.887-3 2.816-4.766 5.085-7.1 2.162 2.106 4.022 4.744 4.396 7.17 1.65-.07 3.678 1.325 5.053 2.355z"/></g></g><path d="M237.16 391.053l1.405.002c2.04-.005-.492.022.014-.056.493-.043.957-.035 1.41-.225l1.79-.42c-.45.282-1.112.864-1.65.868-1.026.172-2.077.05-3.114.078h-1.43l1.573-.248z"/><g class="C"><path d="M245.527 373.865c-.546.074-.922.078-1.764.303-.747.16-2.37.798-2.107 1.007-.36.305 1.292 1.686 1.9 2.405s2.06 3.043 2.36 3.525.944 1.952 1.425 2.22l1.4 1.17c-.19-.083 1.228 1.552 1.617 1.675.586 1.21.29.76 1.268 2.013.86 1.26 1.037 2.382 1.037 2.382s1.483 2.8 1.242 2.677.646.106.907.315 1.897-1.05 2.458-1.94c.15-.28 1.083-1.037 1.4-2.98.29-1.772-.022-4.74-.058-5.002-.074-.546-1.46-3.21-2.01-3.578s-1.72-1.873-2.143-2.36-1.33-1.163-1.907-1.484-.787-.49-2.168-1.024c-1.298-.62-2.487-.756-3.205-1.006l-1.663-.317z" class="E X"/><g class="D G"><path d="M249.466 383.237c.885.682 1.766 1.465 2.115 2.485s.876 1.654 1.635 2.26l1.134.933m-9.462-11.4c.885.682 2.595 1.072 3.103 2.487.35 1.02.875 1.652 1.635 2.26l1.133.932m-6.266-8.125c.885.68 3.15 1.663 3.497 2.683" class="I"/><path d="M251.486 379.148c.662.686 1.31 1.46 1.49 2.383s.552 1.525 1.116 2.134l.842.93" class="Y"/></g></g><path d="M229.533 393.926c.307.078 1.015 1.217 1.276 1.455.522.408.592.484 1.166.695 1.682.295 1.73.24 3.09.15 1.082-.018 1.475.094 2.57-.203.88-.26 2.258-.755 2.62-1.024.204-.137.74-.877.92-1.074.21-.305 3.308-7.475 3.443-6.887.06.263.977.62.873.868-.14.383-3.11 6.634-3.314 6.952-.18.208-.364.402-.574.542l-1.078.83c-.8.543-3.27 1.355-4.135 1.52-2.045.147-5.435.5-7.513-.035-.144-1.63.66-3.787.66-3.787z"/><path d="M292.348 403.736c-.516-.9-1.03-3.816-1.665-5.227-1.58-.426-4.34-.072-6.248-1.146-2.134-1.343.805-3.965.596-4.96-.134-.07-.564-.544-.706-.74-.07-.35.3-1.03.552-1.142l.003-.01c-.328-.225-.767-1.537.653-1.504.478-.178.583-.484.757-.8l-.688-.393c-1.155-.648-.59-1.313.185-1.922l3.316-2.29c.425-.217.522-.39.54-.834s.4-.988.74-1.328 1.636-1.32 1.56-1.59.303-.815.425-.9.283-.37.347-.488.282-.372.52-.39.578-.36.528-.54.572-.89.78-.853.616.117 1.015-.19c.298-.582 1.106-.98 1.53-1.115l1.036-.393c.066.012.802-.325 1.27-.215s1.65.162 1.65.162l1.44.27s.558.084.995.25l1.914.8c.03.03.654.026 1.43.533s1.508 1.37 1.86 1.416.45.553.45.553.384.668.847.926l.7.92 1.008 1.178 1.095 2.112s.554.475.39 1.2l.113 2.788a3.36 3.36 0 0 0 .121.598l-.24 1.38s-.064.116-.168.438-.375 1.625-1.12 1.874c.044.327-.326.66-.823 1.198-.575.46-1.81 1.045-1.6 1.232s-.16.092-.435-.056c-.198-.187-.518-.313-.575.104-.085.558-.024.89-.615.865s-1.59.78-1.55 1.256l-1.25.514s-.172.13-.044.58-.398 1.493-.484 1.55c-.062.13-.056 3.28-.117 3.41-3.207-.133-9 .24-12.03.914z" class="C F S"/><path d="M292.91 378.164c.67-.3.32.068.93-.54.163-.744-.032-.357.344-.638.895-.674 2.712-1.608 4.016-2.02 1.345-.427 2.72-.062 4.18.22.85.195 2.595.51 4.237 1.522.764.472 1.5.926 2.2 1.594.9.868 1.742 1.99 2.43 2.858.16.204 1.024 1.85 1.825 3.325.344.633.096 1.718.134 2.483.054 1.094.357 2.072-.36 3.668-.46 1.024-.52 1.47-.89 1.588-.37 1.622-2.456 2.084-3.412 2.613l-.54.024c-.343-.725-1.637-2.108-2.2-2.695-1.592-1.732-2.034-3.596-4.114-4.283-1.795-2.15-6.923-5.285-9.052-7.1-1.076-1.057-.748-.664-.618-1.267l.87-1.353z"/><path d="M301.185 395.772c-1.703-1.357 3.475-4.526 3.61-3.936.06.262 3.424 2.56 3.32 2.808-.14.383-.954 1.054-2.78 3.818-.55.41-1.818-1.07-4.15-2.7z"/><g class="C"><g class="E"><path d="M299.884 374.813c-.546.074-.923.078-1.764.303-.747.16-2.37.797-2.107 1.006-.36.305 1.29 1.688 1.9 2.404s2.06 3.043 2.358 3.525.945 1.95 1.426 2.22l1.41 1.17c-.19-.082 1.228 1.553 1.617 1.675.585 1.2.29.76 1.268 2.013.86 1.26 1.036 2.383 1.036 2.383s1.483 2.8 1.243 2.676.644.106.906.315 1.897-1.05 2.46-1.94c.15-.28 1.083-1.037 1.4-2.98.29-1.772-.022-4.742-.058-5.003-.074-.546-1.46-3.21-2.01-3.58s-1.72-1.87-2.142-2.36-1.33-1.162-1.907-1.484-.787-.492-2.167-1.024c-1.298-.62-2.487-.757-3.206-1.008l-1.663-.315z" class="X"/><path d="M294.752 376.828c-.546.074-.914.2-.738.686.22.626.528 1.193.528 1.193s-.833-.788-1.138-.58-.876.436-.613.7c.16.28.883 1.1.883 1.1l-1.098-.764c-.358.305-.642 1.056-.032 1.774l2.832 3.406c.3.482 1.182 1.162 1.663 1.43l1.92 1.195-1.22-.3c-.19-.082 1.74 2.026 2.13 2.148.43-.33 4.12-1.252 3.912 2.29-.204.707-.225 1.2-.225 1.2s.7.327.828.777.85.853 1.31 1.045 1.278.436 1.038.3.684.733.946.942 1.21-.223.328-1.66c-.267-.652-1.267-2.03-1.34-2.574s-1.5-2.578-2.05-3.225c-.077-.37.035-.572-.44-.963s-1.28-1.383-1.7-1.87-.855-.73-1.433-1.05-3.888-3.396-4.52-4.514c-.588-.642 2.89 2.87 3.343 3.187.75.576 1.1.558.115-.843-.39-.658-2.487-3.796-4.23-5.505l-.994.473z" class="T"/></g><path d="M293.03 380.346c.985.524 1.985 1.152 2.497 2.1s1.138 1.485 1.987 1.958l1.27.732" class="D G I"/><path d="M291.754 383.456c.418 1.214.804 2.122 1.686 2.896-.16.227-2.142-.644-3.067-.608 0 0 .038-.656.383-1.228s.998-1.06.998-1.06z" class="O"/><path d="M313.442 413.082c-.23.96-1.566-3.105-.512-3.243.963.18 1.836 1.9 1.85 2.597-.807-.063-.737-.432-1.338.646z" class="E J"/></g><g transform="matrix(.026685 .185205 -.185205 .026685 358.08866 359.57499)" class="C E H"><path d="M240.502 258.37c.115 1.287.522 6.92-.04 6.98-3.182.454-5.368.988-8.096 3.7s-8.954 7.363-12.492.995c-1.818-3.63 2.608-5.33 4.875-5.33 2.23-.08 5.738-1.8 9.37-2.7s5.107-3.24 5.564-2.8l.82-.858zm14.31 13.904c.498-.27 2.855-3.417 1.636-7.257-1.77-2.65 8 2.856 5.934 5.8-2.606 2.028-7.776 2.006-7.57 1.456h0z"/><path d="M231.56 259.985c-.04-.6-.12-5.976-.023-7.16 1.822-.275 7.23-1.057 8.403.7 4.187 6.33-8 9.48-8.304 8.595l-.076-2.146zm-9.855 12.69l7.656 26.497s4.324 18.8-8.835 23.847c-4.12.298-8.45 1.846-8.45 1.846l4.264 4.37c5.84 6.025 9.376 4.567 14.382 2.505s5.208-2.218 7.856-3.693c2.654-1.474 6.306-9.77 6.7-12.13 1.137-6.1 4.973-18.08 16.492-43.535-2.083-.184-15.63 1.186-16.538 1.187-.458.725-2.6 4.2-5.866 5.583-3.608 1.473-8.797-2.77-3.538-6.183 2.572-1.638 11.105.292 10.945-4.16-.217-3.875-5.94-3.492-8.292-3.198s-5.592 2.943-7.07 4.413c-3.298 3.298-7.952 3.83-9.717 2.653h0z"/><path d="M214.347 346.87c.882 4.7 3.434 11.3 10.008 12.953 5.304 1.47 10 3.826 11.188 7.95 1.178 4.12 2.018 9.38 2.02 9.287l8.193-11.6c-.087-1.552-.154-5.332-.15-9.745-.092-6.425-4.85-8-9.562-9.756s-10-3.96-11.465-6.614c-1.47-2.648-5.23-7.208-7.286-8.975-1.132-.965-3.922.943-5.582 2.66-1.386 1.418 1.754 9.12 2.636 13.83zm13.103 71.58c3.245-6.166 6.903-12.156 12.238-15.62.3-6.14 1.87-14.616 3.632-17.267 8.53-12.438 2.528-19.557 2.528-19.557-8.524 10.014-12.522 21.734-27.606 25.192 2.757 6.96 7.336 19.427 9.208 27.253z"/><path d="M204.107 419.584c-.235 2.033 8.105 8.745 12.705 9.06 4.522.31 9.694-4.883 10.522-8.95l-5.64-19.236-14.203 16.6-3.385 2.528z"/></g><g class="C D G"><path d="M303.798 384.182c.885.682 1.766 1.466 2.116 2.487s.875 1.652 1.634 2.26l1.134.93m-9.462-11.4c.885.68 2.595 1.072 3.1 2.485.35 1.02.876 1.652 1.635 2.26l1.134.933m-6.263-8.124c.885.68 3.147 1.662 3.496 2.682" class="I"/><path d="M305.818 380.094c.662.686 1.31 1.462 1.492 2.383s.55 1.525 1.116 2.135l.84.932" class="Y"/></g><path d="M283.866 394.87c.307.078 1.016 1.217 1.276 1.455.524.41.592.486 1.167.696 1.682.295 1.73.24 3.09.147 1.082-.016 1.475.096 2.57-.203.88-.258 2.257-.754 2.62-1.022.204-.138.74-.878.92-1.074.208-.305 3.308-7.477 3.442-6.888.06.263.978.62.873.868-.14.383-3.11 6.633-3.312 6.953-.18.207-.364.4-.574.54l-1.078.828c-.8.543-3.27 1.355-4.135 1.52-2.045.146-3.976 1.827-7.027.087-1.36-1.874.172-3.9.172-3.9z"/><path d="M292.348 470.04c-.516-.9-1.03-3.816-1.665-5.227-1.58-.426-4.34-.073-6.248-1.146-2.134-1.343.805-3.965.596-4.96-.134-.07-.564-.544-.706-.74-.07-.35.3-1.03.552-1.142l.003-.01c-.328-.225-.767-1.537.653-1.503.478-.18.583-.486.757-.8l-.688-.393c-1.155-.65-.59-1.313.185-1.922l3.316-2.29c.425-.218.522-.39.54-.834s.4-.99.74-1.33 1.636-1.32 1.56-1.6.303-.815.425-.9.283-.372.347-.488.282-.372.52-.39.578-.36.528-.54.572-.89.78-.853.616.116 1.015-.19c.298-.582 1.106-.98 1.53-1.116l1.036-.39c.066.012.802-.325 1.27-.216s1.65.162 1.65.162l1.44.27a5.6 5.6 0 0 0 .995.252l1.914.8c.03.03.654.026 1.43.534s1.508 1.37 1.86 1.416.45.553.45.553.384.668.847.926l.7.92 1.008 1.18 1.095 2.11s.554.475.39 1.202l.113 2.788a3.36 3.36 0 0 0 .121.598l-.24 1.38s-.064.116-.168.438-.375 1.625-1.12 1.874c.044.327-.326.66-.823 1.198-.575.46-1.81 1.046-1.6 1.23s-.16.092-.435-.056c-.198-.187-.518-.313-.575.102-.085.558-.024.89-.615.865s-1.59.78-1.55 1.256l-1.25.514s-.172.13-.044.58-.398 1.492-.484 1.55c-.062.13-.056 3.28-.117 3.41-3.207-.132-9 .24-12.03.915z" class="C F S"/><path d="M292.91 444.467c.67-.3.32.068.93-.54.163-.744-.032-.357.344-.64.895-.673 2.712-1.608 4.016-2.02 1.345-.426 2.72-.062 4.18.222.85.196 2.595.51 4.237 1.522.764.472 1.5.926 2.2 1.594.9.868 1.742 1.99 2.43 2.858.16.204 1.024 1.85 1.825 3.325.344.632.096 1.718.134 2.483.054 1.094.357 2.072-.36 3.668-.46 1.024-.52 1.47-.89 1.587-.37 1.623-2.456 2.085-3.412 2.614l-.54.024c-.343-.725-1.637-2.108-2.2-2.695-1.592-1.734-2.034-3.596-4.114-4.283-1.795-2.152-6.923-5.286-9.052-7.1-1.076-1.056-.748-.663-.618-1.266l.87-1.35z"/><use xlink:href="#B"/><g class="C"><g class="E"><path d="M299.83 441.148c-.546.074-.923.078-1.764.303-.747.16-2.37.797-2.108 1.006-.358.305 1.292 1.688 1.9 2.405s2.06 3.043 2.358 3.525.944 1.952 1.425 2.22l1.4 1.17c-.19-.082 1.228 1.553 1.617 1.675.586 1.2.29.76 1.268 2.013.86 1.26 1.037 2.383 1.037 2.383s1.483 2.8 1.242 2.677.646.104.907.313 1.897-1.05 2.46-1.94c.15-.28 1.083-1.037 1.4-2.98.29-1.772-.022-4.742-.058-5.003-.075-.546-1.462-3.21-2.01-3.578s-1.72-1.872-2.144-2.36-1.328-1.162-1.907-1.484-.787-.49-2.167-1.024c-1.298-.62-2.487-.757-3.206-1.007l-1.66-.317z" class="X"/><path d="M294.752 443.13c-.546.074-.914.2-.738.686.22.626.528 1.193.528 1.193s-.833-.788-1.138-.58-.876.436-.613.7c.16.28.883 1.098.883 1.098l-1.098-.764c-.358.305-.642 1.057-.032 1.774l2.832 3.406c.3.482 1.182 1.162 1.663 1.43l1.92 1.195-1.22-.3c-.19-.083 1.74 2.025 2.13 2.148.43-.33 4.12-1.253 3.912 2.29-.204.706-.225 1.2-.225 1.2s.7.327.828.777.85.85 1.31 1.045 1.278.436 1.038.303.684.844.946 1.053 1.154-.447.328-1.77c-.267-.653-1.267-2.03-1.34-2.575s-1.5-2.577-2.05-3.224c-.077-.37.035-.572-.44-.963s-1.28-1.383-1.7-1.87-.855-.73-1.433-1.05-3.888-3.396-4.52-4.512c-.588-.642 2.89 2.87 3.343 3.187.75.576 1.1.558.115-.843-.39-.658-2.487-3.795-4.23-5.506l-.994.473z" class="T"/></g><path d="M293.03 446.648c.985.526 1.985 1.154 2.497 2.102s1.138 1.485 1.987 1.958l1.27.733" class="D G I"/><path d="M291.754 449.76c.418 1.214.804 2.122 1.686 2.894-.16.23-2.142-.642-3.067-.606 0 0 .038-.657.383-1.23s.998-1.058.998-1.058z" class="O"/><g class="E M"><path d="M314.568 503.087c-.24-.024-1.3-.147-1.282-.252.028-.6.007-1.022-.398-1.618s-1.04-1.905.253-2.33c.73-.207.9.665.8 1.083-.064.412.13 1.117.17 1.816s.417 1.052.32 1.12l.128.182zm-3.058 2.143c.033.102.53.644 1.276.554.55-.233-.804 1.37-1.272.9-.283-.55-.098-1.5-.004-1.443h0z"/><path d="M314.583 501.385a27.09 27.09 0 0 1 1.317.246c-.014.345-.058 1.367-.424 1.52-1.3.55-1.463-1.804-1.3-1.827l.397.06zm-1.51-2.47l-5.616.698s-3.34-.34-3.807-1.9c-.03-.618.46-1.298.04-1.405l-1.026-.303-1.22-.273c-.3.205.03 2.228.185 2.985.204.992.018 1.035.196 1.573s1.575 1.5 1.995 1.658c1.082.422 3.15 1.546 7.427 4.552.106-.375.328-2.913.36-3.08-.118-.1-.684-.623-.823-1.275-.145-.714.817-1.52 1.26-.433.2.53-.442 2.03.383 2.157.72.095.85-.97.877-1.413s-.345-1.13-.564-1.453c-.5-.722-.426-1.596-.147-1.88h0l.478-.217z"/></g></g><g transform="matrix(-.118125 -.145118 -.145118 .118125 371.58096 480.75911)" class="C E H"><path d="M209.814 346.86c.883 4.705 5.54 12.873 12.114 14.527 5.298 1.474 12.436 2.266 13.617 6.386s2.017 9.38 2.02 9.292l8.193-11.595c-.093-1.553-.154-5.332-.154-9.746-.1-6.427-4.85-8-9.56-9.76-4.712-1.763-9.992-3.96-11.46-6.606s.554-6.164-1.5-7.93l-11.858-8.302c-.001-.001-2.282 19.022-1.4 23.735zm8.776 43.476c4.55 8.187 5.592 18.692 7.464 26.522 3.248-6.17 8.303-10.567 13.636-14.027.3-6.14 1.867-14.622 3.633-17.27 8.53-12.436 2.528-19.554 2.528-19.554-8.528 10.017-8.82 17.18-27.245 24.317l-.016.013z"/><path d="M210.48 415.632c-.234 2.028 2.48 9.09 7.086 9.407 4.517.307 7.125-3.168 7.95-7.23l-2.262-13.65-12.773 11.474z"/></g><g class="C D G"><path d="M303.798 450.485c.885.682 1.766 1.466 2.116 2.485s.875 1.654 1.634 2.26l1.134.933m-9.462-11.4c.885.68 2.595 1.07 3.1 2.485.35 1.02.876 1.652 1.635 2.26l1.134.933m-6.263-8.125c.885.682 3.147 1.663 3.496 2.684" class="I"/><path d="M305.818 446.397c.662.686 1.31 1.462 1.492 2.383s.55 1.525 1.116 2.134l.84.933" class="Y"/></g><path d="M283.866 461.174c.307.078 1.016 1.217 1.276 1.455.524.41.592.486 1.167.696 1.682.295 1.73.24 3.09.147 1.082-.016 1.475.095 2.57-.203.88-.26 2.257-.754 2.62-1.022.204-.138.74-.878.92-1.074.208-.305 3.308-7.477 3.442-6.887.06.263.978.62.873.868-.14.382-3.11 6.633-3.312 6.952-.18.208-.364.4-.574.54l-1.078.83c-.8.543-3.27 1.355-4.135 1.52-2.045.146-5.435.5-7.513-.035-.145-1.63.658-3.788.658-3.788z"/><path d="M244.462 466.133c-.516-.9-1.03-3.816-1.664-5.227-1.58-.426-4.34-.073-6.248-1.148-2.135-1.343.805-3.964.596-4.96-.134-.07-.564-.544-.706-.742-.07-.35.298-1.03.553-1.142l.003-.01c-.33-.223-.767-1.536.652-1.503.48-.18.583-.486.757-.8l-.688-.393c-1.154-.648-.6-1.313.185-1.92l3.316-2.29c.424-.218.52-.39.54-.835s.398-.988.74-1.328 1.637-1.32 1.56-1.59.303-.815.425-.9.283-.372.347-.488.283-.372.52-.39.58-.36.528-.54.573-.893.78-.853.617.116 1.016-.19c.297-.582 1.106-.98 1.53-1.116l1.035-.39c.066.012.803-.326 1.27-.216s1.65.162 1.65.162l1.44.27a5.6 5.6 0 0 0 .995.252l1.914.8c.03.03.654.026 1.43.534s1.508 1.37 1.86 1.415.448.553.448.553.385.67.847.926l.698.92 1.01 1.18 1.095 2.11s.554.475.39 1.2l.112 2.788a3.46 3.46 0 0 0 .122.598l-.24 1.38s-.064.115-.168.436-.375 1.626-1.12 1.875c.045.327-.325.66-.823 1.198-.575.46-1.81 1.045-1.6 1.23s-.16.092-.435-.056c-.2-.187-.518-.31-.576.104-.084.558-.024.89-.614.865s-1.59.78-1.55 1.256l-1.252.514s-.17.132-.043.58-.398 1.493-.484 1.55c-.062.13-.056 3.28-.117 3.41-3.206-.134-9.01.238-12.03.913z" class="C F S"/><use xlink:href="#B" x="-48.12" y="-3.587"/><path d="M245.025 440.56c.67-.3.32.07.93-.538.163-.745-.032-.357.344-.64.895-.674 2.71-1.608 4.016-2.02 1.344-.427 2.72-.062 4.18.222.847.195 2.596.508 4.237 1.52.764.472 1.5.927 2.21 1.594.91.87 1.743 1.99 2.432 2.858.16.204 1.024 1.85 1.825 3.325.343.633.096 1.72.133 2.483.054 1.094.358 2.073-.36 3.67-.46 1.024-.52 1.47-.89 1.587-.37 1.622-2.456 2.085-3.412 2.614l-.54.024c-.343-.725-1.637-2.108-2.2-2.695-1.592-1.734-2.034-3.596-4.114-4.283-1.795-2.152-6.924-5.286-9.052-7.1-1.076-1.056-.748-.663-.62-1.266l.87-1.352z"/><g class="C"><g class="E"><path d="M252.055 437.242c-.546.074-.923.078-1.764.303-.748.16-2.37.798-2.108 1.007-.358.305 1.292 1.688 1.9 2.404s2.06 3.043 2.358 3.525.945 1.95 1.425 2.22l1.41 1.17c-.19-.083 1.228 1.552 1.617 1.675.585 1.21.3.76 1.268 2.013.86 1.26 1.036 2.382 1.036 2.382s1.483 2.8 1.242 2.677.646.106.907.315 1.897-1.05 2.46-1.94c.15-.28 1.083-1.037 1.4-2.98.29-1.772-.022-4.74-.058-5.002-.074-.546-1.46-3.21-2.01-3.58s-1.72-1.872-2.142-2.36-1.33-1.163-1.907-1.484-.787-.492-2.167-1.024c-1.298-.62-2.487-.756-3.206-1.007l-1.66-.315z" class="X"/><path d="M246.867 439.223c-.546.074-.914.2-.738.686.22.626.528 1.193.528 1.193s-.834-.788-1.138-.58-.876.436-.613.7c.16.28.883 1.1.883 1.1l-1.098-.764c-.36.305-.642 1.056-.033 1.774l2.833 3.406c.3.482 1.18 1.163 1.662 1.43l1.92 1.195-1.22-.3c-.19-.082 1.74 2.025 2.13 2.148.428-.33 4.12-1.253 3.912 2.29-.204.706-.227 1.198-.227 1.198s.7.327.83.777.85.85 1.31 1.045 1.278.436 1.038.3.907.788 1.17.997.873-.67.104-1.714c-.267-.653-1.267-2.03-1.34-2.575s-1.5-2.578-2.05-3.224c-.077-.37.034-.572-.44-.963s-1.28-1.383-1.7-1.87-.855-.73-1.433-1.05-3.888-3.396-4.52-4.514c-.588-.642 2.89 2.872 3.343 3.187.75.576 1.1.558.114-.842-.4-.66-2.487-3.796-4.23-5.506l-1 .473z" class="T"/></g><path d="M245.145 442.74c.985.526 1.985 1.152 2.498 2.1s1.136 1.485 1.985 1.958l1.273.733" class="D G I"/><path d="M243.87 445.852c.417 1.215.804 2.122 1.686 2.896-.16.23-2.142-.644-3.067-.608 0 0 .038-.656.383-1.23s.998-1.06.998-1.06z" class="O"/><g class="E M"><path d="M246.422 470.7c.242.016 1.297.064 1.306-.04.07-.596.158-1 .654-1.533s1.333-1.712.125-2.342c-.688-.32-.984.514-.974.94-.003.418-.3 1.082-.46 1.766s-.582.97-.494 1.054l-.157.157zm2.994 2.138c-.033.102-.532.642-1.28.55-.548-.233.8 1.373 1.27.893.284-.55.1-1.5.008-1.443h0z"/><path d="M246.65 469.082c-.1-.01-1.116-.042-1.34-.028-.058.34-.223 1.35.104 1.574 1.17.805 1.8-1.466 1.637-1.524l-.402-.022zm3.65 1.7c.087-.335 1.098-1.882.185-2.4-1.096-.903-1.97 3.077-1.813 3.15-.001 0 1.406-.767 1.63-.76z"/><path d="M248.85 466.82l5.075.935s3.583.457 4.277-2.086c-.022-.773.804-3.112.804-3.112l1.057 1.106c.433 1.108-.313 1.15-.235 1.576s.478 1.197.187 2.167l-.543 1.532c-.225.52-1.702 1.355-2.134 1.473-1.115.324-3.276 1.26-7.802 3.876-.072-.384-.068-2.932-.085-3.1.127-.1.736-.56.93-1.196.207-.698-.68-1.586-1.217-.543-.258.5.26 2.06-.573 2.114-.725.03-.76-1.04-.75-1.484s.445-1.096.692-1.397c.554-.675.567-1.552.315-1.86h0zm12.256-9.498c-1.4.245.755 2.005-.303 3.196 0 0 .907 1.376 1.23 1.245 1.853-.758-.03-4.408-.927-4.442z"/></g></g><g transform="matrix(.163469 .091053 -.091053 .163469 255.76058 384.68181)" class="C E H"><path d="M209.93 335.68c1.764 2.942 3.53 6.475 4.414 11.186s3.434 11.302 10.007 12.957c5.3 1.474 10 3.827 11.2 7.95s2.023 9.38 2.02 9.288l8.195-11.596c-.092-1.55-.153-5.327-.152-9.743-.095-6.423-4.85-8-9.563-9.758s-10-3.958-11.465-6.608-5.228-7.208-7.288-8.976-7.357 5.3-7.357 5.3h0zm8.657 54.656c4.554 8.187 5.597 18.693 7.467 26.523 3.248-6.17 8.302-10.568 13.633-14.028.313-6.142 1.87-14.62 3.632-17.268 8.534-12.436 2.53-19.558 2.53-19.558-8.527 10.013-8.82 17.177-27.246 24.316l-.016.015z"/><path d="M210.477 415.63c-.232 2.03 2.485 9.094 7.087 9.4 4.52.308 7.125-3.168 7.95-7.23l-2.263-13.65-12.775 11.47z"/></g><g class="C D G"><path d="M255.914 446.578c.885.68 1.766 1.465 2.116 2.485s.875 1.654 1.634 2.26l1.134.933m-9.462-11.4c.885.682 2.595 1.072 3.1 2.485.35 1.02.876 1.654 1.635 2.26l1.133.933m-6.264-8.123c.885.68 3.15 1.662 3.497 2.683" class="I"/><path d="M257.933 442.49c.662.686 1.31 1.463 1.49 2.383s.552 1.526 1.117 2.135l.84.93" class="Y"/></g><path d="M235.98 457.268c.307.077 1.015 1.217 1.276 1.455.522.408.592.484 1.166.695 1.682.295 1.73.24 3.09.148 1.082-.016 1.475.095 2.57-.204.88-.258 2.257-.754 2.62-1.022.204-.138.74-.878.92-1.074.21-.305 3.308-7.477 3.443-6.888.06.263.978.62.873.868-.14.383-3.11 6.633-3.312 6.953-.18.207-.365.4-.575.54l-1.077.83c-.8.542-3.272 1.355-4.136 1.52-2.045.145-5.435.5-7.513-.035-.145-1.63.66-3.787.66-3.787z"/><path d="M298.026 393.05c.1.054.407.686.536.828.127.095.338.208.72.175.642-.193 1.716-1.154 2.312-1.302.942.1 1.686-.252 2.02-.44m-5.8 67.042c.098.054.407.686.535.827.128.096.34.2.72.176.642-.193 1.715-1.154 2.312-1.302.942.1 1.686-.252 2.02-.44m-53.25-3.167c.1.054.407.688.536.828.127.095.338.208.72.175.642-.193 1.716-1.154 2.312-1.302.942.1 1.686-.25 2.023-.44" class="C D G N"/><path d="M301.284 390.886c.018.012.087.07.108.15a1.08 1.08 0 0 1 .016.277c-.03.102-.046.193-.11.273a.61.61 0 0 1-.243.132c-.108.043-.178.058-.273.07-.096-.006-.206.024-.287.018-.054.024-.15.01-.212.038-.076.033-.126.043-.177.124-.073.068-.14.163-.2.245l-.2.244c-.08.05-.146.064-.254.037a1.47 1.47 0 0 1-.253-.119c-.024-.073-.076-.172-.094-.252l.076-.137" class="D G U V W"/><path d="M300.142 389.753c.788-.436 4.072-.216 2.112 1.815-.285.173-.074.432.098.29 2.238-2.445-1.288-2.87-2.152-2.38-.35.206-.068.293-.058.275h0z"/><path d="M301.396 457.077c.018.012.088.07.108.15a1.02 1.02 0 0 1 .016.277c-.03.104-.046.195-.11.273a.6.6 0 0 1-.243.131 1 1 0 0 1-.273.071c-.095-.007-.206.022-.287.018-.052.024-.148.012-.212.038-.076.034-.125.044-.176.125-.074.066-.14.163-.2.244l-.2.245c-.08.05-.147.062-.255.036a1.59 1.59 0 0 1-.253-.118c-.022-.073-.076-.172-.094-.253l.076-.136" class="D G U V W"/><path d="M300.253 455.945c.788-.438 4.073-.217 2.112 1.815-.285.172-.074.432.1.29 2.238-2.445-1.288-2.87-2.152-2.382-.352.206-.07.292-.06.275h0z"/><path d="M253.51 453.394c.018.012.087.07.108.15a1.02 1.02 0 0 1 .016.277c-.03.104-.046.195-.11.273a.62.62 0 0 1-.243.132c-.108.043-.178.058-.273.07-.096-.007-.206.022-.287.018-.054.024-.15.01-.212.037-.076.034-.125.044-.176.125-.074.066-.14.163-.2.244l-.2.245c-.08.05-.145.064-.254.037a1.66 1.66 0 0 1-.253-.119c-.022-.073-.076-.172-.094-.253l.076-.136" class="D G U V W"/><path d="M252.368 452.26c.788-.438 4.072-.217 2.112 1.815-.285.172-.074.432.098.29 2.238-2.445-1.288-2.87-2.152-2.382-.35.207-.068.293-.058.275h0z"/><g class="C"><path d="M302.617 407.266c-.197.3-.254 1.22.083 1.344.47.172 1.674 1.8 2.588 1.445 1-.377 4.697-1.918 4.697-2.73 0-.482 3.544-3.318 4.786-5.682.568-1.082 1.457-5.108-.414-6.135-1.843-1.012-4.886-1.333-5.06-.975-.22.45-.147-.078-1.4 2.778l-3.75 8.044c-.884.775-1.304 1.568-1.53 1.91z" class="E J"/><path d="M310.116 397.336c-.07-.578-.626-1.857-1.2-2.252l-.566-.397" class="D h"/><path d="M308.612 394.58c.08-.49.3-.366.606.046.44.78-.62 1.55-1.487 1.36-.512-.04-.466-.648.253-.54.64.16.65-.903.628-.866l.037.02-.037-.02z" class="E Q"/></g><g transform="matrix(.172466 -.072583 .072583 .172466 247.46633 419.74035)" class="C E H"><path d="M209.927 335.68c1.767 2.946 3.53 6.48 4.413 11.19s3.438 11.3 10.01 12.956c5.298 1.47 10.013 3.83 11.2 7.948 1.175 4.124 2.02 9.383 2.02 9.287l8.19-11.592c-.1-1.55-.152-5.33-.15-9.746-.093-6.426-4.852-7.993-9.563-9.755s-9.992-3.96-11.463-6.614c-1.474-2.647-5.23-7.206-7.288-8.973s-7.36 5.3-7.36 5.3h0z"/><path d="M225.49 417.56c4.26.133 8.865-11.27 14.194-14.728.314-6.142 1.867-14.62 3.635-17.275 8.534-12.433 2.527-19.553 2.527-19.553-4.603 5.407-27.998 24.28-30.098 28.69-4.475 9.407 8.88 19.263 9.742 22.865z"/></g><path d="M308.5 460.995c.08-.5.3-.367.606.046.44.78-.62 1.55-1.486 1.36-.512-.042-.466-.648.252-.54.64.16.65-.904.63-.866l.037.02-.037-.02zm-47.83-3.905c.08-.492.3-.367.606.046.44.78-.62 1.55-1.486 1.36-.512-.042-.466-.648.252-.54.64.162.65-.902.63-.865l.037.02-.037-.02z" class="C Q E"/><path d="M290.242 391.976l1.405.002c2.04-.004-.493.022.012-.056.494-.043.897-.217 1.35-.406l1.8-.604c-.45.28-1.05 1.23-1.6 1.232-1.026.172-2.078.05-3.115.08-.476 0-.952-.001-1.427.002l1.572-.25zm-47.356 62.51l1.405.002c2.04-.005-.493.022.012-.056.493-.043.958-.035 1.4-.225l1.8-.42c-.45.282-1.112.865-1.65.868-1.026.172-2.078.052-3.115.08-.476 0-.952-.001-1.427.002l1.572-.25zm47.674 4.42l1.405.002c2.04-.005-.493.022.012-.056.494-.044.958-.036 1.412-.225l1.8-.42c-.45.282-1.112.865-1.65.868-1.026.172-2.078.052-3.115.08-.476 0-.952-.001-1.427.002l1.573-.25z"/><g class="C B"><g class="F"><path d="M257.848 291.723l-2.232-.67c-1.095-.328-2.3-.205-3.125 0-1.022.256-.67 2.236-.67 3.126 0 1.34 3.215 1.34 4.24 1.34 1.515 0 1.97.038 2.68-.67s-.67-2.846-.893-3.126zm4.13 8.147c.305-.305-2.148 0-4.465 0-1.417 0-1.348 1.975-1.116 2.902.218.87 3.486 1.082 4.242.893 1.57-.393 1.46-1.204 2.232-2.232.67-.897.33-.828-.894-1.562z"/><path d="M254.164 290.94c-.408-.416-.532-1.334-.335-2.12.157-.625.855-.67 1.45-.67 1.048 0 2.165-.016 3.126.225.85.212 1.927.062 2.567.223.576.145.763.296 1.005.78.28.562.223 1.45.223 2.12 0 .534-.02 1.198-.112 1.562-.062.246-1.454.1-1.674.1-.612 0-1.2.033-1.786-.1-.305-.076-.682-.695-.78-.893-.18-.358-.75-.488-1.116-.67-.412-.207-1.058-.25-1.45-.447-.298-.15-.653-.112-1.117-.112zm22 11.052c-.345-.173-2.065.064-3.014.335-1.1.3-1.077 1.422-.893 2.344.14.698 1.52.77 2 .893.733.183 1.306.113 1.897.558.702.526 1.612 1.005 2.68 1.005 1.917 0 1.477-.416 2.232-1.675.23-.38 1.243-.796 1.564-1.116.654-.655-.122-1.35-.447-1.674-.424-.424-1.463-.562-1.897-.67-.686-.172-1.408-.1-2.12-.1-.684 0-1.338-.023-2 .1zm18.53-4.018c-1.098-.275-3.475-.1-5.024-.1-.737 0-1.34.407-1.34 1.116 0 1.14.38 1.295 1.45 1.562.895.223 1.48.183 2.232.558.57.285 1.5.334 2.12.334.767 0 1.175-.393 1.675-.893.468-.47-.016-1.313-.1-1.786-.105-.526-.404-.66-1.004-.78z"/><path d="M296.915 297.08c-.136-.68-3.308 1.734-5.024.447-.767-.576-.73-1.4-1.45-2.12-.5-.5.773-1.447 1.004-1.562l1.562-.78c.43-.215 2.05-.55 2.456-.447.68.17 1.608 1.028 2.232 1.34.777.4.335 1.52.335 2.232.001.346-.7.727-1.115.893zm1.45-3.795c0 .26-2.416-1.264-2.8-1.45-.664-.332-.414-.973-.223-1.45.42-1.053 1.042-1.004 2.455-1.004 1.132 0 1.52.46 1.897-.67.35-1.053.688-1.123 1.786-1.562.447-.18 1.393 0 1.897 0 .813 0 .8 1.226.67 1.786-.215.86-.405 1.298-1.005 1.897-.384.385-.78.668-1.005 1.116-.2.42-.94.68-1.34.78-.908.228-1.486.273-2.343.558z"/><path d="M300.82 293.285c-.594.15 1.2-.594 1.786-.445.633.158.96.512 1.34.893.43.43.42 1.24.558 1.785.117.47.58.666.446 1.34-.118.592-1.14.558-1.674.558-.866 0-1.583-.1-2.456-.1-.558 0-1.242-.227-1.674-.336-.53-.133-.78-.7-.78-1.228 0-.714-.2-1.347.223-1.897.096-.128 2.418-.484 2.232-.558zm-2.566 7.59c0-.187 3.462.625 4.242.78.658.132 1.373.514 1.674 1.116.387.773-.282 1.562-.893 1.562-1.232 0-1.614-.2-2.8-.446l-2.232-.558c-1.237-.413-1.072-.4-.78-1.564.06-.245.732-.842.78-.892z"/></g><path d="M267.788 300.584c.305-.313-2.146 0-4.465 0-1.416 0-1.348 2.026-1.116 2.98.22.895 3.487 1.1 4.242.916 1.57-.402 1.462-1.236 2.232-2.29.672-.92.33-.85-.894-1.604z" stroke-width=".266"/><g class="F"><path d="M262.32 303.032c.305-.305-2.148 0-4.465 0-1.417 0-1.35 1.975-1.116 2.902.218.872 3.486 1.08 4.24.893 1.57-.393 1.462-1.205 2.232-2.232.673-.896.33-.828-.893-1.563z"/><path d="M256.068 305.7c.305-.305-2.148 0-4.465 0-1.417 0-1.347 1.975-1.116 2.902.218.87 3.486 1.082 4.24.893 1.57-.393 1.462-1.204 2.232-2.232.673-.895.33-.828-.893-1.562zm26.12-14.733c.305-.305-2.148 0-4.465 0-1.417 0-1.347 1.975-1.116 2.9.218.872 3.486 1.082 4.24.893 1.57-.393 1.462-1.204 2.232-2.232.672-.895.33-.828-.893-1.562zm-13.506-6.14c.305-.305-2.148 0-4.465 0-1.417 0-1.347 1.975-1.116 2.902.218.87 3.486 1.082 4.24.893 1.57-.393 1.462-1.204 2.232-2.232.672-.895.33-.828-.893-1.562z"/><use xlink:href="#C"/><path d="M237.03 294.848c-.38-.102-1.27-.045-1.897.112-.6.147-.842.392-1.283.503-.465.115-.777.608-1.005.836-.433.433-.51.195.78.67.608.223.966.478 1.284.558.492.123.805 0 1.507 0 .535 0 1.238-.062 1.562-.223.658-.33.67-.54.67-1.34 0-.762-.216-.834-.78-1.117-.166-.08-.65.001-.838.001z"/><path d="M238.4 296.856c-.38-.102-1.27-.045-1.897.112-.59.147-.842.392-1.284.502-.464.116-.775.608-1.004.837-.433.433-.51.195.78.67.606.223.966.478 1.283.558.493.123.807 0 1.507 0 .536 0 1.24-.062 1.564-.223.658-.33.67-.54.67-1.34 0-.763-.215-.834-.78-1.117-.167-.083-.652.001-.838.001z"/><path d="M239.74 299.088c-.382-.102-1.27-.045-1.9.11-.6.148-.84.393-1.283.503-.464.116-.777.608-1.005.837-.432.433-.51.195.78.67.608.223.966.478 1.284.558.492.123.807 0 1.507 0 .535 0 1.24-.062 1.562-.223.658-.33.67-.54.67-1.34 0-.763-.215-.834-.78-1.117-.166-.083-.65.001-.836.001z"/><use xlink:href="#D"/><path d="M244.533 303.344c-.393-.04-1.26.157-1.855.4-.56.24-.77.52-1.188.7-.44.2-.67.724-.86.985-.358.496-.473.273.878.538.635.124 1.03.32 1.355.347.506.044.797-.128 1.488-.24.528-.084 1.214-.256 1.508-.467.598-.43.575-.64.45-1.43-.12-.752-.345-.788-.948-.978-.178-.055-.644.104-.828.132zm55.98-12.404c.382-.102 1.27-.045 1.897.112.6.147.842.392 1.284.502.464.116.775.608 1.004.837.433.433.5.195-.78.67-.606.223-.966.478-1.283.558-.492.123-.807 0-1.507 0-.535 0-1.24-.062-1.562-.223-.66-.33-.67-.54-.67-1.34 0-.762.215-.834.78-1.117.166-.08.65.001.837.001z"/><use xlink:href="#D" x="-3.348" y="-11.944"/><path d="M240.23 287.252c-.362-.158-1.25-.23-1.893-.168-.606.058-.89.263-1.344.31-.476.046-.857.488-1.116.68-.492.365-.534.118.675.777.568.31.885.615 1.188.74.47.195.798.12 1.5.22.53.08 1.235.12 1.58.01.7-.23.74-.436.86-1.228.112-.753-.1-.855-.608-1.22-.153-.106-.646-.094-.83-.122z"/><path d="M243.587 285.397c-.347-.2-1.224-.34-1.87-.337-.608.005-.9.183-1.365.187-.48.004-.897.4-1.174.578-.522.32-.542.07.602.834.538.36.827.692 1.117.844.45.237.785.2 1.465.353.52.127 1.22.233 1.57.15.718-.166.777-.367.965-1.144.18-.74-.012-.86-.497-1.27-.142-.12-.632-.153-.813-.195zm3.025 19.515c-.395-.004-1.24.275-1.8.585-.534.3-.716.6-1.116.8-.42.23-.598.785-.762 1.064-.3.526-.445.317.925.45.644.064 1.055.22 1.382.218.508-.005.78-.202 1.46-.38.518-.134 1.184-.37 1.456-.608.554-.484.513-.7.3-1.465-.2-.737-.417-.752-1.036-.885-.18-.038-.63.164-.8.2z"/><path d="M247.193 306.898c-.395-.003-1.24.275-1.8.586-.534.3-.717.6-1.116.8-.42.23-.598.783-.763 1.062-.3.528-.445.317.925.45.644.064 1.056.22 1.383.22.508-.005.78-.203 1.46-.38.518-.135 1.184-.37 1.456-.6.554-.484.513-.7.3-1.465-.2-.736-.417-.752-1.037-.883-.182-.038-.63.164-.8.2zm19.87 4.69c-.395-.003-1.24.275-1.8.585-.534.3-.716.6-1.116.8-.42.23-.598.785-.762 1.062-.3.528-.445.317.924.452.644.064 1.056.22 1.383.218.508-.004.78-.203 1.46-.38.518-.135 1.184-.37 1.456-.608.554-.484.513-.7.3-1.465-.2-.737-.417-.753-1.036-.883-.183-.04-.63.163-.8.2z"/><path d="M263.043 310.918c-.395-.004-1.24.275-1.81.584-.534.29-.716.59-1.116.81-.42.23-.598.785-.762 1.062-.31.528-.445.317.925.453.644.062 1.055.22 1.383.217.507-.004.78-.202 1.458-.38.518-.134 1.184-.37 1.457-.608.554-.484.512-.7.31-1.464-.19-.738-.418-.753-1.037-.885-.182-.04-.63.164-.81.21z"/><path d="M259.248 310.248c-.395-.004-1.24.275-1.81.584-.534.29-.716.592-1.116.81-.42.23-.598.785-.762 1.064-.31.526-.445.317.925.452.644.062 1.055.22 1.382.217.508-.004.78-.202 1.46-.378.518-.135 1.184-.37 1.456-.608.554-.484.513-.69.31-1.465-.19-.738-.417-.753-1.036-.885-.182-.04-.63.163-.8.2z"/><path d="M256.904 308.238c-.395-.003-1.24.275-1.8.585-.534.3-.716.6-1.116.8-.42.23-.598.783-.763 1.062-.3.526-.445.317.925.45.644.064 1.056.22 1.383.218.508-.005.78-.202 1.46-.378.518-.135 1.184-.37 1.456-.6.554-.484.513-.7.3-1.465-.2-.737-.417-.752-1.036-.883-.182-.038-.63.164-.8.2zm-7.106-1.053c-.355.172-1 .797-1.363 1.326-.35.497-.38.845-.642 1.22-.275.393-.2.97-.212 1.3-.044.6-.26.482 1.03-.005.604-.23 1.043-.27 1.336-.418.452-.23.6-.528 1.138-.985.405-.35.897-.857 1.036-1.192.282-.68.153-.847-.37-1.45-.5-.576-.708-.5-1.32-.334-.18.047-.5.427-.632.55zm51.607-7.205c.38-.102 1.27-.046 1.897.1.6.147.84.392 1.283.503.465.115.777.608 1.005.836.433.434.5.195-.78.67-.608.224-.966.478-1.284.558-.492.123-.805 0-1.507 0-.535 0-1.238-.062-1.562-.223-.658-.33-.67-.54-.67-1.34 0-.762.216-.834.78-1.116.166-.082.65.001.838.001z"/><path d="M301.132 302.72c.393.026 1.217.367 1.76.717.5.33.67.642 1.053.9.402.26.54.826.682 1.116.27.55.42.35-.956.382-.646.016-1.068.142-1.395.114-.506-.04-.764-.26-1.427-.484-.507-.173-1.154-.458-1.407-.715-.518-.524-.46-.727-.202-1.484.245-.72.472-.72 1.098-.805.184-.025.617.2.793.27zm-26.162 8.467c.385.1 1.142.558 1.622.992.45.408.558.742.895 1.048.355.32.398.902.492 1.212.178.584.36.412-1.005.223-.64-.1-1.077-.033-1.395-.112-.493-.123-.712-.38-1.33-.7-.472-.252-1.064-.636-1.273-.93-.426-.602-.336-.793.04-1.498.36-.672.582-.633 1.215-.616.187.004.574.306.738.393z"/><path d="M299.508 305.115c.38-.102 1.27-.045 1.897.112.6.147.84.392 1.283.502.465.116.777.608 1.005.837.432.433.51.195-.78.67-.608.223-.966.478-1.284.558-.492.123-.807 0-1.507 0-.535 0-1.238-.062-1.562-.224-.658-.33-.67-.54-.67-1.34 0-.762.216-.834.78-1.117.166-.08.65.001.838.001z"/><path d="M296.364 306.237c.393.028 1.215.373 1.756.727.51.332.667.644 1.048.895.4.262.534.83.676 1.12.267.55.42.35-.958.377-.646.012-1.07.137-1.395.107-.506-.045-.762-.263-1.424-.493-.506-.175-1.15-.464-1.403-.723-.514-.526-.456-.73-.195-1.485.25-.72.476-.717 1.104-.8.184-.024.615.214.79.274z"/><path d="M294.122 307.882c.395.028 1.216.373 1.757.727.5.332.667.644 1.05.895.4.262.533.83.675 1.12.267.55.42.35-.958.377-.646.012-1.07.137-1.395.107-.506-.045-.762-.263-1.424-.493-.506-.175-1.15-.464-1.403-.723-.514-.526-.456-.73-.195-1.485.25-.72.476-.717 1.104-.8.184-.024.615.212.8.274z"/><path d="M290.104 308.217c.393.028 1.215.373 1.756.727.5.333.667.646 1.05.895.4.262.534.83.675 1.12.267.55.42.35-.957.377-.648.012-1.07.135-1.397.106-.505-.045-.762-.265-1.424-.493-.506-.176-1.15-.464-1.403-.723-.514-.528-.456-.73-.195-1.484.25-.72.476-.717 1.104-.8.185-.025.615.213.79.274z"/><path d="M287.984 309.9c.393.028 1.215.373 1.757.727.5.334.666.646 1.048.895.4.26.534.83.675 1.12.267.55.42.35-.957.377-.646.012-1.07.136-1.395.107-.506-.045-.763-.265-1.424-.494-.506-.176-1.15-.463-1.403-.723-.514-.526-.456-.73-.195-1.484.25-.72.476-.717 1.104-.8.184-.024.614.213.8.274zm-9.042 1.34c.393.028 1.215.373 1.756.727.5.333.667.646 1.05.895.4.26.534.83.675 1.12.267.55.42.35-.957.377-.648.012-1.07.136-1.397.106-.505-.045-.762-.265-1.424-.493-.506-.176-1.15-.464-1.403-.723-.514-.528-.456-.73-.195-1.484.25-.72.476-.717 1.104-.8.185-.026.615.213.8.273z"/><path d="M284.407 308.808c.35.185.96.833 1.31 1.376.33.5.347.86.596 1.242.26.402.152.975.164 1.298.02.61.24.49-1.028-.043-.596-.25-1.033-.31-1.32-.468-.444-.246-.6-.55-1.102-1.028-.392-.365-.864-.89-.99-1.23-.257-.69-.12-.85.425-1.435.52-.556.726-.463 1.332-.283.18.054.477.445.613.572z"/><path d="M281.973 309.646c.35.184.963.83 1.315 1.372.333.51.35.86.6 1.24.262.4.155.975.168 1.297.022.61.243.5-1.028-.04-.598-.248-1.034-.305-1.32-.463-.444-.244-.59-.55-1.104-1.026-.393-.363-.866-.887-.994-1.226-.26-.69-.124-.85.42-1.437.518-.558.725-.465 1.332-.287.18.052.478.442.613.57z"/><use xlink:href="#E"/><use xlink:href="#F"/><use xlink:href="#F" x="3.349"/></g><use xlink:href="#G" class="N"/><g class="F"><path d="M268.203 290.606c-.38-.104-1.27-.045-1.897.11-.59.147-.842.392-1.284.502-.464.116-.775.6-1.004.838-.433.432-.51.195.78.67.606.223.966.478 1.283.558.493.123.807 0 1.507 0 .536 0 1.24-.062 1.562-.223.66-.33.67-.54.67-1.34 0-.762-.215-.832-.78-1.115-.166-.085-.65 0-.837 0z"/><path d="M268.092 287.926c-.382-.102-1.27-.045-1.9.112-.6.147-.84.392-1.283.502-.464.116-.777.608-1.005.837-.432.433-.51.195.78.67.608.223.966.478 1.284.558.492.123.807 0 1.507 0 .535 0 1.24-.062 1.562-.223.658-.33.67-.54.67-1.34 0-.763-.215-.834-.78-1.117-.166-.08-.65.001-.836.001z"/></g><g class="N"><use xlink:href="#H"/><path d="M264.4 286.742c.24-.248-1.68 0-3.496 0-1.1 0-1.056 1.614-.874 2.37.17.712 2.73.883 3.322.73 1.23-.32 1.144-.984 1.748-1.823.526-.73.26-.676-.7-1.276z"/><use xlink:href="#I"/><use xlink:href="#J"/><use xlink:href="#H" x="-4.243" y="-12.334"/><use xlink:href="#I" x="1.117" y="2.233"/><path d="M251.564 304.38c.24-.25-1.682 0-3.496 0-1.1 0-1.056 1.612-.874 2.37.17.712 2.73.883 3.322.73 1.23-.32 1.144-.982 1.748-1.822.526-.732.26-.676-.7-1.276z"/></g><path d="M298.82 292.205c.305-.305-2.146 0-4.464 0-1.417 0-1.35 1.975-1.116 2.902.218.87 3.486 1.082 4.24.893 1.57-.393 1.462-1.204 2.232-2.232.672-.897.33-.828-.893-1.562zm-47.776 4.13c-.38-.104-1.27-.046-1.897.1-.6.147-.84.4-1.283.502-.465.116-.777.6-1.005.838-.432.432-.5.193.78.67.608.223.966.478 1.284.558.492.123.805 0 1.507 0 .535 0 1.238-.06 1.562-.223.658-.33.67-.54.67-1.34 0-.762-.216-.832-.78-1.115-.166-.084-.65 0-.838 0zm-6.407-8.962c-.38-.102-1.27-.045-1.897.112-.6.147-.84.4-1.283.502-.465.115-.777.608-1.005.837-.433.433-.5.195.78.67.608.223.966.478 1.284.558.492.123.805 0 1.507 0 .535 0 1.238-.06 1.562-.223.658-.33.67-.54.67-1.34 0-.762-.216-.833-.78-1.116-.166-.083-.65 0-.838 0zm24.72 22.853c-.38-.102-1.27-.045-1.897.1-.6.15-.842.393-1.284.502-.464.117-.775.6-1.004.838-.433.432-.5.195.78.67.608.223.966.478 1.283.558.493.124.807 0 1.507 0 .536 0 1.24-.062 1.564-.223.658-.328.67-.54.67-1.34 0-.762-.215-.833-.78-1.116-.167-.083-.65 0-.838 0zm-20.522-8.05c-.38-.102-1.27-.045-1.897.1-.6.15-.84.393-1.283.503-.465.116-.777.608-1.005.837-.432.432-.5.195.78.67.608.223.966.478 1.284.558.492.123.805 0 1.507 0 .535 0 1.238-.062 1.562-.223.658-.33.67-.54.67-1.34 0-.762-.216-.833-.78-1.116-.166-.083-.65 0-.838 0z" class="F"/><g class="N"><path d="M271.578 307.68c.24-.25-1.682 0-3.496 0-1.1 0-1.056 1.612-.874 2.37.17.712 2.73.883 3.322.73 1.23-.32 1.144-.983 1.748-1.823.526-.73.26-.676-.7-1.275zm6.314.316c.24-.25-1.682 0-3.496 0-1.1 0-1.056 1.612-.874 2.37.17.7 2.73.883 3.322.73 1.23-.32 1.144-.983 1.748-1.822.526-.733.26-.676-.7-1.276z"/><path d="M278.05 304.838c.24-.248-1.682 0-3.497 0-1.1 0-1.056 1.614-.874 2.37.17.712 2.73.883 3.322.73 1.23-.32 1.144-.984 1.748-1.823.527-.73.26-.676-.7-1.276z"/><path d="M273.156 304.838c.24-.248-1.682 0-3.497 0-1.1 0-1.055 1.614-.874 2.37.17.712 2.73.883 3.322.73 1.23-.32 1.144-.984 1.748-1.823.527-.73.26-.676-.7-1.276zm4.42-23.204c.24-.25-1.682 0-3.497 0-1.1 0-1.055 1.612-.874 2.37.17.712 2.73.883 3.322.73 1.23-.32 1.144-.984 1.748-1.822.527-.733.26-.677-.7-1.277zm5.13 3.323c.24-.25-1.68 0-3.496 0-1.1 0-1.056 1.612-.874 2.37.17.7 2.73.883 3.322.73 1.23-.32 1.144-.982 1.75-1.822.526-.732.258-.676-.7-1.276z"/><path d="M281.207 283.213c.24-.25-1.682 0-3.497 0-1.1 0-1.056 1.612-.874 2.37.17.71 2.73.883 3.322.73 1.23-.32 1.144-.983 1.748-1.822.527-.733.26-.676-.7-1.276z"/><use xlink:href="#H" x="19.31" y="-19.847"/><path d="M263.37 283.37c.24-.25-1.682 0-3.496 0-1.1 0-1.056 1.612-.875 2.37.17.71 2.73.883 3.322.73 1.23-.32 1.144-.983 1.748-1.822.526-.733.26-.677-.7-1.277z"/><use xlink:href="#J" x="-1.888" y="-11.613"/><path d="M288.31 307.522c.24-.248-1.682 0-3.497 0-1.1 0-1.056 1.614-.874 2.37.17.712 2.73.883 3.322.73 1.23-.32 1.146-.984 1.75-1.823.526-.73.26-.676-.7-1.276z"/></g><g class="F"><path d="M253.9 283.344c.305-.305-2.148 0-4.465 0-1.417 0-1.35 1.975-1.116 2.902.218.87 3.486 1.082 4.24.893 1.57-.393 1.462-1.204 2.232-2.232.672-.896.33-.828-.893-1.562zm-2.516 9.786c.305-.305-2.146 0-4.465 0-1.417 0-1.347 1.975-1.116 2.902.218.87 3.486 1.082 4.242.893 1.57-.393 1.46-1.204 2.232-2.232.67-.897.33-.828-.894-1.562zm16.9 1.895c.305-.305-2.148 0-4.465 0-1.417 0-1.348 1.975-1.116 2.902.218.87 3.486 1.082 4.242.893 1.57-.393 1.46-1.205 2.232-2.232.672-.896.33-.828-.894-1.562z"/><use xlink:href="#C" x="-15.688" y="-5.824"/><path d="M279.956 286.66c.305-.305-2.148 0-4.465 0-1.417 0-1.35 1.975-1.116 2.9.218.872 3.486 1.082 4.24.893 1.57-.393 1.462-1.204 2.232-2.232.672-.895.33-.828-.893-1.562z"/><path d="M284.85 287.607c.305-.305-2.148 0-4.465 0-1.417 0-1.35 1.975-1.116 2.9.218.872 3.486 1.082 4.24.893 1.57-.393 1.462-1.204 2.232-2.232.672-.897.33-.828-.893-1.562z"/></g><path d="M281.377 294.512c.305-.26-2.148 0-4.465 0-1.417 0-1.35 1.682-1.116 2.473.218.742 3.486.92 4.24.76 1.57-.334 1.462-1.026 2.232-1.9.672-.764.33-.706-.893-1.332z" class="b"/><g class="F"><use xlink:href="#C" x="-8.111" y="-4.876"/><path d="M275.187 284.18c.38-.102 1.27-.046 1.897.1.6.147.842.392 1.283.503.465.115.777.608 1.005.836.433.434.5.195-.78.67-.608.223-.966.478-1.284.558-.492.123-.805 0-1.507 0-.535 0-1.238-.062-1.562-.223-.658-.33-.67-.54-.67-1.34 0-.762.216-.834.783-1.116.165-.083.65.001.836.001zm.473 5.2c.38-.102 1.27-.045 1.897.112.6.146.84.4 1.283.502.465.115.777.608 1.005.837.433.433.5.195-.78.67-.608.223-.966.478-1.284.558-.492.123-.805 0-1.507 0-.535 0-1.238-.06-1.562-.223-.658-.33-.67-.54-.67-1.34 0-.762.216-.833.78-1.116.167-.083.65 0 .838 0zm22.397 6.462c.38-.102 1.27-.045 1.897.1.6.147.84.392 1.283.502.465.116.777.6 1.005.838.433.432.5.195-.78.67-.608.223-.966.478-1.284.558-.492.123-.805 0-1.507 0-.535 0-1.238-.062-1.562-.223-.658-.33-.67-.54-.67-1.34 0-.762.215-.832.78-1.115.166-.084.65 0 .837 0z"/><use xlink:href="#K"/><path d="M294.596 304.78c.38-.104 1.27-.045 1.897.11.6.147.84.392 1.283.502.465.116.777.6 1.005.838.432.432.51.195-.78.67-.608.223-.966.478-1.284.558-.492.123-.805 0-1.507 0-.535 0-1.238-.062-1.562-.223-.658-.33-.67-.54-.67-1.34 0-.762.216-.832.78-1.115.167-.084.65 0 .838 0z"/><path d="M296.16 302.77c.38-.102 1.27-.045 1.897.1.6.148.84.393 1.283.503.465.116.777.608 1.005.837.432.433.5.195-.78.67-.608.223-.966.478-1.283.558-.493.123-.807 0-1.508 0-.535 0-1.238-.062-1.562-.223-.658-.33-.67-.54-.67-1.34 0-.763.216-.834.783-1.117.166-.082.65.001.837.001zm1.562-4.575c.38-.102 1.27-.045 1.897.1.6.148.842.393 1.283.502.465.117.777.6 1.005.838.433.432.5.195-.78.67-.608.223-.966.478-1.284.558-.492.124-.805 0-1.506 0-.536 0-1.24-.062-1.564-.223-.658-.328-.67-.54-.67-1.34 0-.762.215-.833.78-1.116.166-.083.65 0 .838 0z"/><path d="M294.596 300.316c.38-.102 1.27-.045 1.897.1.6.147.84.392 1.283.502.465.116.777.6 1.005.838.432.432.5.195-.78.67-.608.223-.966.478-1.284.558-.492.123-.805 0-1.507 0-.535 0-1.238-.062-1.562-.223-.658-.33-.67-.54-.67-1.34 0-.762.216-.832.78-1.115.167-.084.65 0 .838 0zm-4.8 5.804c.38-.102 1.27-.045 1.897.112.6.147.842.392 1.283.502.465.116.777.608 1.005.837.433.433.5.195-.78.67-.608.223-.966.478-1.284.558-.492.123-.805 0-1.507 0-.535 0-1.238-.06-1.562-.223-.658-.33-.67-.54-.67-1.34 0-.762.216-.833.783-1.116.165-.083.65 0 .836 0zm6.585-18.864c.382-.102 1.27-.045 1.9.112.6.147.84.4 1.283.503.464.115.775.608 1.004.836.433.433.5.195-.78.67-.606.223-.966.478-1.283.558-.492.123-.807 0-1.507 0-.535 0-1.24-.062-1.562-.223-.658-.33-.67-.54-.67-1.34 0-.762.215-.834.78-1.117.166-.08.65.001.836.001zm-13.172 8.26c.38-.102 1.27-.046 1.897.1.6.147.842.392 1.284.503.464.115.775.608 1.004.837.433.433.5.195-.78.67-.606.223-.966.478-1.283.558-.493.123-.807 0-1.507 0-.536 0-1.24-.062-1.562-.223-.66-.33-.67-.54-.67-1.34 0-.762.215-.834.78-1.116.166-.083.65 0 .837 0z"/></g><g class="N"><path d="M289.07 291.43c.24-.25-1.682 0-3.497 0-1.1 0-1.056 1.612-.874 2.37.17.7 2.73.883 3.322.73 1.23-.32 1.144-.983 1.75-1.822.526-.733.26-.677-.7-1.277zm1.673-4.576c.24-.25-1.682 0-3.496 0-1.1 0-1.056 1.612-.874 2.37.17.712 2.73.883 3.322.73 1.23-.32 1.144-.984 1.748-1.822.526-.733.26-.677-.7-1.277z"/><use xlink:href="#G" x="29.132"/><path d="M286.837 303.82c.24-.248-1.682 0-3.497 0-1.1 0-1.056 1.614-.874 2.37.17.712 2.73.883 3.322.73 1.23-.32 1.146-.983 1.75-1.822.526-.732.258-.677-.7-1.277z"/></g><g class="F"><use xlink:href="#E" x="-14.623"/><path d="M282.987 293.172c.382-.102 1.27-.045 1.9.112.6.147.84.392 1.283.502.465.116.777.608 1.005.837.432.433.5.195-.78.67-.608.223-.966.478-1.284.558-.492.123-.807 0-1.507 0-.535 0-1.238-.062-1.562-.223-.658-.33-.67-.54-.67-1.34 0-.762.215-.834.78-1.117.166-.08.65.001.836.001zm3.015-4.018c.38-.102 1.27-.045 1.897.1.6.147.84.392 1.283.502.465.117.777.6 1.005.838.432.432.5.195-.78.67-.608.223-.966.478-1.284.558-.492.123-.807 0-1.507 0-.535 0-1.238-.062-1.562-.223-.658-.33-.67-.54-.67-1.34 0-.763.216-.833.78-1.116.166-.084.65 0 .838 0z"/><path d="M288.235 293.842c.38-.102 1.27-.045 1.897.1.6.148.84.393 1.283.503.465.116.777.608 1.005.837.432.433.5.195-.78.67-.608.223-.966.478-1.284.558-.492.123-.807 0-1.507 0-.535 0-1.238-.062-1.562-.223-.658-.33-.67-.54-.67-1.34 0-.763.216-.834.78-1.117.166-.083.65.001.838.001zm-.113-8.93c.382-.102 1.27-.045 1.897.1.6.15.842.393 1.284.503.464.116.775.608 1.004.837.433.433.5.195-.78.67-.606.223-.966.478-1.283.558-.492.123-.807 0-1.507 0-.535 0-1.24-.062-1.562-.223-.66-.33-.67-.54-.67-1.34 0-.763.215-.834.78-1.117.166-.083.65.001.837.001z"/><path d="M292.922 285.47c.38-.102 1.27-.045 1.897.1.6.15.842.393 1.284.502.464.117.775.6 1.004.838.433.432.5.195-.78.67-.606.223-.966.478-1.283.558-.492.123-.807 0-1.507 0-.536 0-1.24-.062-1.562-.223-.66-.328-.67-.54-.67-1.34 0-.763.215-.833.78-1.116.166-.084.65 0 .837 0zM243.9 296.488c-.345-.2-1.224-.342-1.87-.337-.608.005-.9.183-1.367.187-.478.004-.897.4-1.173.578-.522.32-.542.07.602.834.538.36.826.692 1.117.844.45.237.783.2 1.464.355.522.126 1.22.23 1.572.15.717-.165.777-.367.965-1.144.18-.74-.014-.86-.497-1.27-.143-.12-.633-.153-.815-.196z"/><path d="M247.48 284.545c-.347-.2-1.224-.342-1.87-.337-.608.005-.9.183-1.365.187-.478.004-.897.4-1.173.578-.522.32-.542.07.602.834.537.36.826.692 1.116.844.45.237.785.2 1.465.355.52.126 1.22.23 1.57.15.718-.165.78-.367.966-1.144.18-.74-.014-.86-.498-1.27-.14-.12-.632-.153-.813-.196zm.224 14.622c-.347-.2-1.224-.342-1.87-.337-.608.005-.9.184-1.365.187-.48.004-.897.4-1.174.578-.522.32-.542.068.602.834.538.36.826.7 1.117.844.45.235.783.2 1.465.353.52.126 1.22.23 1.57.15.717-.166.777-.368.965-1.146.18-.74-.014-.86-.497-1.27-.142-.118-.632-.15-.813-.195z"/><path d="M253.062 298.943c-.347-.2-1.224-.342-1.87-.336-.608.004-.9.183-1.365.187-.478.004-.897.4-1.173.578-.522.32-.542.07.602.834.537.36.826.692 1.116.845.45.235.785.2 1.465.353.52.125 1.22.23 1.57.15.718-.165.78-.368.966-1.146.18-.74-.014-.86-.498-1.268-.14-.12-.632-.153-.813-.197zm1.116 3.014c-.347-.2-1.224-.34-1.87-.336-.608.004-.9.184-1.365.187-.478.004-.897.4-1.173.578-.522.32-.542.07.602.835.537.36.826.7 1.116.844.45.235.785.2 1.465.353.52.125 1.22.23 1.57.15.718-.165.78-.368.966-1.146.18-.74-.014-.86-.498-1.268-.14-.12-.632-.153-.813-.197zm-1.675-12.724c-.345-.2-1.224-.342-1.87-.336-.608.004-.9.183-1.367.187-.478.004-.897.4-1.173.578-.522.32-.542.07.602.834.538.36.826.692 1.117.844.45.235.783.2 1.465.355.52.125 1.218.23 1.57.15.717-.165.777-.368.965-1.146.18-.74-.014-.86-.497-1.268-.142-.12-.632-.153-.814-.197z"/><path d="M253.62 286.666c-.345-.2-1.224-.343-1.87-.338-.608.006-.9.184-1.367.187-.478.004-.897.4-1.173.578-.522.32-.542.07.602.834.538.36.826.692 1.117.843.45.237.783.2 1.465.353.52.126 1.218.23 1.57.15.717-.166.777-.367.965-1.144.18-.74-.014-.86-.497-1.27-.142-.118-.632-.15-.814-.194zm-9.153 6.14c-.347-.2-1.224-.342-1.87-.337-.608.005-.9.184-1.365.187-.478.004-.897.4-1.173.578-.522.32-.542.07.602.835.538.36.827.692 1.117.844.45.235.784.2 1.465.353.52.126 1.22.23 1.57.15.718-.165.78-.367.966-1.144.18-.74-.014-.86-.498-1.27-.142-.12-.632-.153-.813-.196z"/><path d="M245.918 295.26c-.347-.2-1.224-.342-1.87-.336-.608.004-.9.184-1.365.187-.478.004-.897.4-1.173.578-.522.32-.543.07.602.835.538.36.827.7 1.117.844.45.235.785.2 1.465.353.52.125 1.22.23 1.57.15.718-.165.777-.368.966-1.146.18-.74-.014-.86-.498-1.268-.142-.12-.632-.15-.813-.197zM270.63 303c-.4-.054-1.267.1-1.87.343-.568.22-.787.5-1.212.655-.446.173-.695.7-.895.954-.376.482-.482.256.857.568.63.147 1.018.357 1.343.397.504.062.8-.098 1.495-.185.532-.066 1.223-.213 1.523-.413.613-.408.598-.618.5-1.412-.094-.756-.315-.8-.912-1.012-.175-.06-.646.08-.83.104z"/><path d="M269.58 301.176c-.347-.19-1.224-.342-1.87-.336-.608.004-.9.183-1.367.187-.478.004-.897.41-1.173.578-.522.32-.542.07.602.834.537.36.826.692 1.116.845.45.235.785.19 1.465.353.52.125 1.22.23 1.57.15.718-.165.78-.368.966-1.146.18-.74-.014-.86-.497-1.268-.142-.12-.633-.153-.814-.197z"/></g></g><path d="M269.197 263.033v5.7h-7.42v4.143h7.17l-.005 20 5.06.084.248-20.083h7.228l-.058-4.143-7.506-.014.088-5.686h-4.807z" class="P"/><g class="B C F"><path d="M258.978 286.33c-.347-.2-1.224-.34-1.87-.336-.608.004-.9.184-1.365.187-.478.004-.897.4-1.173.578-.522.32-.542.07.602.835.538.36.827.7 1.117.844.45.235.785.2 1.465.353.52.125 1.22.23 1.57.15.718-.165.777-.368.966-1.146.18-.74-.014-.86-.498-1.268-.142-.12-.632-.15-.813-.197zM244.7 300.283c-.347-.2-1.224-.342-1.87-.337-.608.005-.9.184-1.367.187-.478.004-.897.4-1.173.578-.522.32-.542.07.602.835.538.36.826.692 1.117.844.45.235.783.2 1.465.353.52.126 1.22.23 1.57.15.717-.165.777-.367.965-1.144.18-.74-.014-.86-.497-1.27-.142-.12-.632-.152-.813-.196zm17.98 6.757c-.393-.024-1.253.212-1.836.492-.548.263-.745.554-1.155.752-.432.207-.636.752-.815 1.022-.336.5-.46.294.9.498.64.096 1.043.273 1.37.287.507.02.8-.163 1.475-.305.524-.108 1.2-.3 1.485-.534.578-.456.547-.664.385-1.447-.153-.746-.38-.773-1-.935-.18-.048-.637.132-.82.17z"/><path d="M266.12 308.767c-.347-.2-1.224-.343-1.87-.337-.608.005-.9.184-1.365.187-.478.003-.897.408-1.173.577-.522.32-.542.07.602.835.537.36.826.7 1.116.844.45.235.784.2 1.465.353.52.125 1.22.23 1.57.15.718-.165.78-.368.966-1.144.18-.74-.014-.86-.498-1.27-.14-.12-.632-.152-.813-.196zm1.006-10.167c-.347-.2-1.224-.343-1.87-.338-.608.006-.9.184-1.365.187-.478.004-.897.4-1.174.578-.522.32-.542.07.602.834.538.36.827.692 1.117.844.45.237.785.2 1.465.353.52.126 1.22.23 1.57.15.718-.166.777-.367.965-1.144.18-.74-.012-.86-.497-1.27-.142-.12-.632-.152-.813-.195zm-5.926-2c-.347-.2-1.224-.342-1.87-.337-.608.005-.9.184-1.365.187-.478.004-.897.4-1.173.578-.522.32-.542.07.602.835.538.36.827.692 1.117.844.45.235.784.2 1.465.353.52.126 1.22.23 1.57.15.718-.165.777-.367.966-1.144.18-.74-.014-.86-.498-1.268-.14-.12-.632-.153-.813-.197zm14.92 5.55c.36.162 1.246.248 1.9.195.606-.052.893-.252 1.348-.3.476-.04.863-.476 1.126-.665.495-.357.535-.1-.664-.786-.564-.32-.877-.627-1.178-.757-.467-.2-.796-.13-1.487-.24-.53-.086-1.233-.138-1.58-.03-.702.22-.747.425-.875 1.215-.122.752.08.855.592 1.226.15.108.642.104.826.134zm-9.887-9.68c-.345-.2-1.224-.34-1.87-.337-.608.005-.9.184-1.367.187-.478.004-.897.4-1.173.578-.522.32-.542.068.602.834.537.36.826.7 1.116.843.45.235.784.2 1.465.353.52.126 1.22.23 1.572.15.717-.166.777-.368.965-1.146.18-.74-.014-.86-.497-1.27-.142-.117-.634-.15-.814-.195zm13.883 16.205c.36.162 1.246.248 1.9.195.606-.052.893-.252 1.348-.3.478-.04.863-.476 1.126-.665.496-.357.535-.1-.664-.786-.564-.32-.877-.627-1.178-.757-.467-.2-.796-.13-1.487-.24-.528-.086-1.232-.14-1.578-.03-.703.22-.748.426-.876 1.215-.122.753.08.857.592 1.228.15.107.643.102.826.133zm5.47-5.245c.36.162 1.246.248 1.9.195.606-.052.893-.252 1.348-.3.476-.04.863-.476 1.126-.665.495-.357.535-.1-.664-.786-.564-.32-.877-.627-1.178-.757-.467-.2-.796-.13-1.487-.24-.53-.086-1.233-.14-1.58-.03-.702.22-.747.426-.875 1.215-.122.753.08.857.592 1.228.15.107.642.103.826.133zm-15.74-4.466c.36.162 1.247.248 1.9.195.606-.052.893-.252 1.347-.3.476-.04.863-.476 1.125-.665.496-.357.535-.1-.664-.786-.564-.32-.876-.627-1.176-.757-.467-.2-.797-.13-1.488-.24-.528-.086-1.232-.14-1.578-.03-.702.22-.747.426-.875 1.215-.122.753.078.857.592 1.228.152.107.643.103.826.133z"/><path d="M272.86 297.402c.36.162 1.246.248 1.9.193.606-.05.893-.252 1.347-.3.476-.04.863-.476 1.125-.666.496-.357.536-.1-.663-.785-.564-.32-.877-.628-1.178-.757-.467-.2-.797-.13-1.488-.24-.528-.086-1.232-.14-1.578-.03-.702.22-.747.426-.875 1.215-.122.752.08.857.592 1.228.15.108.644.103.827.134zM248.708 287c-.345-.2-1.224-.34-1.87-.336-.608.004-.9.183-1.367.187-.478.004-.897.4-1.173.578-.522.32-.542.07.602.834.537.36.826.692 1.116.844.45.235.785.2 1.465.355.52.125 1.22.23 1.572.15.717-.165.777-.368.965-1.146.18-.74-.014-.86-.497-1.268-.142-.12-.633-.153-.814-.197zm-5.022 3.35c-.347-.2-1.224-.343-1.87-.338-.608.006-.9.184-1.365.187-.478.004-.897.4-1.173.578-.522.32-.542.07.602.834.538.36.827.692 1.117.844.45.235.785.2 1.465.353.52.126 1.22.23 1.57.15.718-.166.777-.368.966-1.144.18-.74-.014-.86-.498-1.27-.142-.118-.632-.15-.813-.194z"/><path d="M248.597 290.572c-.347-.19-1.224-.342-1.87-.337-.608.005-.91.184-1.365.187-.478.004-.897.4-1.173.578-.522.32-.542.07.602.835.537.36.826.692 1.116.844.45.235.785.19 1.465.353.52.126 1.22.23 1.57.15.718-.165.78-.367.966-1.144.18-.74-.014-.86-.498-1.27-.14-.12-.632-.153-.813-.196z"/><use xlink:href="#K" x="0.78" y="-6.698"/><path d="M274.867 291.305c-1.48.14-1.173-.7-3.126.558-.524.335-.8 1.417-.558 2.345.218.87 3.486 1.08 4.24.893 1.57-.393 1.462-1.205 2.232-2.232.673-.897-1.12-1.052-2.79-1.563z"/></g><g stroke="#2d3235" class="D"><path d="M274.48 359.7c-.935-.56-.893-2.104-.893-3.795 0-1.066-.04-2.397-.223-3.125-.145-.58-.233-.467-.446-.893" class="F"/><path d="M268.675 359.03c-.285-1.142 2.376-.957 2.902-2.01.33-.662-.298-2.306-.446-2.902-.114-.455-.446-.592-.446-1.34" class="J"/><path d="M269.902 331.46c-.933-.56-.893-2.104-.893-3.796 0-1.066-.04-2.397-.223-3.125-.145-.58-.233-.467-.446-.893m-17.805 34.126c.334-1.037 1.847-1.346 3.495-1.726 1.04-.24 2.326-.582 2.994-.924.532-.27.402-.332.77-.636m14.788-11.196c-.935-.56-.893-2.103-.893-3.795 0-1.066-.04-2.397-.223-3.125-.145-.58-.235-.467-.447-.893m2.456-14.733c-.933-.56-.893-2.104-.893-3.795 0-1.066-.04-2.397-.223-3.125-.145-.58-.233-.468-.446-.893" class="F"/></g><g class="C L F"><path d="M296.013 208.796c-3.516 2.74-11.43 8.88-15.212 8.997-3.756.116-8.575-3.976-12.485-6.63-6.403 4.36-11.096 8.198-14.073 8.06-2.9-.134-8.326-4.935-11.865-7.59-4.24 3.03-10.264 9.867-13.16 9.515-2.94-.357-5.632-2.08-10.606-5.778l-2.672 2.055c1.32.79 9.034 6.806 13.312 6.6 4.633-.224 9.835-6.138 13.28-8.364 2.93 1.883 7 6.828 12.272 6.782 3.4-.03 9.392-4.847 13.442-7.902 2.495 1.55 10.116 6.713 12.783 6.668 4.55-.072 11.658-6.197 14.895-8.15 2.063 2.316 9.895 7.175 13.156 7.175 3.93 0 9.193-4.524 12.285-7.063 2.865 3.038 9.566 7.226 13.563 7.236 3.216.007 11.02-5.547 13.116-7.1 2.102 2.01 11.05 7.415 12.798 7.538 3.484.244 11.337-4.91 13.97-6.777 2.377 2.192 10.15 8.038 13.746 8.054 3.627.016 11.14-5.207 13.033-7.37 2.452 2.08 9.032 9.065 13.06 9.225 5.18.206 13.175-7.12 14.908-8.02l-3.412-.716c-1.897.983-6.786 5.85-11.323 5.924-2.832.046-11.487-8.033-12.97-10.23-1.595 2.044-10.06 8.392-13.41 8.374-2.795-.014-11.33-6.638-13.4-8.388-2.333 1.634-10.598 6.778-13.818 6.777-2.718-.001-10.83-5.975-12.86-8.095-1.698 1.675-10.323 7.63-13.498 7.622s-10.347-5.728-13.516-7.86c-2.6 1.776-9.072 7.697-12.173 7.65-3.55-.056-11.083-6.23-13.178-8.208z"/><path d="M427.234 182.047c-2.4-.093-1.604-1.116-4.66.082-3.458 1.816-4.066 5.558-4.147 7.21-1.26 1.506-2.066.887-2.12 6.5.138 3.967 5.195 6.41 6.44 6.77.074 4.22-1.03 13.082 4.123 13.71 4.227.516 5-2.308 5.336-5.515.064-3.43.12-11.094-.53-15.95-1.057-7.886-3.206-12.76-4.44-12.808z"/><path d="M444.612 154.506c-2.065 1.554-11.096 9.427-12 12.797-.747 2.814-.933 5.554-1.32 8.995-.28 2.5.522 8.42.508 10.102s.247 3.846.267 5.688-.544 3.997-2.12 4.97c-1.654 1.022-4.74.7-6.007-.334-1.323-1.07-2.057-3.427-1.78-5.052.418-2.445 1.853-4.193 2.352-5.832.522-1.713 2.027-7.56 1.862-9.933-.106-1.533-1.24-3.866-2.634-6.133-1.9-3.1-4.566-4.206-7.668-8.076 4.708-.593 6.706-.06 10.092-.887 3.897-1.893 17.08-7.358 18.435-6.303zM216.1 182.883c2.4-.093 1.604-1.115 4.66.082 3.457 1.817 4.066 5.56 4.147 7.2 1.26 1.506 2.067.887 2.122 6.5-.14 3.967-5.196 6.408-6.44 6.77-.074 4.22 1.03 13.082-4.123 13.7-4.227.516-5-2.308-5.335-5.515-.064-3.43-.12-11.094.53-15.95 1.056-7.886 3.205-12.76 4.44-12.808z"/><path d="M199.7 154.753c2.065 1.554 10 9.428 10.885 12.797.746 2.815.933 5.554 1.32 8.995.28 2.5-.524 8.42-.508 10.103s-.247 3.845-.267 5.688.543 4.786 2.12 5.76c1.654 1.022 4.897.217 6.164-.807 1.322-1.07 1.9-3.743 1.62-5.368-.418-2.445-1.853-4.193-2.352-5.832-.522-1.713-2.028-7.558-1.862-9.933.106-1.533 1.2-3.896 2.634-6.133 1.593-2.47 5.197-3.1 8.3-6.97-4.708-.594-10.967-3.217-14.197-5.94-3.42-2.2-12.5-3.413-13.855-2.357zm23.198 97.787c-2.875-.015-4.265 4.587.486 4.423 2.36-.08 48.448-3.845 99.052-3.82 51.446.026 94.747 3.438 97.836 3.445 3.246.007 3.64-4.865.85-4.978-2.632-.107-46.998-2.9-99.102-2.887-51.073.012-97.695 3.824-99.12 3.816z"/></g><g class="P"><path d="M421.05 241.007c-.353 1.825-.3 5.845 1.42 6.315 1.74.473 4.622-3.15 5.13-5.525.494-2.3.016-6.277-1.814-6.63-1.845-.356-4.383 4.015-4.737 5.84zm-198.123.245c.257 1.84-.005 5.853-1.748 6.232-1.762.382-4.45-3.385-4.836-5.785-.372-2.323.3-6.27 2.16-6.526 1.86-.26 4.168 4.238 4.425 6.08z" class="C F"/><path d="M333.163 369.152l10.893.06.03 147.234c-3.175.568-7.143 1.595-10.924 1.86V369.152z"/></g><g class="C"><path d="M243.845 413.71c-.223.31.177 2.005.9 2.717.604.596 1.072 1.245 2.577.85 0 0 .25-.58-.727-3.7l-2.75.145z" class="E M"/><g class="D"><path d="M255.133 408.717c.667-.176 2.395-.37 3.833-.845 1.534-.508 2.46-1.357 3.037-1.9" class="J"/><g class="K"><use xlink:href="#L"/><use xlink:href="#L" x="0.486"/><path d="M259.662 406.157l-.05.092c.095-.17.062-.125-.04.158-.13.267-.152.432-.284.686-.14.252-.28.432-.42.668m-9.845 7.757l-.05.092c.095-.17.062-.124-.04.16-.13.267-.152.43-.284.684-.14.253-.28.432-.42.67m1.463-1.728l-.05.092c.095-.17.062-.125-.04.158-.13.267-.152.432-.284.686-.14.252-.28.432-.42.668"/></g><path d="M245.77 416.028c-.275-.197-.628-.996-.678-1.242l-.048-.246" class="f"/></g><path d="M300.606 407.95c-.198.3 1.083-.42 1.42-.297.47.172.762 1.242.945.594.292-1.028 2.023-1.188 2.023-2 0-.484 3.02-3.107 2.842-3.555-.073-.184 1.134-7.017.497-6.682-.327.173-.447-.298-.926-.245-.5.056-.877 4.057-2.13 6.912-.82 1.87-2.5 2.808-3.14 3.364-.883.775-1.303 1.57-1.53 1.9z" class="E J"/><g class="D"><path d="M298.448 413.086l-.052.092c.095-.17.064-.124-.04.16-.13.267-.152.43-.283.685-.142.253-.28.432-.422.668m.25-1.545l-.05.092c.095-.17.062-.124-.04.16-.13.267-.152.432-.284.684-.14.253-.28.433-.42.67m1.9-1.666l-.052.092c.095-.17.064-.124-.04.16-.13.267-.153.43-.284.685-.14.253-.28.432-.42.668m-12.6-5.023c.136-.256.273-.438.408-.676m-.136 1.158c.136-.255.455-.74.6-.98m-.042.92c.137-.255.273-.438.4-.677m16.858.85l-.054-.1c.102.166.078.115-.12-.1-.17-.244-.303-.343-.46-.582l-.378-.693m1.88-.87l-.102.028c.2-.048.134-.04-.143.08l-.7.265c-.28.072-.507.094-.775.155m6.003-12.665l.026.102c-.048-.2-.04-.134.08.143.092.282.187.417.267.7.073.28.096.506.157.773m-1.47-1.435v.102c.037-.2.022-.138.01.163-.042.295-.014.457-.062.74-.056.284-.134.497-.195.765" class="K"/><path d="M311.85 396.5c-.296-.502-1.315-1.452-1.992-1.59l-.676-.136" class="h"/><path d="M312.936 399.127c.08 1.074-1.375 3.768-1.624 4.035l-.248.27" class="g"/></g></g><path d="M296.194 389.118l.86.002c1.252-.004-.3.022.008-.056.303-.044.55-.218.83-.407l1.098-.604c-.277.28-.644 1.23-.974 1.232-.63.172-1.274.052-1.91.08-.292 0-.584-.001-.876.002l.965-.25z"/><g class="C D"><path d="M256.965 471.262a8.69 8.69 0 0 0-.231.503l-.3.52c-.116.162-.258.326-.38.42l-.062.1m1.514-1.635a8.05 8.05 0 0 0-.23.503l-.3.52c-.116.162-.258.327-.38.42l-.062.1m3.448-14.298a9.19 9.19 0 0 0 .056.552l.014.594a2.13 2.13 0 0 1-.114.556l.003.127m.43-1.76a8.61 8.61 0 0 0 .255.492l.233.547a2.19 2.19 0 0 1 .099.558l.05.117m-6.157 8.446a8.9 8.9 0 0 0-.552.05l-.594.006c-.198-.022-.4-.062-.553-.12h-.128m2.277 1.327c-.075.01-1.226.22-1.403.263l-.6.073c-.2.001-.415-.016-.564-.058l-.126.016" class="K"/><path d="M252.86 473.26c-.2-.23-.007-1.006.018-1.22s.066-.273.066-.273m.486 1.4c-.2-.23-.007-1.007.018-1.22s.066-.27.066-.27" class="O"/></g><g class="E C"><g transform="matrix(-.118125 -.145118 -.145118 .118125 387.62703 467.06875)" class="H"><path d="M224.976 362.61c5.303 1.47 9.4 1.044 10.57 5.164s-.06 5.317-.058 5.23c0 0 7.882-6.396 15.137-8.62 2.3-4.768 1.35-10.635-2.765-15.616-1.472-2.65-29.46 12.19-22.884 13.843z"/><path d="M204.307 432.38c2.104 7.123 7.47 4.835 13.697 9.94 3.248-6.17 10.075-34.332 11.105-37.532 2.57-6.607 13.19-16.02 14.958-18.67 8.53-12.436 1.865-12.07-.827-16.756-.725-5.123 1.546-6.897-1.55-6.747-3.02.15-24.026 10.075-25.916 12.118-5.91 6.38-6.672 15.357-8.478 24.943-1.878 9.96-5.1 25.576-3 32.702z"/></g><path d="M305.054 475.253c.086-.062.568-.642.252-1.325-.4-.45 1.433.28 1.12.877-.436.438-1.397.555-1.372.448h0zm-3.594 22.262c-.068-.357.288-.997.2-1.66-1.114-.655-1.955.77-1.802.853 0 .001 1.37.786 1.6.8zm12.5-15.77c-.948.4-1.12 1.257-1.24 2.05s-.3 1.652-1.2 1.86c-1.098-.388-2.62-2.52-2.62-2.52-.02-.3.795-1.052.688-1.87-.14-1.194.707-1.6 1.54-2.042s4.022 2.056 2.842 2.522z" class="M"/><path d="M215.23 339.08c.887 4.71 5.54 12.88 12.116 14.528 5.302 1.473 6.564 13.96 7.742 18.082s15.93-11.935 15.93-16.35c-.09-6.425-4.85-15.384-9.557-17.15-4.714-1.766-9.988-3.958-11.465-6.608-1.47-2.65.556-6.162-1.505-7.93-.001 0-14.143 10.718-13.26 15.43z" transform="matrix(-.185553 .024141 .024141 .185553 349.45135 407.42108)" class="H"/><path d="M313.428 472.882c-.4-.45 1.58-.583 1.596.787-.052 1.13-1.446 2.03-1.37 1.8.217-.627-.057-2.23-.225-2.597zm-3.892 9.072c-.01 1.112-.773 1.37-1.028.657-.363-1.07-.5-.904-.073-1.022.292-.08.85.238 1.102.365z" class="M"/></g><path d="M321.894 368.914l-.047 150.305" class="C D J"/><path d="M266.148 369.04l-.12 51.484-43.345-.058c.153 4.463-.03 7.625.558 12.5l42.786-.06-.06 72.544c4.122 2.5 8.15 4.633 12.8 6.904v-79.448l42.92-.06v-12.382l-42.92.058-.06-51.484h-12.56zm88.832.173h10.924V508.5c-2.936 1.504-7.232 3.52-10.893 4.73l-.03-144.015zm21.846.064h10.924v123.47c-2.035 1.98-7.184 6.705-10.88 9.134l-.043-132.604zm21.847.06h10.924v92.7c-1.32 3.33-7.776 14.522-10.924 18.094V369.337z" class="P"/><g class="C K"><path d="M309.22 461.82c.062.043.32.2.48.28l.5.338a2.23 2.23 0 0 1 .383.418l.104.072m-1.374 1.716a8.49 8.49 0 0 0-.265-.486l-.243-.543c-.058-.2-.106-.402-.108-.556l-.052-.116m-22.23 34.407c-.072.024-.345.14-.5.215l-.564.2c-.195.04-.4.066-.564.054l-.12.04m1.86.048c-.072.024-.16.14-.326.215l-.564.2c-.195.04-.4.066-.564.054l-.12.04m12.04-9.028c-.072.024-1.266.73-1.43.804l-.564.2c-.195.04-.4.066-.564.054-.04.014-.67-.12-.7-.107m11.328 11.287c-.056-.05-1.247-.76-1.393-.868l-.436-.404c-.13-.15-.256-.328-.32-.47-.03-.028-.217-.644-.248-.674m.774-20.098c-.018.074-.043 1.46-.066 1.64l-.135.58a2.23 2.23 0 0 1-.25.509c-.01.04-.454.507-.464.548" class="D"/><path d="M306.598 473.648a8.52 8.52 0 0 0 .488-.26l.545-.24c.19-.058.403-.104.556-.104l.117-.052" class="a"/><path d="M306.598 474.304a9.16 9.16 0 0 0 .488-.261l.545-.24c.19-.058.403-.104.556-.104l.117-.052" class="D"/></g><defs ><path id="B" d="M301.306 461.95c-1.703-1.357 3.475-4.526 3.61-3.936.06.263 3.424 2.56 3.32 2.808-.14.383-.954 1.054-2.78 3.818-.55.412-1.818-1.07-4.15-2.7z"/><path id="C" d="M293.908 302.586c.305-.305-2.148 0-4.465 0-1.417 0-1.35 1.975-1.116 2.902.218.87 3.486 1.082 4.24.893 1.57-.393 1.462-1.205 2.232-2.232.672-.897.33-.828-.893-1.562z"/><path id="D" d="M241.638 301.432c-.382-.102-1.27-.045-1.897.112-.59.147-.842.392-1.284.503-.464.115-.777.608-1.005.836-.432.433-.5.195.783.67.606.223.966.478 1.283.558.492.123.807 0 1.507 0 .535 0 1.24-.062 1.562-.223.66-.33.67-.54.67-1.34 0-.762-.215-.834-.78-1.117-.166-.08-.652.001-.838.001z"/><path id="E" d="M302.075 297.414c.382-.102 1.27-.045 1.9.11.6.148.84.393 1.283.502.464.117.777.6 1.005.838.432.432.51.195-.78.67-.608.223-.966.478-1.284.558-.492.123-.807 0-1.507 0-.535 0-1.24-.062-1.562-.223-.658-.328-.67-.54-.67-1.34 0-.763.215-.833.78-1.116.166-.083.65 0 .836 0z"/><path id="F" d="M235.498 292.168c-.38-.102-1.27-.045-1.897.11-.6.147-.842.393-1.283.502-.465.117-.777.6-1.005.838-.433.432-.51.195.78.67.608.223.966.478 1.283.558.493.123.807 0 1.508 0 .535 0 1.238-.062 1.562-.223.658-.328.67-.54.67-1.34 0-.763-.216-.833-.783-1.116-.166-.085-.65 0-.837 0z"/><path id="G" d="M265.406 289.644c.24-.248-1.682 0-3.496 0-1.1 0-1.056 1.614-.874 2.37.17.712 2.73.883 3.322.73 1.23-.32 1.144-.983 1.748-1.822.526-.73.26-.677-.7-1.277z"/><path id="H" d="M266.633 304.322c.24-.248-1.682 0-3.496 0-1.1 0-1.056 1.614-.874 2.37.17.712 2.73.883 3.322.73 1.23-.32 1.144-.984 1.748-1.823.526-.73.26-.676-.7-1.276z"/><path id="I" d="M255.583 294.89c.24-.248-1.682 0-3.497 0-1.1 0-1.056 1.614-.874 2.37.17.713 2.73.883 3.322.73 1.23-.32 1.144-.983 1.748-1.822.527-.732.26-.677-.7-1.277z"/><path id="J" d="M260.048 294.668c.24-.25-1.682 0-3.497 0-1.1 0-1.056 1.612-.874 2.37.17.71 2.73.883 3.322.73 1.23-.32 1.144-.982 1.748-1.822.527-.732.26-.676-.7-1.276z"/><path id="K" d="M294.82 296.633c.382-.102 1.27-.045 1.897.11.59.147.842.393 1.284.502.464.117.775.6 1.004.838.433.432.51.195-.78.67-.606.223-.966.478-1.283.558-.492.123-.807 0-1.507 0-.535 0-1.24-.062-1.562-.223-.66-.33-.67-.54-.67-1.34 0-.763.215-.833.78-1.116.166-.084.65 0 .837 0z"/><path id="L" d="M258.447 406.52l-.05.093c.095-.17.062-.125-.04.158-.13.267-.152.432-.284.684-.14.253-.28.433-.42.67"/></defs></svg>