<svg xmlns="http://www.w3.org/2000/svg" xmlns:xlink="http://www.w3.org/1999/xlink" height="400" width="600" xmlns:v="https://vecta.io/nano"><style><![CDATA[.B{fill:none}.C{stroke:#000}.D{fill:#fff}.E{stroke-width:.208}.F{stroke-linejoin:round}.G{stroke-width:.443}.H{stroke-width:.428}.I{stroke-linecap:round}.J{fill:#c09b5a}.K{fill:#ecd21c}.L{fill:#be0027}.M{fill:#4c86c7}.N{fill:#a5a7a9}.O{stroke-width:.417}.P{stroke-width:.221}]]></style><path d="M0 0h600v400H0z" fill="#fc0"/><path d="M0 0h400v400H0z" fill="#0768a9"/><path d="M0 0h200v400H0z" class="D"/><g transform="matrix(.225668 0 0 .232727 201.27116 115.6334)"><g transform="matrix(14.062536 0 0 14.06231 -3003.419239 -4700.176643)"><path d="M249.677 346.078c.026-.027.045-.058.067-.087l.02.067c-.03.008-.062.008-.09.02zm-8.024-2.188c-.016.03-.037.058-.056.086.014-.03.03-.06.056-.086zm-2.03 2.162l.023-.07c.043.033.065.066.097.097-.038-.015-.08-.017-.12-.026zm-14.608 30.112l-.007-.07c0-.013.007-.026.033-.078-.023.046-.014.098-.026.148zm9.603-29.52v-.001c.002.007.002.017.004.026 0-.01-.004-.017-.004-.025zm20.185-.001c.001.01-.003.017-.004.026.002-.01.002-.018.004-.026zm19.655 27.73c.73-.778 1.098-1.8 1.098-2.82s-.367-2.042-1.097-2.82l-1.014-.446-1.016.447a1.47 1.47 0 0 0 .002 2.009c.41.438.41 1.18 0 1.617a.94.94 0 0 1-.691.309c-.082 0-.283-.087-.344-.343-.353-1.534-1.223-2.843-2.454-3.713-2.368-1.72-3.78-4.568-3.78-7.623l.03-4.757c0-2.33-1.5-4.362-3.624-4.948-.034-.01-1.515-.3-1.515-.3l-1.143.358-.03.017-.905-.33c-.087-.032-.12-.14-.213-.14h-.32l-.32-.066c-.414-.065-.81.1-1.08.45-.24.368-.353.854-.353 1.477 0 .267.056.605.098.923-.187-.053-.364-.144-.562-.144-.97 0-1.8.65-2.097 1.552h-1.154l1.41-2.673c.034.017.71-.026.71-.026a.8.8 0 0 0 .668-.443c.057-.113.085-.235.085-.357 0-.08-.046-.15-.067-.224.372-.29.648-.69.648-1.2l-.062-.157c.347-.3.6-.696.6-1.16a1.56 1.56 0 0 0-.101-.555c-.046-.126-.147-.212-.222-.32a1.65 1.65 0 0 0 .11-.554 1.6 1.6 0 0 0-.408-1.072c-.157-.174-.35-.298-.557-.384-.1-.466-.35-.897-.8-1.115a1.47 1.47 0 0 0-.755-.128c-.265-.37-.633-.653-1.118-.684-.212-.012-.403.07-.597.14l-.196-.23-1.196-.083c-.166.057-.282.187-.415.293l-.403-.22-.127.04c-.275-.458-.682-.817-1.25-.817-.2 0-.373.104-.553.18-.258-.19-.552-.338-.892-.338-.044 0-.073.04-.115.045v-.73c0-.35-.25-.593-.565-.704-.1-.327-.353-.6-.714-.6h-.762c-.36 0-.613.264-.715.6-.312.1-.565.353-.565.704v.727c-.042-.003-.07-.042-.114-.042-.34 0-.637.148-.892.34-.182-.075-.352-.18-.556-.18-.565 0-.972.358-1.246.817l-.13-.04-.4.22c-.133-.106-.248-.236-.414-.292l-1.2.08-.2.232c-.192-.07-.383-.15-.596-.14-.485.03-.853.314-1.12.685-.258-.02-.516.01-.76.128-.45.217-.697.647-.797 1.112-.208.085-.4.21-.557.384-.273.302-.407.69-.407 1.074 0 .19.042.375.107.553-.075.107-.176.194-.224.32-.067.18-.1.37-.1.554 0 .46.25.857.6 1.16l-.062.158c0 .504.267.902.63 1.193-.024.077-.07.15-.07.233 0 .12.028.242.083.355.128.258.382.427.67.446l.68.042c.157.175.784 1.353 1.457 2.656h-1.194c-.308-.9-1.127-1.547-2.095-1.547-.2 0-.375.092-.562.142l.105-.997c0-.847-.2-1.168-.286-1.3-.347-.452-.74-.616-1.157-.552l-.325.068h-.3c-.095 0-.124.104-.213.135l-.906.33-.027-.015-1.145-.358-1.41.27c-2.24.612-3.73 2.645-3.73 4.973l.018 2.632v.656a185.5 185.5 0 0 1 .014 1.479c0 3.05-1.414 5.895-3.78 7.608-1.23.874-2.1 2.184-2.45 3.694-.065.283-.266.368-.35.368a.94.94 0 0 1-.692-.308c-.206-.217-.308-.513-.308-.806a1.19 1.19 0 0 1 .309-.811c.264-.284.396-.645.396-1.006a1.46 1.46 0 0 0-.399-1.006c-.002.002-1.013-.44-1.013-.44l-1.014.444c-1.46 1.555-1.46 4.086.001 5.64a3.69 3.69 0 0 0 3.873.977l.03.417c0 .618-.357 1.174-.89 1.382-.294.114-.496.36-.51.676l-.026.522c0 1.046.306 2.048.888 2.9.344.533.564 1.075.674 1.653.255 1.138 1.178 1.646 1.93 1.646h2.253a.8.8 0 0 0 .803-.801c0-1.385-.965-2.487-2.216-2.748-.237-.3-.4-.672-.4-1.083 0-.714.4-1.346.996-1.61 1.082-.485 1.834-1.46 2.112-2.604.51.114.593.164.593.468-.084.353-.001.75-.292.65-.014.054-.033.11-.033.157 0 .264.193.463.482.607.482.24 1.276 1.422 1.64 2.278.348.773 1.045 1.243 1.826 1.243h1.93a.8.8 0 0 0 .802-.801c0-1.346-.913-2.523-2.17-2.8-.395-.09-.677-.483-.677-.934a1.01 1.01 0 0 1 .253-.678 2.27 2.27 0 0 0 .604-1.552l-.294-1.13c-.533-.903-1.295-1.564-2.134-2.083.718-.723 1.5-1.367 2.394-1.81 1.498-.693 2.628-2.028 3.16-3.668l.888-.875v9.495c0 6.794 10.826 6.872 11.287 6.872s11.284-.078 11.284-6.872v-9.52c.012.013.652.643.91.9.533 1.638 1.662 2.974 3.16 3.67.892.44 1.673 1.082 2.39 1.805-.836.516-1.594 1.173-2.112 2.048-.018.037-.31 1.168-.31 1.168a2.26 2.26 0 0 0 .6 1.55 1.01 1.01 0 0 1 .255.68c0 .45-.284.842-.676.93-1.26.275-2.173 1.453-2.173 2.8 0 .442.36.802.803.802h1.93c.783 0 1.48-.47 1.82-1.225.37-.872 1.16-2.053 1.646-2.296.29-.146.48-.34.48-.602a.66.66 0 0 0-.048-.239l-.213-.544-.046-.095c.008-.223.12-.302.576-.403.276 1.146 1.028 2.118 2.1 2.6.608.273 1 .92 1 1.624 0 .407-.175.768-.41 1.08a2.79 2.79 0 0 0-2.216 2.75.8.8 0 0 0 .801.801h2.257c.75 0 1.67-.506 1.923-1.616.114-.61.333-1.15.66-1.64a5.21 5.21 0 0 0 .908-2.941l-.026-.523c-.016-.317-.217-.566-.513-.68-.53-.204-.885-.76-.885-1.38l.025-.416c1.332.442 2.84.122 3.873-.977zm-49.51 1.83c-.115.292-.41.39-.41.488 0 .037.04.074.148.12.015.007.024.005.037.01.007-.028.004-.053.017-.083l.2-.535zm49.512-7.47c.08.035-.024-.042-.024-.03 0 .003.006.01.02.025zm-47.227-27.27c.374.828 1.05 1.425 1.82 1.87-.226.244-.522.443-1.004.638a.8.8 0 0 0-.503.743c0 .01.001.02.001.032a.8.8 0 0 0 .563.734c1.304.406 7.1.647 10.83-3.162.165-.168.266-.427.266-.674a.74.74 0 0 0-.093-.371l-.03-.053c1.823-.232 3.658-.39 5.486-.39 1.924 0 3.78.157 5.613.39-.007.013-.03.05-.03.05-.063.1-.092.24-.092.373 0 .245.1.504.262.67 3.737 3.807 9.525 3.57 10.83 3.162a.8.8 0 0 0 .562-.732c0-.012.002-.023.002-.034a.8.8 0 0 0-.502-.743c-.485-.196-.78-.395-1.007-.638.773-.446 1.45-1.045 1.824-1.88 0-.001.206-.546.206-.546a.77.77 0 0 0 .05-.268.79.79 0 0 0-.258-.57c-.233-.222-.585-.256-.88-.128-.31.135-.673.208-1.08.217-.9.02-3.33-.434-3.978-1.61-.045-1.445-1.07-2.687-2.488-2.97a49.55 49.55 0 0 0-8.907-.808c-3.103 0-6.088.27-9 .8a3.13 3.13 0 0 0-2.524 2.979c-.647 1.177-3.09 1.633-3.98 1.61-.405-.01-.767-.082-1.08-.217-.295-.128-.648-.093-.88.13-.164.156-.255.358-.255.57 0 .088.017.18.05.267l.21.554z" class="D"/><use xlink:href="#B" class="K"/><use xlink:href="#B" class="B C G"/><use xlink:href="#C" class="K"/><use xlink:href="#C" class="B C G"/><use xlink:href="#D" class="K"/><use xlink:href="#D" class="B C G"/><use xlink:href="#E" class="K"/><use xlink:href="#E" class="B C G"/><use xlink:href="#F" class="L"/><use xlink:href="#F" class="B C F O"/><path d="M246.07 349.684l-1.373-.904-1.355.904.527-4.645h1.668l.532 4.645z" class="K"/><path d="M246.07 349.684l-1.373-.904-1.355.904.527-4.645h1.668l.532 4.645z" class="B C O"/><use xlink:href="#G" class="D"/><use xlink:href="#G" class="B C E"/><use xlink:href="#H" class="D"/><use xlink:href="#H" class="B C E"/><use xlink:href="#I" class="D"/><use xlink:href="#I" class="B C E"/><use xlink:href="#J" class="D"/><use xlink:href="#J" class="B C E"/><use xlink:href="#K" class="D"/><use xlink:href="#K" class="B C E"/><use xlink:href="#L" class="D"/><use xlink:href="#L" class="B C E"/><use xlink:href="#M" class="D"/><use xlink:href="#M" class="B C E"/><use xlink:href="#N" class="D"/><use xlink:href="#N" class="B C E"/><use xlink:href="#O" class="D"/><use xlink:href="#O" class="B C E"/><use xlink:href="#P" class="D"/><use xlink:href="#P" class="B C E"/><use xlink:href="#Q" class="D"/><use xlink:href="#Q" class="B C E"/><use xlink:href="#R" class="D"/><use xlink:href="#R" class="B C E"/><use xlink:href="#S" class="D"/><use xlink:href="#S" class="B C E"/><use xlink:href="#T" class="D"/><use xlink:href="#T" class="B C E"/><use xlink:href="#U" class="D"/><use xlink:href="#U" class="B C E"/><use xlink:href="#V" class="D"/><use xlink:href="#V" class="B C E"/><use xlink:href="#W" class="D"/><use xlink:href="#W" class="B C E"/><use xlink:href="#X" class="D"/><use xlink:href="#X" class="B C E"/><use xlink:href="#Y" class="D"/><use xlink:href="#Y" class="B C E"/><use xlink:href="#Z" class="D"/><use xlink:href="#Z" class="B C E"/><use xlink:href="#a" class="D"/><use xlink:href="#a" class="B C E"/><use xlink:href="#b" class="D"/><use xlink:href="#b" class="B C E"/><use xlink:href="#c" class="D"/><use xlink:href="#c" class="B C E"/><use xlink:href="#d" class="D"/><use xlink:href="#d" class="B C E"/><use xlink:href="#e" class="D"/><use xlink:href="#e" class="B C E"/><path d="M253.663 351.01c-.216-.326-.523-.52-.864-.552-.133-.008-.26.01-.377.046-.013-.005-.02-.017-.032-.022l-.2-.114-.19.125c-.045.03-.072.066-.107.1-.007-.004-.01-.01-.018-.015l-.2-.106-.18.126c-.188-.096-.387-.146-.582-.138l-.257.013-.012.037c-.137-.15-.32-.258-.526-.323l-.048-.222-.215-.066-.024-.002c-.002-.055-.006-.105-.018-.164l-.054-.225-.215-.06c-.056-.213-.153-.408-.292-.557l-.18-.19-.24.102c-.184.078-.347.22-.48.392-.008-.001-.218-.032-.218-.032l-.136.186c-.034.045-.06.093-.084.14-.018-.005-.24-.033-.24-.033l-.13.186c-.213-.02-.424.005-.606.087l-.106.046-.135-.096c-.17-.126-.387-.2-.61-.213l-.097-.227-.225-.02h-.04c-.012-.057-.03-.114-.056-.173l-.096-.21-.223-.01c-.11-.214-.25-.394-.425-.517l-.214-.15-.21.15c-.176.123-.315.303-.415.517l-.234.01-.096.21c-.028.06-.044.116-.057.173h-.04l-.223.02-.092.214c-.23.035-.446.1-.617.226l-.142.1-.12-.05c-.183-.082-.394-.107-.61-.087-.005-.006-.126-.186-.126-.186l-.226.027c-.042-.043-.066-.1-.1-.135l-.136-.186-.22.032c-.132-.173-.297-.314-.483-.392l-.237-.102-.18.19c-.14.148-.236.344-.294.557-.005.002-.21.06-.21.06l-.055.225c-.014.06-.017.11-.02.164-.006.001-.016.001-.023.002l-.217.067-.048.222c-.203.065-.386.173-.523.323l-.013-.037-.26-.013c-.192-.01-.392.042-.58.138-.017-.013-.178-.126-.178-.126l-.2.106c-.007.005-.012.01-.018.015-.034-.034-.064-.07-.107-.1l-.192-.125-.195.114c-.01.005-.023.017-.03.022a1.06 1.06 0 0 0-.379-.046c-.342.033-.648.226-.865.552l-.385.575.678.042c.004 0 .37.028.624.297.185.2 2.076 3.923 2.076 3.923l.318-.135c1.883-.78 3.732-1.162 5.65-1.162 1.928 0 3.78.382 5.67 1.172l.32.132 2.06-3.93a1.04 1.04 0 0 1 .621-.297l.674-.042-.38-.575zm-4.343-.227l-.017.096.365.02-.34.137a.59.59 0 0 0 .039.072l-.182-.053-.115-.035-.148-.04.397-.2zm-.63-.552l.15-.344.005.377.084-.012-.243.41-.067-.474.07.045zm-.657.38l.024-.096.287.345c-.008-.003-.152-.023-.152-.023l-.12-.015-.185-.026.06-.05-.257-.265.34.13zm-2.62-.425l.004.125.425-.067c.005.01-.354.255-.354.255l.065.082-.245-.015-.125-.012-.17-.01-.048-.001.45-.356zm-.798-.417l.09-.434c.013 0 .103.434.103.434l.106-.038-.203.575-.2-.575.104.038zm-1.032.475l.424.067.002-.125.45.356c-.02 0-.218.012-.218.012l-.126.012-.247.015.07-.082-.36-.244-.017-.013c.01.002.013 0 .02.002zm-2.236.27a1.55 1.55 0 0 0 .023.096l.342-.13-.258.265.06.05-.186.026-.12.015c.002 0-.106.014-.106.014s-.037.005-.046.01l.29-.345zm-.79-.25l.005-.377.148.344.073-.045-.07.474-.24-.41.084.012zm-.46.616l-.016-.096.4.2c-.002 0-.148.04-.148.04l-.115.035-.178.053.035-.072-.34-.137.363-.02zm-2.244.96l-.2.104c-.01-.01-.017-.022-.028-.038l.108-.3.05.073.243-.214-.134.3.06.02-.098.056zm13.897.11l-.2-.11-.1-.056.06-.02-.132-.3.243.214.047-.073.11.3c-.01.017-.017.027-.03.043z"/><use xlink:href="#f" class="M"/><use xlink:href="#f" class="B C E"/><path d="M244.7 352.815a16.76 16.76 0 0 0-6.428 1.289l.635 1.243c1.863-.775 3.755-1.193 5.793-1.193 2.048 0 3.947.422 5.814 1.2l.638-1.24a16.77 16.77 0 0 0-6.452-1.299zm8.65-1.58c-.322-.482-.806-.44-.978-.26a.58.58 0 0 0-.168-.15c-.14.092-.207.262-.25.452-.052-.15-.128-.28-.256-.35-.06.045-.116.1-.155.164a.88.88 0 0 0-.612-.237.93.93 0 0 0 .056.673.47.47 0 0 0-.194.11c.05.256.325.4.58.55l-.485.735c-.223-.077-.387-.3-.387-.547a.59.59 0 0 1 .038-.212.32.32 0 0 0 .021-.106c0-.12-.07-.23-.182-.278-.147-.06-.314.012-.374.164-.102.255-.34.42-.607.42-.36 0-.655-.3-.657-.672l.06-.334.165.044c.32.093.713.247.97.064a.74.74 0 0 0-.066-.223.98.98 0 0 0 .5-.458c-.143-.16-.366-.26-.616-.272a.57.57 0 0 0-.005-.233c-.138-.042-.285-.004-.428.066.1-.17.166-.344.125-.514a.51.51 0 0 0-.226-.014c-.005-.26-.1-.493-.237-.648-.195.084-.363.264-.465.497a.58.58 0 0 0-.213-.076c-.106.14-.1.328-.082.524-.103-.122-.224-.22-.37-.236a.61.61 0 0 0-.093.214c-.236-.1-.48-.087-.67-.001.007.216.108.442.288.625-.06.05-.1.1-.147.18.165.272.583.3.915.335.034.001.064.007.095.012l-.048.264a.3.3 0 0 0-.04.08c-.095.268-.343.45-.62.45-.362 0-.657-.303-.657-.677a.29.29 0 0 0-.283-.297h-.035c-.13 0-.242.1-.276.22a.66.66 0 0 1-.633.497c-.364 0-.658-.304-.658-.68v-.16l.16.01c.353.028.8.1 1.017-.145a.63.63 0 0 0-.117-.218c.22-.146.375-.36.425-.584-.182-.13-.432-.186-.693-.146a.61.61 0 0 0-.054-.24c-.154-.014-.294.06-.43.164.07-.197.105-.394.027-.56a.61.61 0 0 0-.237.034c-.056-.265-.195-.5-.38-.618-.182.128-.32.353-.377.618a.62.62 0 0 0-.236-.034c-.078.167-.046.364.025.56-.136-.105-.28-.178-.43-.164a.6.6 0 0 0-.054.24c-.262-.04-.513.015-.694.146.05.222.202.437.427.584-.054.065-.095.138-.117.218.226.244.663.172 1.014.145l.14-.01v.16a.67.67 0 0 1-.658.679.66.66 0 0 1-.635-.497c-.033-.13-.146-.22-.276-.22h-.033a.29.29 0 0 0-.283.297c0 .374-.295.678-.657.678a.66.66 0 0 1-.619-.449c-.01-.03-.024-.055-.04-.08l-.05-.264c.03-.005.064-.012.095-.012.333-.045.75-.063.92-.335-.038-.07-.088-.128-.15-.18.18-.183.28-.4.287-.625-.2-.087-.435-.1-.67.001a.62.62 0 0 0-.093-.214c-.145.017-.263.114-.37.236.03-.197.023-.385-.08-.524a.61.61 0 0 0-.215.076c-.1-.233-.27-.413-.464-.497-.145.155-.233.388-.236.648a.51.51 0 0 0-.228.014c-.04.17.026.344.125.514-.142-.07-.288-.108-.43-.066a.63.63 0 0 0-.004.233c-.25.013-.472.113-.616.272.088.195.27.363.502.458a.59.59 0 0 0-.067.223c.256.183.646.03.968-.064l.165-.044.063.334c-.004.373-.298.672-.657.672-.27 0-.508-.165-.6-.42-.058-.152-.226-.222-.374-.164a.3.3 0 0 0-.178.278c0 .035.005.07.018.106a.59.59 0 0 1 .038.212c0 .258-.164.47-.388.547l-.486-.735c.256-.138.53-.294.582-.55a.37.37 0 0 0-.194-.1c.103-.23.12-.474.054-.673-.203-.01-.425.073-.6.237a.66.66 0 0 0-.154-.164c-.127.07-.204.198-.26.35-.038-.2-.107-.36-.247-.452a.56.56 0 0 0-.168.15c-.17-.18-.66-.22-.978.26a1.39 1.39 0 0 0 .876.417 4.87 4.87 0 0 1 .482.623.32.32 0 0 0 .029.072l.635 1.02c.043.112.148.183.264.183.5 0 .903-.324 1.063-.773.18.106.386.176.605.176.46 0 .855-.264 1.066-.65.22.198.494.322.797.322.442 0 .827-.244 1.044-.607a1.2 1.2 0 0 0 .842.35 1.21 1.21 0 0 0 .947-.464 1.22 1.22 0 0 0 .951.464 1.2 1.2 0 0 0 .84-.35 1.21 1.21 0 0 0 1.043.607 1.17 1.17 0 0 0 .795-.322c.212.387.6.65 1.07.65.22 0 .423-.07.605-.176.16.45.573.773 1.06.773.115 0 .22-.07.264-.183l.632-1.02c.017-.023.026-.046.034-.072a4.78 4.78 0 0 1 .48-.623c.37-.396.876-.417.876-.417z" class="K"/><use xlink:href="#g" class="L"/><use xlink:href="#g" class="B C E"/><use xlink:href="#h" class="L"/><use xlink:href="#h" class="B C E"/><use xlink:href="#i" class="L"/><g class="B C E"><use xlink:href="#i"/><path d="M240.135 354.258a.38.38 0 0 0-.381-.383c-.21 0-.382.172-.382.383s.173.386.382.386a.38.38 0 0 0 .381-.386z"/></g><path d="M244.733 353.108l-1.104.385 1.104.383 1.104-.383-1.104-.385z" class="L"/><path d="M244.733 353.108l-1.104.385 1.104.383 1.104-.383-1.104-.385z" class="B C E"/><path d="M251.033 354.388l-.273.715-.46-.593.735-.123z" class="L"/><path d="M251.033 354.388l-.273.715-.46-.593.735-.123z" class="B C E"/><path d="M238.367 354.388l.276.715.458-.593-.734-.123z" class="L"/><path d="M238.367 354.388l.276.715.458-.593-.734-.123z" class="B C E"/><use xlink:href="#j" class="M"/><use xlink:href="#j" class="B C E"/><use xlink:href="#k" class="M"/><use xlink:href="#k" class="B C E"/><use xlink:href="#l" class="D"/><use xlink:href="#l" class="B C E"/><use xlink:href="#m" class="D"/><use xlink:href="#m" class="B C E"/><use xlink:href="#n" class="D"/><use xlink:href="#n" class="B C E"/><path d="M240.367 350.697a.38.38 0 0 1 .381-.385.38.38 0 0 1 .379.385.38.38 0 1 1-.761 0z" class="D"/><path d="M240.367 350.697a.38.38 0 0 1 .381-.385.38.38 0 0 1 .379.385.38.38 0 1 1-.761 0z" class="B C E"/><use xlink:href="#o" class="D"/><use xlink:href="#o" class="B C E"/><use xlink:href="#p" class="K"/><use xlink:href="#p" class="B C E"/><use xlink:href="#q" class="M"/><use xlink:href="#q" stroke-width=".662" class="B C F"/><use xlink:href="#r" class="J"/><use xlink:href="#r" class="B C F H"/><use xlink:href="#s" class="J"/><use xlink:href="#s" class="B C F H I"/><use xlink:href="#t" class="J"/><use xlink:href="#t" class="B C F H I"/><use xlink:href="#u" class="J"/><use xlink:href="#u" class="B C F H I"/><path d="M229.815 353.512a.86.86 0 0 1-.524.056c.09-.14.233-.268.414-.346l.1.3z"/><path d="M229.815 353.512a.86.86 0 0 1-.524.056c.09-.14.233-.268.414-.346l.1.3z" class="B C H"/><use xlink:href="#v" class="J"/><use xlink:href="#v" class="B C F H I"/><use xlink:href="#w"/><use xlink:href="#w" class="B C P"/><path d="M232.763 353.863s-.803.853-1.8 1.127"/><path d="M232.763 353.863s-.803.853-1.8 1.127" class="B C F H I"/><path d="M247.895 377.965l-2.455-2.72c-.43-.48-1.12-.48-1.553 0l-2.45 2.72z" class="D"/><path d="M247.895 377.965l-2.455-2.72c-.43-.48-1.12-.48-1.553 0l-2.45 2.72z" class="B C G"/><path d="M243.246 361.563l-2.452-2.717c-.43-.48-1.122-.48-1.552-.002l-2.452 2.72h6.455z" class="D"/><path d="M243.246 361.563l-2.452-2.717c-.43-.48-1.122-.48-1.552-.002l-2.452 2.72h6.455z" class="B C G"/><path d="M252.563 361.563l-2.453-2.717a1.01 1.01 0 0 0-1.55-.002l-2.453 2.72h6.456z" class="D"/><path d="M252.563 361.563l-2.453-2.717a1.01 1.01 0 0 0-1.55-.002l-2.453 2.72h6.456z" class="B C G"/><path d="M243.246 366.992l-2.452-2.717a1.02 1.02 0 0 0-1.552-.002l-2.452 2.718h6.455z" class="D"/><path d="M243.246 366.992l-2.452-2.717a1.02 1.02 0 0 0-1.552-.002l-2.452 2.718h6.455z" class="B C G"/><path d="M252.563 366.992l-2.453-2.717c-.432-.478-1.122-.478-1.55-.002l-2.453 2.718h6.456z" class="D"/><path d="M252.563 366.992l-2.453-2.717c-.432-.478-1.122-.478-1.55-.002l-2.453 2.718h6.456z" class="B C G"/><path d="M243.246 372.5l-2.452-2.722c-.43-.48-1.122-.48-1.552 0l-2.452 2.722z" class="D"/><path d="M243.246 372.5l-2.452-2.722c-.43-.48-1.122-.48-1.552 0l-2.452 2.722z" class="B C G"/><path d="M252.563 372.5l-2.453-2.722a1.01 1.01 0 0 0-1.55 0l-2.453 2.722z" class="D"/><path d="M252.563 372.5l-2.453-2.722a1.01 1.01 0 0 0-1.55 0l-2.453 2.722z" class="B C G"/><use xlink:href="#x" class="N"/><use xlink:href="#x" class="B C F G I"/><use xlink:href="#y" class="N"/><use xlink:href="#y" class="B C F G I"/><use xlink:href="#z" class="N"/><use xlink:href="#z" class="B C F G"/><path d="M237.83 339.624c-.45.1-.934-.08-1.1-.793-.136-.62.247-1.072.67-1.16.45-.093.933.072 1.088.784.137.62-.245 1.08-.67 1.17zm-.386-1.7c-.2.043-.353.22-.222.825s.367.684.577.64.352-.226.22-.83-.365-.678-.574-.635zm3.756 1.07c-.08.045-.265.13-.46.156-.606.078-1.098-.28-1.176-.85-.082-.616.33-1.046.95-1.127a1.53 1.53 0 0 1 .375-.001c.023.001.043.02.045.045l.06.44c.002.024-.01.038-.035.043l-.118.015c-.02.003-.038-.007-.048-.03l-.05-.15c-.03-.087-.112-.12-.267-.1-.393.05-.482.403-.435.743.054.4.294.735.768.673a.8.8 0 0 0 .284-.098c.027-.018.054.002.064.023l.053.158c.01.02.006.05-.01.06zm2.643-.184c0 .026-.01.052-.03.052l-1.45.08c-.025.002-.043-.012-.044-.04l-.005-.082c-.002-.023.01-.044.038-.05l.137-.034c.028-.006.05-.036.046-.098l-.075-1.304c-.003-.062-.03-.1-.058-.093l-.14-.018c-.03-.004-.042-.02-.044-.043l-.004-.085c-.002-.027.013-.043.04-.045l1.403-.076c.02-.001.04.02.04.044l.02.367c.002.025-.012.04-.037.04l-.1.007c-.02 0-.04-.012-.045-.035l-.032-.103c-.013-.048-.052-.072-.105-.07l-.45.024c-.02 0-.032.016-.032.037l.028.46c.001.02.016.032.036.03l.63-.033c.027-.004.043.01.043.035l.01.165c0 .026-.015.043-.04.043l-.63.032c-.02.003-.03.018-.03.036l.03.5c.004.08.046.096.1.093l.44-.024c.054-.002.095-.034.104-.084l.02-.106c.004-.024.02-.038.04-.038l.105-.006c.026-.002.042.01.042.037l-.003.367zm3.157.07l-.817-.02c-.026 0-.043-.015-.042-.043l.002-.084c.001-.02.013-.04.042-.047l.137-.02c.037-.006.058-.04.04-.095l-.064-.2c-.006-.016-.014-.033-.034-.033l-.682-.015c-.02 0-.03.015-.037.03l-.082.206c-.022.054.001.1.035.095l.14.03c.03.007.04.025.04.048v.085c-.001.03-.02.04-.045.04l-.674-.015c-.028-.001-.044-.017-.044-.043l.004-.084c0-.023.01-.04.042-.047l.08-.024c.035-.01.053-.026.084-.095l.706-1.608c.004-.012.008-.023.023-.023l.405.007c.01.002.016.014.02.027l.57 1.64c.026.07.04.085.077.098l.08.028c.03.01.04.026.04.05l-.002.082c0 .03-.018.042-.042.042zm-.967-1.377a1.18 1.18 0 0 1-.059-.27h-.007c-.006.045-.037.146-.084.266l-.214.543c-.01.024.004.03.022.03l.5.012c.024 0 .027-.01.02-.03l-.17-.552zm4.124-.056l-.142.01c-.026.001-.054.026-.06.1l-.182 1.585c-.003.018-.013.02-.028.018l-.243-.026c-.027-.003-.03-.01-.044-.03l-.637-1.096-.12-.236c-.005-.002-.112.95-.112.95-.008.06.012.092.04.098l.165.045c.027.01.036.03.034.05l-.012.083c-.002.027-.02.04-.047.038l-.745-.08c-.025-.002-.042-.018-.04-.046l.01-.082c.005-.023.016-.04.044-.044l.143-.01c.03-.004.056-.028.06-.1l.15-1.298c.007-.06-.01-.1-.04-.1l-.137-.04c-.028-.007-.038-.03-.034-.05l.007-.085c.003-.03.023-.04.05-.037l.6.063c.035.004.05.026.07.062l.47.853.134.27h.006l.092-.803c.006-.06-.012-.092-.042-.1l-.162-.043c-.03-.01-.038-.03-.037-.053l.01-.083c.004-.027.02-.04.048-.036l.746.08c.028.004.04.02.038.048v.084c-.001.02-.017.04-.046.045zm1.716 2.078c-.45-.086-.83-.43-.685-1.143.125-.623.657-.894 1.083-.814.453.085.833.42.688 1.135-.125.624-.66.9-1.086.822zm.33-1.72c-.2-.04-.412.067-.535.674s.063.77.274.8.414-.075.537-.68-.064-.763-.275-.802z"/><use xlink:href="#AA" class="J"/><use xlink:href="#AA" class="B C F H"/><use xlink:href="#AB" class="J"/><use xlink:href="#AB" class="B C F H I"/><use xlink:href="#AC" class="J"/><use xlink:href="#AC" class="B C F H I"/><use xlink:href="#AD" class="J"/><use xlink:href="#AD" class="B C F H I"/><path d="M259.56 353.51c.18.078.367.09.522.056-.1-.143-.232-.27-.416-.347l-.106.29z" fill="#c0a151"/><path d="M259.56 353.51c.18.078.367.09.522.056-.1-.143-.232-.27-.416-.347l-.106.29z" class="B C H"/><use xlink:href="#AE" class="J"/><use xlink:href="#AE" class="B C F H I"/><path d="M257.762 351.693c0 .703-.537 1.276-1.195 1.276v-.822c0-.338.1-.504.425-.454h.386z"/><g class="B C"><path d="M257.762 351.693c0 .703-.537 1.276-1.195 1.276v-.822c0-.338.1-.504.425-.454h.386z" class="P"/><path d="M256.61 353.858s.803.856 1.8 1.13" class="F H I"/></g></g><path d="M367.613 285.406c-.797-.106-1.643-.555-2.242-1.2-.68-.72-1.016-1.46-1.097-2.42-.152-1.792 1.06-3.5 2.864-4.034a4.63 4.63 0 0 1 2.035-.001c1.664.5 2.815 2.013 2.815 3.73 0 2.396-2.044 4.225-4.375 3.915zm42.97-9.536c-.813-.197-1.558-.668-2.12-1.34-1.032-1.235-1.143-3.16-.26-4.515 1.82-2.794 5.857-2.266 6.928.907.202.6.187 1.763-.032 2.4-.654 1.903-2.614 3-4.516 2.55zm96.957 9.537c-1.47-.246-2.697-1.355-3.138-2.838-.153-.514-.153-1.6-.001-2.107a4 4 0 0 1 2.7-2.7c.447-.13 1.464-.15 1.955-.037.988.228 2.07 1.094 2.52 2.02.244.5.443 1.295.443 1.772 0 .496-.202 1.28-.47 1.822-.7 1.425-2.455 2.33-4.012 2.07zm-43.315-9.47c-.52-.1-1.128-.363-1.583-.683-2.393-1.68-2.114-5.332.508-6.644 1.27-.636 2.63-.544 3.84.26 2.646 1.758 2.144 5.78-.856 6.87-.5.178-1.478.28-1.908.197z" class="D"/><path d="M608.922 143.062c-22.248-4.02-51.882-15.716-62.772-24.776l-4.06-3.377 6.496-.06c3.573-.033 8.755-1.438 11.517-3.122 5.263-3.2 24-26.846 25.808-32.574 1.432-4.512 2.873-4.23 11.322 2.22 12.307 9.394 29.612 14.758 53.548 16.598 7.653.588 13.914 1.57 13.914 2.183 0 2.566-12.752 13.637-19.893 17.27-10.713 5.452-10.327 10.633 1.77 23.763l4.115 4.466-14.513-.146c-7.982-.08-20.245-1.18-27.252-2.447zm-70.486-73.216c-2.456-.95-2.683-10.874-.35-15.236.925-1.728 3.117-3.14 4.872-3.14 2.625 0 3.2 1.12 3.2 6.316 0 6.74-4.256 13.397-7.714 12.06zM316.832 104.96c-3.83-2.232-16.504-18.94-21.5-28.355-4.934-9.28-5.273-18.4-1.032-27.726 5.398-11.886 15.535-15.587 56.993-20.8 60.395-7.6 127.093-6.724 188.275 2.498 30.183 4.55 37.826 9.092 42.117 25.03 2.277 8.456.38 15.313-7.682 27.8-9.894 15.308-18.274 23.297-24.436 23.297-5.4 0-19.645-3.123-19.645-4.3 0-.372 1.214-2.53 2.7-4.795 2.46-3.754 3.38-4.025 10.38-3.062 8.342 1.147 11.76-1.04 7.804-4.995-3.396-3.396-43.675-8.75-79.344-10.548-51.8-2.6-140.794 3.38-148.788 10.014-4.223 3.505.55 6.597 8.37 5.424 5.96-.894 7.202-.536 9.493 2.735 3.717 5.307 3.5 5.688-4.58 7.72-8.808 2.218-15.418 2.25-19.116.095zm31.085-33.4c8.985-11.423-1.222-27.712-14.47-23.093-5.9 2.06-8.146 5.695-8.146 13.243 0 8.394 5.273 14.13 13 14.13 4.828 0 7.03-.978 9.626-4.28zm202.367-1.33c5.147-5.147 5.526-15.585.738-20.373-4.966-4.966-15.075-4.428-19.37 1.03-4.445 5.65-4.504 15.694-.118 20.08 4.667 4.667 13.7 4.312 18.75-.738zm-161.96-4.494c.43-2.263-.602-2.754-5.408-2.573-6.94.26-8.838-1.94-8.873-10.3-.03-7 3.748-9.385 8.33-5.24 2.874 2.6 3.013 2.5 3.013-2.397 0-5.75-2.276-6.425-11.174-3.323-10.388 3.62-12.548 17.367-3.8 24.24 5.375 4.228 17.093 3.954 17.923-.42zm122.914-8.195c.893-5.897 2.172-11.256 2.842-11.9 2.685-2.618.9-3.894-5.477-3.894-5.653 0-6.392.365-4.747 2.346 1.07 1.3 1.685 4.03 1.365 6.1-.516 3.318-.983 2.983-4.1-2.95-3.18-6.03-7.024-8.642-12.826-8.712-1.268-.015-1.586 3.174-1.02 10.22.674 8.393.3 10.765-2.074 13.14-2.43 2.43-2.528 3.13-.603 4.348 1.26.798 4.213 1.463 6.56 1.477 4.115.024 4.24-.248 3.512-7.7l-.754-7.714 3.566 5.684c5.055 8.057 8.387 11.537 10.402 10.866.958-.32 2.473-5.405 3.366-11.302zm-85.548 4.1c.562-3.96-1.22-4.74-4.145-1.814-2.54 2.54-7.288.408-6.635-2.98.294-1.527 2.218-3.173 4.276-3.66 4.972-1.174 4.692-4-.46-4.645-2.42-.303-4.1-1.555-4.1-3.045 0-1.96 1.127-2.306 4.982-1.535 4.465.893 4.93.62 4.466-2.64-.48-3.38-1.2-3.594-10.26-3.054-5.36.32-10.232.874-10.83 1.232s.024 2.877 1.382 5.598c2.32 4.648 2.093 11.76-.595 18.765-.768 2 .937 2.32 10.245 1.915 10.17-.442 11.212-.8 11.684-4.14zm25.655 2.532c.657-1.064.33-2.222-.726-2.575-3.113-1.038-.418-3.6 3.782-3.6 4.262 0 6.694 2.432 4.06 4.06-3 1.86.07 4.06 5.684 4.06 5.445 0 8.718-2.185 5.9-3.932-.8-.5-1.976-2.925-2.594-5.4S464.824 48.8 463 44.568c-4.938-11.485-7.995-10.46-15.943 5.347-3.612 7.183-6.134 13.76-5.606 14.615 1.362 2.204 8.464 1.93 9.892-.38zm-223.45 75.53c5.535-6.304 9.95-15.077 8.648-17.184-.427-.7-3.833-2.785-7.568-4.652-6.366-3.182-20.595-15.458-20.595-17.768 0-.575 6.954-1.535 15.453-2.132 19.265-1.354 37.535-6.974 51.034-15.7 5.614-3.63 10.345-6.377 10.514-6.107l3.27 5.362c6.794 11.16 19.943 27.242 24.662 30.16 2.946 1.82 8.04 3.145 12.18 3.165l7.116.034-10.385 6.65c-23.556 15.086-56.027 24.018-87.623 24.103l-11.94.032 5.236-5.963z" fill="#ccc"/><path d="M94.832 688.414c-2.552-2.552-5.018-7.28-5.705-10.94-.665-3.545-3.464-10.84-6.22-16.2l-8.928-17.347c-2.202-4.262-4.3-11.73-4.77-17.05l-.852-9.468 6.856-5.497c10.553-8.46 12.918-15.36 12.96-37.798.027-14.134.84-21.516 3.202-29.1 3.28-10.54 3.135-12.85-.805-12.85-2.676 0-6.826 9.06-8.26 18.035-1.147 7.176-4.448 10.638-13.074 13.714-19.764 7.05-41.532-4.52-48.6-25.833-3.58-10.774-2.27-24.738 3.193-34.06 5.6-9.553 8.462-11.824 11.615-9.207 2.853 2.368 3.214 7.447.643 9.036-3.236 2-7.88 14.38-7.88 21.006 0 11.974 8.05 24.425 18.303 28.3 14.382 5.45 25.913-.954 31-17.22 6.047-19.293 12.355-27.82 33.163-44.822 22.797-18.628 40.935-46.928 49.154-76.692 3.246-11.755 3.68-18.1 4.552-66.58.96-53.386.98-53.623 5.188-62.594 7.667-16.346 19.202-26.32 36.5-31.57 10.54-3.197 18.802-3.086 24.76.334 4.54 2.606 5.4 2.616 13.153.14l8.3-2.65 2.433 4.705c1.338 2.588 4.613 5.832 7.277 7.2 9.67 5 4.555 13.815-13.25 22.838-4.338 2.198-7.888 4.74-7.888 5.645 0 3.446 5.487 3.518 12.395.162 3.948-1.918 7.638-3.488 8.2-3.488 1.92 0-5.17 6.94-18.564 18.164L229.5 317.95v37.523l7.234 8.046c8.093 9.002 15.132 22.193 16.57 31.053.864 5.324.556 5.973-3.3 6.938-2.334.586-7 .66-10.35.166-13.35-1.967-14.114-1.925-14.667.794-.383 1.887 1.626 3.503 6.827 5.5 12.574 4.802 27.868.2 38.13-11.496 6.266-7.136 8.255-11.916 8.287-19.914.026-6.585 2.905-13.474 6.066-14.516 1.548-.5 2.022 3.888 1.998 18.547l-.032 19.216-16.684 17.342c-10.252 10.656-18.437 17.782-21.23 18.483-3.118.782-12.6-.968-30.17-5.57-29.102-7.62-32.533-8.013-32.533-3.722 0 2.514 4.7 4.195 29.636 10.6 16.3 4.186 30.55 7.592 31.666 7.568 2.974-.064 2.572 1.263-3.027 10-6.662 10.382-16.75 19.078-30.526 26.318-24.043 12.634-45.4 32.86-58.902 55.814-8.78 14.916-15.94 32.397-15.94 38.924 0 2.575-1.92 8.535-4.267 13.244-3.62 7.264-6.3 9.873-17.662 17.204-11.65 7.515-13.972 9.82-17.818 17.68-9.622 19.666-1.906 48.13 13.047 48.13 6.377 0 18.58 12.746 18.58 19.406 0 1.07-5.776 1.705-15.552 1.705-14.826 0-15.762-.2-20.047-4.495zM205.15 327.126c5.103-8.37 4.26-18.638-2.84-34.637-4.183-9.424-6.93-13.674-8.836-13.674-4.84 0-4.6 2.473 1.38 14.776 9.23 18.96 8.023 34.85-2.207 29.045-8.258-4.686-11.034-10.496-11.38-23.822-.175-6.736-.692-12.62-1.148-13.076-2.356-2.356-5.734 1.807-6.7 8.26-2.532 16.882 6.07 32.57 20.207 36.854 7.023 2.128 8.185 1.752 11.525-3.726zm26.918-53.595c.734-.734-2.506-10.955-3.472-10.955-5.035 0-13.104 8.424-11.13 11.62.982 1.588 12.9 1.047 14.6-.664zm513.178 416.536c.017-8.03 9.306-16.56 20.707-19.016 7.504-1.616 13.504-12.27 14.6-25.92.692-8.615.173-11.726-3.168-19.025-4.117-8.992-9.208-14.05-23.166-23.012-10.292-6.6-16.472-16.654-18.617-30.26-3.5-22.202-25.448-56.455-47.7-74.454-5.846-4.727-17.074-12.28-24.95-16.783s-17.487-11.233-21.354-14.953c-6.432-6.187-16.12-20.133-14.683-21.133.332-.23 13.668-3.67 29.636-7.64 31.067-7.727 35.712-9.63 32.192-13.197-1.74-1.763-6.842-.93-29.23 4.78-14.918 3.803-28.95 6.92-31.183 6.928-3.058.01-8.368-4.476-21.517-18.174l-17.457-18.187v-19.444c0-18.877.088-19.364 3.03-16.7 1.9 1.73 3.422 6.073 4.1 11.76 1.36 11.566 4.04 16.593 13.107 24.574 8.597 7.567 18.864 10.96 28.332 9.36 8.357-1.412 14.8-6.247 12.053-9.044-1.444-1.47-3.177-1.498-7.144-.115-6.938 2.42-16.45 2.318-19.907-.2-2.62-1.917-2.624-2.5-.044-10.15 3.38-10 8.855-19 17.052-27.97l6.266-6.865v-17.72c0-20.394.657-19.137-17.53-33.54-6.515-5.16-12.614-10.818-13.555-12.575s-1.1-2.9-.334-2.515c13.222 6.53 18.295 7.406 19.633 3.387.377-1.13-3.075-3.8-7.985-6.154-11.427-5.5-17.104-10.358-18.448-15.8-.86-3.48-.443-4.683 1.914-5.516 4.356-1.54 11.946-8.923 11.946-11.622 0-1.268.913-1.965 2.03-1.55 13.8 5.145 13.995 5.167 19.918 2.342 7.537-3.594 14.348-3.472 27.162.485 19.176 5.923 32.553 20.03 37.688 39.748 1.98 7.607 2.517 19.277 2.517 54.86 0 49.542 1.263 60.197 9.73 82.058C730.75 456.61 740.77 469.4 776.6 502.26c10.86 9.957 15.497 17.724 23.015 38.55 4.9 13.6 18.854 18.07 32.412 10.4 14.7-8.326 19.162-30.795 8.96-45.12-6.118-8.592-1.856-16.446 5.133-9.457 9.85 9.85 13.087 31.28 6.84 45.287-6.207 13.918-17.6 22.365-32.2 23.872-6.972.72-10.245.1-17.68-3.294-5.018-2.297-9.124-5.237-9.124-6.532 0-5.978-6.776-23.807-9.048-23.807-3.833 0-4.25 3.63-1.316 11.44 1.94 5.164 2.82 13.28 3.067 28.346.443 26.907 2.886 32.93 17.667 43.548 2.8 2 2.908 3.093 1.263 12.616-1.097 6.352-4.472 15.484-8.65 23.407-3.767 7.145-8.72 18.454-11.006 25.13-5.116 14.94-7.205 16.223-26.485 16.255-12.46.02-14.208-.326-14.203-2.818zm-62.126-360.16c12.542-5.24 18.3-14.788 18.25-30.32-.028-11.353-1.6-15.248-5.514-13.742-2.147.824-2.435 2.575-1.595 9.716 1.396 11.88-3.238 22.657-11.42 26.56-3.17 1.512-6.224 2.3-6.787 1.726s-1.395-4.324-1.85-8.358c-.687-6.096.168-9.43 5.062-19.736 6.813-14.346 7.278-17.377 2.553-16.642-5.126.797-15.34 24.042-15.213 34.62.108 8.992 4.3 18.675 8.087 18.675 1.345 0 5.136-1.124 8.424-2.498zm-24.746-55.98c1.33-2.153-8.36-11.813-10.98-10.943-1.112.37-2.726 2.664-3.587 5.1-1.2 3.394-1 4.78.812 5.932 3.194 2.02 12.5 1.96 13.755-.1zm-16.24 364.3c3.608-8.636 5.378-10.278 16.412-15.23 11.65-5.227 17.348-10.815 19.976-19.587 2.454-8.2.896-16.658-4.748-25.8-6.604-10.698-7.084-13.6-3.562-21.56 3.604-8.15 16.518-21.46 25.973-26.773l6.542-3.676 5.458 6.377c6.494 7.587 18.13 30.454 17 33.403-.438 1.142-3.595 2.6-7.016 3.24-13.788 2.585-19.6 9.94-17.863 22.6.84 6.138.43 7.536-3.214 10.918-5.3 4.93-15.106 19.265-20.64 30.2-2.355 4.657-5.697 9.224-7.426 10.15s-9.047 1.682-16.263 1.682h-13.12zm-25.63-258.172c-.454-.753-3.145-11.6-5.98-24.104-4.258-18.78-6.656-25.56-13.8-38.974l-8.635-16.24-9.122-.487c-5.017-.268-9.122-1.238-9.122-2.155s2.136-3.804 4.747-6.415c6.54-6.54 15.943-6.66 21.844-.28 3.912 4.23 37.886 55.828 39.525 60.03.424 1.087-1.795 5.107-4.93 8.934s-7.504 10.13-9.707 14-4.376 6.435-4.83 5.68zm-360.852-2.12c-.613-1.932-4.747-8.3-9.186-14.176s-7.75-11.483-7.36-12.484c1.6-4.095 35.64-55.74 39.465-59.875 5.9-6.38 15.305-6.258 21.844.28 6.787 6.787 6.064 8.244-4.096 8.244h-8.843l-8.85 16.645c-7.316 13.76-9.754 20.584-14.073 39.38-5.482 23.86-7.065 27.768-8.9 21.985z" fill="#b58d45"/><path d="M380.675 294.832c33.493-10.814 86.088-10.42 116.946.873 5.85 2.14.07 2.364-60.1 2.32l-66.58-.048 9.743-3.146zm82.628-79.612c-2.734-1.325-3.65-3.684-4.47-11.525-.567-5.422-.77-10.12-.452-10.437.92-.92 17.167 2.667 28.288 6.245l10.185 3.277-3.946 3.104c-2.17 1.707-4.707 3.104-5.64 3.104s-2.277 1.018-2.992 2.262-4.222 3.067-7.794 4.05c-7.674 2.113-8.67 2.107-13.182-.08zm52.277 8.382c-3.147-2.233-5.74-5.075-5.763-6.317s-1.32-3.228-2.883-4.414c-2.603-1.976-2.5-2.162 1.247-2.2 4.218-.053 13.016 5.147 22.38 13.23l5.358 4.625-7.3-.427c-4.655-.272-9.387-1.9-13.03-4.487zm-117.042-8.46c-2.68-.94-6.025-2.708-7.435-3.932s-3.122-2.224-3.804-2.224-2.94-1.338-5.02-2.974l-3.78-2.974 7.584-2.68c7.195-2.542 27.038-7.537 30.144-7.6.808-.013.985 4.47.4 10.125-1.423 13.77-5.623 16.615-18.1 12.245zm-56.006 10.872c4.16-5.014 20.85-15.405 24.656-15.352 3.458.048 3.526.216.9 2.2-1.563 1.186-2.882 3.173-2.932 4.414-.157 3.935-8.555 9.056-16.877 10.3-7.436 1.104-7.865.987-5.75-1.562z" fill="#690015" fill-opacity=".183"/><path d="M745.884 690.62c-2.265-5.904 8.112-17.136 18.03-19.517 7.14-1.714 11.924-6.988 14.644-16.15 3.055-10.286 3.04-16.68-.06-25.467-3.478-9.857-9.397-16.996-18.292-22.062-15.53-8.845-21.47-17.047-24.57-33.924-2.156-11.745-12.32-33.472-22.01-47.053-10.084-14.13-30.514-32.7-46.444-42.2L652.1 475.5c-5.952-2.46-16.603-13.727-23.396-24.745-4.2-6.796-4.468-8.15-1.434-6.986 2.977 1.142 60.04-13.828 61.482-16.13 2.94-4.69-3.523-4.205-30.022 2.248-17.058 4.154-29.96 6.5-32.392 5.9-2.222-.558-11.452-8.71-20.51-18.115l-16.47-17.1v-18.556c0-24.56 4.425-27.017 7.46-4.14 1.91 14.4 16.535 29.186 31.234 31.598 8.508 1.396 20.578-2.41 20.578-6.49 0-2.273-.924-3.023-3.248-2.638l-8.536 1.397c-2.908.472-7.9.37-11.07-.226-5.518-1.035-5.73-1.32-4.652-6.268 2.142-9.827 8.317-21.45 16.826-31.675l8.533-10.252-1.102-34.39-9.613-8.28c-18.146-15.627-22.843-20.21-21.794-21.258.578-.578 4.016.462 7.64 2.3 8.058 4.11 11.59 4.266 11.59.5 0-1.834-2.836-4.152-7.952-6.5-9.76-4.477-18.03-11.96-18.03-16.31 0-1.992 2.203-4.548 5.697-6.61 3.133-1.85 6.552-5.238 7.597-7.53s2.8-3.828 3.877-3.4c10.7 4.106 14.91 4.527 19.834 1.98 14.28-7.384 42.005 2.584 55.063 19.797 10.15 13.38 11.505 21.658 11.747 71.776.118 24.56.944 49.407 1.834 55.213 5.03 32.8 22.735 64.925 48.013 87.12 25.13 22.063 31.837 30.955 37.367 49.542 2.908 9.774 11.458 17.6 19.216 17.6 22.6 0 35.817-25.316 24.408-46.75-4.646-8.727-5.125-13.03-1.603-14.38 3.483-1.337 6.905 2.024 11.708 11.498 3.274 6.458 4.158 10.573 4.123 19.184-.127 31.044-28.053 50.374-54.568 37.772-3.43-1.63-6.487-3.764-6.8-4.74s-1.666-5.793-3.027-10.706c-3.072-11.083-6.5-16.186-9.135-13.592-1.4 1.38-1.2 3.79.808 9.705 1.655 4.875 2.976 15.608 3.472 28.207.983 24.982 3.225 31.875 13.234 40.685l7.503 6.605-2.045 9.258-2.422 10.882c-.207.893-3.73 8.566-7.827 17.05s-8.645 18.775-10.105 22.866c-4.654 13.04-7.03 14.484-23.82 14.484-11.067 0-14.816-.554-15.48-2.29zm-59.1-362.338c5.493-2.76 9.126-7.005 12.113-14.155 3.082-7.377 3.257-22.286.308-26.32-3.67-5.02-5.77-1.605-4.8 7.802 1.23 11.92-3.492 22.657-11.68 26.562-5.107 2.435-6.078 2.492-7.384.428-3.034-4.796-1.505-14.95 4.206-27.94 3.854-8.766 5.22-13.637 4.13-14.728-2.55-2.55-5.716 1.06-10.74 12.255-6.066 13.518-7.216 19.42-5.377 27.603 2.776 12.355 7.437 14.414 19.225 8.49zm-30.24-53.677c2.225-.854 2.237-1.375.1-4.62-1.32-2.013-4.235-4.496-6.48-5.52-3.676-1.675-4.24-1.447-5.66 2.29-.868 2.283-1.578 4.78-1.578 5.55 0 2.44 9.193 3.993 13.61 2.3z" fill="#b58d45"/><g fill="#f8d600"><g fill-opacity=".8"><path d="M342.573 265.11c-2.758-4.463-3.393-7.252-2.606-11.448.88-4.695.437-5.943-2.89-8.123-2.162-1.416-4.563-2.398-5.337-2.182-2.1.59-13.586-3.98-13.586-5.407 0-2.413 5.752-4.203 10.96-3.412 3.268.497 5.278 1.735 5.278 3.252 0 1.73.596 1.98 2.03.852 1.116-.88 4.222-2.125 6.902-2.768l5.684-1.442c.447-.15.92 2.65 1.05 6.222.175 4.786-.632 7.184-3.068 9.11-3.25 2.57-3.255 2.7-.294 7.714 1.657 2.805 3.97 5.1 5.138 5.1 2.612 0 5.364-6.782 4.524-11.146-.934-4.85 3.197-5.364 7.375-.916 4.933 5.25 11.96 5.234 15.414-.037 4.377-6.68 2.59-9.836-5.247-9.27-5.078.367-7.75-.39-10.823-3.06-4.17-3.627-4.194-8.047-.04-8.047 1.272 0 2.75-1.138 3.284-2.53s1.972-2.145 3.197-1.675 2.226-.107 2.226-1.28c0-3.38 4.937-12.378 6.792-12.378 2.503 0 9.387 6.97 9.42 9.536.022 1.734.537 1.807 2.32.327 1.306-1.084 2.685-1.264 3.208-.418.504.816 2.832 1.274 5.173 1.017 4.067-.446 4.21-.203 3.185 5.497-1.21 6.74-4.558 10.024-10.222 10.024-5.285 0-4.354 5.844 1.64 10.304l4.466 3.322 4.427-3.305c2.435-1.818 4.875-5.066 5.42-7.22 1.206-4.746 4.514-4.34 8.556 1.048 5.227 6.97 17.32 3.99 17.32-4.266 0-2.16-1.135-3.14-3.654-3.154-6.026-.037-10.96-1.85-10.96-4.028 0-1.126-1.096-2.957-2.436-4.07-3.74-3.104-2.942-6.496 1.528-6.496 2.18 0 4.455-.794 5.055-1.765s2.506-1.395 4.235-.943c2.275.595 3.025.073 2.714-1.888-.237-1.49 1.554-4.827 3.98-7.414l4.4-4.703 4.06 4.38c2.233 2.41 4.06 5.736 4.06 7.393 0 2.213.862 2.787 3.248 2.163 1.816-.475 3.248-.05 3.248.964 0 .997 1.827 1.813 4.06 1.813 4.62 0 5.368 3.33 1.595 7.105-1.356 1.356-2.27 3.384-2.03 4.508.467 2.192-.5 2.485-9.308 2.8-4.37.156-5.684.896-5.684 3.2 0 8.003 12.63 11.286 17.11 4.448 4.14-6.32 6.968-6.384 9.546-.216 3.333 7.978 8.306 10.212 13.738 6.172 5.574-4.146 6.66-10.152 1.833-10.152-5.08 0-9.758-2.96-8.766-5.544.474-1.236.082-2.73-.872-3.32s-1.735-2.4-1.735-4c0-2.16 1.065-2.812 4.053-2.484 2.23.245 4.445-.19 4.924-.964s1.944-.998 3.255-.494c1.486.57 2.384-.068 2.384-1.695 0-1.435 1.12-2.6 2.487-2.6s2.907-1.096 3.422-2.436c1.38-3.597 7.083-3.083 7.083.638 0 1.69 1.04 3.473 2.3 3.96 1.48.568 1.97 2.18 1.368 4.487-.597 2.283-.32 3.217.754 2.553.933-.576 2.6.04 3.702 1.37s2.97 2.418 4.148 2.418c4.022 0 4.3 3.484.596 7.428-2.783 2.963-5.4 3.94-10.552 3.94-8.023 0-10.273 3.227-6.386 9.16 3.325 5.075 9.575 4.944 15.845-.332 5.493-4.622 7.63-3.405 7.676 4.37.032 5.517 4.434 9.58 6.7 6.184 4.96-7.44 5.136-8.477 1.88-11.1-2.54-2.054-3.048-4.007-2.46-9.457.673-6.255 1.026-6.716 3.947-5.153 1.764.944 4.186 1.34 5.382.882s2.653.398 3.238 1.905c.957 2.464 1.256 2.413 2.976-.51 2.657-4.512 15.716-4.054 15.716.552 0 1.52-9.846 5.736-12.924 5.535-1.303-.085-3.762.59-5.465 1.502-2.46 1.317-2.907 2.824-2.174 7.338.702 4.325-.034 7.194-3.08 12.022-4.978 7.886-10.11 8.374-16.604 1.58-3.96-4.145-5.394-4.65-11.055-3.9-5.41.726-7.366.147-11.64-3.448-4.16-3.5-5.743-3.995-8.34-2.606-5.733 3.068-13.974 2.027-18.712-2.364-4.06-3.762-4.673-3.888-7.906-1.624-4.728 3.31-10.668 3.08-16.8-.653-4.424-2.697-5.377-2.794-7.42-.75-3.708 3.708-13.623 4.675-18.068 1.762-3.574-2.342-4.14-2.247-8.404 1.417-4.926 4.233-11.3 5.002-17.613 2.125-3.315-1.51-4.506-1.254-7.343 1.583-4.1 4.1-10.157 5.803-15.7 4.415-3.138-.788-4.95-.065-7.714 3.073-1.986 2.257-5.883 4.538-8.66 5.07-4.495.86-5.448.32-8.695-4.933zm45.792-31.142c1.712-3.758 1.493-4.6-1.892-7.35-3.368-2.727-4.24-2.827-7.25-.833-6.608 4.38-4.465 12.434 3.31 12.434 2.626 0 4.527-1.385 5.832-4.25zm109.718 2.302c2.697-2.697 2.436-7.075-.603-10.115-3.337-3.337-4.9-3.22-8.78.66-4.564 4.564-1.648 11.314 4.916 11.38 1.384.014 3.394-.852 4.466-1.924zm-55.816-5.475c3.04-3.04 3.3-7.417.603-10.115-6.307-6.307-16.217 2.804-10.237 9.412 3.546 3.918 6.223 4.113 9.633.703z"/><path d="M341.895 263.903c-3.04-5.096-3.656-7.53-2.47-9.743 1.78-3.325-.6-9.284-3.87-9.694-4.41-.553-5.466-.834-11.3-3-3.35-1.247-6.1-2.825-6.1-3.508 0-3.924 13.83-5.254 16.12-1.55.953 1.54 2.728 1.463 7.998-.352 3.725-1.283 7.06-1.868 7.408-1.3s.633 3.788.632 7.154c-.002 4.348-.896 6.597-3.088 7.77-3.922 2.1-3.874 3.344.328 8.687 4.275 5.434 7.954 3.206 7.954-4.817 0-7.3 2.633-8.402 7.934-3.322 5.724 5.484 12.233 5.563 15.753.2 3.9-5.953 1.973-8.944-5.76-8.944-4.387 0-7.873-1.164-10.606-3.54-5.1-4.443-5.112-5.888-.012-7.827 2.233-.85 4.06-2.292 4.06-3.208s1.096-1.664 2.436-1.664c1.353 0 2.436-1.443 2.436-3.248 0-1.786.6-3.248 1.3-3.248s2-1.852 2.842-4.116l1.53-4.116 5.25 3.7c2.887 2.04 5.262 4.503 5.278 5.473s3.072 1.883 6.793 2.03 7.09.59 7.5 1 .07 3.505-.73 6.903c-1.164 4.94-2.485 6.515-6.6 7.86-6.837 2.233-7.513 3.12-5.396 7.075 4.63 8.65 13.185 7.47 17.305-2.4 1.276-3.054 2.65-5.553 3.054-5.553s2.977 2.192 5.718 4.872c5.668 5.54 11.25 6.24 15.175 1.902 4.844-5.352 3.448-8.398-3.848-8.398-5.407 0-6.792-.674-8.02-3.902-.816-2.146-2.26-4.382-3.208-4.968-3.266-2.018-1.813-5.746 2.24-5.746 2.18 0 4.416-.73 4.968-1.624s2.465-1.624 4.25-1.624c1.83 0 2.793-.736 2.207-1.685-.573-.927 1.196-3.973 3.93-6.77l4.97-5.085 4.094 4.417c2.25 2.43 4.094 5.476 4.094 6.77s1.462 2.352 3.248 2.352 3.248.73 3.248 1.624 1.827 1.624 4.06 1.624c4.74 0 4.895.85 1.602 8.733-2.307 5.52-2.905 5.882-9.743 5.882-6 0-7.286.53-7.286 2.996 0 3.962 5.034 8.37 9.557 8.37 1.997 0 5.74-2.323 8.354-5.186 5.203-5.696 5.518-5.622 9.432 2.216 3.207 6.422 10.108 8.1 15.022 3.652 4.205-3.805 4.063-8.8-.25-8.8-5.015 0-10.008-3.186-9.022-5.756.477-1.243.168-2.69-.686-3.22s-1.553-2.378-1.553-4.112c0-2.434 1.202-3.196 5.278-3.344 2.903-.106 6.19-.074 7.308.07s2.03-.865 2.03-2.243 1.12-2.507 2.487-2.507 2.907-1.096 3.422-2.436c1.173-3.056 7.083-3.222 7.083-.2 0 1.23 1.02 3.084 2.268 4.12s1.9 3.328 1.428 5.095c-.642 2.457-.22 2.975 1.792 2.202 1.47-.564 2.632-.2 2.632.828 0 1.01 1.827 2.532 4.06 3.38 4.966 1.888 4.988 2.89.186 8.34-3.192 3.623-4.77 4.165-10.282 3.528-7.485-.865-9.464 1.556-6.37 7.792 2.858 5.764 10.026 6.032 15.71.587 5.426-5.2 8.066-4.153 8.066 3.196 0 6.413 4.202 11.013 6.674 7.306 5.006-7.508 5.15-8.468 1.667-11.1-2.798-2.123-3.232-3.688-2.412-8.7.934-5.716 1.332-6.08 6.12-5.588 2.817.29 6.013 1.077 7.103 1.75 1.13.698 2.343.282 2.822-.965 1.386-3.612 15.376-2.044 15.376 1.724 0 1.52-9.846 5.736-12.924 5.535-1.303-.085-3.76.6-5.46 1.5-2.498 1.337-2.907 2.81-2.13 7.667.762 4.767.115 7.258-3.124 12.024-5.093 7.495-10.564 7.968-16.714 1.445-3.644-3.866-5.32-4.467-10.913-3.917-5.344.526-7.584-.17-11.7-3.644-4.132-3.477-5.712-3.967-8.307-2.578-5.13 2.745-13.083 1.992-18.317-1.735-4.036-2.874-5.514-3.145-8.853-1.624-5.462 2.49-9.607 2.294-15.447-.726-4.487-2.32-5.424-2.32-10.314 0-6.37 3.023-10.594 3.212-16.064.72-3.37-1.536-4.732-1.273-8.415 1.624-4.432 3.486-11.748 4.31-17.68 1.988-2.188-.856-4.952-.027-8.93 2.677-4.198 2.852-7.307 3.728-11.447 3.223-4.51-.55-6.785.262-11.018 3.933-7.705 6.682-12.273 6.107-17.207-2.166zm46.088-28.934c1.235-2.308 1.235-4.188 0-6.496-3.068-5.732-12.99-3.25-12.99 3.248s9.924 8.98 12.99 3.248zm110.1 1.3c2.85-2.85 2.384-6.898-1.164-10.108-2.483-2.247-3.797-2.45-6.496-1.006-5.852 3.132-3.485 13.063 3.113 13.063 1.43 0 3.475-.877 4.547-1.95zm-56.234-5.61c5.072-4.6 2.774-11.928-3.735-11.928-2.995 0-7.91 4.11-7.91 6.612 0 1.728 5.947 8.004 7.586 8.004.6 0 2.426-1.21 4.06-2.688z"/><use xlink:href="#AF"/></g><g fill-opacity=".83"><use xlink:href="#AF"/><path d="M346.75 270.27c-1.366-.98-6.894-9.123-8-11.768-.6-1.445-.547-1.912.423-3.812.608-1.19 1.105-3.124 1.105-4.296 0-3.992-4.598-7.5-8.788-6.724-1.428.268-2.57-.048-5.49-1.518-2.027-1.02-3.834-1.708-4.016-1.527s-.33.07-.33-.25-.778-.745-1.73-.95-1.927-.488-2.168-.63c-.576-.34 1.657-2.712 3.416-3.627 1.507-.784 6.866-1.34 6.866-.712 0 .666 1.804.823 3.087.268 1-.436 1.43-.302 2.394.766.643.712 1.235 1.88 1.314 2.592.2 1.8.67 2.083 1.38.862 1.16-1.99 2.993-3.555 3.666-3.135 1.3.81 2.48.67 5.483-.658 1.676-.74 3.37-1.223 3.768-1.07.53.204.72 1.513.72 4.976 0 2.706.248 4.947.585 5.284 1.047 1.047-.058 2.762-3.413 5.304l-3.502 2.654c-.705.54 6.767 10.292 7.886 10.292.492 0 1.714-.845 2.716-1.88 1.773-1.83 1.828-2.02 2.1-7.203.3-5.734.6-6.325 3.32-6.34 1.14-.006 1.903.6 3.602 2.9 1.186 1.605 2.904 3.305 3.818 3.778 2.52 1.302 7.416 1.135 9.795-.335 3.07-1.897 3.947-3.827 3.95-8.682l.002-4.184-1.73.33c-.95.18-4.418.48-7.705.666-5.948.336-5.978.332-6.455-.934-.264-.7-.385-1.432-.27-1.63.246-.42-2.482-2.458-3.26-2.436-.636.018-1.843-2.18-1.854-3.375-.012-1.248 1.725-2.605 4.313-3.37 2.214-.654 2.73-1.136 3.347-3.117.252-.813.682-.9 2.965-.597 2.233.296 2.67.216 2.67-.492 0-.465-.307-1.132-.682-1.482s-.593-1.392-.485-2.316c.15-1.28.565-1.82 1.746-2.264 1.204-.455 1.552-.92 1.56-2.094.013-1.72 1.687-5.704 2.644-6.295.39-.24 1.604.545 3.115 2.014 1.362 1.325 3.434 2.85 4.605 3.39 1.91.88 2.144 1.2 2.28 3.107.247 3.466.438 3.678 2.2 2.43 1.835-1.306 2.876-1.4 3.777-.304.487.586 1.78.798 4.87.798 4.97 0 5.388.447 3.923 4.2-.526 1.348-.975 2.87-.998 3.382s-.24.93-.484.93-.287.827-.098 1.837c.312 1.664.18 1.936-1.394 2.894-.957.582-2.656 1.212-3.776 1.402s-2.166.552-2.323.807-.642.326-1.076.16-1.505-.008-2.377.354c-1.407.583-1.587.912-1.587 2.907 0 5.62 8.035 10.712 12.937 8.198 3.013-1.545 6.217-5.625 6.217-7.917 0-.614.365-1.823.812-2.687.66-1.274 1.155-1.57 2.63-1.57 1.54 0 2.17.422 4.1 2.745 5.1 6.123 7.452 7.417 11.466 6.337 3.942-1.06 7.63-5.365 6.69-7.81-.22-.572-.142-.786.207-.57.476.294 1.22-1.796 1.22-3.43 0-.256-2.837-.466-6.305-.466s-7.085-.272-8.04-.604c-1.596-.556-1.7-.748-1.44-2.41.256-1.58-.004-2.142-2.07-4.468-2.986-3.362-3.126-5.022-.518-6.11 1.015-.424 2.557-.77 3.427-.77s1.732-.243 1.916-.54.556-.404.827-.236.772-.307 1.113-1.055c.727-1.596.716-1.594 3.64-.562 1.244.44 2.38.798 2.523.798s.097-1.532-.103-3.404c-.386-3.61-.13-4.144 2.042-4.254.728-.037 1.744-.996 2.88-2.717 3.52-5.337 3.942-5.434 6.136-1.403 1.653 3.037 2.84 4.17 4.613 4.413 1.29.176 1.325.288 1.15 3.773-.1 1.975.02 3.583.266 3.573s1.045-.36 1.776-.78c1.545-.883 3.724-1.04 3.724-.266 0 1.058 2.16 2.66 3.59 2.663 2.343.005 5.485 1.057 5.83 1.952.38.987-1 3.54-3.147 5.824-1.328 1.414-1.507 1.936-1.2 3.523.327 1.743.238 1.902-1.372 2.464-.947.33-4.56.6-8.027.6h-6.305l.005 1.995c.007 2.795 2.183 7.173 4.323 8.7 1.45 1.034 2.45 1.277 5.25 1.277 4.24 0 6.037-1.106 8.94-5.502 1.844-2.792 2.153-3.022 4.253-3.175 2.17-.157 2.302-.08 3.147 1.862.486 1.115.842 2.195.792 2.4-.202.834 1.978 5.025 3.202 6.156 2.747 2.538 8.212 3.017 10.997.962 3.244-2.393 6.017-7.46 5.22-9.536-.18-.465-1.583-1.04-3.398-1.388-8.05-1.547-9.945-2.614-9.408-5.298.2-1.048-.162-2.576-1.175-4.835-2-4.48-1.635-5 3.69-5.213 2.237-.085 4.068-.376 4.068-.646s.44-.726.977-1.014c.75-.4 1.43-.2 2.928.866 1.073.764 2.066 1.274 2.206 1.134s.036-1.017-.23-1.95-.28-1.694-.028-1.694.534-.532.628-1.182c.132-.916.667-1.28 2.374-1.616 1.74-.343 2.49-.87 3.57-2.5 2.62-3.96 4.717-3.294 6.695 2.13.905 2.48 1.444 3.235 2.504 3.502 1.136.285 1.3.56 1.033 1.732a111.27 111.27 0 0 0-.66 3.183l-.342 1.79 2.206-.373c1.868-.316 2.253-.223 2.512.605.64 2.045 1.2 2.574 2.68 2.574.846 0 1.658.146 1.804.325s1.056.73 2.023 1.225c2.75 1.41 2.666 2.157-.63 5.612-2.046 2.145-3 3.567-3 4.505 0 1.257-.186 1.37-2.26 1.366-1.244-.002-4.53-.345-7.306-.76-5.63-.845-6.102-.695-6.628 2.106-.962 5.13 3.117 10.552 8.214 10.917 4.157.298 4.707.064 8.816-3.746 3.972-3.683 6.02-4.586 6.956-3.07.223.36.553 2.906.734 5.657.236 3.58.56 5.17 1.142 5.596.447.327.79.808.76 1.07s.614.973 1.43 1.58c1.14.852 1.692.977 2.394.54 1.045-.65 5.013-6.122 4.68-6.455-.12-.12.238-.68.8-1.24 1.566-1.566 1.263-2.304-1.936-4.72-3.637-2.746-4.527-4.37-3.2-5.838.733-.8.91-1.857.826-4.924-.058-2.142-.08-4.178-.048-4.523.063-.697 1.55-.36 5.065 1.15 1.395.6 2.7.778 3.955.542 1.705-.32 2.027-.17 3.583 1.684l1.71 2.036.592-2.197c.78-2.902 1.82-3.754 3.71-3.04.794.3 1.912.362 2.485.138 3.047-1.192 7.467-.182 10.22 2.333 1.61 1.47 1.507 1.973-.4 1.973-.878 0-1.596.254-1.596.563s-.23.42-.514.246c-.682-.422-4.707 1.626-6.503 3.308-1.07 1.003-1.773 1.256-2.793 1.006l-2.697-.663c-1.994-.49-4.27.7-5.826 3.05-2.007 3.033-2.175 4.654-.812 7.823l1.173 2.728-1.626 2.882c-.894 1.585-1.48 3.028-1.3 3.207s.086.326-.207.326-1.456 1.342-2.586 2.98-2.598 3.338-3.263 3.774c-3.472 2.275-11.368-2.434-15.366-9.166-.497-.836-.756-.86-2.527-.218-1.086.393-1.974.857-1.974 1.033s-1.856.3-4.123.277c-5.363-.055-9.43-1.84-13.008-5.713l-2.51-2.717-3.347 1.814c-3.06 1.66-3.734 1.814-7.87 1.815-5.423.001-8.115-1.14-11.998-5.08l-2.5-2.538-3.7 1.932c-2.948 1.54-4.437 1.974-7.334 2.138-5.1.29-6.99-.44-14.107-5.465-.506-.357-1.326.055-2.85 1.433-5.76 5.203-12.7 5.8-19.392 1.67l-3.088-1.903-2.896 2.74c-1.593 1.507-4.242 3.355-5.886 4.108-4.1 1.872-8.622 1.59-13.527-.847l-3.44-1.707-3.095 3.004c-4.124 4.003-6.955 5.245-12.2 5.36-3.082.067-4.615-.156-6.03-.878-2.15-1.096-3.207-.9-3.7.686-.582 1.835-4.562 5.75-7.2 7.1-3.494 1.77-6.263 2.12-7.835.993zm39.154-32.985c5.8-3.79 3.058-13-3.856-13-1.693 0-2.415.406-4.593 2.584-2.72 2.72-3.094 3.983-2.017 6.825.678 1.79 2.483 3.83 3.955 4.473 1.38.602 4.99.113 6.5-.88zm112.1-.735c.854-.854 1.6-1.987 1.658-2.52a8.66 8.66 0 0 1 .542-2c.27-.637.217-1.105-.136-1.223-.314-.105-.45-.658-.3-1.23.19-.722-.378-1.69-1.856-3.167-1.815-1.815-2.46-2.128-4.39-2.128-7.547 0-10.022 9.295-3.555 13.356 2.392 1.502 5.923 1.023 8.036-1.1zm-57.485-4.487c2.657-1.1 3.913-3.046 3.983-6.137.068-3.025-1.204-5-4.315-6.665-3.853-2.075-8.505.654-9.218 5.406-.245 1.636-.175 2.558.205 2.685.318.106.464.493.323.86-.328.856 1.72 3.473 3.182 4.064 1.695.685 3.883.605 5.84-.212z"/><path d="M346.75 270.27c-1.366-.98-6.894-9.123-8-11.768-.6-1.445-.547-1.912.423-3.812.608-1.19 1.105-3.124 1.105-4.296 0-3.993-4.598-7.5-8.8-6.724-1.396.262-2.516-.02-4.956-1.253-1.734-.875-3.3-1.443-3.482-1.26s-.33.07-.33-.25-.898-.856-1.995-1.193l-2.74-.853c-.93-.3 1.077-2.592 3.262-3.73 1.565-.814 6.793-1.34 6.793-.683 0 .674 1.796.836 3.087.278 1-.436 1.43-.302 2.394.766.643.712 1.235 1.88 1.314 2.592.2 1.8.67 2.083 1.38.862 1.275-2.185 3.053-3.647 3.677-3.023.898.898 2.07.735 5.45-.76 1.688-.747 3.394-1.233 3.79-1.08.53.204.72 1.513.72 4.976 0 2.706.248 4.947.585 5.284 1.047 1.047-.058 2.762-3.413 5.304l-3.502 2.654c-.705.54 6.767 10.292 7.886 10.292.492 0 1.714-.845 2.716-1.88 1.773-1.83 1.828-2.02 2.1-7.203.3-5.734.6-6.325 3.32-6.34 1.14-.006 1.903.6 3.602 2.9 2.678 3.625 4.463 4.582 8.588 4.602 2.57.012 3.617-.256 5.278-1.356 2.812-1.86 3.54-3.552 3.658-8.5l.1-4.188-1.76.333c-.967.183-4.448.485-7.734.67-5.948.336-5.978.332-6.455-.934-.264-.7-.385-1.432-.27-1.63s-.51-.872-1.393-1.5-1.602-.988-1.602-.8c0 .928-1.65-1.47-1.912-2.776-.376-1.88.903-3.16 4.104-4.104 2.214-.654 2.73-1.136 3.347-3.117.252-.813.682-.9 2.965-.597 2.233.296 2.67.216 2.67-.492 0-.465-.307-1.132-.682-1.482s-.593-1.392-.485-2.316c.15-1.28.565-1.82 1.746-2.264 1.204-.455 1.552-.92 1.56-2.094.013-1.72 1.687-5.704 2.644-6.295.39-.24 1.604.545 3.115 2.014 1.362 1.325 3.434 2.85 4.605 3.39 1.91.88 2.144 1.2 2.28 3.107.247 3.466.438 3.678 2.2 2.43 1.835-1.306 2.876-1.4 3.777-.304.487.586 1.78.798 4.87.798 4.97 0 5.388.447 3.923 4.2-.526 1.348-.975 2.87-.998 3.382s-.24.93-.484.93-.287.827-.098 1.837c.3 1.655.178 1.938-1.34 2.86-.926.563-3.165 1.315-4.976 1.67-5.776 1.134-6.22 1.42-6.22 3.992 0 5.62 8.035 10.712 12.937 8.198 3.013-1.545 6.217-5.625 6.217-7.917 0-.614.365-1.823.812-2.687.66-1.274 1.155-1.57 2.63-1.57 1.54 0 2.17.422 4.1 2.745 5.122 6.137 7.45 7.418 11.497 6.328 3.535-.952 5.77-3.282 7.016-7.317 1.626-5.263 1.958-4.95-5.235-4.95-3.468 0-7.085-.272-8.04-.604-1.596-.556-1.7-.748-1.44-2.41.256-1.58-.004-2.142-2.07-4.468-3.9-4.393-2.994-6.162 3.65-7.12 1.996-.288 2.684-.65 3.145-1.662.687-1.508 1.208-1.576 3.795-.495 1.05.44 2.065.798 2.255.798s.18-1.532-.02-3.404c-.386-3.61-.13-4.144 2.042-4.254.728-.037 1.744-.996 2.88-2.717 3.52-5.337 3.942-5.434 6.136-1.403 1.653 3.037 2.84 4.17 4.613 4.413 1.29.176 1.325.288 1.15 3.773-.1 1.975.02 3.583.266 3.573s1.045-.36 1.776-.78c2.008-1.148 3.472-.976 4.14.486.633 1.39 1.222 1.644 4.968 2.15 4.94.67 5.344 2.486 1.52 6.83-1.907 2.166-2.127 2.682-1.828 4.277.316 1.684.218 1.857-1.382 2.414-.947.33-4.56.6-8.027.6h-6.305l.005 1.995c.007 2.795 2.183 7.173 4.323 8.7 1.45 1.034 2.45 1.277 5.25 1.277 4.24 0 6.037-1.106 8.94-5.502 1.844-2.792 2.153-3.022 4.253-3.175 2.17-.157 2.302-.08 3.147 1.862.486 1.115.842 2.195.792 2.4-.202.834 1.978 5.025 3.202 6.156 2.747 2.538 8.212 3.017 10.997.962 3.244-2.393 6.017-7.46 5.22-9.536-.18-.465-1.583-1.04-3.398-1.388-8.05-1.547-9.945-2.614-9.408-5.298.2-1.048-.162-2.576-1.175-4.835-2-4.48-1.635-5 3.69-5.213 2.237-.085 4.068-.376 4.068-.646s.44-.726.977-1.014c.75-.4 1.43-.2 2.928.866 1.073.764 2.066 1.274 2.206 1.134s.036-1.017-.23-1.95-.28-1.694-.028-1.694.534-.536.628-1.192c.1-.708.602-1.256 1.234-1.35 2.782-.416 3.4-.775 4.69-2.727 2.64-3.99 4.73-3.337 6.714 2.1.905 2.48 1.444 3.235 2.504 3.502 1.136.285 1.3.56 1.033 1.732a111.27 111.27 0 0 0-.66 3.183l-.342 1.79 2.206-.373c1.868-.316 2.253-.223 2.512.605.64 2.045 1.2 2.574 2.68 2.574.846 0 1.658.146 1.804.325s1.056.73 2.023 1.225c2.75 1.41 2.69 2.2-.39 5.33-2.517 2.55-3.067 3.496-3.2 5.492-.054.885-3.272.85-9.608-.1-5.63-.845-6.102-.695-6.628 2.106-.962 5.13 3.117 10.552 8.214 10.917 4.157.298 4.707.064 8.816-3.746 3.972-3.683 6.02-4.586 6.956-3.07.223.36.55 2.85.726 5.534.276 4.2.52 5.14 1.754 6.757 1.81 2.375 3.297 2.888 4.695 1.622 1.23-1.112 5.783-8.275 5.783-9.096 0-.306-1.33-1.56-2.956-2.788-3.637-2.746-4.527-4.37-3.2-5.838.733-.8.91-1.857.826-4.924-.058-2.142-.08-4.178-.048-4.523.063-.697 1.55-.36 5.065 1.15 1.395.6 2.7.778 3.955.542 1.705-.32 2.027-.17 3.583 1.684l1.71 2.036.592-2.197c.78-2.902 1.82-3.754 3.71-3.04.794.3 1.912.362 2.485.138 3.137-1.227 8.21.05 10.57 2.657 1.223 1.352 1.14 1.46-1.433 1.865-2.472.39-6.68 2.472-8.046 3.984-1.156 1.28-1.942 1.372-4.322.512-3.375-1.22-7.014 1.123-8.274 5.33-.603 2.01-.55 2.53.533 5.138l1.203 2.902-1.883 3.367c-2.903 5.192-6.557 9.882-7.976 10.238-3.332.836-10-2.998-13.043-7.49-1.943-2.876-2.016-2.894-6.46-1.584-5.69 1.678-12.123-.325-16.6-5.17l-2.51-2.717-3.347 1.814c-3.06 1.66-3.734 1.814-7.87 1.815-5.423.001-8.115-1.14-11.998-5.08l-2.5-2.538-3.7 1.932c-2.948 1.54-4.437 1.974-7.334 2.138-5.1.29-6.99-.44-14.107-5.465-.506-.357-1.326.056-2.85 1.433-5.76 5.203-12.7 5.8-19.392 1.67l-3.088-1.903-2.896 2.74c-1.593 1.507-4.242 3.355-5.886 4.108-4.1 1.872-8.622 1.59-13.527-.847l-3.44-1.707-3.095 3.004c-4.124 4.003-6.955 5.245-12.2 5.36-3.082.067-4.615-.156-6.03-.878-2.15-1.096-3.207-.9-3.7.686-.582 1.835-4.562 5.75-7.2 7.1-3.494 1.77-6.263 2.12-7.835.993zm39.154-32.985c5.8-3.79 3.058-13-3.856-13-1.693 0-2.415.406-4.593 2.584-2.72 2.72-3.094 3.983-2.017 6.825.678 1.79 2.483 3.83 3.955 4.473 1.38.602 4.99.113 6.5-.88zm112.1-.735c.854-.854 1.6-1.987 1.658-2.52a8.66 8.66 0 0 1 .542-2c.27-.637.217-1.105-.136-1.223-.314-.105-.45-.658-.3-1.23.19-.722-.378-1.69-1.856-3.167-1.815-1.815-2.46-2.128-4.39-2.128-7.547 0-10.022 9.295-3.555 13.356 2.392 1.502 5.923 1.023 8.036-1.1zm-57.53-4.478c2.794-1.183 3.787-2.705 3.926-6.017.112-2.686-.028-3.097-1.577-4.633-3.574-3.543-6.904-3.824-9.896-.833-1.696 1.696-2.91 6.377-1.754 6.763.318.106.464.493.323.86-.328.856 1.72 3.473 3.182 4.064 1.7.683 3.884.606 5.796-.203z"/></g></g><g fill="#04a"><path d="M577.334 578.59c1.602-11.664 1.716-19.482 2.073-141.794l.372-127.576.132 127.88-2.026 141.106c-.828 2.478-.84 2.486-.55.385z"/><path d="M426.165 643.173c-52.5-3.558-92.713-16.97-113.752-37.948-9.76-9.732-14.96-19.894-17.203-33.627-.384-2.35-.434-6.98-.47-43.467l.16-13.35 1.038 56.84c.295 2.893 1.7 8.514 2.97 11.8 11.3 29.456 46.934 48.78 105.353 57.122 11.377 1.624 13.025 1.724 28.188 1.7 29.013-.025 44.98-1.712 66.754-7.054 22.545-5.53 40.478-13.135 52.47-22.245 6.1-4.627 13.552-11.812 17.267-16.627 3.426-4.44 6.354-9.937 7.4-13.907.32-1.208.756-2.373.966-2.588.337-.345.363-.292.216.445-.303 1.515-2.036 5.917-3.505 8.9-14.403 29.258-57.382 48.406-120.372 53.628-5.826.483-22.5.705-27.487.367zm153.192-73.42c.084-1.44.24-6.33.348-10.864l.196-8.246-.087 9.686c-.048 5.327-.204 10.216-.348 10.864-.208.94-.23.646-.1-1.44zm-192.74 45.993c0-.347 3.084-4.05 7.423-8.916 6.046-6.78 17.495-19.028 17.644-18.878.052.05-23.22 25.997-24.666 27.5-.22.23-.402.362-.402.293zm79.244-24.145l-4.455-5.048c.1-.1 9.363 9.7 9.363 9.918 0 .455-.914-.452-4.908-4.87zm-67.3-79.046l-5.877-6.65c.094-.094 9.715 10.1 11.37 12.036.473.555.642.857.56.998-.086.15-1.648-1.497-6.055-6.385zm-16.685-95.14c-.947-.706-2.6-1.6-3.9-2.096-1.166-.45-.57-.45.852 0 1.168.37 2.275 1.04 3.456 2.1.894.8.668.8-.408-.003zm-20.928.415c.996-.947 2.103-1.63 3.472-2.147 1.03-.387.934-.27-.273.337-1.175.6-2.383 1.357-3.184 2.02-.7.578-.7.448-.016-.2zm32.94 12.177l-6.578-7.387c.102-.102 11.73 12.387 13.088 14.056.332.408.404.675.183.672-.038 0-3.05-3.304-6.693-7.342zm21.545 23.887l-.785-.93c.083-.083.854.375 1.208.718.5.494.702.857.527 1-.1.083-.318-.098-.95-.788zm52.62-9.87c0-.06.07-.167.155-.238.25-.207.46-.695.412-.95s-.045-.26 5.125-5.833l12.22-12.793c.03.03-16.698 18.652-17.68 19.68-.13.135-.235.196-.235.136zm26.786-28.037c.164-.135.676-.44 1.14-.678 2.106-1.08 3.85-1.548 6.046-1.62 1.646-.053 2.73.074 4.113.482.904.266 2.256.786 2.198.844-.025.025-.463-.067-.973-.205-1.707-.462-2.686-.588-4.545-.584-2.658.005-4.9.495-7.225 1.58l-1 .43c-.033-.002.074-.114.237-.25zm41.377 26.557l-18.785-20.932c.12-.12 4.775 4.745 10.264 10.733l27.475 30.486c.204.25.372.485.372.52s-.108.064-.24.064c-.193 0-3.906-4.06-19.086-20.87zm.306-76.016l-18.714-20.814c.075-.075 2.132 1.934 4.325 4.222 2.803 2.925 4.48 4.764 15.274 16.75l13.483 14.965 4.746 5.277.323.372h-.34c-.327 0-1.077-.816-19.097-20.772zm-86.175 20.558c.14-.23 4.937-5.87 7.068-8.3 6.528-7.474 14.045-15.75 20.568-22.646l7.765-8.033c.068.068-35.162 39.054-35.322 39.088-.112.024-.136-.006-.08-.1zm43.847-47.16c.83-.76 3.672-1.984 5.7-2.455 1.422-.33 3.694-.37 5.002-.1 1.218.262 3.77 1.2 3.636 1.324-.02.02-.515-.095-1.098-.26-1.513-.425-2.87-.6-4.63-.6-2.885 0-5.228.568-7.817 1.893-1.317.675-1.328.677-.793.187zm-173.513 45.867c.002-.295 1.678-2.3 5.8-6.965l27.554-30.328 3.432-3.5c.08.027-10.813 12.152-33.62 37.423-1.736 1.923-3.156 3.44-3.155 3.37z"/><path d="M405.32 366.326l-19.46-21.56c-2.068-2.268-1.165-1.466 1.384 1.23 11.93 12.614 33.526 36.492 36.084 39.9.417.556.497.716.35.708-.04-.002-8.303-9.127-18.36-20.276zm-21.76-23.932c-.765-.807-3.005-2.298-4.47-2.976-.838-.388-2.78-1.072-3.08-1.085-.096-.004-.12-.03-.052-.056.17-.07 1.718.23 2.705.522 1.86.553 3.2 1.457 4.788 3.254.574.646.665.925.1.342zm-26.143 2.62c-.082-.082 3.403-3.712 4.097-4.267s2.058-1.25 3.2-1.62c1.234-.403 1.393-.36.327.093-2.34 1-4.1 2.25-6.263 4.513l-1.352 1.28zm-11.45-35.427h102.42c28.144.017 5.08.03-51.25.03s-79.358-.014-51.17-.03zm-.13-.607H448.32c28.183.017 5.124.03-51.24.03s-79.423-.014-51.24-.03zm-51.18.334c0-.242.08-.242 102.42-.242l102.42.242c0 .242-.08.242-102.42.242s-102.42 0-102.42-.242z"/></g><g fill="#00a"><path d="M579.587 378.147l.196-49.974.017 30.767-.113 30.767c-.104 0-.124-2.366-.1-11.56z"/><path d="M579.905 377.156l-.033-12.865c-.01-.172-.036-11.587-.06-25.365l-.098-13.152-.158 46.904c-.028.028-.05-14.166-.05-31.542V309.54l-80.95-.075c.904-.042 1.183-.142.678-.242-.2-.04 17.895-.08 40.214-.087l40.58-.014-.052 80.585c-.03 0-.06-5.648-.07-12.552z"/></g><path d="M618.82 144.877c-18.995-2.1-38.535-7.84-55.17-16.18-8.354-4.188-17.183-9.283-19.62-11.32l-4.43-3.705 7.594.663c6.852.598 8.12.307 12.956-2.975 5.776-3.92 18.545-19.697 24.652-30.462l3.768-6.642 5.26 4.5c13.304 11.404 35.116 18.447 57.993 18.723l14.757.178-2.1 3.593c-3.362 5.755-12.484 13.464-20.007 16.908-3.827 1.752-7.26 3.968-7.626 4.924-1.076 2.805 4.394 12.66 9.675 17.43 2.684 2.425 4.55 4.74 4.145 5.144-1.053 1.053-19.358.6-31.853-.788zm-302.993-40.26c-4.142-3.258-16.744-19.987-21.355-28.348-6.07-11-4.5-25.43 3.74-34.1 5.482-5.776 11.343-8.027 28.133-10.805 67.542-11.174 143.598-11.652 212.574-1.338 9.426 1.4 20.027 3.378 23.558 4.374 14.507 4.094 23.53 19.922 19.626 34.424-1.8 6.688-12.613 22.98-21.03 31.688-7.366 7.62-9.995 8.126-24 4.6l-8.103-2.036 5.87-9.22 8.4.446c8.22.437 8.4.382 8.4-2.7 0-3.777.195-3.717-23.418-7.12-35.733-5.15-46-5.782-93.038-5.72S366.08 80.408 333.496 86.1c-10.654 1.86-13.06 3.207-11.765 6.58.707 1.842 1.988 2.037 8.8 1.34l7.962-.816 5.532 9.843-8.167 2.05c-10.832 2.72-16.112 2.592-20.03-.5zm30.778-31.04c9.215-8.34 3.616-25.912-8.255-25.912-5.933 0-9.016 1.705-11.393 6.304-3.855 7.455-.716 18.724 6.008 21.567 3.775 1.596 10.833.583 13.64-1.96zm201.016-.982c4.1-1.968 6.538-7.275 6.538-14.168 0-7.885-4.25-12.028-12.335-12.028-4.636 0-6.27.677-9.2 3.815-5.796 6.204-6.2 16.86-.83 21.324 4.405 3.656 9.693 4.008 15.827 1.056zM387.106 67.9c4.114-2.202 1.684-4.864-3.77-4.132-6.742.904-10.2-2.624-10.2-10.433 0-4.94.452-5.93 3.303-7.228 2.783-1.268 3.553-1.164 4.886.66 2.602 3.558 4.67 2.606 4.232-1.95-.385-3.995-.556-4.107-5.9-3.862-10.625.486-16.734 8.38-14.1 18.207 2.203 8.182 13.783 12.882 21.527 8.737zm123.27-6.626c1.412-13.2 2.172-16.14 4.156-16.14 1.025 0 1.63-.712 1.344-1.582-.576-1.755-8.907-2.838-12.166-1.58-1.9.732-1.888.912.133 2.046 2.267 1.273 3.13 8 1.18 9.203-.57.352-2.557-2.463-4.417-6.254s-4.17-6.894-5.136-6.894-3.534-.356-5.7-.8c-3.132-.626-3.956-.363-3.956 1.266 0 1.13.57 2.057 1.266 2.057 1.447 0 1.634 5.823.46 14.38-.5 3.723-1.437 5.873-2.532 5.873-.95 0-1.727.854-1.727 1.9s1.068 1.9 2.373 1.9 4.153.356 6.33.8c3.132.626 3.956.363 3.956-1.266 0-1.13-.57-2.057-1.266-2.057s-1.266-2.563-1.266-5.696c0-6.312 1.383-7.326 3.538-2.596 3.268 7.173 8.008 13.355 10.238 13.355 1.95 0 2.497-1.35 3.2-7.9zm-92.6 4.555c8.365-.8 8.544-.883 8.544-4.42 0-3.92-2.975-5.052-4.288-1.63-.496 1.294-1.975 1.844-4.25 1.582-2.706-.3-3.575-1.154-3.877-3.76-.35-3.03.1-3.442 4.747-4.225 6.97-1.178 7.024-4.443.072-4.443-4.557 0-5.063-.316-5.063-3.165 0-2.458.65-3.165 2.9-3.165 1.6 0 3.545.634 4.32 1.4 2.165 2.165 3.894.3 3.18-3.433-.618-3.232-.868-3.323-7.1-2.573-3.558.427-8.32.782-10.582.788-2.808.008-4.114.614-4.114 1.9 0 1.044.854 1.9 1.9 1.9 1.53 0 1.9 1.97 1.9 10.127 0 5.907-.527 10.127-1.266 10.127-.696 0-1.266.854-1.266 1.9 0 2.13 1.7 2.26 14.24 1.074zm33.86-2.234c0-.986-.67-2.017-1.5-2.3-2.92-.973.447-3.512 4.654-3.512s7.573 2.54 4.655 3.512c-.82.273-1.5 1.304-1.5 2.3 0 1.308 1.713 1.793 6.33 1.793 4.782 0 6.33-.464 6.33-1.9 0-1.044-.466-1.9-1.035-1.9s-2.047-3.2-3.284-7.136c-4.062-12.887-6.8-18.18-9.405-18.18-3.164 0-3.916 1.106-9.67 14.24-2.67 6.092-5.333 11.076-5.92 11.076s-1.066.854-1.066 1.9c0 1.406 1.477 1.9 5.696 1.9 4.07 0 5.696-.512 5.696-1.793zm-228.214 81.97c-.4-.663 1.443-3.33 4.118-5.926 5.17-5.018 8.907-11.624 8.907-15.745 0-1.65-1.4-3.05-4.114-4.1-7.746-3.026-16.307-9.198-20.653-14.9-2.4-3.13-4.346-6.038-4.345-6.46s6.4-.84 14.24-.932c10.078-.116 17.2-.953 24.366-2.86 12.48-3.323 29.017-11.237 34.425-16.475 4.365-4.228 5.448-4.72 5.448-2.476 0 2.32 13.16 21.343 20.175 29.163 7.415 8.267 12.68 10.56 21.77 9.484 3.385-.4 6.155-.526 6.155-.278s-4.613 3.4-10.25 7.027c-17.093 10.964-33.376 17.297-55.413 21.55-15.18 2.93-43.678 4.8-44.83 2.93zM334.405 67.16c-1.047-2.505-1.73-6.635-1.518-9.177.327-3.925.885-4.68 3.702-5.007 2.834-.33 3.616.365 5.38 4.772 2.447 6.116 2.633 10.36.544 12.448-2.897 2.897-6.136 1.685-8.108-3.036zm120.703-14.124c-2.37-.527-2.663-1.464-1.447-4.634 1.143-2.98 2.648-2.428 3.586 1.312.958 3.816.848 3.987-2.14 3.322z" fill="#b7c4c8"/><path d="M745.77 691.25c-2.854-4.618 5.353-14.36 16.106-19.115 9.35-4.135 11.48-6.13 14.968-14.014 5.3-12.005 4.294-27.272-2.484-37.306-2.645-3.915-10.225-10.668-16.844-15.006-13.343-8.744-19.106-17.2-22.368-32.78-6.794-32.48-35.865-70.376-67.7-88.253-18.855-10.588-27.903-17.92-35.17-28.5-7.9-11.504-8.13-13.18-1.807-13.18 4.963 0 56.755-13.276 58.465-14.986.527-.527.08-1.837-.995-2.9-1.28-1.28-11.816.47-30.6 5.082-33.882 8.32-31.56 8.92-52.748-13.604l-14.666-15.6v-19.926c0-17.487.364-19.624 2.977-17.455 1.637 1.36 2.982 4.37 2.988 6.694.067 25.464 27.566 46.2 48.574 36.63 5.74-2.615 5.613-6.974-.172-5.92-7.587 1.382-20.86.865-22.483-.877-3.136-3.367 3.924-20.546 13.813-33.612l9.876-13.048v-35.16l-15.878-13.136c-8.733-7.225-15.878-13.893-15.878-14.818s3.97-.254 8.82 1.5c9.098 3.272 14.917 1.577 8.268-2.408-16.98-10.177-22.094-14.526-22.644-19.252-.448-3.853.648-5.66 4.495-7.414 2.798-1.275 6.076-4.487 7.283-7.137 2.128-4.67 2.438-4.733 10.054-2.046 6.9 2.438 8.6 2.4 13.988-.397 12.372-6.398 37.615 1.724 51.215 16.478 14.15 15.352 14.46 16.887 15.918 79.046 1.466 62.522 2.574 68.528 18.3 99.238 6.825 13.32 12.196 19.877 33.32 40.688 24.166 23.807 30.232 32.03 35.38 47.956 1.292 3.998 4.754 9.673 7.693 12.6 4.676 4.676 6.53 5.23 14.854 4.43 20.644-1.984 32.344-26.558 21.283-44.7-6.292-10.32-4.963-18.064 2.422-14.112 10.52 5.63 15.076 34.595 7.703 48.972-9.773 19.057-32.27 27.536-49.812 18.773-5.905-2.95-7.555-5.384-11.006-16.236-4.435-13.947-10.35-19.678-8.084-7.83.705 3.687 2.058 17.5 3.005 30.72 1.9 26.642 5.145 36.187 14.615 43.136 5.47 4.014 5.792 4.972 4.832 14.416-.63 6.188-4.1 16.208-8.914 25.802-4.337 8.627-9.04 19.542-10.453 24.255-3.788 12.647-9.502 16.24-25.826 16.24-7.43 0-14.044-.867-14.7-1.926zm-56.602-365c7.992-5.678 12.07-15.66 11.456-28.052-.388-7.845-1.33-10.916-3.354-10.916-2.07 0-2.857 2.906-2.977 11.005-.183 12.345-4.376 20.583-12.32 24.202-4.013 1.828-5.357 1.713-6.8-.587-3.154-4.985-2.047-12.5 3.935-26.67 5.572-13.208 6.165-18.384 1.797-15.684-1.125.695-4.635 6.738-7.8 13.43-9.67 20.44-6.497 40.97 5.878 38.037 2.88-.683 7.467-2.827 10.196-4.766zm-31.756-53.547c0-3.255-7.83-8.713-10.842-7.557-1.678.644-3.05 2.985-3.05 5.203 0 3.285 1.287 4.032 6.947 4.032 3.82 0 6.947-.755 6.947-1.677zM641.8 637.72c2.48-7.115 5.337-9.6 18.4-15.993 19.525-9.563 24.103-25.44 12.953-44.927-4.704-8.222-5.808-12.046-4.8-16.633 1.63-7.42 18.048-25.644 27.77-30.824l7.277-3.878 4.784 5.954c6.816 8.484 16.73 27.63 16.73 32.3 0 2.96-1.76 4.297-6.94 5.27-3.816.716-9.4 3.4-12.383 5.984-4.548 3.912-5.448 6.282-5.466 14.396-.02 8.257-1.088 10.958-7.133 18.023-3.9 4.57-9.623 13.012-12.694 18.76-9.076 17-9.686 17.398-26.05 17.398h-14.475zm-26.73-261.608c-.516-1.9-2.94-11.958-5.387-22.33-2.556-10.833-8.133-26.244-13.108-36.222l-8.66-17.367h-7.802c-9.96 0-11.52-2.65-5.256-8.915 5.418-5.418 13.952-6.468 19.327-2.378 3.945 3.002 41.406 59.74 41.406 62.712 0 2.632-16.377 27.643-18.225 27.832-.745.076-1.777-1.424-2.294-3.334zm-367.185-9.865l-9.606-14.58 17.488-27.224c9.618-14.973 19.9-29.68 22.85-32.682 6.394-6.507 13.154-6.955 20.287-1.345 7.72 6.073 6.786 9.78-2.466 9.78-4.233 0-8.597 1.116-9.698 2.48-6.688 8.288-18.38 36.677-22.275 54.085-2.443 10.916-5 20.797-5.707 21.958s-5.6-4.452-10.872-12.47zM94.64 688.306c-2.68-2.68-4.872-6.568-4.872-8.64s-4.378-12.6-9.73-23.417-10.356-23.832-11.123-28.948c-1.344-8.965-1.125-9.538 6.055-15.842 10.302-9.045 12.813-16.293 12.813-36.987 0-9.913 1.292-21.87 2.956-27.354 3.678-12.123 3.724-14.705.262-14.705-2.853 0-5.864 6.143-8.683 17.714-2.538 10.416-10.246 15.035-25.093 15.035-10.278 0-13.85-.957-20.845-5.586-16.4-10.853-22.658-35.203-13.598-52.915 5.25-10.262 10.15-14.014 13.687-10.478 1.855 1.855 1.207 4.546-2.923 12.133-2.918 5.362-5.306 12.56-5.306 15.995 0 16.018 12.404 29.935 26.68 29.935 11.64 0 17.407-5.1 22.9-20.253 6.336-17.447 13.56-27.15 30.88-41.477 24.938-20.628 42.744-48.273 50.833-78.92 3.365-12.75 4.136-23.243 4.857-66.1.922-54.83 2-61.54 12.004-74.654 7.313-9.587 20.398-17.293 34.42-20.27 10.58-2.245 12.9-2.15 19.443.8 6.715 3.028 8.115 3.064 14.554.374 6.916-2.9 7.2-2.834 9.723 1.88 1.43 2.67 4.684 6.222 7.232 7.892 8.903 5.833 4.258 14.08-12.733 22.6-4.64 2.33-8.435 5.1-8.435 6.178 0 2.945 7.4 2.33 14.176-1.18 10.146-5.247 8.5-1.8-4.48 9.357-23.166 19.93-21.604 17.284-21.604 36.604 0 16.972.1 17.328 7.13 25.108C242.7 369.8 254.5 391.8 254.503 397c.002 3.5-8.283 6.323-15.15 5.183-10.9-1.8-13.205-1.746-13.962.38-1.146 3.222 8.35 6.792 18.066 6.792 16.62 0 34.864-17.45 34.864-33.344 0-7.204 2.987-14.3 6.024-14.3 1.1 0 1.915 8.3 1.915 19.482v19.482l-18.365 18c-21.146 20.737-16.926 19.924-53.927 10.392-17.8-4.586-25.74-5.854-27.24-4.354s-1.044 2.7 1.57 4.077c5.76 3.06 50.252 14.286 56.625 14.286h5.714l-3.14 6.073c-5.838 11.3-17.466 21.97-35.536 32.643-21.87 12.916-37.933 26.992-49.83 43.664-10.885 15.254-21.755 38.55-23.565 50.508-1.88 12.414-8 21.274-20.04 28.97-5.694 3.642-12.684 9.393-15.533 12.78-14.777 17.562-9.57 50.16 8.608 53.876 7.754 1.586 17.863 11.562 17.863 17.63 0 3.58-1.363 3.938-14.976 3.938-13.254 0-15.536-.56-19.848-4.872zM206.17 324.6c3.923-9.388 2.414-19.15-5.33-34.5-5.574-11.04-8.375-13.774-10.527-10.27-.503.82 1.678 7.192 4.845 14.163 9.118 20.07 7.132 34.06-4 28.107-6.314-3.38-10.1-12.676-10.1-24.805 0-8.092-.734-11.015-2.765-11.015-6.6 0-7.002 17.367-.7 29.847 2.906 5.764 6.9 10.068 11.412 12.326 10.417 5.204 13.68 4.47 17.163-3.863zm24.848-55.446c-1.124-6.3-3.4-6.96-8.922-2.625-6.164 4.848-6.7 7.25-1.83 8.335 5.863 1.308 11.472-1.672 10.75-5.7zm-25.703 373.058c-1.4-.563-5.12-6.12-8.265-12.35s-9.543-16.166-14.217-22.08c-7.14-9.032-8.4-11.97-7.95-18.36.745-10.32-3.813-16.62-14.15-19.56-4.644-1.32-9.274-3.126-10.3-4.012-2.352-2.052 11.453-29.54 17.857-35.556l4.726-4.44 8.303 5.495c14.485 9.586 25.52 23.72 25.533 32.705.004 2.67-2.45 8.4-5.45 12.73-4.265 6.154-5.458 10.16-5.458 18.32 0 13.504 4.624 19.947 19.543 27.232 10.07 4.917 19.126 14.243 19.153 19.726.008 1.646-25.287 1.778-29.334.152z" fill="#d6a54f"/><path d="M396.7 638.745c-52.537-9.61-82.438-25.97-95.278-52.13l-5.555-11.318-1.427-264.966h284.455l-.598 134.468c-.68 152.908.673 141.044-18.212 159.634-11.974 11.787-35.135 23.484-57.855 29.22-32.13 8.11-77.15 10.284-105.53 5.094zm89.908-25.05c-1.646-2.35-11.586-13.514-22.1-24.8-18.28-19.657-19.45-20.537-27.29-20.537-7.642 0-9.167 1.032-22.744 15.382-8.004 8.46-18.18 19.624-22.613 24.8l-8.06 9.428H489.6zm-63.06-73.037c-1.056-3.015-31.662-37.603-38.886-43.946-7.017-6.16-14.516-7.285-21.473-3.218-3.976 2.324-44.503 46.113-44.503 48.085 0 .532 23.743.968 52.762.968 32.52 0 52.508-.724 52.1-1.888zm130.995-.037c-.998-2.905-33.59-39.508-40.013-44.936-6.097-5.153-13.85-5.988-20.346-2.19-3.976 2.324-44.503 46.113-44.503 48.085 0 .532 23.743.968 52.762.968 33.218 0 52.517-.713 52.1-1.925zm-130.664-77.167c0-2.605-40.995-47.246-44.7-48.663-4.97-1.908-11.423-1.383-15.942 1.297-4.212 2.497-44.56 45.873-44.56 47.904 0 .632 23.668 1.148 52.596 1.148s52.596-.76 52.596-1.686zm130.995-.15c0-2.55-39.1-45.34-43.66-47.782-5.627-3.01-14.403-2.305-19.01 1.53-5.236 4.36-42.523 45.587-42.523 47.017 0 .588 23.668 1.07 52.596 1.07 30.877 0 52.596-.758 52.596-1.835zm-131.325-77.318c-.364-.96-9.593-11.7-20.51-23.863-19.985-22.27-26.026-26.35-36.148-24.414-3.603.69-20.54 17.85-44.96 45.56l-3.936 4.466H371.1c29.774 0 52.817-.768 52.446-1.747zm130.995-.09c-.364-1.01-9.593-11.73-20.51-23.817-20.743-22.97-27.93-27.682-36.98-24.242-3.952 1.503-20.26 18.287-44.136 45.43l-3.928 4.466h53.108c31.734 0 52.84-.74 52.446-1.838z" fill="#006abe"/></g><defs ><path id="B" d="M237.634 350.517c-.59-.332-1.348-1.427-1.348-1.997 0-1.003 1.177-1.813 2.628-1.813l.587-.25.268-.878s-3.268-.417-4.164 1.157-.433 2.598-.06 3.424 1.224 1.246 1.224 1.246l.864-.887z"/><path id="C" d="M241.04 347.92c-.192-.204-.303-.452-.303-.717 0-.72.826-1.305 1.846-1.305.374 0 1.104.08 1.392.213l.1-1.502s-2.757-.318-3.818.904-.793 2.424-.703 2.7a9.05 9.05 0 0 0 .27.695l1.52-.463-.295-.525z"/><path id="D" d="M251.752 350.517c.59-.332 1.35-1.427 1.35-1.997 0-1.003-1.177-1.813-2.63-1.813l-.586-.25-.27-.878s3.267-.417 4.163 1.157.433 2.598.06 3.424-1.226 1.246-1.226 1.246l-.864-.887z"/><path id="E" d="M248.345 347.92c.2-.204.304-.452.304-.717 0-.72-.83-1.305-1.846-1.305-.375 0-1.102.08-1.392.213l-.09-1.502s2.755-.318 3.817.904.792 2.424.7 2.7-.268.695-.268.695l-1.52-.463.294-.525z"/><path id="F" d="M237.338 350.528c1.714-1.776 4.38-2.92 7.372-2.92s5.656 1.143 7.37 2.92l-2.06 5.636h-10.732l-1.95-5.636z"/><path id="G" d="M244.814 345.75c-.262-.057-.52.117-.574.39a.5.5 0 0 0 .377.593c.263.057.52-.118.574-.39a.5.5 0 0 0-.377-.593z"/><path id="H" d="M244.837 346.67c-.332-.074-.657.148-.725.495s.146.677.477.75.66-.15.73-.494-.146-.68-.482-.75z"/><path id="I" d="M244.87 347.865c-.42-.09-.832.19-.92.624s.184.856.605.948.83-.192.917-.624-.18-.86-.603-.948z"/><path id="J" d="M236.313 350.16c0-.432-.338-.786-.76-.786s-.76.353-.76.786.342.784.76.784.76-.35.76-.784z"/><path id="K" d="M240.24 346.807c0-.435-.34-.785-.76-.785s-.762.35-.762.785.34.785.762.785.76-.352.76-.785z"/><path id="L" d="M240.458 348.295c0-.433-.343-.786-.764-.786s-.76.353-.76.786.34.784.76.784.764-.35.764-.784z"/><path id="M" d="M235.726 349.126c.15-.404-.046-.856-.438-1.012s-.832.048-.98.453a.79.79 0 0 0 .438 1.011.75.75 0 0 0 .982-.452z"/><path id="N" d="M235.783 347.95c.286-.318.27-.813-.037-1.1s-.787-.28-1.074.037-.27.815.037 1.11a.74.74 0 0 0 1.075-.038z"/><path id="O" d="M236.423 346.987c.382-.182.544-.65.368-1.04a.75.75 0 0 0-1.011-.38c-.38.184-.544.65-.367 1.043s.632.563 1 .378z"/><path id="P" d="M237.443 346.402c.42-.024.742-.396.714-.83s-.38-.765-.8-.74-.74.397-.716.83.383.764.8.738z"/><path id="Q" d="M238.556 346.107c.397.138.828-.085.962-.497s-.084-.856-.482-.993-.83.084-.963.496.084.857.483.994z"/><path id="R" d="M239.776 346.12c.324.275.803.226 1.07-.107s.22-.833-.104-1.106-.803-.226-1.07.107-.22.83.104 1.105z"/><path id="S" d="M242.25 344.743c0-.436-.34-.785-.762-.785s-.76.35-.76.785.34.784.76.784.762-.35.762-.784z"/><path id="T" d="M243.697 344.586c0-.434-.343-.786-.762-.786s-.76.352-.76.786.338.784.76.784.762-.35.762-.784z"/><path id="U" d="M253.104 350.16c0-.432.34-.786.76-.786s.758.353.758.786-.338.784-.758.784-.76-.35-.76-.784z"/><path id="V" d="M249.18 346.807c0-.435.34-.785.76-.785s.76.35.76.785-.34.785-.76.785-.76-.352-.76-.785z"/><path id="W" d="M248.964 348.295c0-.433.342-.786.763-.786s.76.353.76.786-.342.784-.76.784-.763-.35-.763-.784z"/><path id="X" d="M253.693 349.126c-.15-.404.045-.856.44-1.012s.83.048.982.453a.79.79 0 0 1-.441 1.011c-.39.157-.83-.046-.98-.452z"/><path id="Y" d="M253.638 347.95c-.288-.318-.27-.813.035-1.1s.788-.28 1.075.037.27.815-.038 1.11a.74.74 0 0 1-1.073-.038z"/><path id="Z" d="M252.997 346.987c-.38-.182-.546-.65-.37-1.04a.75.75 0 0 1 1.011-.38c.38.184.546.65.37 1.043s-.63.563-1.01.378z"/><path id="a" d="M251.977 346.402c-.42-.024-.742-.396-.718-.83s.386-.765.804-.74.74.397.715.83-.383.764-.8.738z"/><path id="b" d="M250.864 346.107c-.4.138-.83-.085-.962-.497s.082-.856.482-.993a.75.75 0 0 1 .958.496c.136.414-.08.857-.477.994z"/><path id="c" d="M249.643 346.12c-.323.275-.8.226-1.07-.107s-.218-.833.104-1.106.8-.226 1.07.107.222.83-.104 1.105z"/><path id="d" d="M247.17 344.743c0-.436.34-.785.76-.785s.762.35.762.785-.342.784-.762.784-.76-.35-.76-.784z"/><path id="e" d="M245.724 344.586c0-.434.34-.786.76-.786s.76.352.76.786-.342.784-.76.784-.76-.35-.76-.784z"/><path id="f" d="M244.397 345.835c-.573-.176-.9-.804-.73-1.397s.78-.932 1.353-.754.905.8.733 1.396-.78.932-1.356.755z"/><path id="g" d="M247.014 353.587c0-.21-.173-.383-.383-.383s-.38.173-.38.383.17.383.38.383.383-.172.383-.383z"/><path id="h" d="M250.092 354.258c0-.21-.17-.383-.382-.383s-.38.172-.38.383.173.386.38.386.382-.17.382-.386z"/><path id="i" d="M243.215 353.587c0-.21-.17-.383-.38-.383s-.38.173-.38.383.17.383.38.383a.38.38 0 0 0 .379-.383z"/><path id="j" d="M242.042 353.72c.04.206-.1.4-.296.453l-.746.156c-.207.042-.408-.09-.45-.3s.1-.4.297-.453l.745-.156c.206-.043.408.09.452.3z"/><path id="k" d="M247.424 353.72a.39.39 0 0 0 .297.453l.746.156c.204.042.406-.09.45-.3a.38.38 0 0 0-.294-.453l-.747-.156c-.204-.043-.406.09-.45.3z"/><path id="l" d="M245.08 350.285c0-.213-.17-.384-.38-.384a.38.38 0 0 0-.38.384c0 .214.17.385.38.385s.38-.17.38-.385z"/><path id="m" d="M249.033 350.697c0-.214-.17-.385-.382-.385s-.38.17-.38.385.172.384.38.384.382-.172.382-.384z"/><path id="n" d="M252.502 352.07a.38.38 0 0 0-.378-.383c-.21 0-.38.173-.38.383s.17.385.38.385a.38.38 0 0 0 .378-.385z"/><path id="o" d="M236.896 352.07c0-.2.17-.383.382-.383s.38.173.38.383-.17.385-.38.385-.382-.172-.382-.385z"/><path id="p" d="M245.09 344.51V343.1h.478v-.787h-.478v-.493h-.762v.493h-.477v.787h.477v1.412h-.67v.51h2.1v-.51z"/><path id="q" d="M234.192 355.885h20.966v18.387c0 6.07-10.48 6.07-10.48 6.07s-10.485 0-10.485-6.07v-18.387z"/><path id="r" d="M225.765 371.335c1.085.424 2 1.223 2.607 2.25l.012.022c.12.216.2.47.2.737 0 .39-.148.748-.386 1.006a1.81 1.81 0 0 0-.47 1.224c0 .843.556 1.544 1.296 1.713.9.197 1.552 1.025 1.552 2.02h-1.93c-.42 0-.853-.236-1.088-.754-.354-.835-1.24-2.294-2.018-2.682.023-.142.29-.535.29-.684 0-1.183-.762-1.145-1.8-1.403l-.34-.062s.2-.808.7-1.708 1.385-1.68 1.385-1.68z"/><path id="s" d="M230.23 359.234l2.742-4.246c.27-.4.697-.65 1.178-.65.8 0 1.433.682 1.433 1.526h-1.433L233 358.02l-.735 3.2-.41.612-.034.078"/><path id="t" d="M219.575 374.014c-.024.205-.036.414-.036.623a5.87 5.87 0 0 0 .055.797l.004.027a2.35 2.35 0 0 1 .021.31c0 .98-.583 1.81-1.4 2.128a3.5 3.5 0 0 0-.028.453 4.34 4.34 0 0 0 .75 2.45l.024.05c.375.566.643 1.208.776 1.904.158.71.712.995 1.14.995h2.253c0-1.137-.864-2.056-1.93-2.056-.436-.46-.694-1.087-.694-1.775 0-1.058.6-1.967 1.475-2.346 1.04-.47 1.766-1.55 1.766-2.812l.01-.03c.9-2.714 2.798-4.922 5.226-6.13 1.805-.836 3.053-2.75 3.053-4.96 0-1.704-.742-3.22-1.9-4.208l.015-2.463c.245-.223.45-.383 1.055-.86.804-.63 1.353-1.07 1.53-2.02.108-.593.423-2.592-.37-2.47s-1.942.616-1.942.616c-.46-.196-.58-.447-1.106-.447-.35 0-.982.184-1.306.27-1.744.477-3.032 2.165-3.032 4.17l.03 4.762c0 3.438-1.63 6.467-4.113 8.264-1.053.75-1.83 1.89-2.138 3.224l-.006.035c-.146.61-.663.954-1.125.954a1.74 1.74 0 0 1-1.276-.561c-.702-.746-.702-1.964 0-2.714a.68.68 0 0 0 0-.915.58.58 0 0 0-.859 0c-1.174 1.253-1.174 3.294 0 4.545 1.116 1.186 2.9 1.248 4.076.186a5.62 5.62 0 0 1 .444-1.672 5.62 5.62 0 0 0-.444 1.672"/><path id="u" d="M226.245 354.8s-.3.9.11 1.8c.283.62.865.982 1.473.988a1.85 1.85 0 0 0 .173-1.843l-.68-1.465"/><path id="v" d="M229.8 362.874c1.185.67 2.508-.004 3.16-1.12.227-.387.107-1.033.236-1.417l.01-.024c.14-.416.516-.72.956-.72l.002 3.18-1.033 1.098c-.746.793-1.564 1.925-2.423 1.66l-3.683-.96"/><path id="w" d="M231.614 351.698c0 .702.536 1.273 1.196 1.273v-.82c-.001-.338-.11-.503-.428-.453h-.383z"/><path id="x" d="M255.323 338.857c.817 1.66 3.773 2.13 4.762 2.107a3.64 3.64 0 0 0 1.381-.283 3.24 3.24 0 0 1-.169.447c-.418.925-1.22 1.636-2.205 1.923.32 1.002 1.043 1.353 1.82 1.665-.862.27-6.477.735-10.088-3.024"/><path id="y" d="M233.936 338.857c-.815 1.66-3.77 2.13-4.763 2.107a3.65 3.65 0 0 1-1.38-.283c.046.155.1.303.168.447a3.51 3.51 0 0 0 2.205 1.923c-.32 1.002-1.04 1.353-1.817 1.665.86.27 6.476.735 10.088-3.024"/><path id="z" d="M251.39 340.74l-.58.996 1.377.34c.7.17 1.037.038 1.523-.51.578-.66 1.207-1.63 1.207-1.63.248-.382.388-.82.388-1.294a2.32 2.32 0 0 0-1.859-2.275l-.022-.007a48.69 48.69 0 0 0-8.729-.787h-.128c-2.98 0-5.897.27-8.727.787l-.024.007a2.32 2.32 0 0 0-1.86 2.275c0 .474.142.912.383 1.277.007.017.634.99 1.212 1.648.486.547.825.678 1.525.51l1.377-.34-.58-.996-.08-.173-1.116.167c2.56-.463 5.195-.704 7.89-.704h.128a44.36 44.36 0 0 1 7.891.704l-1.096-.16-.1.164z"/><path id="AA" d="M263.61 371.33c-1.086.424-2 1.224-2.61 2.252l-.012.022c-.12.215-.19.466-.19.737 0 .39.145.748.385 1.004a1.82 1.82 0 0 1 .47 1.226c0 .84-.555 1.543-1.3 1.713-.885.194-1.548 1.023-1.548 2.018h1.93c.422 0 .855-.233 1.09-.753.352-.836 1.24-2.293 2.016-2.683-.023-.142-.3-.536-.3-.685 0-1.183.765-1.144 1.8-1.4l.34-.065s-.2-.806-.703-1.706-1.382-1.68-1.382-1.68z"/><path id="AB" d="M259.145 359.233l-2.743-4.247c-.27-.4-.696-.652-1.176-.652-.792 0-1.434.685-1.434 1.526h1.434l1.14 2.158.734 3.2.41.612.034.08"/><path id="AC" d="M269.8 374.01a5.83 5.83 0 0 1 .034.623c0 .27-.018.536-.055.795l-.002.03a2.28 2.28 0 0 0-.019.309c0 .978.58 1.812 1.398 2.128.02.156.027.304.027.455a4.33 4.33 0 0 1-.748 2.448l-.024.05a5.14 5.14 0 0 0-.774 1.906c-.16.71-.712.993-1.14.993h-2.257c0-1.134.865-2.057 1.932-2.057a2.56 2.56 0 0 0 .696-1.773c0-1.057-.612-1.967-1.478-2.347-1.04-.466-1.766-1.548-1.766-2.81l-.007-.034c-.9-2.71-2.798-4.92-5.227-6.128-1.806-.836-3.053-2.75-3.053-4.96 0-1.703.742-3.222 1.9-4.207l-.016-2.465c-.244-.223-.45-.384-1.057-.86-.8-.63-1.35-1.072-1.527-2.018-.11-.595-.425-2.595.367-2.47s1.94.616 1.94.616c.464-.195.585-.447 1.11-.447.348 0 .983.18 1.304.27 1.745.48 3.034 2.162 3.034 4.17l-.03 4.763c0 3.438 1.63 6.47 4.11 8.267 1.053.75 1.83 1.89 2.14 3.222l.005.034c.146.6.663.958 1.124.958a1.75 1.75 0 0 0 1.277-.562 2.02 2.02 0 0 0 0-2.715c-.24-.253-.24-.663 0-.914s.62-.255.855 0c1.18 1.25 1.18 3.29 0 4.544-1.112 1.185-2.888 1.248-4.072.186-.063-.59-.215-1.155-.444-1.67a5.6 5.6 0 0 1 .444 1.671"/><path id="AD" d="M263.128 354.798s.303.9-.108 1.797c-.285.62-.866.98-1.475.99-.37-.514-.46-1.224-.176-1.843l.682-1.463"/><path id="AE" d="M259.575 362.87c-1.185.67-2.508-.001-3.16-1.12-.23-.387-.107-1.035-.234-1.416l-.01-.022c-.14-.42-.516-.72-.958-.72l-.004 3.18 1.033 1.1c.746.792 1.564 1.923 2.424 1.658l3.684-.96"/><path id="AF" d="M342.344 264.74c-2.454-3.97-3.56-8.04-3.313-12.204.36-6.12-.65-7.426-6.54-8.444-4.608-.796-14.336-4.964-14.336-6.142 0-4.216 13.688-5.115 16.354-1.074.5.773 3.915.35 7.567-.938s7.07-1.91 7.6-1.384.96 3.72.96 7.092c0 4.407-.968 6.81-3.442 8.544l-3.442 2.41 3.6 5.056c2.876 4.04 4.058 4.676 5.878 3.166 1.253-1.04 2.277-4.315 2.277-7.28 0-7.304 2.365-8.236 8.277-3.26 6 5.05 10.103 5.283 14.557.828 5.382-5.382 3.505-8.754-5.185-9.318-5.515-.358-8.5-1.57-11.353-4.597-3.825-4.072-3.83-4.13-.613-6.36 1.786-1.237 4.13-3.005 5.21-3.93s2.723-1.68 3.654-1.68 1.692-1.122 1.692-2.493c0-2 2.35-6.72 5.924-11.906.744-1.08 10.134 7.052 10.226 8.855.05.97 3.134 1.883 6.855 2.03s7.09.59 7.5 1 .07 3.505-.73 6.903c-1.164 4.94-2.485 6.515-6.6 7.86-7.19 2.35-7.745 3.323-4.6 8.108 2.175 3.32 3.847 4.1 7.933 3.704 4.152-.402 5.767-1.708 8.153-6.59 1.637-3.35 3.51-6.1 4.162-6.1s3.287 2.192 5.854 4.872c5.397 5.634 10.457 6.22 14.56 1.684 4.188-4.628 2.102-8.18-4.806-8.18-4.603 0-6.076-.792-7.258-3.902-.816-2.146-2.26-4.382-3.208-4.968-2.804-1.733-1.966-5.746 1.2-5.746 4.135 0 11.663-3.73 11.678-5.786.007-.95 2.224-3.844 4.926-6.434l4.914-4.708 4.018 4.333c2.2 2.383 4.018 5.46 4.018 6.84 0 1.4 1.393 2.507 3.152 2.507 1.734 0 3.604.73 4.156 1.624s2.422 1.624 4.156 1.624c3.796 0 3.883 1.1.694 8.733-2.307 5.52-2.905 5.882-9.743 5.882-8.24 0-9.54 2.617-4.038 8.12 4.514 4.514 8.355 4.062 13.803-1.624 2.567-2.68 5.3-4.872 6.07-4.872s2.435 2.47 3.695 5.487c3.578 8.564 11.885 10.283 16.4 3.394 3.07-4.687 2.498-5.67-4.672-8.012-4.114-1.344-5.435-2.917-6.6-7.86-.8-3.398-1.13-6.504-.73-6.903s3.77-.844 7.5-1c4.43-.174 6.765-1.014 6.765-2.435 0-1.193 1.12-2.17 2.487-2.17s2.907-1.096 3.422-2.436c1.173-3.056 7.083-3.222 7.083-.2 0 1.23 1.053 3.11 2.34 4.178s1.94 2.984 1.45 4.26-.05 2.317.977 2.317 2.75.756 3.828 1.68 3.374 2.656 5.1 3.85c3.068 2.12 3.05 2.283-.812 7.15-3.34 4.21-4.956 4.933-10.447 4.676-5.503-.257-6.57.224-6.988 3.148-.584 4.1 3.557 8.728 7.79 8.728 1.654 0 5.24-1.88 7.97-4.176 5.912-4.975 8.277-4.043 8.277 3.26 0 6.996 3.44 10.118 6.814 6.187 4.86-5.658 5.113-7.27 1.568-9.96-2.84-2.155-3.275-3.702-2.453-8.732.934-5.716 1.332-6.08 6.12-5.588 2.817.29 6.013 1.077 7.103 1.75 1.12.693 2.338.298 2.8-.908 1.524-3.967 15.396-2.414 15.396 1.723 0 1.796-7.95 5.37-13.525 6.08-7.04.897-8.022 2.108-6.982 8.614.753 4.71.095 7.227-3.13 11.975-5.046 7.425-10.434 7.922-16.787 1.546-3.602-3.615-5.666-4.375-10.836-3.99-4.772.356-7.78-.55-11.892-3.59-4.153-3.067-6.22-3.683-8.42-2.507-4.987 2.67-13.796 1.763-18.45-1.897-3.683-2.897-5.044-3.16-8.415-1.624-5.74 2.616-10.448 2.264-16.137-1.206-4.84-2.952-5.053-2.952-8.705.006-4.22 3.417-11.044 3.91-16.933 1.228-3.31-1.508-4.773-1.202-8.916 1.86-4.176 3.088-6.255 3.51-13.2 2.69-6.562-.777-9.375-.308-13.8 2.302-3.602 2.125-7.695 3.1-11.635 2.77-4.864-.408-6.967.382-10.526 3.956-6.343 6.368-11.68 5.878-16.234-1.49zm43.365-27.764c2.737-1.828 3.618-5.755 1.997-8.907-1.997-3.882-8.932-3.628-11.09.406-3.307 6.18 3.3 12.364 9.094 8.5zm113.336-2.41c2.446-3.902-.538-8.377-6.023-9.034-3.407-.408-4.453.318-5.295 3.675-1.992 7.937 7.025 12.207 11.318 5.36zm-54.822-6.88c1.262-3.288-2.348-8.952-5.706-8.952-4.835 0-8.896 5.622-6.838 9.467.954 1.783 2.657 3.572 3.783 3.975 2.628.942 7.668-1.64 8.76-4.5z"/></defs></svg>