<svg xmlns="http://www.w3.org/2000/svg" xmlns:xlink="http://www.w3.org/1999/xlink" height="500" width="750" xmlns:v="https://vecta.io/nano"><style><![CDATA[.B{fill:none}.C{stroke:#000}.D{stroke:#fff}.E{fill:#004c7f}.F{fill:#eebf00}.G{stroke-dashoffset:1}.H{stroke:#87675d}.I{stroke-linejoin:bevel}.J{fill-rule:evenodd}.K{fill:#fff}.L{stroke-width:1.445}.M{stroke-linecap:square}.N{stroke-linejoin:round}.O{stroke-width:.361}.P{stroke:#87675c}.Q{stroke-width:11.252}.R{fill:#dfdbd7}.S{stroke:#87665c}.T{stroke-width:11.113}.U{stroke-width:1.871}.V{stroke-width:14.163}.W{stroke-width:24.969}.X{stroke-width:34.539}]]></style><g class="J"><path d="M375 250L0 500V250z"/><path d="M0 500l375-250v250z" class="K"/><g transform="matrix(-1.666667 0 0 1.666667 897.410649 175.025816)"><path d="M538.446-105.015l-225 150v-150z"/><path d="M313.446 44.985l225-150v150z" class="K"/></g><g transform="matrix(-1.666667 0 0 -1.666667 1272.410634 74.974187)"><path d="M538.446-105.015l-225 150v-150z"/><path d="M313.446 44.985l225-150v150z" class="K"/></g><path d="M750 500L375 250v250z"/><path d="M375 250l375 250V250z" class="K"/></g><g transform="matrix(.772372 0 0 .772372 27.432394 18.288874)"><path d="M378.424 244.706c.508-.73 40.293-12.415 71.058-12.415s74.02 11.145 74.02 11.145l-1.27 15.004c.254 1.27-41.356-8.78-72.122-8.78s-72.77 9.796-72.77 9.796z" stroke-width="1.713" class="F P"/><g fill="red" class="N U"><path d="M441.278 241.063l8.814-5.113 8.814 5.113-8.814 5.284zm-68.682 11.325l5.88-5.206 7.375 4.307-8.164 4.952z" class="H"/><path d="M527.87 252.495l-4.78-5.222-7.704 2.2 6.556 4.968z" class="P"/></g></g><g transform="matrix(.128419 0 0 .128419 374.70432 46.931126)"><path d="M32.006 1038.803c3.486-13.977 3.568-28.84 9.18-42.237 2.36-5.37 5.127-10.558 7.753-15.78 4.105-5.143 9.157-9.557 14.823-12.774 8.275-3.133 17.116-4.05 25.82-5.088 5.72 1.9 9.562 7.24 15.273 9.185 5.72 2.953 11.703 5.81 18.17 6.372 4.144 1.745 8.638.3 12.576-1.31 5.264-2.137 9.724-5.9 13.8-9.844 2.068-2.262 2.615-5.404 4.14-8.016 1.82-3.785 3.103-7.815 4.14-11.88.624-3.738.455-7.58.194-11.337-.62-3.1-2.36-6.13-1.72-9.392 2.304-2.726 6.515-1.58 8.94-4.114 5.485-3.904 11.267-7.61 15.732-12.766 1.885-2.17 2.825-4.96 4.858-7 2.3-3.017 4.224-6.32 6.032-9.658 1.52-3.15 2.205-6.655 4.067-9.644 2.38-4.424 4.504-9.227 4.352-14.393.418-4.385 1.41-8.76.87-13.184.047-4.916.48-10.003-1.352-14.678-2.11-7.282-6.63-13.782-12.757-18.078-2.21-1.564-4.01-4.783-7.108-4.17-2.22.9-3.94 2.738-6.138 3.724l-19.62 10.025c-6.023.814-11.43-2.93-15.908-6.606-4.563-3.91-8.815-8.297-14.103-11.205-7.992-4.974-15.99-10.445-25.222-12.645-2.655-.646-5.1-2.037-7.872-2.197-1.487-.506-5.26.342-3.854-2.238 1.072-2.965 3.32-5.26 5.262-7.635 4.89-4.503 11.794-4.56 17.727-6.61 3.595-1.47 6.895-3.64 10.135-5.758 3.055-3.15 5.376-7.046 7.023-11.13 1.868-5.297 3.87-11.138 1.978-16.74-1.138-4.495-2.16-9.204-5.107-12.885-7.886-10.597-17.132-20.607-28.84-26.752-4.7-2.372-9.697-4.173-14.8-5.388-4.097-.842-8.278-.384-12.41-.175-2.265.198-4.124-1.168-5.452-2.92-6.272-7.305-11.896-15.4-19.65-21.192-4.896-3.687-10.917-5.25-16.725-6.715-6.197-.453-12.607.324-18.348 2.813-2.926 1.178-5.04 4.792-8.48 4.204-3.56-.777-5.864-4.123-9.374-5.085-4.368-1.475-9.017-2.137-13.61-2.12-5.154.172-10.017 2.195-14.735 4.146-5.67 2.404-9.8 7.175-13.937 11.635-4.287 4.792-8.22 9.898-12.428 14.762-6.688 1.02-13.75-.955-20.17 1.85-8.893 2.836-17.378 7.35-24.142 13.987-6.786 6.188-12.974 13.207-17.69 21.18-1.554 4.063-2.328 8.394-3.31 12.617-.306 4.892 1.903 9.4 3.09 14.01 2.616 4.436 4.977 9.605 9.825 11.9 3.908 2.372 7.982 4.87 12.623 5.214 5.71 1.084 11.914 3.302 15.017 8.715 1.067 1.59 4.446 5.09 1.306 6.165-2.6-.186-5.176.172-7.5 1.496-3.338 1.12-6.865 1.66-10.103 3.13-8.043 3.427-15.212 8.59-22.63 13.19-5.932 4.428-10.783 10.47-17.63 13.53-3.418 2.068-7.93 2.073-11.256-.2l-16.978-8.66c-2.56-1.904-6.075-4.92-9.2-2.34-2.287 1.783-4.167 4.057-6.574 5.694-5.475 4.707-8.808 11.59-10.514 18.595-.963 5.072-.388 10.255-.54 15.38-.033 3.8 1.04 7.472 1.103 11.263.15 3.467 1.167 6.815 2.85 9.816 1.938 3.906 4.012 7.79 5.172 12.03 1.468 3.106 3.797 5.687 5.23 8.813 3.57 3.303 4.923 8.516 8.978 11.362 4.662 4.118 9.793 7.677 14.974 11.045 2.422.877 6.984.257 7.085 3.938-.666 3.098-2.12 6.017-2.27 9.244-.704 5.985.37 12.05 2.583 17.6 1.224 3.97 3.536 7.47 5.062 11.305 2.22 3.253 5.82 5.037 8.63 7.66 4.205 2.875 9.075 4.838 14.095 5.45 3.532-.25 6.994-1.16 10.44-1.898 8.26-2.775 16.243-6.687 23.06-12.264 2.36-1.74 5.394-2.687 8.256-1.81 7.785 1.26 15.88 1.78 23.137 5.194 4.16 2.507 7.727 5.908 11.28 9.217 4.017 4.356 5.913 10.137 8.636 15.327 2.744 5.715 4.85 11.78 5.796 18.088 2.343 10.595 2.938 21.576 6.052 31.986 1.625 3.925 4.275 7.436 7.546 10.053 2.868 1.345 5.936 2.207 8.808 3.535 4.4 1.21 8.928-.428 12.71-2.7 2.06-1.15 4.068.198 5.866 1.165 3.9 1.746 8.7 3 12.634.66 2.8-1.596 6.494-1.554 8.575-4.38 3.065-3.13 5.6-6.986 6.776-11.278a4.89 4.89 0 0 0 .016-1.402z" class="F H Q"/><path d="M8.002 787.662v35.877H-6v-35.877zm0 136.334v31.777H-6v-31.777z" fill="#87675d"/><path d="M-345.465 1156.686c23.812-3.547 39.438-25.43 48.46-46.556 6.637-15.8 11.264-32.447 14.233-49.34 2.57-14.327 17.015-24.687 31.02-21.445 14.807 1.56 23.995 14.437 32.302 25.6 9.652 10.78 24.064 14.916 36.23 21.93 25.696 11.842 54.76 21.333 83.028 14.645 25.048-7.07 46.405-30.713 47.5-57.856.46-9.448-5.797-29.698-17.716-22.918-6.627 9.257-8.67 22.545-19.64 28.196-15.205 9.757-36.376-3.76-36.626-21.506.068-15.547 12.617-26.67 19.95-39.1 11.427-15.686 31.555-25.764 50.66-20.7 27.847 5.054 46.67 32.558 51.49 59.705 6.856 40.26-13.438 81.51-44.456 105.665-22.688 17.897-52.57 21.83-80.37 20.523-39.87-2.154-77.4-19.16-110.802-40.582-11.59-1.143-10.014 16.45-16.508 23.17-14.545 26.9-40.272 50.305-69.402 61.97-26.803 10.513-48.5 11.084-75.935 5.663-19.244-4.556-38.533-9.427-57.244-15.967-21.532-8.53-42.904-20.573-57.297-39.455-14.05-22.848-20.367-49.987-22.467-76.67-1.327-18.19 2.03-36.194 5.664-53.883 1.54-11.714-8.91-19.797-16.44-26.794-17.06-13.58-39.738-17.647-60.812-14.753-12.09 4.096-19.465-7.295-27.137-14.762-9.228-6.266-20.427-9.122-31.26-11.193-8.935-1.276-18.11-2.892-26.78-.258-14.024-.392-7.084-15.48-.98-21.58 12.687-14.983 33.885-16.528 51.814-14.054 11.912 3.332 16.58-8.215 19.9-17.388 9.303-17.396 21.456-33.222 35.083-47.245 21.697-19.558 48.727-33.28 77.485-37.278 7.434.526 24.29-8.007 25.024 3.305l-19.58 34.636c-6.46 7.824-9.86 19.17 2.644 22.298 11.215 4.077 19.283 15.32 31.485 16.628 22.438-1.35 44.995-1.393 67.48-2.23 8.86 24.41 1.22 52.547-14.795 71.968-11.172 5.586-3.207 18.064 3.975 22.825 5.32 4.454 17.194 15.907 3.058 15.97-24.066 5.16-46.46 23.765-50.966 49.385-4.282 22.402 2.252 45.587 14.685 64.143 10.943 16.726 27.78 28.655 45.236 37.27 18.653 7.057 39.043 9.627 58.82 8.03z" class="F H Q"/><path d="M-5 2494.435c454.59 0 456.09-437.704 456.09-437.704v-694.995h-912.18v694.995S-462.22 2494.435-5 2494.435z" fill="#e60000"/><path d="M-4 2297.622c247.586 0 250.05-275.743 250.05-275.743v-437.704h-500.1v437.704s1.484 275.743 250.05 275.743z" class="K"/><g class="H Q"><path d="M-19.663 707.538s9.764 8.532 19.53 8.532 19.53-8.532 19.53-8.532 3.255 56.957-19.53 56.957c-21.854 0-19.53-56.957-19.53-56.957z" class="B"/><path d="M350.07 1156.686c-23.812-3.547-39.438-25.43-48.46-46.556-6.637-15.8-11.264-32.447-14.233-49.34-2.57-14.327-17.014-24.687-31.02-21.445-14.807 1.56-23.995 14.437-32.302 25.6-9.653 10.78-24.064 14.916-36.23 21.93-25.696 11.842-54.76 21.333-83.028 14.645-25.048-7.07-46.405-30.713-47.49-57.856-.46-9.448 5.797-29.698 17.716-22.918 6.627 9.257 8.67 22.545 19.64 28.196 15.205 9.757 36.376-3.76 36.626-21.506-.068-15.547-12.617-26.67-19.95-39.1-11.427-15.686-31.555-25.764-50.66-20.7-27.847 5.054-46.67 32.558-51.49 59.705-6.856 40.26 13.438 81.51 44.456 105.665 22.688 17.897 52.57 21.83 80.37 20.523 39.87-2.154 77.4-19.16 110.803-40.582 11.59-1.143 10.014 16.45 16.508 23.17 14.545 26.9 37.22 50.306 66.348 61.97 28.33 7.46 51.554 11.084 78.988 5.663 19.244-4.556 38.533-9.427 57.244-15.967 21.532-8.53 42.904-20.573 57.297-39.455 14.05-22.848 20.366-49.987 22.467-76.67 1.327-18.19-2.03-36.194-5.664-53.883-1.54-11.714 8.9-19.797 16.44-26.794 17.06-13.58 39.738-17.647 60.812-14.753 12.09 4.096 19.465-7.295 27.137-14.762 9.228-6.266 20.427-9.122 31.26-11.193 8.935-1.276 18.11-2.892 26.78-.258 14.024-.392 7.084-15.48.978-21.58-12.687-14.983-33.885-16.528-51.814-14.054-11.912 3.332-16.58-8.215-19.9-17.388-9.303-17.396-21.456-33.222-35.083-47.245-21.697-19.558-48.727-33.28-77.485-37.278-7.434.526-24.288-8.007-25.024 3.305l19.58 34.636c6.46 7.824 9.86 19.17-2.644 22.298-11.215 4.077-19.283 15.32-31.485 16.628-22.438-1.35-44.995-1.393-67.48-2.23-8.86 24.41-1.22 52.547 14.795 71.968 11.172 5.586 3.207 18.064-3.975 22.825-5.32 4.454-17.194 15.907-3.058 15.97 24.066 5.16 46.46 23.765 50.966 49.385 4.28 22.402-2.252 45.587-14.685 64.143-10.943 16.726-27.78 28.655-45.236 37.27-18.653 7.057-39.043 9.627-58.82 8.03z" class="F"/></g></g><g class="H"><use xlink:href="#B" transform="matrix(.068682 -.075733 .071212 .073043 322.514957 147.040666)" class="E G I J V"/><path d="M439.1 164.85c1.364 2.252 3.1 4.266 2.413 7.832m2.213-12.986c3.135 2.336 4.2 4.67 5.228 7.007" class="B L M"/></g><g class="J G I"><g class="R"><path d="M417.76 163.09c.001 2.438-.85 4.692-2.235 5.91s-3.088 1.22-4.47 0-2.235-3.473-2.235-5.91.85-4.692 2.235-5.91 3.088-1.22 4.47 0 2.235 3.473 2.235 5.91z" stroke="#876666" class="L"/><g class="S"><use xlink:href="#C" stroke-width="11.137" transform="matrix(.110666 .066821 -.0652 .113417 442.415989 52.42838)"/><use xlink:href="#C" transform="matrix(.128426 -.002264 .002209 .131619 365.667719 54.138949)" class="T"/></g></g><use xlink:href="#B" transform="matrix(-.068682 -.075733 -.071212 .073043 427.48501 147.040666)" class="E H V"/></g><path d="M310.9 164.85c-1.364 2.252-3.1 4.266-2.413 7.832m-2.213-12.985c-3.135 2.336-4.2 4.67-5.228 7.007" class="B H L M"/><g class="G I J R S"><path d="M332.24 163.09c-.001 2.438.85 4.692 2.235 5.91s3.088 1.22 4.47 0 2.235-3.473 2.235-5.91-.85-4.692-2.235-5.91-3.088-1.22-4.47 0-2.235 3.473-2.235 5.91z" class="L"/><g class="T"><use xlink:href="#C" transform="matrix(-.110666 .066821 .0652 .113417 307.584003 52.42838)"/><use xlink:href="#C" transform="matrix(-.128426 -.002264 -.002209 .131619 384.332273 54.138949)"/></g></g><g class="H"><path d="M364.35 153.72c5.557 0 10.265 5.33 10.354 5.42s10.354 6.5 10.354 11.612m.002-17.032c-5.557 0-10.265 5.33-10.354 5.42s-10.354 6.5-10.354 11.612" class="B L M"/><g class="E G I J"><path d="M378.168 159.14c0 3.515-1.55 6.364-3.463 6.364s-3.463-2.85-3.463-6.364 1.55-6.364 3.463-6.364 3.463 2.85 3.463 6.364z" class="L"/><g class="T"><path d="m26.828851 874.75305a26.962837 48.347157 0 1 1 -.095389-4.0632" transform="matrix(-.021158 -.12984 .12669 -.021684 237.699436 225.963598)" class="M"/><path d="m26.828851 874.75305a26.962837 48.347157 0 1 1 -53.925674 0 26.962837 48.347157 0 1 1 53.925674 0z" transform="matrix(.021158 -.12984 -.12669 -.021684 515.724813 226.577094)"/></g></g><path d="M355.27 165.567s4.422-5.887 9.604-5.887m29.263 5.887s-4.422-5.887-9.604-5.887" class="B L M"/></g><g class="C O"><use xlink:href="#D" class="E"/><g class="G I J K"><use xlink:href="#E"/><use xlink:href="#E" x="6.99" y="9.508"/><use xlink:href="#E" x="3.495" y="4.754"/><use xlink:href="#E" y="9.508"/><use xlink:href="#E" x="6.99"/></g><g class="E"><use xlink:href="#D" y="54.128"/><use xlink:href="#D" y="27.064"/><use xlink:href="#D" x="-19.27" y="27.064"/><use xlink:href="#D" x="19.268" y="27.064"/></g><g class="G I J K"><use xlink:href="#E" y="27.402"/><use xlink:href="#E" x="6.99" y="36.902"/><use xlink:href="#E" x="3.495" y="32.157"/><use xlink:href="#E" y="36.902"/><use xlink:href="#E" x="6.99" y="27.402"/><use xlink:href="#E" y="54.466"/><use xlink:href="#E" x="6.99" y="63.975"/><use xlink:href="#E" x="3.495" y="59.222"/><use xlink:href="#E" y="63.975"/><use xlink:href="#E" x="6.99" y="54.466"/><use xlink:href="#E" x="-19.232" y="27.402"/><use xlink:href="#E" x="-12.244" y="36.902"/><use xlink:href="#E" x="-15.738" y="32.157"/><use xlink:href="#E" x="-19.232" y="36.902"/><use xlink:href="#E" x="-12.244" y="27.402"/><use xlink:href="#E" x="19.306" y="27.402"/><use xlink:href="#E" x="26.296" y="36.902"/><use xlink:href="#E" x="22.801" y="32.157"/><use xlink:href="#E" x="19.306" y="36.902"/><use xlink:href="#E" x="26.296" y="27.402"/></g></g><g transform="matrix(.276446 0 0 .276446 322.70898 233.359154)"><use xlink:href="#F" class="F"/><g class="B"><use xlink:href="#F" class="D"/><use xlink:href="#F" class="C"/></g><use xlink:href="#G" class="F"/><g class="B"><use xlink:href="#G" class="D"/><use xlink:href="#G" class="C"/></g><use xlink:href="#H" class="F"/><g class="B"><use xlink:href="#H" class="D"/><use xlink:href="#H" class="C"/></g><use xlink:href="#I" class="E"/><g class="B"><use xlink:href="#I" class="D"/><use xlink:href="#I" class="C"/></g><use xlink:href="#J" class="F"/><g class="B"><use xlink:href="#J" class="D"/><use xlink:href="#J" class="C"/></g><use xlink:href="#K" class="E"/><g class="B"><use xlink:href="#K" class="D"/><use xlink:href="#K" class="C"/></g><path d="M5 20v3H2v-3z" class="E"/><g class="B"><path d="M5 20v3H2v-3z" class="D"/><path d="M5 20v3H2v-3z" class="C"/></g><path d="m24-9h2v-2h-2z" class="E"/><g class="B"><path d="m24-9h2v-2h-2z" class="D"/><path d="m24-9h2v-2h-2z" class="C"/></g><path d="M2-4h2v-2H2z" class="E"/><g class="B"><path d="M2-4h2v-2H2z" class="D"/><path d="M2-4h2v-2H2z" class="C"/></g><path d="m46-4h2v-2h-2z" class="E"/><g class="B"><path d="m46-4h2v-2h-2z" class="D"/><path d="m46-4h2v-2h-2z" class="C"/></g><use xlink:href="#L" class="F"/><g class="B"><use xlink:href="#L" class="D"/><use xlink:href="#L" class="C"/></g><use xlink:href="#M" class="E"/><g class="B"><use xlink:href="#M" class="D"/><use xlink:href="#M" class="C"/></g><use xlink:href="#N" class="E"/><g class="B"><use xlink:href="#N" class="D"/><use xlink:href="#N" class="C"/></g><use xlink:href="#O" class="E"/><use xlink:href="#P" class="B C"/><use xlink:href="#Q" class="F"/><g class="B"><use xlink:href="#Q" class="D"/><use xlink:href="#Q" class="C"/></g></g><g transform="matrix(.276446 0 0 .276446 322.70898 281.950256)"><use xlink:href="#F" class="F"/><g class="B"><use xlink:href="#F" class="D"/><use xlink:href="#F" class="C"/></g><use xlink:href="#G" class="F"/><g class="B"><use xlink:href="#G" class="D"/><use xlink:href="#G" class="C"/></g><use xlink:href="#H" class="F"/><g class="B"><use xlink:href="#H" class="D"/><use xlink:href="#H" class="C"/></g><use xlink:href="#I" class="E"/><g class="B"><use xlink:href="#I" class="D"/><use xlink:href="#I" class="C"/></g><use xlink:href="#J" class="F"/><g class="B"><use xlink:href="#J" class="D"/><use xlink:href="#J" class="C"/></g><use xlink:href="#K" class="E"/><g class="B"><use xlink:href="#K" class="D"/><use xlink:href="#K" class="C"/></g><path d="M5 20v3H2v-3z" class="E"/><g class="B"><path d="M5 20v3H2v-3z" class="D"/><path d="M5 20v3H2v-3z" class="C"/></g><path d="m24-9h2v-2h-2z" class="E"/><g class="B"><path d="m24-9h2v-2h-2z" class="D"/><path d="m24-9h2v-2h-2z" class="C"/></g><path d="M2-4h2v-2H2z" class="E"/><g class="B"><path d="M2-4h2v-2H2z" class="D"/><path d="M2-4h2v-2H2z" class="C"/></g><path d="m46-4h2v-2h-2z" class="E"/><g class="B"><path d="m46-4h2v-2h-2z" class="D"/><path d="m46-4h2v-2h-2z" class="C"/></g><use xlink:href="#L" class="F"/><g class="B"><use xlink:href="#L" class="D"/><use xlink:href="#L" class="C"/></g><use xlink:href="#M" class="E"/><g class="B"><use xlink:href="#M" class="D"/><use xlink:href="#M" class="C"/></g><use xlink:href="#N" class="E"/><g class="B"><use xlink:href="#N" class="D"/><use xlink:href="#N" class="C"/></g><use xlink:href="#O" class="E"/><use xlink:href="#P" class="B C"/><use xlink:href="#Q" class="F"/><g class="B"><use xlink:href="#Q" class="D"/><use xlink:href="#Q" class="C"/></g></g><g transform="matrix(.276446 0 0 .276446 413.069927 233.363986)"><use xlink:href="#F" class="F"/><g class="B"><use xlink:href="#F" class="D"/><use xlink:href="#F" class="C"/></g><use xlink:href="#G" fill="#ffbf00"/><g class="B"><use xlink:href="#G" class="D"/><use xlink:href="#G" class="C"/></g><use xlink:href="#H" class="F"/><g class="B"><use xlink:href="#H" class="D"/><use xlink:href="#H" class="C"/></g><use xlink:href="#I" class="E"/><g class="B"><use xlink:href="#I" class="D"/><use xlink:href="#I" class="C"/></g><use xlink:href="#J" class="F"/><g class="B"><use xlink:href="#J" class="D"/><use xlink:href="#J" class="C"/></g><use xlink:href="#K" class="E"/><g class="B"><use xlink:href="#K" class="D"/><use xlink:href="#K" class="C"/></g><path d="M5 20v3H2v-3z" class="E"/><g class="B"><path d="M5 20v3H2v-3z" class="D"/><path d="M5 20v3H2v-3z" class="C"/></g><path d="m24-9h2v-2h-2z" class="E"/><g class="B"><path d="m24-9h2v-2h-2z" class="D"/><path d="m24-9h2v-2h-2z" class="C"/></g><path d="M2-4h2v-2H2z" class="E"/><g class="B"><path d="M2-4h2v-2H2z" class="D"/><path d="M2-4h2v-2H2z" class="C"/></g><path d="m46-4h2v-2h-2z" class="E"/><g class="B"><path d="m46-4h2v-2h-2z" class="D"/><path d="m46-4h2v-2h-2z" class="C"/></g><use xlink:href="#L" class="F"/><g class="B"><use xlink:href="#L" class="D"/><use xlink:href="#L" class="C"/></g><use xlink:href="#M" class="E"/><g class="B"><use xlink:href="#M" class="D"/><use xlink:href="#M" class="C"/></g><use xlink:href="#N" class="E"/><g class="B"><use xlink:href="#N" class="D"/><use xlink:href="#N" class="C"/></g><use xlink:href="#O" class="E"/><use xlink:href="#P" class="B C"/><use xlink:href="#Q" class="F"/><g class="B"><use xlink:href="#Q" class="D"/><use xlink:href="#Q" class="C"/></g></g><g transform="matrix(.276446 0 0 .276446 413.069927 281.949106)"><use xlink:href="#F" class="F"/><g class="B"><use xlink:href="#F" class="D"/><use xlink:href="#F" class="C"/></g><use xlink:href="#G" class="F"/><g class="B"><use xlink:href="#G" class="D"/><use xlink:href="#G" class="C"/></g><use xlink:href="#H" class="F"/><g class="B"><use xlink:href="#H" class="D"/><use xlink:href="#H" class="C"/></g><use xlink:href="#I" class="E"/><g class="B"><use xlink:href="#I" class="D"/><use xlink:href="#I" class="C"/></g><use xlink:href="#J" class="F"/><g class="B"><use xlink:href="#J" class="D"/><use xlink:href="#J" class="C"/></g><use xlink:href="#K" class="E"/><g class="B"><use xlink:href="#K" class="D"/><use xlink:href="#K" class="C"/></g><path d="M5 20v3H2v-3z" class="E"/><g class="B"><path d="M5 20v3H2v-3z" class="D"/><path d="M5 20v3H2v-3z" class="C"/></g><path d="m24-9h2v-2h-2z" class="E"/><g class="B"><path d="m24-9h2v-2h-2z" class="D"/><path d="m24-9h2v-2h-2z" class="C"/></g><path d="M2-4h2v-2H2z" class="E"/><g class="B"><path d="M2-4h2v-2H2z" class="D"/><path d="M2-4h2v-2H2z" class="C"/></g><path d="m46-4h2v-2h-2z" class="E"/><g class="B"><path d="m46-4h2v-2h-2z" class="D"/><path d="m46-4h2v-2h-2z" class="C"/></g><use xlink:href="#L" class="F"/><g class="B"><use xlink:href="#L" class="D"/><use xlink:href="#L" class="C"/></g><use xlink:href="#M" class="E"/><g class="B"><use xlink:href="#M" class="D"/><use xlink:href="#M" class="C"/></g><use xlink:href="#N" class="E"/><g class="B"><use xlink:href="#N" class="D"/><use xlink:href="#N" class="C"/></g><use xlink:href="#O" class="E"/><use xlink:href="#P" class="B C"/><use xlink:href="#Q" class="F"/><g class="B"><use xlink:href="#Q" class="D"/><use xlink:href="#Q" class="C"/></g></g><g transform="matrix(.241785 -.134024 .134024 .241785 328.814923 333.895146)"><use xlink:href="#F" class="F"/><g class="B"><use xlink:href="#F" class="D"/><use xlink:href="#F" class="C"/></g><use xlink:href="#G" class="F"/><g class="B"><use xlink:href="#G" class="D"/><use xlink:href="#G" class="C"/></g><use xlink:href="#H" class="F"/><g class="B"><use xlink:href="#H" class="D"/><use xlink:href="#H" class="C"/></g><use xlink:href="#I" class="E"/><g class="B"><use xlink:href="#I" class="D"/><use xlink:href="#I" class="C"/></g><use xlink:href="#J" class="F"/><g class="B"><use xlink:href="#J" class="D"/><use xlink:href="#J" class="C"/></g><use xlink:href="#K" class="E"/><g class="B"><use xlink:href="#K" class="D"/><use xlink:href="#K" class="C"/></g><path d="M5 20v3H2v-3z" class="E"/><g class="B"><path d="M5 20v3H2v-3z" class="D"/><path d="M5 20v3H2v-3z" class="C"/></g><path d="m24-9h2v-2h-2z" class="E"/><g class="B"><path d="m24-9h2v-2h-2z" class="D"/><path d="m24-9h2v-2h-2z" class="C"/></g><path d="M2-4h2v-2H2z" class="E"/><g class="B"><path d="M2-4h2v-2H2z" class="D"/><path d="M2-4h2v-2H2z" class="C"/></g><path d="m46-4h2v-2h-2z" class="E"/><g class="B"><path d="m46-4h2v-2h-2z" class="D"/><path d="m46-4h2v-2h-2z" class="C"/></g><use xlink:href="#L" class="F"/><g class="B"><use xlink:href="#L" class="D"/><use xlink:href="#L" class="C"/></g><use xlink:href="#M" class="E"/><g class="B"><use xlink:href="#M" class="D"/><use xlink:href="#M" class="C"/></g><use xlink:href="#N" class="E"/><g class="B"><use xlink:href="#N" class="D"/><use xlink:href="#N" class="C"/></g><use xlink:href="#O" class="E"/><use xlink:href="#P" class="B C"/><use xlink:href="#Q" class="F"/><g class="B"><use xlink:href="#Q" class="D"/><use xlink:href="#Q" class="C"/></g></g><g transform="matrix(.241785 .134024 -.134024 .241785 408.348871 327.139909)"><use xlink:href="#F" class="F"/><g class="B"><use xlink:href="#F" class="D"/><use xlink:href="#F" class="C"/></g><use xlink:href="#G" class="F"/><g class="B"><use xlink:href="#G" class="D"/><use xlink:href="#G" class="C"/></g><use xlink:href="#H" class="F"/><g class="B"><use xlink:href="#H" class="D"/><use xlink:href="#H" class="C"/></g><use xlink:href="#I" class="E"/><g class="B"><use xlink:href="#I" class="D"/><use xlink:href="#I" class="C"/></g><use xlink:href="#J" class="F"/><g class="B"><use xlink:href="#J" class="D"/><use xlink:href="#J" class="C"/></g><use xlink:href="#K" class="E"/><g class="B"><use xlink:href="#K" class="D"/><use xlink:href="#K" class="C"/></g><path d="M5 20v3H2v-3z" class="E"/><g class="B"><path d="M5 20v3H2v-3z" class="D"/><path d="M5 20v3H2v-3z" class="C"/></g><path d="m24-9h2v-2h-2z" class="E"/><g class="B"><path d="m24-9h2v-2h-2z" class="D"/><path d="m24-9h2v-2h-2z" class="C"/></g><path d="M2-4h2v-2H2z" class="E"/><g class="B"><path d="M2-4h2v-2H2z" class="D"/><path d="M2-4h2v-2H2z" class="C"/></g><path d="m46-4h2v-2h-2z" class="E"/><g class="B"><path d="m46-4h2v-2h-2z" class="D"/><path d="m46-4h2v-2h-2z" class="C"/></g><use xlink:href="#L" class="F"/><g class="B"><use xlink:href="#L" class="D"/><use xlink:href="#L" class="C"/></g><use xlink:href="#M" class="E"/><g class="B"><use xlink:href="#M" class="D"/><use xlink:href="#M" class="C"/></g><use xlink:href="#N" class="E"/><g class="B"><use xlink:href="#N" class="D"/><use xlink:href="#N" class="C"/></g><use xlink:href="#O" class="E"/><use xlink:href="#P" class="B C"/><use xlink:href="#Q" class="F"/><g class="B"><use xlink:href="#Q" class="D"/><use xlink:href="#Q" class="C"/></g></g><g transform="matrix(.276446 0 0 .276446 367.215178 351.861773)"><use xlink:href="#F" class="F"/><g class="B"><use xlink:href="#F" class="D"/><use xlink:href="#F" class="C"/></g><use xlink:href="#G" class="F"/><g class="B"><use xlink:href="#G" class="D"/><use xlink:href="#G" class="C"/></g><use xlink:href="#H" class="F"/><g class="B"><use xlink:href="#H" class="D"/><use xlink:href="#H" class="C"/></g><use xlink:href="#I" class="E"/><g class="B"><use xlink:href="#I" class="D"/><use xlink:href="#I" class="C"/></g><use xlink:href="#J" class="F"/><g class="B"><use xlink:href="#J" class="D"/><use xlink:href="#J" class="C"/></g><use xlink:href="#K" class="E"/><g class="B"><use xlink:href="#K" class="D"/><use xlink:href="#K" class="C"/></g><path d="M5 20v3H2v-3z" class="E"/><g class="B"><path d="M5 20v3H2v-3z" class="D"/><path d="M5 20v3H2v-3z" class="C"/></g><path d="m24-9h2v-2h-2z" class="E"/><g class="B"><path d="m24-9h2v-2h-2z" class="D"/><path d="m24-9h2v-2h-2z" class="C"/></g><path d="M2-4h2v-2H2z" class="E"/><g class="B"><path d="M2-4h2v-2H2z" class="D"/><path d="M2-4h2v-2H2z" class="C"/></g><path d="m46-4h2v-2h-2z" class="E"/><g class="B"><path d="m46-4h2v-2h-2z" class="D"/><path d="m46-4h2v-2h-2z" class="C"/></g><use xlink:href="#L" class="F"/><g class="B"><use xlink:href="#L" class="D"/><use xlink:href="#L" class="C"/></g><use xlink:href="#M" class="E"/><g class="B"><use xlink:href="#M" class="D"/><use xlink:href="#M" class="C"/></g><use xlink:href="#N" class="E"/><g class="B"><use xlink:href="#N" class="D"/><use xlink:href="#N" class="C"/></g><use xlink:href="#O" class="E"/><use xlink:href="#P" class="B C"/><use xlink:href="#Q" class="F"/><g class="B"><use xlink:href="#Q" class="D"/><use xlink:href="#Q" class="C"/></g></g><g class="J R S G"><g class="N"><use xlink:href="#C" transform="matrix(.077129 .027423 -.013767 .038719 408.093531 166.463954)" class="W"/><use xlink:href="#C" transform="matrix(.060139 .01061 -.006842 .026118 378.342597 178.553769)" class="X"/></g><g class="I"><use xlink:href="#C" transform="matrix(.061151 -.002466 -.000383 .028765 343.757076 179.881533)" class="X"/><use xlink:href="#C" transform="matrix(.079329 -.020196 .010138 .039823 301.134456 179.96356)" class="W"/></g></g><g stroke-width="1.448" class="F N"><path d="M317.54 205.274c0 .025 32.436-9.763 57.52-9.763s57.998 9.617 58.024 9.813l-.563 1.908s-31.96-9.053-57.044-9.053-58.11 9.565-58.11 9.735z" class="P"/><path d="M317.225 218.75c.025.196 32.752-7.86 57.837-7.86s57.07 7.417 56.898 7.22v3.11c.392-.392-31.94-7.61-57.025-7.61s-58.102 7.61-57.93 7.782z" class="H"/></g><defs ><path id="B" d="m741.83155 1113.2234a62.474865 36.82729 0 1 1 -124.94973 0 62.474865 36.82729 0 1 1 124.94973 0z"/><path id="C" d="m335.21003 907.00269a34.804852 51.837009 0 1 1 -69.6097 0 34.804852 51.837009 0 1 1 69.6097 0z"/><path id="D" d="M374.512 279.988c7.967 0 7.386-8.162 7.386-8.162v-13.032h-14.77v13.032s-.616 8.162 7.386 8.162z"/><path id="E" d="M372.752 264.298c0 .65-.338 1.25-.886 1.573s-1.224.325-1.773 0-.886-.924-.886-1.573.338-1.25.886-1.573 1.224-.325 1.773 0 .886.924.886 1.573z"/><path id="F" d="M-4-10h14v23H-4z"/><path id="G" d="M18-15h14v27H18z"/><path id="H" d="M40-10h14v22H40z"/><path id="I" d="M31-19h4v4H15v-4h4v2h4v-2h4v2h4z"/><path id="J" d="m-7 38 2-27 1 1h58l1-1 2 27z"/><path id="K" d="M53-14h4v4H37v-4h4v2h4v-2h4v2h4z"/><path id="L" d="M52 12h-7V9h-5v3h-7V9h-5v3h-7V9h-5v3H9V9H4v3h-7V9h-4v6h64V9h-5z"/><path id="M" d="M9-14h4v4H-7v-4h4v2h4v-2h4v2h4z"/><path id="N" d="m49 20v3h-3v-3z"/><path id="O" d="M25 37c1 0 5-2 4-2s-.96-2.132-.98-4.066S28 35 28 26s-6-9-6 0v5c0 2 0 4-1 4s3 2 4 2z"/><path id="P" d="M25 37c1 0 5-2 4-2s-.96-2.132-.98-4.066S28 35 28 26s-6-9-6 0v5c0 2 0 4-1 4s3 2 4 2"/><path id="Q" d="M59 35v5H-9v-5z"/></defs></svg>