<svg xmlns="http://www.w3.org/2000/svg" xmlns:xlink="http://www.w3.org/1999/xlink" width="750" height="500" xmlns:v="https://vecta.io/nano"><style><![CDATA[.B{stroke:#000}.C{fill-rule:evenodd}.D{stroke-linejoin:round}.E{fill:#eac102}.F{fill:#e3e4e5}.G{fill:none}.H{stroke-width:.964}.I{fill:#a05a2c}.J{stroke-linecap:round}.K{stroke-width:1.251}.L{stroke-width:1.314}.M{stroke-width:1.619}.N{stroke-width:1.355}.O{fill:#ed1c24}.P{stroke-width:2.181}.Q{fill:#0071bc}.R{stroke:#e3e4e5}.S{stroke:#010101}.T{stroke-width:1.303}.U{stroke-width:2.615}.V{stroke-width:2.503}.W{stroke-width:2.754}.X{fill:#d38d5f}.Y{fill:#ebebeb}.Z{stroke-width:1}.a{stroke-width:2.489}.b{stroke-width:1.006}.c{stroke-width:.904}.d{stroke-width:2.361}.e{stroke-width:2.702}.f{stroke-width:1.351}.g{stroke-width:2.433}.h{stroke-width:2.626}.i{stroke-width:2.484}.j{stroke-width:1.307}.k{stroke-width:2.756}.l{stroke-width:2.435}.m{stroke-width:1.114}.n{stroke-width:.579}.o{stroke-width:.853}.p{stroke-width:1.143}.q{stroke-width:1.432}.r{stroke-width:1.722}.s{stroke-width:2.012}.t{stroke-width:2.285}.u{stroke-width:2.575}.v{stroke-width:2.865}.w{stroke-width:3.154}.x{stroke-width:3.444}.y{stroke-width:3.718}.z{stroke-width:3.927}.AA{stroke-width:4.217}.AB{stroke-width:4.49}.AC{stroke-width:4.764}.AD{stroke-width:5.617}.AE{stroke-width:.993}.AF{stroke-width:.919}.AG{stroke-width:.826}.AH{stroke-width:2.136}.AI{stroke-width:1.789}]]></style><path d="M0 250h750v250H0z" fill="#da121a"/><path d="M0 0h750v250H0z" fill="#fff"/><g transform="matrix(.27 0 0 .27 300.75004 117.23585)"><g transform="matrix(-.411584 -.003924 .000855 .392334 1506.8791 -227.60757)" class="E S a"><use xlink:href="#B"/><use xlink:href="#C"/></g><g class="B C D F b"><use xlink:href="#D"/><use xlink:href="#D" x="-29.85" y="9.824"/><use xlink:href="#D" x="-61.01" y="18.602"/><use xlink:href="#D" x="-93.663" y="26.748"/><use xlink:href="#D" x="-125.496" y="34.278"/><use xlink:href="#D" x="-157.893" y="43.505"/><use xlink:href="#D" x="-190.326" y="57.565"/><use xlink:href="#D" x="-215.776" y="79.461"/></g><g transform="matrix(-1 0 0 1 657.14281 -81.83434)"><g transform="matrix(-.411584 -.003924 .000855 .392334 1614.0221 -145.77357)" class="E S a"><use xlink:href="#B"/><use xlink:href="#C"/></g><g class="B C D F b"><use xlink:href="#D" x="107.142" y="81.833"/><use xlink:href="#D" x="77.293" y="91.658"/><use xlink:href="#D" x="46.132" y="100.435"/><use xlink:href="#D" x="13.48" y="108.582"/><use xlink:href="#D" x="-18.353" y="116.111"/><use xlink:href="#D" x="-50.75" y="125.338"/><use xlink:href="#D" x="-83.183" y="139.398"/><use xlink:href="#D" x="-108.633" y="161.295"/></g></g><g transform="matrix(.703092 .012898 -.007507 .837566 6.09034 81.1699)" class="B C T"><g class="D F"><use xlink:href="#E"/><use xlink:href="#F"/><use xlink:href="#G"/><use xlink:href="#G" x="-21.02" y="10.082"/><use xlink:href="#H"/><use xlink:href="#I"/><use xlink:href="#J"/><use xlink:href="#F" x="-125.331" y="76.631"/></g><use xlink:href="#K" class="E"/></g><g transform="matrix(-.703092 .012898 .007507 .837566 543.9092 81.1699)" class="B C T"><g class="D F"><use xlink:href="#E"/><use xlink:href="#F"/><use xlink:href="#G"/><use xlink:href="#G" x="-21.02" y="10.082"/><use xlink:href="#H"/><use xlink:href="#I"/><use xlink:href="#J"/><use xlink:href="#F" x="-125.331" y="76.631"/></g><use xlink:href="#K" class="E"/></g><g class="B"><path d="M274.224 124.605c31.3 0 75.1 9.43 89.37 18.946s26.15 13.444 39.595 16.324 21.05 2.614 32.278 1.824 33.035 6.7 50.024 18.733 16.183 24.228 24.714 37.094l-63.87 122.08h-342.67l-63.87-122.08c8.57-12.866 8.753-25.07 25.722-37.094s38.795-19.523 50.02-18.733 18.837 1.056 32.283-1.824 25.327-6.81 39.595-16.324 55.507-18.946 86.808-18.946z" class="O"/><g class="C D"><path d="M296.734 66.684c0 12.006-9.732 21.738-21.738 21.738S253.26 78.69 253.26 66.684s9.732-21.738 21.738-21.738 21.738 9.732 21.738 21.738z" class="Q"/><g class="E"><path d="M272.218 13.94v8.423h-7.922v5.57h7.922v17.517h5.56V27.93h7.922v-5.57h-7.922V13.94h-5.56z"/><path d="M270.952 43.595V59.56c-16.326.33-18.927 2.627-19.25 3.015-.01-.005-.04-.02-.04-.02v8.173l.05-.03c.108.12.58.564 2.183 1.102-.06-.247-.14-.48-.2-.73-.076-.373-.143-.75-.2-1.132 2.72-.924 8.904-2.324 21.493-2.324 12.653 0 18.796 1.4 21.493 2.314-.058.385-.123.765-.2 1.142-.052.253-.13.492-.2.74 1.61-.54 2.077-.99 2.183-1.112.007.005.05.03.05.03v-8.173s-.03.015-.04.02c-.313-.388-2.858-2.686-19.25-3.015V43.595h-8.093z"/></g></g></g><g transform="matrix(-.411186 -.034783 -.038059 .432868 1485.3571 283.53565)"><g transform="matrix(-3.641703 .290422 .342784 1.847604 9955.7129 -617.01764)" class="E S c"><use xlink:href="#L"/><use xlink:href="#M"/></g><g class="B C D F d"><use xlink:href="#N"/><use xlink:href="#N" x="-253.998" y="66.882"/><use xlink:href="#N" x="-306.148" y="83.474"/><use xlink:href="#N" x="-347.09" y="117.696"/><use xlink:href="#N" x="-49.467" y="16.506"/><use xlink:href="#N" x="-98.835" y="33.788"/><use xlink:href="#N" x="-149.43" y="45.122"/><use xlink:href="#N" x="-200.134" y="55.887"/></g></g><g transform="matrix(.411186 -.034783 .038059 .432868 -935.35739 283.53565)"><g transform="matrix(-3.641703 .290422 .342784 1.847604 9955.7129 -617.01764)" class="E S c"><use xlink:href="#L"/><use xlink:href="#M"/></g><g class="B C D F d"><use xlink:href="#N"/><use xlink:href="#N" x="-253.998" y="66.882"/><use xlink:href="#N" x="-306.148" y="83.474"/><use xlink:href="#N" x="-347.09" y="117.696"/><use xlink:href="#N" x="-49.467" y="16.506"/><use xlink:href="#N" x="-98.835" y="33.788"/><use xlink:href="#N" x="-149.43" y="45.122"/><use xlink:href="#N" x="-200.134" y="55.887"/></g></g><g class="B"><g class="E"><path d="M264.746 82.75c-4.224 1.986-7.51 4.947-8.568 8.617-1.215 5.607-1.98 12.008-2.115 18.808-.02.707.036 1.395.036 2.1 0 .805-.195 1.67-.215 2.49-.346 14.266-2.9 26.87-6.596 34.582l27.854 20.84 27.568-20.84c-3.675-7.71-6.25-20.316-6.56-34.582-.015-.82-.225-1.686-.25-2.49 0-.695.087-1.383.072-2.1-.17-6.8-.905-13.202-2.115-18.808-1.084-3.715-4.353-6.72-8.568-8.703.29 2.5.66 4.912.717 7.7.008.454-.036.9-.036 1.345.013.517.1 31.306.108 31.834.08 4.578.476 8.898 1.075 12.682s1.403 7.03 2.366 9.504l-14.447 13.398-14.6-13.398c.968-2.475 1.802-5.72 2.402-9.504s.95-8.104 1.04-12.682c.01-.527.143-31.317.143-31.834 0-.446-.047-.892-.036-1.345.044-2.758.432-5.13.717-7.615z"/><path d="M264.746 82.75l-.717 7.615c-.01.454.036.9.036 1.345l-.143 31.834c-.09 4.578-.44 8.898-1.04 12.682s-1.434 7.03-2.402 9.504l14.6 13.398 14.447-13.398c-.963-2.475-1.767-5.72-2.366-9.504s-.994-8.104-1.075-12.682l-.108-31.834c0-.446.044-.892.036-1.345-.057-2.788-.428-5.19-.717-7.7-2.982-1.402-6.36-2.347-10.11-2.347h-.036c-3.805 0-7.32.988-10.396 2.433z"/></g><g stroke-width="1.001" class="C D F"><use xlink:href="#O"/><use xlink:href="#O" y="7.387"/><use xlink:href="#O" y="13.78"/><use xlink:href="#O" y="17.616"/><use xlink:href="#O" y="20.883"/><use xlink:href="#O" y="24.86"/><use xlink:href="#O" y="31.68"/><use xlink:href="#O" y="47.45"/></g></g><g transform="matrix(.392631 0 0 .372498 -885.98611 203.53763)" class="B C E U"><path d="M2417.103 230.144c20.676 40.492 45.406 92.37 64.518 86.024 4.122-1.736 5.463-11.816-.705-44.422l-37.37-73.684c-5.17-8.375-19.86-2.033-20.8 6.7l-5.64 25.384z"/><path d="M2448.75 274.906l6.813-19.97c-13.815-17.775-35.164-50.18-58.03-90.47-4.728-8.337-20.927-3.418-17.062 5.844 30.87 58.46 52.805 89.217 68.28 104.594zm1048-44.762c-20.676 40.492-45.406 92.37-64.518 86.024-4.122-1.736-5.463-11.816.705-44.422l37.37-73.684c5.17-8.375 19.86-2.033 20.8 6.7l5.64 25.384z"/><path d="M3458.094 255.188l6.812 19.97c15.488-15.3 37.482-46.1 68.5-104.844 3.864-9.26-12.335-14.18-17.062-5.844-22.975 40.476-44.443 73-58.25 90.72z"/></g><g transform="matrix(1 0 0 .948723 -1058.09548 89.70216)" class="B"><g transform="matrix(.392631 0 0 .367647 172.09834 125.47082)"><g class="C D E e"><use xlink:href="#P"/><use xlink:href="#Q"/></g><use xlink:href="#R" class="G f"/><g transform="matrix(-.927826 .610427 .610427 .927826 3844.2704 -1752.9019)" class="g"><use xlink:href="#S" class="F"/><use xlink:href="#T" class="E"/></g></g><g transform="matrix(-.392631 0 0 .367647 2494.0922 125.47082)"><g class="C D E e"><use xlink:href="#P"/><use xlink:href="#Q"/></g><use xlink:href="#R" class="G f"/><g transform="matrix(-.927826 .610427 .610427 .927826 3844.2704 -1752.9019)" class="g"><use xlink:href="#S" class="F"/><use xlink:href="#T" class="E"/></g></g></g><path d="M275.05 233.244c-1.37.017-2.752.88-2.798 2.526-1.26 16.303-7.933 41.716-32.7 46.318-24.564 4.565-46.223-30.134-47.14-43.932.014-2.06-1.653-2.86-3.337-2.77-1.91.1-3.846 1.34-3.374 3.166 3.664 18.838-.172 42.833-17.178 47.12-16.935 4.27-35.436-15.77-48.625-40.754-1.22-4.724-8.254-2.873-6.908.594 10.747 25.974 7.116 44.256-.626 48.1-9.402 2.865-29.013-20.002-40.024-40.16-1.873-2.728-8.767-1.31-7.13 2.188 8.013 15.486 15.97 30.97 16.343 46.714-.92-.913-2.11-2.276-3.41-3.865l-2.675 7.438c6.46 6.1 10.052 5.697 11.853 4.086 3.603-3.224 3.674-9.89-1.153-24.748 8.887 8.97 22.858 19.972 31.852 13.9s9.823-17 9.006-30.22c11.003 13.663 27.734 27.76 42.748 24.26 15.212-3.546 21.85-16.95 23.89-34.002 8.382 15.455 25.656 33.124 46.944 30.417 20.452-2.6 32.2-25.414 34.392-32.92 2.192 7.505 13.953 30.32 34.404 32.92 21.288 2.707 38.55-14.962 46.932-30.417 2.038 17.05 8.678 30.456 23.89 34.002 15.014 3.5 31.744-10.596 42.748-24.26-.818 13.23.01 24.157 9.006 30.22s22.965-4.94 31.852-13.9c-4.828 14.857-4.756 21.524-1.153 24.748 1.793 1.604 5.362 2 11.767-3.993l-2.675-7.438c-1.27 1.546-2.424 2.876-3.325 3.772.372-15.745 8.33-31.228 16.343-46.714 1.64-3.5-5.244-4.916-7.116-2.188-11 20.158-30.622 43.025-40.024 40.16-7.74-3.855-11.385-22.136-.638-48.1 1.346-3.466-5.686-5.317-6.908-.594-13.19 24.983-31.678 45.024-48.613 40.754-17.006-4.288-20.854-28.283-17.2-47.12.89-3.438-6.728-4.8-6.7-.396-.917 13.797-22.588 48.496-47.153 43.932-24.766-4.602-31.426-30.014-32.687-46.318.01-1.714-1.343-2.543-2.712-2.526z" class="B C E"/><g transform="matrix(.392631 0 0 .372498 -885.98256 203.53763)" class="B C"><g class="U"><path d="M3204.635 86.852c0 16.366-13.19 29.633-29.463 29.633s-29.463-13.267-29.463-29.633 13.19-29.633 29.463-29.633 29.463 13.267 29.463 29.633z" class="D F"/><path d="M3154.68 108.498c10.772 4.082 21.975 5.453 35.22 4.41-.747 7.66-7.853 4.55-6.792 11.094s-27.318 4.357-24.724-2.56-5.077-5.326-3.705-12.943z" class="E"/></g><g transform="matrix(-1 0 0 1.005786 5913.0469 -1346.0782)" stroke-width="2.607"><use xlink:href="#U" class="D F"/><use xlink:href="#V" class="E"/></g></g><g transform="matrix(.392631 0 0 .372498 -885.96085 203.53763)" class="B C h"><g transform="matrix(-.941893 .335392 .329732 .935336 4949.3346 -2266.4513)"><use xlink:href="#U" class="D F"/><use xlink:href="#V" class="E"/></g><g transform="matrix(.941893 .335392 -.329732 .935336 964.41171 -2266.4513)"><use xlink:href="#U" class="D F"/><use xlink:href="#V" class="E"/></g></g><g transform="matrix(.393219 0 0 .403086 -888.5376 189.70898)" class="B"><g stroke-width="2.512" class="C E"><path d="M2841.494 4.13s28.88-5.15 44.492 18.174c15.34 22.918 52.763 20.52 52.763 20.52l-15.83 51.6-102-38.693c-.7 0 6.26-9.734 19.347-8.794s20.5 17.833 40.452 9.966L2841.494 4.13zm235.02 0s-28.88-5.15-44.492 18.174c-15.34 22.918-52.763 20.52-52.763 20.52l15.83 51.6 102-38.693c.7 0-6.26-9.734-19.347-8.794s-20.5 17.833-40.452 9.966l39.216-52.763z"/><path d="M2958.754-131.547c-17.55 18.957-35.44 40.264-36.406 68.266-14.07-14.666-28.15-4.41-42.22-1.78 7.07 9.515-.2 35.592 9.375 53.375-10.242.805-14.866 9.843-21.094 15.22 4.193 15.598 52.046 17.806 60.375 46.313-52.1-5.196-35.6-42.887-87.937-45.72-8.365 43.102 24.965 34.57 27.562 58.03-15.913 2.984-19.887-13.1-33.75-12.437-19.43.914-27.838 22.164-40.125 29.438 18.94 5.16 26.056 23.196 45.063 27.563 10.272 2.36 15.11-15.806 31.156-7.625-15.738 21.825-31.438 15.413-23.47 46.313 59.57 5.258 35.224-35.334 75.063-29.312-60.173 37.023-27.113 51.093-42.22 79.75 31-12.638 42.15-3.99 78.875-30.312 36.726 26.322 47.877 17.674 78.875 30.313-15.106-28.657 17.954-42.727-42.22-79.75 39.838-6.02 15.493 34.57 75.063 29.313 7.97-30.9-7.73-24.488-23.47-46.312 16.047-8.18 20.884 9.985 31.156 7.625 19.007-4.366 26.122-22.403 45.063-27.562-12.287-7.274-20.695-28.523-40.125-29.437-13.863-.652-17.837 15.422-33.75 12.438 2.598-23.462 35.928-14.93 27.562-58.03-52.337 2.832-35.837 40.523-87.937 45.72 8.33-28.507 56.182-30.714 60.375-46.312-6.228-5.376-10.852-14.414-21.094-15.22 9.576-17.783 2.306-43.86 9.375-53.375-14.07-2.628-28.148-12.885-42.22 1.78-.967-28.002-18.857-49.31-36.406-68.266l-.25-.25-.25.25z"/></g><path d="M2959.407 53.36c-1.814-3.265 0-157.77 0-157.77m-9.51 213.064c-4.7 18.528-21.42 48.187-41.035 58.707m20.596-75.34c-15.56.79-44.36 16.442-55.877 23.786m53.156-30.846c-55.01 4.998-77.46-17.22-94.48-10.296m96.757-5.716l-29.346-8.27c-10.178-2.783-16.34-15.242-22.838-22.088m75.034 11.418s-.815-10.302-13.14-39.17c-11.945-27.98-27.474-42.902-27.474-42.902m56.86 140.72c4.702 18.528 21.42 48.187 41.035 58.707m-20.596-75.34c15.56.79 44.36 16.442 55.877 23.786m-53.156-30.846c55.01 4.998 77.46-17.22 94.48-10.296m-96.757-5.716l29.346-8.27c10.178-2.783 16.34-15.242 22.838-22.088m-75.034 11.418s.815-10.302 13.14-39.17c11.945-27.98 27.474-42.902 27.474-42.902" stroke-width="1.256" class="G J"/><g stroke-width="2.515" class="C D"><path d="M2996 80.637c0 18.617-16.18 33.7-36.136 33.7s-36.136-15.092-36.136-33.7 16.18-33.7 36.136-33.7S2996 62.02 2996 80.637z" class="E"/><path d="M2988.58 80.637c0 14.796-12.86 26.79-28.727 26.79s-28.727-11.995-28.727-26.79 12.86-26.79 28.727-26.79 28.727 11.995 28.727 26.79z" class="F"/></g></g><g class="B C"><g class="E"><path d="M274.825 288.247c-56.613.564-113.876.617-169.475 11.94-12.407 3.74-30.146 5.827-34.804 19.07-1.528 11.06 12.5 15.75 21.263 18.79 41.744 11.963 85.853 12.976 129.105 14.846 67.3 1.29 135.015 1.812 201.806-7.122 18.247-3.365 38.34-5.442 53.344-16.78 8.96-8.38-.958-20.095-10.862-22.505-33.977-12.447-71.036-13.782-106.972-16.317-27.773-1.447-55.595-1.905-83.407-1.923z"/><path d="M275 301.844c-30.857 0-56.88.574-78.813 1.57l-12.687.652c-48.77 2.767-74.923 7.658-88.937 12.126l-3.28 1.097c-5.012 1.82-8.094 3.565-9.97 4.98-.37.28-.686.546-.97.8a10.34 10.34 0 0 0-.75.741c-1.253 1.383-1.22 2.224-1.22 2.224L89.03 362.77H460.97l10.656-36.733s.034-.84-1.22-2.224a10.32 10.32 0 0 0-.75-.741c-1.715-1.55-4.922-3.595-10.937-5.78-.01-.003-.023.003-.03 0-13.07-4.744-39.35-10.225-92.187-13.223-.01-.001-.02.001-.03 0l-12.656-.652c-21.933-.998-47.954-1.57-78.812-1.57z"/><g class="D"><path d="M363.134 319.876c0 7.243-5.707 13.115-12.747 13.115s-12.747-5.872-12.747-13.115 5.707-13.115 12.747-13.115 12.747 5.872 12.747 13.115z"/><path d="M364.21 319.876c0 7.243-5.578 13.115-12.46 13.115s-12.46-5.872-12.46-13.115 5.578-13.115 12.46-13.115 12.46 5.872 12.46 13.115z"/></g></g><path d="M363.062 319.876c0 6.265-4.935 11.344-11.023 11.344s-11.023-5.08-11.023-11.344 4.935-11.344 11.023-11.344 11.023 5.08 11.023 11.344z" class="D F"/></g><g transform="matrix(-.41409 0 0 .392857 935.4552 43.63097)" class="B C D"><g class="E"><use xlink:href="#W" class="i"/><use xlink:href="#X" stroke-width="2.486"/></g><use xlink:href="#Y" class="F i"/></g><g transform="matrix(-.4051 .073613 0 .393981 921.462 -93.49589)" class="B D"><g class="G V"><path d="M1880.996 701.453l50.397-34.397h3.228l-48.065 34.397h-5.56z"/><path d="M1880.996 701.453l50.397 34.397h3.228l-48.065-34.397h-5.56z"/><path d="M1934.694 735.732l45.26-33.397-45.158-35.103" class="J"/></g><path d="M1899.048 701.806l36.16 26.636 35.632-26.812-35.81-26.107-35.985 26.283z" fill="#008f4c" class="C V"/><g stroke-width="1.502" class="G"><path d="M1923.365 701.9l19.128 14.028 18.85-14.12-18.942-13.75-19.035 13.842z"/><path d="M1935.033 728.266l7.497-12.348m27.782-14.288l-9.04.133m-37.882.043h-23.637m42.732-13.626l-7.453-12.657" class="J"/></g></g><g transform="matrix(.4051 .073613 0 .393981 -371.46262 -93.49589)" class="B D"><g class="G V"><path d="M1880.996 701.453l50.397-34.397h3.228l-48.065 34.397h-5.56z"/><path d="M1880.996 701.453l50.397 34.397h3.228l-48.065-34.397h-5.56z"/><path d="M1934.694 735.732l45.26-33.397-45.158-35.103" class="J"/></g><path d="M1899.048 701.806l36.16 26.636 35.632-26.812-35.81-26.107-35.985 26.283z" fill="#008f4c" class="C V"/><g stroke-width="1.252" class="G"><path d="M1923.365 701.9l19.128 14.028 18.85-14.12-18.942-13.75-19.035 13.842z"/><path d="M1935.033 728.266l7.497-12.348m27.782-14.288l-9.04.133m-37.882.043h-23.637m42.732-13.626l-7.453-12.657" class="J"/></g></g><g transform="matrix(.41409 0 0 .392857 -385.64908 42.15147)" stroke-width="2.479" class="B"><rect width="127.299" height="67.836" x="1531.773" y="669.169" ry="33.918" rx="32.551" class="E"/><rect rx="29.29" y="673.797" x="1538.15" height="58.579" width="114.544" class="O"/></g><path d="M77.347 298.808l-2.7 5.662 2.054 1.932 1.787-6.72c-.297-.398-.748-.94-1.14-.874zm395.36-.018c-.49.008-.514.023-1.35 1.058l2.1 6.438 1.617-1.532-2.358-5.964z" stroke-opacity="0" class="B C E"/><g transform="matrix(1 0 0 .948723 -107.65594 -192.54532)" class="B"><g transform="matrix(.392631 0 0 .392631 -779.60271 412.54467)"><g class="C E U"><use xlink:href="#Z"/><use xlink:href="#a" class="D"/></g><use xlink:href="#b" class="D G J j"/><g transform="matrix(-.748008 .507597 .481371 .883198 3520.4688 -1419.3176)" class="C D"><g class="E"><use xlink:href="#W" class="W"/><use xlink:href="#X" class="k"/></g><use xlink:href="#Y" class="F W"/></g></g><g transform="matrix(-.392631 0 0 .392631 1544.9142 412.54467)"><g class="C E U"><use xlink:href="#Z"/><use xlink:href="#a" class="D"/></g><use xlink:href="#b" class="D G J j"/><g transform="matrix(-.748008 .507597 .481371 .883198 3520.4688 -1419.3176)" class="C D"><g class="E"><use xlink:href="#W" class="W"/><use xlink:href="#X" class="k"/></g><use xlink:href="#Y" class="F W"/></g></g></g><path d="M186.302 248.38c2.972.323 6.495.05 9.323-.977m168.195.977c-2.973.323-6.495.05-9.323-.977m126.133 17.48c-2.9-.697-6.093-2.136-8.353-4.048m-403.01 4.048c2.9-.697 6.093-2.136 8.353-4.048" stroke-width=".5" class="B G"/><g transform="matrix(1 0 0 .948723 -751.50091 -278.1374)" class="B"><g transform="matrix(-.448389 .143055 .143055 .448389 1663.1061 44.924678)" class="P"><use xlink:href="#S" class="O"/><use xlink:href="#T" class="E"/></g><g transform="matrix(-.454619 .121815 .121815 .454619 1690.3983 77.273629)" class="C D"><g class="E"><use xlink:href="#c" class="P"/><use xlink:href="#d" class="l"/></g><use xlink:href="#e" class="F P"/></g><g transform="matrix(-1 0 0 1 2053.0014 0)"><g transform="matrix(-.448389 .143055 .143055 .448389 1663.1061 44.924678)" class="P"><use xlink:href="#S" class="O"/><use xlink:href="#T" class="E"/></g><g transform="matrix(-.454619 .121815 .121815 .454619 1690.3983 77.273629)" class="C D"><g class="E"><use xlink:href="#c" class="P"/><use xlink:href="#d" class="l"/></g><use xlink:href="#e" class="F P"/></g></g></g><g transform="matrix(.921613 0 0 .874356 -953.5984 107.83451)" class="B"><path d="M1146.982 293.415s40.214-20.435 186.113-20.435c145.416 0 186.113 20.435 186.113 20.435s-34.014 20.435-186.113 20.435c-152.583 0-186.113-20.435-186.113-20.435z" class="C O m"/><g class="G"><path d="M1285.725 317.113v-47.28" class="n"/><path d="M1277.172 317.113v-47.28" class="o"/><path d="M1269.1 317.113v-47.28" class="p"/><path d="M1261.096 317.113v-47.28" class="q"/><path d="M1253.964 317.113v-47.28" class="r"/><path d="M1240.364 314.564l-.188-43.034m6.636 43.6v-45.013" class="s"/><path d="M1227.807 312.63V272.98m6.362 40.78l-.188-42.194" class="t"/><path d="M1210.96 310.365V275.53m5.527 35.4v-36.533m5.694 37.665v-37.95" class="u"/><path d="M1205.057 310.08v-33.7" class="v"/><path d="M1199.55 308.382v-31.435" class="w"/><path d="M1193.646 307.53v-29.17" class="x"/><path d="M1181.558 304.985l-.188-23.224m6.383 24.357v-26.055" class="y"/><path d="M1175.363 303.002v-20.394" class="z"/><path d="M1169.7 301.348v-16.983" class="AA"/><path d="M1163.495 299.084v-13.3" class="AB"/><path d="M1157.128 297.952v-9.905" class="AC"/><path d="M1150.39 295.69v-4.813" class="AD"/><path d="M1319.75 314.564V271.25m-14.49 44.732l.188-45.864m-10.748 46.43v-46.715" stroke-width=".29"/><path d="M1380.466 317.113v-47.28" class="n"/><path d="M1389.018 317.113v-47.28" class="o"/><path d="M1397.092 317.113v-47.28" class="p"/><path d="M1405.095 317.113v-47.28" class="q"/><path d="M1412.226 317.113v-47.28" class="r"/><path d="M1425.827 314.564l.188-43.034m-6.636 43.6v-45.013" class="s"/><path d="M1438.384 312.63V272.98m-6.362 40.78l.188-42.194" class="t"/><path d="M1455.23 310.365V275.53m-5.528 35.4v-36.533m-5.694 37.665v-37.95" class="u"/><path d="M1461.134 310.08v-33.7" class="v"/><path d="M1466.64 308.382v-31.435" class="w"/><path d="M1472.544 307.53v-29.17" class="x"/><path d="M1484.633 304.985l.188-23.224m-6.383 24.357v-26.055" class="y"/><path d="M1490.828 303.002v-20.394" class="z"/><path d="M1496.5 301.348v-16.983" class="AA"/><path d="M1502.695 299.084v-13.3" class="AB"/><path d="M1509.062 297.952v-9.905" class="AC"/><path d="M1515.8 295.69v-4.813" class="AD"/><path d="M1346.44 314.564V271.25m14.49 44.732l-.188-45.864m10.748 46.43v-46.715" stroke-width=".29"/></g><path d="M1332.93 258.95c-56.612.595-113.87.658-169.47 12.594-12.408 3.94-30.155 6.135-34.812 20.094-1.528 11.66 12.487 16.608 21.25 19.813 41.744 12.6 85.873 13.685 129.125 15.656 67.29 1.358 135 1.885 201.78-7.53 18.247-3.547 38.34-5.737 53.344-17.687 8.96-8.832-.94-21.18-10.844-23.72-33.977-13.12-71.033-14.516-106.97-17.187-27.773-1.525-55.595-2.012-83.406-2.03zm.156 14.03c145.416 0 186.125 20.438 186.125 20.438s-34.025 20.438-186.125 20.438c-152.584 0-186.094-20.437-186.094-20.437s40.194-20.437 186.094-20.437z" class="C E m"/></g><g class="C"><g class="B"><path d="M523.125 640.97H24.687l.156 89.25c3.847 108.357 86.806 207.304 192.72 230.188 97.983 23.87 207.664-19 262.97-103.594 33.122-47.31 45.325-105.883 42.594-162.875v-52.97z" class="O"/><path d="M523.125 635.75l-2.844-.594c-4.162-1.097-8.242-2.568-12.344-4.03l-6.187-2.156c-2.1-.686-4.213-1.295-6.375-1.844s-4.355-.992-6.625-1.312-4.587-.53-7-.53-4.732.2-6.97.53-4.42.764-6.53 1.313a90.83 90.83 0 0 0-6.187 1.844c-2.036.686-4.083 1.425-6.094 2.156l-6.03 2.156c-2.036.686-4.107 1.326-6.22 1.875a72.29 72.29 0 0 1-2.781.656c-.02.003-.043-.003-.062 0-1.996.33-4.047.62-6.187.813-2.122.2-4.335.28-6.625.313-1.638-.07-3.22-.214-4.78-.437-2.237-.32-4.4-.795-6.5-1.344s-4.183-1.2-6.22-1.875-4.02-1.425-6.03-2.156l-6.094-2.156a91 91 0 0 0-6.187-1.844 58.81 58.81 0 0 0-6.5-1.312 50.05 50.05 0 0 0-5.5-.5c-.585-.023-1.147-.03-1.75-.03-.5 0-1.008.015-1.5.03-1.876.06-3.696.246-5.47.5a59.46 59.46 0 0 0-6.531 1.313 90.84 90.84 0 0 0-6.187 1.844c-2.036.686-4.052 1.425-6.062 2.156l-6.062 2.156c-2.036.686-4.107 1.326-6.22 1.875s-4.263 1.024-6.5 1.344c-1.56.223-3.144.368-4.78.438-2.228-.06-4.317-.22-6.406-.406.037.095.087.187.125.28-.962-.08-1.943-.18-2.875-.312-2.237-.32-4.4-.795-6.5-1.344s-4.152-1.2-6.187-1.875-4.052-1.425-6.062-2.156l-6.094-2.156a91 91 0 0 0-6.187-1.844 58.81 58.81 0 0 0-6.5-1.312c-2.237-.32-4.556-.53-6.97-.53s-4.7.2-6.937.53-4.42.764-6.53 1.313a90.83 90.83 0 0 0-6.187 1.844c-2.036.686-4.083 1.425-6.094 2.156l-6.062 2.156c-2.036.686-4.076 1.326-6.187 1.875s-4.294 1.024-6.53 1.344-4.525.47-6.937.47c-2.252 0-4.476-.15-6.625-.47s-4.23-.795-6.312-1.344c-4.162-1.097-8.2-2.568-12.312-4.03l-6.22-2.156c-2.1-.686-4.182-1.295-6.344-1.844s-4.387-.992-6.656-1.312-4.587-.53-7-.53-4.732.2-6.97.53-4.42.764-6.53 1.313a90.83 90.83 0 0 0-6.187 1.844c-2.036.686-4.052 1.425-6.062 2.156l-6.062 2.156c-2.036.686-4.107 1.326-6.22 1.875s-4.232 1.024-6.47 1.344-4.587.47-7 .47-4.7-.15-6.937-.47-4.42-.795-6.53-1.344-4.152-1.2-6.187-1.875-4.083-1.425-6.094-2.156l-6.062-2.156a90.82 90.82 0 0 0-6.187-1.844c-2.1-.55-4.263-.992-6.5-1.312s-4.556-.53-6.97-.53-4.694.2-6.844.53a49.67 49.67 0 0 0-6.125 1.313 72.1 72.1 0 0 0-5.687 1.844c-1.85.686-3.658 1.425-5.47 2.156L40 633.28c-1.85.686-3.726 1.326-5.687 1.875s-3.976 1.024-6.125 1.344c-1.1.164-2.335.173-3.5.25v4.22h498.437v-5.22zm0-32.906l-2.844-.594c-4.162-1.098-8.242-2.568-12.344-4.03l-6.187-2.156c-2.1-.686-4.213-1.326-6.375-1.875s-4.355-.992-6.625-1.312-4.587-.5-7-.5a49.12 49.12 0 0 0-6.97.5c-2.238.32-4.42.764-6.53 1.313s-4.152 1.2-6.187 1.875-4.083 1.425-6.094 2.156l-6.03 2.125c-2.036.686-4.107 1.357-6.22 1.906-.915.238-1.844.458-2.78.656.003-.01-.003-.022 0-.03-2.015.334-4.088.65-6.25.844-2.008.18-4.092.272-6.25.313-.03-.001-.063.001-.094 0a49.42 49.42 0 0 1-5.062-.47c-2.237-.32-4.4-.764-6.5-1.312s-4.183-1.22-6.22-1.906l-6.03-2.125-6.094-2.156c-2.036-.686-4.076-1.326-6.187-1.875a58.81 58.81 0 0 0-6.5-1.312 48.43 48.43 0 0 0-5.187-.469c-.1-.003-.212.003-.312 0a50.29 50.29 0 0 0-1.75-.03c-1.1 0-2.192.057-3.25.125a47.86 47.86 0 0 0-3.719.375 59.46 59.46 0 0 0-6.531 1.313c-2.1.55-4.152 1.2-6.187 1.875s-4.052 1.425-6.062 2.156l-6.062 2.125c-2.036.686-4.107 1.357-6.22 1.906a58.91 58.91 0 0 1-6.5 1.313 50.35 50.35 0 0 1-5.156.47c-.1-.004-.234.004-.344 0-1.97-.077-3.815-.24-5.687-.406.034.086.1.164.125.25-.962-.084-1.943-.18-2.875-.312a58.9 58.9 0 0 1-6.5-1.312c-2.1-.55-4.152-1.22-6.187-1.906l-6.062-2.125-6.094-2.156c-2.036-.686-4.076-1.326-6.187-1.875a58.81 58.81 0 0 0-6.5-1.312 49.1 49.1 0 0 0-6.97-.5 48.63 48.63 0 0 0-6.937.5c-2.237.32-4.42.764-6.53 1.313s-4.152 1.2-6.187 1.875-4.083 1.425-6.094 2.156l-6.062 2.125c-2.036.686-4.076 1.357-6.187 1.906a59.47 59.47 0 0 1-6.531 1.313 48.63 48.63 0 0 1-6.937.5c-2.252 0-4.476-.18-6.625-.5a58.34 58.34 0 0 1-6.312-1.312c-4.162-1.098-8.2-2.568-12.312-4.03l-6.22-2.156c-2.1-.686-4.182-1.326-6.344-1.875s-4.387-.992-6.656-1.312-4.587-.5-7-.5a49.12 49.12 0 0 0-6.97.5c-2.238.32-4.42.764-6.53 1.313s-4.152 1.2-6.187 1.875-4.052 1.425-6.062 2.156l-6.062 2.125c-2.036.686-4.107 1.357-6.22 1.906s-4.232.992-6.47 1.313a49.52 49.52 0 0 1-7 .5 48.64 48.64 0 0 1-6.937-.5c-2.237-.32-4.42-.764-6.53-1.312s-4.152-1.22-6.187-1.906l-6.094-2.125-6.062-2.156c-2.036-.686-4.076-1.326-6.187-1.875a58.81 58.81 0 0 0-6.5-1.312 49.1 49.1 0 0 0-6.97-.5 46.42 46.42 0 0 0-6.844.5 49.67 49.67 0 0 0-6.125 1.313c-1.96.55-3.84 1.2-5.687 1.875s-3.658 1.425-5.47 2.156a204.74 204.74 0 0 1-5.5 2.125c-1.85.685-3.726 1.357-5.687 1.906s-3.976.992-6.125 1.313c-1.1.165-2.355.165-3.53.25l.03 17.53c1.174-.07 2.402-.087 3.5-.25 2.15-.32 4.164-.764 6.125-1.312s3.84-1.2 5.688-1.875 3.7-1.425 5.5-2.156l5.47-2.125c1.85-.686 3.726-1.357 5.688-1.906a49.75 49.75 0 0 1 6.125-1.312 46.41 46.41 0 0 1 6.844-.5 49.12 49.12 0 0 1 6.97.5 58.72 58.72 0 0 1 6.5 1.313c2.1.55 4.152 1.22 6.188 1.906l6.063 2.125 6.094 2.156c2.036.686 4.076 1.326 6.188 1.875a59.47 59.47 0 0 0 6.531 1.313c2.237.32 4.525.53 6.938.53s4.763-.2 7-.53 4.357-.764 6.47-1.312a91.87 91.87 0 0 0 6.219-1.875c2.036-.686 4.052-1.425 6.063-2.156l6.063-2.125c2.036-.686 4.076-1.357 6.188-1.906a59.47 59.47 0 0 1 6.531-1.312 49.08 49.08 0 0 1 6.969-.5 48.63 48.63 0 0 1 6.938.5c2.237.32 4.42.764 6.53 1.313s4.183 1.22 6.22 1.906l6.03 2.125 6.063 2.156c2.036.686 4.076 1.326 6.188 1.875a59.47 59.47 0 0 0 6.531 1.313c2.237.32 4.556.53 6.97.53s4.7-.2 6.938-.53a59.49 59.49 0 0 0 6.53-1.312c2.1-.548 4.152-1.2 6.188-1.875s4.052-1.425 6.063-2.156l6.094-2.125c2.036-.686 4.076-1.357 6.188-1.906a59.47 59.47 0 0 1 6.531-1.312c2.237-.32 4.525-.5 6.938-.5a49.12 49.12 0 0 1 6.97.5 58.72 58.72 0 0 1 6.5 1.313c2.1.55 4.152 1.22 6.188 1.906l6.094 2.125 6.063 2.156c2.036.686 4.076 1.326 6.188 1.875a58.91 58.91 0 0 0 6.5 1.313c2.237.32 4.556.53 6.97.53 1.443 0 2.846-.095 4.22-.22.022.04.04.084.063.125 2.104-.037 4.13-.154 6.03-.437 2.15-.32 4.195-.764 6.156-1.312s3.84-1.2 5.688-1.875 3.658-1.425 5.47-2.156l5.5-2.125c1.85-.685 3.757-1.357 5.72-1.906a49.79 49.79 0 0 1 6.125-1.312c1.075-.16 2.146-.287 3.28-.375.577-.04 1.16-.075 1.75-.094a45.25 45.25 0 0 1 1.5-.031l2.094.03a49.2 49.2 0 0 1 1.75.094 51.25 51.25 0 0 1 3.406.375c2.237.32 4.4.764 6.5 1.313s4.152 1.22 6.188 1.906l3.594 1.25 2.03.875 5.03 2.156c1.7.686 3.408 1.326 5.22 1.875a41.96 41.96 0 0 0 5.75 1.313c2.05.32 4.275.53 6.688.53.585 0 1.1-.02 1.656-.03h.03a47.16 47.16 0 0 0 1.813.031c2.413 0 4.732-.2 6.97-.53a58.95 58.95 0 0 0 6.5-1.312c2.1-.548 4.183-1.2 6.22-1.875s4.02-1.425 6.03-2.156l6.094-2.125c2.036-.686 4.076-1.357 6.188-1.906a59.47 59.47 0 0 1 6.531-1.312 49.08 49.08 0 0 1 6.969-.5 49.12 49.12 0 0 1 6.97.5c2.238.32 4.357.764 6.47 1.313s4.183 1.22 6.22 1.906l6.063 2.125 6.063 2.156c2.036.686 4.076 1.326 6.188 1.875 1.1.286 2.27.46 3.406.688v-17.625z" class="F"/><path d="M523.125 587.53l-3.406-.687L513.53 585l-12.125-4.312-6.22-1.875a58.35 58.35 0 0 0-6.469-1.312 49.08 49.08 0 0 0-13.937 0c-2.237.32-4.42.764-6.53 1.313l-6.187 1.875-6.094 2.156-6.03 2.156-6.22 1.844c-2.11.55-4.263 1.024-6.5 1.344s-4.556.5-6.97.5c-.43 0-.86-.02-1.28-.03-.17-.004-.36.006-.53 0l-1.687.03a43.31 43.31 0 0 1-6.687-.5c-2.05-.32-3.94-.795-5.75-1.344l-5.22-1.844-7.594-3.25c-.01-.004-.023.004-.03 0l-3.03-1.062-6.187-1.875a58.91 58.91 0 0 0-6.5-1.312l-3.406-.375-1.75-.094-2.094-.03-1.5.03-1.75.094-3.28.375c-2.15.32-4.164.764-6.125 1.313l-5.72 1.875-5.5 2.156-5.47 2.156-5.687 1.844c-1.96.55-4.007 1.024-6.156 1.344-1.9.283-3.927.4-6.03.438l-.062-.125-4.22.188c-2.413 0-4.732-.18-6.97-.5s-4.39-.795-6.5-1.344L307.344 585l-6.062-2.156-6.094-2.156-6.187-1.875a58.91 58.91 0 0 0-6.5-1.312 49.08 49.08 0 0 0-6.969-.5c-2.413 0-4.7.18-6.937.5s-4.42.764-6.53 1.313l-6.187 1.875L243.72 585l-6.187 1.844c-2.11.55-4.294 1.024-6.53 1.344a48.63 48.63 0 0 1-6.937.5c-2.413 0-4.732-.18-6.97-.5s-4.42-.795-6.53-1.344L204.375 585l-6.062-2.156-6.03-2.156-6.22-1.875a59.47 59.47 0 0 0-6.531-1.312c-2.237-.32-4.525-.5-6.937-.5a49.08 49.08 0 0 0-6.969.5c-2.237.32-4.42.764-6.53 1.313l-6.187 1.875L140.78 585l-6.22 1.844-6.47 1.344a49.52 49.52 0 0 1-7 .5c-2.413 0-4.7-.18-6.937-.5s-4.42-.795-6.53-1.344L101.437 585l-12.156-4.312-6.187-1.875a58.91 58.91 0 0 0-6.5-1.312 49.08 49.08 0 0 0-6.969-.5 46.41 46.41 0 0 0-6.844.5c-2.15.32-4.164.764-6.125 1.313l-5.687 1.875-5.47 2.156L40 585l-5.687 1.844c-1.96.55-3.976 1.024-6.125 1.344-1.107.165-2.347.18-3.53.25v15.375l3.53-.25c2.15-.32 4.164-.764 6.125-1.312s3.84-1.22 5.688-1.906l5.5-2.125 5.47-2.156 5.688-1.875s3.976-.992 6.125-1.312 4.43-.5 6.844-.5 4.732.18 6.97.5 4.39.764 6.5 1.313 4.152 1.19 6.188 1.875 4.052 1.425 6.063 2.156l6.094 2.125 6.188 1.906s4.294.992 6.53 1.313a48.64 48.64 0 0 0 6.938.5 49.52 49.52 0 0 0 7-.5c2.237-.32 4.357-.764 6.47-1.312s4.183-1.22 6.22-1.906l6.063-2.125 6.063-2.156 6.188-1.875s4.294-.992 6.53-1.312 4.556-.5 6.97-.5 4.73.18 7 .5 4.495.764 6.656 1.313 4.255 1.19 6.344 1.875 4.168 1.425 6.22 2.156c4.102 1.463 8.15 2.934 12.313 4.03a58.34 58.34 0 0 0 6.313 1.313c2.15.32 4.373.5 6.625.5a48.63 48.63 0 0 0 6.938-.5 59.47 59.47 0 0 0 6.531-1.312c2.11-.55 4.15-1.22 6.188-1.906l6.063-2.125 6.094-2.156c2.036-.686 4.076-1.326 6.188-1.875s4.294-.992 6.53-1.312 4.525-.5 6.938-.5 4.732.18 6.97.5 4.39.764 6.5 1.313 4.152 1.19 6.188 1.875 4.083 1.425 6.094 2.156l6.063 2.125c2.036.686 4.076 1.357 6.188 1.906a58.9 58.9 0 0 0 6.5 1.313c.932.133 1.913.228 2.875.313-.034-.086-.09-.164-.125-.25 1.872.167 3.718.33 5.688.406.11.004.234-.004.344 0 1.77-.07 3.478-.23 5.156-.47a58.91 58.91 0 0 0 6.5-1.312c2.11-.55 4.183-1.22 6.22-1.906l6.063-2.125 6.063-2.156c2.036-.686 4.076-1.326 6.188-1.875a59.46 59.46 0 0 1 6.531-1.312 47.86 47.86 0 0 1 3.719-.375c1.058-.068 2.15-.125 3.25-.125.603 0 1.165.01 1.75.03.1.003.212-.003.313 0a48.43 48.43 0 0 1 5.188.469c2.237.32 4.39.764 6.5 1.313s4.15 1.19 6.188 1.875 4.083 1.425 6.094 2.156l6.03 2.125c2.036.686 4.107 1.357 6.22 1.906s4.263.992 6.5 1.313c1.648.236 3.326.398 5.063.47.03.001.063-.001.094 0 2.158-.04 4.242-.133 6.25-.312 2.162-.193 4.235-.5 6.25-.844-.003.01.003.022 0 .03.937-.2 1.866-.418 2.78-.656 2.11-.55 4.183-1.22 6.22-1.906l12.125-4.28c2.036-.686 4.076-1.326 6.188-1.875s4.294-.992 6.53-1.312 4.556-.5 6.97-.5 4.73.18 7 .5 4.463.764 6.625 1.313 4.286 1.19 6.375 1.875 4.136 1.425 6.188 2.156c4.102 1.463 8.18 2.934 12.344 4.03.933.246 1.897.392 2.844.594V587.53z" class="Q"/><path d="M523.125 569.937l-2.844-.594c-4.162-1.098-8.242-2.6-12.344-4.062l-6.187-2.125c-2.09-.686-4.213-1.326-6.375-1.875s-4.355-1.024-6.625-1.344-4.587-.5-7-.5-4.732.18-6.97.5-4.42.795-6.53 1.344-4.152 1.19-6.187 1.875l-6.094 2.125-6.03 2.156c-2.036.686-4.107 1.357-6.22 1.906-.915.238-1.844.426-2.78.625.003-.01-.003-.022 0-.03-2.015.334-4.088.682-6.25.875-2.008.18-4.092.273-6.25.313-.03-.001-.063.001-.094 0a50.09 50.09 0 0 1-5.062-.469c-2.237-.32-4.39-.764-6.5-1.312s-4.183-1.22-6.22-1.906-4.02-1.425-6.03-2.156l-6.094-2.125c-2.036-.686-4.076-1.326-6.187-1.875s-4.263-1.024-6.5-1.344a50.46 50.46 0 0 0-5.187-.469c-.1-.004-.212.003-.312 0-.585-.023-1.147-.03-1.75-.03a46.74 46.74 0 0 0-3.25.125c-1.26.088-2.502.2-3.72.375-2.237.32-4.42.795-6.53 1.344s-4.152 1.19-6.187 1.875l-6.062 2.125-6.062 2.156c-2.036.686-4.107 1.357-6.22 1.906s-4.263.992-6.5 1.313a50.04 50.04 0 0 1-5.156.469c-.1-.004-.234.004-.344 0-1.97-.077-3.815-.24-5.687-.406.034.086.09.164.125.25-.962-.084-1.943-.18-2.875-.312a58.91 58.91 0 0 1-6.5-1.312c-2.11-.55-4.152-1.22-6.187-1.906s-4.052-1.425-6.062-2.156l-6.094-2.125c-2.036-.686-4.076-1.326-6.187-1.875s-4.263-1.024-6.5-1.344a49.07 49.07 0 0 0-6.969-.5c-2.413 0-4.7.18-6.937.5s-4.42.795-6.53 1.344-4.152 1.19-6.187 1.875l-6.094 2.125-6.062 2.156c-2.036.686-4.076 1.357-6.187 1.906s-4.294.992-6.53 1.313a48.63 48.63 0 0 1-6.937.5c-2.252 0-4.476-.18-6.625-.5a58.35 58.35 0 0 1-6.312-1.312c-4.162-1.098-8.2-2.6-12.312-4.062l-6.22-2.125c-2.09-.686-4.182-1.326-6.344-1.875s-4.387-1.024-6.656-1.344-4.587-.5-7-.5-4.732.18-6.97.5-4.42.795-6.53 1.344-4.152 1.19-6.187 1.875l-6.062 2.125-6.062 2.156c-2.036.686-4.107 1.357-6.22 1.906s-4.232.992-6.47 1.313a49.52 49.52 0 0 1-7 .5c-2.413 0-4.7-.18-6.937-.5s-4.42-.764-6.53-1.312-4.152-1.22-6.187-1.906-4.083-1.425-6.094-2.156l-6.062-2.125c-2.036-.686-4.076-1.326-6.187-1.875s-4.263-1.024-6.5-1.344a49.07 49.07 0 0 0-6.969-.5c-2.413 0-4.694.18-6.844.5s-4.164.795-6.125 1.344-3.84 1.19-5.687 1.875-3.658 1.393-5.47 2.125l-5.5 2.156c-1.85.686-3.726 1.357-5.687 1.906s-3.976.992-6.125 1.313c-1.11.165-2.355.165-3.53.25v17.53c1.185-.07 2.424-.085 3.53-.25 2.15-.32 4.164-.795 6.125-1.344S38.15 585.686 40 585s3.69-1.425 5.5-2.156l5.47-2.156c1.85-.686 3.726-1.326 5.688-1.875s3.976-.992 6.125-1.312a46.41 46.41 0 0 1 6.844-.5 49.08 49.08 0 0 1 6.969.5 58.91 58.91 0 0 1 6.5 1.313c2.11.55 4.152 1.19 6.188 1.875s4.052 1.425 6.063 2.156l6.094 2.156c2.036.686 4.076 1.295 6.188 1.844s4.294 1.024 6.53 1.344 4.525.5 6.938.5a49.52 49.52 0 0 0 7-.5c2.237-.32 4.357-.795 6.47-1.344s4.183-1.158 6.22-1.844 4.052-1.425 6.063-2.156l6.063-2.156c2.036-.686 4.076-1.326 6.188-1.875s4.294-.992 6.53-1.312a49.08 49.08 0 0 1 6.969-.5c2.413 0 4.7.18 6.938.5a59.47 59.47 0 0 1 6.531 1.313 91.86 91.86 0 0 1 6.219 1.875c2.036.686 4.02 1.425 6.03 2.156l6.063 2.156c2.036.686 4.076 1.295 6.188 1.844s4.294 1.024 6.53 1.344 4.556.5 6.97.5a48.63 48.63 0 0 0 6.938-.5c2.237-.32 4.42-.795 6.53-1.344a90.84 90.84 0 0 0 6.188-1.844c2.036-.686 4.052-1.425 6.063-2.156l6.094-2.156c2.036-.686 4.076-1.326 6.188-1.875s4.294-.992 6.53-1.312 4.525-.5 6.938-.5a49.08 49.08 0 0 1 6.969.5 58.91 58.91 0 0 1 6.5 1.313c2.11.55 4.152 1.19 6.188 1.875a270.45 270.45 0 0 1 6.094 2.156l6.063 2.156a90.86 90.86 0 0 0 6.188 1.844c2.11.55 4.263 1.024 6.5 1.344s4.556.5 6.97.5c1.443 0 2.846-.07 4.22-.187.022.04.04.084.063.125 2.104-.037 4.13-.154 6.03-.437 2.15-.32 4.195-.795 6.156-1.344s3.84-1.158 5.688-1.844 3.658-1.425 5.47-2.156l5.5-2.156c1.848-.686 3.757-1.326 5.72-1.875s3.976-.992 6.125-1.312a46.39 46.39 0 0 1 3.281-.375c.577-.04 1.16-.075 1.75-.094a45.28 45.28 0 0 1 1.5-.031c.724 0 1.402.008 2.094.03a49.2 49.2 0 0 1 1.75.094 51.26 51.26 0 0 1 3.406.375 58.91 58.91 0 0 1 6.5 1.313c2.11.55 4.152 1.19 6.188 1.875l3.03 1.063c.01.004.023-.004.03 0 .05.018.105.044.156.063l7.438 3.188a60.29 60.29 0 0 0 5.219 1.844c1.81.55 3.7 1.024 5.75 1.344a43.31 43.31 0 0 0 6.688.5c.596 0 1.133-.023 1.688-.03.17.006.36-.004.53 0l1.28.03c2.413 0 4.732-.18 6.97-.5s4.39-.795 6.5-1.344a91.72 91.72 0 0 0 6.219-1.844c2.036-.686 4.02-1.425 6.03-2.156l6.094-2.156c2.036-.686 4.076-1.326 6.188-1.875s4.294-.992 6.53-1.312a49.08 49.08 0 0 1 13.938 0 58.35 58.35 0 0 1 6.469 1.313c2.11.55 4.183 1.19 6.22 1.875s4.052 1.425 6.063 2.156L513.53 585c2.036.686 4.076 1.295 6.188 1.844 1.1.286 2.27.453 3.406.688v-17.594z" class="F"/><path d="M24.53 367.97l.125 202.938 3.53-.25c2.15-.32 4.164-.764 6.125-1.312s3.84-1.22 5.688-1.906 3.69-1.425 5.5-2.156l5.47-2.125 5.688-1.875s3.976-1.024 6.125-1.344 4.43-.5 6.844-.5a49.07 49.07 0 0 1 6.969.5c2.237.32 4.39.795 6.5 1.344s4.152 1.19 6.188 1.875l6.063 2.125 6.094 2.156 6.188 1.906s4.294.992 6.53 1.313 4.525.5 6.938.5a49.52 49.52 0 0 0 7-.5c2.237-.32 4.357-.764 6.47-1.312s4.183-1.22 6.22-1.906 4.052-1.425 6.063-2.156l6.063-2.125 6.188-1.875s4.294-1.024 6.53-1.344 4.556-.5 6.97-.5 4.73.18 7 .5 4.495.795 6.656 1.344 4.255 1.19 6.344 1.875l6.22 2.125c4.102 1.463 8.15 2.965 12.313 4.063a58.35 58.35 0 0 0 6.313 1.313c2.15.32 4.373.5 6.625.5a48.63 48.63 0 0 0 6.938-.5c2.237-.32 4.42-.764 6.53-1.312s4.15-1.22 6.188-1.906 4.052-1.425 6.063-2.156l6.094-2.125c2.036-.686 4.076-1.326 6.188-1.875s4.294-1.024 6.53-1.344 4.525-.5 6.938-.5a49.07 49.07 0 0 1 6.969.5c2.237.32 4.39.795 6.5 1.344s4.152 1.19 6.188 1.875l6.094 2.125 6.063 2.156c2.036.686 4.076 1.357 6.188 1.906a58.91 58.91 0 0 0 6.5 1.313c.932.133 1.913.228 2.875.313-.034-.086-.09-.164-.125-.25 1.872.167 3.718.33 5.688.406.11.004.234-.004.344 0a50.04 50.04 0 0 0 5.156-.469c2.237-.32 4.39-.764 6.5-1.312s4.183-1.22 6.22-1.906 4.052-1.425 6.063-2.156l6.063-2.125c2.036-.686 4.076-1.326 6.188-1.875s4.294-1.024 6.53-1.344c1.216-.174 2.458-.287 3.72-.375a46.74 46.74 0 0 1 3.25-.125c.603 0 1.165.008 1.75.03.1.003.212-.004.313 0a50.46 50.46 0 0 1 5.188.469c2.237.32 4.39.795 6.5 1.344s4.15 1.19 6.188 1.875l6.094 2.125 6.03 2.156c2.036.686 4.107 1.357 6.22 1.906s4.263.992 6.5 1.313a50.09 50.09 0 0 0 5.063.469c.03.001.063-.001.094 0 2.158-.04 4.242-.133 6.25-.312 2.162-.193 4.235-.54 6.25-.875-.003.01.003.022 0 .03.937-.2 1.866-.387 2.78-.625 2.11-.55 4.183-1.22 6.22-1.906s4.02-1.425 6.03-2.156l6.094-2.125c2.036-.686 4.076-1.326 6.188-1.875s4.294-1.024 6.53-1.344 4.556-.5 6.97-.5 4.73.18 7 .5 4.463.795 6.625 1.344 4.286 1.19 6.375 1.875l6.188 2.125c4.102 1.463 8.18 2.965 12.344 4.063.933.246 1.897.392 2.844.594V367.97H24.53z" class="Q"/></g><path d="M211.195 577.258c1.795 1.705 3.194 3.59 3.295 5.48l-.353.57-10.48 18.118c-2.692 1.29-6.89.286-10.474-1.793s-6.55-5.23-6.735-8.27l.306-.508 10.122-17.513.306-.508c1.838-.91 4.348-.538 6.904.286l-2.544 5.744c-.727-.012-1.466.015-2.045.364l-.16.288-6.17 10.652c-.036 1.666 1.276 3.3 2.985 4.294s3.792 1.36 5.198.536l.206-.35 6.01-10.364.172-.357c.024-.843-.32-1.68-.894-2.425l4.35-4.245z" class="R"/></g><g transform="matrix(1.037175 0 0 1.037175 -106.11249 187.90713)" class="B"><g class="F H"><path d="M501.077 593.976c0 74.282-60.218 134.5-134.5 134.5s-134.5-60.218-134.5-134.5 60.218-134.5 134.5-134.5 134.5 60.218 134.5 134.5z"/><path d="M496.874 593.976c0 71.96-58.336 130.297-130.297 130.297S236.28 665.938 236.28 593.976 294.616 463.68 366.577 463.68s130.297 58.336 130.297 130.297z"/></g><path d="M366.874 463.68l-13.812 27.313-20.344-22.75-5.75 29.906-25.687-16.78 2.188 30.344-29.188-9.594 9.938 28.688-30.625-1.687 17.03 25.156-29.97 6.28 23 19.906-27.375 13.813 27.5 13.344-22.844 20.406 29.875 5.75L254 659.46l30.28-2.156-9.562 29.094 28.688-9.937-1.687 30.53 25.156-17.062 6.28 29.97 19.906-23 13.813 27.375 13.313-27.406 19.97 23.094 6.25-29.97 25.156 17.03-1.687-30.562 28.688 9.938-9.594-29.187 30.313 2.188-16.78-25.656 29.844-5.75-22.844-20.437 27.375-13.28-27.25-13.75 23.03-19.937-30-6.28 17.03-25.156-30.687 1.72 9.97-28.75-29.156 9.594L432 481.305l-25.656 16.78-5.75-29.875-20.438 22.844-13.28-27.375zm-13.25 29.875h26.188l25.53 6.844 22.875 13.22 18.875 18.875 13.25 22.938L467 580.21v26.97l-6.875 25.656-13.28 23-18.625 18.656-22.594 13.063-25.563 6.844h-26.72l-25.562-6.844-22.875-13.22-18.5-18.5-13.187-22.812-7.062-26.375v-25.906l6.813-25.406 13.156-22.812 18.78-18.75L328 500.43l25.625-6.875z" stroke-linejoin="bevel" class="G H"/><g class="F H"><path d="M469.767 593.976c0 57-46.2 103.2-103.2 103.2s-103.2-46.2-103.2-103.2 46.2-103.2 103.2-103.2 103.2 46.2 103.2 103.2z"/><path d="M460.035 593.976c0 51.616-41.843 93.46-93.46 93.46s-93.46-41.843-93.46-93.46 41.843-93.46 93.46-93.46 93.46 41.843 93.46 93.46z"/><path d="M450.296 593.976c0 46.237-37.483 83.72-83.72 83.72s-83.72-37.483-83.72-83.72 37.483-83.72 83.72-83.72 83.72 37.483 83.72 83.72z"/><path d="M440.565 593.976c0 40.863-33.126 73.988-73.988 73.988s-73.988-33.126-73.988-73.988 33.126-73.988 73.988-73.988 73.988 33.126 73.988 73.988z"/><path d="M430.833 593.976c0 35.488-28.77 64.257-64.257 64.257s-64.257-28.77-64.257-64.257 28.77-64.257 64.257-64.257 64.257 28.77 64.257 64.257z"/><path d="M421.102 593.976c0 30.114-24.412 54.526-54.525 54.526S312.05 624.1 312.05 593.976s24.412-54.526 54.525-54.526 54.525 24.412 54.525 54.526z"/><path d="M362.214 600.56c-2.467-1.62-3.61-4.043-3.375-7.164.56-7.483 9.56-9.8 14.22-3.663 2.365 3.115 1.342 8.457-2.055 10.726-2.494 1.666-6.34 1.7-8.79.1z"/><use xlink:href="#f"/><use xlink:href="#f" y="81.037"/><path d="M340.284 551.263c-2.868-.12-5.594 1.86-5.856 5.366-.175 2.34.698 4.15 2.55 5.366 1.386.9 3.344 1.127 5.037.637 17.422 26.513 31.812 27.168 49.097.03 1.693.475 3.7.227 5.128-.728 2.548-1.702 3.32-5.7 1.548-8.035-3.496-4.603-10.26-2.883-10.68 2.73-.12 1.596.264 2.948 1.092 4.032-16.025 15.94-27.252 15.564-43.2-.182 1.324-1.967 1.496-4.77.12-6.58-1.3-1.726-3.104-2.565-4.825-2.638zm0 85.437c-2.868.12-5.594-1.86-5.856-5.366-.175-2.34.698-4.15 2.55-5.366 1.386-.9 3.344-1.127 5.037-.637 17.422-26.513 31.812-27.168 49.097-.03 1.693-.475 3.7-.227 5.128.728 2.548 1.702 3.32 5.7 1.548 8.035-3.496 4.603-10.26 2.883-10.68-2.73-.12-1.596.264-2.948 1.092-4.032-16.025-15.94-27.252-15.564-43.2.182 1.324 1.967 1.496 4.77.12 6.58-1.3 1.726-3.104 2.565-4.825 2.638z"/></g><path d="M344.97 519.813c-2.954-.125-5.76 1.916-6.03 5.53-.18 2.412.72 4.28 2.625 5.53 1.427.938 3.444 1.162 5.188.656 17.942 27.327 32.762 28.002 50.563.03 1.744.5 3.8.234 5.28-.75 2.624-1.754 3.42-5.874 1.594-8.28-3.6-4.745-10.568-2.972-11 2.813-.123 1.645.272 3.038 1.125 4.156-16.503 16.43-28.066 16.042-44.5-.187 1.363-2.027 1.54-4.915.125-6.78-1.35-1.78-3.197-2.644-4.97-2.72zm0 88.05c-2.954.125-5.76-1.916-6.03-5.53-.18-2.412.72-4.28 2.625-5.53 1.427-.938 3.444-1.162 5.188-.656 17.942-27.327 32.762-28.002 50.563-.03 1.744-.5 3.8-.234 5.28.75 2.624 1.754 3.42 5.874 1.594 8.28-3.6 4.745-10.568 2.972-11-2.812-.123-1.645.272-3.038 1.125-4.156-16.503-16.43-28.066-16.042-44.5.188 1.363 2.027 1.54 4.915.125 6.78-1.35 1.78-3.197 2.644-4.97 2.72z" transform="matrix(0 -.970212 .971007 0 -180.9134 954.9403)" class="F AE"/><g transform="matrix(0 -.970212 .971007 0 -180.5693 954.94101)" class="F AE"><use xlink:href="#g"/><use xlink:href="#g" y="83.525"/></g></g><g transform="matrix(1.080808 0 0 1.080808 -45.62379 -53.206309)" class="B"><g transform="matrix(.739337 0 0 .739337 154.49756 -4.017519)"><g class="C D E"><g stroke-width="1.426"><path d="M387.6 574.715l-2.68 4.312v23.682l9.517-6.83-6.838-21.164zm-31.717 0l2.68 4.312v23.682l-9.517-6.83 6.838-21.164zm53.137 5.46l-4.43 3.567v23.682l11.268-6.085L409 580.176zm-74.375 0l4.43 3.567v23.682l-11.268-6.085 6.838-21.164z"/><path d="M334.427 579.894c-3.737 1.236-7.4 2.57-10.82 3.95v28.106c21.233-14.038 75.333-13.826 96.43 0l-.133-28.22c-3.444-1.478-7.036-2.772-10.688-4.006v13.055l-10.608-3v-13.168c-3.6-.9-7.194-1.617-10.794-2.2v13.11l-10.608-1.24v-13.055c-1.812-.106-3.67-.343-5.437-.34-1.72.005-3.556.273-5.33.395v12.998l-10.608 1.24V574.59c-3.61.628-7.196 1.327-10.794 2.257v13.45l-10.608 2.765v-13.168z"/></g><path d="M372.563 601.313c-10.455.086-14.5.583-24.937 2.063-14.205 2.545-23.97 8.313-23.97 8.313l7.125 5.594c4.438 42.803-2.107 84.642-11.437 121.938l-11.72 11.656v26.28c20.41 7.74 37.916 12.014 54.656 13.313l-.156-25.687c.034-2.86.354-5.222.906-7.156a15.14 15.14 0 0 1 1-2.594c.38-.76.786-1.43 1.25-2a8.43 8.43 0 0 1 1.5-1.437c.53-.4 1.108-.727 1.688-.97 1.16-.484 2.378-.666 3.625-.625s2.484.246 3.625.72c.57.236 1.105.554 1.625.938a8.07 8.07 0 0 1 1.469 1.406c.453.557.88 1.18 1.25 1.938s.696 1.642.97 2.625c.544 1.967.883 4.407.938 7.438.183 10.2-.005 21.126-.062 25.438 17.353-1.2 34.74-5.6 54.594-13.344v-26.28l-11.72-11.656c-11.607-53.143-13.357-84.2-12.125-121.937l7.47-5.78c0 0-10.578-5.74-24-8.062-8.896-1.442-13.108-2.21-23.562-2.125zm-19.406 54.03a6.95 6.95 0 0 1 .656 0c3.53.115 6.846 2.013 7 10.438s-.063 24.25-.062 24.25l-13.844-.97c0 0-.25-15.515-.156-23.47.09-7.453 3.12-10.048 6.406-10.25zm36.5 0a6.95 6.95 0 0 1 .656 0c3.53.115 6.815 2.013 6.97 10.438s-.03 23.28-.03 23.28l-13.844.97c0 0-.25-16.484-.156-24.437.09-7.453 3.12-10.048 6.406-10.25z" class="K"/></g><path d="M319.34 739.314c15.903 6 35.712 10.64 52.74 10.686s36.244-3.92 52.72-10.542m-94.056-122.096c8.968-4.138 27.666-6.943 41.153-6.857 13.2.083 31.44 3.183 40.663 6.8" class="G J D K"/><path d="M372.1 743.837c-8.16-.192-16.094 3.868-16.312 17.125-.22 13.263.312 29.12.313 29.12l6.17.46c-.04-2.083-.212-14.963-.088-25.61.034-2.86.055-5.222.607-7.156a15.14 15.14 0 0 1 1-2.594c.38-.76.587-1.43 1.05-2s.82-1.04 1.35-1.437.958-.727 1.538-.97c1.16-.484 3.325-1.115 4.572-1.074s2.983.695 4.124 1.167c.57.236.906.554 1.426.938s.716.818 1.17 1.375.93 1.212 1.3 1.97.697 1.642.97 2.625c.545 1.967.498 4.408.588 7.438.335 11.28-.03 23.398-.062 25.36l6.317-.46s.45-14.796.094-28.84-7.965-17.245-16.125-17.437z" class="C D E K"/><path d="M307.587 751.263c16.058 6.058 32.115 10.602 48.173 12.603m80.35-12.603c-16.012 6.058-32.024 10.602-48.035 12.603" class="G K"/></g><g transform="matrix(.739337 0 0 .739337 154.64198 -4.017519)" class="G"><path d="M372.37 749.804v-5.564m-16.795 40.913h6.6m-6.6-6.007h6.6m-6.555-18.023h7.06m-7.095 6.007h6.6m-6.6 6.008h6.6m5.175-20.885l-3.883-6.356m.69 10.413l-7.005-3.775m31.377 32.618h-6.6m6.6-6.007h-6.6m6.6-18.023h-6.6m6.6 6.007h-6.6m6.6 6.008h-6.6m-5.177-21.533l3.883-5.708m-.15 9.983l6.464-3.343" class="K"/><path d="M367.098 610.47s.177-5.705 4.737-5.736 4.865 5.73 4.865 5.73m-19.47.9s-.215-5.702 3.926-6.16 4.798 5.257 4.798 5.257m-18.722 2.435s-.424-5.684 3.696-6.378 4.986 4.977 4.986 4.977m-17.696 3.2s-.507-5.668 3.166-6.5 4.574 4.82 4.574 4.82m-14.712 3.682s-1.638-5.334 1.4-6.346 4.34 4.652 4.34 4.652m49.58-3.648s.215-5.702-3.926-6.16-4.798 5.257-4.798 5.257m18.722 2.435s.424-5.684-3.696-6.378-4.986 4.977-4.986 4.977m17.697 3.2s.507-5.668-3.166-6.5-4.574 4.82-4.574 4.82m14.7 3.682s1.638-5.334-1.4-6.346-4.34 4.652-4.34 4.652" stroke-width="1.267" class="D J"/><g class="K"><path d="M322.84 725.383c33.397 12.035 66.24 12.105 98.524 0m-96.047-13.533c31.696 9.576 62.85 9.735 93.43 0m-90.914-13.53c30.337 6.956 59.963 7.155 88.815 0m-58.426-87.16l.675 16.1"/><path d="M384.96 611.243l.17 16.026"/><path d="M331.614 630.66c27.394-5.484 54.14-4.908 80.42 0m-79.808 13.53c26.916-2.9 53.625-2.678 80.17 0"/><path d="M344.642 628.534l-.253 14.423m27.75-16.363v15.35m27.244-13.24l.6 14.423m-14.686-1.012l.17 15.267m-25.896-14.845l-.422 15.098m12.82-.084v15.436m-28.432-15.352l-.843 14.34m57.777-14.34l.928 14.592m-59.457 14.254l-1.18 14.34m31.207-12.737v15.7m30.534-17.208l1.097 14.423m-45.8 1.94l-.843 15.35m29.86-15.18l.6 15.182m-47.836-2.783l-1.603 14.845m33.993-11.134v15.436m32.812-18.978l1.94 14.508m-18.472 3.373l1.012 15.182m-33.486-15.35l-1.012 15.35m-20.67-4.13l-7.387 12.722m27.7-9.02l-4.104 14.57"/></g><path d="M416.332 739.857l-7.387 12.722m27.7-9.03l-4.104 14.57" transform="matrix(-1 0 0 1 825.73054 4.739724)" class="K"/><g class="K"><path d="M307.587 764.6c16.146 6.058 32.292 10.602 48.44 12.603M436.1 764.6c-15.9 6.058-31.78 10.602-47.67 12.603"/><path d="M326.296 757.523v13.623m13.64 3.458v12.417m76.85-29.498v13.623m-101-3.616v12.25M428.4 767.53v12.25m-24.156-5.176v12.417m-72.207-129.303l16.944-.078m46.28.078l17.414-.078m-53.9-.08H385.3m-54.204 13.64l15.532 1.02m66.912-1.02l-16.394 1.02m-67.306 12.482c5.753 1.048 11.4 1.775 16.944 2.196m68.166-2.196a175.52 175.52 0 0 1-17.571 2.196m-36.632 1.02c7.615.443 15.107.393 22.513 0M360.757 672.7c7.615.23 15.107.187 22.513 0"/></g></g><path d="M422.3 580.425s-.248-10.905-.148-19.365 3.715-11.05 7.428-10.927 7.174 2.172 7.336 11.133-.046 19.168-.046 19.168l-14.57-.01zm-6.705-99.923c-2.43.15-4.67 2.068-4.736 7.578-.07 5.88.116 17.35.116 17.35l10.235.716.046-17.93c-.114-6.228-2.566-7.632-5.175-7.717-.163-.005-.323-.01-.485 0zm26.986 0c-2.43.15-4.67 2.068-4.736 7.578-.07 5.88.115 18.068.116 18.068l10.235-.716.023-17.213c-.114-6.227-2.543-7.632-5.152-7.717-.163-.005-.323-.01-.485 0z" stroke-width=".925" class="C D Q"/></g><g transform="matrix(1.088089 .001039 -.001039 1.088089 -71.164187 -41.596021)" class="R"><g transform="matrix(.99564 -.093282 .093282 .99564 -250.82601 52.731519)" class="AF"><path d="M596.022 561.276c-1.255-3.956-1.32-8.292.584-10.672l20.413-6.525c5.858 1.668 9.94 14.347 6.152 19.003l-20.595 6.583c-2.86-.858-5.3-4.434-6.555-8.4zm5.707-1.824c.598 1.887 1.884 3.55 3.48 3.885l12.172-3.9c2.277-2.372.335-8.413-2.935-9.057l-12.07 3.858c-1.147 1.2-1.245 3.317-.647 5.204zm-41.035 11.766c-.998-4.03-.785-8.36 1.27-10.612l20.8-5.193c5.738 2.043 8.996 14.96 4.917 19.36l-20.976 5.24c-2.8-1.04-5.004-4.767-6-8.796zm5.812-1.452c.476 1.922 1.652 3.664 3.222 4.102l12.397-3.097c2.425-2.22.876-8.374-2.346-9.228l-12.293 3.07c-1.222 1.135-1.456 3.23-.98 5.152z" class="C"/><path d="M584.032 568.8l-.001-.002c-1.674.553-3.434-.186-3.946-1.67s.417-3.154 2.075-3.754v-.002l18.97-6.57c1.7-.585 3.48.157 3.995 1.655s-.434 3.188-2.123 3.772l-.03.01-18.942 6.56zm34.036-11.433l-.001-.002c-1.222.504-2.707-.24-3.33-1.678s-.152-3.034 1.05-3.585l-.001-.002 13.802-6.003c1.23-.534 2.737.212 3.367 1.666s.144 3.067-1.085 3.6c-.007.003-.015.005-.022.008v.001l-13.78 5.994z" class="D"/></g><g transform="matrix(-.962635 .555084 .556097 .964392 310.53525 -161.90236)" class="AG"><path d="M327.342 581.332c-1.13-3.554-1.2-7.45.526-9.586l18.37-5.86c5.27 1.5 8.945 12.888 5.537 17.07l-18.534 5.914c-2.573-.77-4.77-3.983-5.9-7.536zm5.135-1.64c.538 1.695 1.696 3.2 3.13 3.5l10.954-3.495c2.05-2.13.302-7.557-2.64-8.136l-10.862 3.466c-1.032 1.088-1.12 2.98-.582 4.675zm-36.927 10.57c-.898-3.62-.706-7.5 1.143-9.532l18.7-4.665c5.164 1.835 8.095 13.437 4.425 17.392l-18.877 4.707c-2.518-.935-4.503-4.282-5.4-7.9zm5.23-1.304c.428 1.727 1.487 3.292 2.9 3.685l11.156-2.782c2.182-1.994.788-7.522-2.1-8.3l-11.062 2.758c-1.1 1.02-1.3 2.9-.882 4.628z" class="C"/><path d="M316.552 588.08h-.001c-1.506.497-3.1-.167-3.55-1.5s.375-2.833 1.867-3.372l-.001-.002 17.073-5.9c1.52-.525 3.13.14 3.596 1.486s-.4 2.863-1.9 3.4l-.027.008v.001l-17.046 5.9zm30.63-10.268l-.001-.002c-1.1.453-2.436-.215-2.997-1.508s-.137-2.726.945-3.22l-.001-.002 12.42-5.393c1.106-.48 2.463.2 3.03 1.496s.13 2.755-.976 3.235c-.007.003-.013.004-.02.007l.001.001-12.402 5.384zm-62.762 18.074v-.002c-1.54.38-3.07-.4-3.427-1.765s.6-2.796 2.118-3.22v-.002l17.472-4.586c1.555-.408 3.1.378 3.472 1.755s-.607 2.825-2.163 3.234l-.028.006v.001l-17.444 4.58z" class="D"/></g></g><g transform="matrix(-.783213 0 0 .739128 834.36696 10.922553)" class="B"><g class="C L"><path d="M925.843 761.743l-43.358.943.943-60.09 42.416 59.146z" class="F"/><g class="I"><path d="M892.837 786.733c-41.758 4.77-65.222 3.08-89.742-4.964l25.204 31.314 59.573-15.275 4.964-11.075z"/><path d="M883.878 790.89l44.092-28.98-53.08 29.405 9-.426z"/></g><g class="F"><path d="M862.453 604.72l43.698 159.84c-16.85 1.39-33.013 3.585-40.823 15.524 16.197-52.328.092-116.193-2.875-175.366z"/><path d="M866.827 631.335c20.178 34.086 44.53 97.217 51.91 121.23-14.164 2.52-34.57 2.737-40.085 12.734 8.88-42.284-3.812-87.962-11.824-133.965z"/></g></g><path d="M776.234 668.47l57.887-34.188m3.11.388l67.988 42.347" transform="matrix(.734046 -.01227 .012037 .749633 238.82254 170.23484)" stroke-width="1.772" class="G"/><g class="C L"><path d="M911.407 667.016l-96.172-4.652-.08 1.822 96.172 4.652.08-1.822z" class="I"/><path d="M834.02 515.293s12.794.595 19.638 4.463 10.712 4.166 10.712 4.166l-8.926 2.38 6.248 7.736c-6.787-3.63-14.886-10.04-27.97-11.307l.298-7.44zm.073 23.777l41.6 84.498-43.53-55.05 1.92-29.446z" class="F"/><path d="M834.502 579.888l-3.023-.408.904-64.844 2.676.717-.557 64.535z" class="I"/><path d="M820.646 664.156c30.507 19.892 12.213 44.345-2.562 63.302 0 0 21.594-35.5 59.304-26.705 37.752 8.805 24.97 37.128 24.97 37.128 18.216-20.645 19.287-48.27 1.438-69.655l-83.15-4.07z" class="F"/><path d="M862.46 794.682l-1.758-166.86-1.758-.234.44 167.797 3.077-.703z" class="I"/><path d="M776.512 584.112c42.824 24.883 19.7 59.404.987 86.206 0 0 26.816-49.766 78.638-40.47 51.88 9.306 36.522 48.697 36.522 48.697 23.277-29.34 22.782-66.957-2.96-94.76l-113.187.33z" class="F"/><path d="M898.482 582.642h-130.08v2.33h130.08v-2.33z" class="I"/></g><path d="M776.234 668.47l57.887-34.188m3.11.388l67.988 42.347m.36 87.318l22.386-2.356" class="G L"/><path d="M778.482 670.017l127.642 7.2c20.68 36.048 21.7 66.08 11.053 92.54 0 0-5.58-22.283-63.965-22.013S784.9 762.196 784.9 762.196c8.954-31.056 16.327-62.065-6.418-92.18z" class="C F L"/><path d="M872.195 801.338L836.84 661.476l31.08 141.804m-5.826.4L836.84 662.642l19.425 141.804M836.84 663.42l13.986 139.862" transform="matrix(-.668848 0 0 .883982 1395.1741 89.892907)" stroke-width="1.709" class="G"/><g class="C L"><path d="M906.238 676.096l-129.884-7.137-.128 2.327 129.884 7.137.128-2.327z" class="I"/><path d="M888.665 790.642s35.046-6.757 38.9-38.528c3.822-31.417-11.465-55.09-11.465-55.09 14.838 66.737-8.6 83.242-27.446 93.62z" class="F"/><path d="M787.946 779.004l-1.758-146.91-1.758-.206.44 147.736 3.077-.62z" class="I"/><path d="M739.985 628.294c18.294 48.78 45.825 101.4 29.323 135.693 19.608 1.856 47.257-1.167 48.872-33.923l-78.196-101.77z" class="F"/><g class="I"><path d="M819.203 729.642l-79.067-104.086-1.5 1.172 79.067 104.086 1.5-1.172zm20.1 63.02l-2.464-219.297-2.464-.308.616 220.53 4.312-.924z"/><path d="M820.658 652.676h30.775l.98 3.66h-32.296l.54-3.66z"/><path d="M820.498 656.495c.17 2.537 9.57 3.316 15.197 3.52 5.3.192 16.095-1.108 16.317-3.68l-31.515.16zm9.372-64.29h8.824l.28 5.572h-9.26l.155-5.572z"/><path d="M829.826 598.02c.05 3.86 2.744 5.046 4.357 5.356 1.522.292 4.615-1.686 4.678-5.6l-9.036.243z"/></g></g><g class="C I L"><path d="M765.59 825.56h32.187c6.423-7.443 14.028-28.235 3.065-43.3l3.832-5.365V770c-15.67.853-29.93.296-42.533-1.916v8.047l2.03 3.854c-11.943 14.754-8.012 39.07 1.42 45.577z"/><path d="M804.675 769.957c7.346 4.087 14.924 7 22.65 9.196l-.68 6.812-4.428 3.236c-8.488-.793-14.98-3.98-21.628-6.982l4.428-5.45-.34-6.812z"/><path d="M804.845 776.94c5.908 4.3 13.696 6.74 21.458 9.196m-4.008 2.914c26.336 5.3 47.395 3.6 71.115-2.137 1.28 23.575-14 29.483-25.26 37.695l-70.532 1.166c7-8.512 12.915-28.308 3.1-43.524 6.8 2.665 12.407 6.505 21.568 6.8zm-57.922-8.956l36.85 1.62m-39.145-5.94l42.518 1.485"/></g><g class="G"><path d="M772.455 799.725c-.742-.515-2.262.24-1.42 1.606l5.604 5.804.817-2.192-5-5.218z" class="L"/><path d="M872.206 797.544l-34.598-121.372 30.416 123.057m-5.704.337l-24.713-122.383 19 123.057m-19-122.382l13.687 121.372" stroke-width="1.319"/></g><g class="L"><path d="M769.436 763.41l14.82 7.922c-.154 1.867-1.636 1.965-3.322 1.79l-13.544-8.688c.018-1.336 1.014-1.205 2.044-1.022z" class="C I"/><g class="G"><path d="M769.2 582.982l63.46-40.933m1.374.275l62.9 41.207m-111.376 49.196c-5.12 16.64-13 24.4-23.3 24.476m87.8-4.64l-12.9-50.25 9.422 50.6m-3.84 1.046l-5.932-50.948m-15.354 50.25l12.9-50.25-9.422 50.6m3.84 1.046l5.932-50.948m-29.256 189.705c31.176 9.033 67.658 8.15 88.4-2.252m-88.4 10.98c30.78 9.033 67.36 7.305 86.992-4.786m-88.118 13.793c30.082 9.033 66.397 6.46 85.584-5.63"/><path d="M802.35 818.47c30.082 9.033 60.766 8.713 79.954-3.378M785.17 800.04c.802-.415 2.212.53 1.2 1.776l-6.306 5.03-.527-2.28 5.632-4.53z"/></g><path d="M780.11 797.92l.845 27.6h-7.883l2.815-26.464 4.223-1.126z" class="C I"/><path d="M804.885 793.697l-46.452-2.534m106.85-11.747l-3.063 9.897m16.966-25.45l-8.72 27.57" class="G"/></g></g><g transform="matrix(.837527 0 0 .837527 56.65767 50.100872)" class="B"><g class="C E"><path d="M297.25 428.128a36.55 36.55 0 0 1-54.829 31.662 36.55 36.55 0 0 1 0-63.325 36.55 36.55 0 0 1 54.829 31.662z" stroke-width="1.194"/><path d="M246.664 463.26c-5.497-2.4.665 4.543-11.11-6.91.944-3.75 3.433-7.427 2.61-11.47-4.074-4.023.104 8.52-4.878 6.274-2.043-3.43-.54-8.888 1.02-12.508 1.626-3.943 5.144-6.68 7.502-9.44-.765-2.71-2.145.073-1.958.877-1.8 1.3-4.427 2.122-3.754-1.504-.82-5.1 2.362-9.678 6.246-11.885 3.812-.906 1.568-3.426 4.413-6.28 4.004-2.213 8.116.7 11.94 1.98 3.475.87 7.21.384 10.323-1.64 4.133-3.01 3.957-.03 7.245 3.03 2.575 2.512 6.37 2.88 8.57 6 2.38 2.91 2.538 7.267 1.923 10.944-1.28 2.765-4.472-5.357-4.835-2.088 1.85 3.38 4.695 5.95 6.53 9.388 2.278 3.17 3.398 8.068 1.497 11.728-2.03 2.978-5.075 1.18-3.47-2.307.53-1.487-.375-6.295-.922-2.57-.745 3.544-1.263 7.802 1.417 10.477-5.845 9.03-3.563 11.872-13.417 15.187-2.26-1.38-2.768-6.902-5.47-7.282h-21.424z" class="M"/></g><path d="M251.57 420.84l14.48-.242c3.41 2.247 6.82 3.068 10.232 2.085 3.46.967 4.75 2.946 4.748 5.527 2.037 6.98.714 7.52.953 11.053.454 5.9.046 7.462 0 11.053-.754 15.51-5.627 17.206-8.996 23.95-9.038 3.02-16.322 2.116-23.064 0-2.86-7.24-7.772-11.476-8.237-22.107-.233-5.333-.745-8.666 0-14.738.228-3.445.564-6.97 1.647-11.053 3.707-4.638 5.93-4.963 8.237-5.527z" class="C M X"/><path d="M258.056 450.525s-1.697 2.814-.034 3.752 5.04.97 6.687 0-.102-3.877-.102-3.877" class="G M"/><path d="M247.664 438.02c.128.956 1.33 1.628 2.548 1.62l4.1-.03c1.24-.01 2.125.037 2.426-.366.547-.733-1.953-2.718-3.898-2.64l-3.2.13c-.977.04-2.09.448-1.977 1.285z" class="C M Y"/><path d="M253.59 438.027a1.15 1.15 0 0 1-.581.997 1.17 1.17 0 0 1-1.162 0 1.15 1.15 0 0 1 0-1.993 1.17 1.17 0 0 1 1.162 0 1.15 1.15 0 0 1 .581.997z" class="AH"/><path d="M275.333 437.964c-.128.956-1.33 1.628-2.55 1.62l-4.1-.03c-1.24-.01-2.125.037-2.426-.366-.547-.733 1.953-2.718 3.898-2.64l3.2.13c.977.04 2.09.448 1.977 1.285z" class="C M Y"/><path d="M269.405 437.972a1.15 1.15 0 0 0 .581.997 1.17 1.17 0 0 0 1.162 0 1.15 1.15 0 0 0 0-1.993 1.17 1.17 0 0 0-1.162 0 1.15 1.15 0 0 0-.581.997z" class="AH"/><path d="M246.533 434.494c5.307.166 12.14-.166 13.178 3.256-.937-1.7.546-3.3-3.678-5.398h-9.577c-.435.714-1.416 1.428.077 2.142zm30.827-.012c-5.307.166-12.14-.166-13.178 3.256.937-1.7-.546-3.3 3.678-5.398h9.577c.435.714 1.416 1.428-.077 2.142z" class="C E M"/><path d="M265.968 434.814c-2.142 1.923-2.96 5.622-3.065 10.28" class="G M"/><g class="C"><path d="M257.38 463.456c2.56.572 5.185.827 7.852 0 1.378-.428.838-1.498 0-1.823-2.15-.832-5.397-.868-7.852 0-.946.334-.8 1.642 0 1.823z" class="M X"/><path d="M281.197 449.8c-1.026 2.5-3.153 4.195-3.77 6.955-.872 2.665-2.458 4.84-3.806 7.17-1.3.997-2.198 5.244-4 3.19-1.37-2.256-.915-5.5-2.806-7.5-1.194-2.093-3.164-3.418-5.338-2.533-2.326-.15-4.814.104-6.765 1.497-1.996.204-2.423 8.137-2.766 10.063-.252 1.38-3.64-5.097-5.712-6.89-2.21-1.168-3.063-9.342-5.275-10.437-1.826-.614.805 8.845-.81 7.974-1.215 2.723 1.71 4.373 3.508 5.127 1.84 1.836 3.627 3.91 4.75 6.462.765 2.39 2.138 4.242 3.824 5.785 1.538 1.815 3.607 1.868 5.595 2.2 1.77 1.268 3.62 1.914 5.726 1.312 1.783-.377 3.202-1.828 4.748-2.845 1.902-1.342 2.922-3.798 4.815-5.163 1.988-1.54 4.037-3.142 5.164-5.7 1.47-2.254.892-5.478 2.613-7.647 1.598-1.684 2.254-4.223 2-6.687.15-1.227-.35-2.96-1.688-2.33zm-18.38 9.356c2.095-.402 2.7 2.343 3.204 4.15.735 1.906 2.71 4.103 1.356 6.266-1.605 1.632-4.482.843-6.044-.006-.074-1.032-.27-4.206-1.422-2.565.647 2.072-.22 4.905-2.48 3.71-2.425.24-4.025-2.26-3.177-4.905-.056-2.518.442-5.408 2.866-6.11 1.85-.505 3.8-.2 5.697-.538z" stroke-width="1.48" class="E"/></g></g><g class="B C"><g class="E"><path d="M119.532 409.358a31.29 31.29 0 0 1-46.939 27.106 31.29 31.29 0 0 1 0-54.212 31.29 31.29 0 0 1 46.939 27.106z"/><path d="M77.132 439.483c-4.604-2.01.557-.63-9.304-10.22-.93-2.272 2.23-.275-1.9.082-1.71-2.873-.452-7.444.854-10.476 1.375-5.03 1.423-5.24 1.5-8.43-.687-4.27 1.22-11.52 4.472-13.37 3.192-.76 2.072.546 4.455-1.845 3.354-1.853 9.833-2.828 13.037-1.758 2.91.73 1.106 2.22 3.713.525 3.462-2.522 8.627-.404 11.38 2.158 2.157 2.104 1.92 4.308 3.762 6.922 1.994 2.437 2.126 6.086 1.6 9.166.47-.686 3.083 4.016 1.42 6.113 1.908 2.655 2.846 6.757 1.254 9.822-2.4-3.888-1.343 2.67-2.49 4.7-4.895 7.563-2.225 1.215-10.478 3.99-1.893-1.155-3.077 2.947-5.34 2.63H77.132z" class="N"/></g><path d="M81.24 403.956l12.127-.203c2.856 1.882 5.713 2.57 8.57 1.746 2.898.8 3.978 2.468 3.976 4.63 1.706 5.846.598 6.3.798 9.257.38 4.94.04 6.25 0 9.257-.632 12.99-4.713 14.41-7.534 20.058-7.57 2.53-13.67 1.773-19.316 0-2.396-6.064-6.51-9.61-6.9-18.515-.195-4.467-.624-7.258 0-12.343.19-2.885.473-5.838 1.38-9.257 3.105-3.885 4.968-4.157 6.9-4.63z" class="N X"/></g><path d="M86.674 428.816s-1.422 2.357-.03 3.142 4.222.812 5.6 0-.086-3.247-.086-3.247" class="B G N"/><path d="M77.97 418.342c.107.8 1.114 1.363 2.134 1.356l3.442-.025c1.038-.007 1.78.03 2.032-.306.458-.614-1.635-2.276-3.265-2.2l-2.688.11c-.82.033-1.75.375-1.656 1.076z" class="B C N Y"/><path d="M82.934 418.35a.96.96 0 0 1-.487.835.98.98 0 0 1-.973 0 .96.96 0 0 1 0-1.67.98.98 0 0 1 .973 0 .96.96 0 0 1 .487.835z" class="B AI"/><path d="M101.144 418.296c-.107.8-1.114 1.363-2.134 1.356l-3.442-.025c-1.038-.007-1.78.03-2.032-.306-.458-.614 1.635-2.276 3.265-2.2l2.688.11c.82.033 1.75.375 1.656 1.076z" class="B C N Y"/><path d="M96.18 418.303a.96.96 0 0 0 .487.835.98.98 0 0 0 .973 0 .96.96 0 0 0 0-1.67.98.98 0 0 0-.973 0 .96.96 0 0 0-.487.835z" class="B AI"/><path d="M77.023 415.4c4.445.14 10.168-.14 11.037 2.727-.785-1.424.457-2.755-3.08-4.52h-8.02c-.364.598-1.186 1.196.064 1.794zm25.82-.02c-4.445.14-10.168-.14-11.037 2.727.784-1.424-.457-2.755 3.08-4.52h8.02c.364.598 1.186 1.196-.064 1.794z" class="C E N B"/><path d="M93.3 415.658c-1.794 1.61-2.48 4.71-2.567 8.61" class="B G N"/><g class="C B"><path d="M86.107 439.646c2.144.48 4.343.693 6.576 0 1.154-.358.702-1.255 0-1.527-1.8-.697-4.52-.727-6.576 0-.793.28-.68 1.375 0 1.527z" class="N X"/><path d="M106.814 428.2c-.86 2.093-2.64 3.513-3.157 5.825-.73 2.232-3.537 4.053-4.666 6.005-1.097.835-1.84 4.392-3.358 2.67-1.148-1.89.712-4.607-.872-6.28-1-1.753-2.65-2.863-4.47-2.122-1.948-.125-4.032.087-5.666 1.254-1.672.17-2.03 6.815-2.317 8.428-.21 1.156-3.05-4.27-4.784-5.77-1.85-.98-2.565-7.824-4.418-8.74-1.53-.514.675 7.408-.677 6.678-1.018 2.28 1.433 3.663 2.938 4.294 1.54 1.538 2.635 4.078 3.575 6.217.64 2-.36 1.133 1.054 2.425 1.29 1.52 4.094.223 5.76.5 1.482 1.062 3.033 1.603 4.796 1.1 1.493-.315 6.573-.855 7.867-1.707 1.593-1.124 1.106-2.376 2.69-3.52 1.665-1.29.832-1.156 1.776-3.3 1.23-1.888 2.226-4.588 3.667-6.405 1.34-1.41 1.888-3.537 1.675-5.6.125-1.028-.294-2.478-1.413-1.953zm-15.395 7.836c1.755-.337 2.26 1.963 2.683 3.475.615 1.596 2.27 3.436 1.135 5.248-1.344 1.367-3.754.706-5.062-.005-.062-.865-.226-3.523-1.19-2.148.542 1.736-.185 4.108-2.076 3.108-2.03.2-3.37-1.894-2.66-4.108-.047-2.11.37-4.53 2.4-5.118 1.548-.423 3.183-.167 4.77-.45z" stroke-width="1.24" class="E"/><path d="M523.125 620.47l-3.406-.687-6.187-1.875-6.062-2.156-6.062-2.125-6.22-1.906c-2.11-.55-4.232-.992-6.47-1.312s-4.556-.5-6.97-.5a49.08 49.08 0 0 0-6.969.5 59.47 59.47 0 0 0-6.531 1.313l-6.187 1.906-6.094 2.125-6.03 2.156-6.22 1.875c-2.11.55-4.263.992-6.5 1.313s-4.556.53-6.97.53a47.16 47.16 0 0 1-1.812-.031c-.01 0-.02 0-.03 0l-1.656.03c-2.413 0-4.636-.21-6.687-.53a41.96 41.96 0 0 1-5.75-1.312l-5.22-1.875-5.03-2.156-2.03-.875-3.594-1.25-6.187-1.906c-2.11-.55-4.263-.992-6.5-1.312l-3.406-.375-1.75-.094-2.094-.03-1.5.03-1.75.094-3.28.375c-2.15.32-4.164.764-6.125 1.313l-5.72 1.906-5.5 2.125-5.47 2.156-5.687 1.875c-1.96.55-4.007.992-6.156 1.313-1.9.283-3.927.4-6.03.438l-.062-.125-4.22.22c-2.413 0-4.732-.21-6.97-.53a58.91 58.91 0 0 1-6.5-1.312l-6.187-1.875-6.062-2.156-6.094-2.125L289 611.72c-2.11-.55-4.263-.992-6.5-1.312s-4.556-.5-6.97-.5-4.7.18-6.937.5a59.47 59.47 0 0 0-6.531 1.313l-6.187 1.906-6.094 2.125-6.062 2.156-6.187 1.875c-2.11.55-4.294.992-6.53 1.313s-4.525.53-6.937.53-4.732-.21-6.97-.53a59.47 59.47 0 0 1-6.531-1.312l-6.187-1.875-6.062-2.156-6.03-2.125-6.22-1.906c-2.11-.55-4.294-.992-6.53-1.312a48.63 48.63 0 0 0-6.937-.5 49.08 49.08 0 0 0-6.969.5 59.47 59.47 0 0 0-6.531 1.313l-6.187 1.906-6.062 2.125-6.062 2.156-6.22 1.875c-2.11.55-4.232.992-6.47 1.313s-4.587.53-7 .53-4.7-.21-6.937-.53a59.47 59.47 0 0 1-6.531-1.312l-6.187-1.875-6.094-2.156-6.062-2.125-6.187-1.906c-2.11-.55-4.263-.992-6.5-1.312s-4.556-.5-6.97-.5a46.41 46.41 0 0 0-6.844.5c-2.15.32-4.164.764-6.125 1.313s-3.84 1.22-5.687 1.906l-5.47 2.125-5.5 2.156-5.687 1.875c-1.96.55-3.976.992-6.125 1.313-1.098.163-2.326.18-3.5.25v15.406l3.5-.25c2.15-.32 4.164-.795 6.125-1.344s3.84-1.19 5.688-1.875 3.69-1.425 5.5-2.156l5.47-2.156a72.1 72.1 0 0 1 5.688-1.844 49.76 49.76 0 0 1 6.125-1.312c2.15-.32 4.43-.53 6.844-.53s4.732.21 6.97.53 4.39.764 6.5 1.313a90.82 90.82 0 0 1 6.188 1.844l6.063 2.156 6.094 2.156 6.188 1.875s4.294 1.024 6.53 1.344 4.525.47 6.938.47 4.763-.15 7-.47 4.357-.795 6.47-1.344 4.183-1.19 6.22-1.875 4.052-1.425 6.063-2.156l6.063-2.156a90.83 90.83 0 0 1 6.188-1.844c2.11-.55 4.294-.992 6.53-1.312s4.556-.53 6.97-.53 4.73.21 7 .53 4.495.764 6.656 1.313 4.255 1.158 6.344 1.844 4.168 1.425 6.22 2.156c4.102 1.463 8.15 2.934 12.313 4.03 2.08.55 4.163 1.024 6.313 1.344s4.373.47 6.625.47c2.413 0 4.7-.15 6.938-.47s4.42-.795 6.53-1.344 4.15-1.19 6.188-1.875 4.052-1.425 6.063-2.156l6.094-2.156a90.83 90.83 0 0 1 6.188-1.844c2.11-.55 4.294-.992 6.53-1.312s4.525-.53 6.938-.53 4.732.21 6.97.53 4.39.764 6.5 1.313 4.152 1.158 6.188 1.844 4.083 1.425 6.094 2.156l6.063 2.156c2.036.686 4.076 1.326 6.188 1.875s4.263 1.024 6.5 1.344c.932.133 1.913.234 2.875.313-.038-.095-.088-.186-.125-.28 2.09.186 4.178.347 6.406.406 1.638-.07 3.22-.214 4.78-.437 2.237-.32 4.39-.795 6.5-1.344s4.183-1.19 6.22-1.875 4.052-1.425 6.063-2.156l6.063-2.156a90.84 90.84 0 0 1 6.188-1.844 59.46 59.46 0 0 1 6.531-1.312c1.772-.254 3.593-.44 5.47-.5l1.5-.03c.603 0 1.165.008 1.75.03 1.883.06 3.728.246 5.5.5 2.237.32 4.39.764 6.5 1.313s4.15 1.158 6.188 1.844 4.083 1.425 6.094 2.156l6.03 2.156c2.036.686 4.107 1.326 6.22 1.875s4.263 1.024 6.5 1.344c1.56.223 3.144.368 4.78.438 2.3-.033 4.503-.123 6.625-.312 2.14-.19 4.19-.482 6.188-.812.02-.003.043.003.063 0a72.29 72.29 0 0 0 2.781-.656c2.11-.55 4.183-1.19 6.22-1.875s4.02-1.425 6.03-2.156l6.094-2.156a90.83 90.83 0 0 1 6.188-1.844c2.11-.55 4.294-.992 6.53-1.312s4.556-.53 6.97-.53 4.73.21 7 .53 4.463.764 6.625 1.313 4.286 1.158 6.375 1.844 4.136 1.425 6.188 2.156c4.102 1.463 8.18 2.934 12.344 4.03.932.246 1.898.385 2.844.594v-15.28z" class="Q"/></g><g class="R Z"><path d="M63.268 619.345c-.4-4.018-2.03-7.915-4.655-9.3l-20.768 2.1c-4.588 3.764-3.326 16.666 1.862 19.352l20.953-2.12c2.223-1.876 3.02-6.016 2.608-10.034zm-5.806.587c.196 1.917-.3 3.9-1.604 4.82l-12.383 1.253c-2.953-1.233-3.558-7.38-.885-9.224l12.28-1.242c1.494.636 2.397 2.477 2.594 4.395zm41.224-5.428c-.67-3.984-2.536-7.768-5.244-8.98l-20.6 3.437c-4.336 4.052-2.245 16.846 3.104 19.192l20.773-3.467c2.098-2.015 2.625-6.198 1.956-10.182zm-5.756.96c.32 1.9-.057 3.912-1.3 4.913l-12.277 2.05c-3.027-1.04-4.026-7.135-1.477-9.148l12.174-2.032c1.532.538 2.552 2.318 2.87 4.218z" class="C"/><path d="M76.9 621.396v-.002c1.7-.156 2.997-1.5 2.88-3.022s-1.594-2.653-3.308-2.546v-.002l-19.496 1.502c-1.736.134-3.048 1.5-2.93 3.028s1.623 2.677 3.358 2.543l.03-.004v.001l19.466-1.5zm-34.84 3.01v-.002c1.287-.024 2.326-1.265 2.326-2.8s-1.04-2.768-2.326-2.792h0-14.66c-1.305 0-2.364 1.252-2.364 2.794s1.06 2.794 2.364 2.794l.023-.001v.001H42.05z" class="D"/><path d="M131.372 602.5c-1.768-3.63-4.63-6.732-7.57-7.127l-18.775 9.13c-3.013 5.114 2.6 16.793 8.405 17.528l18.943-9.2c1.442-2.527.765-6.688-1.003-10.32zm-5.25 2.552c.844 1.732 1.052 3.77.152 5.078l-11.195 5.443c-3.197-.14-5.88-5.703-4.004-8.356l11.1-5.397c1.62.082 3.103 1.5 3.947 3.232zm10.003-29.82c-2.22.944-4.14 2.188-4.877 3.88l.127.64 3.26 19.452.12.675c2.017 2.096 6.2 2.613 10.17 1.938s7.76-2.543 8.967-5.254l-.106-.57-3.367-20.02c-1.366-1.46-3.784-1.976-6.397-2.095l.362 6.115c.668.237 1.333.514 1.742 1.03l.047.318 1.95 11.52.047.318c-.535 1.534-2.3 2.58-4.2 2.903s-3.924-.05-4.926-1.284l-2.018-11.92-.035-.384c.266-.778.865-1.424 1.643-1.9l-2.522-5.363z" class="C"/><path d="M144.24 597.893v-.002c1.46-.902 2.016-2.678 1.233-4s-2.608-1.665-4.095-.805l-.001-.002-16.787 10.036c-1.494.893-2.065 2.693-1.275 4.017s2.644 1.673 4.14.78l.026-.017v.001l16.76-10.02zM112.163 615.3v-.002c1.693-.286 2.874-1.723 2.642-3.232s-1.8-2.524-3.492-2.287v-.002l-19.326 2.98c-1.72.265-2.926 1.718-2.7 3.242s1.82 2.546 3.542 2.28l.03-.006v.001l19.296-2.976z" class="D"/></g><path d="M25.313 368.954l.312 362.24c3.847 108.357 86.787 207.326 192.7 230.2 97.983 23.87 207.672-19.027 262.977-103.62 33.122-47.31 45.32-105.86 42.59-162.852V368.954H25.313z" stroke-width="3" class="B G"/></g><defs ><path id="B" d="M3613.783 1143.324c-3.134 5.464-7.257 10.737-14.062 15.655l-60.133-62.664c6.57-9.398 8.38-14.17 7.836-25.014-2.07-41.23-88.01-93.988-199.128-112.533-110.838-18.498-299.394-119.1-356.21-99.125l22.025-36.33c21.567 1.276 75 34.328 103.18 40.94l44.91 16.17 113.008 41.913c18.322 6.406 36.067 12.197 52.67 16.997 8.3 2.4 16.354 4.558 24.032 6.39s15.002 3.385 21.93 4.54c13.9 2.318 27.35 5.193 40.32 8.607s25.48 7.376 37.31 11.675 23.008 8.94 33.47 13.9 20.165 10.244 29.035 15.675 16.895 11.016 23.95 16.695 13.17 11.452 18.183 17.168 8.917 11.41 11.665 16.952c1.374 2.77 2.495 5.525 3.26 8.212a34.78 34.78 0 0 1 1.319 7.854c.272 5.422-.046 9.33-1.244 13.05s-3.307 7.264-6.592 11.964l49.265 51.296z"/><path id="C" d="M3613.783 1143.324l-49.265-51.296c3.285-4.7 5.394-8.244 6.592-11.964s1.517-7.628 1.244-13.05a34.78 34.78 0 0 0-1.319-7.854c-.766-2.687-1.887-5.442-3.26-8.212-2.748-5.54-6.652-11.235-11.665-16.952s-11.13-11.49-18.183-17.168-15.08-11.264-23.95-16.695-18.573-10.705-29.035-15.675-21.64-9.612-33.47-13.9-24.337-8.26-37.31-11.675-26.43-6.29-40.32-8.607c-6.927-1.156-14.252-2.708-21.93-4.54s-15.73-3.99-24.032-6.39c-16.6-4.8-34.347-10.59-52.67-16.997-36.645-12.812-75.636-27.975-113.008-41.913l-44.91-16.17c88.112 20.676 198.86 60.24 271.157 73.768 118.33 22.14 232.052 93.256 232.33 165.256.063 14.8-.124 28.062-6.998 40.045z"/><path id="D" d="M247.38 83.322c.012 3.793-1.962 7.28-5.178 9.145s-7.184 1.826-10.408-.104-5.213-5.456-5.216-9.25c-.012-3.793 1.962-7.28 5.178-9.145s7.184-1.826 10.408.104 5.213 5.456 5.216 9.25z"/><path id="E" d="M345.73 1.4c-5.852 0-10.596 4.725-10.596 10.553S339.88 22.53 345.73 22.53s10.61-4.738 10.61-10.567S351.582 1.4 345.73 1.4z"/><path id="F" d="M325.883 14.077c-5.852 0-10.596 4.725-10.596 10.553s4.744 10.567 10.596 10.567 10.61-4.738 10.61-10.567-4.757-10.553-10.61-10.553z"/><path id="G" d="M304.744 26.48c-5.852 0-10.61 4.725-10.61 10.553s4.757 10.567 10.61 10.567 10.596-4.738 10.596-10.567-4.744-10.553-10.596-10.553z"/><path id="H" d="M262.058 46.643c-5.852 0-10.61 4.725-10.61 10.553s4.757 10.553 10.61 10.553 10.596-4.725 10.596-10.553-4.744-10.553-10.596-10.553z"/><path id="I" d="M240.392 57.617c-5.852 0-10.61 4.738-10.61 10.567s4.757 10.553 10.61 10.553 10.596-4.725 10.596-10.553-4.744-10.567-10.596-10.567z"/><path id="J" d="M219.24 70.81c-5.852 0-10.61 4.725-10.61 10.553s4.757 10.553 10.61 10.553 10.596-4.725 10.596-10.553S225.09 70.81 219.24 70.81z"/><path id="K" d="M371.438-6.812c-6.233.084-12.28 1.885-12.28 5.625-97.228 79.468-146.623 65.593-172.562 117.03 11.17 15.273.058 38.155 12.22 69l10.938 1.406c-.462-23.088-3.48-47.54 13.97-60.875 8.276-43.992 73.14-50.505 147.53-113.437l.188-18.75z"/><path id="L" d="M2040.53-9.342c.317 5.403.422 12.813-1.84 16.998-2.796 5.172-2.643 5.525-6.07 9.05l-14.872-31.75c2.137-2.283 3.36-.53 3.402-7.108.1-15.848-25.088-22.134-46.926-27.7-27.042-6.892-61.908-44.24-73.06-30.866 3.707-7.764 11.538-8.445 21.34-6.034.248.137.45.19.7.33 3.476 1.95 7.187 4.197 11 6.586l11.7 7.358c3.972 2.444 7.97 4.802 11.92 6.917s7.873 3.97 11.626 5.372c1.876.7 3.688 1.278 5.482 1.73s3.573.767 5.26.92c3.427.3 6.8.88 10.08 1.656s6.444 1.77 9.492 2.943 5.957 2.508 8.683 4 5.266 3.164 7.58 4.93 4.405 3.667 6.218 5.63 3.377 3.98 4.6 6.07 2.106 4.248 2.65 6.402.74 4.326.515 6.475c-.802 11.374-1.38 5.222-5.092 8.83l9.84 16.3c1.376-1.57 2.477-3.43 3.348-5.52s1.535-4.385 2.024-6.733c.192-.924.26-1.86.405-2.796z"/><path id="M" d="M2040.53-9.342l-.405 2.796c-.488 2.348-1.153 4.644-2.024 6.733s-1.972 3.95-3.348 5.52l-10.357-17.093c5.435 1.43 6.372-9.208 5.096-14.51-.543-2.154-1.427-4.3-2.65-6.402s-2.787-4.108-4.6-6.07-3.904-3.863-6.218-5.63-4.854-3.427-7.58-4.93-5.634-2.838-8.683-4-6.2-2.17-9.492-2.943-6.654-1.345-10.08-1.656c-1.688-.153-3.468-.47-5.26-.92s-3.605-1.028-5.482-1.73c-3.753-1.402-7.675-3.256-11.626-5.372s-7.95-4.473-11.92-6.917l-11.7-7.358c-3.813-2.39-7.524-4.636-11-6.586-.25-.14-.452-.194-.7-.33 17.433 4.29 41.127 18.51 59.307 21.045 27.792 3.873 63.655 19.345 58.72 55.96-.016.12-.007.282 0 .405z"/><path id="N" d="M2918.68-231.67a25.27 25.27 0 0 1-37.915 21.909 25.27 25.27 0 0 1 0-43.818 25.27 25.27 0 0 1 37.915 21.909z"/><path id="O" d="M286.648 86.72c.005 4.47-2.214 8.602-5.82 10.838a10.96 10.96 0 0 1-11.656 0c-3.606-2.236-5.825-6.37-5.82-10.838-.005-4.47 2.214-8.602 5.82-10.838a10.96 10.96 0 0 1 11.656 0c3.606 2.236 5.825 6.37 5.82 10.838z"/><path id="P" d="M2259.22-21.284l13.513-10.7c38.725-10.032 73.253 26.827 73.025 42.666 9.68-8.806 19.36-5.788 29.038-5.28-5.725 18.92-.138 33.015-6.864 53.325 8.97 2.785 15.99 6.738 17.95 13.727l8.975-5.808 11.087-.528c2.122 52.753-15.08 41.16-11.615 60.716l18.48-22.703 20.063 2.112c9.82 1.864 12.627 13.462 23.23 14.783-7.483 10.116-12.04 27.91-19.007 40.126-8.556 6.212-16.075 5.173-23.23 1.584 23.334 8.588 29.45 28.737 38.542 39.598-9.56.528-18.142 1.584-22.175 2.112 14.738 21.028 23.153 37.86 37.486 49.63l-8.448 1.584-43.82-21.647L2378.492 196l-45.405-70.22-1.584-110.873c-23.15-11.794-19.606-39.16-72.283-36.2z"/><path id="Q" d="M2257.836-20.617c63.056 6.588 63.01 95.73 75.585 148.407l40.318 68.266c25.497 24.64 41.98 55.3 57.75 58.904 15.276 3.5 14.218-3.02 29.758.658-30.425-13.526-16.494-44.747-79.72-63.685 20.446-11.327 20.445 19.878 61.394 10.996-11.23-28.088-35.37-29.443-46.274-39.86 16.707-5.397 18.54 5.343 30.697.458 13.5-5.423 10.385-26.335 21.075-40.318-13.993-6.173-25.368-24.565-42.61-15.578-5.992 4.97-14.814 21.736-24.74 25.657-4.177-22.38 9.867-24.388 12.83-35.737 2.934-11.245-1.755-14.662.916-30.697-45.422 16.762-28.28 47.084-49.03 60.37-.213-32.214 8.898-18.514 25.665-53.954-6.33-9.42-10.793-7.643-16.036-10.538 8.33-18 .795-28.962 9.62-54.063-16.68-5.572-22.356 3.466-27.032 9.163-1.695-15.593-38.16-65.957-80.167-38.448z"/><path id="R" d="M2348.03 39.813c-13.442 30.094-12.093 60.188-11.112 90.282m32.64-15.973c-2.704 15.12-12.25 23.4-22.223 31.252m69.448-9.028c-23.958 1.778-25.712 17.052-61.114 22.223m6.945 9.723c17.158 3.445 34.12 7.087 45.836 15.973m-36.807 5.556c23.37 28.198 42.978 30.734 50.002 45.14"/><path id="S" d="M2069.063 730.688c.224.008.43.094.656.094 12.76 0 23.094-12.766 23.094-28.5s-10.335-28.5-23.094-28.5c-.225 0-.432.086-.656.094v56.813z"/><path id="T" d="M2066.286 668.732h6.95v66.53h-6.95c-2.458-25.7-2.862-50.125 0-66.53z"/><path id="U" d="M3203.825 1424.687c0 16.272-13.19 29.463-29.463 29.463s-29.463-13.19-29.463-29.463 13.19-29.463 29.463-29.463 29.463 13.19 29.463 29.463z"/><path id="V" d="M3153.87 1446.208c10.772 4.058 21.975 5.422 35.22 4.384-.747 7.614-7.853 4.525-6.792 11.03s-27.318 4.332-24.724-2.545-5.077-5.295-3.705-12.87z"/><path id="W" d="M1807.794 703.17c0 18.437-13.782 33.384-30.783 33.384s-30.783-14.946-30.783-33.384 13.782-33.384 30.783-33.384 30.783 14.946 30.783 33.384z"/><path id="X" d="M1810.395 703.17c0 18.437-13.472 33.384-30.09 33.384s-30.09-14.946-30.09-33.384 13.472-33.384 30.09-33.384 30.09 14.946 30.09 33.384z"/><path id="Y" d="M1807.62 703.17c0 15.947-11.92 28.875-26.62 28.875s-26.62-12.928-26.62-28.875 11.92-28.875 26.62-28.875 26.62 12.928 26.62 28.875z"/><path id="Z" d="M2485.233-95.278l11.52-4.942c34.563-5.265 51.2 33.927 54.428 56.04 13.283-4.463 30.967-9.576 50.873-4.77-4.993 21.105-1.248 24.198-9.14 52.065 19.665 3.835 20.27 10.422 25.834 14.308-24 19.994-59.526 25.64-61.206 50.873l38.552-6.757c18.415-15.235 18.265-45.167 55.244-45.706 3.84 43.714-20.93 30.607-30.206 62 29.278 2.385 90.045-2.076 87.835 7.154-27.16 17.734-25.226 23.34-39.347 32.988l-9.14.795c-9.232-4.17-14.687-18.917-28.616-9.936-.001 0 7.697 5.73 29.41 14.705 21.036 8.696 17.1 31.795 17.1 31.795-30.985 4.8-43.3-3.593-56.834-11.128 36.392 26.298 26.453 43.16 46.898 64.386l-5.167-.397c-41.173 2.097-62.115-15.727-89.027-25.04 3.505 11.1-14.967 30.072-20.27 41.334h-3.974l-23.052-54.052c-2.888 7.312-7.28 5.602-11.128 7.154l-24.64-66.373c-16.183-5.513-13.598-17.283-14.705-27.82 3.78.467 3.842-1.298 12.32 1.987l-11.128-27.82-1.987-19.475c4.462 3.016 12.75.93 11.526 11.526 3.02 12.1 7.547 21.206 11.526 31.398l13.116-43.72-24.64-75.514 13.9-5.564c-5.25-17.168 21.44-36.617-15.87-51.495z"/><path id="a" d="M2483.464-94.74c35.63-12.752 57.504 21.597 59.308 50.034 17.088-4.87 34.218-9.218 52.216-3.165-10.992 24.11-.948 37.544-13.186 55.38 21.613 1.835 16.767 6.632 28.482 11.076-33.123 28.566-62.148 22.564-64.347 53.8 53.51-16.48 32.026-29.108 56.963-43.777 11.482-6.978 25.28-11.64 43.25-12.13 3.894 46.68-25.425 32.157-33.23 61.7 26.957-3.66 30.53-19.008 46.752-21.425s31.333 15.412 48.714 26.172c-31.156 12.186-34.468 37.355-49.906 35.17-14.214-1.735-15.948-12.717-32.9-5.105 15.023 13.4 40.8 11.435 47.997 40.613-37.247 12.563-63.258-16.926-100.213-17.933 90.783 25.053 57.734 52.673 90.192 72.786-24.847-2.767-45.2 4.395-91.247-22.152 1.293 12.654-15.446 22.542-23.207 38.503-4.803-25.18-29.58-37.667-24.79-77.006-9.42 1.128 5.442 28.68-10.02 29.536-13.065-11.267-14.007-26.456-14.24-36.92-7.56-9.142 2.848 16.595-29.01-24.262-2.817-4.24 1.736-30.704 5.274-32.7 2.6 6.58 5.058 13.442 11.076 13.186-2.102-9.734-4.318-19.39-10.55-26.372-3.305-2.083-2.756-20.07-1.055-31.646 11.324 13.9 3.373 35.375 22.152 39.03-1.12-35.234-31.164-24.405-14.24-58.018-2.285-18.11-2.798-75.552 9.494-53.27-1.063-30.3 12.948-51.707-9.73-61.1z"/><path id="b" d="M2515.243 74.655c-15.628-89.02 10.802-115.664-7.006-158.6m58.445 70.377c-33.827 29.41-41.894 58.82-44.514 88.232m32.6 27.82c43.182 2.933 63.327-17.898 108.104-19.077m-111.284 7.95c34.864-4.957 43.856-24.44 54.847-39.744m-50.078 59.616c28.658.68 53.223 8.826 65.975 18.282m-78.694 5.564c28.69 32.747 46.907 30.587 69.95 44.514m-75.514-45.308c-4.252 25.578 5.817 42.192 8.744 54.847m-31.795-59.616c-3.143 4.54-5.335 10.033-6.36 16.693m-3.974-32.6c-13.095 5.147-11.494-1.485-26.23 1.6m26.23-21.462c-5.3-.84-10.6-3.465-15.898-12.718m21.462-3.18c-3.918-22.834-8.42-46.546-20.667-81.873"/><path id="c" d="M2030.156 670.594c-6 1.755-10.687 15.383-10.687 31.906s4.678 30.12 10.687 31.875l.25.063c.352.083.703.125 1.063.125l10.844-.023v-18.352c.738-4.16 1.156-8.78 1.156-13.687s-.418-9.558-1.156-13.72v-18.18l-12.156-.01z"/><path id="d" d="M2053.802 702.676c.013 11.42-2.273 21.987-5.994 27.707s-8.31 5.72-12.03 0-6.007-16.287-5.994-27.707c-.013-11.42 2.273-21.987 5.994-27.707s8.31-5.72 12.03 0 6.007 16.287 5.994 27.707z"/><path id="e" d="M2042.955 674.4c25.152 7.78 23.558 49.664 0 57.98-16.346-3.472-14.067-57.72 0-57.98z"/><path id="f" d="M361.123 561.688c-3.084-2.026-4.51-5.054-4.22-8.955.7-9.353 11.95-12.25 17.777-4.58 2.957 3.893 1.677 10.57-2.57 13.407-3.117 2.082-7.926 2.138-10.988.127z"/><path id="g" d="M366.43 530.203c-3.176-2.088-4.646-5.2-4.345-9.23.72-9.64 12.307-12.627 18.307-4.72 3.045 4.013 1.727 10.895-2.646 13.82-3.2 2.146-8.163 2.204-11.316.13z"/></defs></svg>