<svg xmlns="http://www.w3.org/2000/svg" xmlns:xlink="http://www.w3.org/1999/xlink" width="750.002" height="500" xmlns:v="https://vecta.io/nano"><style><![CDATA[.B{stroke:#000}.C{fill-rule:evenodd}.D{stroke-linejoin:round}.E{fill:#e3e4e5}.F{fill:none}.G{stroke-width:.07}.H{stroke-width:1.039}.I{fill:#eac102}.J{fill:#ed1c24}.K{fill:#0071bc}.L{fill:#008f4c}.M{stroke-width:.211}.N{stroke-width:.824}.O{stroke-width:1.064}]]></style><g transform="matrix(3.125009 0 0 3.125009 -149.55397 -1427.0304)"><path d="M47.857 456.648h240v53.333h-240z" fill="#00ab39"/><path d="M47.857 563.315h240v53.333h-240z"/><path d="M47.857 509.982h240v53.333h-240z" fill="#fff"/><g transform="matrix(.077228 0 0 .077228 84.359267 501.43552)" class="B"><g stroke-width=".91" class="C"><path d="M406.21 206.042l90.376 15.203H643.55l87.842-16.048-75.172-19.427H484.76l-78.55 20.27z" class="J"/><g class="I"><path d="M455.07 82.188l-21.375 25.063-33.906-5.906-20.656 19.188-31.687-5.906c12.874 35.1 33.587 55.538 42.75 92.906l93.625-20.656h171.78l93.625 20.656c9.163-37.368 29.876-57.797 42.75-92.906l-31.72 5.906-20.625-19.187-33.906 5.906-21.375-25.062-25.812 19.906-32.437-17.687-28.75 11.78-20.656-7.906v-5.344l-7 2.688-7-2.687v5.344l-20.625 7.906-28.78-11.78-32.406 17.688-25.812-19.906z"/><g class="D"><path d="M739.656 200.063a8.5 8.5 0 0 0-1.437.156c-110.296 19.064-222.882 16.663-337.125-.03a8.5 8.5 0 0 0-9.406 11.612 8.5 8.5 0 0 0 6.969 5.2c115.593 16.89 230.024 19.404 342.47-.03 4.444-.662 7.606-4.668 7.217-9.144s-4.194-7.877-8.686-7.762z"/><path d="M569.45 173.156c-66.37-.002-132.605 9.17-179.563 27.53a8.5 8.5 0 1 0 6.188 15.812c87.132-34.07 259.204-34.086 347.688.03a8.51 8.51 0 0 0 11-4.875 8.51 8.51 0 0 0-4.875-11c-47.558-18.337-114.067-27.498-180.437-27.5zm-.242-62.656c-76.776 0-153.288 11.015-207.125 33.75a6.5 6.5 0 1 0 5.062 11.969c51.126-21.6 126.548-32.72 202.063-32.72s151.293 11.14 203.188 32.75a6.5 6.5 0 1 0 5-12c-54.547-22.715-131.4-33.75-208.187-33.75zm.488-136.594l-.47.78c-5.787 8.952-29.377 9.427-30.312 21.97-1.024 13.73 22.794 16.477 18.063 24.5-4.468 7.575-10.437-14.895-26.03-10.594-15.8 3.86-2.4 20.493-16.22 29.688 12.098 6.106 9.696 29.633 24.813 23.594 8.77-6.417 18.06-15.874 24.5-8.47 1.523 6.848.098 14.06-2.687 21.438-6.746 6.04-13.44 8.982-19.875 9.28-7.355.342-15.186-2.545-23.78-10.72-1.643-1.558-3.9-2.297-6.156-2a7.49 7.49 0 0 0-5.406 3.531c-4.404 7.228-11.847 13.76-19.312 15.25s-16.1-.535-26.906-14.437c-.023-.03-.04-.064-.062-.094-2.638-6.024-2.094-11.843-1.594-15.656 13.77-5.508 18.102 14.64 30.97 8.094 13.797-7.02 2.417-22.58 16.5-30.687-9.96-3.043-8.965-31.585-21.97-28.344-13.084 3.262-13.288 28.624-25.656 22.688-8.424-5.758 12.625-10.645 12.156-26.687-.386-13.2-24.635-3.573-28.562-20.375-4.03 15.115-29.04 13.232-25.9 29.658 2.626 13.783 21.616 17.4 16.813 23.656-7.664 7.738-21.52-14.474-28.812-10.75s-2.45 31.3-10.28 35.78c11.44 2.96 16.98 22.75 29.156 16.75 12.303-6.062 10.36-20.155 21.28-16.75.764 6.775 2.68 12.97 1.563 20.688-3.935 8.26-19.627 21.65-42.656 4.875a7.52 7.52 0 0 0-7.594-.75 7.5 7.5 0 0 0-4.312 6.28c-.677 9.538-7.27 15.34-15.875 16.594-8.3 1.2-18.227-2.027-25.594-13.937 1.105-2.344 2.977-4.402 6.25-6.03 5.104-1.9 10.187 2.397 18.75 1.813 9.66-1.93-2.2-20.657 5.438-29.906-13.53-3.227-11.646-20.38-33.03-15.375-11.058 8.397-1.204 20.852-7.53 21.594-6.288.737-4.97-15.1-13.53-21.312-8.767-6.363-30.4-8.9-27.562 16.375 24.684-6.605 27.848 17.9 36.406 34.563-.128 1.468.18 2.995.97 4.375 10.017 17.543 26.875 24.832 41.594 22.688 11.178-1.63 21.224-8.836 25.938-19.406 23.296 11.534 45.018 2.713 53.97-11.656 10.776 9.313 22.358 12.454 32.625 10.406 10.1-2.015 18.224-8.098 24.22-15.28 8.96 6.54 18.573 9.947 28.188 9.5 9.836-.458 19.132-4.684 27.438-11.594 8.298 6.9 17.57 11.136 27.406 11.594 9.613.447 19.228-2.962 28.188-9.5 5.995 7.2 14.112 13.265 24.22 15.28 10.267 2.048 21.85-1.093 32.625-10.406 8.95 14.37 30.673 23.2 53.97 11.656 4.713 10.57 14.76 17.778 25.938 19.406 14.72 2.145 31.577-5.144 41.594-22.687a7.46 7.46 0 0 0 1.188-4.375c8.563-16.674 11.747-41.17 36.438-34.562 2.847-25.285-18.796-22.738-27.562-16.375-8.56 6.213-7.243 22.05-13.53 21.313-6.327-.742 3.495-13.196-7.562-21.594-21.385-5.004-19.5 12.148-33.03 15.375 7.627 9.25-4.192 27.977 5.47 29.906 8.563.585 13.615-3.724 18.72-1.812 3.188 1.587 5.07 3.574 6.188 5.844-7.378 12.06-17.377 15.34-25.72 14.125-8.606-1.254-15.23-7.056-15.906-16.594-.2-2.723-1.837-5.13-4.312-6.28a7.52 7.52 0 0 0-7.594.75c-22.434 16.34-37.9 4.063-42.312-4.22-1.326-8.02.652-14.38 1.438-21.344 10.92-3.405 8.98 10.688 21.28 16.75 12.175 6 17.748-13.8 29.188-16.75-7.832-4.48-2.988-32.057-10.28-35.78s-21.148 18.488-28.812 10.75c-4.804-6.255 14.186-9.874 16.813-23.656 3.13-16.426-21.88-14.542-25.906-29.656C693.8 3.458 669.52-6.158 669.134 7.03c-.47 16.043 20.6 20.93 12.188 26.688-12.37 5.937-12.572-19.426-25.656-22.687-13.004-3.24-12 25.3-21.97 28.344 14.083 8.106 2.703 23.668 16.5 30.688 12.866 6.546 17.167-13.602 30.938-8.094.487 3.713 1.063 9.333-1.344 15.188-.176.185-.373.357-.53.563-10.817 13.903-19.44 15.926-26.906 14.438s-14.9-8.022-19.312-15.25a7.49 7.49 0 0 0-5.406-3.531c-2.245-.297-4.513.442-6.156 2-8.595 8.174-16.395 11.06-23.75 10.72-6.357-.296-12.93-3.17-19.594-9.062-2.832-7.453-4.32-14.74-2.78-21.656 6.44-7.406 15.73 2.052 24.5 8.47 15.117 6.04 12.715-17.487 24.813-23.594-13.82-9.195-.45-25.827-16.25-29.687-15.594-4.3-21.563 18.17-26.03 10.594-4.732-8.023 19.117-10.77 18.094-24.5-.935-12.542-24.526-13.017-30.312-21.97l-.47-.78z"/></g></g><g class="E D"><use xlink:href="#B"/><use xlink:href="#B" x="347.2"/><use xlink:href="#B" x="230.473" y="-18.076"/><use xlink:href="#B" x="116.738" y="-18.076"/></g><g class="J"><use xlink:href="#B" x="173.6" y="-53.56" class="D"/><use xlink:href="#B" x="52.957" y="-39.78" class="D"/><path d="M679.43 49.686c0 6.03 4.9 10.92 10.92 10.92s10.92-4.9 10.92-10.92-4.9-10.92-10.92-10.92-10.92 4.9-10.92 10.92h0zM329.573 79.882c-4.103 1.572-7.063 5.472-7.062 10.125 0 6.028 4.9 10.938 10.938 10.938 1.644 0 3.163-.442 4.563-1.094-.013-.242.017-.476 0-.72-.172-2.395-.53-4.798-1.22-7.187-.345-1.195-.763-2.383-1.28-3.562a27.59 27.59 0 0 0-1.875-3.5c-.72-1.156-1.548-2.315-2.5-3.437-.454-.534-1.05-1.037-1.562-1.562zm480.267 0c4.103 1.572 7.063 5.472 7.063 10.125 0 6.028-4.9 10.938-10.937 10.938-1.644 0-3.163-.442-4.562-1.094.013-.242-.017-.476 0-.72.172-2.395.53-4.798 1.22-7.187.345-1.195.763-2.383 1.28-3.562a27.59 27.59 0 0 1 1.875-3.5c.72-1.156 1.548-2.315 2.5-3.437.454-.534 1.05-1.037 1.563-1.562z" class="D"/><path d="M540.494 148.15l29.212 16.912 29.212-16.912-29.212-16.912-29.212 16.912zM374 168.813l.37 14.744 12.9 11.058 17.324-25.065-30.594-.737z"/></g><g class="D I"><use xlink:href="#C"/><use xlink:href="#C" x="9.952" y="21.01"/><use xlink:href="#D"/><use xlink:href="#D" x="1.34" y="24.3"/></g><rect width="49.025" height="26.171" rx="9.584" x="475.132" y="208.624" transform="matrix(.991724 -.128386 .128386 .991724 -55.804 0)" class="D L"/><path d="M765.015 168.813l-.37 14.744-12.9 11.058-17.324-25.065 30.594-.737z" class="J"/><g class="D I"><use xlink:href="#E"/><use xlink:href="#E" x="-9.953" y="21.01"/><use xlink:href="#F"/><use xlink:href="#F" x="-1.338" y="24.3"/></g><rect width="49.025" height="26.171" rx="9.584" x="-765.133" y="48.063" transform="matrix(-.991724 -.128386 -.128386 .991724 -55.804 0)" class="D L"/></g><path d="M569.696-26.094l-.47.78c-5.787 8.952-29.377 9.427-30.312 21.97-1.024 13.73 22.794 16.477 18.063 24.5-4.468 7.575-10.437-14.895-26.03-10.594-15.8 3.86-2.4 20.493-16.22 29.688 12.098 6.106 9.696 29.633 24.813 23.594 8.77-6.417 18.06-15.874 24.5-8.47 1.523 6.848.098 14.06-2.687 21.438-6.746 6.04-13.44 8.982-19.875 9.28-6.343.295-13.044-1.827-20.28-7.656 1.6-1.9 2.563-4.354 2.563-7.03 0-6.028-4.91-10.937-10.937-10.937s-10.906 4.91-10.906 10.938c0 2.878 1.116 5.486 2.938 7.438-4.483 6.428-11.24 11.958-18.03 13.313-7.465 1.49-16.09-.535-26.906-14.437-.023-.03-.04-.064-.062-.094-2.638-6.024-2.094-11.843-1.594-15.656 13.77-5.508 18.102 14.64 30.97 8.094 13.797-7.02 2.417-22.58 16.5-30.687-9.96-3.043-8.965-31.585-21.97-28.344-13.084 3.262-13.288 28.624-25.656 22.688-8.424-5.758 12.625-10.645 12.156-26.687-.386-13.19-24.635-3.573-28.562-20.375C437.67 1.77 412.66-.113 415.8 16.313c2.626 13.783 21.616 17.4 16.813 23.656-7.664 7.738-21.52-14.474-28.812-10.75s-2.45 31.3-10.28 35.78c11.44 2.96 16.98 22.75 29.156 16.75 12.303-6.062 10.36-20.155 21.28-16.75.764 6.775 2.68 12.97 1.563 20.688-3.726 7.82-18.005 20.228-39.062 7.28.372-1.1.563-2.276.563-3.5 0-6.028-4.878-10.937-10.906-10.937s-10.938 4.91-10.937 10.938c0 3.998 2.167 7.472 5.375 9.375-1.64 7.9-7.725 12.715-15.47 13.844-8.3 1.21-18.227-2.027-25.594-13.937 1.105-2.344 2.977-4.402 6.25-6.03 5.104-1.91 10.187 2.397 18.75 1.813 9.66-1.93-2.19-20.657 5.438-29.906-13.53-3.227-11.646-20.38-33.03-15.375-11.058 8.397-1.204 20.852-7.53 21.594-6.288.737-4.97-15.1-13.53-21.312-8.767-6.363-30.41-8.9-27.562 16.375 16.006-4.283 22.94 4.523 28.188 15.78-2.407 1.982-3.938 4.95-3.937 8.313 0 6.028 4.91 10.938 10.938 10.938.422 0 .814-.008 1.22-.062-.042 1.34.254 2.717.97 3.97 3.877 6.8 8.75 12.047 14.156 15.813 3.538 8.63 7.498 16.437 11.594 23.906-1.837.975-3.125 2.783-3.406 4.875-.315 2.348.69 4.685 2.594 6.094s4.41 1.676 6.563.688l.656-.28 7.125 12.906-.937-.03.375 14.75 11.656 10c.886 2.497 1.722 5.067 2.5 7.72-2.272 1.233-3.873 3.46-4.312 6.063-.523 3.096.702 6.207 3.188 8.125s5.825 2.322 8.688 1.03c.073-.03.145-.065.22-.094.743.307 1.52.508 2.344.594 115.593 16.89 230.024 19.404 342.47-.03.752-.112 1.49-.335 2.156-.625l.5.188a8.51 8.51 0 0 0 11-4.875c1.547-4.008-.16-8.472-3.812-10.5a145.8 145.8 0 0 1 2.656-8.156l11.03-9.437.375-14.75h-.5c2.302-4.346 4.686-8.616 7.094-12.875l.78.313a6.49 6.49 0 0 0 6.5-.781 6.53 6.53 0 0 0 2.531-6.062c-.28-2.09-1.57-3.867-3.406-4.844 4.135-7.54 8.156-15.426 11.72-24.156 5.258-3.746 10.025-8.93 13.813-15.562.78-1.202 1.137-2.585 1.156-3.97.415.057.818.063 1.25.063 6.028 0 10.938-4.91 10.938-10.937 0-3.364-1.53-6.33-3.937-8.312 5.255-11.256 12.21-20.065 28.22-15.78 2.847-25.285-18.796-22.738-27.563-16.375-8.56 6.213-7.243 22.05-13.53 21.313-6.327-.742 3.495-13.196-7.562-21.594-21.385-5.004-19.5 12.148-33.03 15.375 7.627 9.25-4.192 27.977 5.47 29.906 8.563.585 13.615-3.724 18.72-1.812 3.188 1.587 5.07 3.574 6.187 5.844-7.378 12.06-17.377 15.34-25.72 14.125-7.693-1.12-13.807-5.88-15.5-13.687 3.337-1.87 5.594-5.437 5.594-9.53 0-6.028-4.91-10.937-10.937-10.937s-10.906 4.91-10.906 10.938a10.87 10.87 0 0 0 .531 3.375c-20.6 12.79-34.71 1.356-38.906-6.5-1.326-8.02.652-14.38 1.438-21.344 10.92-3.405 8.98 10.688 21.28 16.75 12.175 6 17.748-13.79 29.188-16.75-7.832-4.48-2.988-32.057-10.28-35.78s-21.148 18.488-28.812 10.75c-4.804-6.255 14.186-9.874 16.813-23.656 3.13-16.426-21.88-14.542-25.906-29.656C693.8 3.458 669.52-6.158 669.134 7.03c-.47 16.043 20.61 20.93 12.188 26.688-12.37 5.937-12.572-19.426-25.656-22.687-13.004-3.24-12.01 25.3-21.97 28.344 14.083 8.106 2.703 23.668 16.5 30.688 12.866 6.546 17.167-13.602 30.938-8.094.487 3.713 1.063 9.333-1.344 15.188-.176.185-.373.357-.53.563-10.817 13.903-19.44 15.926-26.906 14.438C645.62 90.813 638.9 85.358 634.415 79a10.87 10.87 0 0 0 3.063-7.594c0-6.028-4.878-10.937-10.906-10.937s-10.938 4.91-10.937 10.938c0 2.628.95 5.02 2.5 6.906-7.29 5.926-14.017 8.08-20.406 7.78-6.358-.296-12.93-3.17-19.594-9.062-2.832-7.453-4.32-14.74-2.78-21.656 6.44-7.406 15.73 2.052 24.5 8.47 15.117 6.04 12.715-17.487 24.813-23.594-13.82-9.195-.45-25.827-16.25-29.687-15.594-4.3-21.563 18.17-26.03 10.594-4.732-8.023 19.117-10.77 18.094-24.5-.935-12.542-24.526-13.017-30.312-21.97l-.47-.78z" stroke-width="2.731" class="F"/></g><path d="M119.223 560.663l.246.156c-.08-.053-.14-.104-.237-.152zm14.154 1.742c-.01 0-.017.004-.026.004-.136 0-.262-.018-.378-.048a1.65 1.65 0 0 1-.316-.121c-.097-.048-.185-.1-.264-.154l-.213-.15-.297-.193c-.075-.04-.13-.06-.178-.06s-.102.02-.178.06-.173.103-.3.193l-.213.15c-.08.053-.167.106-.264.154a1.65 1.65 0 0 1-.316.121c-.116.03-.242.048-.378.048a1.49 1.49 0 0 1-.376-.048 1.67 1.67 0 0 1-.319-.121 2.05 2.05 0 0 1-.26-.154l-.213-.15-.3-.193c-.076-.04-.13-.06-.178-.06s-.102.02-.178.06-.173.103-.3.193l-.213.15a2.55 2.55 0 0 1-.26.154 1.67 1.67 0 0 1-.319.121 1.48 1.48 0 0 1-.376.048 1.49 1.49 0 0 1-.376-.048 1.67 1.67 0 0 1-.319-.121 2.05 2.05 0 0 1-.26-.154l-.213-.15-.3-.193c-.076-.04-.13-.06-.178-.06s-.102.02-.178.06-.173.103-.3.193l-.213.15c-.08.053-.167.106-.264.154a1.65 1.65 0 0 1-.316.121c-.116.03-.242.048-.378.048a1.49 1.49 0 0 1-.376-.048 1.67 1.67 0 0 1-.319-.121 2.05 2.05 0 0 1-.26-.154l-.213-.15-.3-.193c-.076-.04-.13-.06-.178-.06s-.102.02-.178.06c-.038.02-.1.064-.15.097 1.584.68 3.267 1.133 5.006 1.28 2.314.243 4.656-.026 6.87-.714zm1.795-.66a.4.4 0 0 0-.176-.059c-.047 0-.102.02-.178.06s-.173.103-.3.193l-.213.15.866-.343z" class="B C G K"/><path d="M136.426 561.142c-.07-.04-.15-.1-.26-.17-.126-.09-.282-.21-.475-.305-.096-.048-.203-.09-.32-.12s-.24-.048-.376-.048-.26.018-.376.048-.222.073-.32.12c-.193.096-.348.215-.474.305l-.3.193c-.076.04-.13.057-.178.057s-.102-.017-.178-.057a2.7 2.7 0 0 1-.299-.193c-.126-.09-.282-.21-.475-.305-.096-.048-.203-.09-.32-.12s-.24-.048-.376-.048-.262.018-.378.048-.22.073-.316.12-.184.1-.264.154l-.213.152-.3.193c-.076.04-.13.057-.178.057s-.102-.017-.178-.057-.173-.103-.3-.193-.282-.21-.475-.305c-.096-.048-.203-.09-.32-.12s-.24-.048-.376-.048-.26.018-.376.048-.222.073-.32.12c-.193.096-.348.215-.475.305l-.3.193c-.076.04-.13.057-.178.057s-.102-.017-.178-.057a2.7 2.7 0 0 1-.299-.193c-.126-.09-.282-.21-.475-.305-.096-.048-.203-.09-.32-.12s-.24-.048-.376-.048-.262.018-.378.048-.22.073-.316.12-.184.1-.264.154l-.213.152-.3.193c-.076.04-.13.057-.178.057s-.102-.017-.178-.057-.173-.103-.3-.193-.282-.21-.475-.305c-.096-.048-.203-.09-.32-.12s-.24-.048-.376-.048-.26.018-.376.048-.222.073-.32.12c-.193.096-.348.215-.475.305l-.3.193a.39.39 0 0 1-.16.051l1.3.624.15-.097c.076-.04.13-.06.178-.06s.102.02.178.06.173.103.3.193l.213.15c.08.053.165.106.26.154a1.67 1.67 0 0 0 .319.121c.115.03.24.048.376.048s.262-.018.378-.048a1.65 1.65 0 0 0 .316-.121c.097-.048.184-.1.264-.154l.213-.15.3-.193c.076-.04.13-.06.178-.06s.102.02.178.06a2.78 2.78 0 0 1 .299.193l.213.15c.08.053.165.106.26.154a1.67 1.67 0 0 0 .319.121c.115.03.24.048.376.048s.26-.018.376-.048a1.67 1.67 0 0 0 .319-.121c.096-.048.183-.1.26-.154l.213-.15.3-.193c.076-.04.13-.06.178-.06s.102.02.178.06.173.103.3.193l.213.15c.08.053.165.106.26.154a1.67 1.67 0 0 0 .319.121c.115.03.24.048.376.048s.262-.018.378-.048a1.65 1.65 0 0 0 .316-.121c.097-.048.184-.1.264-.154l.213-.15.3-.193c.076-.04.13-.06.178-.06s.102.02.178.06.17.103.297.193l.213.15c.08.053.167.106.264.154a1.65 1.65 0 0 0 .316.121c.116.03.242.048.378.048.01 0 .017-.004.026-.004l.923-.314.22-.154.3-.193c.076-.04.13-.06.178-.06a.4.4 0 0 1 .176.059l1.254-.602z" class="B C E G"/><path d="M138.91 559.565l-.145-.103-.3-.193c-.076-.04-.13-.057-.178-.057s-.102.017-.178.057-.173.103-.3.193-.282.21-.475.305c-.096.048-.203.1-.32.12s-.24.048-.376.048-.26-.018-.376-.048-.222-.073-.32-.12c-.193-.096-.348-.215-.475-.305l-.3-.193c-.076-.04-.13-.057-.178-.057s-.102.017-.178.057a2.7 2.7 0 0 0-.299.193c-.126.09-.282.21-.475.305-.096.048-.203.1-.32.12s-.24.048-.376.048-.262-.018-.378-.048-.22-.073-.316-.12-.185-.1-.264-.154l-.213-.152-.297-.193c-.075-.04-.13-.057-.178-.057s-.102.017-.178.057-.173.103-.3.193l-.213.152c-.08.053-.167.106-.264.154s-.2.1-.316.12-.242.048-.378.048-.26-.018-.376-.048-.222-.073-.32-.12c-.193-.096-.348-.215-.475-.305l-.3-.193c-.076-.04-.13-.057-.178-.057s-.102.017-.178.057-.173.103-.3.193-.282.21-.475.305c-.096.048-.203.1-.32.12s-.24.048-.376.048-.26-.018-.376-.048-.222-.073-.32-.12c-.193-.096-.348-.215-.475-.305l-.3-.193c-.076-.04-.13-.057-.178-.057s-.102.017-.178.057-.173.103-.3.193l-.213.152c-.08.053-.167.106-.264.154s-.2.1-.316.12-.242.048-.378.048-.26-.018-.376-.048-.222-.073-.32-.12c-.193-.096-.348-.215-.474-.305l-.3-.193c-.076-.04-.13-.057-.178-.057s-.102.017-.178.057a2.7 2.7 0 0 0-.299.193c-.126.09-.282.21-.474.305-.096.048-.203.1-.32.12s-.24.048-.376.048-.26-.018-.376-.048-.222-.073-.32-.12c-.193-.096-.348-.215-.474-.305l-.3-.193c-.076-.04-.13-.057-.178-.057s-.102.017-.178.057-.173.103-.3.193l-.3.193 1.46 1.008c.105.052.167.103.246.156l.732.398a.39.39 0 0 0 .16-.051 2.7 2.7 0 0 0 .299-.193c.126-.09.282-.21.475-.305.096-.048.203-.09.32-.12s.24-.048.376-.048.26.018.376.048.222.073.32.12c.193.096.348.215.475.305l.3.193c.076.04.13.057.178.057s.102-.017.178-.057a2.7 2.7 0 0 0 .299-.193l.213-.152c.08-.053.167-.106.264-.154s.2-.09.316-.12.242-.048.378-.048.26.018.376.048.222.073.32.12c.193.096.348.215.475.305l.3.193c.076.04.13.057.178.057s.102-.017.178-.057a2.7 2.7 0 0 0 .299-.193c.126-.09.282-.21.475-.305.096-.048.203-.09.32-.12s.24-.048.376-.048.26.018.376.048.222.073.32.12c.193.096.348.215.475.305l.3.193c.076.04.13.057.178.057s.102-.017.178-.057a2.7 2.7 0 0 0 .299-.193l.213-.152c.08-.053.167-.106.264-.154s.2-.09.316-.12.242-.048.378-.048.26.018.376.048.222.073.32.12c.193.096.348.215.475.305l.3.193c.076.04.13.057.178.057s.102-.017.178-.057a2.7 2.7 0 0 0 .299-.193c.126-.09.282-.21.474-.305.096-.048.203-.09.32-.12s.24-.048.376-.048.26.018.376.048.222.073.32.12c.193.096.348.215.475.305l.26.17c.868-.457 1.7-.984 2.482-1.577z" class="B C G K"/><path d="M139.917 558.743c-.044-.003-.092-.016-.16-.053-.076-.04-.173-.103-.3-.193l-.213-.152c-.08-.053-.167-.106-.264-.154s-.2-.09-.316-.12-.242-.048-.378-.048-.26.018-.376.048-.222.073-.32.12c-.193.096-.348.215-.475.305l-.3.193c-.076.04-.13.06-.178.06s-.102-.02-.178-.06-.173-.103-.3-.193-.282-.21-.475-.305c-.096-.048-.203-.09-.32-.12s-.24-.048-.376-.048-.26.018-.376.048-.222.073-.32.12c-.193.096-.348.215-.474.305l-.3.193c-.076.04-.13.06-.178.06s-.102-.02-.178-.06-.173-.103-.3-.193-.282-.21-.475-.305c-.096-.048-.203-.09-.32-.12s-.24-.048-.376-.048-.262.018-.378.048-.22.073-.316.12-.184.1-.264.154l-.213.152-.3.193c-.076.04-.13.06-.178.06s-.102-.02-.178-.06-.173-.103-.3-.193-.282-.21-.475-.305c-.096-.048-.203-.09-.32-.12s-.24-.048-.376-.048-.26.018-.376.048-.222.073-.32.12c-.193.096-.348.215-.475.305l-.3.193c-.076.04-.13.06-.178.06s-.102-.02-.178-.06-.173-.103-.3-.193-.282-.21-.475-.305c-.096-.048-.203-.09-.32-.12s-.24-.048-.376-.048-.262.018-.378.048-.22.073-.316.12-.184.1-.264.154l-.213.152-.3.193c-.076.04-.13.06-.178.06s-.102-.02-.178-.06-.173-.103-.3-.193-.282-.21-.475-.305c-.096-.048-.203-.09-.32-.12s-.24-.048-.376-.048-.26.018-.376.048-.222.073-.32.12c-.193.096-.348.215-.475.305l-.3.193c-.076.04-.13.06-.178.06s-.102-.02-.178-.06-.173-.103-.3-.193-.282-.21-.474-.305c-.096-.048-.203-.09-.32-.12s-.24-.048-.376-.048-.262.018-.378.048-.22.073-.316.12-.184.1-.264.154l-.213.152-.297.193c-.075.04-.13.06-.178.06s-.102-.02-.178-.06-.173-.103-.3-.193l-.108-.077a18.33 18.33 0 0 0 1.454 1.235l.598-.387c.076-.04.13-.057.178-.057s.102.017.178.057.173.103.3.193.282.21.474.305c.096.048.203.1.32.12s.24.048.376.048.26-.018.376-.048.222-.073.32-.12c.193-.096.348-.215.474-.305l.3-.193c.076-.04.13-.057.178-.057s.102.017.178.057.173.103.3.193.282.21.474.305c.096.048.203.1.32.12s.24.048.376.048.262-.018.378-.048.22-.073.316-.12.184-.1.264-.154l.213-.152.3-.193c.076-.04.13-.057.178-.057s.102.017.178.057a2.7 2.7 0 0 1 .299.193c.126.09.282.21.475.305.096.048.203.1.32.12s.24.048.376.048.26-.018.376-.048.222-.073.32-.12c.193-.096.348-.215.475-.305l.3-.193c.076-.04.13-.057.178-.057s.102.017.178.057.173.103.3.193.282.21.475.305c.096.048.203.1.32.12s.24.048.376.048.262-.018.378-.048.22-.073.316-.12.184-.1.264-.154l.213-.152.3-.193c.076-.04.13-.057.178-.057s.102.017.178.057.17.103.297.193l.213.152c.08.053.167.106.264.154s.2.1.316.12.242.048.378.048.26-.018.376-.048.222-.073.32-.12c.193-.096.348-.215.475-.305l.3-.193c.076-.04.13-.057.178-.057s.102.017.178.057.173.103.3.193.282.21.475.305c.096.048.203.1.32.12s.24.048.376.048.26-.018.376-.048.222-.073.32-.12c.193-.096.348-.215.475-.305l.3-.193c.076-.04.13-.057.178-.057s.102.017.178.057.173.103.3.193l.145.103 1.008-.822z" class="B C E G"/><path d="M141.8 556.814l-.03-.02c-.076-.04-.13-.06-.178-.06s-.102.02-.178.06-.173.103-.3.193l-.213.15a2.55 2.55 0 0 1-.26.154 1.67 1.67 0 0 1-.319.121 1.48 1.48 0 0 1-.376.048c-.136 0-.262-.018-.378-.048a1.65 1.65 0 0 1-.316-.121c-.097-.048-.184-.1-.264-.154l-.213-.15-.3-.193c-.076-.04-.13-.06-.178-.06s-.102.02-.178.06-.173.103-.3.193l-.213.15a2.55 2.55 0 0 1-.26.154 1.67 1.67 0 0 1-.319.121 1.48 1.48 0 0 1-.376.048 1.49 1.49 0 0 1-.376-.048 1.67 1.67 0 0 1-.319-.121 2.05 2.05 0 0 1-.26-.154l-.213-.15-.3-.193c-.076-.04-.13-.06-.178-.06s-.102.02-.178.06a2.78 2.78 0 0 0-.299.193l-.213.15a2.55 2.55 0 0 1-.26.154 1.67 1.67 0 0 1-.319.121 1.48 1.48 0 0 1-.376.048c-.136 0-.262-.018-.378-.048a1.65 1.65 0 0 1-.316-.121c-.097-.048-.185-.1-.264-.154l-.213-.15-.297-.193c-.075-.04-.13-.06-.178-.06s-.102.02-.178.06-.173.103-.3.193l-.213.15c-.08.053-.167.106-.264.154a1.65 1.65 0 0 1-.316.121c-.116.03-.242.048-.378.048a1.49 1.49 0 0 1-.376-.048 1.67 1.67 0 0 1-.319-.121 2.32 2.32 0 0 1-.261-.154l-.213-.15-.3-.193c-.076-.04-.13-.06-.178-.06s-.102.02-.178.06-.173.103-.3.193l-.213.15a2.32 2.32 0 0 1-.261.154 1.67 1.67 0 0 1-.319.121 1.48 1.48 0 0 1-.376.048 1.49 1.49 0 0 1-.376-.048 1.67 1.67 0 0 1-.319-.121 2.05 2.05 0 0 1-.26-.154l-.213-.15-.3-.193c-.076-.04-.13-.06-.178-.06s-.102.02-.178.06-.173.103-.3.193l-.213.15c-.08.053-.167.106-.264.154a1.65 1.65 0 0 1-.316.121c-.116.03-.242.048-.378.048a1.49 1.49 0 0 1-.376-.048 1.67 1.67 0 0 1-.319-.121 2.32 2.32 0 0 1-.261-.154l-.213-.15-.3-.193c-.076-.04-.13-.06-.178-.06s-.102.02-.178.06a2.78 2.78 0 0 0-.299.193l-.213.15a2.55 2.55 0 0 1-.26.154 1.67 1.67 0 0 1-.319.121 1.48 1.48 0 0 1-.376.048 1.49 1.49 0 0 1-.376-.048 1.67 1.67 0 0 1-.319-.121c-.096-.048-.182-.1-.26-.154l-.213-.15-.3-.193c-.076-.04-.13-.06-.178-.06s-.102.02-.178.06-.173.103-.3.193l-.213.15a2.32 2.32 0 0 1-.261.154 1.67 1.67 0 0 1-.319.121 1.48 1.48 0 0 1-.376.048c-.136 0-.262-.018-.378-.048a1.65 1.65 0 0 1-.316-.121c-.097-.048-.184-.1-.264-.154l-.213-.15-.3-.193c-.076-.04-.13-.06-.178-.06s-.102.02-.178.06c-.05.027-.127.08-.198.127a18.02 18.02 0 0 0 1.44 1.498l.108.077.3.193c.076.04.13.06.178.06s.102-.02.178-.06.17-.103.297-.193l.213-.152c.08-.053.167-.106.264-.154a1.62 1.62 0 0 1 .316-.12c.116-.03.242-.048.378-.048a1.49 1.49 0 0 1 .376.048c.116.03.222.073.32.12.193.096.348.215.474.305l.3.193c.076.04.13.06.178.06s.102-.02.178-.06.173-.103.3-.193.282-.2.475-.305a1.61 1.61 0 0 1 .32-.12c.117-.03.24-.048.376-.048a1.49 1.49 0 0 1 .376.048c.116.03.222.073.32.12.193.096.348.215.475.305l.3.193c.076.04.13.06.178.06s.102-.02.178-.06.173-.103.3-.193l.213-.152c.08-.053.167-.106.264-.154a1.62 1.62 0 0 1 .316-.12c.116-.03.242-.048.378-.048a1.49 1.49 0 0 1 .376.048c.116.03.222.073.32.12.193.096.348.215.475.305l.3.193c.076.04.13.06.178.06s.102-.02.178-.06.173-.103.3-.193.282-.2.475-.305a1.61 1.61 0 0 1 .32-.12c.117-.03.24-.048.376-.048a1.49 1.49 0 0 1 .376.048c.116.03.222.073.32.12.193.096.348.215.475.305l.3.193c.076.04.13.06.178.06s.102-.02.178-.06.173-.103.3-.193l.213-.152c.08-.053.167-.106.264-.154a1.62 1.62 0 0 1 .316-.12c.116-.03.242-.048.378-.048a1.49 1.49 0 0 1 .376.048c.116.03.222.073.32.12.193.096.348.215.475.305l.3.193c.076.04.13.06.178.06s.102-.02.178-.06.173-.103.3-.193.282-.2.474-.305a1.61 1.61 0 0 1 .32-.12c.117-.03.24-.048.376-.048a1.49 1.49 0 0 1 .376.048c.116.03.222.073.32.12.193.096.348.215.475.305l.3.193c.076.04.13.06.178.06s.102-.02.178-.06.173-.103.3-.193.282-.2.475-.305a1.61 1.61 0 0 1 .32-.12c.117-.03.24-.048.376-.048s.262.018.378.048a1.66 1.66 0 0 1 .316.12 2.21 2.21 0 0 1 .264.154l.213.152.3.193a.4.4 0 0 0 .16.053 17 17 0 0 0 1.872-1.929zm-31.037-14.376l.053 4.934c.257 3.138 1.474 6.107 3.33 8.6.117-.085.247-.182.415-.266a1.61 1.61 0 0 1 .32-.12c.117-.03.24-.048.376-.048s.262.018.378.048a1.66 1.66 0 0 1 .316.12 2.21 2.21 0 0 1 .264.154l.213.152.3.193a.39.39 0 0 0 .178.057.39.39 0 0 0 .178-.057c.076-.04.17-.103.297-.193l.213-.152c.08-.053.167-.106.264-.154a1.62 1.62 0 0 1 .316-.12c.116-.03.242-.048.378-.048a1.49 1.49 0 0 1 .376.048c.116.03.222.073.32.12.193.096.348.215.474.305l.3.193a.39.39 0 0 0 .178.057.39.39 0 0 0 .178-.057 2.7 2.7 0 0 0 .299-.193c.126-.1.282-.2.475-.305a1.61 1.61 0 0 1 .32-.12c.117-.03.24-.048.376-.048a1.49 1.49 0 0 1 .376.048c.116.03.222.073.32.12.193.096.348.215.475.305l.3.193a.39.39 0 0 0 .178.057.39.39 0 0 0 .178-.057 2.7 2.7 0 0 0 .299-.193l.213-.152c.08-.053.167-.106.264-.154a1.62 1.62 0 0 1 .316-.12c.116-.03.242-.048.378-.048a1.49 1.49 0 0 1 .376.048c.116.03.222.073.32.12.193.096.348.215.475.305l.3.193a.39.39 0 0 0 .178.057.39.39 0 0 0 .178-.057 2.7 2.7 0 0 0 .299-.193c.126-.1.282-.2.475-.305a1.61 1.61 0 0 1 .32-.12c.117-.03.24-.048.376-.048a1.49 1.49 0 0 1 .376.048c.116.03.222.073.32.12.193.096.348.215.475.305l.3.193a.39.39 0 0 0 .178.057.39.39 0 0 0 .178-.057 2.7 2.7 0 0 0 .299-.193l.213-.152c.08-.053.167-.106.264-.154a1.62 1.62 0 0 1 .316-.12c.116-.03.242-.048.378-.048a1.49 1.49 0 0 1 .376.048c.116.03.222.073.32.12.193.096.348.215.475.305l.3.193a.39.39 0 0 0 .178.057.39.39 0 0 0 .178-.057 2.7 2.7 0 0 0 .299-.193c.126-.1.282-.2.474-.305a1.61 1.61 0 0 1 .32-.12c.117-.03.24-.048.376-.048a1.49 1.49 0 0 1 .376.048c.116.03.222.073.32.12.193.096.348.215.475.305l.3.193a.39.39 0 0 0 .178.057.39.39 0 0 0 .178-.057 2.7 2.7 0 0 0 .299-.193c.126-.1.282-.2.475-.305a1.61 1.61 0 0 1 .32-.12c.117-.03.24-.048.376-.048s.262.018.378.048a1.66 1.66 0 0 1 .316.12 2.21 2.21 0 0 1 .264.154l.213.152.3.193a.39.39 0 0 0 .178.057.39.39 0 0 0 .178-.057 2.7 2.7 0 0 0 .299-.193c.126-.1.282-.2.475-.305a1.61 1.61 0 0 1 .32-.12c.117-.03.24-.048.376-.048a1.49 1.49 0 0 1 .376.048c.116.03.222.073.32.12s.16.1.24.154l.68-1.037c2.34-3.618 2.788-8.04 2.58-12.247v-.15h-35.02z" class="K B C G"/><g class="M B"><path d="M128.25 521.097h-17.526l.03 21.342h17.497v-21.342z" class="C I"/><path d="M128.25 521.097v21.342h17.524v-21.342H128.25z" class="C J"/><g class="F"><path d="M110.736 521.096l.022 25.464c.27 7.617 6.1 14.574 13.546 16.183 6.888 1.678 14.6-1.338 18.486-7.284 2.328-3.326 3.186-7.442 2.994-11.448v-22.915h-35.05z"/><path d="M110.725 521.096l.08 26.277c.662 8.075 7.624 15.07 15.703 15.747 6.523.686 13.282-2.618 16.683-8.284 2.34-3.618 2.788-8.042 2.582-12.247v-21.492h-35.05z"/></g></g><g stroke-width=".059" class="C J B"><path d="M117.9 528.453c-1.054-.007-1.418-.857-1.625-1.388-.98.386-2.228-1.772-1.93-2.37-.23.282-.628.564-.44.847-.444-.207-.626-.152-.71 0-.365.497.4.926.203 1.388h-.44c.34.183.678.365.576.813.114.327-.2.655.474.982.1-.955.986-1.566.847-.27.494.1.667.1.904.6.438.176 1.478.83 1.567 1.5-1.044 1.334-1.946.54-2.8-.813-.233.478-.44.99-1.287.677.33.504.467.827.17 1.15.382.447.433.63.196.91-.26.304.218.748.55 1.055-.045-1.53 1.5-1.95 2.235.542.838-1.59 1.5-.513 2.2-.948.46-.092 1.942 1.664 1.117 1.862-3.664.878-1.495 1.858-1.287 3.352-.826.087-1.394.252-1.32.6-.348.272-.762.48-.677 1.185l3.08-.068c.453-.338-.055-.996-.372-1.59-.36-1.89.522-1.836 1.185-.745-.05-.536.018-.964.948-.6l2.054-.55c1.336-4.218-1.6-3.215-1.682-6.256.293.22.587.278.88.135-.287-.174-.523-.41-.677-.745.305.182.6.373.914.203-.413-.185-.482-.715-.542-1.253.526-.236.67-.953.847-1.625-.34.148-.677.25-1.016-.135.226-.125.45-.127.677-.677-.193-.002-.346.056-.71-.203.357-.225.522-.577.6-.982-.228.088-.444.188-.847.102-.038-.484-.483-.677-1.15-.71l.203-.677c-.822.8-1.956.144-2.032.78-.313.045-.97.1-1.456.135.073.37-.137.795.34 1.084.464-.505.823-.52 1.016.237.178.77-.5.457-1.016.372-.133.725.014 1.25 1.5.813.244.738-1.304.393-1.253 1.287z"/><path d="M120.744 535.767c1.325.464-.835 2.162 2.066 3.08.04.7-1.552.666-1.422 1.117l.372.237c-.366.764 1.3.507 2.066.7l1.727-1.6c-1.746-.845-2.596-2.103-1.998-4.03m-.407-.134c.725.157 1.368.037 1.558-1.6.05-2-1.867-3.06-1.558-5.215.057-.812.648-2.767 2.303-2.336 1.237.612-.1 2.333 1.693 3.048-.347-.068-.654.026-1.084-.372-.016.572.35.915.78 1.22-.727.065-1.8-.08-1.727-2.506.095-1.28-1.265-.32-1.422 1.15-.12 1.114 1.762 2.948 1.524 5.045-.085 1.723-.758 2.12-1.558 2.235m-7.79-11.243c1.152.236.732.973 1.326 1.143.755.216 1.172.547 1.654.923-1.464-.78-2.018-.087-2.37-.474s.07-1.14-.6-1.6zm3.092.097c-.2.158.082.28.245.284.233.005.427.245.543.508-.302-.152-.573-.26-.773-.27-.096-.12-.135-.218.015-.303"/><path d="M120.125 527.748c.167.195.32.482.4 1.14.153-.24.325-.468.176-.936m-.001-.672c.665.328.875.807 1.083 1.287.006-.443.168-.86-.263-1.375m-3.625 1.265c.145.432-.167.723-.34 1.057.478.088.86-.038 1.235-.185-.508.8-.908 1.07-1.654 1.354.233.2.558.352 1.16.436.03.4-.16.747-.3 1.1.826-.203 1.46-.64 1.914-1.296.156.52.352 1.03.926 1.42.05-.5.083-1.023.494-1.48"/><path d="M119.347 529.653c-.04.438-.17.76-.365 1.005.247.04.47.01.64-.183m.455-1.005c.33.34.632.708.73 1.28.168-.37.32-.742.183-1.188"/></g><g transform="matrix(.076378 0 0 .071426 209.80181 487.04162)" class="I"><g class="B C"><g stroke-width=".825"><use xlink:href="#G"/><path d="M-1213.798 951.453l35.47-.417m-50.076-141.258l65.517.2"/><path d="M-1208.8 849.005l.2 92.224m7.52-92.33l.417 92.433m7.303-92.85l.417 92.433m7.513-92.016l.417 92.433"/><use xlink:href="#H"/><use xlink:href="#I"/><use xlink:href="#J"/><use xlink:href="#K"/><use xlink:href="#L"/><use xlink:href="#M"/><path d="M-1211.71 838.155c-1.043 0 0 2.087 0 3.13v1.043"/><use xlink:href="#N"/><use xlink:href="#O"/><path d="M-1193.35 832.938c-.22 0 .496 1.777.626 2.295m-32.132-20.656c-.97 0 .6 1.846 1.043 2.712"/><use xlink:href="#G" x="256.276"/><path d="M-957.523 951.453l35.47-.417m-50.077-141.258l65.517.2"/><path d="M-952.516 849.005l.2 92.224m7.5-92.33l.417 92.433m7.303-92.85l.417 92.433m7.512-92.016l.417 92.433"/><use xlink:href="#H" x="256.273"/><use xlink:href="#I" x="256.274" y="-0.002"/><use xlink:href="#J" x="256.275"/><use xlink:href="#K" x="256.274"/><use xlink:href="#L" x="256.275"/><use xlink:href="#M" x="256.274"/><path d="M-955.437 838.155c-1.043 0 0 2.087 0 3.13v1.043"/><use xlink:href="#N" x="256.274" y="-0.001"/><use xlink:href="#O" x="256.274"/><path d="M-937.076 832.938c-.22 0 .496 1.777.626 2.295m-32.132-20.656c-.97 0 .6 1.846 1.043 2.712"/><path d="M-1175.8 858.48c-15.26 11.962-31.978 18.682-49.782 21.5-6.473 20.64-1.04 44.306 11.672 47.708l.173-9.264c20.96-4.05 29.347-10.863 38.232-18.623 4.01-19.883 3.294-36.614-.295-41.31z" class="E"/><path d="M-1213.78 918.29l-8.886 1.865"/><path d="M-958.865 858.48c15.586 9.468 30.764 19.867 49.782 21.5 6.473 20.64 1.04 44.306-11.672 47.708l-.173-8.3c-20.257-2.466-29.104-12.64-37.937-19.577-4.01-19.883-3.59-36.614 0-41.31z" class="E"/><path d="M-921.066 919.244l9.076.91"/></g><path d="M-1067.448 943.047c5.884-.136 18.467-2.138 24.08-7.452 9.14-8.187 20.527-5.506 35.47-.417 15.52 5.488 31.043 11.557 50.372 9.425l-.072-42.932c-13.282 2.068-36.15-3.2-54.843-11.538-15.706-6.812-24.1-6.852-36.77.8-6.457 5.266-12.913 7.71-18.237 8.26-5.324-.55-11.78-2.992-18.237-8.258-12.67-7.662-21.064-7.622-36.77-.8-18.693 8.348-41.266 13.605-54.547 11.538l-.072 42.932c19.33 2.132 34.557-3.937 50.076-9.425 14.943-5.09 26.33-7.77 35.47.417 5.612 5.314 18.196 7.316 24.08 7.452z" class="E N"/></g><text x="-1348.725" y="662.646" transform="matrix(.966043 -.204056 .198471 .993228 0 0)" xml:space="preserve" font-size="29.536" fill="#000"><tspan x="-1348.725" y="662.646" font-weight="bold">PLVS</tspan></text><text x="-1013.187" y="1026.396" transform="matrix(.861185 .228318 -.16495 1.117459 0 0)" xml:space="preserve" font-size="27.436" fill="#000" font-family="Franklin Gothic Medium"><tspan x="-1013.187" y="1026.396" font-weight="bold" font-family="Times New Roman">VLTRA</tspan></text><path d="M-1097.3 931.66v-45.44m55.476 0l1.18 46.032" class="B C N"/></g><path d="M142.514 555.872c-.08-.053-.142-.105-.24-.154s-.203-.09-.32-.12-.24-.048-.376-.048-.26.018-.376.048-.222.073-.32.12c-.193.096-.348.215-.475.305l-.3.193c-.076.04-.13.057-.178.057s-.102-.017-.178-.057a2.7 2.7 0 0 1-.299-.193l-.213-.152c-.08-.053-.167-.106-.264-.154s-.2-.09-.316-.12-.242-.048-.378-.048-.26.018-.376.048-.222.073-.32.12c-.193.096-.348.215-.475.305l-.3.193c-.076.04-.13.057-.178.057s-.102-.017-.178-.057a2.7 2.7 0 0 1-.299-.193c-.126-.09-.282-.21-.475-.305-.096-.048-.203-.09-.32-.12s-.24-.048-.376-.048-.26.018-.376.048-.222.073-.32.12c-.193.096-.348.215-.474.305l-.3.193c-.076.04-.13.057-.178.057s-.102-.017-.178-.057a2.7 2.7 0 0 1-.299-.193c-.126-.09-.282-.21-.475-.305-.096-.048-.203-.09-.32-.12s-.24-.048-.376-.048-.262.018-.378.048-.22.073-.316.12-.184.1-.264.154l-.213.152-.3.193c-.076.04-.13.057-.178.057s-.102-.017-.178-.057a2.7 2.7 0 0 1-.299-.193c-.126-.09-.282-.21-.475-.305-.096-.048-.203-.09-.32-.12s-.24-.048-.376-.048-.26.018-.376.048-.222.073-.32.12c-.193.096-.348.215-.475.305l-.3.193c-.076.04-.13.057-.178.057s-.102-.017-.178-.057a2.7 2.7 0 0 1-.299-.193c-.126-.09-.282-.21-.475-.305-.096-.048-.203-.09-.32-.12s-.24-.048-.376-.048-.262.018-.378.048-.22.073-.316.12-.184.1-.264.154l-.213.152-.3.193c-.076.04-.13.057-.178.057s-.102-.017-.178-.057a2.7 2.7 0 0 1-.299-.193c-.126-.09-.282-.21-.475-.305-.096-.048-.203-.09-.32-.12s-.24-.048-.376-.048-.26.018-.376.048-.222.073-.32.12c-.193.096-.348.215-.475.305l-.3.193c-.076.04-.13.057-.178.057s-.102-.017-.178-.057a2.7 2.7 0 0 1-.299-.193c-.126-.09-.282-.21-.474-.305-.096-.048-.203-.09-.32-.12s-.24-.048-.376-.048-.262.018-.378.048-.22.073-.316.12-.184.1-.264.154l-.213.152-.297.193c-.075.04-.13.057-.178.057s-.102-.017-.178-.057a2.7 2.7 0 0 1-.299-.193l-.213-.152c-.08-.053-.167-.106-.264-.154s-.2-.09-.316-.12-.242-.048-.378-.048-.26.018-.376.048-.222.073-.32.12c-.168.084-.298.18-.415.266l.734.938.198-.127c.076-.04.13-.06.178-.06s.102.02.178.06a2.78 2.78 0 0 1 .299.193l.213.15c.08.053.167.106.264.154a1.65 1.65 0 0 0 .316.121c.116.03.242.048.378.048s.26-.018.376-.048a1.67 1.67 0 0 0 .319-.121 2.32 2.32 0 0 0 .261-.154l.213-.15.3-.193c.076-.04.13-.06.178-.06s.102.02.178.06.173.103.3.193l.213.15c.08.053.165.106.26.154a1.67 1.67 0 0 0 .319.121c.115.03.24.048.376.048s.26-.018.376-.048a1.67 1.67 0 0 0 .319-.121c.096-.048.182-.1.26-.154l.213-.15.3-.193c.076-.04.13-.06.178-.06s.102.02.178.06a2.78 2.78 0 0 1 .299.193l.213.15a2.32 2.32 0 0 0 .261.154 1.67 1.67 0 0 0 .319.121c.115.03.24.048.376.048s.262-.018.378-.048a1.65 1.65 0 0 0 .316-.121c.097-.048.184-.1.264-.154l.213-.15.3-.193c.076-.04.13-.06.178-.06s.102.02.178.06a2.78 2.78 0 0 1 .299.193l.213.15c.08.053.165.106.26.154a1.67 1.67 0 0 0 .319.121c.115.03.24.048.376.048s.26-.018.376-.048a1.67 1.67 0 0 0 .319-.121 2.32 2.32 0 0 0 .261-.154l.213-.15.3-.193c.076-.04.13-.06.178-.06s.102.02.178.06.173.103.3.193l.213.15a2.32 2.32 0 0 0 .261.154 1.67 1.67 0 0 0 .319.121c.115.03.24.048.376.048s.262-.018.378-.048a1.65 1.65 0 0 0 .316-.121c.097-.048.184-.1.264-.154l.213-.15.3-.193c.076-.04.13-.06.178-.06s.102.02.178.06.17.103.297.193l.213.15c.08.053.167.106.264.154a1.65 1.65 0 0 0 .316.121c.116.03.242.048.378.048s.26-.018.376-.048a1.67 1.67 0 0 0 .319-.121c.096-.048.183-.1.26-.154l.213-.15.3-.193c.076-.04.13-.06.178-.06s.102.02.178.06.173.103.3.193l.213.15c.08.053.165.106.26.154a1.67 1.67 0 0 0 .319.121c.115.03.24.048.376.048s.26-.018.376-.048a1.67 1.67 0 0 0 .319-.121c.096-.048.183-.1.26-.154l.213-.15.3-.193c.076-.04.13-.06.178-.06s.102.02.178.06.173.103.3.193l.213.15c.08.053.167.106.264.154a1.65 1.65 0 0 0 .316.121c.116.03.242.048.378.048s.26-.018.376-.048a1.67 1.67 0 0 0 .319-.121c.096-.048.183-.1.26-.154l.213-.15.3-.193c.076-.04.13-.06.178-.06s.102.02.178.06c.008.004.023.015.03.02l.725-.942z" class="B C E G"/><g transform="matrix(.070293 0 0 .065101 99.640482 490.30701)" class="B"><g class="H"><path d="M524 509.406v59.688h-8.594v-48.187h-21.25V595.5l8.625 6.313v74.03l-16.656 21.813v68.875H591.72v-68.875l-16.625-21.812v-74.03l8.594-6.312v-74.594h-21.22v48.188h-8.625v-59.687H524z" class="C I"/><g class="F"><path d="M591.303 745.145H486.02m105.283-8.982H486.02m105.283-12.017H486.02m105.283-12.018H486.02M591.303 700.1H486.02"/><path d="M584.166 688.093h-90.242" stroke-linecap="round" class="D"/><path d="M575.644 676.076h-73.1m73.1-9.836h-73.1m73.1-11.762h-73.1m73.1-11.173h-73.1m73.1-11.173h-73.1m73.1-11.172h-73.1m73.1-11.173h-73.1m73.1-8.34h-73.1m7.89 134.69V724.3m0-12.325v-11.838m0-11.684v-11.838m22.24 35.36v-11.838m0-11.684v-11.838m11.334 35.36v-11.838m0-11.684v-11.838m22.88 59.523V724.3m0-12.325v-11.838m0-11.684v-11.838M501.608 700v-11.838M526.484 700v-11.838M551.36 700v-11.838M576.236 700v-11.838m-74.628 35.574v-11.838m24.876 11.838v-11.838m24.876 11.838v-11.838m24.876 11.838v-11.838"/></g><g class="C D"><path d="M538.344 714.356c-5.5 0-9.475 5.23-9.475 11.086v41.09h18.95v-41.09c0-5.855-3.975-11.086-9.475-11.086z" class="K"/><path d="M538.344 708.165c-8.797 0-15.156 8.3-15.156 17.594v40.773h8v-40.773c0-5.767 3.588-9.594 7.156-9.594s7.156 3.827 7.156 9.594v40.773h8v-40.773c0-9.293-6.36-17.594-15.156-17.594z" class="I"/></g><path d="M538.922 675.584v-8.98m-18.176 8.98v-9.4m36.352 9.4v-8.98" class="F"/></g><path d="M538.922 653.925v-10.088m-18.176 10.088v-10.57m36.352 10.57v-10.088" stroke-width="1.042" class="F"/><path d="M538.922 632.29v-10.834" class="F H"/><path d="M538.922 609.575v-7.982m-18.176 7.982v-7.616m36.352 7.616v-7.818" stroke-width="1.051" class="F"/><g class="C D H K"><use xlink:href="#P"/><use xlink:href="#P" x="34.506"/></g><g class="F"><path d="M528.658 665.748v-11.12m20.528 11.12v-11.12m-20.528-33.144v-11.12m20.528 11.12v-11.12m33.63-14.477H494.5m89.238-4.555h-89.234m89.234-11.12h-89.234m89.234-11.12h-89.234m68.048-10.428h20.9m-20.9-11.8h20.9m-20.9-11.8h20.9m-89.227 23.58h20.9m-20.9-11.8h20.9m-20.9-11.8h20.9m8.975 23.58h29.207m-29.207-11.8h29.207" class="H"/><path d="M524.1 535.084h29.207M524.1 524.366h29.207m-48.632-3.35v7.905m68.327-7.905v7.905m-38.92-19.83v7.905m9.244-7.905v7.905m-38.65 17.684v12.326m68.327-12.326v12.326m-68.327 11.924v9.914m68.327-9.914v9.914m-68.327 11.656v11.254m68.327-11.254v11.254m-57.58-22.726v10.947m47.14-10.947v10.947m-8.73-10.947v10.947m-29.9-10.947v10.947" class="H"/><path d="M538.714 524.324v10.803" class="H"/><path d="M534.092 535.285v11.392m9.244-11.392v11.392" stroke-width="1.074"/><path d="M538.714 547.348v10.803" class="H"/><path d="M534.092 558.282v10.8m9.244-10.8v10.8" class="O"/><path d="M538.714 569.282v10.803" class="H"/><path d="M534.092 580.452v10.8m9.244-10.8v10.8" class="O"/></g></g><g class="B C"><g class="E"><path d="M121.983 534.603l.008 9.132c.097 2.732 2.188 5.226 4.858 5.803 2.47.602 5.235-.48 6.63-2.612.835-1.193 1.142-2.67 1.074-4.105v-8.217h-12.568z" class="M"/><path d="M127.638 542.588a11.47 11.47 0 0 1-1.741 4.512c1.107-.64 1.934-.937.99.92.912-1.105 1.647-1.326 2.02.27-.104-1.632.743-1.52 1.707-1.192-2.06-1.083-1.556-2.898-1.877-4.478l-1.098-.034z" class="G"/></g><path d="M128.02 542.65c.472.504.733.406 1.045-.168.412-.57.705-.467 1.117.048.366.696 1.043.192 1.385.522.49.06.704-.153.618-.666-.014-.722.44-.666.786-.786.567-.166.758-.787-.048-.93-.533-.196-.755-.496-.144-1.073.37-.68.177-1.142-.594-1.14-.666.547-.57-.262-.546-.8-.218-.65-.62-.325-1.025.024-.304.424-.352.1-.594-.096.282-.757-.39-.772-.978-.7h0c-.224-.62-.442-1.26-1.165-.575-.55-.3-1.023-.34-1.193.575-.14.478-.36.683-.7.522-.514-.1-1.007-.166-1.145.36-.034.365-.3.365-.594.355-.618-.076-.797.368-.714 1.12-.504.284-.778.948.18 1.138-.054.66-.235 1.312.264 1.66-.13.716.084 1.25.777.575.578-.677.582-.42.873-.18.533.627.684.426 1.097.522.532.102 1 .098 1.29-.307z" class="G L"/></g></g><defs ><path id="B" d="M407.027 89.466c0 6.03-4.89 10.92-10.92 10.92s-10.92-4.89-10.92-10.92 4.89-10.92 10.92-10.92 10.92 4.89 10.92 10.92h0z"/><path id="C" d="M426.702 155.36c0 4.784-3.878 8.662-8.662 8.662s-8.662-3.878-8.662-8.662 3.878-8.662 8.662-8.662 8.662 3.878 8.662 8.662z"/><path id="D" d="M522.82 140.4c-.903 4.698-5.444 7.774-10.142 6.87s-7.774-5.444-6.87-10.142 5.444-7.774 10.142-6.87 7.774 5.444 6.87 10.142z"/><path id="E" d="M712.305 155.36c0 4.784 3.878 8.662 8.662 8.662s8.662-3.878 8.662-8.662-3.878-8.662-8.662-8.662-8.662 3.878-8.662 8.662z"/><path id="F" d="M616.186 140.4c.903 4.698 5.444 7.774 10.142 6.87s7.774-5.444 6.87-10.142-5.444-7.774-10.142-6.87-7.774 5.444-6.87 10.142z"/><path id="G" d="M-1229.856 971.517l16.358-20.197-.835-102.323c-12.607-12.818-11.51-21.297-13.854-31.965l-.417-16.024 66.385-.284-.417 16.024c-2.346 10.67-1.248 19.147-13.854 31.965l-.835 102.323 16.358 20.197-68.888.284z"/><path id="H" d="M-1212.963 819.167c3.818 1.204 4.356 12.25 9.39 9.807"/><path id="I" d="M-1219.64 822.09v3.547c0 1.086.278 1.808.626 2.504.42.838.714 1.19 1.67 1.67 1.043.52 1.43 1.132 2.504 1.67.512.256 1.66 1.452 2.087 1.878"/><path id="J" d="M-1182.083 815.203c.99.99 1.435 1.36 1.878 3.13.286 1.143 0 2.794 0 3.964 0 1.275-.983 1.818-1.67 2.504-.655.655-1.694 1.062-2.504 1.67-.69.518-.847 1.512-1.043 2.295l-.626 3.13c-.203.812.07 1.746.21 2.295"/><path id="K" d="M-1186.047 842.12c-.013.05 3.29-.04 3.964-.21 1.377-.344 3.233-1.016 4.382-1.878.847-.635 1.79-1.554 2.504-2.504.67-.894.626-1.714.626-2.92 0-1.03.21-2.23.21-3.338v-6.677"/><path id="L" d="M-1172.068 814.994c0-1.115-.062 2.257.21 3.338.05.202 0 .417 0 .626"/><path id="M" d="M-1199.818 838.572c.09.357-.044 2.263-.21 2.92-.173.69-1.988.626-2.712.626h-1.67"/><path id="N" d="M-1197.314 817.916c0 .33-.317 2.604.626 3.547.393.393 1.707.53 2.087.626"/><path id="O" d="M-1192.098 826.47c.69.69-2.05-.435-2.92 0-.193.096-.693 2.22-.835 2.504-.34.682-1.747.417-2.712.417h-.626"/><path id="P" d="M522.1 617.127c-4.086 0-7.04 3.925-7.04 8.32v25.047h14.08v-25.047c0-4.394-2.953-8.32-7.04-8.32z"/></defs></svg>