<svg xmlns="http://www.w3.org/2000/svg" xmlns:xlink="http://www.w3.org/1999/xlink" width="600" height="400" xmlns:v="https://vecta.io/nano"><style><![CDATA[.B{stroke:#000}.C{fill:none}.D{fill:#fff}.E{stroke-width:1.006}.F{fill:#bcac0b}.G{stroke-width:.653}.H{fill:#fc0}.I{stroke-width:.502}.J{fill:#ccc}.K{stroke-width:.252}.L{stroke-width:.404}.M{fill-opacity:.94}.N{stroke-width:1.508}]]></style><path d="M0 0h600v400H0z" fill-rule="evenodd" class="D"/><path d="M600 341.776L86.03 0H0v56.94L515.896 400H600v-58.224" fill="#09c"/><path d="M296.608 305.2c-60.134 0-58.18-56.58-58.18-56.58v-86.84h116.36v86.84s2.037 56.58-58.18 56.58" fill="#005bbf"/><path d="M296.608 305.2c-60.134 0-58.18-56.58-58.18-56.58v-86.84h116.36v86.84s2.037 56.58-58.18 56.58z" class="B C E"/><path d="M296.097 107.14s-12.406-6.036-24.142 2.85c0 0-21.118-3.048-22.672 17.18-.062.82-.2 2.328.187 2.767s.754 1.26.754 1.82.377.882.504 1.13.44.63.502 1.698-.125 1.57.882 2.64 1.066 4.15 1.066 5.03.63 3.332 1.07 3.836 1.194 1.758 1.194 2.827.44 4.023.25 4.775 1.13 1.698 2.328 2.075 16.03 5.217 37.656 4.84 29.415-1.528 38.35-4.778c1.38-.502 1.633-1.633 1.508-2.263s0-2.637.377-3.142 2.892-4.525 2.388-5.28-.502-2.4 0-3.017 2.078-3.653 2.388-4.905.353-2.73.93-3.168.773-1.854.884-2.15.533-1.22 1.12-1.64c0 0 1.09-5.11.418-7.624s-4.44-13.33-19.78-11.064c0 0-11.4-8.635-28.163-4.444" fill="#d81126"/><path d="M296.097 107.14s-12.406-6.036-24.142 2.85c0 0-21.118-3.048-22.672 17.18-.062.82-.2 2.328.187 2.767s.754 1.26.754 1.82.377.882.504 1.13.44.63.502 1.698-.125 1.57.882 2.64 1.066 4.15 1.066 5.03.63 3.332 1.07 3.836 1.194 1.758 1.194 2.827.44 4.023.25 4.775 1.13 1.698 2.328 2.075 16.03 5.217 37.656 4.84 29.415-1.528 38.35-4.778c1.38-.502 1.633-1.633 1.508-2.263s0-2.637.377-3.142 2.892-4.525 2.388-5.28-.502-2.4 0-3.017 2.078-3.653 2.388-4.905.353-2.73.93-3.168.773-1.854.884-2.15.533-1.22 1.12-1.64c0 0 1.09-5.11.418-7.624s-4.44-13.33-19.78-11.064c0 0-11.4-8.635-28.163-4.444h.005z" class="B C N"/><path d="M337.603 144.797c-47.108-14.92-83.414-.74-83.414-.74s.336 1.645.754 2.147 1.006 1.677 1.006 2.558.084 2.138.084 2.808-.514 3.675 2.174 3.64c0 0 32.742-12.843 75.377.66 0 0 1.167-1.047 1.21-2.556s.29-3.1.88-3.94 1.926-3.456 1.926-4.578" class="F"/><path d="M293.928 223.316h-20.453s-2.013 18.272 13.747 23.806v1.677h3.353v2.18s-5.784 5.196-.757 11.148v1.845h.84v2.933h.92v4.775s-.754 17.06-17.477 25.23v1.006h44.65v-1.006c-16.72-8.172-17.477-25.23-17.477-25.23v-4.775h.92v-2.933h.838v-1.845c5.03-5.952-.754-11.148-.754-11.148v-2.18h3.353v-1.677c15.76-5.534 13.747-23.806 13.747-23.806h-25.454" fill="#c8b100" class="M"/><g class="B C"><path d="M293.928 223.316h-20.453s-2.013 18.272 13.747 23.806v1.677h3.353v2.18s-5.784 5.196-.757 11.148v1.845h.84v2.933h.92v4.775s-.754 17.06-17.477 25.23v1.006h44.65v-1.006c-16.72-8.172-17.477-25.23-17.477-25.23v-4.775h.92v-2.933h.838v-1.845c5.03-5.952-.754-11.148-.754-11.148v-2.18h3.353v-1.677c15.76-5.534 13.747-23.806 13.747-23.806h-25.452z" class="E"/><path d="M286.55 246.87h19.742m-19.07 1.508h18.4m-15.046 2.515h11.568m-12.325 11.44h13.204M290.7 263.74h11.527m-11.527 2.85h11.484m-18.524 23.155h25.524m-32.732 5.91h39.984m-41.492.88h43.04" class="K"/></g><path d="M296.6 222.238c7.2 0 13.04-5.84 13.04-13.04s-5.84-13.04-13.04-13.04-13.04 5.84-13.04 13.04 5.84 13.04 13.04 13.04" class="J"/><path d="M296.6 222.238c7.2 0 13.04-5.84 13.04-13.04s-5.84-13.04-13.04-13.04-13.04 5.84-13.04 13.04 5.84 13.04 13.04 13.04z" class="B C E"/><path d="M266.254 183.92h-8.13v-8.133h-7.208v8.133h-8.13v7.206h8.13v8.13h7.208v-8.13h8.13v-7.206" class="J"/><path d="M266.254 183.92h-8.13v-8.133h-7.208v8.133h-8.13v7.206h8.13v8.13h7.208v-8.13h8.13v-7.206" class="B C E"/><path d="M350.76 183.92h-8.13v-8.133h-7.21v8.133h-8.128v7.206h8.128v8.13h7.21v-8.13h8.13v-7.206" class="J"/><path d="M350.76 183.92h-8.13v-8.133h-7.21v8.133h-8.128v7.206h8.128v8.13h7.21v-8.13h8.13v-7.206" class="B C E"/><use xlink:href="#B" class="J"/><use xlink:href="#B" class="B C E"/><use xlink:href="#B" x="-41.682" y="45.422" class="J"/><use xlink:href="#B" x="-41.682" y="45.422" class="B C E"/><use xlink:href="#C" class="J"/><use xlink:href="#C" class="B C E"/><use xlink:href="#D" class="J"/><use xlink:href="#D" class="B C E"/><use xlink:href="#E" class="J"/><use xlink:href="#E" class="B C E"/><path d="M296.493 89.732c4.32 0 7.826-3.502 7.826-7.823s-3.505-7.823-7.826-7.823-7.823 3.502-7.823 7.823 3.502 7.823 7.823 7.823" fill="#005bbf"/><path d="M296.493 89.732c4.32 0 7.826-3.502 7.826-7.823s-3.505-7.823-7.826-7.823-7.823 3.502-7.823 7.823 3.502 7.823 7.823 7.823z" class="B C E"/><use xlink:href="#F" class="H"/><use xlink:href="#F" class="B F I"/><path d="M265.166 99.092s5.784-.67 9.135.67c0 0-3.84 4.37-3.017 10.14.42 2.935 1.006 4.444 1.845 5.868s1.758 4.36 1.256 6.706h1.09s1.09-4.778-.754-7.46-2.767-6.37-.922-10.225 4.525-5.364 4.525-5.364c3.1 1.256 9.642.082 11.484-1.26s2.765-3.185-.67-3.353-9.303-.084-13.326 2.935c0 0-2.097-2.433-12.574-1.26s-18.05 5.65-20.37 15.09c-1.172 4.778 3.27 14.835 7.377 17.266 0 0-.125-1.633.293-2.808 0 0-7-7.838-4.902-15.13s10.478-12.07 19.53-11.818" class="H"/><path d="M265.166 99.092s5.784-.67 9.135.67c0 0-3.84 4.37-3.017 10.14.42 2.935 1.006 4.444 1.845 5.868s1.758 4.36 1.256 6.706h1.09s1.09-4.778-.754-7.46-2.767-6.37-.922-10.225 4.525-5.364 4.525-5.364c3.1 1.256 9.642.082 11.484-1.26s2.765-3.185-.67-3.353-9.303-.084-13.326 2.935c0 0-2.097-2.433-12.574-1.26s-18.05 5.65-20.37 15.09c-1.172 4.778 3.27 14.835 7.377 17.266 0 0-.125-1.633.293-2.808 0 0-7-7.838-4.902-15.13s10.478-12.07 19.53-11.818z" class="B F G"/><path d="M284.858 97.65c1.81-.147 3.262-.46 3.243-.71s-1.504-.324-3.315-.178-3.262.464-3.243.71 1.504.324 3.315.178" class="D"/><path d="M278.262 99.385s-2.073 1.948 0 0 6.413-3.27 8.866-2.702-.442.88-1.26.942-2.452.377-4.84 0" class="B C G"/><path d="M327.695 99.72s-5.782-.668-9.135.673c0 0 3.843 4.367 3.017 10.14-.418 2.935-1.004 4.444-1.842 5.868s-1.76 4.36-1.26 6.706h-1.09s-1.088-4.778.754-7.46 2.767-6.37.922-10.225-4.525-5.366-4.525-5.366c-3.1 1.26-9.64.084-11.484-1.256s-2.765-3.185.67-3.353 9.305-.084 13.33 2.933c0 0 2.095-2.43 12.572-1.256s18.05 5.65 20.37 15.087c1.175 4.778-3.27 14.837-7.377 17.268 0 0 .127-1.633-.293-2.808 0 0 7-7.838 4.905-15.13s-10.478-12.07-19.533-11.82" class="H"/><path d="M327.695 99.72s-5.782-.668-9.135.673c0 0 3.843 4.367 3.017 10.14-.418 2.935-1.004 4.444-1.842 5.868s-1.76 4.36-1.26 6.706h-1.09s-1.088-4.778.754-7.46 2.767-6.37.922-10.225-4.525-5.366-4.525-5.366c-3.1 1.26-9.64.084-11.484-1.256s-2.765-3.185.67-3.353 9.305-.084 13.33 2.933c0 0 2.095-2.43 12.572-1.256s18.05 5.65 20.37 15.087c1.175 4.778-3.27 14.837-7.377 17.268 0 0 .127-1.633-.293-2.808 0 0 7-7.838 4.905-15.13s-10.478-12.07-19.533-11.82z" class="B F G"/><path d="M308.003 98.278c-1.81-.147-3.262-.464-3.243-.71s1.504-.324 3.315-.178 3.264.464 3.245.71-1.506.324-3.317.178" class="D"/><path d="M314.6 100.015s2.075 1.948 0 0-6.41-3.27-8.863-2.705.44.882 1.256.944 2.452.377 4.842 0" class="B C G"/><use xlink:href="#G" class="H"/><use xlink:href="#G" class="B F G"/><path d="M241.737 123.804c1.472 0 2.666-1.194 2.666-2.666a2.67 2.67 0 0 0-2.666-2.666c-1.472 0-2.666 1.194-2.666 2.666s1.194 2.666 2.666 2.666" class="D"/><path d="M241.737 123.804c1.472 0 2.666-1.194 2.666-2.666a2.67 2.67 0 0 0-2.666-2.666c-1.472 0-2.666 1.194-2.666 2.666s1.194 2.666 2.666 2.666z" class="B C E"/><use xlink:href="#H" class="D"/><use xlink:href="#I" class="B C E"/><use xlink:href="#J" class="D"/><use xlink:href="#K" class="B C E"/><use xlink:href="#L" class="D"/><use xlink:href="#M" class="B C E"/><path d="M250.005 99.602c1.472 0 2.666-1.194 2.666-2.67s-1.194-2.666-2.666-2.666a2.67 2.67 0 0 0-2.669 2.666 2.67 2.67 0 0 0 2.669 2.669" class="D"/><path d="M250.005 99.602c1.472 0 2.666-1.194 2.666-2.67s-1.194-2.666-2.666-2.666a2.67 2.67 0 0 0-2.669 2.666 2.67 2.67 0 0 0 2.669 2.669z" class="B C E"/><use xlink:href="#J" x="15.37" y="-13.17" class="D"/><use xlink:href="#K" x="15.37" y="-13.17" class="B C E"/><use xlink:href="#N" class="D"/><use xlink:href="#O" class="B C E"/><use xlink:href="#P" class="D"/><use xlink:href="#Q" class="B C E"/><path d="M274.868 96.018c1.472 0 2.666-1.194 2.666-2.666s-1.194-2.67-2.666-2.67-2.666 1.194-2.666 2.67 1.194 2.666 2.666 2.666" class="D"/><path d="M274.868 96.018c1.472 0 2.666-1.194 2.666-2.666s-1.194-2.67-2.666-2.67-2.666 1.194-2.666 2.67 1.194 2.666 2.666 2.666z" class="B C E"/><use xlink:href="#R" class="D"/><use xlink:href="#S" class="B C E"/><use xlink:href="#R" x="5.155" y="1.383" class="D"/><use xlink:href="#S" x="5.155" y="1.383" class="B C E"/><use xlink:href="#R" x="5.155" y="21.123" class="D"/><use xlink:href="#S" x="5.155" y="21.123" class="B C E"/><use xlink:href="#T" class="D"/><use xlink:href="#U" class="B C E"/><use xlink:href="#V" class="D"/><use xlink:href="#W" class="B C E"/><path d="M351.537 111.955a2.67 2.67 0 0 0 2.669-2.669c0-1.472-1.194-2.666-2.67-2.666s-2.666 1.194-2.666 2.666 1.194 2.67 2.666 2.67" class="D"/><path d="M351.537 111.955a2.67 2.67 0 0 0 2.669-2.669c0-1.472-1.194-2.666-2.67-2.666s-2.666 1.194-2.666 2.666 1.194 2.67 2.666 2.67z" class="B C E"/><use xlink:href="#X" class="D"/><use xlink:href="#Y" class="B C E"/><path d="M343.743 100.89c1.472 0 2.666-1.194 2.666-2.666s-1.194-2.666-2.666-2.666a2.67 2.67 0 0 0-2.669 2.666 2.67 2.67 0 0 0 2.669 2.666" class="D"/><path d="M343.743 100.89c1.472 0 2.666-1.194 2.666-2.666s-1.194-2.666-2.666-2.666a2.67 2.67 0 0 0-2.669 2.666 2.67 2.67 0 0 0 2.669 2.666z" class="B C E"/><use xlink:href="#Z" class="D"/><use xlink:href="#a" class="B C E"/><use xlink:href="#H" x="91.036" y="-21.217" class="D"/><use xlink:href="#I" x="91.036" y="-21.217" class="B C E"/><use xlink:href="#b" class="D"/><use xlink:href="#c" class="B C E"/><use xlink:href="#V" x="-33.31" y="-23.648" class="D"/><use xlink:href="#W" x="-33.31" y="-23.648" class="B C E"/><path d="M322.966 117.047a2.67 2.67 0 0 0 2.666-2.669 2.67 2.67 0 0 0-2.666-2.666c-1.472 0-2.666 1.194-2.666 2.666a2.67 2.67 0 0 0 2.666 2.669" class="D"/><path d="M322.966 117.047a2.67 2.67 0 0 0 2.666-2.669 2.67 2.67 0 0 0-2.666-2.666c-1.472 0-2.666 1.194-2.666 2.666a2.67 2.67 0 0 0 2.666 2.669z" class="B C E"/><use xlink:href="#Z" x="-13.484" y="13.903" class="D"/><use xlink:href="#a" x="-13.484" y="13.903" class="B C E"/><path d="M301.936 94.824a2.67 2.67 0 0 0 2.669-2.669c0-1.472-1.194-2.666-2.67-2.666s-2.666 1.194-2.666 2.666a2.67 2.67 0 0 0 2.666 2.669" class="D"/><path d="M301.936 94.824a2.67 2.67 0 0 0 2.669-2.669c0-1.472-1.194-2.666-2.67-2.666s-2.666 1.194-2.666 2.666a2.67 2.67 0 0 0 2.666 2.669z" class="B C E"/><path d="M288.886 94.1a2.67 2.67 0 0 0 2.669-2.669c0-1.47-1.194-2.664-2.67-2.664s-2.666 1.19-2.666 2.664 1.194 2.67 2.666 2.67" class="D"/><path d="M288.886 94.1a2.67 2.67 0 0 0 2.669-2.669c0-1.47-1.194-2.664-2.67-2.664s-2.666 1.19-2.666 2.664 1.194 2.67 2.666 2.67z" class="B C E"/><path d="M285.744 93.974c1.472 0 2.666-1.194 2.666-2.666s-1.194-2.666-2.666-2.666-2.666 1.194-2.666 2.666 1.194 2.666 2.666 2.666" class="D"/><path d="M285.744 93.974c1.472 0 2.666-1.194 2.666-2.666s-1.194-2.666-2.666-2.666-2.666 1.194-2.666 2.666 1.194 2.666 2.666 2.666z" class="B C E"/><use xlink:href="#b" x="-56.145" y="21.145" class="D"/><use xlink:href="#c" x="-56.145" y="21.145" class="B C E"/><use xlink:href="#R" x="-22.982" y="16.723" class="D"/><use xlink:href="#S" x="-22.982" y="16.723" class="B C E"/><use xlink:href="#V" x="-82.77" y="-14.302" class="D"/><use xlink:href="#W" x="-82.77" y="-14.302" class="B C E"/><use xlink:href="#L" x="36.525" y="-9.524" class="D"/><use xlink:href="#M" x="36.525" y="-9.524" class="B C E"/><use xlink:href="#L" x="32.093" y="-7.701" class="D"/><use xlink:href="#M" x="32.093" y="-7.701" class="B C E"/><use xlink:href="#P" x="3.74" y="4.464" class="D"/><use xlink:href="#Q" x="3.74" y="4.464" class="B C E"/><use xlink:href="#X" x="-52.493" y="-7.009" class="D"/><use xlink:href="#Y" x="-52.493" y="-7.009" class="B C E"/><use xlink:href="#R" x="5.155" y="9.43" class="D"/><use xlink:href="#S" x="5.155" y="9.43" class="B C E"/><use xlink:href="#R" x="5.155" y="14.837" class="D"/><use xlink:href="#S" x="5.155" y="14.837" class="B C E"/><use xlink:href="#d" class="D"/><use xlink:href="#e" class="B C E"/><use xlink:href="#d" x="3.645" y="-0.754" class="D"/><use xlink:href="#e" x="3.645" y="-0.754" class="B C E"/><use xlink:href="#N" x="50.235" y="-1.853" class="D"/><use xlink:href="#O" x="50.235" y="-1.853" class="B C E"/><use xlink:href="#R" x="32.471" y="11.347" class="D"/><use xlink:href="#S" x="32.471" y="11.347" class="B C E"/><use xlink:href="#L" x="72.206" y="-7.67" class="D"/><use xlink:href="#M" x="72.206" y="-7.67" class="B C E"/><use xlink:href="#T" x="-30.208" y="-25.43" class="D"/><use xlink:href="#U" x="-30.208" y="-25.43" class="B C E"/><path d="M295.98 140.013l-7.04 3.52 6.336 4 7.51-3.754-6.807-3.757" class="D"/><path d="M295.98 140.013l-7.04 3.52 6.336 4 7.51-3.754-6.807-3.757" class="B C I"/><path d="M280.59 140.753l-10.562 1.633s-.127 5.66.377 7.043l10.81-1.51s.504-5.28-.627-7.165" class="D"/><path d="M280.59 140.753l-10.562 1.633s-.127 5.66.377 7.043l10.81-1.51s.504-5.28-.627-7.165z" class="B C I"/><path d="M279.415 142.763s-6.37.586-7.963 1.175l.084 3.855 8.047-1.09-.168-3.94" fill="#058e6e" class="M"/><path d="M279.415 142.763s-6.37.586-7.963 1.175l.084 3.855 8.047-1.09-.168-3.94" class="B C I"/><path d="M310.703 141.055l10.56 1.636s.127 5.657-.377 7.04l-10.81-1.508s-.504-5.282.63-7.168" class="D"/><path d="M310.703 141.055l10.56 1.636s.127 5.657-.377 7.04l-10.81-1.508s-.504-5.282.63-7.168z" class="B C I"/><path d="M311.876 143.068s6.37.586 7.963 1.172l-.084 3.855-8.047-1.088.168-3.94" fill="#058e6e" class="M"/><g class="B C I"><path d="M311.876 143.068s6.37.586 7.963 1.172l-.084 3.855-8.047-1.088.168-3.94"/><path d="M254.184 145.782s37.048-13.76 84.16 1.163m-82.65 6.757s35.835-13.403 80.03.596m-79.862-9.02l7.208 2.095-5.03 5.366"/></g><path d="M256.03 151.732l4.107-3.437-4.693-.922s.64.725.507 1.39.038 2.383.08 2.97" fill="red"/><path d="M256.03 151.732l4.107-3.437-4.693-.922s.64.725.507 1.4.038 2.383.08 2.97zm81.516-5.072l-7.67 1.384 5.155 6.034" class="B C I"/><path d="M335.283 151.943l-2.892-3.02 4.148-.377s-1.13.754-1.13 1.384.127 1.508-.125 2.013" fill="red"/><path d="M335.283 151.943l-2.892-3.02 4.148-.377s-1.13.754-1.13 1.384.127 1.508-.125 2.013zM265.25 145.8c.653 0 1.184-.425 1.184-.95s-.53-.946-1.184-.946-1.187.425-1.187.946.53.95 1.187.95zm20.607-2.35c.656 0 1.187-.425 1.187-.946s-.53-.95-1.187-.95-1.184.423-1.184.95.53.946 1.184.946zm0 3.353c.656 0 1.187-.425 1.187-.95s-.53-.946-1.187-.946-1.184.423-1.184.946.53.95 1.184.95zm20.285-3.185c.656 0 1.187-.423 1.187-.95s-.53-.946-1.187-.946-1.184.423-1.184.946.53.95 1.184.95zm20.117 3.7c.656 0 1.187-.425 1.187-.95s-.53-.946-1.187-.946-1.184.425-1.184.946.53.95 1.184.95zm-.334 2.68c.656 0 1.187-.425 1.187-.946s-.53-.95-1.187-.95-1.187.428-1.187.95.53.946 1.187.946zm-19.783-3.017c.656 0 1.187-.425 1.187-.95s-.53-.946-1.187-.946-1.184.423-1.184.946.53.95 1.184.95zm-39.897 3.017c.653 0 1.184-.425 1.184-.946s-.53-.95-1.184-.95-1.187.428-1.187.95.53.946 1.187.946z" class="B C I"/><path d="M253.514 134.97s.168 7.208 4.862 6.202 4.19-6.875 4.528-7.208.836-.336.836-.336.67 5.7 5.027 5.03 4.19-7.7 3.69-8.885l1.006-.336s1.674 8.215 6.704 7.043 4.528-6.37 4.528-6.37h.387s1.122 5.532 5.145 5.196 4.862-1.677 4.357-7.208l2.683-.502s-1.006 8.047 3.853 7.88 5.03-4.023 5.366-4.693h.733s.274 5.7 4.297 5.7 4.86-4.862 4.86-6.706l3.93.175s-4.095 7.537 1.94 8.544 6.202-4.864 6.202-4.864h1.172s-.168 7.545 3.185 7.713 5.364-1.006 5.698-6.538l1.845.67s-1.6 8.943-7.88 7.374c-3.353-.836-4.36-4.69-4.19-5.698 0 0-2.344 4.19-6.872 2.85s-4.023-4.525-4.023-5.532c0 0-2.72 5-6.538 3.853-3.35-1.004-4.694-2.18-4.694-4.525 0 0-1.677 3.855-5.03 3.69s-5.027-2.18-5.196-4.023c0 0-.665 3.603-5.198 3.855-3.017.168-4.694-1.338-5.364-3.353 0 0-.867 3.65-5.196 4.19-2.68.336-5.364-1.172-6.036-3.687 0 0-.668 4.86-5.027 5.532s-5.366-2.347-5.366-2.347-.836 3.858-4.357 4.694-5.868-.668-6.706-4.19-.502-5.03-.502-5.03l1.34 1.842" class="H"/><path d="M253.514 134.97s.168 7.208 4.862 6.202 4.19-6.875 4.528-7.208.836-.336.836-.336.67 5.7 5.027 5.03 4.19-7.7 3.69-8.885l1.006-.336s1.674 8.215 6.704 7.043 4.528-6.37 4.528-6.37h.387s1.122 5.532 5.145 5.196 4.862-1.677 4.357-7.208l2.683-.502s-1.006 8.047 3.853 7.88 5.03-4.023 5.366-4.693h.733s.274 5.7 4.297 5.7 4.86-4.862 4.86-6.706l3.93.175s-4.095 7.537 1.94 8.544 6.202-4.864 6.202-4.864h1.172s-.168 7.545 3.185 7.713 5.364-1.006 5.698-6.538l1.845.67s-1.6 8.943-7.88 7.374c-3.353-.836-4.36-4.69-4.19-5.698 0 0-2.344 4.19-6.872 2.85s-4.023-4.525-4.023-5.532c0 0-2.72 5-6.538 3.853-3.35-1.004-4.694-2.18-4.694-4.525 0 0-1.677 3.855-5.03 3.69s-5.027-2.18-5.196-4.023c0 0-.665 3.603-5.198 3.855-3.017.168-4.694-1.338-5.364-3.353 0 0-.867 3.65-5.196 4.19-2.68.336-5.364-1.172-6.036-3.687 0 0-.668 4.86-5.027 5.532s-5.366-2.347-5.366-2.347-.836 3.858-4.357 4.694-5.868-.668-6.706-4.19-.502-5.03-.502-5.03l1.343 1.845z" class="B F G"/><use xlink:href="#f" class="H"/><use xlink:href="#g" class="B F G"/><use xlink:href="#f" x="21.847" y="-3.498" class="H"/><use xlink:href="#g" x="21.847" y="-3.498" class="B F G"/><use xlink:href="#f" x="43.986" y="-2.849" class="H"/><use xlink:href="#g" x="43.986" y="-2.849" class="B F G"/><path d="M329.194 135.968a1.66 1.66 0 0 0 1.66-1.66 1.66 1.66 0 0 0-1.66-1.66 1.66 1.66 0 0 0-1.657 1.66 1.66 1.66 0 0 0 1.657 1.66" class="H"/><path d="M329.194 135.968a1.66 1.66 0 0 0 1.66-1.66 1.66 1.66 0 0 0-1.66-1.66 1.66 1.66 0 0 0-1.657 1.66 1.66 1.66 0 0 0 1.657 1.66z" class="B F G"/><path d="M295.174 129.94h-1.508c-.377 1.508-3.584 2.452-3.584 2.452-.377-1.194.44-2.892.44-2.892-3.71-.944-3.71-2.265-3.71-2.265.564-1.256 3.96-1.444 3.96-1.444-.882-1.13-.692-2.954-.692-2.954 2.263.127 4.148 2.388 4.148 2.388s-2.263-1.13-2-5.155c0 0 1.256-.06 2 .754 0 0 0-4.336 1.823-4.838h.187c1.823.502 1.823 4.838 1.823 4.838.754-.814 2-.754 2-.754.252 4.023-2 5.155-2 5.155s1.886-2.26 4.148-2.388c0 0 .2 1.82-.692 2.954 0 0 3.396.187 3.96 1.444 0 0 0 1.32-3.71 2.265 0 0 .817 1.698.44 2.892 0 0-3.207-.944-3.584-2.452h-3.456" class="H"/><path d="M295.174 129.94h-1.508c-.377 1.508-3.584 2.452-3.584 2.452-.377-1.194.44-2.892.44-2.892-3.71-.944-3.71-2.265-3.71-2.265.564-1.256 3.96-1.444 3.96-1.444-.882-1.13-.692-2.954-.692-2.954 2.263.127 4.148 2.388 4.148 2.388s-2.263-1.13-2-5.155c0 0 1.256-.06 2 .754 0 0 0-4.336 1.823-4.838h.187c1.823.502 1.823 4.838 1.823 4.838.754-.814 2-.754 2-.754.252 4.023-2 5.155-2 5.155s1.886-2.26 4.148-2.388c0 0 .2 1.82-.692 2.954 0 0 3.396.187 3.96 1.444 0 0 0 1.32-3.71 2.265 0 0 .817 1.698.44 2.892 0 0-3.207-.944-3.584-2.452h-3.454z" class="B F G"/><path d="M296.032 130.796a3.04 3.04 0 0 0 3.039-3.039c0-1.677-1.36-3.036-3.04-3.036s-3.036 1.36-3.036 3.036 1.36 3.04 3.036 3.04" class="D"/><path d="M296.032 130.796a3.04 3.04 0 0 0 3.039-3.039c0-1.677-1.36-3.036-3.04-3.036s-3.036 1.36-3.036 3.036 1.36 3.04 3.036 3.04z" class="B C L"/><path d="M296.032 129.418a1.66 1.66 0 0 0 1.662-1.66 1.66 1.66 0 0 0-1.662-1.657 1.66 1.66 0 0 0-1.657 1.657 1.66 1.66 0 0 0 1.657 1.66" class="D"/><path d="M296.032 129.418a1.66 1.66 0 0 0 1.662-1.66 1.66 1.66 0 0 0-1.662-1.657 1.66 1.66 0 0 0-1.657 1.657 1.66 1.66 0 0 0 1.657 1.66z" class="B C K"/><use xlink:href="#h" class="H"/><use xlink:href="#h" class="B F G"/><path d="M318.044 132.564a3.04 3.04 0 0 1-2.328-3.61c.353-1.638 1.97-2.683 3.6-2.328a3.04 3.04 0 0 1 2.33 3.61 3.04 3.04 0 0 1-3.613 2.328" class="D"/><path d="M318.044 132.564a3.04 3.04 0 0 1-2.328-3.61c.353-1.638 1.97-2.683 3.6-2.328a3.04 3.04 0 0 1 2.33 3.61 3.04 3.04 0 0 1-3.613 2.328z" class="B C L"/><path d="M318.337 131.217c-.898-.192-1.468-1.076-1.273-1.972a1.66 1.66 0 1 1 3.245.701 1.66 1.66 0 0 1-1.972 1.271" class="D"/><path d="M318.337 131.217c-.898-.192-1.468-1.076-1.273-1.972a1.66 1.66 0 1 1 3.245.701 1.66 1.66 0 0 1-1.972 1.271z" class="B C K"/><use xlink:href="#i" class="H"/><use xlink:href="#i" class="B F G"/><path d="M273.19 132.348c1.665-.22 2.834-1.75 2.61-3.413s-1.75-2.832-3.41-2.61-2.832 1.75-2.61 3.41a3.04 3.04 0 0 0 3.411 2.611" class="D"/><path d="M273.19 132.348c1.665-.22 2.834-1.75 2.61-3.413s-1.75-2.832-3.41-2.61-2.832 1.75-2.61 3.41a3.04 3.04 0 0 0 3.411 2.611z" class="B C L"/><path d="M273.01 130.98c.908-.12 1.547-.954 1.424-1.864a1.66 1.66 0 0 0-1.862-1.427 1.66 1.66 0 0 0-1.427 1.864 1.66 1.66 0 0 0 1.864 1.427" class="D"/><path d="M273.01 130.98c.908-.12 1.547-.954 1.424-1.864a1.66 1.66 0 0 0-1.862-1.427 1.66 1.66 0 0 0-1.427 1.864 1.66 1.66 0 0 0 1.864 1.427z" class="B C K"/><path d="M340.12 138.067s-.76-1.998-2.443-1.28-1.508.98-3.012.89c0 0-.586-1.797.154-2.573 0 0-2.402-.898-2.906-3.007 0 0 1.287-1.494 4.338-.937 0 0-.096-1.516.322-2.183 0 0 3.276 1.014 3.293 2.842 0 0-.982-3.586.747-6.2 0 0 1.535.658 1.436 2.292 0 0 .706-3.36 5.248-2.457 0 0-2.462 2.183-2.585 3.183s-2.176 2.702-2.212 3.27-.28 1.556-.884 2.15-.663 1.6-.615 1.914c.04.32-.103 1.696-.882 2.1" class="H"/><path d="M340.12 138.067s-.76-1.998-2.443-1.28-1.508.98-3.012.89c0 0-.586-1.797.154-2.573 0 0-2.402-.898-2.906-3.007 0 0 1.287-1.494 4.338-.937 0 0-.096-1.516.322-2.183 0 0 3.276 1.014 3.293 2.842 0 0-.982-3.586.747-6.2 0 0 1.535.658 1.436 2.292 0 0 .706-3.36 5.248-2.457 0 0-2.462 2.183-2.585 3.183s-2.176 2.702-2.212 3.27-.28 1.556-.884 2.15-.663 1.6-.615 1.914c.04.32-.103 1.696-.882 2.1z" class="B F G"/><path d="M337.66 134.08a3.04 3.04 0 0 1 3.562-2.4c.468.09.886.286 1.242.555-.09.57-.346 1.336-.845 1.828-.603.593-.663 1.6-.617 1.914.034.25-.055 1.148-.468 1.717-.156-.007-.315-.022-.47-.053-1.643-.32-2.72-1.914-2.402-3.562" class="D"/><path d="M337.66 134.08a3.04 3.04 0 0 1 3.562-2.4c.468.09.886.286 1.242.555-.09.57-.346 1.336-.845 1.828-.603.593-.663 1.6-.617 1.914.034.25-.055 1.148-.468 1.717-.156-.007-.315-.022-.47-.053-1.643-.32-2.72-1.914-2.402-3.562z" class="B C L"/><path d="M339.016 134.344a1.66 1.66 0 0 1 1.946-1.311c.408.08.747.307.987.615a2.41 2.41 0 0 1-.329.416c-.603.593-.663 1.6-.617 1.914.007.065.007.175-.005.305-.214.046-.442.053-.67.007a1.66 1.66 0 0 1-1.311-1.946" class="D"/><path d="M339.016 134.344a1.66 1.66 0 0 1 1.946-1.311c.408.08.747.307.987.615a2.41 2.41 0 0 1-.329.416c-.603.593-.663 1.6-.617 1.914.007.065.007.175-.005.305-.214.046-.442.053-.67.007a1.66 1.66 0 0 1-1.311-1.946z" class="B C K"/><path d="M252.11 137.23s.88-1.948 2.512-1.13 1.446 1.07 2.957 1.07c0 0 .69-1.76 0-2.577 0 0 2.45-.754 3.08-2.83 0 0-1.194-1.57-4.276-1.194 0 0 .2-1.51-.187-2.2 0 0-3.332.817-3.46 2.64 0 0 1.196-3.52-.377-6.224 0 0-1.57.564-1.57 2.2 0 0-.502-3.396-5.092-2.767 0 0 2.325 2.328 2.4 3.332s2 2.83 2 3.396.2 1.57.754 2.2.567 1.633.502 1.948 0 1.696.757 2.138" class="H"/><path d="M252.11 137.23s.88-1.948 2.512-1.13 1.446 1.07 2.957 1.07c0 0 .69-1.76 0-2.577 0 0 2.45-.754 3.08-2.83 0 0-1.194-1.57-4.276-1.194 0 0 .2-1.51-.187-2.2 0 0-3.332.817-3.46 2.64 0 0 1.196-3.52-.377-6.224 0 0-1.57.564-1.57 2.2 0 0-.502-3.396-5.092-2.767 0 0 2.325 2.328 2.4 3.332s2 2.83 2 3.396.2 1.57.754 2.2.567 1.633.502 1.948 0 1.696.757 2.138z" class="B F G"/><path d="M254.802 133.4c-.22-1.665-1.746-2.832-3.41-2.61a3.01 3.01 0 0 0-1.273.48c.058.574.264 1.352.735 1.876.567.63.567 1.633.502 1.948-.048.245-.014 1.148.368 1.74.154.002.312 0 .47-.022 1.662-.22 2.832-1.75 2.61-3.41" class="D"/><path d="M254.802 133.4c-.22-1.665-1.746-2.832-3.41-2.61a3.01 3.01 0 0 0-1.273.48c.058.574.264 1.352.735 1.876.567.63.567 1.633.502 1.948-.048.245-.014 1.148.368 1.74.154.002.312 0 .47-.022 1.662-.22 2.832-1.75 2.61-3.41z" class="B C L"/><path d="M253.437 133.58a1.66 1.66 0 0 0-1.864-1.427c-.416.058-.766.264-1.023.555a2.53 2.53 0 0 0 .303.437c.567.63.567 1.633.502 1.948a1.68 1.68 0 0 0-.014.303 1.69 1.69 0 0 0 .67.05c.908-.122 1.547-.956 1.427-1.866" class="D"/><g class="B C"><path d="M253.437 133.58a1.66 1.66 0 0 0-1.864-1.427c-.416.058-.766.264-1.023.555a2.53 2.53 0 0 0 .303.437c.567.63.567 1.633.502 1.948a1.68 1.68 0 0 0-.014.303 1.69 1.69 0 0 0 .67.05c.908-.122 1.547-.956 1.427-1.866z" class="K"/><path d="M257.2 155.587s33.748-13.22 76.384.283" class="N"/><path d="M338.343 145.06c-47.1-14.92-84.66-.838-84.66-.838" class="I"/></g><path d="M295.93 141.76l-3.774 1.886 3.396 2.138 4.023-2.013-3.646-2" fill="red"/><path d="M295.93 141.76l-3.774 1.886 3.396 2.138 4.023-2.013-3.646-2" class="B C I"/><defs ><path id="B" d="M307.936 173.703h-8.13v-8.13h-7.208v8.13h-8.13v7.208h8.13v8.13h7.208v-8.13h8.13v-7.208"/><path id="C" d="M350.76 219.125h-8.13v-8.13h-7.21v8.13h-8.128v7.208h8.128v8.13h7.21v-8.13h8.13v-7.208"/><path id="D" d="M266.254 254.677h-8.13v-8.133h-7.208v8.133h-8.13v7.208h8.13v8.128h7.208v-8.128h8.13v-7.208"/><path id="E" d="M350.76 254.677h-8.13v-8.133h-7.21v8.133h-8.128v7.208h8.128v8.128h7.21v-8.128h8.13v-7.208"/><path id="F" d="M303.788 80.525h-6.413V70.153h2.45v-2.075h-2.45v-2.452H295.3v2.452h-2.452v2.075h2.452v10.372h-6.1v1.384h6.1v.062h2.075v-.062h6.413v-1.384"/><path id="G" d="M291.067 93.308v22.298c-.252 2.18 2.68 5.28 4.778 6.202 0 0 4.946-1.677 5.28-6.202V92.05h-1.677v20.37c-.082 2.097-1.424 5.868-3.27 6.457 0 0-3.603-.588-3.77-6.373V92.64l-1.34.668"/><path id="H" d="M240.07 117.674c1.475 0 2.67-1.194 2.67-2.666a2.67 2.67 0 0 0-2.669-2.666c-1.472 0-2.666 1.194-2.666 2.666s1.194 2.666 2.666 2.666"/><path id="I" d="M240.07 117.674c1.475 0 2.67-1.194 2.67-2.666a2.67 2.67 0 0 0-2.669-2.666c-1.472 0-2.666 1.194-2.666 2.666s1.194 2.666 2.666 2.666z"/><path id="J" d="M240.952 110.257c1.472 0 2.666-1.194 2.666-2.67s-1.194-2.666-2.666-2.666-2.666 1.194-2.666 2.666 1.194 2.67 2.666 2.67"/><path id="K" d="M240.952 110.257c1.472 0 2.666-1.194 2.666-2.67s-1.194-2.666-2.666-2.666-2.666 1.194-2.666 2.666 1.194 2.67 2.666 2.67z"/><path id="L" d="M245.1 104.096c1.475 0 2.67-1.194 2.67-2.666a2.67 2.67 0 0 0-2.669-2.669c-1.472 0-2.666 1.194-2.666 2.67s1.194 2.666 2.666 2.666"/><path id="M" d="M245.1 104.096c1.475 0 2.67-1.194 2.67-2.666a2.67 2.67 0 0 0-2.669-2.669c-1.472 0-2.666 1.194-2.666 2.67s1.194 2.666 2.666 2.666z"/><path id="N" d="M262.923 95.893a2.67 2.67 0 0 0 2.666-2.669c0-1.472-1.194-2.666-2.666-2.666s-2.666 1.194-2.666 2.666a2.67 2.67 0 0 0 2.666 2.669"/><path id="O" d="M262.923 95.893a2.67 2.67 0 0 0 2.666-2.669c0-1.472-1.194-2.666-2.666-2.666s-2.666 1.194-2.666 2.666a2.67 2.67 0 0 0 2.666 2.669z"/><path id="P" d="M269.21 95.516a2.67 2.67 0 0 0 2.666-2.669c0-1.472-1.194-2.666-2.666-2.666s-2.67 1.194-2.67 2.666a2.67 2.67 0 0 0 2.669 2.669"/><path id="Q" d="M269.21 95.516a2.67 2.67 0 0 0 2.666-2.669c0-1.472-1.194-2.666-2.666-2.666s-2.67 1.194-2.67 2.666a2.67 2.67 0 0 0 2.669 2.669z"/><path id="R" d="M290.997 94.005a2.67 2.67 0 0 0 2.669-2.666 2.67 2.67 0 0 0-2.669-2.666c-1.472 0-2.666 1.194-2.666 2.666s1.194 2.666 2.666 2.666"/><path id="S" d="M290.997 94.005a2.67 2.67 0 0 0 2.669-2.666 2.67 2.67 0 0 0-2.669-2.666c-1.472 0-2.666 1.194-2.666 2.666s1.194 2.666 2.666 2.666z"/><path id="T" d="M351.288 125.502c1.472 0 2.666-1.194 2.666-2.67s-1.194-2.666-2.666-2.666-2.67 1.194-2.67 2.666a2.67 2.67 0 0 0 2.669 2.669"/><path id="U" d="M351.288 125.502c1.472 0 2.666-1.194 2.666-2.67s-1.194-2.666-2.666-2.666-2.67 1.194-2.67 2.666a2.67 2.67 0 0 0 2.669 2.669z"/><path id="V" d="M352.67 118.868c1.475 0 2.67-1.194 2.67-2.666s-1.194-2.666-2.67-2.666-2.666 1.194-2.666 2.666 1.194 2.666 2.666 2.666"/><path id="W" d="M352.67 118.868c1.475 0 2.67-1.194 2.67-2.666s-1.194-2.666-2.67-2.666-2.666 1.194-2.666 2.666 1.194 2.666 2.666 2.666z"/><path id="X" d="M348.645 105.417a2.67 2.67 0 0 0 2.669-2.669 2.67 2.67 0 0 0-2.669-2.666c-1.472 0-2.666 1.194-2.666 2.666a2.67 2.67 0 0 0 2.666 2.669"/><path id="Y" d="M348.645 105.417a2.67 2.67 0 0 0 2.669-2.669 2.67 2.67 0 0 0-2.669-2.666c-1.472 0-2.666 1.194-2.666 2.666a2.67 2.67 0 0 0 2.666 2.669z"/><path id="Z" d="M337.834 97.997c1.472 0 2.666-1.194 2.666-2.666s-1.194-2.666-2.666-2.666-2.67 1.194-2.67 2.666 1.194 2.666 2.67 2.666"/><path id="a" d="M337.834 97.997c1.472 0 2.666-1.194 2.666-2.666s-1.194-2.666-2.666-2.666-2.67 1.194-2.67 2.666 1.194 2.666 2.67 2.666z"/><path id="b" d="M324.945 95.955a2.67 2.67 0 0 0 2.669-2.669 2.67 2.67 0 0 0-2.669-2.666c-1.472 0-2.666 1.194-2.666 2.666s1.194 2.67 2.666 2.67"/><path id="c" d="M324.945 95.955a2.67 2.67 0 0 0 2.669-2.669 2.67 2.67 0 0 0-2.669-2.666c-1.472 0-2.666 1.194-2.666 2.666s1.194 2.67 2.666 2.67z"/><path id="d" d="M305.395 94.132a2.67 2.67 0 0 0 2.666-2.669 2.67 2.67 0 0 0-2.666-2.666c-1.475 0-2.67 1.194-2.67 2.666a2.67 2.67 0 0 0 2.669 2.669"/><path id="e" d="M305.395 94.132a2.67 2.67 0 0 0 2.666-2.669 2.67 2.67 0 0 0-2.666-2.666c-1.475 0-2.67 1.194-2.67 2.666a2.67 2.67 0 0 0 2.669 2.669z"/><path id="f" d="M263.237 135.286a1.66 1.66 0 0 0 1.66-1.66 1.66 1.66 0 0 0-1.66-1.66 1.66 1.66 0 0 0-1.66 1.66 1.66 1.66 0 0 0 1.66 1.66"/><path id="g" d="M263.237 135.286a1.66 1.66 0 0 0 1.66-1.66 1.66 1.66 0 0 0-1.66-1.66 1.66 1.66 0 0 0-1.66 1.66 1.66 1.66 0 0 0 1.66 1.66z"/><path id="h" d="M319.067 131.906l1.475.32c.046 1.554 2.986 3.15 2.986 3.15.617-1.088.178-2.918.178-2.918 3.824-.14 4.1-1.43 4.1-1.43-.286-1.35-3.565-2.25-3.565-2.25 1.098-.92 1.3-2.743 1.3-2.743-2.24-.353-4.56 1.46-4.56 1.46s2.452-.627 3.055-4.614c0 0-1.218-.324-2.123.312 0 0 .913-4.24-.76-5.114l-.185-.04c-1.888.108-2.803 4.348-2.803 4.348-.564-.958-1.806-1.163-1.806-1.163-1.095 3.88.88 5.465.88 5.465s-1.367-2.61-3.553-3.21c0 0-.57 1.74.053 3.034 0 0-3.358-.53-4.177.58 0 0-.276 1.3 3.15 2.995 0 0-1.158 1.487-1.04 2.733 0 0 3.334-.245 4.02-1.64l3.38.728"/><path id="i" d="M272.226 131.61l-1.496.197c-.175 1.547-3.23 2.904-3.23 2.904-.53-1.134.055-2.923.055-2.923-3.8-.447-3.975-1.756-3.975-1.756.396-1.32 3.735-1.955 3.735-1.955-1.02-1.004-1.074-2.837-1.074-2.837 2.26-.17 4.43 1.82 4.43 1.82s-2.392-.824-2.673-4.845c0 0 1.24-.228 2.095.483 0 0-.572-4.3 1.165-5.04l.187-.022c1.874.255 2.445 4.557 2.445 4.557.64-.908 1.895-1.014 1.895-1.014.78 3.956-1.314 5.373-1.314 5.373s1.57-2.488 3.798-2.91c0 0 .428 1.78-.295 3.017 0 0 3.39-.262 4.117.9 0 0 .173 1.31-3.38 2.733 0 0 1.035 1.573.82 2.808 0 0-3.303-.512-3.877-1.958l-3.425.456"/></defs></svg>