<svg xmlns="http://www.w3.org/2000/svg" xmlns:xlink="http://www.w3.org/1999/xlink" height="500" width="750" xmlns:v="https://vecta.io/nano"><style><![CDATA[.B{fill:none}.C{stroke:none}.D{stroke:#110f06}.E{stroke-width:.653}.F{stroke-linejoin:round}.G{fill-rule:nonzero}.H{stroke-width:1.377}.I{fill:#e3e4e5}.J{stroke:#000}.K{fill:#eac102}.L{stroke-width:1.48}.M{stroke-width:1.495}.N{stroke-width:1.391}.O{stroke-width:2.689}.P{stroke-width:1.01}.Q{stroke-width:1.011}.R{stroke-width:1.502}.S{fill:#ed1c24}.T{fill:#008f4c}.U{stroke-width:1.031}.V{stroke-width:1.033}.W{stroke-width:1.009}.X{stroke-width:1.358}.Y{stroke-width:1.481}.Z{stroke-width:2.684}.a{stroke-width:.939}.b{stroke-width:1.004}.c{stroke-width:1.001}.d{stroke-width:1.003}.e{stroke-width:2.606}.f{stroke-width:2.742}.g{stroke-width:2.199}.h{stroke-width:3.24}.i{stroke-width:4.342}.j{stroke-width:5.439}.k{stroke-width:6.541}.l{stroke-width:7.643}.m{stroke-width:8.68}.n{stroke-width:9.781}.o{stroke-width:10.883}.p{stroke-width:11.98}.q{stroke-width:13.082}.r{stroke-width:14.123}.s{stroke-width:14.917}.t{stroke-width:16.018}.u{stroke-width:17.055}.v{stroke-width:18.096}.w{stroke-width:1.102}]]></style><g fill-rule="evenodd"><path d="M0 0h750v500H0z" fill="#da121a"/><g transform="matrix(.099373 0 0 .099373 782.222905 299.474632)" class="J"><path d="M-4098.218-1414.418c90.337 0 179.32 8.862 229.225 18.207 61.895 7.125 88.333 25.85 132.66 29.646 42.253 3.618 271.262 116.268 233.064 267.715l-22.822 54.976-95.958 40.828-14.926 11.19-10.747 36.065-447.54-61.858-411.92 58.865-20.252-32.088-21.868-2.797c-31.207 7.4-91.438-38.308-115.915-55.55l-23.474-15.346s-22.645-3.128 1.703-34.283c-63.835-45.75 106.665-258.486 228.14-267.715 38.77-2.945 91.812-20.19 137.76-30.654 63.108-12.403 132.59-17.2 222.872-17.2z" stroke-width="2.688" class="S"/><g class="K"><path d="M-4616.005-970.27c335.922-155.778 717.3-148.343 1029.298-8.038-24.082 36.925-47.007 81.657-39.143 118.58-318.565-124.854-569.255-156.72-942.45 2.297 2.04-48.792-11.565-99.9-47.705-112.84z" stroke-width="3.081" class="F G"/><path d="M-4102.92-1228.55v.36h-2.306a545.06 545.06 0 0 1 0 23.815c-.146 6.258-.124 12.877-.77 18.403s-2.035 9.993-2.69 11.186c-6.38 11.6-14.145 24.792-23.83 34.28s-20.725 18.692-35.747 17.176c-32.677-3.298-51.935-22.148-62.654-37.383-3.12-4.436-4.105-7.925-5.766-11.908.098-1.666 1.174-3.878 1.153-5.413-.057-4.125-.258-7.75-1.153-10.825s-1.574-5.894-5.766-7.938l-2.69-1.443-2.69 1.083c-4.45 1.838-5.45 5.764-5.766 8.66s-.03 5.835.77 9.382c.52 2.306 2.874 5.35 3.844 7.938-.517 5.8-.814 11.6-3.46 18.403-7.156 18.398-22.67 40.6-54.966 45.682-24.186 3.807-45.187-12.208-59.963-26.558-7.388-7.175-13.13-14.484-16.528-20.207-.26-.438-.152-.667-.384-1.083-1.277-3.58-1.17-7.537-3.46-10.825l-3.46-4.69-4.997 2.887c-3.184 1.793-3.49 4.595-3.46 6.134s.338 3.024.77 4.33c.79 2.4 2.112 4.942 3.844 7.938.16.277.216.438.384.722 2.6 9.782 2.427 20.23-2.306 31.032-6.514 14.868-19.284 31.972-32.672 38.465-20.505 9.945-35.362 7.466-49.585 3.392s-28.2-13.837-44.204-27.063l-11.147-9.382 1.153 14.073c2.29 27.588-2.15 41.35-10.763 50.517s-23.13 21.39-41.897 28.94c-16.32 6.566-37.57-8.03-54.966-18.836-8.698-5.403-16.27-11.15-21.525-15.877-2.628-2.363-4.513-4.38-5.766-5.773-.626-.697-1.036-1.274-1.153-1.443.154.34.937.9 0 3.608l-11.53-3.248c-1 2.863.076 3.65.384 4.33s.473 1.016.77 1.443c.59.854 1.09 1.602 1.922 2.526 1.662 1.85 4.042 4.268 6.92 6.856 5.755 5.175 14 11.452 23.447 17.32 18.896 11.737 43.813 29.045 66.498 19.918 18.504-7.445 38.263-7.48 49.61-19.557 9.455-10.064 85.14-30.75 107.6-41.64 16.682-8.09 89.188-22.045 118.773-26.702 36.643-5.767 100.127-19.826 135.686-16.238 19.176 1.935 123.813 1.935 142.99 0 35.56-3.588 99.043 10.47 135.686 16.238 29.586 4.657 215.61 57.87 225.067 67.934 11.348 12.078 32.413 12.52 50.918 19.966 22.685 9.127 47.602-8.18 66.498-19.918 9.448-5.87 17.692-12.145 23.447-17.32 2.877-2.587 5.257-5.007 6.92-6.856.83-.924 1.33-1.672 1.922-2.526.295-.427.46-.763.77-1.443s1.375-1.467.384-4.33l-11.53 3.248c-.936-2.708-.154-3.27 0-3.608-.123.17-.526.747-1.153 1.443-1.252 1.393-3.138 3.4-5.766 5.773-5.256 4.726-12.827 10.474-21.525 15.877-17.397 10.806-38.648 25.4-54.966 18.836-18.766-7.55-33.285-19.773-41.897-28.94s-13.054-22.93-10.763-50.517l1.153-14.073-11.147 9.382c-16.004 13.226-29.98 22.99-44.204 27.063s-29.08 6.553-49.585-3.392c-13.388-6.493-26.158-23.597-32.672-38.465-4.733-10.803-4.905-21.25-2.306-31.032.168-.283.224-.445.384-.722 1.732-2.997 3.054-5.548 3.844-7.938.43-1.306.74-2.79.77-4.33s-.275-4.34-3.46-6.134l-4.997-2.887-3.46 4.69c-2.288 3.288-2.183 7.245-3.46 10.825-.233.416-.125.645-.384 1.083-3.398 5.723-9.14 13.032-16.528 20.207-14.777 14.35-35.778 30.364-59.963 26.558-32.295-5.083-47.8-27.284-54.966-45.682-2.646-6.802-2.942-12.613-3.46-18.403.97-2.59 3.325-5.632 3.844-7.938.8-3.547 1.084-6.486.77-9.382s-1.314-6.822-5.766-8.66l-2.69-1.083-2.69 1.443c-4.192 2.045-4.87 4.863-5.766 7.938s-1.097 6.7-1.153 10.825c-.02 1.535 1.054 3.747 1.153 5.413-1.66 3.983-2.645 7.472-5.766 11.908-10.72 15.235-29.977 34.085-62.654 37.383-15.023 1.516-26.06-7.688-35.747-17.176s-17.452-22.68-23.83-34.28c-.656-1.193-2.045-5.66-2.69-11.186s-.622-12.144-.77-18.403c-.293-12.517 0-23.815 0-23.815h-2.306c0-.005 0-.36 0-.36h-4.997z" class="Z"/><path d="M-4097.026-1115.11c-125.075 0-248.59 23.825-343.632 51.904-47.522 14.04-87.89 29.37-117.738 43.057-14.924 6.844-27.36 13.306-36.964 19.464s-13.275 8.072-23.296 18.894c-7.845 8.895-5.5 17.48 1.448 22.824 7.934 6.112 14.973 1.594 26.868-7.3.466-.108 1.82-2.1 9.583-7.078s19.22-11.23 33.314-17.694c28.188-12.927 67.6-27.553 114.088-41.287 92.973-27.467 214.54-50.724 336.33-50.724 121.937 0 238.266 21.525 327.203 47.775 44.47 13.125 81.868 27.524 109.98 40.697s47.758 27.07 50.655 30.67c6.553 8.144 16.973 18.29 23.274 9.82s6.097-21.937-.456-30.08c-12.552-15.598-32.274-26.148-62.064-40.108s-68.505-29.013-114.088-42.467c-91.165-26.907-209.577-48.365-334.505-48.365z" stroke-width="2.734" class="F G"/><path d="M-4102.92-1228.55v.36h-2.306a545.06 545.06 0 0 1 0 23.815c-.146 6.258-.124 12.877-.77 18.403s-2.035 9.993-2.69 11.186c-6.38 11.6-14.145 24.792-23.83 34.28s-20.725 16.383-35.747 14.867c-32.677-3.298-51.935-19.838-62.654-35.073-3.12-4.436-4.105-7.925-5.766-11.908.098-1.666 1.174-3.878 1.153-5.413-.057-4.125-.258-7.75-1.153-10.825s-1.574-5.894-5.766-7.938l-2.69-1.443-2.69 1.083c-4.45 1.838-5.45 5.764-5.766 8.66s-.03 5.835.77 9.382c.52 2.306 2.874 5.35 3.844 7.938-.517 5.8-.814 11.6-3.46 18.403-7.156 18.398-22.67 40.6-54.966 45.682-24.186 3.807-45.187-12.208-59.963-26.558-7.388-7.175-13.13-14.484-16.528-20.207-.26-.438-.152-.667-.384-1.083-1.277-3.58-1.17-7.537-3.46-10.825l-3.46-4.69-4.997 2.887c-3.184 1.793-3.49 4.595-3.46 6.134s.338 3.024.77 4.33c.79 2.4 2.112 4.942 3.844 7.938.16.277.216.438.384.722 2.6 9.782 2.427 20.23-2.306 31.032-6.514 14.868-19.284 31.972-32.672 38.465-20.505 9.945-35.362 7.466-49.585 3.392s-28.2-13.837-44.204-27.063l-11.147-9.382 1.153 14.073c2.29 27.588-2.15 41.35-10.763 50.517s-23.13 20.234-41.897 27.785c-16.32 6.566-37.57-6.875-54.966-17.68-8.698-5.403-16.27-11.15-21.525-15.877-2.628-2.363-4.513-4.38-5.766-5.773-.626-.697-1.036-1.274-1.153-1.443.154.34.937.9 0 3.608l-11.53-3.248c-1 2.863.076 3.65.384 4.33s.473 1.016.77 1.443c.59.854 1.09 1.602 1.922 2.526 1.662 1.85 4.042 4.268 6.92 6.856 5.755 5.175 14 11.452 23.447 17.32 18.896 11.737 43.813 27.89 66.498 18.764 18.504-7.445 34.778-18.594 46.125-30.67 9.455-10.064 13.06-26.005 13.07-47.27 12.775 9.923 25.356 18.404 39.207 22.372 17.292 4.953 36.35 6.418 58.8-4.474 16.682-8.09 30.473-26.938 38.054-44.24 2.66-6.073 3.38-12.36 4.228-18.764 2.007 2.272 3.046 4.227 5.38 6.495 16.388 15.914 41.525 34.462 71.1 29.805 36.643-5.767 55.928-32.015 64.19-53.26.66-1.7.237-3.015.77-4.69 12.58 17.253 35.167 35.815 70.726 39.404 19.176 1.935 34.412-7.378 45.74-18.475s19.294-25.06 25.753-36.806c6.46 11.747 14.424 25.708 25.753 36.806s26.565 20.4 45.74 18.475c35.56-3.588 58.146-22.15 70.726-39.404.532 1.676.108 2.992.77 4.69 8.263 21.245 27.548 46.338 64.19 52.105 29.586 4.657 54.722-12.736 71.1-28.65 2.335-2.268 3.374-4.223 5.38-6.495.847 6.402 1.567 12.69 4.228 18.764 7.58 17.3 21.37 33.84 38.054 41.93 22.46 10.893 41.518 11.737 58.8 6.784 13.85-3.967 26.432-12.45 39.207-22.372.01 21.265 3.613 37.206 13.07 47.27 11.348 12.078 27.62 23.226 46.125 30.67 22.685 9.127 47.602-7.027 66.498-18.764 9.448-5.87 17.692-12.145 23.447-17.32 2.877-2.587 5.257-5.007 6.92-6.856.83-.924 1.33-1.672 1.922-2.526.295-.427.46-.763.77-1.443s1.375-1.467.384-4.33l-11.53 3.248c-.936-2.708-.154-3.27 0-3.608-.123.17-.526.747-1.153 1.443-1.252 1.393-3.138 3.4-5.766 5.773-5.256 4.726-12.827 10.474-21.525 15.877-17.397 10.806-38.648 24.247-54.966 17.68-18.766-7.55-33.285-18.62-41.897-27.785s-13.054-22.93-10.763-50.517l1.153-14.073-11.147 9.382c-16.004 13.226-29.98 22.99-44.204 27.063s-29.08 4.243-49.585-5.7c-13.388-6.493-26.158-21.288-32.672-36.156-4.733-10.803-4.905-21.25-2.306-31.032.168-.283.224-.445.384-.722 1.732-2.997 3.054-5.548 3.844-7.938.43-1.306.74-2.79.77-4.33s-.275-4.34-3.46-6.134l-4.997-2.887-3.46 4.69c-2.288 3.288-2.183 7.245-3.46 10.825-.233.416-.125.645-.384 1.083-3.398 5.723-9.14 13.032-16.528 20.207-14.777 14.35-35.778 29.2-59.963 25.403-32.295-5.083-47.8-26.13-54.966-44.527-2.646-6.802-2.942-12.613-3.46-18.403.97-2.59 3.325-5.632 3.844-7.938.8-3.547 1.084-6.486.77-9.382s-1.314-6.822-5.766-8.66l-2.69-1.083-2.69 1.443c-4.192 2.045-4.87 4.863-5.766 7.938s-1.097 6.7-1.153 10.825c-.02 1.535 1.054 3.747 1.153 5.413-1.66 3.983-2.645 7.472-5.766 11.908-10.72 15.235-29.977 31.776-62.654 35.073-15.023 1.516-26.06-5.38-35.747-14.867s-17.452-22.68-23.83-34.28c-.656-1.193-2.045-5.66-2.69-11.186s-.622-12.144-.77-18.403c-.293-12.517 0-23.815 0-23.815h-2.306c0-.005 0-.36 0-.36h-4.997z" class="Z"/></g><g class="F G I O"><use xlink:href="#B"/><use xlink:href="#B" x="881.93"/></g><path d="M-3697.02-967.77c0-11.968-9.062-21.703-20.183-21.703-11.214 0-20.257 9.735-20.257 21.703 0 12.032 9.043 21.767 20.257 21.767 11.12 0 20.183-9.735 20.183-21.767zm-801.808 0c0-11.968 9.062-21.703 20.183-21.703 11.214 0 20.257 9.735 20.257 21.703 0 12.032-9.043 21.767-20.257 21.767-11.12 0-20.183-9.735-20.183-21.767z" stroke-width="3.288" class="I"/><g class="T a"><path d="M150.864 831.283l6.384-9.59 17.628 2.56-14.096 11.81z" transform="matrix(-2.599324 -.474072 -.531606 2.568688 -2765.687381 -2970.712018)"/><path d="M150.864 831.283l6.384-9.59 17.628 2.56-14.096 11.81z" transform="matrix(2.599324 -.474072 .531606 2.568687 -5430.160009 -2970.712133)"/></g><g transform="matrix(2.617052 0 0 2.456774 2378.516162 -1632.254708)" class="K"><g class="G F"><path d="M-2366.3 39.993c145.98-30.773 150.37 110.518 119.513 168.79l-6.72-4.613c2.805-15.594 16.073-51.368-.333-81.068-27.88-50.472-74.8-66.48-110.272-65.68z"/><path d="M-2366.757 35.89c140.657-13.55 161.7 115.373 130.844 173.646l-11.353-9.46c6.732-7.033 15.68-46.663 3.915-74.462-25.84-61.054-80.792-75.573-121.218-72.292z"/><use xlink:href="#C"/><g class="I"><use xlink:href="#D"/><use xlink:href="#E"/><use xlink:href="#F"/><path d="M-2355.848 40.45a7.3 7.3 0 0 1-10.948 6.323 7.3 7.3 0 0 1 0-12.645 7.3 7.3 0 0 1 10.948 6.323z"/></g></g><g transform="matrix(-1 0 0 1 -2994.1323 -425.31401)"><g class="F G"><path d="M-411.016 465.307c145.98-30.773 150.37 110.518 119.513 168.79l-6.72-4.613c9-29.558 12.223-57.376-.333-81.068-27-50.95-74.8-66.48-110.272-65.68z"/><path d="M-411.472 461.203c140.657-13.55 161.7 115.373 130.844 173.646l-11.353-9.46c8.858-9.877 14.26-47.383 3.915-74.462-23.658-61.932-80.792-75.573-121.218-72.292z"/><use xlink:href="#C" x="1955.285" y="425.315"/></g><use xlink:href="#G" class="I b"/><g class="G F"><g class="I"><use xlink:href="#H"/><use xlink:href="#I"/><use xlink:href="#J"/><g stroke-width="1"><use xlink:href="#K"/><use xlink:href="#K" x="-15.507" y="-22.805"/><use xlink:href="#K" x="-33.749" y="-43.328"/></g><use xlink:href="#L"/><use xlink:href="#D" x="1955.284" y="425.313"/><use xlink:href="#E" x="1955.284" y="425.314"/><use xlink:href="#F" x="1955.275" y="425.315"/><path d="M-400.563 465.763a7.3 7.3 0 0 1-10.948 6.323 7.3 7.3 0 0 1 0-12.645 7.3 7.3 0 0 1 10.948 6.323z"/></g><use xlink:href="#M"/><use xlink:href="#N"/><g class="I"><use xlink:href="#H" x="-127.64" y="-63.962"/><use xlink:href="#O"/><use xlink:href="#O" x="-9" y="-27"/><use xlink:href="#P"/><use xlink:href="#Q"/><use xlink:href="#R"/><use xlink:href="#S"/><use xlink:href="#T"/><use xlink:href="#U"/></g><g transform="matrix(-1 0 0 1 -1037.2813 0)"><use xlink:href="#M"/><use xlink:href="#N"/><g class="I"><use xlink:href="#H" x="-127.64" y="-63.962"/><use xlink:href="#O"/><use xlink:href="#O" x="-9" y="-27"/><use xlink:href="#P"/><use xlink:href="#Q"/><use xlink:href="#R"/><use xlink:href="#S"/><use xlink:href="#T"/><use xlink:href="#U"/></g></g></g></g><g class="G F"><g class="I"><use xlink:href="#H" x="-1955.284" y="-425.314"/><use xlink:href="#I" x="-1955.285" y="-425.314"/><use xlink:href="#J" x="-1955.285" y="-425.313"/><g stroke-width="1"><use xlink:href="#K" x="-1955.284" y="-425.315"/><use xlink:href="#K" x="-1970.791" y="-448.12"/><use xlink:href="#K" x="-1989.034" y="-468.642"/></g><use xlink:href="#L" x="-1955.285" y="-425.314"/></g><g class="c"><path d="M-2447.13 73.7c.005 25.64-5.212 49.34-13.684 62.162s-18.912 12.824-27.384 0-13.69-36.522-13.684-62.162c-.005-25.64 5.212-49.34 13.684-62.162s18.912-12.824 27.384 0 13.69 36.522 13.684 62.162z" opacity=".96"/><path d="M-2453.796 73.69c.004 21.425-3.943 41.226-10.352 51.942s-14.307 10.715-20.716 0-10.356-30.517-10.352-51.942c-.004-21.425 3.943-41.226 10.352-51.942s14.307-10.715 20.716 0 10.356 30.517 10.352 51.942z" opacity=".96"/></g></g><g class="I"><g class="b"><use xlink:href="#G" x="-1955.284" y="-425.313"/><path d="M-2484.223 41.86c.094-4.76 4.26-8.533 9.283-8.445 5.03.088 9.045 4.006 8.95 8.764-.095 4.81-4.262 8.583-9.29 8.495-5.022-.088-9.038-4.005-8.943-8.815z"/><path d="M-2487.418 56.153c.127-6.426 5.754-11.523 12.537-11.404 6.792.12 12.214 5.41 12.088 11.836-.128 6.494-5.755 11.59-12.548 11.472-6.782-.12-12.205-5.41-12.077-11.904z"/><path d="M-2488.692 70.937c.132-7.37 6.324-13.208 13.805-13.064 7.52.146 13.5 6.22 13.368 13.6-.133 7.46-6.325 13.286-13.845 13.14-7.48-.145-13.46-6.206-13.327-13.667z"/></g><path d="M-2489.915 82.8c.144-8.034 6.893-14.398 15.048-14.24 8.198.16 14.715 6.78 14.57 14.814-.145 8.133-6.895 14.483-15.092 14.324-8.155-.158-14.672-6.765-14.527-14.898z" class="d"/><g class="F G"><use xlink:href="#U" x="-1955.284" y="-425.315"/><use xlink:href="#V"/></g><path d="M-2492.362 106.24c.167-9.362 8.032-16.777 17.534-16.593 9.552.185 17.146 7.9 16.98 17.262-.17 9.477-8.034 16.876-17.586 16.69-9.502-.184-17.097-7.883-16.927-17.36z" class="d"/></g><use xlink:href="#V" class="F G"/></g><g transform="matrix(2.488358 -.727919 .825063 2.485549 -2523.840542 -2390.271503)"><use xlink:href="#W" class="K U"/><use xlink:href="#X" class="I V"/></g><g transform="matrix(-2.488358 -.727919 -.825063 2.485549 -5672.007195 -2390.271503)"><use xlink:href="#W" class="K U"/><use xlink:href="#X" class="I V"/></g><g class="K"><use xlink:href="#Y" transform="matrix(-1.933567 1.864633 1.986279 1.815149 -7062.205356 135.599114)"/><path d="M-4669.972-1103.163c-13.573-12.403-35.217-12.097-48.397.613s-12.968 33.073.604 45.476c13.586 12.415 35.267 12.14 48.49-.61 13.18-12.7 12.887-33.063-.698-45.478z" class="I e"/><use xlink:href="#Y" transform="matrix(1.933567 1.864633 -1.986279 1.815149 -1133.641954 135.599114)"/><path d="M-3525.875-1103.163c13.573-12.403 35.217-12.097 48.397.613s12.968 33.073-.604 45.476c-13.586 12.415-35.267 12.14-48.49-.61-13.18-12.7-12.887-33.063.698-45.478z" class="I e"/></g><g class="S a"><use xlink:href="#Z" transform="matrix(-3.5075 -.404867 -.402366 2.837546 -2675.004803 -3211.504187)"/><use xlink:href="#Z" transform="matrix(3.5075 -.404867 .402366 2.837546 -5517.840532 -3211.504187)"/></g><g class="I"><path d="M-4253.3-1026.86c0-11.682 8.827-21.185 19.702-21.185 10.947 0 19.8 9.503 19.8 21.185 0 11.663-8.845 21.247-19.8 21.247-10.875 0-19.702-9.584-19.702-21.247zm310.734 0c0-11.682-8.827-21.185-19.702-21.185-10.947 0-19.8 9.503-19.8 21.185 0 11.663 8.845 21.247 19.8 21.247 10.875 0 19.702-9.584 19.702-21.247z" stroke-width="3.486"/><g class="F G O"><use xlink:href="#B" x="289.671" y="-78.315"/><use xlink:href="#B" x="592.259" y="-78.315"/></g></g><g transform="matrix(2.606374 0 0 2.603432 -5067.990811 -1666.0588)" class="B"><path d="M372.222 118.137c-5.652 4.64-8.498 4.642-10.5 10.813 0 0-1.033-1.303-4.97-2.594-3.92-1.29-6.97-.78-6.97-.78s2.147 5.19 3.063 7c.9 1.816 2.098 7.504 4.53 12.406.017.034-8.166-2.53-9.656-3.28-1.81-.92-7-3-7-3s-.5 3.002.78 6.938c1.29 3.942 2.594 4.97 2.594 4.97-6.816 3.3-6.172 4.764-10.812 10.438 4.64 5.652 4.642 8.498 10.813 10.5 0 0-1.303 1.033-2.594 4.97-1.29 3.92-.78 6.97-.78 6.97s5.19-2.116 7-3.03c1.816-.9 7.504-2.13 12.406-4.562 2.467-1.258 1.734.192 12.063-7.72 0 0 7.125 5.313 12.063 7.72 4.903 2.434 10.59 3.663 12.406 4.563 1.81.915 6.97 3.03 6.97 3.03s.5-3.05-.78-6.97c-1.29-3.936-2.562-4.97-2.562-4.97 6.17-2.002 6.172-4.848 10.813-10.5-4.64-5.673-3.997-7.14-10.812-10.437 0 0 1.27-1.027 2.563-4.97 1.29-3.936.78-6.937.78-6.937s-5.158 2.08-6.97 3c-1.485.75-5.57 1.718-9.687 3.375.014-.03 3.678-10.684 4.594-12.5.92-1.81 3-7 3-7s-3.002-.5-6.937.78c-3.942 1.29-4.97 2.594-4.97 2.594-3.3-6.816-4.764-6.172-10.437-10.812z" class="K U"/><use xlink:href="#X" x="1205.862" y="-78.699" class="I V"/><g stroke-width=".722"><path d="M362.78 134.308l4.644 10.266m14.176-10.5l-4.644 10.266M372.2 127.7v15.4m-4.677-10.55l2.785 11.457m6.55-11.457l-2.784 11.457"/><path d="M140.177 185.148l4.644 10.266" transform="matrix(0 -.939817 1.064036 0 153.558353 296.744496)"/><path d="M140.177 185.148l4.644 10.266" transform="matrix(0 .939817 1.064036 0 153.298277 15.575043)"/><path d="M149.22 178.55v15.4" transform="matrix(0 -.939817 1.064036 0 153.558353 296.399925)"/><path d="M144.572 183.4l2.785 11.457" transform="matrix(0 -.939817 1.064036 0 153.558353 296.417971)"/><path d="M144.572 183.4l2.785 11.457" transform="matrix(0 .939817 1.064036 0 153.558353 15.901569)"/><path d="M140.177 185.148l4.644 10.266" transform="matrix(0 -.939817 -1.064036 0 590.822125 296.744496)"/><path d="M140.177 185.148l4.644 10.266" transform="matrix(0 .939817 -1.064036 0 591.082201 15.575043)"/><path d="M149.22 178.55v15.4" transform="matrix(0 -.939817 -1.064036 0 590.822125 296.399925)"/><path d="M144.572 183.4l2.785 11.457" transform="matrix(0 -.939817 -1.064036 0 590.822125 296.417971)"/><path d="M144.572 183.4l2.785 11.457" transform="matrix(0 .939817 -1.064036 0 590.822125 15.901569)"/><path d="M140.177 185.148l4.22 9.326" transform="matrix(.951816 -.288214 .326308 .951816 44.971064 25.59121)"/><path d="M140.177 185.148l4.644 10.266" transform="matrix(-.951816 .288214 .326308 .951816 329.650376 -60.867762)"/><path d="M149.22 178.55v15.4" transform="matrix(.951816 -.288214 .326308 .951816 45.320035 25.48554)"/><path d="M144.572 183.4l2.555 10.513" transform="matrix(.951816 -.288214 .326308 .951816 45.301758 25.491074)"/><path d="M144.572 183.4l2.546 10.476" transform="matrix(-.951816 .288214 .326308 .951816 329.399439 -60.53498)"/><path d="M144.572 183.4l2.505 10.307" transform="matrix(.30667 .894533 1.012767 -.30667 1.03174 109.016801)"/><path d="M140.177 185.148l4.644 10.266" transform="matrix(-.30667 -.894533 1.012767 -.30667 92.673119 376.327537)"/><path d="M140.177 185.148l4.12 9.106" transform="matrix(.30667 .894533 1.012767 -.30667 .677647 108.780967)"/><path d="M149.22 178.55v15.4" transform="matrix(-.30667 -.894533 1.012767 -.30667 92.560682 375.999568)"/><path d="M144.572 183.4l2.507 10.317" transform="matrix(-.30667 -.894533 1.012767 -.30667 92.566571 376.016745)"/><path d="M140.177 185.148l4.644 10.266" transform="matrix(-.30667 -.894533 -1.012767 .30667 508.867685 250.301953)"/><path d="M140.177 185.148l4.216 9.32" transform="matrix(.30667 .894533 -1.012767 .30667 417.367303 -17.394532)"/><path d="M149.22 178.55v15.4" transform="matrix(-.30667 -.894533 -1.012767 .30667 508.755249 249.973984)"/><path d="M144.572 183.4l2.785 11.457" transform="matrix(-.30667 -.894533 -1.012767 .30667 508.761137 249.991161)"/><path d="M144.572 183.4l2.586 10.64" transform="matrix(.30667 .894533 -1.012767 .30667 417.226306 -17.008783)"/><path d="M140.177 185.148l4.22 9.326" transform="matrix(-.951816 -.288214 -.326308 .951816 699.877416 25.59121)"/><path d="M140.177 185.148l4.644 10.266" transform="matrix(.951816 .288214 -.326308 .951816 415.198104 -60.867762)"/><path d="M149.22 178.55v15.4" transform="matrix(-.951816 -.288214 -.326308 .951816 699.528445 25.48554)"/><path d="M144.572 183.4l2.555 10.513" transform="matrix(-.951816 -.288214 -.326308 .951816 699.546722 25.491074)"/><path d="M144.572 183.4l2.546 10.476" transform="matrix(.951816 .288214 -.326308 .951816 415.449041 -60.53498)"/><path d="M144.572 183.4l2.505 10.307" transform="matrix(-.30667 .894533 -1.012767 -.30667 743.81674 109.016801)"/><path d="M140.177 185.148l4.644 10.266" transform="matrix(.30667 -.894533 -1.012767 -.30667 652.175361 376.327537)"/><path d="M140.177 185.148l4.12 9.106" transform="matrix(-.30667 .894533 -1.012767 -.30667 744.170833 108.780967)"/><path d="M149.22 178.55v15.4" transform="matrix(.30667 -.894533 -1.012767 -.30667 652.287798 375.999568)"/><path d="M144.572 183.4l2.507 10.317" transform="matrix(.30667 -.894533 -1.012767 -.30667 652.281909 376.016745)"/><path d="M140.177 185.148l4.644 10.266" transform="matrix(.30667 -.894533 1.012767 .30667 235.980795 250.301953)"/><path d="M140.177 185.148l4.216 9.32" transform="matrix(-.30667 .894533 1.012767 .30667 327.481177 -17.394532)"/><path d="M149.22 178.55v15.4" transform="matrix(.30667 -.894533 1.012767 .30667 236.093231 249.973984)"/><path d="M144.572 183.4l2.785 11.457" transform="matrix(.30667 -.894533 1.012767 .30667 236.087343 249.991161)"/><path d="M144.572 183.4l2.586 10.64" transform="matrix(-.30667 .894533 1.012767 .30667 327.622174 -17.008783)"/><path d="M140.177 185.148l4.22 9.326" transform="matrix(.748325 -.623411 .70581 .748325 -114.24721 164.826574)"/><path d="M140.177 185.148l4.644 10.266" transform="matrix(-.748325 .623411 .70581 .748325 109.460046 -21.865163)"/><path d="M149.22 178.55v15.4" transform="matrix(.748325 -.623411 .70581 .748325 -113.972846 164.598008)"/><path d="M144.572 183.4l2.555 10.513" transform="matrix(.748325 -.623411 .70581 .748325 -113.987216 164.609979)"/><path d="M144.572 183.4l2.546 10.476" transform="matrix(-.748325 .623411 .70581 .748325 109.372568 -21.46566)"/><path d="M140.177 185.148l4.644 10.266" transform="matrix(-.519969 -.802778 -.908884 .519969 409.499017 238.686205)"/><path d="M140.177 185.148l4.216 9.32" transform="matrix(.519969 .802778 -.908884 .519969 254.159699 -1.611673)"/><path d="M149.22 178.55v15.4" transform="matrix(-.519969 -.802778 -.908884 .519969 409.308377 238.391877)"/><path d="M144.572 183.4l2.785 11.457" transform="matrix(-.519969 -.802778 -.908884 .519969 409.318362 238.407292)"/><path d="M144.572 183.4l2.586 10.64" transform="matrix(.519969 .802778 -.908884 .519969 254.118202 -1.205667)"/><path d="M140.177 185.148l4.22 9.326" transform="matrix(-.748325 -.623411 -.70581 .748325 859.17266 164.826574)"/><path d="M140.177 185.148l4.644 10.266" transform="matrix(.748325 .623411 -.70581 .748325 635.465404 -21.865163)"/><path d="M149.22 178.55v15.4" transform="matrix(-.748325 -.623411 -.70581 .748325 858.898296 164.598008)"/><path d="M144.572 183.4l2.555 10.513" transform="matrix(-.748325 -.623411 -.70581 .748325 858.912666 164.609979)"/><path d="M144.572 183.4l2.546 10.476" transform="matrix(.748325 .623411 -.70581 .748325 635.552882 -21.46566)"/><path d="M140.177 185.148l4.644 10.266" transform="matrix(.519969 -.802778 .908884 .519969 335.426433 238.686205)"/><path d="M140.177 185.148l4.216 9.32" transform="matrix(-.519969 .802778 .908884 .519969 490.765751 -1.611673)"/><path d="M149.22 178.55v15.4" transform="matrix(.519969 -.802778 .908884 .519969 335.617073 238.391877)"/><path d="M144.572 183.4l2.785 11.457" transform="matrix(.519969 -.802778 .908884 .519969 335.607088 238.407292)"/><path d="M144.572 183.4l2.586 10.64" transform="matrix(-.519969 .802778 .908884 .519969 490.807248 -1.205667)"/></g></g><path d="M-4098.002-1004.493l-80.28-31.923 80.28-31.983 80.438 31.983z" class="O T"/><g class="K"><g class="F G"><path d="M-4136.436-1769.11s38.827 39.294 27.15 52.713c-11.897 13.672-57.014-19.975-57.014-19.975v55.252s42.236-30.427 57.014-19.94v174.784h20.963v-174.784c14.777-10.487 57.014 19.94 57.014 19.94v-55.252s-45.117 33.647-57.014 19.975c-11.677-13.42 27.15-52.713 27.15-52.713z" stroke-width="3.108"/><path d="M-4108.952-1657.12v129.597h21.94l.116-129.597z" class="O"/></g><path d="M-4030.34-1601.285c-16.52-3.488-45.65-7.09-68.53-7.234-23.215-.332-49.208 3.425-66.68 7.234-.636 3.38-2.414 7.708-2.414 11.252 0 3.562 1.767 6.074 2.414 9.473 21.45-4.53 34-7.14 67.123-7.014 38.163.144 67.515 5.853 68.088 7.446.7-3.53 2.658-6.492 2.658-10.2 0-3.545-2.023-7.574-2.658-10.956z" class="O"/><path d="M-4094.554-985.956c-125.068 0-248.602 24.804-343.64 54.06-47.52 14.628-71.244 30.648-101.1 44.9-8.205 3.92-15.532 7.66-22.176 11.355-.06-.04-.107-.2-.173-.17-22.068 9.745-24.048 29.62 0 37.538.056.02.124-.052.173-.085 6.634 3.687 13.987 7.44 22.176 11.355 29.846 14.262 80.68 38.057 101.1 44.825 92.286 30.6 218.57 54.06 343.64 54.06 124.92 0 243.384-22.297 334.544-50.333 45.58-14.018 67.577-29.772 97.365-44.317 10.638-5.194 19.95-9.97 28.153-14.66 23.805-10.592 23.07-29.092 0-39.232-8.202-4.69-17.515-9.465-28.153-14.66-29.788-14.545-51.785-30.214-97.365-44.232-91.16-28.036-209.622-50.417-334.544-50.417z" class="F G f"/><path d="M-4225.573-757.266V-953.07" class="g"/><path d="M-4248.62-762.58v-190.49" class="h"/><path d="M-4270.373-765.334V-947.7" class="i"/><path d="M-4291.94-770.65v-171.8" class="j"/><path d="M-4311.156-770.553V-942.44" class="k"/><path d="M-4347.806-779.84l-.508-154.71m17.882 157.404v-163.972" class="l"/><path d="M-4381.642-788.8v-139.01m17.143 144.27l-.508-150.838" class="m"/><path d="M-4427.037-802.043V-915.96m14.895 119.27v-124.532m15.345 127.2v-128.524" class="n"/><path d="M-4442.947-806.024v-105.983" class="o"/><path d="M-4457.783-811.26v-98.117" class="p"/><path d="M-4473.693-817.903v-84.905" class="q"/><path d="M-4506.268-829.7l-.508-57.178m17.2 65.065V-894.9" class="r"/><path d="M-4522.96-836.227v-46.842" class="s"/><path d="M-4538.247-841.223v-36.24" class="t"/><path d="M-4554.94-849.12v-21.758" class="u"/><path d="M-4572.098-857.07v-3.285" class="v"/><path d="M-4133.884-753.264v-209.1m-39.042 205.056l.507-202.377m-28.963 199.693V-955.63" class="w"/><path d="M-3970.275-759.923V-953.07" class="g"/><path d="M-3947.23-762.645V-953.07" class="h"/><path d="M-3925.475-762.58v-190.49" class="i"/><path d="M-3903.908-765.238v-182.58" class="j"/><path d="M-3884.692-770.617V-942.44" class="k"/><path d="M-3848.042-774.428l.508-162.8m-17.883 162.783v-166.662" class="l"/><path d="M-3814.206-788.735v-139.073m-17.143 149.65l.507-156.217" class="m"/><path d="M-3768.81-796.664V-915.96m-14.895 121.928v-127.2m-15.345 129.793v-133.807" class="n"/><path d="M-3752.9-800.58v-111.426" class="o"/><path d="M-3738.064-808.537v-100.84" class="p"/><path d="M-3722.154-812.492v-90.316" class="q"/><path d="M-3689.58-824.29l.508-68m-17.2 73.197v-81.1" class="r"/><path d="M-3672.887-830.88v-54.88" class="s"/><path d="M-3657.6-838.566v-41.652" class="t"/><path d="M-3640.908-843.773V-870.9" class="u"/><path d="M-3623.75-851.66v-14.075" class="v"/><path d="M-4061.964-750.575v-209.1m39.043 207.714l-.507-207.724m28.963 205.04V-955.76" class="w"/><path d="M-4094.554-985.956c-125.068 0-248.602 24.804-343.64 54.06-47.52 14.628-107.216 48.156-123.266 56.264-.06-.04-.108-.2-.173-.17-21.213 9.745-24.048 29.62 0 37.538.056.02.124-.052.173-.085 6.634 3.687 74.892 39.143 123.266 56.18 93.644 32.98 218.57 54.06 343.64 54.06 124.92 0 243.384-22.297 334.544-50.333 45.58-14.018 67.577-29.772 97.365-44.317 10.638-5.194 19.95-9.97 28.153-14.66 23.805-10.592 23.07-29.092 0-39.232-8.202-4.69-17.515-9.465-28.153-14.66-29.788-14.545-51.785-30.214-97.365-44.232-91.16-28.036-209.622-50.417-334.544-50.417zm0 33.386c121.93 0 238.248 22.473 327.18 49.824 44.466 13.675 65.27 28.642 93.38 42.368l6.583 3.305-6.583 3.39c-28.11 13.726-48.914 28.777-93.38 42.452-88.933 27.35-205.25 49.74-327.18 49.74-121.784 0-243.308-24.255-336.276-52.875-46.116-14.197-68.62-29.232-96.76-42.622 28.14-13.4 50.64-28.5 96.76-42.707 92.968-28.62 214.493-52.875 336.276-52.875z" class="F G f"/></g><path d="M-4763.978-848.5l4.787 1304.976c3.484 30.546 20.27 46.527 31.597 56.735 19.29 17.384 170.677 83.893 316.37 139.055 35.274 13.356 118.285 46.466 184.476 73.5l103.053 40.475c22.723 6.402 38.267 6.158 50.803 0 24.516-8.81 63.606-24.064 103.788-40.475l184.476-73.5c145.693-55.162 297.002-121.67 316.29-139.055 11.326-10.208 31.527-15.85 31.677-56.735l4.787-1304.976z" stroke-width="7.901" class="S"/></g><g transform="matrix(.258605 0 0 .258605 278.786798 133.331854)" class="K"><g class="D"><g transform="matrix(0 .614894 .742928 0 -39.465621 647.47304)"><path d="M207.307 553.63h10.53c.104 1.826 1.22 6.847 5.9 6.886l25.52-6.886h62.79c7.976 3.135 16.237 5.584 24.84 7.222 3.967-.4 6.623-2.424 6.838-7.202l8.544-.02c.47 3.854-.352 7.477-1.13 11.118-2.15 4.325-5.523 5.847-9.09 7.48-3.67 1.31-6.984.548-10.24-.044l-21.002-6.634-6.536.13h-59.034c-7.9 2.34-15.8 4.84-23.913 5.528-7.588-1.335-14.7-8.527-14.014-17.576z" class="C"/><path d="M352.393 553.076c.47 3.858-.467 8.03-1.244 11.673-2.147 4.33-5.514 5.854-9.074 7.487-3.663 1.31-6.973.548-10.224-.044l-20.97-6.64-6.526.13h-58.94c-7.898 2.343-15.776 4.845-23.875 5.534-7.576-1.337-14.677-8.536-13.992-17.595m10.512 0c.104 1.828 1.218 6.854 5.9 6.893l25.452-6.524 62.912.028c7.963 3.138 16.018 5.193 24.606 6.833 3.96-.402 6.544-2.6 6.758-7.383" class="B L"/></g><g transform="matrix(-.602964 0 0 .735531 470.55129 184.54563)"><use xlink:href="#a" class="C"/><path d="M352.357 553.358c.48 3.854-.456 7.75-1.253 11.39-2.203 4.325-5.657 5.847-9.3 7.48-3.758 1.31-7.154.548-10.49-.044l-21.512-6.634-6.695.13H242.63c-8.102 2.34-16.185 4.84-24.493 5.528-7.772-1.335-15.057-8.527-14.354-17.576m10.784 0c.107 1.826 1.25 6.847 6.042 6.886l26.11-6.517 64.542.028c8.17 3.135 16.34 5.04 25.15 6.677 4.063-.4 6.784-2.424 7.004-7.202" class="B R"/></g></g><path d="M162.765 376.486l-.042 7.68c2.245-.09 4.904.772 5.052 3.97l-5 18.934v28.73l8.975-.208v-31.444c1.744-5.745 3.605-11.477 4.118-17.368.02-5.625-5.934-10.336-13.093-10.292z"/><path d="M171.99 436.297l.066-31.706c1.744-5.745 3.605-11.477 4.118-17.368.02-5.625-6.04-10.336-13.198-10.292m-.09 7.746c2.245-.09 5.056.706 5.203 3.902l-4.8 18.914-.067 29.63" class="B D W"/><path d="M161.99 428.467V452.1c2.455 6.07 4.374 12.357 5.657 18.902-.314 3.02-1.915 4.966-5.657 5.13v6.487c3.02.357 5.857-.18 8.71-.77 3.388-1.636 4.58-4.203 5.86-6.917 1.025-2.792.43-5.315-.035-7.793l-5.196-15.982.09-22.866-9.428.186z"/><path d="M162.988 482.358c2.87.345 5.68-.218 8.4-.79 3.22-1.58 4.353-4.06 5.568-6.68.975-2.696.408-5.132-.033-7.525l-4.938-15.434.038-22.066m-8.753.102l-.052 22.937c2.333 5.86 4.052 11.872 5.27 18.193-.3 2.915-1.9 4.762-5.458 4.92" class="B D W"/><path d="M162.866 466.716v7.904c-1.36.078-5.097.916-5.126 4.428l5.126 19.157v47.135c-2.334 5.987-4.157 12.19-5.377 18.646.3 2.978 1.805 4.972 5.362 5.133l.015 6.414c-2.87.352-5.566-.265-8.277-.85-3.22-1.614-4.353-4.146-5.568-6.823-.975-2.754-.408-5.243.033-7.687l4.94-15.765-.096-4.907v-44.315c-1.743-5.938-3.603-11.86-4.116-17.95.994-5.696 6.348-11.035 13.085-10.52z"/><use xlink:href="#b" transform="matrix(0 .732867 -.744485 0 575.03434 317.36972)" class="B D H"/><path d="M162.453 466.674l-.042 7.936c2.244-.094 4.902.798 5.05 4.102l-5.007 19.568v29.694l8.97-.215v-32.497c1.743-5.938 3.603-11.86 4.116-17.95.02-5.814-5.93-10.682-13.085-10.637z"/><path d="M171.357 528.03l.066-32.768c1.743-5.938 3.603-11.86 4.116-17.95.02-5.814-6.035-10.682-13.2-10.637m-.09 8.005c2.244-.094 5.053.73 5.2 4.033l-4.796 19.547-.067 30.622" stroke-width="1.022" class="B D"/><g transform="matrix(0 .703871 .730522 0 452.39289 485.24822)"><use xlink:href="#c"/><use xlink:href="#d" stroke-width="1.395" class="B D"/></g><g transform="matrix(0 .606757 .732305 0 453.10329 519.52368)"><use xlink:href="#e"/><use xlink:href="#f" stroke-width="1.5" class="B D"/></g><path d="M163.02 652.104v18.868c-2.297 4.847-4.09 9.87-5.292 15.097.294 2.41 1.79 3.966 5.292 4.097v5.18c-2.824.285-5.478-.143-8.146-.616-3.17-1.307-4.284-3.357-5.48-5.524-.96-2.23-.4-4.245.032-6.224l4.86-12.765-.085-18.262 8.818.15z"/><use xlink:href="#d" stroke-width="1.517" transform="matrix(0 .593379 .732681 0 452.94512 447.50514)" class="B D"/><path d="M162.602 610.195v6.186c1.34.06 5.025.717 5.054 3.466l-5.054 14.994v36.893c2.3 4.686 4.1 9.54 5.3 14.594-.294 2.33-1.78 3.892-5.286 4.018l-.015 5.02c2.828.276 5.488-.207 8.16-.664 3.174-1.263 4.292-3.245 5.5-5.34.96-2.156.402-4.104-.032-6.017l-4.87-12.34.095-3.84V632.48c1.718-4.648 3.552-9.284 4.057-14.05-.98-4.458-6.26-8.637-12.9-8.234z"/><use xlink:href="#g" stroke-width="1.541" transform="matrix(0 .573631 .73397 0 -243.74502 493.29874)" class="B D"/><g transform="matrix(1.254532 1.06966 -.822067 .990595 598.87334 66.492076)"><use xlink:href="#h"/><use xlink:href="#i" class="B D E"/></g><path d="M531.5 408.165l-13.867 16.7c-1.726 5.86-3.98 11.53-6.863 16.98-2.007 1.935-4.348 2.29-7.244.02l-3.808 4.59c2.05 2.18 4.487 3.6 6.97 5.01 3.496 1.004 5.894-.05 8.444-1.155 2.406-1.32 3.44-3.486 4.55-5.534l5.494-14.62 13.49-16.116-7.164-5.883z"/><g class="D"><use xlink:href="#j" transform="matrix(1.254532 1.06966 -.822067 .990595 598.87333 66.492054)" class="B E"/><g transform="matrix(-.430688 .511194 -.576693 -.484331 862.32344 664.66597)"><use xlink:href="#a" class="C"/><use xlink:href="#b" class="H"/></g><g transform="matrix(-.430688 .511194 -.576693 -.484331 397.36426 106.2877)"><use xlink:href="#c" class="C"/><use xlink:href="#d" class="B H"/></g><g transform="matrix(-.430688 .511194 -.576693 -.484331 916.97738 599.79592)"><use xlink:href="#a" class="C"/><use xlink:href="#b" class="B H"/></g></g><path d="M509.64 435.53l-4.697 5.508c1.793 1.394 3.328 3.745 1.5 6.146l-15.378 10.392-17.45 20.712 7.074 5.685 19.098-22.668c4.84-3.008 9.762-5.93 13.737-9.844 3.432-4.042 1.684-11.31-3.885-15.933z"/><use xlink:href="#i" x="-0.374" y="64.455" transform="matrix(1.298033 1.090143 -.850572 1.009564 602.51464 59.095465)" class="B D E"/><path d="M454.987 500.4L450.3 505.9c1.793 1.394 3.328 3.745 1.5 6.146l-15.378 10.392-17.45 20.712 7.074 5.685 19.098-22.668c4.84-3.008 9.762-5.93 13.737-9.844 3.432-4.042 1.684-11.31-3.885-15.933z"/><use xlink:href="#i" x="-0.374" y="64.455" transform="matrix(1.298033 1.090143 -.850572 1.009564 547.86071 123.9655)" class="B D E"/><path d="M211.225 407.312l14.323 17.03c1.782 5.972 4.11 11.752 7.09 17.305 2.073 1.972 4.49 2.335 7.482.02l3.933 4.676c-2.116 2.22-4.635 3.68-7.198 5.107-3.61 1.023-6.088-.052-8.72-1.177-2.485-1.346-3.554-3.552-4.698-5.64l-5.674-14.9-13.934-16.425 7.4-5.995z"/><g class="D"><use xlink:href="#j" transform="matrix(-1.295792 1.090143 .849104 1.009564 141.63411 59.095465)" class="B E"/><g transform="matrix(.429945 .511194 .575698 -.484331 -117.72625 664.66597)"><use xlink:href="#a" class="C"/><use xlink:href="#b" class="H"/></g><g transform="matrix(.429945 .511194 .575698 -.484331 346.4304 106.2877)"><use xlink:href="#c" class="C"/><use xlink:href="#d" class="B H"/></g><g transform="matrix(.429945 .511194 .575698 -.484331 -172.28586 599.79592)"><use xlink:href="#a" class="C"/><use xlink:href="#b" class="B H"/></g></g><path d="M177.36 368.945l4.732 5.636c1.12-.848 4.57-2.737 6.697-.252l7.424 17.07 28.22 33.612c5.426 2.717 10.58 5.927 15.407 9.72 1.547 2.322 1.553 4.746-1.158 7.226l3.828 4.584c2.475-1.657 4.235-3.89 6.024-6.1 1.575-3.293.953-5.852.31-8.57-.88-2.612-2.817-4-4.628-5.46l-13.336-7.958-2.862-3.563-26.532-31.6c-2.18-5.393-4.258-10.855-7.5-15.538-4.195-3.4-11.617-3.647-16.625 1.2z"/><use xlink:href="#k" transform="matrix(-1.316131 1.118639 .862432 1.035954 139.92733 48.945094)" class="B D E"/><path d="M234.348 435.53l4.69 5.508c-1.8 1.394-3.322 3.745-1.498 6.146l15.352 10.392L270.3 478.3l-7.062 5.685-19.065-22.668c-4.83-3.008-9.745-5.93-13.713-9.844-3.427-4.042-1.68-11.31 3.878-15.933z"/><use xlink:href="#i" x="-0.374" y="64.455" transform="matrix(-1.295792 1.090143 .849104 1.009564 141.63411 59.095465)" class="B D E"/><path d="M288.908 500.4l4.69 5.508c-1.8 1.394-3.322 3.745-1.498 6.146l15.352 10.392 17.42 20.712-7.062 5.685-19.065-22.668c-4.83-3.008-9.745-5.93-13.713-9.844-3.427-4.042-1.68-11.31 3.878-15.933z"/><use xlink:href="#i" x="-0.374" y="64.455" transform="matrix(-1.295792 1.090143 .849104 1.009564 196.19371 123.9655)" class="B D E"/><path d="M320.816 640.3l-13.905 14.63c-1.793 5.45-4.103 10.663-7.026 15.6-2.004 1.653-4.3 1.758-7.12-.717l-3.818 4.018c1.977 2.3 4.35 3.92 6.765 5.516 3.42 1.318 5.793.55 8.317-.252 2.386-1.023 3.44-2.996 4.562-4.85l5.64-13.475 13.525-14.1-6.942-6.373z"/><g class="D"><use xlink:href="#j" transform="matrix(1.215107 1.153898 -.824294 .867335 392.69404 319.19942)" class="B E"/><g transform="matrix(-.417382 .439177 -.539851 -.512656 682.56478 859.22772)"><use xlink:href="#a" class="C"/><use xlink:href="#b" class="H"/></g></g><g transform="matrix(1.215107 1.153898 -.824294 .867335 392.69404 319.19942)"><use xlink:href="#l"/><use xlink:href="#k" class="B D E"/><use xlink:href="#m"/><use xlink:href="#i" x="-0.374" y="64.455" class="B D E"/></g><g transform="matrix(-.479792 .464438 -.620573 -.542145 132.65481 378.91578)" class="D"><use xlink:href="#c" class="C"/><use xlink:href="#d" class="B H"/></g><path d="M245.39 720.325l-4.55 4.727c1.68 1.49 3.1 3.854 1.325 5.935l-14.775 8.278-16.91 17.794 6.627 6.048 18.508-19.474c4.646-2.358 9.368-4.627 13.207-7.923 3.326-3.47 1.783-10.485-3.43-15.385z"/><g class="D"><use xlink:href="#i" x="-0.374" y="64.455" transform="matrix(1.215107 1.153898 -.824294 .867335 339.72863 374.93048)" class="B E"/><g transform="matrix(-.417382 .439177 -.539851 -.512656 197.0771 343.52601)"><use xlink:href="#c" class="C"/><use xlink:href="#d" class="B H"/></g></g><path d="M423.28 640.3l13.905 14.63c1.793 5.45 4.103 10.663 7.026 15.6 2.004 1.653 4.3 1.758 7.12-.717l3.818 4.018c-1.977 2.3-4.35 3.92-6.765 5.516-3.42 1.318-5.793.55-8.317-.252-2.386-1.023-3.44-2.996-4.562-4.85l-5.64-13.475-13.525-14.1 6.942-6.373z"/><g class="D"><use xlink:href="#j" transform="matrix(-1.215107 1.153898 .824294 .867335 351.40042 319.19942)" class="B E"/><g transform="matrix(.417382 .439177 .539851 -.512656 61.529681 859.22772)"><use xlink:href="#a" class="C"/><use xlink:href="#b" class="B H"/></g></g><g transform="matrix(-1.215107 1.153898 .824294 .867335 351.40042 319.19942)"><use xlink:href="#l"/><use xlink:href="#k" class="B D E"/><use xlink:href="#m"/><use xlink:href="#i" x="-0.374" y="64.455" class="B D E"/></g><g transform="matrix(.465379 .475633 .60193 -.555213 608.80045 369.88502)" class="D"><use xlink:href="#c" class="C"/><path d="M417.74-395.55c.48-3.854-.303-7.63-1.1-11.27-2.203-4.325-5.657-5.847-9.3-7.48-3.758-1.31-7.154-.548-10.49.044l-21.512 6.634-30.948.366m.334 11.34l31.97.07c8.17-3.135 16.547-5.442 25.357-7.08 4.063.4 6.637 2.554 6.857 7.332" stroke-width="1.355" class="B"/></g><path d="M498.704 720.325l4.55 4.727c-1.68 1.49-3.1 3.854-1.325 5.935l14.775 8.278 16.91 17.794-6.627 6.048-18.508-19.474c-4.646-2.358-9.368-4.627-13.207-7.923-3.326-3.47-1.783-10.485 3.43-15.385z"/><g class="D"><use xlink:href="#i" x="-0.374" y="64.455" transform="matrix(-1.215107 1.153898 .824294 .867335 404.36583 374.93048)" class="B E"/><g transform="matrix(.417382 .439177 .539851 -.512656 547.01736 343.52601)"><use xlink:href="#c" class="C"/><use xlink:href="#d" class="B H"/></g><g transform="matrix(0 .741782 -.731164 0 989.69748 224.00861)"><use xlink:href="#a" stroke-width="2"/><use xlink:href="#g" class="X"/></g><g transform="matrix(0 .723079 -.731486 0 294.73974 275.79623)"><use xlink:href="#e" class="C"/><use xlink:href="#f" x="0.167" y="-0.417" stroke-width="1.375" class="B"/></g><g transform="matrix(0 .741782 -.731164 0 295.17379 175.47312)"><use xlink:href="#c" class="C"/><use xlink:href="#d" x="-0.168" class="B X"/></g><g transform="matrix(0 .621721 .733603 0 177.78261 482.3842)"><use xlink:href="#a" class="C"/><use xlink:href="#g" class="Y"/></g></g><path d="M584.64 688.567l.042 6.58c-2.212-.078-4.832.662-4.978 3.4l4.936 16.22v24.615l-8.843-.178v-26.94c-1.718-4.922-3.552-9.832-4.057-14.88-.02-4.82 5.846-8.855 12.9-8.818z"/><g class="D"><path d="M575.864 739.428l-.065-27.164c-1.718-4.922-3.552-9.832-4.057-14.88-.02-4.82 5.95-8.855 13.003-8.818m.088 6.636c-2.212-.078-4.98.604-5.127 3.343l4.728 16.204.066 25.384" stroke-width="1.025" class="B"/><g transform="matrix(0 .621721 .733603 0 874.62297 441.70445)"><use xlink:href="#c" class="C"/><use xlink:href="#d" class="B Y"/></g><g transform="matrix(0 .690706 -.732199 0 294.45069 287.31245)"><use xlink:href="#c" class="C"/><use xlink:href="#d" x="0.507" y="-0.21" stroke-width="1.406" class="B"/></g><g transform="matrix(0 .586985 .734442 0 875.26767 532.42004)"><use xlink:href="#c" class="C"/><use xlink:href="#d" stroke-width="1.506" class="B"/></g><g transform="matrix(-.619244 0 0 .695361 608.0811 -22.819978)"><use xlink:href="#a" class="C"/><path d="M353.096 553.698c.18 3.82-.46 7.79-1.258 11.432-2.203 4.325-5.657 5.847-9.3 7.48-3.758 1.31-7.154.548-10.49-.044l-21.512-6.634-6.695.13h-60.468c-8.102 2.34-16.185 4.84-24.493 5.528-7.772-1.335-15.057-8.527-14.354-17.576m10.784 0c.107 1.826 1.25 6.847 6.042 6.886l26.11-6.517 64.542.028c8.17 3.135 16.433 5.187 25.244 6.825 4.063-.4 6.684-2.634 6.904-7.412" class="B M"/></g><g transform="matrix(-.605495 0 0 .69571 720.66319 632.09112)"><path d="M343.336-388.81h31.797c8.17-3.135 16.632-5.584 25.442-7.222 4.063.4 6.684 2.444 6.904 7.222h8.73c.48-3.854-.24-7.477-1.038-11.118-2.203-4.325-5.657-5.847-9.3-7.48-3.758-1.31-7.154-.548-10.49.044l-21.512 6.634-30.777-.116.25 12.035z" class="C"/><use xlink:href="#d" x="-1.467" y="7.275" class="B M"/></g></g><path d="M558.577 361.858l-6.557.04c.077-2.097-.66-4.58-3.39-4.718l-16.167 4.68H507.93l.178-8.382h26.85c4.906-1.63 9.8-3.367 14.83-3.846 4.803-.02 8.826 5.542 8.79 12.228z"/><g class="D"><path d="M507.885 353.537l27.073-.06c4.906-1.63 9.8-3.367 14.83-3.846 4.803-.02 8.826 5.64 8.79 12.326m-6.614.083c.077-2.097-.602-4.722-3.332-4.86l-16.15 4.482-25.3.062" stroke-width=".988" class="B"/><g transform="matrix(-.619244 0 0 .695361 648.23138 637.24607)"><path d="M268.93-395.85l10.83.057c-.128-3.014 1.09-6.584 5.597-6.782l26.7 6.725h40.518l-.293-12.048H307.94c-8.102-2.34-16.185-4.84-24.493-5.528-7.933-.028-14.576 7.966-14.515 17.576z" class="C"/><use xlink:href="#f" x="0.246" y="0.786" class="B M"/></g></g><path d="M260.618 360.247h6.878c.068 1.27.797 4.758 3.853 4.785l16.67-4.785h41.016c5.2 2.178 10.607 3.88 16.225 5.02 2.59-.28 4.327-1.685 4.467-5.005l5.58-.014c.307 2.678-.23 5.196-.74 7.726-1.405 3.006-3.608 4.064-5.937 5.197-2.397.9-4.562.38-6.69-.03l-13.72-4.6-4.27.1h-38.563c-5.167 1.627-10.32 3.363-15.62 3.842-4.957-.928-9.602-5.926-9.154-12.214z"/><path d="M355.035 359.83c.305 2.68-.305 5.612-.81 8.143-1.4 3.008-3.594 4.066-5.915 5.2-2.388.9-4.545.38-6.665-.03l-13.67-4.613-4.254.1h-38.422c-5.148 1.628-10.284 3.366-15.563 3.844-4.94-.93-9.567-5.93-9.12-12.222m6.853 0c.068 1.27.794 4.76 3.84 4.788l16.59-4.532 41.01.02c5.19 2.18 10.442 3.607 16.04 4.746 2.582-.28 4.236-1.875 4.375-5.197" class="B D P"/><path d="M226.748 361.195h20.467c5.258-2.178 10.706-3.88 16.377-5.02 2.615.28 4.302 1.7 4.444 5.02h5.62c.31-2.678-.155-5.196-.668-7.726-1.418-3.006-3.64-4.064-5.992-5.197-2.42-.9-4.605-.38-6.752.03l-13.847 4.6-19.81-.08.162 8.364z"/><path d="M272.863 361.47c.3-2.678-.195-5.302-.708-7.832-1.418-3.006-3.64-4.064-5.992-5.197-2.42-.9-4.605-.38-6.752.03l-13.847 4.6-19.797-.035m.09 8.17l20.58.05c5.258-2.178 10.65-3.782 16.322-4.92 2.615.28 4.272 1.775 4.414 5.095" class="B D P"/><path d="M260.582 360.632l6.97.04c-.082-2.095.7-4.575 3.602-4.713l17.187 4.674h26.08l-.19-8.373H285.69c-5.215-1.627-10.418-3.363-15.766-3.842-5.106-.02-9.382 5.536-9.343 12.214z" class="C"/><path d="M314.478 352.234l-28.78-.06c-5.215-1.627-10.418-3.363-15.766-3.842-5.106-.02-9.382 5.633-9.343 12.312m7.03.083c-.082-2.095.64-4.716 3.542-4.854l17.17 4.477 26.896.062" class="B J c"/><path d="M179.825 361.195l6.742.04c-.08-2.095.678-4.575 3.484-4.713l16.622 4.674h25.224l-.183-8.373H204.11c-5.044-1.627-10.076-3.363-15.248-3.84-4.938-.02-9.074 5.536-9.036 12.214z" class="G"/><path d="M231.63 353.15l-27.675-.062c-5.015-1.63-10.017-3.37-15.16-3.85-4.9-.02-9.022 5.646-8.984 12.34m6.76.083c-.08-2.1.616-4.727 3.406-4.865l16.51 4.486 25.862.062" class="B J P"/><g class="D"><g transform="matrix(-.639841 .273329 .277124 .651245 460.56389 422.38)"><use xlink:href="#a" class="C"/><use xlink:href="#b" class="B H"/></g><g transform="matrix(.639841 .273329 -.277124 .651245 283.53057 421.41097)"><use xlink:href="#a" class="C"/><use xlink:href="#b" class="B H"/></g></g><use xlink:href="#n" class="F G J"/><g class="D"><path d="M397.26 592.52h6.46c.064 1.344.75 5.04 3.62 5.07l15.658-5.07h38.526c4.893 2.307 9.963 4.11 15.24 5.316 2.434-.295 4.064-1.784 4.195-5.302l5.242-.015c.288 2.837-.216 5.504-.694 8.184-1.32 3.184-3.39 4.304-5.577 5.505-2.25.964-4.285.403-6.283-.032l-12.886-4.883-4.01.095h-36.22c-4.853 1.723-9.695 3.563-14.672 4.07-4.656-.983-9.02-6.277-8.598-12.938z" class="C"/><path d="M486.257 592.32c.288 2.837-.273 5.704-.75 8.384-1.32 3.184-3.39 4.304-5.577 5.505-2.25.964-4.285.403-6.283-.032l-12.886-4.883-4.01.095h-36.22c-4.853 1.723-9.695 3.563-14.672 4.07-4.656-.983-9.02-6.277-8.598-12.938m6.46 0c.064 1.344.75 5.04 3.62 5.07l15.64-4.797 38.662.02c4.893 2.307 9.787 3.71 15.065 4.915 2.434-.295 4.064-1.784 4.195-5.302" class="B Q"/><g transform="matrix(0 .614894 .742928 0 -39.62132 492.45302)"><use xlink:href="#a" class="C"/><use xlink:href="#g" class="L"/></g><g transform="matrix(0 .698221 -.740663 0 78.603536 277.12019)"><use xlink:href="#c" class="C"/><use xlink:href="#d" class="B N"/></g><path d="M371.52 552.928c-20.035-.247-39.896 12.628-40.6 39.383 1.92 53.474 81.504 55.83 82.236 0-1.4-25.768-21.61-39.137-41.647-39.383zm-.997 8.746c16.23-.467 33.09 10.1 34.217 31.045-.576 44.006-63.18 42.148-64.7 0 .528-20.43 15.226-30.606 30.472-31.045z"/><g transform="matrix(-.430688 .511194 -.576693 -.484331 342.71033 171.15775)"><use xlink:href="#c" class="C"/><use xlink:href="#d" class="B H"/></g><g transform="matrix(.429945 .511194 .575698 -.484331 400.99 171.15775)"><use xlink:href="#c" class="C"/><use xlink:href="#d" class="B H"/></g></g><g transform="matrix(-1.215107 1.153898 .824294 .867335 351.400404 319.199427)"><use xlink:href="#h"/><use xlink:href="#i" class="B D E"/></g><g class="D"><g transform="matrix(0 .698221 -.740663 0 78.603536 277.12019)"><use xlink:href="#e" class="C"/><use xlink:href="#f" class="B N"/></g><g transform="matrix(0 .689578 -.740817 0 78.853368 191.41901)"><use xlink:href="#c" class="C"/><use xlink:href="#d" class="B N"/></g><g transform="matrix(0 .689578 -.740817 0 782.54597 236.53873)"><use xlink:href="#a" class="C"/><use xlink:href="#g" class="B N"/></g><g transform="matrix(0 .698221 -.740663 0 782.15044 322.80543)"><use xlink:href="#a" class="C"/><use xlink:href="#o" class="B N"/></g><g transform="matrix(0 .614894 .742928 0 666.23229 607.23994)"><use xlink:href="#c" class="C"/><use xlink:href="#d" class="B L"/></g><g transform="matrix(0 .614894 .742928 0 -39.309922 571.10994)"><use xlink:href="#a" class="C"/><use xlink:href="#o" class="B L"/></g><g transform="matrix(0 .614894 .742928 0 666.38815 530.87689)"><use xlink:href="#e" class="C"/><use xlink:href="#f" class="B L"/></g><g transform="matrix(0 .614894 .742928 0 666.07656 452.22003)"><use xlink:href="#c" class="C"/><use xlink:href="#d" class="B L"/></g><g transform="matrix(0 .614894 .742928 0 666.38815 530.87689)"><use xlink:href="#c" class="C"/><use xlink:href="#d" class="B L"/></g><g transform="matrix(0 .58798 .743832 0 666.59774 616.7874)"><use xlink:href="#e" class="C"/><use xlink:href="#f" stroke-width="1.512" class="B"/></g><g transform="matrix(0 .614894 .742928 0 666.07656 452.22003)"><use xlink:href="#e" class="C"/><use xlink:href="#f" class="B L"/></g></g><g transform="matrix(1.040507 0 0 1.11162 58.768171 256.19381)" stroke-width=".909" class="J T"><path d="M313.41 282.594c7.496 10.05 1.154 1.184 8.594 11.667-.4 19.563.3 2.102-.4 20.965-9.8 9.533-.87.784-10.56 10.383-18.527-.405-1.033.054-19.917-.588-10.2-8.36-1.222-1.63-11.75-10.82-.245-19.525-.098-1.563-.116-21.2 8.6-8.17 2.104-2.314 10.734-10.46 9.008-.138 13.403-.056 23.418.066z"/><path d="M295.488 292.65l-5.313-10.195m16.082 10.195l6.46-9.62m-2.01 15.65l10.625-4.45m-10.913 15.65l10.77 5.026m-15.913.602l5.506 9.82m-14.72-10.134l-4.595 9.333m-1.148-15.507l-10.338 5.17m10.768-16.227l-11.056-5.026"/><path d="M308.438 288.83c4.597 7.053.708.83 5.27 8.187-.225 13.714.185 1.473-.23 14.697-6 6.674-.532.548-6.46 7.27-11.345-.3-.632.038-12.195-.43-6.258-5.87-.75-1.145-7.204-7.597-.164-13.688-.06-1.096-.086-14.87 5.265-5.72 1.286-1.62 6.564-7.324 5.515-.088 8.207-.027 14.34.068z"/></g><g class="D"><path d="M519.326 592.334h18.712c4.808-2.308 9.788-4.112 14.973-5.32 2.39.295 3.933 1.8 4.063 5.32h5.138c.283-2.838-.142-5.506-.61-8.187-1.296-3.185-3.33-4.306-5.48-5.508-2.21-.964-4.2-.403-6.173.032l-12.66 4.885-18.112-.086.148 8.863z" class="C"/><path d="M562.25 592.446c.283-2.838-.178-5.618-.647-8.3-1.296-3.185-3.33-4.306-5.48-5.508-2.21-.964-4.2-.403-6.173.032l-12.66 4.885-18.1-.038m.083 8.66l18.814.052c4.808-2.308 9.738-4.008 14.923-5.214 2.39.295 3.906 1.88 4.035 5.4" stroke-width="1.013" class="B"/><path d="M474.024 592.33l6.487.042c-.077-2.22.652-4.846 3.352-4.992l15.994 4.95h24.27l-.176-8.87H497.4c-4.853-1.723-9.695-3.563-14.672-4.07-4.752-.02-8.73 5.864-8.694 12.938z" class="C"/><use xlink:href="#p" class="B Q"/><path d="M397.226 592.927l6.487.042c-.077-2.22.652-4.846 3.352-4.992l15.994 4.95h24.27l-.176-8.87h-26.562c-4.853-1.723-9.695-3.563-14.672-4.07-4.752-.02-8.73 5.864-8.694 12.938z" class="C"/><use xlink:href="#p" x="-76.798" y="0.597" class="B Q"/><path d="M442.538 592.927h19.047c4.893-2.307 9.963-4.11 15.24-5.316 2.434.295 4.004 1.8 4.135 5.316h5.23c.288-2.837-.144-5.504-.622-8.184-1.32-3.184-3.39-4.304-5.577-5.505-2.25-.964-4.285-.403-6.283.032l-12.886 4.883-18.436-.086.15 8.86z" class="C"/><path d="M486.228 593.04c.288-2.837-.182-5.616-.66-8.296-1.32-3.184-3.39-4.304-5.577-5.505-2.25-.964-4.285-.403-6.283.032l-12.886 4.883-18.423-.038m.085 8.655l19.15.052c4.893-2.307 9.912-4.006 15.19-5.212 2.434.295 3.976 1.88 4.107 5.397" class="B Q"/><g transform="matrix(-.602964 0 0 .735531 510.00378 883.21771)"><use xlink:href="#e" class="C"/><use xlink:href="#f" class="B R"/></g><g transform="matrix(-.614896 0 0 .735165 436.80186 882.47357)"><use xlink:href="#c" class="C"/><use xlink:href="#d" stroke-width="1.487" class="B"/></g><g transform="matrix(-.602964 0 0 .735531 432.69885 882.622)"><use xlink:href="#e" class="C"/><use xlink:href="#f" class="B R"/></g><g transform="matrix(-.602964 0 0 .735531 510.00378 883.21771)"><use xlink:href="#c" class="C"/><use xlink:href="#d" class="B R"/></g></g><use xlink:href="#n" x="208.169" y="-289.124" class="F G J"/><g class="D"><g transform="matrix(0 .621721 .733603 0 874.62297 441.70445)"><use xlink:href="#e" class="C"/><use xlink:href="#f" class="B Y"/></g><g transform="matrix(0 .709551 -.732193 0 989.96694 325.86486)"><use xlink:href="#a" class="C"/><path d="M352.885 553.234c.48 3.854-.48 7.872-1.276 11.513-2.203 4.325-5.657 5.847-9.3 7.48-3.758 1.31-7.154.548-10.49-.044l-21.512-6.634-6.695.13h-60.468c-8.102 2.34-16.185 4.84-24.493 5.528-7.772-1.335-15.057-8.527-14.354-17.576m10.784 0c.107 1.826 1.25 6.847 6.042 6.886l26.11-6.517 64.542.028c8.17 3.135 16.433 5.187 25.244 6.825 4.063-.4 6.784-2.74 7.004-7.517" stroke-width="1.387" class="B"/></g><path d="M474.055 591.92h6.403c.063 1.345.742 5.042 3.588 5.07l15.52-5.07h38.188c4.85 2.308 9.875 4.112 15.107 5.32 2.412-.295 4.028-1.785 4.16-5.304l5.196-.015c.285 2.838-.214 5.506-.688 8.187-1.308 3.185-3.36 4.306-5.528 5.508-2.23.964-4.248.403-6.228-.032L537 600.697l-3.975.095H497.12c-4.81 1.724-9.6 3.564-14.543 4.07-4.615-.983-8.94-6.28-8.523-12.944z" class="C"/><path d="M562.273 591.592c.285 2.838-.27 5.834-.744 8.515-1.308 3.185-3.36 4.306-5.528 5.508-2.23.964-4.248.403-6.228-.032L537 600.697l-3.975.095H497.12c-4.81 1.724-9.6 3.564-14.543 4.07-4.615-.983-8.94-6.28-8.523-12.944m6.403 0c.063 1.345.742 5.042 3.588 5.07l15.504-4.8 38.323.02c4.85 2.308 9.758 3.82 14.99 5.026 2.412-.295 3.944-2.113 4.074-5.63" class="B Q"/></g><use xlink:href="#n" x="203.553" y="-520.254" class="F G J"/><g transform="matrix(0 .741782 -.731164 0 295.17379 175.47312)" class="D"><use xlink:href="#e" class="C"/><use xlink:href="#f" class="B X"/></g><path d="M562.878 372.183l-4.49 5.41c-1.062-.814-4.336-2.627-6.353-.242l-7.043 16.384-26.772 32.26c-5.148 2.608-10.036 5.69-14.616 9.33-1.468 2.23-1.473 4.555 1.1 6.936l-3.632 4.4c-2.348-1.6-4.017-3.734-5.715-5.864-1.494-3.16-.905-5.616-.293-8.224.835-2.507 2.672-3.848 4.39-5.24l12.652-7.638 2.715-3.42 25.17-30.33c2.068-5.176 4.04-10.418 7.114-14.913 3.98-3.264 11.02-3.5 15.77 1.153z"/><use xlink:href="#k" transform="matrix(1.254532 1.06966 -.822067 .990595 598.87333 66.492054)" class="B D E"/><g transform="matrix(-.605495 0 0 .69571 681.93305 -23.693692)"><use xlink:href="#a" class="C"/><use xlink:href="#g" y="-0.383" class="B J M"/></g><use xlink:href="#n" x="-209.067" y="-289.125" class="F G J"/><g transform="matrix(-.608921 0 0 .735161 394.45739 184.1587)" class="D"><use xlink:href="#a" class="C"/><path d="M352.357 553.185c.48 3.854-.456 7.922-1.253 11.562-2.203 4.325-5.657 5.847-9.3 7.48-3.758 1.31-7.154.548-10.49-.044l-21.512-6.634-6.695.13H242.63c-8.102 2.34-16.185 4.84-24.493 5.528-7.772-1.335-15.057-8.527-14.354-17.576m10.784 0c.107 1.826 1.25 6.847 6.042 6.886l26.11-6.517 64.542.028c8.17 3.135 16.433 5.187 25.244 6.825 4.063-.4 6.642-2.87 6.862-7.647" class="B M"/></g><g transform="matrix(-.636957 -1.473703 -1.29037 .542698 888.742217 844.950193)"><use xlink:href="#h"/><use xlink:href="#i" class="B D E"/></g><g transform="matrix(.637668 -1.517332 1.291811 .558764 -144.216677 844.657759)"><use xlink:href="#h"/><use xlink:href="#i" class="B D E"/></g><g class="F G J"><use xlink:href="#n" x="209.068" y="-86.237"/><path d="M162.98 764.37c-17.2 0-31.187 13.977-31.187 31.188s13.977 31.156 31.188 31.156 31.188-13.946 31.188-31.156S180.2 764.37 162.98 764.37zm0 7.438c13.097 0 23.72 10.653 23.72 23.75s-10.622 23.72-23.72 23.72-23.72-10.622-23.72-23.72 10.622-23.75 23.72-23.75z"/></g><g transform="matrix(0 .599338 .734445 0 177.61928 566.46186)"><use xlink:href="#a" class="C"/><path d="M352.38 553.234c.48 3.854-.48 7.872-1.276 11.513-2.203 4.325-5.657 5.847-9.3 7.48-3.758 1.31-7.154.548-10.49-.044l-21.512-6.634-6.695.13H242.63c-8.102 2.34-16.185 4.84-24.493 5.528-7.772-1.335-15.057-8.527-14.354-17.576m10.784 0c.107 1.826 1.25 6.847 6.042 6.886l26.11-6.517 64.542.028c8.17 3.135 16.433 5.187 25.244 6.825 4.063-.4 6.784-2.74 7.004-7.517" stroke-width="1.49" class="B J"/></g><use xlink:href="#n" x="-209.067" y="-520.254" class="F G J"/><path d="M179.684 360.81h6.826c.068 1.27.79 4.758 3.825 4.785l16.546-4.785h40.7c5.17 2.178 10.528 3.88 16.104 5.02 2.572-.28 4.294-1.685 4.433-5.005l5.54-.014c.304 2.678-.228 5.196-.733 7.726-1.394 3.006-3.58 4.064-5.893 5.198-2.38.9-4.528.38-6.64-.03l-13.617-4.6-4.238.1h-38.275c-5.13 1.627-10.244 3.363-15.504 3.842-4.92-.928-9.53-5.926-9.086-12.214z"/><path d="M273.394 360.43c.302 2.68-.3 5.46-.802 7.993-1.384 3.01-3.554 4.07-5.85 5.204-2.36.91-4.495.38-6.6-.03l-13.516-4.616-4.207.1h-37.993c-5.09 1.63-10.17 3.367-15.4 3.846-4.884-.93-9.46-5.933-9.02-12.23m6.776 0c.067 1.27.785 4.764 3.796 4.79l16.406-4.535 40.553.02c5.133 2.18 10.325 3.61 15.86 4.75 2.553-.28 4.173-1.876 4.312-5.2" class="B D P"/><g transform="matrix(-1.354224 1.125581 .887393 1.042383 138.280445 47.364892)"><use xlink:href="#h"/><use xlink:href="#i" class="B D E"/></g><use xlink:href="#n" y="-520.254" class="F G J"/><g transform="matrix(0 .689578 -.740817 0 78.853368 191.41901)" class="D"><use xlink:href="#e" class="C"/><use xlink:href="#f" class="B N"/></g><path d="M309.27 360.632h19.93c5.12-2.178 10.425-3.88 15.947-5.02 2.547.28 4.2 1.698 4.327 5.02h5.473c.3-2.678-.15-5.196-.65-7.726-1.38-3.006-3.546-4.064-5.835-5.197-2.355-.9-4.484-.38-6.574.03l-13.483 4.6-19.3-.08.157 8.364zm-84.08 462.85l21.316 9.106c6.4.193 12.777.94 19.16 2.34 2.607 1.438 3.77 3.588 2.523 6.923l5.853 2.5c1.445-2.5 2.018-5.2 2.544-7.9-.216-3.593-2.088-5.625-4.06-7.788-2.138-1.973-4.636-2.424-7.044-2.974l-16.354-1.617-20.598-8.893-3.34 8.314z"/><g class="D"><use xlink:href="#j" transform="matrix(.623757 -1.465836 1.26363 .539801 -135.91213 844.03206)" class="B E"/><g transform="matrix(.639841 .273329 -.277124 .651245 -21.571756 1022.1366)"><use xlink:href="#c" class="C"/><use xlink:href="#d" class="B H"/></g></g><path d="M177.966 802.1l6.958 2.967c-.44 1.226-1.107 4.83 1.974 6.176l18.8 2.678 41.497 17.693c4.395 4.302 9.17 8.236 14.397 11.733 2.734.855 5.055.277 6.532-2.794l5.652 2.394c-.767 2.658-2.322 4.802-3.854 6.97-2.63 2.23-5.284 2.277-8.097 2.34-2.8-.176-4.77-1.61-6.755-2.914l-12.026-10.266-4.356-1.757-39.014-16.635c-5.882-.694-11.795-1.28-17.348-3.115-4.642-3.013-7.332-9.73-4.35-15.47z"/><use xlink:href="#k" transform="matrix(.632008 -1.503284 1.280344 .553591 -141.34738 843.81094)" class="B D E"/><path d="M260.305 838.005l6.913 2.997c.753-1.998 2.52-4 5.46-2.887l15.22 11.678 25.925 11.075 3.15-7.927-28.372-12.12c-4.535-3.74-9.014-7.576-14.14-10.295-5.068-2.186-11.534 1.204-14.158 7.48z"/><use xlink:href="#i" x="-0.374" y="64.455" transform="matrix(.623757 -1.465836 1.26363 .539801 -135.91213 844.03206)" class="B D E"/><path d="M520 824.3l-21.767 9.155c-6.525.194-13.047.944-19.566 2.352-2.662 1.446-3.848 3.607-2.577 6.96l-5.977 2.514c-1.476-2.515-2.06-5.217-2.598-7.953.22-3.612 2.132-5.655 4.147-7.83 2.183-1.983 4.734-2.437 7.193-3l16.7-1.626 21.034-8.94 3.4 8.36z"/><g class="D"><use xlink:href="#j" transform="matrix(-.636957 -1.473703 -1.29037 .542698 888.74223 844.95021)" class="B E"/><g transform="matrix(-.639841 .273329 .277124 .651245 765.66622 1023.1056)"><use xlink:href="#c" class="C"/><use xlink:href="#d" class="B H"/></g></g><path d="M567.408 803.117l-7.046 2.964c.447 1.225 1.12 4.826-2 6.17l-19.028 2.675-42.023 17.674c-4.45 4.297-9.287 8.227-14.58 11.72-2.768.854-5.12.277-6.614-2.79l-5.724 2.392c.776 2.655 2.352 4.796 3.903 6.96 2.663 2.227 5.35 2.274 8.2 2.34 2.826-.176 4.83-1.607 6.84-2.91l12.178-10.255 4.41-1.755 39.51-16.616c5.956-.694 11.944-1.28 17.568-3.11 4.7-3 7.425-9.72 4.405-15.452z"/><use xlink:href="#k" transform="matrix(-.636957 -1.473703 -1.29037 .542698 888.74223 844.95021)" class="B D E"/><path d="M483.79 838.974l-6.913 2.997c-.753-1.998-2.52-4-5.46-2.887l-15.22 11.678-25.925 11.075-3.15-7.927 28.372-12.12c4.535-3.74 9.014-7.576 14.14-10.295 5.068-2.186 11.534 1.204 14.158 7.48z"/><use xlink:href="#i" x="-0.374" y="64.455" transform="matrix(-.623757 -1.465836 -1.26363 .539801 880.00659 845.00109)" class="B D E"/><g transform="matrix(1.215107 1.153898 -.824294 .867335 392.694056 319.199427)"><use xlink:href="#h"/><use xlink:href="#i" class="B D E"/></g><g transform="matrix(0 .732867 -.744485 0 -132.14248 269.41759)"><use xlink:href="#c"/><use xlink:href="#d" class="B D H"/></g><g transform="matrix(0 .559149 .73386 0 453.422016 459.64804)"><use xlink:href="#e"/><use xlink:href="#f" stroke-width="1.561" class="B D"/></g><path d="M162.903 683.164v6.97c1.338.07 5.02.808 5.047 3.905l-5.047 16.894v41.566c2.298 5.28 4.093 10.75 5.294 16.443-.294 2.626-1.777 4.385-5.28 4.527l-.015 5.656c2.825.31 5.48-.233 8.15-.748 3.17-1.424 4.286-3.656 5.482-6.017.96-2.43.4-4.623-.032-6.78l-4.863-13.903.095-4.327v-39.08c1.716-5.236 3.548-10.46 4.052-15.83-.98-5.023-6.25-9.73-12.884-9.277z"/><g class="D"><use xlink:href="#b" stroke-width="1.451" transform="matrix(0 .648383 .732985 0 -242.8992 550.72023)" class="B"/><g transform="matrix(-.44273 .460155 -.572636 -.537145 652.89225 924.47581)"><use xlink:href="#a" class="C"/><use xlink:href="#b" class="B H"/></g></g><path d="M163.178 376.526v7.647c-1.36.076-5.1.886-5.13 4.285l5.13 18.536V452.6c-2.335 5.793-4.16 11.794-5.38 18.04.3 2.88 1.806 4.81 5.365 4.967l.015 6.206c-2.87.34-5.57-.256-8.282-.82-3.222-1.562-4.356-4.01-5.57-6.602-.975-2.665-.408-5.073.033-7.438l4.94-15.254-.096-4.748v-42.878c-1.744-5.745-3.605-11.477-4.118-17.368.995-5.51 6.352-10.677 13.093-10.18z"/><g class="D"><path d="M163.333 482.334c-2.87.34-5.57-.256-8.282-.82-3.222-1.562-4.356-4.01-5.57-6.602-.975-2.665-.408-5.073.033-7.438l4.94-15.254-.096-4.748v-42.878c-1.744-5.745-3.605-11.477-4.118-17.368.995-5.51 6.352-10.677 13.093-10.18m0 7.647c-1.36.076-5.1.886-5.13 4.285l4.855 18.516-.02 45.767c-2.335 5.793-3.864 11.653-5.084 17.9.3 2.88 1.806 4.81 5.365 4.967" class="B W"/><g transform="matrix(.439773 .461196 .568812 -.53836 93.922242 924.94458)"><use xlink:href="#a" class="C"/><use xlink:href="#b" stroke-width="1.416" class="B"/></g><path d="M355.17 360.746c.303-2.68-.19-5.308-.692-7.84-1.386-3.01-3.56-4.068-5.86-5.204-2.365-.91-4.502-.38-6.602.03l-13.54 4.615-19.357-.036m.09 8.18l20.122.05c5.142-2.18 10.414-3.786 15.96-4.926 2.557.28 4.177 1.777 4.316 5.1" class="B P"/><g transform="matrix(-.619244 0 0 .695361 648.31805 637.30556)"><use xlink:href="#c" class="C"/><use xlink:href="#d" x="0.16" y="0.752" class="B M"/></g></g></g></g><defs ><path id="B" d="M-4569.294-1130.425c-.004 10.2 5.8 19.627 15.2 24.728s21.003 5.1 30.412 0 15.203-14.528 15.2-24.728c.004-10.2-5.8-19.627-15.2-24.728s-21.003-5.1-30.412 0-15.203 14.528-15.2 24.728z"/><path id="C" d="M-2369.95 39.08c139.03-30.194 153.37 94.88 155.7 150.386l-22.07 19.273c.106-3.767-.003-16.785-.273-20.645-.227-3.252-.75 2.632.47-.362 22.754-51.806-21.9-153.786-129.357-139.15z"/><path id="D" d="M-2296.448 42.31c.002 4.1-2.185 7.89-5.736 9.942s-7.927 2.05-11.478 0-5.738-5.84-5.736-9.942 2.185-7.89 5.736-9.942 7.927-2.05 11.478 0 5.738 5.84 5.736 9.942z"/><path id="E" d="M-2319.01 38.204c.001 3.472-1.85 6.68-4.857 8.418s-6.712 1.737-9.72 0-4.858-4.946-4.857-8.418 1.85-6.68 4.857-8.418 6.712-1.737 9.72 0 4.858 4.946 4.857 8.418z"/><path id="F" d="M-2339.1 39.345c.001 3.08-1.64 5.925-4.308 7.465s-5.952 1.54-8.62 0-4.31-4.386-4.308-7.465 1.64-5.925 4.308-7.465 5.952-1.54 8.62 0 4.31 4.386 4.308 7.465z"/><path id="G" d="M-526.656 456.233c.07-3.568 3.194-6.397 6.96-6.33 3.77.066 6.78 3.003 6.7 6.57-.07 3.605-3.195 6.434-6.966 6.368-3.765-.066-6.775-3.003-6.704-6.608z"/><path id="H" d="M-249.016 615.214c.002 5.75-3.065 11.066-8.044 13.942s-11.116 2.876-16.096 0-8.047-8.19-8.044-13.942 3.065-11.066 8.044-13.942 11.116-2.876 16.096 0 8.047 8.19 8.044 13.942z"/><path id="I" d="M-246.467 584.886c.002 5.358-2.855 10.3-7.495 12.99s-10.357 2.68-14.996 0-7.497-7.63-7.495-12.99 2.855-10.3 7.495-12.99 10.357-2.68 14.996 0 7.497 7.63 7.495 12.99z"/><path id="J" d="M-249.627 556.24c.002 5.044-2.688 9.705-7.055 12.227s-9.75 2.522-14.117 0-7.057-7.184-7.055-12.227 2.688-9.705 7.055-12.227 9.75-2.522 14.117 0 7.057 7.184 7.055 12.227z"/><path id="K" d="M-260.153 530.65c.002 4.886-2.604 9.403-6.835 11.846s-9.445 2.444-13.677 0-6.837-6.96-6.835-11.846 2.604-9.403 6.835-11.846 9.445-2.444 13.677 0 6.837 6.96 6.835 11.846z"/><path id="L" d="M-318.025 474.464c.002 4.415-2.353 8.495-6.176 10.704s-8.534 2.208-12.358 0-6.178-6.288-6.176-10.704 2.353-8.495 6.176-10.704 8.534-2.208 12.358 0 6.178 6.288 6.176 10.704z"/><path id="M" d="M-496.635 471.655l-5.94-22.26c127.03 7.327 135.206 65.76 130.58 127.818l-40.823 7.954c1.136-8.488 1.742-7.445 1.496-16.17-1.77-62.39-16.535-94.363-85.312-97.344z"/><path id="N" d="M-497.262 464.453l-5.314-15.057c118.904 7.9 128.35 66.438 123.855 126.792l-32.92 9.92c7.212-53.87 17.122-117.148-85.62-121.655z"/><path id="O" d="M-380.167 525.138a15.24 15.24 0 0 1-22.859 13.202 15.24 15.24 0 0 1 0-26.404 15.24 15.24 0 0 1 22.859 13.202z"/><path id="P" d="M-408.756 477.324a12.25 12.25 0 0 1-18.376 10.612 12.25 12.25 0 0 1 0-21.225 12.25 12.25 0 0 1 18.376 10.612z"/><path id="Q" d="M-426.865 466.253a10.97 10.97 0 0 1-16.454 9.503 10.97 10.97 0 0 1 0-19.005 10.97 10.97 0 0 1 16.454 9.503z"/><path id="R" d="M-446.975 459.832a9.9 9.9 0 0 1-14.853 8.578 9.9 9.9 0 0 1 0-17.156 9.9 9.9 0 0 1 14.853 8.578z"/><path id="S" d="M-466.414 458.282c.001 3.157-1.682 6.074-4.416 7.653s-6.102 1.58-8.836 0-4.417-4.496-4.416-7.653 1.682-6.074 4.416-7.653 6.102-1.58 8.836 0 4.417 4.496 4.416 7.653z"/><path id="T" d="M-484.122 457.053c.001 2.546-1.357 4.9-3.562 6.173s-4.922 1.274-7.127 0-3.563-3.627-3.562-6.173 1.357-4.9 3.562-6.173 4.922-1.274 7.127 0 3.563 3.627 3.562 6.173z"/><path id="U" d="M-498.976 456.94a6.27 6.27 0 0 1-9.408 5.434 6.27 6.27 0 0 1 0-10.867 6.27 6.27 0 0 1 9.408 5.434z"/><path id="V" d="M-2448.123 16.263c.008 9.503-5.058 18.287-13.287 23.04s-18.37 4.754-26.597 0-13.294-13.538-13.287-23.04c-.008-9.503 5.058-18.287 13.287-23.04s18.37-4.754 26.597 0 13.294 13.538 13.287 23.04z"/><path id="W" d="M-833.64 196.836c-5.652 4.64-8.498 4.642-10.5 10.813 0 0-1.033-1.303-4.97-2.594-3.92-1.29-6.97-.78-6.97-.78s2.147 5.19 3.063 7c.9 1.816 2.098 7.504 4.53 12.406.017.034-8.166-2.53-9.656-3.28-1.81-.92-7-3-7-3s-.5 3.002.78 6.938c1.29 3.942 2.594 4.97 2.594 4.97-6.816 3.3-6.172 4.764-10.812 10.438 4.64 5.652 4.642 8.498 10.813 10.5 0 0-1.303 1.033-2.594 4.97-1.29 3.92-.78 6.97-.78 6.97s5.19-2.116 7-3.03c1.816-.9 7.504-2.13 12.406-4.562 2.467-1.258 1.734.192 12.063-7.72 0 0 7.125 5.313 12.063 7.72 4.903 2.434 10.59 3.663 12.406 4.562 1.81.915 6.97 3.03 6.97 3.03s.5-3.05-.78-6.97c-1.29-3.936-2.562-4.97-2.562-4.97 6.17-2.002 6.172-4.848 10.813-10.5-4.64-5.673-3.997-7.14-10.812-10.437 0 0 1.27-1.027 2.563-4.97 1.29-3.936.78-6.937.78-6.937s-5.158 2.08-6.97 3c-1.485.75-5.57 1.718-9.687 3.375.014-.03 3.678-10.684 4.594-12.5.92-1.81 3-7 3-7s-3.002-.5-6.937.78c-3.942 1.29-4.97 2.594-4.97 2.594-3.3-6.816-4.764-6.172-10.437-10.812z"/><path id="X" d="M-846.03 234.416a12.34 12.34 0 0 1 12.347-12.346c6.816 0 12.37 5.513 12.37 12.346 0 6.84-5.53 12.37-12.37 12.37-6.816 0-12.347-5.53-12.347-12.37z"/><path id="Y" d="M-921.646 246.114c-5.652 4.64-17.54 7.28-19.542 13.45 0 0-1.033-1.303-4.97-2.594-3.92-1.29-6.97-.78-6.97-.78s2.147 5.19 3.063 7c.9 1.816 2.098 7.504 4.53 12.406.017.034-8.166-2.53-9.656-3.28-1.81-.92-7-3-7-3s-.5 3.002.78 6.938c1.29 3.942 2.594 4.97 2.594 4.97-6.816 3.3-6.172 4.764-10.812 10.438 4.64 5.652 4.642 8.498 10.813 10.5 0 0-1.303 1.033-2.594 4.97-1.29 3.92-.78 6.97-.78 6.97s5.19-2.116 7-3.03c1.816-.9 7.504-2.13 12.406-4.562 2.467-1.258 1.734.192 12.063-7.72-.6-1.066.05-6.67 7.66-10.913 1.313-8.203 4.152-47.156 1.412-41.755z"/><path id="Z" d="M239.42 818.685l-12.377 1.647c-3.158.424-6.083-2.01-6.48-5.406-.385-3.432 1.855-6.55 5.013-6.956l12.446-1.665 12.662-1.67c3.137-.424 6.004 1.968 6.4 5.407.37 3.414-1.924 6.55-5.066 6.956z"/><path id="a" d="M203.783 553.63h10.784c.107 1.826 1.25 6.847 6.042 6.886l26.14-6.886h64.316c8.17 3.135 16.632 5.584 25.442 7.222 4.063-.4 6.784-2.424 7.004-7.202l8.752-.02c.48 3.854-.36 7.477-1.158 11.118-2.203 4.325-5.657 5.847-9.3 7.48-3.758 1.31-7.154.548-10.49-.044l-21.512-6.634-6.695.13H242.63c-8.102 2.34-16.185 4.84-24.493 5.528-7.772-1.335-15.057-8.527-14.354-17.576z"/><path id="b" d="M352.405 553.135c.48 3.854-.503 7.97-1.3 11.612-2.203 4.325-5.657 5.847-9.3 7.48-3.758 1.31-7.154.548-10.49-.044l-21.512-6.634-6.695.13H242.63c-8.102 2.34-16.185 4.84-24.493 5.528-7.772-1.335-15.057-8.527-14.354-17.576m10.784 0c.107 1.826 1.25 6.847 6.042 6.886l26.11-6.517 64.542.028c8.17 3.135 16.433 5.187 25.244 6.825 4.063-.4 6.642-2.82 6.862-7.597"/><path id="c" d="M344.803-395.703H376.6c8.17-3.135 16.632-5.584 25.442-7.222 4.063.4 6.684 2.444 6.904 7.222h8.73c.48-3.854-.24-7.477-1.038-11.118-2.203-4.325-5.657-5.847-9.3-7.48-3.758-1.31-7.154-.548-10.49.044l-21.512 6.634-30.777-.116.25 12.035z"/><path id="d" d="M417.74-395.55c.48-3.854-.303-7.63-1.1-11.27-2.203-4.325-5.657-5.847-9.3-7.48-3.758-1.31-7.154-.548-10.49.044l-21.512 6.634-30.756-.05m.14 11.758l31.97.07c8.17-3.135 16.547-5.442 25.357-7.08 4.063.4 6.637 2.554 6.857 7.332"/><path id="e" d="M269.158-395.703l10.83.057c-.128-3.014 1.09-6.584 5.597-6.782l26.7 6.725h40.518l-.293-12.048h-44.343c-8.102-2.34-16.185-4.84-24.493-5.528-7.933-.028-14.576 7.966-14.515 17.576z"/><path id="f" d="M352.88-407.663l-44.713-.088c-8.102-2.34-16.185-4.84-24.493-5.528-7.933-.028-14.576 8.107-14.515 17.717m10.923.12c-.128-3.014.995-6.787 5.503-6.985l26.672 6.442 41.784.09"/><path id="g" d="M352.263 553.63c.48 3.854-.36 7.477-1.158 11.118-2.203 4.325-5.657 5.847-9.3 7.48-3.758 1.31-7.154.548-10.49-.044l-21.512-6.634-6.695.13H242.63c-8.102 2.34-16.185 4.84-24.493 5.528-7.772-1.335-15.057-8.527-14.354-17.576m10.784 0c.107 1.826 1.25 6.847 6.042 6.886l26.11-6.517 64.542.028c8.17 3.135 16.433 5.187 25.244 6.825 4.063-.4 6.784-2.424 7.004-7.202"/><path id="h" d="M101.372 198.835l-.025 5.483c1.34-.065 2.925.55 3.013 2.834l-2.988 13.52v20.516l5.353-.15v-22.453c1.04-4.103 2.15-8.195 2.456-12.402.012-4.017-3.54-7.38-7.81-7.35z"/><path id="i" d="M106.874 241.545l.04-22.64c1.04-4.103 2.15-8.195 2.456-12.402.012-4.017-3.602-7.38-7.87-7.35m-.053 5.53c1.34-.065 3.015.504 3.103 2.786l-2.862 13.506-.04 21.157"/><path id="j" d="M101.506 274.435c1.71.246 3.387-.155 5.004-.564 1.92-1.128 2.596-2.898 3.32-4.77.58-1.925.243-3.665-.02-5.374l-2.945-11.02.023-15.757m-5.22.072l-.03 16.38c1.392 4.185 2.416 8.477 3.144 12.99-.178 2.08-1.134 3.4-3.255 3.513"/><path id="k" d="M101.71 274.418c-1.712.243-3.322-.183-4.94-.586-1.922-1.115-2.598-2.864-3.323-4.714-.582-1.903-.243-3.622.02-5.31l2.947-10.893-.057-3.4v-30.618c-1.04-4.103-2.15-8.195-2.456-12.402.593-3.936 3.788-7.624 7.81-7.268m0 5.46c-.81.054-3.042.633-3.06 3.06l2.896 13.22-.013 32.68c-1.393 4.136-2.305 8.32-3.032 12.782.178 2.057 1.077 3.435 3.2 3.546"/><path id="l" d="M101.62 198.864v5.46c-.81.054-3.042.633-3.06 3.06l3.06 13.236v32.566a81.32 81.32 0 0 0-3.209 12.883c.178 2.057 1.077 3.435 3.2 3.546l.01 4.43c-1.712.243-3.322-.183-4.94-.586-1.922-1.115-2.598-2.864-3.323-4.714-.582-1.903-.243-3.622.02-5.31l2.947-10.893-.057-3.4v-30.618c-1.04-4.103-2.15-8.195-2.456-12.402.593-3.936 3.788-7.624 7.81-7.268z"/><path id="m" d="M101.186 263.607l-.025 5.483c1.34-.065 2.925.55 3.013 2.834l-2.988 13.52v20.516l5.353-.15V283.36c1.04-4.103 2.15-8.195 2.456-12.402.012-4.017-3.54-7.38-7.81-7.35z"/><path id="n" d="M372.047 850.607c-17.2 0-31.187 13.977-31.187 31.188s13.977 31.156 31.188 31.156 31.188-13.946 31.188-31.156-13.977-31.187-31.187-31.187zm0 7.438c13.097 0 23.72 10.653 23.72 23.75s-10.622 23.72-23.72 23.72-23.72-10.622-23.72-23.72 10.622-23.75 23.72-23.75z"/><path id="o" d="M352.38 553.086c.48 3.854-.48 8.02-1.276 11.66-2.203 4.325-5.657 5.847-9.3 7.48-3.758 1.31-7.154.548-10.49-.044l-21.512-6.634-6.695.13H242.63c-8.102 2.34-16.185 4.84-24.493 5.528-7.772-1.335-15.057-8.527-14.354-17.576m10.784 0c.107 1.826 1.25 6.847 6.042 6.886l26.11-6.517 64.542.028c8.17 3.135 16.433 5.187 25.244 6.825 4.063-.4 6.713-2.597 6.933-7.375"/><path id="p" d="M524.174 583.527l-26.784-.065c-4.853-1.723-9.695-3.563-14.672-4.07-4.752-.02-8.73 5.967-8.694 13.04m6.543.088c-.077-2.22.596-4.996 3.296-5.142l15.977 4.742 25.03.066"/></defs></svg>