<svg xmlns="http://www.w3.org/2000/svg" xmlns:xlink="http://www.w3.org/1999/xlink" width="750" height="500" xmlns:v="https://vecta.io/nano"><style><![CDATA[.B{stroke-linejoin:round}.C{fill:#eac102}.D{fill-rule:evenodd}.E{fill:none}.F{fill:#e3e4e5}.G{stroke-linecap:round}.H{stroke:#000}.I{fill:#ed1c24}.J{stroke-width:1.073}.K{stroke-width:.265}.L{stroke-width:2.181}.M{stroke-width:.117}.N{fill:#0071bc}.O{stroke-width:2.615}.P{fill:#008f4c}.Q{stroke-width:1.47}.R{stroke-width:1.081}.S{stroke-width:1.303}.T{stroke-width:2.626}.U{stroke-width:2.484}.V{stroke-width:2.503}.W{stroke-width:2.754}.X{stroke-width:2.435}.Y{stroke-width:1.114}.Z{stroke-width:.579}.a{stroke-width:.853}.b{stroke-width:1.143}.c{stroke-width:1.432}.d{stroke-width:1.722}.e{stroke-width:2.012}.f{stroke-width:2.285}.g{stroke-width:2.575}.h{stroke-width:2.865}.i{stroke-width:3.154}.j{stroke-width:3.444}.k{stroke-width:3.718}.l{stroke-width:3.927}.m{stroke-width:4.217}.n{stroke-width:4.49}.o{stroke-width:4.764}.p{stroke-width:5.617}.q{stroke-width:1.002}]]></style><path fill="#ffc82e" d="M0 0h750v500H0z"/><path fill="#66bc29" d="M0 0h750v375H0z"/><path fill="#fff" d="M0 0h750v250H0z"/><path fill="#dc291e" d="M0 0h750v125H0z"/><g transform="translate(0 99.938)"><g id="A"><g transform="matrix(.265 0 0 .265 273.73216 -1.855584)"><g transform="matrix(-.411584 -.003924 .000855 .392334 1614.0221 -145.77357)" stroke="#010101" stroke-width="2.489" class="C"><path d="M3613.8 1143.3c-3.134 5.464-7.257 10.737-14.062 15.655l-60.133-62.664c6.57-9.398 8.38-14.17 7.836-25.014-2.07-41.23-88.01-93.988-199.13-112.53-110.84-18.498-299.4-119.1-356.2-99.125l22.025-36.33c21.567 1.276 75 34.328 103.18 40.94l44.91 16.17 113 41.913c18.322 6.406 36.067 12.197 52.67 16.997 8.3 2.4 16.354 4.558 24.032 6.39s15.002 3.385 21.93 4.54c13.9 2.318 27.35 5.193 40.32 8.607s25.48 7.376 37.31 11.675 23.008 8.94 33.47 13.9 20.165 10.244 29.034 15.675 16.895 11.016 23.95 16.695 13.17 11.452 18.183 17.168 8.917 11.41 11.665 16.952c1.374 2.77 2.495 5.525 3.26 8.212a34.78 34.78 0 0 1 1.319 7.854c.272 5.422-.046 9.33-1.244 13.05s-3.307 7.264-6.592 11.964l49.265 51.296z"/><path d="M3613.8 1143.3l-49.265-51.296c3.285-4.7 5.394-8.243 6.592-11.964s1.516-7.628 1.244-13.05a34.78 34.78 0 0 0-1.319-7.854c-.765-2.687-1.887-5.442-3.26-8.212-2.748-5.54-6.652-11.235-11.665-16.952s-11.13-11.49-18.183-17.168-15.08-11.264-23.95-16.695-18.573-10.705-29.034-15.675-21.64-9.612-33.47-13.9-24.337-8.26-37.31-11.675-26.43-6.29-40.32-8.607c-6.927-1.156-14.252-2.708-21.93-4.54s-15.73-3.99-24.032-6.39c-16.6-4.8-34.347-10.59-52.67-16.997-36.645-12.812-75.636-27.975-113-41.913l-44.91-16.17c88.112 20.676 198.86 60.24 271.16 73.768 118.33 22.14 232.05 93.256 232.33 165.26.063 14.8-.124 28.062-6.998 40.045z"/></g><g stroke-width="2.296" class="B D F H"><use xlink:href="#H" transform="matrix(.431183 .004324 .000912 .439773 -931.64584 211.79805)"/><use xlink:href="#H" transform="matrix(.431183 .004324 .000912 .439773 -961.49541 221.62293)"/><use xlink:href="#H" transform="matrix(.431183 .004324 .000912 .439773 -992.65652 230.40048)"/><use xlink:href="#H" transform="matrix(.431183 .004324 .000912 .439773 -1025.3087 238.54713)"/><use xlink:href="#H" transform="matrix(.431183 .004324 .000912 .439773 -1057.1411 246.07606)"/><use xlink:href="#H" transform="matrix(.431183 .004324 .000912 .439773 -1089.5381 255.30327)"/><use xlink:href="#H" transform="matrix(.431183 .004324 .000912 .439773 -1121.9712 269.36314)"/><use xlink:href="#H" transform="matrix(.431183 .004324 .000912 .439773 -1147.4213 291.25991)"/></g></g><g transform="matrix(.186319 .003418 -.001989 .221955 303.739 41.34054)" class="D H S"><g class="B F"><path d="M345.73 1.4c-5.852 0-10.596 4.725-10.596 10.553s4.744 10.567 10.596 10.567 10.61-4.738 10.61-10.567S351.582 1.4 345.73 1.4z"/><use xlink:href="#I"/><path d="M304.74 26.48c-5.852 0-10.6 4.725-10.6 10.553s4.758 10.567 10.6 10.567 10.596-4.738 10.596-10.567-4.744-10.553-10.596-10.553zm-21.02 10.082c-5.852 0-10.6 4.725-10.6 10.553s4.757 10.567 10.6 10.567 10.596-4.738 10.596-10.567-4.744-10.553-10.596-10.553z"/><use xlink:href="#J"/><path d="M240.4 57.617c-5.852 0-10.61 4.738-10.61 10.567s4.757 10.553 10.61 10.553 10.596-4.725 10.596-10.553-4.744-10.567-10.596-10.567z"/><use xlink:href="#J" x="-42.82" y="24.167"/><use xlink:href="#I" x="-125.33" y="76.631"/></g><path d="M371.44-6.812c-6.233.084-12.28 1.885-12.28 5.625C261.93 78.28 212.54 64.406 186.6 115.843c11.17 15.273.058 38.155 12.22 69l10.93 1.4c-.462-23.088-3.48-47.54 13.97-60.875 8.27-43.997 73.14-50.5 147.53-113.44l.188-18.75z" class="C"/></g></g><use xlink:href="#A" transform="matrix(-1 0 0 1 750.00036 0)"/><g class="H K"><path d="M374.8 52.85c8.295 0 19.902 2.5 23.683 5.02s6.93 3.563 10.493 4.326 5.578.693 8.554.483 8.754 1.778 13.256 4.964 4.288 6.42 6.55 9.83l-16.925 32.35h-90.807l-16.925-32.35c2.27-3.41 2.32-6.644 6.816-9.83s10.28-5.174 13.255-4.964 4.992.28 8.555-.483 6.712-1.804 10.493-4.326 14.71-5.02 23.004-5.02z" class="I"/><g class="B D"><path d="M380.76 37.5a5.76 5.76 0 1 1-11.521 0 5.76 5.76 0 1 1 11.521 0z" class="N"/><g class="C"><path d="M374.264 23.524v2.232h-2.1v1.476h2.1v4.642h1.473v-4.642h2.1v-1.476h-2.1v-2.232h-1.473z"/><path d="M373.924 31.383v4.23c-4.326.087-5.016.696-5.1.8l-.01 2.16c.042.024.167.142.592.284l-.05-.194-.053-.3c.72-.245 2.36-.616 5.696-.616 3.353 0 4.98.368 5.696.613l-.053.303-.05.196c.426-.143.55-.263.58-.295l.013-.013v-2.145c-.094-.098-.768-.706-5.112-.794v-4.23h-2.145z"/></g></g></g><use xlink:href="#B" transform="matrix(-1 0 0 1 749.9999 0)"/><g id="B" transform="matrix(.108964 -.009217 .010086 .11471 54.255347 94.967463)"><g transform="matrix(-3.641703 .290422 .342784 1.847604 9955.7129 -617.01764)" stroke="#010101" stroke-width=".904" class="C"><path d="M2040.5-9.342c.317 5.403.422 12.813-1.84 16.998-2.796 5.172-2.643 5.525-6.07 9.05l-14.872-31.75c2.137-2.283 3.36-.53 3.402-7.108.1-15.848-25.088-22.134-46.926-27.7-27.042-6.892-61.908-44.24-73.06-30.866 3.707-7.764 11.538-8.445 21.34-6.034.248.137.45.19.7.33 3.476 1.95 7.187 4.197 11 6.586l11.7 7.358c3.972 2.444 7.97 4.802 11.92 6.917s7.873 3.97 11.626 5.372a51.59 51.59 0 0 0 5.482 1.729c1.793.45 3.573.767 5.26.92 3.427.3 6.8.88 10.08 1.656s6.444 1.77 9.492 2.943 5.957 2.508 8.683 4 5.266 3.164 7.58 4.93 4.405 3.667 6.218 5.63 3.377 3.98 4.6 6.07 2.106 4.248 2.65 6.402.74 4.326.515 6.475c-.802 11.374-1.38 5.222-5.092 8.83l9.84 16.3c1.376-1.57 2.477-3.43 3.348-5.52s1.535-4.385 2.024-6.733c.192-.924.26-1.86.405-2.796z"/><path d="M2040.5-9.342l-.405 2.796c-.488 2.348-1.153 4.645-2.024 6.733s-1.972 3.95-3.348 5.52l-10.357-17.093c5.435 1.43 6.372-9.208 5.096-14.51-.543-2.154-1.427-4.3-2.65-6.402s-2.787-4.108-4.6-6.07-3.904-3.863-6.218-5.63-4.854-3.428-7.58-4.93-5.634-2.838-8.683-4a73.43 73.43 0 0 0-9.492-2.943c-3.282-.775-6.654-1.345-10.08-1.656-1.688-.153-3.468-.47-5.26-.92s-3.605-1.028-5.482-1.73c-3.753-1.402-7.675-3.256-11.626-5.372s-7.95-4.473-11.92-6.917l-11.7-7.358c-3.813-2.39-7.524-4.636-11-6.586-.25-.14-.45-.194-.7-.33 17.434 4.288 41.127 18.51 59.307 21.045 27.792 3.873 63.655 19.345 58.72 55.96-.016.12-.01.282 0 .405z"/></g><g stroke-width="2.361" class="B D F H"><use xlink:href="#K"/><use xlink:href="#K" x="-253.996" y="66.882"/><use xlink:href="#K" x="-306.146" y="83.474"/><use xlink:href="#K" x="-347.09" y="117.696"/><use xlink:href="#K" x="-49.466" y="16.506"/><use xlink:href="#K" x="-98.833" y="33.788"/><use xlink:href="#K" x="-149.43" y="45.122"/><use xlink:href="#K" x="-200.132" y="55.888"/></g></g><g class="H"><g class="C K"><path d="M372.27 41.76c-1.12.526-2 1.31-2.27 2.283a26.23 26.23 0 0 0-.561 4.984l.01.554c0 .213-.052.442-.057.66-.092 3.78-.768 7.12-1.748 9.164l7.38 5.523 7.305-5.523c-.974-2.043-1.656-5.384-1.74-9.164-.004-.218-.06-.447-.066-.66l.02-.554c-.045-1.802-.24-3.498-.56-4.984-.287-.984-1.153-1.78-2.27-2.306l.2 2.04-.01.357.03 8.436a24.51 24.51 0 0 0 .285 3.361c.16 1.003.372 1.863.627 2.52L375.007 62l-3.866-3.55c.257-.656.477-1.516.636-2.52s.25-2.147.276-3.36l.038-8.436-.01-.357c.012-.73.114-1.36.2-2.018z"/><path d="M372.27 41.76l-.2 2.018c-.003.12.01.238.01.357l-.038 8.436c-.024 1.213-.117 2.358-.276 3.36s-.38 1.863-.636 2.52l3.866 3.55 3.828-3.55c-.255-.656-.468-1.516-.627-2.52s-.263-2.147-.285-3.36l-.03-8.436.01-.357c-.015-.74-.113-1.376-.2-2.04-.8-.37-1.686-.622-2.68-.622h-.01c-1.008 0-1.94.262-2.755.645z"/></g><g class="D"><g class="B F K"><use xlink:href="#L"/><use xlink:href="#L" y="1.958"/><use xlink:href="#L" y="3.651"/><use xlink:href="#L" y="4.668"/><use xlink:href="#L" y="5.534"/><use xlink:href="#L" y="6.588"/><use xlink:href="#L" y="8.395"/><use xlink:href="#L" y="12.574"/></g><g transform="matrix(.104047 0 0 .098712 67.338736 73.767988)" class="C O"><path d="M2417.1 230.14c20.676 40.492 45.406 92.37 64.518 86.024 4.122-1.736 5.463-11.816-.705-44.422l-37.37-73.684c-5.17-8.375-19.86-2.033-20.8 6.7l-5.64 25.384z"/><path d="M2448.8 274.9l6.813-19.97c-13.815-17.775-35.164-50.18-58.03-90.47-4.728-8.337-20.926-3.418-17.062 5.844 30.87 58.46 52.805 89.217 68.28 104.6zm1048-44.76c-20.676 40.492-45.406 92.37-64.518 86.024-4.122-1.736-5.463-11.816.705-44.422l37.37-73.684c5.17-8.375 19.86-2.033 20.8 6.7l5.64 25.384z"/><path d="M3458.1 255.2l6.812 19.97c15.488-15.3 37.482-46.1 68.5-104.84 3.864-9.26-12.335-14.18-17.062-5.844-22.975 40.476-44.443 73-58.25 90.72z"/></g></g></g><g id="C" transform="matrix(.104047 0 0 .092431 67.335813 75.146408)" class="H"><g stroke-width="2.702" class="B C D"><path d="M2259.2-21.284l13.513-10.7c38.724-10.032 73.253 26.827 73.025 42.666 9.68-8.806 19.36-5.788 29.038-5.28-5.725 18.92-.138 33.015-6.864 53.325 8.97 2.785 15.99 6.738 17.95 13.727l8.975-5.808 11.087-.528c2.122 52.753-15.08 41.16-11.615 60.716l18.48-22.703 20.063 2.112c9.82 1.864 12.627 13.462 23.23 14.783-7.483 10.116-12.04 27.91-19.007 40.126-8.556 6.212-16.075 5.174-23.23 1.584 23.334 8.588 29.45 28.737 38.542 39.598-9.56.528-18.142 1.584-22.175 2.112 14.738 21.028 23.153 37.86 37.486 49.63l-8.447 1.584-43.82-21.647-36.958-38.014-45.405-70.22-1.584-110.87c-23.15-11.794-19.606-39.16-72.283-36.2z"/><path d="M2257.8-20.617c63.056 6.588 63.012 95.73 75.585 148.4l40.318 68.266c25.497 24.64 41.98 55.3 57.75 58.904 15.276 3.5 14.218-3.02 29.758.658-30.425-13.526-16.494-44.747-79.72-63.685 20.446-11.327 20.444 19.878 61.394 10.996-11.23-28.088-35.37-29.443-46.274-39.86 16.707-5.397 18.54 5.343 30.697.458 13.5-5.423 10.385-26.335 21.075-40.318-13.993-6.173-25.368-24.565-42.61-15.578-5.992 4.968-14.814 21.736-24.74 25.657-4.177-22.38 9.867-24.388 12.828-35.737 2.934-11.245-1.755-14.662.916-30.697-45.422 16.762-28.28 47.084-49.03 60.37-.213-32.214 8.898-18.514 25.665-53.954-6.33-9.42-10.793-7.643-16.036-10.538 8.33-18 .795-28.962 9.62-54.063-16.68-5.572-22.356 3.466-27.032 9.163-1.695-15.593-38.16-65.957-80.167-38.448z"/></g><path d="M2348 39.813c-13.442 30.094-12.093 60.188-11.112 90.282m32.64-15.973c-2.704 15.12-12.25 23.4-22.223 31.252m69.448-9.028c-23.958 1.778-25.712 17.052-61.114 22.223m6.945 9.723c17.158 3.445 34.12 7.087 45.836 15.973m-36.807 5.556c23.37 28.198 42.978 30.734 50.002 45.14" stroke-width="1.351" class="E"/><g transform="matrix(-.927826 .610427 .610427 .927826 3844.2704 -1752.9019)" stroke-width="2.433"><use xlink:href="#M" class="F"/><use xlink:href="#N" class="C"/></g></g><use xlink:href="#C" transform="matrix(-1 0 0 1 749.99972 0)"/><g class="H"><g class="D"><path d="M375 81.64c-.363.004-.73.233-.74.67-.334 4.32-2.102 11.055-8.665 12.274-6.5 1.2-12.25-7.986-12.492-11.642.004-.546-.438-.758-.884-.734-.506.027-1.02.355-.894.84.97 4.992-.046 11.35-4.552 12.487-4.488 1.132-9.4-4.18-12.886-10.8-.324-1.252-2.187-.76-1.83.157 2.848 6.883 1.886 11.728-.166 12.75-2.492.76-7.69-5.3-10.606-10.642-.496-.723-2.323-.347-1.89.58 2.123 4.104 4.232 8.207 4.33 12.38-.244-.242-.56-.603-.904-1.024l-.71 1.97c1.712 1.614 2.664 1.5 3.14 1.083.955-.854.974-2.62-.306-6.558 2.355 2.377 6.057 5.293 8.44 3.686s2.603-4.502 2.387-8.008c2.916 3.62 7.35 7.356 11.328 6.43 4.03-.94 5.8-4.492 6.33-9.01 2.22 4.096 6.8 8.778 12.44 8.06 5.42-.69 8.533-6.735 9.114-8.724.58 1.99 3.697 8.035 9.117 8.724 5.64.717 10.216-3.965 12.437-8.06.54 4.52 2.3 8.07 6.33 9.01 3.98.927 8.412-2.808 11.328-6.43-.217 3.506.003 6.402 2.387 8.008s6.086-1.31 8.44-3.686c-1.28 3.937-1.26 5.704-.306 6.558.475.425 1.42.533 3.118-1.058l-.71-1.97c-.336.4-.642.762-.88 1 .1-4.172 2.207-8.275 4.33-12.38.434-.927-1.4-1.303-1.886-.58-2.918 5.342-8.115 11.402-10.606 10.642-2.052-1.022-3.017-5.866-.17-12.75.357-.92-1.507-1.41-1.83-.157-3.495 6.62-8.395 11.93-12.882 10.8-4.507-1.136-5.526-7.495-4.555-12.487.236-.91-1.783-1.27-1.775-.105-.243 3.656-5.986 12.852-12.495 11.642-6.563-1.22-8.328-7.954-8.662-12.274.003-.454-.356-.674-.72-.67z" class="C K"/><g transform="matrix(.104047 0 0 .098712 67.339677 73.767988)"><g class="O"><path d="M3204.684 86.87c0 16.366-13.19 29.633-29.463 29.633s-29.463-13.267-29.463-29.633 13.19-29.633 29.463-29.633 29.463 13.267 29.463 29.633z" class="B F"/><path d="M3154.7 108.5c10.772 4.082 21.975 5.453 35.22 4.41-.747 7.66-7.853 4.55-6.792 11.094s-27.318 4.357-24.724-2.56-5.077-5.326-3.705-12.943z" class="C"/></g><g transform="matrix(-1 0 0 1.005786 5913.0469 -1346.0782)" stroke-width="2.607"><use xlink:href="#O" class="B F"/><use xlink:href="#P" class="C"/></g></g><g transform="matrix(.104047 0 0 .098712 67.34543 73.767988)" class="T"><g transform="matrix(-.941893 .335392 .329732 .935336 4949.3346 -2266.4513)"><use xlink:href="#O" class="B F"/><use xlink:href="#P" class="C"/></g><g transform="matrix(.941893 .335392 -.329732 .935336 964.41171 -2266.4513)"><use xlink:href="#O" class="B F"/><use xlink:href="#P" class="C"/></g></g></g><g transform="matrix(.104203 0 0 .106818 66.662591 70.103396)"><g stroke-width="2.512" class="C D"><path d="M2841.5 4.13s28.88-5.15 44.492 18.174c15.34 22.918 52.763 20.52 52.763 20.52l-15.83 51.6-102-38.693c-.7 0 6.26-9.734 19.346-8.794s20.5 17.833 40.452 9.966l-39.3-52.763zm235 0s-28.88-5.15-44.492 18.174c-15.34 22.918-52.763 20.52-52.763 20.52l15.83 51.6 102-38.693c.7 0-6.26-9.734-19.346-8.794s-20.5 17.833-40.452 9.966l39.216-52.763z"/><path d="M2958.8-131.55c-17.55 18.957-35.44 40.264-36.406 68.266-14.07-14.666-28.15-4.4-42.22-1.78 7.07 9.515-.2 35.592 9.375 53.375-10.242.805-14.866 9.843-21.094 15.22 4.193 15.598 52.046 17.806 60.375 46.312-52.1-5.196-35.6-42.887-87.937-45.72-8.365 43.102 24.965 34.57 27.562 58.03-15.913 2.984-19.887-13.1-33.75-12.438-19.43.914-27.838 22.164-40.125 29.438 18.94 5.16 26.056 23.196 45.063 27.562 10.272 2.36 15.11-15.806 31.156-7.625-15.738 21.825-31.438 15.413-23.47 46.312 59.57 5.258 35.224-35.334 75.063-29.312-60.173 37.023-27.113 51.093-42.22 79.75 30.998-12.638 42.15-3.99 78.875-30.312 36.726 26.322 47.877 17.674 78.875 30.312-15.106-28.657 17.954-42.727-42.22-79.75 39.838-6.02 15.493 34.57 75.063 29.312 7.97-30.9-7.73-24.488-23.47-46.312 16.047-8.18 20.884 9.985 31.156 7.625 19.007-4.366 26.122-22.403 45.063-27.562-12.287-7.273-20.695-28.523-40.125-29.438-13.863-.652-17.837 15.422-33.75 12.438 2.598-23.462 35.928-14.93 27.562-58.03-52.337 2.832-35.837 40.523-87.937 45.72 8.33-28.507 56.182-30.714 60.375-46.312-6.228-5.376-10.852-14.414-21.094-15.22 9.576-17.783 2.306-43.86 9.375-53.375-14.07-2.628-28.148-12.885-42.22 1.78-.967-28.002-18.857-49.31-36.406-68.266l-.25-.25-.25.25z"/></g><path d="M2959.4 53.36c-1.814-3.265 0-157.77 0-157.77m-9.51 213.06c-4.702 18.528-21.42 48.187-41.035 58.707m20.596-75.34c-15.56.79-44.36 16.442-55.877 23.786m53.156-30.846c-55.01 4.998-77.46-17.22-94.48-10.296m96.757-5.716l-29.346-8.27c-10.178-2.783-16.34-15.242-22.838-22.088m75.034 11.418s-.815-10.302-13.14-39.17c-11.945-27.98-27.474-42.902-27.474-42.902m56.86 140.72c4.702 18.528 21.42 48.187 41.035 58.707m-20.596-75.34c15.56.79 44.36 16.442 55.877 23.786m-53.156-30.846c55.01 4.998 77.46-17.22 94.48-10.296m-96.757-5.716l29.346-8.27c10.178-2.783 16.34-15.242 22.838-22.088m-75.034 11.418s.815-10.302 13.14-39.17c11.945-27.98 27.474-42.902 27.474-42.902" stroke-width="1.256" class="E G"/><g stroke-width="2.515" class="B D"><path d="M2995.96 80.638c0 18.618-16.178 33.7-36.136 33.7s-36.136-15.092-36.136-33.7 16.178-33.7 36.136-33.7 36.136 15.092 36.136 33.7z" class="C"/><path d="M2988.558 80.638c0 14.797-12.86 26.79-28.727 26.79s-28.727-11.994-28.727-26.79 12.86-26.79 28.727-26.79 28.727 11.994 28.727 26.79z" class="F"/></g></g><g class="C D K"><path d="M374.95 96.216c-15.002.15-30.177.164-44.91 3.164-3.288.99-7.99 1.544-9.223 5.054-.405 2.93 3.313 4.174 5.635 4.98 11.062 3.17 22.75 3.44 34.213 3.934 17.832.342 35.78.48 53.48-1.887 4.835-.892 10.16-1.442 14.136-4.447 2.374-2.22-.254-5.325-2.878-5.964-9.004-3.298-18.825-3.652-28.348-4.324-7.36-.383-14.733-.505-22.103-.5z"/><path d="M375 99.82c-8.177 0-15.073.152-20.885.416l-3.362.173c-12.924.733-19.854 2.03-23.568 3.213l-.87.29c-1.328.483-2.145.945-2.642 1.32a3.83 3.83 0 0 0-.257.212c-.078.07-.142.134-.2.196-.332.367-.323.59-.323.59l2.824 9.734h98.563l2.824-9.734s.01-.223-.323-.59c-.056-.062-.12-.126-.2-.196-.454-.41-1.304-.953-2.898-1.532-3.472-1.257-10.436-2.7-24.438-3.504l-3.362-.173c-5.812-.264-12.708-.416-20.885-.416z"/></g><g class="D B K"><g class="C"><path d="M398.35 104.597c0 1.92-1.512 3.476-3.378 3.476s-3.378-1.556-3.378-3.476 1.512-3.476 3.378-3.476 3.378 1.556 3.378 3.476z"/><path d="M398.634 104.597c0 1.92-1.478 3.476-3.302 3.476s-3.302-1.556-3.302-3.476 1.478-3.476 3.302-3.476 3.302 1.556 3.302 3.476z"/></g><path d="M398.33 104.597c0 1.66-1.308 3.006-2.92 3.006s-2.92-1.346-2.92-3.006 1.308-3.006 2.92-3.006 2.92 1.346 2.92 3.006z" class="F"/></g><g transform="matrix(-.109734 0 0 .104107 550.02068 31.392723)" class="D B"><g class="C"><use xlink:href="#Q" class="U"/><use xlink:href="#R" stroke-width="2.486"/></g><use xlink:href="#S" class="F U"/></g><g transform="matrix(-.107352 .019508 0 .104405 546.31249 -4.945895)" class="B"><g class="V"><g class="E"><use xlink:href="#T"/><use xlink:href="#U"/><use xlink:href="#V" class="G"/></g><use xlink:href="#W" class="D P"/></g><g stroke-width="1.502" class="E"><use xlink:href="#X"/><path d="M1935 728.27l7.497-12.348m27.803-14.292l-9.04.133m-37.86.037h-23.637m42.737-13.62l-7.453-12.657" class="G"/></g></g><g transform="matrix(.107352 .019508 0 .104405 203.68746 -4.945895)" class="B"><g class="V"><g class="E"><use xlink:href="#T"/><use xlink:href="#U"/><use xlink:href="#V" class="G"/></g><use xlink:href="#W" class="D P"/></g><g stroke-width="1.252" class="E"><use xlink:href="#X"/><path d="M1935 728.27l7.497-12.348m27.803-14.292l-9.04.133m-37.86.037h-23.637m42.737-13.62l-7.453-12.657" class="G"/></g></g><g transform="matrix(.109734 0 0 .104107 199.92805 31.000656)" stroke-width="2.479"><rect rx="32.551" ry="33.918" height="67.836" width="127.3" y="669.17" x="1531.8" class="C"/><rect rx="29.29" height="58.579" width="114.54" y="673.8" x="1538.2" class="I"/></g></g><path d="M322.62 99.015l-.716 1.5.544.512.474-1.78c-.08-.105-.198-.25-.302-.232zM427.4 99c-.13.002-.136.006-.357.28l.554 1.706.43-.406L427.4 99z" class="C D"/><g id="D" transform="matrix(.104047 0 0 .098712 67.001512 72.524522)" class="H"><g class="C D O"><path d="M2485.2-95.278l11.52-4.942c34.563-5.265 51.2 33.927 54.428 56.04 13.283-4.463 30.967-9.576 50.873-4.77-4.993 21.105-1.248 24.198-9.14 52.065 19.665 3.835 20.27 10.422 25.834 14.308-24 19.994-59.526 25.64-61.206 50.873l38.552-6.756c18.415-15.235 18.265-45.167 55.244-45.706 3.84 43.714-20.93 30.607-30.206 62 29.278 2.385 90.045-2.076 87.835 7.154-27.16 17.734-25.226 23.34-39.347 32.988l-9.14.795c-9.232-4.17-14.687-18.917-28.616-9.936-.001 0 7.697 5.73 29.41 14.705 21.036 8.696 17.1 31.795 17.1 31.795-30.985 4.8-43.3-3.593-56.834-11.128 36.392 26.298 26.453 43.16 46.898 64.386l-5.167-.397c-41.173 2.097-62.115-15.727-89.027-25.04 3.505 11.1-14.967 30.072-20.27 41.334h-3.974l-23.052-54.052c-2.888 7.312-7.28 5.602-11.128 7.154l-24.642-66.373c-16.183-5.513-13.598-17.283-14.705-27.82 3.78.467 3.842-1.298 12.32 1.987l-11.128-27.82-1.987-19.475c4.462 3.016 12.75.93 11.526 11.526 3.02 12.1 7.547 21.206 11.526 31.398l13.116-43.72-24.64-75.514 13.9-5.564c-5.25-17.168 21.44-36.617-15.87-51.495z"/><path d="M2483.5-94.74c35.63-12.752 57.504 21.597 59.308 50.034 17.088-4.87 34.218-9.218 52.216-3.165-10.992 24.11-.948 37.544-13.186 55.38 21.613 1.835 16.767 6.632 28.482 11.076-33.123 28.566-62.148 22.564-64.347 53.8 53.51-16.48 32.026-29.108 56.963-43.777 11.482-6.978 25.28-11.64 43.25-12.13 3.894 46.68-25.425 32.157-33.228 61.7 26.957-3.66 30.53-19.008 46.752-21.425s31.334 15.412 48.714 26.172c-31.156 12.186-34.468 37.355-49.906 35.17-14.214-1.735-15.948-12.717-32.9-5.105 15.023 13.4 40.8 11.435 47.997 40.613-37.247 12.563-63.258-16.926-100.2-17.933 90.783 25.053 57.734 52.673 90.192 72.786-24.847-2.767-45.2 4.394-91.246-22.152 1.293 12.654-15.446 22.542-23.207 38.503-4.803-25.18-29.578-37.667-24.8-77.006-9.42 1.128 5.442 28.68-10.02 29.536-13.066-11.267-14.007-26.456-14.24-36.92-7.56-9.142 2.848 16.595-29.01-24.262-2.817-4.24 1.736-30.704 5.274-32.7 2.6 6.58 5.058 13.442 11.076 13.186-2.102-9.734-4.318-19.39-10.55-26.372-3.305-2.083-2.756-20.07-1.055-31.646 11.324 13.9 3.373 35.375 22.152 39.03-1.12-35.234-31.164-24.405-14.24-58.018-2.285-18.11-2.798-75.552 9.494-53.27-1.063-30.3 12.948-51.707-9.728-61.1z" class="B"/></g><path d="M2515.2 74.655c-15.628-89.02 10.802-115.66-7.006-158.6m58.445 70.377c-33.827 29.41-41.894 58.82-44.514 88.232m32.6 27.82c43.182 2.933 63.327-17.898 108.1-19.077m-111.28 7.95c34.864-4.957 43.856-24.44 54.847-39.744m-50.078 59.616c28.658.68 53.223 8.826 65.975 18.282m-78.694 5.564c28.69 32.747 46.907 30.587 69.95 44.514m-75.514-45.308c-4.25 25.578 5.817 42.192 8.744 54.847m-31.795-59.616c-3.143 4.54-5.335 10.033-6.36 16.693m-3.974-32.6c-13.095 5.147-11.494-1.485-26.23 1.6m26.23-21.462c-5.3-.84-10.598-3.465-15.898-12.718m21.462-3.18c-3.918-22.834-8.42-46.546-20.667-81.873" stroke-width="1.307" class="B E G"/><g transform="matrix(-.748008 .507597 .481371 .883198 3520.4688 -1419.3176)" class="D B"><g class="C"><use xlink:href="#Q" class="W"/><use xlink:href="#R" stroke-width="2.756"/></g><use xlink:href="#S" class="F W"/></g></g><use xlink:href="#D" transform="matrix(-1 0 0 1 749.99959 0)"/><g class="H"><path d="M351.5 85.65c.788.086 1.72.013 2.47-.26m44.57.26c-.788.086-1.72.013-2.47-.26m33.43 4.635c-.77-.185-1.615-.566-2.214-1.073M320.48 90.025c.77-.185 1.615-.566 2.213-1.073" stroke-width=".132" class="E"/><g transform="matrix(.265 0 0 .251412 102.97731 -53.875895)"><g transform="matrix(-.448389 .143055 .143055 .448389 1663.1061 44.924678)" class="L"><use xlink:href="#M" class="I"/><use xlink:href="#N" class="C"/></g><g transform="matrix(-.454619 .121815 .121815 .454619 1690.3983 77.273629)" class="D B"><g class="C"><use xlink:href="#Y" class="L"/><use xlink:href="#Z" class="X"/></g><use xlink:href="#a" class="F L"/></g><g transform="matrix(-1 0 0 1 2053.0014 0)"><g transform="matrix(-.448389 .143055 .143055 .448389 1663.1061 44.924678)" class="L"><use xlink:href="#M" class="I"/><use xlink:href="#N" class="C"/></g><g transform="matrix(-.454619 .121815 .121815 .454619 1690.3983 77.273629)" class="D B"><g class="C"><use xlink:href="#Y" class="L"/><use xlink:href="#Z" class="X"/></g><use xlink:href="#a" class="F L"/></g></g></g><g transform="matrix(.244227 0 0 .231704 49.421479 48.406661)"><path d="M1147 293.42s40.214-20.435 186.1-20.435c145.42 0 186.1 20.435 186.1 20.435s-34.014 20.435-186.1 20.435c-152.58 0-186.1-20.435-186.1-20.435z" class="D I Y"/><g class="E"><use xlink:href="#b" class="Z"/><use xlink:href="#b" x="-8.6" class="a"/><use xlink:href="#b" x="-16.7" class="b"/><use xlink:href="#b" x="-24.7" class="c"/><use xlink:href="#b" x="-31.8" class="d"/><path d="M1240.352 314.56l-.188-43.034m6.636 43.6v-45.013" class="e"/><path d="M1227.852 312.63v-39.648m6.362 40.78l-.188-42.194" class="f"/><path d="M1210.952 310.36v-34.835m5.527 35.4v-36.533m5.694 37.665v-37.95" class="g"/><path d="M1205.052 310.08v-33.7" class="h"/><path d="M1199.552 308.38v-31.435" class="i"/><path d="M1193.652 307.53v-29.17" class="j"/><path d="M1181.562 304.98l-.188-23.224m6.383 24.357V280.06" class="k"/><path d="M1175.362 303v-20.394" class="l"/><path d="M1169.692 301.35v-16.983" class="m"/><path d="M1163.492 299.08v-13.3" class="n"/><path d="M1157.132 297.95v-9.905" class="o"/><path d="M1150.392 295.69v-4.813" class="p"/><path d="M1319.752 314.56v-43.315m-14.49 44.732l.188-45.864m-10.748 46.43V269.83" stroke-width=".29"/><use xlink:href="#b" x="94.7" class="Z"/><use xlink:href="#b" x="103.3" class="a"/><use xlink:href="#b" x="111.3" class="b"/><use xlink:href="#b" x="119.3" class="c"/><use xlink:href="#b" x="126.5" class="d"/><path d="M1425.852 314.56l.188-43.034m-6.636 43.6v-45.013" class="e"/><path d="M1438.352 312.63v-39.648m-6.362 40.78l.188-42.194" class="f"/><path d="M1455.252 310.36v-34.835m-5.527 35.4v-36.533m-5.694 37.665v-37.95" class="g"/><path d="M1461.152 310.08v-33.7" class="h"/><path d="M1466.652 308.38v-31.435" class="i"/><path d="M1472.552 307.53v-29.17" class="j"/><path d="M1484.652 304.98l.188-23.224m-6.383 24.357V280.06" class="k"/><path d="M1490.852 303v-20.394" class="l"/><path d="M1496.452 301.35v-16.983" class="m"/><path d="M1502.652 299.08v-13.3" class="n"/><path d="M1509.052 297.95v-9.905" class="o"/><path d="M1515.752 295.69v-4.813" class="p"/><path d="M1346.452 314.56v-43.315m14.49 44.732l-.188-45.864m10.748 46.43V269.83" stroke-width=".29"/></g><path d="M1332.9 258.95c-56.612.595-113.87.658-169.47 12.594-12.408 3.94-30.155 6.135-34.812 20.094-1.528 11.66 12.487 16.608 21.25 19.812 41.744 12.6 85.873 13.685 129.12 15.656 67.3 1.358 135 1.885 201.78-7.53 18.247-3.547 38.34-5.737 53.344-17.688 8.96-8.832-.94-21.18-10.844-23.72-33.977-13.12-71.033-14.516-106.97-17.188-27.773-1.525-55.595-2.012-83.406-2.03zm.156 14.03c145.42 0 186.12 20.438 186.12 20.438s-34.025 20.438-186.12 20.438c-152.58 0-186.1-20.438-186.1-20.438s40.194-20.438 186.1-20.438z" class="C D Y"/></g><use xlink:href="#c" class="D I K"/><g transform="matrix(.265 0 0 .265 303.22299 -6.601965)"><g class="D B"><g class="C Q"><g transform="matrix(.710248 0 0 .651749 192.46558 392.64667)"><path d="M278.48 337.1v65.288l-9.79-8.33V334.7l9.79 2.408z"/><use xlink:href="#d"/><use xlink:href="#e"/><use xlink:href="#f"/><use xlink:href="#g"/><use xlink:href="#h"/><use xlink:href="#i"/><path d="M245.5 320.64h6.238v4.833h7v-4.833h6.4v4.833h6.84v-4.833h6.446v10.443H245.5V320.64zm4.58 15.74v61.967h23.78V336.38h-23.78zm11.938 11.07c2.663.073 5.134 1.295 5.25 6.622s-.03 15.326-.03 15.326H256.8l-.125-15.452c.07-5.027 2.68-6.57 5.344-6.496zm-24.818-31.2v86.508l-9.5-7.5v-80.586l9.5 1.568z"/><use xlink:href="#d" x="-41.29" y="-20.86"/><path d="M237.16 299.8l5.513 4.008v9.685l-5.513-3.113V299.8zm-32.96 16.46v86.294l9.23-7.77v-80.37l-9.23 1.848z"/><use xlink:href="#g" x="-41.29" y="-20.86"/><path d="M204.24 299.8l-5.513 4.008v9.685l5.513-3.113V299.8z"/><use xlink:href="#i" x="-41.29" y="-20.85"/><path d="M204.2 299.78h6.238v4.833h7v-4.833h6.4v4.833h6.84v-4.833h6.446v10.443H204.2V299.78zm4.56 15.72v83.624h23.812V315.5H208.76zm11.97 11.32c2.663.072 5.134 1.288 5.25 6.585s-.03 15.24-.03 15.24l-10.438-.03-.125-15.333c.07-4.998 2.68-6.532 5.344-6.46zm-24.832 10.28v65.288l-9.8-8.33V334.7l9.8 2.408z"/><use xlink:href="#d" x="-82.582"/><use xlink:href="#e" x="-82.582"/><use xlink:href="#f" x="-82.582"/><use xlink:href="#g" x="-82.582"/><use xlink:href="#h" x="-82.582"/><use xlink:href="#i" x="-82.582"/><path d="M162.918 320.64h6.238v4.833h7v-4.833h6.4v4.833h6.84v-4.833h6.446v10.443H162.92V320.64zm4.58 15.74v61.967h23.78V336.38h-23.78zm11.938 11.07c2.663.073 5.134 1.295 5.25 6.622s-.03 15.326-.03 15.326h-10.438l-.125-15.452c.07-5.027 2.68-6.57 5.344-6.496z"/></g><g transform="matrix(.710248 0 0 .651749 192.49172 392.64667)" class="G"><path d="M232.68 361.17l4.5 2.85m-4.5-11.9l4.5 2.85m-4.5-11.9l4.5 2.85m-4.5-11.9l4.5 2.85m-4.5-11.9l4.5 2.85m-28.47 33.35l-4.5 2.85m4.5-11.9l-4.5 2.85m4.5-11.9l-4.5 2.85m4.5-11.9l-4.5 2.85m4.5-11.9l-4.5 2.85m16.3 23.98v-2.997M208.7 325.1h23.716m-5.936 8.9h5.752m-6.032 9.32h5.88m-23.38 8.6h23.716m-23.716 9.3h23.716m-11.746 8.17v-7.913m-3.94-.547v-8.8m8.74 8.88v-8.876m-8.74-27.454v-9.08m8.57 8.98l.17-8.963m7.2 54.263l4.5 2.85m-28.47-2.85l-4.5 2.85m4.5-3.05h23.716m.264 9.48l4.5 2.85m-28.47-2.85l-4.5 2.85m4.5-2.8h23.716m-15.686-.28v-8.8"/><path d="M225.47 379.04v-8.876m-4.8 28.436v-18.962M209.16 334h5.752m-5.812 9.32h5.88m5.52-16.8v-1.385m53.47 56.895l4.5 2.85m-4.5-11.9l4.5 2.85m-4.5-11.9l4.5 2.85m-4.5-11.9l4.5 2.85m-4.5-11.9l4.5 2.85M250 382.03l-4.5 2.85m4.5-11.9l-4.5 2.85m4.5-11.9l-4.5 2.85m4.5-11.9l-4.5 2.85m4.5-11.9l-4.5 2.85m16.3 23.6v-2.723m-11.82-23.607h23.716m-6.296 8.9h5.8m-5.47 9.3h5.584m-23.344 8.6h23.716m-23.716 9.3h23.716"/><path d="M261.8 398.05v-16m-3.78-.25V373m8.74 8.87v-8.876m-8.74-27.024v-9.485m8.58 9.485l.17-9.485m-16.3 18.365h5.8m-5.93 9.3h5.584m5.856-16.87v-1.135m-70.412 35.865l4.5 2.85m-4.5-11.9l4.5 2.85m-4.5-11.9l4.5 2.85m-4.5-11.9l4.5 2.85m-4.5-11.9l4.5 2.85m-28.47 33.36l-4.5 2.85m4.5-11.9l-4.5 2.85m4.5-11.9l-4.5 2.85m4.5-11.9l-4.5 2.85m4.5-11.9l-4.5 2.85m16.3 23.6v-2.723m-11.82-23.607h23.716m-6.296 8.9h5.8m-5.47 9.3h5.584m-23.344 8.6h23.716m-23.716 9.3h23.716"/><path d="M179.218 398.05v-16m-3.78-.25V373m8.74 8.87v-8.876m-8.74-27.024v-9.485m8.57 9.485l.17-9.485m-16.28 18.365h5.8m-5.93 9.3h5.584m5.856-16.87v-1.135"/></g></g><g class="I"><path d="M325.03 690.9l-.1-15.913c.067-5.18 2.5-6.77 5.015-6.696s4.843 1.33 4.953 6.822-.03 15.792-.03 15.792l-9.837-.005zm38.57-.34l-.1-15.913c.067-5.18 2.5-6.77 5.015-6.696s4.844 1.33 4.953 6.822-.03 15.792-.03 15.792l-9.837-.005zm-47.43-57.36l-.075-9.97c.05-3.247 1.893-4.242 3.784-4.195s3.655.834 3.737 4.274l-.023 9.895-7.423-.003z"/><use xlink:href="#j"/><use xlink:href="#j" x="-29.42" y="-13.52"/></g><g class="C"><path d="M314.88 651.23l-15.736 3.87 4.64 4.257v48.657l-7.48 6.843v45.398l16.757 8.9h72.3l16.78-8.9v-45.398l-7.48-6.843v-48.657l4.617-4.257-15.714-3.87H314.88zm14.627 16.864c.156-.01.31-.005.466 0 2.507.075 4.84 1.332 4.95 6.823s-.022 15.805-.022 15.805l-9.832-.02c0 0-.178-10.723-.11-15.907.063-4.857 2.216-6.568 4.55-6.7zm38.487 0c.156-.01.31-.005.466 0 2.507.075 4.84 1.332 4.95 6.823s-.044 15.805-.044 15.805l-9.833-.02c0 0-.156-10.723-.09-15.907.063-4.857 2.216-6.568 4.55-6.7z"/><path d="M296.37 714.85l16.75 8.748v15.442" class="G"/></g><g class="F G"><path d="M303.8 708.02l16.572 4.04m-7.338 11.53l7.315-11.505"/><path d="M320.36 711.96v-55.608m-5.33-5.092l5.277 4.9m-16.537 3.22l16.65-3.18"/></g><path d="M402.07 714.85l-16.75 8.748v15.442" class="C G"/><g class="F G"><path d="M394.63 708.02l-16.572 4.04m7.338 11.53l-7.315-11.505"/><path d="M378.08 711.96v-55.608m5.32-5.092l-5.277 4.9"/><path d="M394.67 659.38l-16.65-3.18m-57.68 55.88h57.745"/><path d="M320.34 656.2h57.745M357.8 723.58h27.355m-71.885 0h27.355"/></g></g><g class="C B"><g class="D q"><path d="M394.904 642.673l-2.605.64v4.678l3.785-.93v-3.012l-1.18-1.377z"/><path d="M383.227 637.954l6.018 2.444v4.085l5.652 1.63v-3.426l4.608 1.87v10.374l-16.312-3.505.033-13.47zm-79.697 4.72l2.605.64v4.678l-3.785-.93v-3.012l1.18-1.377z"/><path d="M315.207 637.954l-6.018 2.444v4.085l-5.652 1.63v-3.426l-4.608 1.87v10.374l16.312-3.142-.033-13.833z"/></g><path d="M328.922 637.967h-13.806v13.667h68.206v-13.667H369.65v5.642h-13.694v-5.642h-13.317v5.642h-13.716v-5.642z" class="q"/><g transform="matrix(.710248 0 0 .653569 84.989348 234.81635)" stroke-width="1.468" class="D G"><path d="M435.6 661.95l-23.056-3.1m23.086 15.56l-22.753-1.274m22.763 13.634l-22.58.65m22.64 11.83l-23.148 2.457"/><path d="M435.54 711.65l-23.004 4.336M422.95 759.7l23.45-13.53m-22.04-98.94v13.052m0 13.518v13.052m0 13.708v13.052m0 13.638l10.372 13.8m-.032 23.75v-11.682M417.54 659.6v13.724"/><path d="M432.1 661.54v12.432M417.54 687.4v13.562m14.56-13.812v12.593M417.54 715v13.723M432.1 712.5v12.736m-4.44 19.884v11.722M442.22 737v11.74M321.1 759.8l-23.44-13.67m10.57-84.18l23.056-3.1M308.2 674.4l23.273-1.274M308.2 686.76l23.1.65m-23.16 11.83l23.148 2.457"/><path d="M308.28 711.65l23.004 4.336M321.14 759.7l-23.45-13.53m22.04-98.94v13.052m0 13.518v13.052m0 13.708v13.052m0 13.638l-10.372 13.8m.042 23.76v-11.682m17.15-93.518v13.724"/><path d="M312 661.54v12.432m14.55 13.428v13.562M312 687.15v12.593M326.55 715v13.723M312 712.5v12.736m4.42 19.884v11.722"/><path d="M301.87 737v11.74m96.83-86.1v-3.454M388.46 759.77h34.434M331.04 658.84h81.303"/><path d="M352.53 673.13h39.44M352.3 687.4h39.324m-60.584 14.3h81.303M331.04 716h81.303"/><path d="M358.16 658.76v-14.134m27.1 14.134v-14.134m-27.1 42.634v-14.134m27.1 14.134v-14.134m-27.1 42.854v-14.134m27.1 14.134v-14.134M344.7 662.35v-3.138m27.32 13.748v-13.878M344.7 701.38v-3.612m27.32 3.732v-13.878m26.68 13.528v-3.404m-54 32.384v-13.878m27.32 8.998v-8.972m26.68 13.852v-13.878m-59.16 31.308l5.23-17.24m59.03 17.24l-5.23-17.24m-59.17 41.54v-11.965m64.47 11.965v-11.965m-74.27-.295V748m16.92 11.6V748m50.34 11.6V748m16.94 11.6V748m-92.6 11.77h33.766m51.304-86.64h6.566m-81.236 0h5.9m69 14.27h5.953"/><path d="M331.74 687.4h5.953"/></g></g><g transform="matrix(.710248 0 0 .651749 192.71984 393.34678)" class="E"><g stroke-width="1.471" class="B"><use xlink:href="#k"/><use xlink:href="#k" x="13.419"/><use xlink:href="#k" x="67.096"/><use xlink:href="#k" x="53.678"/><use xlink:href="#k" x="40.258"/><use xlink:href="#k" x="26.839"/></g><g class="Q"><use xlink:href="#l"/><use xlink:href="#l" x="10.32" y="-2.5"/><use xlink:href="#m"/><use xlink:href="#m" x="-10.33" y="-2.5"/></g></g><g class="C D"><g class="B G"><path d="M385.42 739.24l16.654-8.848M385.28 747.88l16.654-8.848M393.6 751.18v-7.635m-8.42 3.655v-7.635m-72.3-.115l-16.654-8.848M313 748.08l-16.654-8.848m8.334 12.148v-7.635m8.42 3.655v-7.635"/><path d="M361.17 739.37h23.982m-72.052.13h23.982"/></g><path d="M456.94 780.47c-36.105-14.822-72.2-20.426-108.32-35.248-35.527 15.62-76.523 21.243-112.05 36.864 1.512 33.603 8.113 85.593 13.277 117.08-8.908 2.398 121.28 17.136 191.47 2.403 5.5-9.8 13.963-46.812 15.616-121.1z"/><path d="M250.06 854h204.1"/></g><path d="M278.43 853.6l.1 17.913m138.9-17.973l.1 17.913m-127.2-35.593l.1 17.913m12.85.657l.1 17.913m22.24-18.543l.1 17.913m22.76-17.673l.1 17.913m22.48-17.913l.1 17.913m21.4-17.653l.1 17.913m12.8-36.133l.1 17.913m34.47-35.663l.1 17.913m.3 17.757l.1 17.913M427.96 835.5l.1 17.913m-11.24-35.793l.1 17.913" class="E"/><g class="C D"><path d="M236.1 890.73l209.57-.716M234.3 871.65h207.96"/><path d="M292.33 890.07l-.006-18.442M314.7 890.07l-.006-18.442m22.366 18.442l-.006-18.442m22.366 18.442l-.006-18.442M381.8 890.07l-.006-18.442M303.5 908.44l-.006-18.442m22.386 18.442l-.006-18.442m22.366 18.442l-.006-18.442M370.6 908.44l-.006-18.442"/></g><path d="M279.2 890.25l.1 17.913m115.02-17.693l.1 17.913m34.48-35.663l.1 17.913m-12.18-.733l.1 17.913M405.68 872l.1 17.913" class="E"/><g class="C D J"><path d="M257.5 783.045H439.6"/><path d="M312.04 783.064l-.005-9.03m18.892 9.03l-.005-9.03m18.886 9.03l-.005-9.03m18.893 9.03l-.005-9.03"/></g><path d="M281.456 782.854l.076 8.772m117.3-8.806l.076 8.772M291.52 774.16l.076 8.772m10.86.323l.076 8.772m18.787-9.085l.076 8.772m19.236-8.65l.076 8.772m18.98-8.772l.076 8.772m18.07-8.644l.076 8.772m10.808-17.694l.076 8.772m29.45-.002l.076 8.772M407.715 774l.076 8.772m-145.368.33l.076 8.772m8.807-17.532l.076 8.772" class="E J"/><g class="C D"><path d="M263.783 792.388H439.38" class="J"/><g class="R"><path d="M257.507 801.795h177.507"/><path d="M313.68 801.814l-.005-9.03m19.46 9.03l-.005-9.03m19.452 9.03l-.005-9.03m19.46 9.03l-.005-9.03"/></g></g><path d="M282.18 801.604l.078 8.772m120.82-8.806l.078 8.772M292.547 792.9l.078 8.772m11.175.323l.078 8.772m19.362-9.085l.078 8.772m19.812-8.65l.078 8.772m19.552-8.772l.078 8.772m18.612-8.644l.078 8.772m11.132-17.694l.078 8.772m30.335.008l.078 8.772m-10.924-17.832l.078 8.772m-149.728.34l.078 8.772m9.072-17.532l.078 8.772" class="E R"/><g class="C D"><path d="M263.978 811.138H444.84" class="R"/><g class="J"><path d="M257.5 819.763h172.337"/><path d="M312.04 819.783l-.005-9.03m18.892 9.03l-.005-9.03m18.886 9.03l-.005-9.03m18.893 9.03l-.005-9.03"/></g></g><path d="M281.456 819.572l.076 8.772m117.3-8.806l.076 8.772M291.52 810.88l.076 8.772m10.86.322l.076 8.772m18.787-9.086l.076 8.772m19.236-8.65l.076 8.772m18.98-8.772l.076 8.772m18.07-8.655l.076 8.772m10.808-17.684l.076 8.772m29.45 0l.076 8.772M407.715 810.7l.076 8.772m-145.368.34l.076 8.772m8.807-17.534l.076 8.772" class="E J"/><g class="C D J"><path d="M263.783 829.107H439.38m-161.567 9.406H450.15"/><path d="M332.35 838.533l-.005-9.03m18.895 9.03l-.005-9.03m18.885 9.03l-.005-9.03m18.895 9.03l-.005-9.03"/></g><path d="M301.768 838.322l.076 8.772m117.3-8.806l.076 8.772m-107.388-17.43l.076 8.772m10.86.322l.076 8.772m18.786-9.086l.076 8.772m19.236-8.65l.076 8.772M380 838.533l.076 8.772m18.07-8.645l.076 8.772m10.81-17.694l.076 8.772m29.45 0l.076 8.772m-10.605-17.822l.076 8.772m-145.368.34l.076 8.772m8.808-17.534l.076 8.772" class="E J"/><g class="D"><g class="C"><path d="M284.095 847.857h175.596" class="J"/><path d="M349.74 787.06c-52.417 33.24-48.6 48.456-46.256 96.02l96.264.055c-.447-48.046-.303-69.543-50.007-96.075z" class="B"/></g><path d="M315.75 882.64c-.896-38.242-5.322-58.343 35.176-83.247 40.26 25.638 36.43 46.657 37.635 83.62l-72.81-.372z" class="B I"/><path d="M436.56 800.02c-38.83 33.294-36 48.537-34.267 96.18l71.312.055c-.33-48.127-.224-69.66-37.045-96.236z" class="B C"/><use xlink:href="#n" class="B I"/><path d="M264.76 798.92c-38.83 33.294-36 48.537-34.267 96.18l71.312.056c-.33-48.127-.224-69.66-37.045-96.236z" class="B C"/><use xlink:href="#n" x="-171.81" y="-1.1" class="B I"/><g class="C J"><path d="M255.938 764.295h172.337"/><path d="M310.476 764.314l-.005-9.03m18.894 9.03l-.005-9.03m19.08 8.74l-.005-11.472m18.7 11.76l-.005-9.03"/></g></g><path d="M279.893 764.104l.076 8.772m117.3-8.806l.076 8.772M289.958 755.4l.076 8.772m10.86.323l.076 8.772m18.787-9.085l.076 8.772m19.235-8.65l.076 8.772m18.98-8.772l.076 8.772m18.07-8.644l.076 8.772m10.808-17.694l.076 8.772m29.452.008l.076 8.772m-10.605-17.832l.076 8.772m-145.37.34l.076 8.772m8.808-17.532l.076 8.772" class="E J"/><path d="M262.22 773.638h175.596" class="C D J"/><path d="M433.38 774.02l.076 8.772" class="E"/><g class="D"><g class="B"><path d="M349.37 708.3c-21.814 14.326-20.23 20.885-19.25 41.385l40.06.024c-.186-20.708-.126-29.974-20.81-41.41z" class="C"/><path d="M335.23 749.5c-.373-16.482-2.215-25.146 14.64-35.88 16.755 11.05 15.16 20.11 15.662 36.04l-30.3-.16z" class="I"/></g><path d="M455.3 763.7L348.5 737.43l-108.75 26.2c.11 9.566.336 8.89.727 17.89l108.22-29.28 105.92 28.338c.37-8.676.6-7.65.713-16.872z" class="C"/></g><path d="M433.6 792.5l.076 8.772" class="E"/></g><g class="K"><path d="M369.658 226.14l.024 4.747" class="E"/><path d="M371.126 219.153l-.3.008-1.085.09-.86.157a7.64 7.64 0 0 0-.712.224l-.638.24-.63.24-.704.215a7.72 7.72 0 0 1-.845.166c-.313.044-.664.076-1.06.09a10.53 10.53 0 0 1-1.201-.033l-.936-.116.257 1.466h-2.534v31.675h63.974v-31.344l.588.04c.348.04.647.09.92.157s.514.148.737.232l.63.257.596.265c.205.082.418.157.654.224s.5.118.795.157a7.54 7.54 0 0 0 1.002.066c.38 0 .765-.027 1.15-.066l.166-.025.63-3.006-.795.116c-.386.04-.77.058-1.15.058a7.65 7.65 0 0 1-1.002-.058c-.295-.04-.56-.1-.795-.166s-.45-.15-.654-.232l-.596-.257-.63-.265c-.223-.083-.465-.157-.737-.224s-.57-.127-.92-.166-.742-.066-1.192-.066a9.17 9.17 0 0 0-1.159.075 6.02 6.02 0 0 0-.878.174c-.255.07-.473.152-.68.24l-.588.273-.58.273a4.94 4.94 0 0 1-.671.224c-.248.064-.53.1-.853.14a8.66 8.66 0 0 1-1.126.033l-1.126-.09c-.33-.044-.61-.1-.87-.166s-.488-.14-.704-.215l-.62-.24-.613-.24-.68-.224c-.25-.065-.53-.113-.845-.157l-1.068-.1c-.4-.015-.752.002-1.068.033s-.597.077-.853.14-.492.147-.712.232l-.638.265-.638.282a6.71 6.71 0 0 1-.704.24l-.174.04.017-.1-.795.116c-.386.04-.77.058-1.15.058a7.65 7.65 0 0 1-1.002-.058c-.295-.04-.56-.1-.795-.166s-.45-.15-.654-.232l-.596-.257-.63-.265c-.223-.083-.465-.157-.737-.224s-.57-.127-.92-.166-.742-.066-1.192-.066a9.17 9.17 0 0 0-1.159.075 6.02 6.02 0 0 0-.878.174c-.255.07-.473.152-.68.24l-.588.273-.58.273a4.94 4.94 0 0 1-.671.224c-.248.064-.53.1-.853.14a8.66 8.66 0 0 1-1.126.033l-1.126-.09c-.33-.044-.61-.1-.87-.166s-.488-.14-.704-.215l-.62-.24-.613-.24-.68-.224c-.25-.065-.53-.113-.845-.157l-1.068-.1c-.4-.015-.752.002-1.068.033s-.597.077-.853.14-.492.147-.712.232l-.638.265-.638.282a6.71 6.71 0 0 1-.704.24 6.2 6.2 0 0 1-.853.174c-.316.042-.67.066-1.068.066s-.754-.024-1.068-.066a6.05 6.05 0 0 1-.845-.174c-.254-.07-.478-.152-.696-.24l-.638-.282-.63-.265a6 6 0 0 0-.712-.232 5.95 5.95 0 0 0-.861-.141c-.24-.023-.5-.035-.787-.033z" class="F"/></g><g stroke-width=".182" class="D N"><path d="M370.628 218.626a10.66 10.66 0 0 0-1.085.099l-.86.157a7.64 7.64 0 0 0-.712.224l-.638.24-.63.24-.704.215a7.72 7.72 0 0 1-.845.166c-.313.044-.664.076-1.06.1a10.53 10.53 0 0 1-1.201-.033l-.936-.116c.147 1.017.356 2.024.62 3.006l.315.033 1.2.033 1.06-.1.845-.157a7.94 7.94 0 0 0 .704-.224l.63-.24.638-.24.712-.215c.258-.065.54-.122.86-.166s.68-.076 1.085-.1a7.99 7.99 0 0 1 1.077.033 5.95 5.95 0 0 1 .861.141 6.02 6.02 0 0 1 .712.224l.63.273.638.273c.218.1.44.17.696.24a6.05 6.05 0 0 0 .845.174c.314.042.67.066 1.068.066a8.11 8.11 0 0 0 1.068-.066 6.2 6.2 0 0 0 .853-.174c.256-.07.483-.15.704-.24l.638-.273.638-.265.712-.232c.256-.064.537-.1.853-.14s.67-.048 1.068-.033l1.068.1a7.47 7.47 0 0 1 .845.166 6.88 6.88 0 0 1 .679.215l.613.24.62.24.704.224c.724.3 1.325.38 2.178.373l1.06-.1.845-.157a7.94 7.94 0 0 0 .704-.224l.63-.24.638-.24.712-.215c.258-.065.54-.122.86-.166s.68-.076 1.085-.1a7.99 7.99 0 0 1 1.077.033 5.95 5.95 0 0 1 .861.141 6.02 6.02 0 0 1 .712.224l.63.273.638.273c.218.1.44.17.696.24a6.05 6.05 0 0 0 .845.174c.314.042.67.066 1.068.066a8.11 8.11 0 0 0 1.068-.066 6.2 6.2 0 0 0 .853-.174c.256-.07.483-.15.704-.24l.638-.273.638-.265.712-.232c.256-.064.537-.1.853-.14s.67-.048 1.068-.033l1.068.1a7.47 7.47 0 0 1 .845.166 6.88 6.88 0 0 1 .679.215l.613.24.62.24.704.224a7.87 7.87 0 0 0 .87.157 11.29 11.29 0 0 0 1.126.09c.43.015.802-.002 1.126-.033s.605-.077.853-.14a4.82 4.82 0 0 0 .67-.224l.58-.265.588-.282c.206-.088.424-.17.68-.24a6.32 6.32 0 0 1 .878-.166c.334-.042.715-.075 1.16-.075a10.61 10.61 0 0 1 1.192.066c.347.04.647.1.92.157s.514.148.737.232l.63.257.596.265c.205.082.418.157.654.224a5.62 5.62 0 0 0 .795.157 7.54 7.54 0 0 0 1.002.066 11.45 11.45 0 0 0 1.15-.066l.166-.025.63-3.006-.795.116c-.386.04-.77.058-1.15.058a7.65 7.65 0 0 1-1.002-.058c-.295-.04-.56-.1-.795-.166a6.31 6.31 0 0 1-.654-.232l-.596-.257-.63-.265c-.223-.083-.465-.157-.737-.224a7.02 7.02 0 0 0-.92-.166 10.65 10.65 0 0 0-1.192-.066 9.17 9.17 0 0 0-1.159.075 6.02 6.02 0 0 0-.878.174 5.26 5.26 0 0 0-.68.24l-.588.273-.58.273a4.94 4.94 0 0 1-.671.224c-.248.064-.53.1-.853.14a8.66 8.66 0 0 1-1.126.033l-1.126-.1c-.33-.044-.6-.1-.87-.166l-.704-.215-.62-.24-.613-.24-.68-.224c-.25-.065-.53-.113-.845-.157l-1.068-.1a7.82 7.82 0 0 0-1.068.033c-.316.03-.597.077-.853.14a5.83 5.83 0 0 0-.712.232l-.638.265-.638.282c-.696.32-.86.262-1.553.35-.386.04-.875.006-1.255.006a7.65 7.65 0 0 1-1.002-.058c-.295-.04-.56-.1-.795-.166a6.31 6.31 0 0 1-.654-.232l-.596-.257-.63-.265c-.223-.083-.465-.157-.737-.224a7.02 7.02 0 0 0-.92-.166 10.65 10.65 0 0 0-1.192-.066 9.17 9.17 0 0 0-1.159.075 6.02 6.02 0 0 0-.878.174 5.26 5.26 0 0 0-.68.24l-.588.273-.58.273a4.94 4.94 0 0 1-.671.224c-.248.064-.53.1-.853.14a8.66 8.66 0 0 1-1.126.033l-1.126-.1c-.33-.044-.6-.1-.87-.166l-.704-.215-.62-.24-.613-.24-.68-.224c-.25-.065-.53-.113-.845-.157l-1.068-.1a7.82 7.82 0 0 0-1.068.033c-.316.03-.597.077-.853.14a5.83 5.83 0 0 0-.712.232l-.638.265-.638.282a6.71 6.71 0 0 1-.704.24 6.2 6.2 0 0 1-.853.174 8.11 8.11 0 0 1-1.068.066c-.398 0-.754-.024-1.068-.066a6.05 6.05 0 0 1-.845-.174c-.254-.07-.478-.152-.696-.24l-.638-.282-.63-.265a6 6 0 0 0-.712-.232 5.95 5.95 0 0 0-.861-.141c-.24-.023-.5-.035-.787-.033-.095.001-.188-.004-.3 0zm0 6.18a10.66 10.66 0 0 0-1.085.099l-.86.157a7.64 7.64 0 0 0-.712.224l-.638.24-.63.24-.704.215a7.72 7.72 0 0 1-.845.166c-.313.044-.664.076-1.06.1a10.53 10.53 0 0 1-1.201-.033l-.936-.116c.147 1.017.356 2.024.62 3.006l.315.033 1.2.033 1.06-.1.845-.157a7.94 7.94 0 0 0 .704-.224l.63-.24.638-.24.712-.215c.258-.065.54-.122.86-.166s.68-.076 1.085-.1a7.99 7.99 0 0 1 1.077.033 5.95 5.95 0 0 1 .861.141 6.02 6.02 0 0 1 .712.224l.63.273.638.273c.218.1.44.17.696.24a6.05 6.05 0 0 0 .845.174c.314.042.67.066 1.068.066a8.11 8.11 0 0 0 1.068-.066 6.2 6.2 0 0 0 .853-.174c.256-.07.483-.15.704-.24l.638-.273.638-.265.712-.232c.256-.064.537-.1.853-.14s.67-.048 1.068-.033l1.068.1a7.47 7.47 0 0 1 .845.166 6.88 6.88 0 0 1 .679.215l.613.24.62.24.704.224c.733.308 1.263.38 2.178.373l1.06-.1.845-.157a7.94 7.94 0 0 0 .704-.224l.63-.24.638-.24.712-.215c.258-.065.54-.122.86-.166s.68-.076 1.085-.1a7.99 7.99 0 0 1 1.077.033 5.95 5.95 0 0 1 .861.141 6.02 6.02 0 0 1 .712.224l.63.273.638.273c.218.1.44.17.696.24a6.05 6.05 0 0 0 .845.174c.314.042.67.066 1.068.066a8.11 8.11 0 0 0 1.068-.066 6.2 6.2 0 0 0 .853-.174c.256-.07.483-.15.704-.24l.638-.273.638-.265.712-.232c.256-.064.537-.1.853-.14s.67-.048 1.068-.033l1.068.1a7.47 7.47 0 0 1 .845.166 6.88 6.88 0 0 1 .679.215l.613.24.62.24.704.224a7.87 7.87 0 0 0 .87.157 11.29 11.29 0 0 0 1.126.09c.43.015.802-.002 1.126-.033s.605-.077.853-.14a4.82 4.82 0 0 0 .67-.224l.58-.265.588-.282c.206-.088.424-.17.68-.24a6.32 6.32 0 0 1 .878-.166c.334-.042.715-.075 1.16-.075a10.61 10.61 0 0 1 1.192.066c.347.04.647.1.92.157s.514.148.737.232l.63.257.596.265c.205.082.418.157.654.224a5.62 5.62 0 0 0 .795.157 7.54 7.54 0 0 0 1.002.066 11.45 11.45 0 0 0 1.15-.066l.166-.025.63-3.006-.795.116c-.386.04-.77.058-1.15.058a7.65 7.65 0 0 1-1.002-.058c-.295-.04-.56-.1-.795-.166a6.31 6.31 0 0 1-.654-.232l-.596-.257-.63-.265c-.223-.083-.465-.157-.737-.224a7.02 7.02 0 0 0-.92-.166 10.65 10.65 0 0 0-1.192-.066 9.17 9.17 0 0 0-1.159.075 6.02 6.02 0 0 0-.878.174 5.26 5.26 0 0 0-.68.24l-.588.273-.58.273a4.94 4.94 0 0 1-.671.224c-.248.064-.53.1-.853.14a8.66 8.66 0 0 1-1.126.033l-1.126-.1c-.33-.044-.6-.1-.87-.166l-.704-.215-.62-.24-.613-.24-.68-.224c-.25-.065-.53-.113-.845-.157l-1.068-.1a7.82 7.82 0 0 0-1.068.033c-.316.03-.597.077-.853.14a5.83 5.83 0 0 0-.712.232l-.638.265-.638.282c-.57.3-1.06.175-1.656.298-.386.04-.77.058-1.15.058a7.65 7.65 0 0 1-1.002-.058c-.295-.04-.56-.1-.795-.166a6.31 6.31 0 0 1-.654-.232l-.596-.257-.63-.265c-.223-.083-.465-.157-.737-.224a7.02 7.02 0 0 0-.92-.166 10.65 10.65 0 0 0-1.192-.066 9.17 9.17 0 0 0-1.159.075 6.02 6.02 0 0 0-.878.174 5.26 5.26 0 0 0-.68.24l-.588.273-.58.273a4.94 4.94 0 0 1-.671.224c-.248.064-.53.1-.853.14a8.66 8.66 0 0 1-1.126.033l-1.126-.1c-.33-.044-.6-.1-.87-.166l-.704-.215-.62-.24-.613-.24-.68-.224c-.25-.065-.53-.113-.845-.157l-1.068-.1a7.82 7.82 0 0 0-1.068.033c-.316.03-.597.077-.853.14a5.83 5.83 0 0 0-.712.232l-.638.265-.638.282a6.71 6.71 0 0 1-.704.24 6.2 6.2 0 0 1-.853.174 8.11 8.11 0 0 1-1.068.066c-.398 0-.754-.024-1.068-.066a6.05 6.05 0 0 1-.845-.174c-.254-.07-.478-.152-.696-.24l-.638-.282-.63-.265a6 6 0 0 0-.712-.232 5.95 5.95 0 0 0-.861-.141c-.24-.023-.5-.035-.787-.033-.095.001-.188-.004-.3 0z"/><use xlink:href="#o"/><use xlink:href="#o" x="0.413" y="6.18"/></g><path d="M329 133.62v69.982c.82 20.765-14.424 38.788 4.998 43.176 3.418.87 37.38 2.182 40.87 2.162V133.62H329.01z" stroke-width=".283" class="C D"/><path d="M353.3 200.293c-.025-.004-.043.003-.058.01-.3.1-2.905 2.537-4.678 4.358-1.65 1.693-2.832 2.3-4.455 2.3-.915 0-1.242.146-1.68.735-.968 1.3-4.1 4.088-5.192 4.62-.583.284-1.373.513-1.755.516s-1.23.33-1.888.718c-.354.21-.652.358-.97.464-2.8 1.106-2.65.07-3.08.057-2.792.184 1.065 18.8.49 19.01.21 2.46 1.092 5.483 2.277 7.368 1.76 2.802 6.635 5.672 10.946 6.143 1.6.175 6.514 2.122 10.92 2.048 10.346-.174 15.87 8.316 20.642 4.572l.033-40.407c-1.086.356-2.474-.38-5.912-1.9-2.073-.916-5.932-3.485-7.46-4.962-1.675-1.62-3.52-2.974-5-3.667-.8-.375-1.808-.994-2.236-1.374-.374-.333-.77-.585-.944-.613z" stroke-width=".272" class="P"/></g><path d="M353.32 200.253c-.025-.004-.043.003-.058.008-.3.104-2.905 2.4-4.68 4.124-1.65 1.602-2.833 2.178-4.455 2.178-.915 0-1.243.138-1.68.696-.968 1.23-4.1 3.87-5.192 4.373-.583.27-1.373.485-1.756.49s-1.23.312-1.888.68c1.21-.58 2.014-.7 2.252-.315.08.13-.03.306-.248.39-.512.196-.504.863.008 1.06s.5.805-.025 1.242a.89.89 0 0 0-.29.82c.068.26-.045.61-.248.778a1.15 1.15 0 0 0-.364.778c0 .258-.18.537-.398.62-.445.17-.555.97-.132.97.15 0 .39-.298.53-.663s.372-.662.522-.662.273-.298.273-.662c0-.733 1.084-2.03 1.26-1.507.354 1.06 2.516-1.194 2.75-2.865.057-.405.38-.796.828-1 .833-.398 1.38-1.34 1.598-2.75.218-1.418.903-2.34 1.74-2.335 1.256.007 1.34.216 1.1 2.683-.01.092-.247.23-.538.306-.645.17-.72.772-.083.662.74-.127.72.82-.033 1.515-.7.65-.886 1.192-.414 1.192.15 0 .265.768.265 1.79 0 1.468-.097 1.882-.53 2.252-.664.568-.667.75.008 1.474.697.75 1.438.406 1.673-.77.144-.72.257-.808.803-.67.605.152.632.095.613-1.16-.014-.924.12-1.466.464-1.847.574-.634 1.21-.707 1.21-.14 0 .22.106.398.24.398.34 0 .8-2.374.63-3.246a3.89 3.89 0 0 1 .041-1.424l.17-.718.845.77c1.035.938 1.93 1.45 2.145 1.234.09-.09.166-.5.166-.92 0-.613-.167-.827-.812-1.052l-.803-.282.15-2.236c.148-2.32.263-2.642 1.598-4.513.542-.76.82-1.088 1.1-1.093.06.18-.417-.434-.373-.646z" fill="#00743e"/><g class="H"><path d="M309.12 117.4l-.09 114.17c-.033 21.023 20.945 34.094 33.15 34.094 12.073 0 28.73-1.65 33.15 10.476 3.626-12.113 18.946-10.38 33.15-10.476 13.807-.095 32.518-16.78 32.554-34.094l.132-114.14c-43.565.002-88.48.234-132.04-.025zm22.053 21.73l87.947.017-.1 85.57c-.024 11.533-12.485 22.644-21.68 22.707-9.46.063-19.655-1.088-22.07 6.98-2.944-8.077-14.037-6.98-22.078-6.98-8.13 0-22.1-8.704-22.078-22.707l.058-85.587z" class="D K N"/><use xlink:href="#c" stroke-width=".795" class="E"/><path d="M353.5 141.4c-.923.505-1.493 1.437-1.493 2.447-.326-.254-.735-.393-1.158-.393-1.006 0-1.824.77-1.824 1.724 0 .516.246 1.007.667 1.335 0-.52.446-.942.995-.942s.992.422.992.942v7.622h-8.05c-.55 0-.995-.422-.995-.942s.446-.942.995-.942c-.346-.398-.862-.628-1.406-.628-1.006 0-1.824.775-1.824 1.727a1.67 1.67 0 0 0 .418 1.096c-1.066 0-2.054.54-2.587 1.413.533.874 1.52 1.4 2.587 1.4a1.68 1.68 0 0 0-.418 1.099c0 .953.818 1.724 1.824 1.724.545 0 1.06-.23 1.406-.628-.55 0-.995-.422-.995-.942s.446-.942.995-.942h8.05v7.625c0 .52-.442.942-.992.942s-.995-.422-.995-.942c-.42.328-.667.816-.667 1.332 0 .15.022.3.063.446l4.412 31.713 4.41-31.713a1.64 1.64 0 0 0 .063-.446 1.69 1.69 0 0 0-.663-1.332c0 .52-.446.942-.995.942s-.995-.422-.995-.942v-7.625h8.054c.55 0 .995.422.995.942s-.446.942-.995.942c.346.398.862.628 1.406.628 1.006 0 1.82-.77 1.82-1.724 0-.4-.146-.8-.415-1.1 1.066 0 2.05-.536 2.584-1.4-.533-.874-1.518-1.413-2.584-1.413a1.67 1.67 0 0 0 .415-1.096c0-.953-.815-1.727-1.82-1.727-.545 0-1.06.23-1.406.628.55 0 .995.422.995.942s-.446.942-.995.942h-8.054v-7.622c0-.52.446-.942.995-.942s.995.422.995.942c.42-.328.663-.82.663-1.335 0-.953-.815-1.724-1.82-1.724-.423 0-.832.138-1.158.393 0-1-.57-1.942-1.493-2.447z" stroke-width=".259" class="I"/></g><g id="E" transform="matrix(.098015 0 0 .094151 343.17044 81.331831)" class="F"><path d="M-28.78 1078.9c-5.116.258-9.738 5.795-14.156 16.78-3.052.065-6.08.034-9.062-.125-1.49-.08-2.964-.21-4.437-.344-7.368-.675-14.524-2.012-21.5-4.03-4.535-.775-6.5.89-5.812 5.156.35 2.585 1.84 4.79 4.28 6.47h.25a35.78 35.78 0 0 0 10.219 4.656c1.744.646 2.9 1.547 3.375 2.97 3.023 6.204 7.08 10.342 12.312 12.28l-10 10.344-17.094 7.22c-2.325.388-4.63.773-7.187 1.03-6.627.517-9.875 2.856-9.875 7.25 0 1.8.903 2.98 2.53 3.625 1.51.517 1.525 1.037-.22 1.813-2.093.517-3.134 1.534-3.25 3.344-.465 4.265 1.034 6.585 4.406 6.844v5.313c-2.093 1.292-3.134 3.232-3.25 5.688-.233 3.23.937 5.175 3.844 5.563-1.28 6.333-.11 9.298 3.844 8.78l4.53 6.594c-2.8 2.197-3.022 5.283-.812 9.03 1.51 1.422 2.997 1.57 4.625.406 1.395-.646 2.005-.266 1.656 1.156-1.163 2.973-.473 5.172 1.97 6.594 3.023 1.8 5.7 1.55 8.375-.906l5 3.375c-.93 5.17-.12 8.127 2.438 9.03 3.372.517 5.82.145 7.563-1.406 1.28-1.034 2.31-.774 3.125.906 1.163 2.714 3.387 3.996 6.875 4.125 2.79-.517 4.757-1.928 5.688-4.125 2.79-2.327 6.03-3.492 9.75-3.75 3.72.258 7.107 1.423 9.78 3.75 1.046 2.197 2.906 3.608 5.813 4.125 3.372-.13 5.587-1.41 6.75-4.125.102-.2.204-.428.313-.594.763-1.16 1.693-1.217 2.812-.312 1.744 1.55 4.307 1.923 7.563 1.406 2.674-.905 3.484-3.86 2.438-9.03l5.125-3.375c1.6 1.535 3.28 2.213 5.03 2.063.35-.03.707-.092 1.063-.187.7-.192 1.43-.516 2.156-.97 2.558-1.422 3.13-3.62 1.97-6.594-.35-1.422.238-1.803 1.75-1.156 1.51 1.163 3.02 1.015 4.53-.406 2.21-3.748 1.987-6.834-.687-9.03l4.53-6.594c3.837.517 5.114-2.448 3.72-8.78 2.907-.388 4.193-2.33 3.844-5.562-.116-2.456-1.157-4.395-3.25-5.687v-5.312c3.372-.26 4.88-2.58 4.53-6.844-.233-1.81-1.273-2.827-3.25-3.344-1.744-.776-1.878-1.296-.25-1.812 1.51-.646 2.438-1.815 2.438-3.625 0-4.394-3.248-6.733-9.875-7.25-2.442-.26-4.885-.644-7.094-1.03l-17.094-7.22-10-10.344c2.878-1.09 5.42-2.886 7.656-5.344.248-.273.51-.554.75-.844 1.445-1.738 2.76-3.767 3.938-6.094.35-1.422 1.506-2.323 3.25-2.97 3.72-1.034 7.088-2.588 10.344-4.656h.125c2.558-1.68 3.94-3.884 4.406-6.47.58-4.265-1.287-5.932-5.937-5.156-11.046 3.23-22.792 4.758-35 4.5-4.418-10.986-9.072-16.523-14.188-16.78z" stroke="#ed1c24" stroke-width="8"/><g stroke-width="1.003" class="H"><path d="M26.35 1096.392c.58-4.265-1.28-5.945-5.93-5.17-11.046 3.23-22.79 4.782-34.997 4.524 1.628 4.394 3.372 9.564 5 15.64 1.395 4.265 3.256 8.013 5.465 11.374 5.116-1.94 9.185-6.075 12.325-12.278.35-1.422 1.51-2.326 3.256-2.973 3.72-1.034 7.092-2.585 10.348-4.653h.116c2.558-1.68 3.953-3.877 4.418-6.462z"/><path d="M5.887 1133.098c-3.953-2.714-7.325-6.204-10-10.34-2.21-3.36-4.07-7.11-5.465-11.374-1.628-6.075-3.372-11.244-5-15.64-4.418-10.986-9.07-16.544-14.185-16.802-5.116.258-9.767 5.816-14.185 16.802-1.628 4.394-3.372 9.564-5 15.64-1.395 4.265-3.256 8.013-5.348 11.374-2.8 4.136-6.162 7.626-10 10.34-1.046 5.687.35 8.79 4.07 9.435 6.395-7.626 12.092-16.93 17.208-28.046-4.418 12.15-9.767 22.36-15.93 30.502 3.372.388 5.58 2.197 6.51 5.428 3.372-6.333 6.395-12.925 8.953-20.033.465-1.292.814-2.456 1.163-3.62.116-.258.233-.517.233-.775.58-1.68 1.046-3.36 1.51-5.04 1.28-6.075 1.86-12.278 1.628-18.482.233 6.204-.35 12.408-1.628 18.482-.465 1.68-.93 3.36-1.51 5.04 0 .258-.116.517-.233.775-.35 1.163-.698 2.326-1.163 3.62-1.395 9.047-3.953 16.802-7.557 23.006l-.698 1.163c.116 4.91 2.325 6.72 6.51 5.3 3.023-11.115 5.348-22.49 7.092-34.25 1.51-8.79 2.325-17.836 2.558-27.012l.35 10.34c-.698 17.836-2.8 35.284-6.627 52.345 1.86 3.62 4.418 4.524 7.674 2.714l.58-8.918c.814-20.68 2.093-41.36 3.837-62.038 1.744 20.68 3.023 41.36 3.953 62.038l.465 8.918c3.372 1.81 5.93.905 7.674-2.714-3.72-17.06-5.93-34.51-6.627-52.345l.465-10.34c.116 9.176 1.046 18.224 2.558 27.012 1.628 11.76 4.07 23.135 6.976 34.25 4.302 1.422 6.395-.388 6.51-5.3l-.698-1.163c-3.604-6.204-6.046-13.96-7.557-23.006-.35-1.292-.814-2.456-1.163-3.62-.116-.258-.116-.517-.233-.775-.465-1.68-1.046-3.36-1.395-5.04-1.395-6.075-1.977-12.278-1.628-18.482-.35 6.204.233 12.408 1.628 18.482.35 1.68.93 3.36 1.395 5.04.116.258.116.517.233.775.35 1.163.814 2.326 1.163 3.62 2.558 7.11 5.58 13.7 9.07 20.033.814-3.23 3.023-5.04 6.51-5.428-6.28-8.143-11.51-18.353-16.045-30.502 5.116 11.115 10.813 20.42 17.324 28.046 3.604-.646 5-3.748 4.07-9.435z"/><path d="M5.887 1133.098c.93 5.687-.465 8.79-4.07 9.435 5.697 6.72 11.976 12.02 18.72 15.897 2.21-1.81 2.558-4.524 1.163-8.143 1.86-2.585 2.325-5.945 1.28-9.952-6.627-1.422-12.325-3.748-17.092-7.238z"/><path d="M30.07 1141.37l-7.092-1.034c1.046 4.007.58 7.367-1.28 9.952 1.395 3.62 1.046 6.333-1.163 8.143 4.302 2.456 8.72 4.265 13.487 5.687.93.13 1.744.13 2.442.13 3.372-.258 4.883-2.585 4.534-6.85-.233-1.81-1.28-2.843-3.256-3.36-1.744-.775-1.86-1.292-.233-1.81 1.51-.646 2.442-1.81 2.442-3.62 0-4.394-3.256-6.72-9.883-7.238z"/><path d="M36.466 1169.545c-1.744-1.68-1.744-3.36 0-5.3-.698 0-1.51 0-2.442-.13-4.767-1.422-9.185-3.23-13.487-5.687-6.744-3.877-13.022-9.176-18.72-15.897-6.51-7.626-12.208-16.93-17.324-28.046 4.534 12.15 9.767 22.36 16.045 30.502 1.28 1.68 2.674 3.36 4.186 5.04 4.07 5.17 8.836 9.306 14.3 12.666 5.232 3.102 11.046 5.3 17.44 6.85z"/><path d="M19.025 1162.695c-5.465-3.36-10.232-7.496-14.3-12.666-1.5-1.68-2.907-3.36-4.186-5.04-3.488.388-5.697 2.197-6.5 5.428a104.72 104.72 0 0 0 9.999 14.993c2.8 3.62 5.465 6.85 8.023 9.693 2.558-.258 4.07-2.197 4.186-5.816 2.558-1.292 3.488-3.5 2.8-6.592zm-20.812 29.468c3.14.775 6.046-.646 8.72-4.653 4.534-.517 5.93-3.102 4.07-7.755-6.627-7.626-12.44-16.027-17.8-25.203-.116 4.9-2.2 6.72-6.5 5.3.814 2.714 1.5 5.558 2.325 8.4 2.325 8.53 5.348 16.544 9.185 23.9z"/><path d="M6.933 1187.5c-2.674 4.007-5.58 5.428-8.72 4.653 3.72 7.367 8.255 14.088 13.603 20.292 2.558 2.456 5.348 2.714 8.255.905 2.558-1.422 3.14-3.62 1.977-6.592-.35-1.422.233-1.81 1.744-1.163 1.51 1.163 3.023 1.034 4.534-.388 2.21-3.748 1.977-6.85-.698-9.047-.116.13-.116.258 0 .388-5.93-5.17-11.51-10.727-16.626-16.802 1.86 4.653.465 7.238-4.07 7.755z"/><path d="M32.164 1189.578c-.814-.13-1.628-.388-2.674-.646-4.767-1.55-10.58-6.204-17.44-13.83-2.558-2.843-5.232-6.075-8.023-9.693a104.72 104.72 0 0 1-9.999-14.993c-3.488-6.333-6.51-12.925-9.07-20.033 1.51 9.047 3.953 16.802 7.557 23.006l.698 1.163c5.348 9.176 11.162 17.577 17.79 25.203 5.116 6.075 10.697 11.632 16.626 16.802-.116-.13-.116-.258 0-.388.116-2.843 1.628-5.04 4.534-6.592z"/><path d="M29.5 1188.932l2.674.646c3.837.517 5.116-2.456 3.72-8.8 2.907-.388 4.186-2.326 3.837-5.558-.116-2.456-1.163-4.394-3.256-5.687-6.395-1.55-12.208-3.748-17.44-6.85.698 3.102-.233 5.3-2.8 6.592-.116 3.62-1.628 5.558-4.186 5.816 6.86 7.626 12.673 12.278 17.44 13.83zm-52.332-90.342l-.465 10.34c.698 17.836 2.907 35.284 6.627 52.345.233.905.465 1.8.58 2.843 2.442 11.244 5.697 21.455 9.883 30.63 3.604 7.755 7.906 14.863 12.906 21.067.93-2.326 2.558-3.36 5.116-3.36-5.348-6.204-9.883-12.925-13.603-20.292-3.837-7.367-6.86-15.38-9.185-23.9l-2.325-8.4c-2.907-11.115-5.348-22.5-6.976-34.25-1.5-8.8-2.442-17.836-2.558-27.012zm-11.394 10.34l-.35-10.34c-.233 9.176-1.046 18.224-2.558 27.012-1.744 11.76-4.07 23.135-7.092 34.25-.698 2.714-1.5 5.558-2.325 8.4-2.325 8.53-5.348 16.544-9.07 23.9a110.45 110.45 0 0 1-13.603 20.292c2.442 0 4.186 1.034 5 3.36 5-6.204 9.302-13.312 12.906-21.067 4.186-9.176 7.557-19.387 9.883-30.63.233-1.034.465-1.94.58-2.843 3.837-17.06 5.93-34.5 6.627-52.345zm-13.72 2.454c1.628-6.075 3.372-11.244 5-15.64-12.208.258-23.835-1.292-34.997-4.524-4.534-.775-6.5.905-5.813 5.17.35 2.585 1.86 4.782 4.302 6.462h.233a35.85 35.85 0 0 0 10.232 4.653c1.744.646 2.907 1.55 3.372 2.973 3.023 6.204 7.092 10.34 12.325 12.278 2.093-3.36 3.953-7.1 5.348-11.374zm-32.44 28.952l-7.2 1.034c-6.627.517-9.883 2.843-9.883 7.238 0 1.8.93 2.973 2.558 3.62 1.5.517 1.5 1.034-.233 1.8-2.093.517-3.14 1.55-3.256 3.36-.465 4.265 1.046 6.592 4.418 6.85.698 0 1.628 0 2.558-.13 4.65-1.422 9.07-3.23 13.37-5.687-2.2-1.8-2.558-4.524-1.046-8.143-1.977-2.585-2.325-5.945-1.28-9.952z"/><path d="M-59.224 1142.533c-3.72-.646-5.116-3.748-4.07-9.435-4.883 3.5-10.58 5.816-17.092 7.238-1.046 4.007-.698 7.367 1.28 9.952-1.5 3.62-1.163 6.333 1.046 8.143 6.744-3.877 13.022-9.176 18.836-15.897zm-2.21 22.877a128.8 128.8 0 0 0 10-14.993c-.93-3.23-3.14-5.04-6.5-5.428l-4.186 5.04c-4.07 5.17-8.836 9.306-14.417 12.666-.698 3.102.233 5.3 2.8 6.592.116 3.62 1.628 5.558 4.186 5.816 2.558-2.843 5.232-6.075 8.14-9.693z"/><path d="M-51.434 1150.417c-3.023 5.3-6.395 10.34-10 14.993-2.907 3.62-5.58 6.85-8.14 9.693-6.86 7.626-12.673 12.278-17.44 13.83-.93.258-1.86.517-2.558.646 2.8 1.55 4.302 3.748 4.534 6.592v.388c5.93-5.17 11.394-10.727 16.626-16.802 6.5-7.626 12.44-16.027 17.673-25.203l.698-1.163c3.604-6.204 6.162-13.96 7.557-23.006-2.558 7.1-5.58 13.7-8.953 20.033zm-10.696-.387l4.186-5.04c6.162-8.143 11.5-18.353 15.93-30.502-5.116 11.115-10.813 20.42-17.208 28.046-5.813 6.72-12.092 12.02-18.836 15.897-4.302 2.456-8.72 4.265-13.37 5.687-.93.13-1.86.13-2.558.13 1.744 1.94 1.744 3.62 0 5.3 6.395-1.55 12.208-3.748 17.44-6.85 5.58-3.36 10.348-7.496 14.417-12.666z"/><path d="M-76.548 1162.695c-5.232 3.102-11.046 5.3-17.44 6.85-2.093 1.292-3.14 3.23-3.256 5.687-.233 3.23.93 5.17 3.837 5.558-1.28 6.333-.116 9.306 3.837 8.8.698-.13 1.628-.388 2.558-.646 4.767-1.55 10.58-6.204 17.44-13.83-2.558-.258-4.07-2.197-4.186-5.816-2.558-1.292-3.488-3.5-2.8-6.592zm-8.488 33.475c-2.8 2.197-3.023 5.3-.814 9.047 1.5 1.422 3.023 1.55 4.65.388 1.395-.646 1.977-.258 1.628 1.163-1.163 2.973-.465 5.17 1.977 6.592 3.023 1.8 5.697 1.55 8.37-.905a110.45 110.45 0 0 0 13.603-20.292c-3.256.775-6.162-.646-8.836-4.653-4.534-.517-5.93-3.102-3.953-7.755-5.232 6.075-10.697 11.632-16.626 16.802v-.388z"/><path d="M-64.456 1187.5c2.674 4.007 5.58 5.428 8.836 4.653 3.72-7.367 6.744-15.38 9.07-23.9l2.325-8.4c-4.186 1.422-6.395-.388-6.5-5.3-5.232 9.176-11.162 17.577-17.673 25.203-1.977 4.653-.58 7.238 3.953 7.755zm48.368-23.383c-.116-1.034-.35-1.94-.58-2.843-1.744 3.62-4.302 4.524-7.674 2.714l2.558 34.638c3.023-.258 5-1.55 5.58-3.877.58-.775 1.28-.775 1.977 0 3.488 2.585 6.162 2.585 8.023 0-4.186-9.176-7.44-19.387-9.883-30.63z"/><path d="M-24.343 1163.988l-.465-8.918c-.93-20.68-2.21-41.36-3.953-62.038-1.744 20.68-3.023 41.36-3.837 62.038l-.58 8.918-2.442 34.638-2.325 24.17c-.233.517-.35 1.034-.58 1.55 2.8-2.326 6.046-3.5 9.767-3.748 3.72.258 7.092 1.422 9.767 3.748-.233-.517-.35-1.034-.465-1.55-.93-8.013-1.628-16.027-2.325-24.17-1.046-11.374-1.86-23.006-2.558-34.638z"/><path d="M-33.18 1163.988c-3.256 1.81-5.813.905-7.674-2.714-.116.905-.35 1.81-.58 2.843-2.325 11.244-5.697 21.455-9.883 30.63 1.86 2.585 4.534 2.585 8.023 0 .814-.775 1.395-.775 1.977 0 .698 2.326 2.558 3.62 5.697 3.877l2.442-34.638z"/><path d="M-43.295 1194.748c-3.488 2.585-6.162 2.585-8.023 0-3.604 7.755-7.906 14.863-12.906 21.067-.93 5.17-.116 8.143 2.442 9.047 3.372.517 5.813.13 7.557-1.422 1.28-1.034 2.325-.775 3.14.905 1.163 2.714 3.372 4.007 6.86 4.136 2.8-.517 4.767-1.94 5.697-4.136.233-.517.35-1.034.58-1.55l2.325-24.17c-3.14-.258-5-1.55-5.697-3.877-.58-.775-1.163-.775-1.977 0zm37.1 0c-1.86 2.585-4.534 2.585-8.023 0-.698-.775-1.395-.775-1.977 0-.58 2.326-2.558 3.62-5.58 3.877l2.325 24.17c.116.517.233 1.034.465 1.55 1.046 2.197 2.907 3.62 5.813 4.136 3.372-.13 5.58-1.422 6.744-4.136.814-1.68 1.86-1.94 3.14-.905 1.744 1.55 4.302 1.94 7.557 1.422 2.674-.905 3.488-3.877 2.442-9.047-5-6.204-9.302-13.312-12.906-21.067z"/><g class="B G"><path d="M-4.112 1122.758c5.116-1.94 9.185-6.075 12.325-12.278.35-1.422 1.51-2.326 3.256-2.973 3.72-1.034 7.092-2.585 10.348-4.653h.116c2.558-1.68 3.953-3.877 4.418-6.462.58-4.265-1.28-5.945-5.93-5.17-11.046 3.23-22.79 4.782-34.997 4.524"/><path d="M5.887 1133.098c-3.953-2.714-7.325-6.204-10-10.34"/><path d="M1.817 1142.533c3.604-.646 5-3.748 4.07-9.435m30.58 31.148c3.372-.258 4.883-2.585 4.534-6.85-.233-1.8-1.28-2.843-3.256-3.36-1.744-.775-1.86-1.292-.233-1.8 1.5-.646 2.442-1.8 2.442-3.62 0-4.394-3.256-6.72-9.883-7.238-2.442-.258-4.883-.646-7.092-1.034"/><path d="M22.978 1140.336c-6.627-1.422-12.325-3.748-17.092-7.238"/><path d="M20.537 1158.43c2.2-1.8 2.558-4.524 1.163-8.143 1.86-2.585 2.325-5.945 1.28-9.952m13.486 29.2c-1.744-1.68-1.744-3.36 0-5.3"/><path d="M20.537 1158.43c4.302 2.456 8.72 4.265 13.487 5.687.93.13 1.744.13 2.442.13m-17.44-1.552c-5.465-3.36-10.232-7.496-14.3-12.666-1.5-1.68-2.907-3.36-4.186-5.04m10.464 34.767c1.86 4.653.465 7.238-4.07 7.755-2.674 4.007-5.58 5.428-8.72 4.653m13.604 20.29c2.558 2.456 5.348 2.714 8.255.905 2.558-1.422 3.14-3.62 1.977-6.592-.35-1.422.233-1.8 1.744-1.163 1.5 1.163 3.023 1.034 4.534-.388 2.2-3.748 1.977-6.85-.698-9.047"/><path d="M12.05 1175.103c6.86 7.626 12.673 12.278 17.44 13.83 1.046.258 1.86.517 2.674.646m-4.534 6.59c.116-2.843 1.628-5.04 4.534-6.592m-21.16-9.822c5.116 6.075 10.697 11.632 16.626 16.802-.116-.13-.116-.258 0-.388m4.535-6.592c3.837.517 5.116-2.456 3.72-8.8 2.907-.388 4.186-2.326 3.837-5.558-.116-2.456-1.163-4.394-3.256-5.687"/><path d="M36.466 1169.545c-6.395-1.55-12.208-3.748-17.44-6.85m-25-12.278a104.72 104.72 0 0 0 9.999 14.993c2.8 3.62 5.465 6.85 8.023 9.693"/><path d="M12.05 1175.103c2.558-.258 4.07-2.197 4.186-5.816 2.558-1.292 3.488-3.5 2.8-6.592m-17.22-20.162c5.697 6.72 11.976 12.02 18.72 15.897m-33.835 1.422c-2.907-11.115-5.348-22.5-6.976-34.25-1.5-8.8-2.442-17.836-2.558-27.012l-.465 10.34c.698 17.836 2.907 35.284 6.627 52.345m-24.183-.002c3.837-17.06 5.93-34.5 6.627-52.345l-.35-10.34c-.233 9.176-1.046 18.224-2.558 27.012-1.744 11.76-4.07 23.135-7.092 34.25m29.65-64.104c-4.418-10.986-9.07-16.544-14.185-16.802-5.116.258-9.767 5.816-14.185 16.802m.466 34.638l1.163-3.62c.116-.258.233-.517.233-.775l1.5-5.04c1.28-6.075 1.86-12.278 1.628-18.482"/><path d="M-19.46 1102.466c-.35 6.204.233 12.408 1.628 18.482.35 1.68.93 3.36 1.395 5.04.116.258.116.517.233.775.35 1.163.814 2.326 1.163 3.62m10.93-7.625a47.31 47.31 0 0 1-5.465-11.374c-1.628-6.075-3.372-11.244-5-15.64m-38.717 27.014c2.093-3.36 3.953-7.1 5.348-11.374 1.628-6.075 3.372-11.244 5-15.64"/><path d="M-42.946 1095.746c-12.208.258-23.835-1.292-34.997-4.524-4.534-.775-6.5.905-5.813 5.17.35 2.585 1.86 4.782 4.302 6.462h.233a35.85 35.85 0 0 0 10.232 4.653c1.744.646 2.907 1.55 3.372 2.973 3.023 6.204 7.092 10.34 12.325 12.278m-27.093 17.578l-7.2 1.034c-6.627.517-9.883 2.843-9.883 7.238 0 1.8.93 2.973 2.558 3.62 1.5.517 1.5 1.034-.233 1.8-2.093.517-3.14 1.55-3.256 3.36-.465 4.265 1.046 6.592 4.418 6.85"/><path d="M-53.294 1122.758c-2.8 4.136-6.162 7.626-10 10.34"/><path d="M-63.293 1133.098c-1.046 5.687.35 8.79 4.07 9.435"/><path d="M-63.293 1133.098c-4.883 3.5-10.58 5.816-17.092 7.238m28.95 10.08c-3.023 5.3-6.395 10.34-10 14.993-2.907 3.62-5.58 6.85-8.14 9.693"/><path d="M-57.945 1144.988c3.372.388 5.58 2.197 6.51 5.428"/><path d="M-76.548 1162.695c5.58-3.36 10.348-7.496 14.417-12.666l4.186-5.04m-20.115 13.44c-2.2-1.8-2.558-4.524-1.046-8.143-1.977-2.585-2.325-5.945-1.28-9.952m-13.602 23.91c1.744 1.94 1.744 3.62 0 5.3"/><path d="M-78.06 1158.43c-4.302 2.456-8.72 4.265-13.37 5.687-.93.13-1.86.13-2.558.13m0 5.298c6.395-1.55 12.208-3.748 17.44-6.85"/><path d="M-93.988 1169.545c-2.093 1.292-3.14 3.23-3.256 5.687-.233 3.23.93 5.17 3.837 5.558-1.28 6.333-.116 9.306 3.837 8.79"/><path d="M-89.57 1189.578c2.8 1.55 4.302 3.748 4.534 6.592"/><path d="M-85.036 1196.17c-2.8 2.197-3.023 5.3-.814 9.047 1.5 1.422 3.023 1.55 4.65.388 1.395-.646 1.977-.258 1.628 1.163-1.163 2.973-.465 5.17 1.977 6.592 3.023 1.8 5.697 1.55 8.37-.905m-.347-37.352c-6.86 7.626-12.673 12.278-17.44 13.83-.93.258-1.86.517-2.558.646"/><path d="M-68.41 1179.756c-5.232 6.075-10.697 11.632-16.626 16.802v-.388"/><path d="M-55.62 1192.163c-3.256.775-6.162-.646-8.836-4.653-4.534-.517-5.93-3.102-3.953-7.755m-1.163-4.652c-2.558-.258-4.07-2.197-4.186-5.816-2.558-1.292-3.488-3.5-2.8-6.592m61.516-32.31c1.5 9.047 3.953 16.802 7.557 23.006l.698 1.163m5 37.6c-3.837-7.367-6.86-15.38-9.185-23.9l-2.325-8.4"/><path d="M-6.786 1154.553c-.116 4.9-2.2 6.72-6.5 5.3m-3.374 1.42c.233.905.465 1.8.58 2.843 2.442 11.244 5.697 21.455 9.883 30.63"/><path d="M-16.67 1161.273c-1.744 3.62-4.302 4.524-7.674 2.714"/><path d="M-24.343 1163.988l-.465-8.918c-.93-20.68-2.21-41.36-3.953-62.038-1.744 20.68-3.023 41.36-3.837 62.038l-.58 8.918"/><path d="M-33.18 1163.988c-3.256 1.8-5.813.905-7.674-2.714m-3.37-1.422c-4.186 1.422-6.395-.388-6.5-5.3"/><path d="M-50.736 1154.553l.698-1.163c3.604-6.204 6.162-13.96 7.557-23.006m1.628 30.89c-.116.905-.35 1.8-.58 2.843-2.325 11.244-5.697 21.455-9.883 30.63"/><path d="M-44.225 1159.852l-2.325 8.4c-2.325 8.53-5.348 16.544-9.07 23.9m20 6.464c-3.14-.258-5-1.55-5.697-3.877-.58-.775-1.163-.775-1.977 0-3.488 2.585-6.162 2.585-8.023 0m45.112-.001c-1.86 2.585-4.534 2.585-8.023 0-.698-.775-1.395-.775-1.977 0-.58 2.326-2.558 3.62-5.58 3.877m-11.395-34.637l-2.442 34.638"/><path d="M-21.785 1198.626c-1.046-11.374-1.86-23.006-2.558-34.638m-34.88-21.455c-5.813 6.72-12.092 12.02-18.836 15.897"/><path d="M-50.736 1154.553c-5.232 9.176-11.162 17.577-17.673 25.203m10.464-34.768c6.162-8.143 11.5-18.353 15.93-30.502-5.116 11.115-10.813 20.42-17.208 28.046m16.743-12.148c-2.558 7.1-5.58 13.7-8.953 20.033m36.39-20.033c2.558 7.1 5.58 13.7 9.07 20.033m-58.25 65.398c-.93 5.17-.116 8.143 2.442 9.047 3.372.517 5.813.13 7.557-1.422 1.28-1.034 2.325-.775 3.14.905 1.163 2.714 3.372 4.007 6.86 4.136 2.8-.517 4.767-1.94 5.697-4.136m2.907-25.72l-2.325 24.17c-.233.517-.35 1.034-.58 1.55m19.53 0c1.046 2.197 2.907 3.62 5.813 4.136 3.372-.13 5.58-1.422 6.744-4.136.814-1.68 1.86-1.94 3.14-.905 1.744 1.55 4.302 1.94 7.557 1.422 2.674-.905 3.488-3.877 2.442-9.047m-28.486-17.2l2.325 24.17c.116.517.233 1.034.465 1.55m-50.228-11.89c2.442 0 4.186 1.034 5 3.36m70.923 0c.93-2.326 2.558-3.36 5.116-3.36M.54 1144.988c-6.28-8.143-11.5-18.353-16.045-30.502 5.116 11.115 10.813 20.42 17.324 28.046"/><path d="M-51.318 1194.748c-3.604 7.755-7.906 14.863-12.906 21.067m-5-3.36a110.45 110.45 0 0 0 13.603-20.292m67.437 20.292c-5.348-6.204-9.883-12.925-13.603-20.292m-4.42 2.585c3.604 7.755 7.906 14.863 12.906 21.067m-13.487-61.262c5.348 9.176 11.162 17.577 17.8 25.203m-16.977-29.34c.814-3.23 3.023-5.04 6.5-5.428"/></g></g></g><path fill="#00a658" d="M358.1 206.23c-.436 0-.286.53.422 1.458.937 1.228.812 2.295-.282 2.4-.558.058-.68.01-.406-.157.328-.202.318-.27-.083-.422-.71-.272-1.168.303-.762.952.18.286.323.767.323 1.06 0 .305.18.53.414.53.55 0 2.272 1.9 2.112 2.327-.07.186.11.573.398.86.576.576.676 1.188.24 1.458-.35.216-1.896-.383-2.178-.845-.146-.24-.58-.295-1.458-.182-1.47.19-2.045.572-1.192.795.662.173 1.062 1.066.654 1.474-.327.327 1.24 2.062 1.863 2.062.223 0 .54.16.704.356.17.204 1.076.428 2.095.513.99.083 2.092.265 2.45.406s1.55.45 2.642.68l5.962 1.325 2.667.58v-10.583l-3.172-1.49c-.16-.002-.996-.36-1.855-.795s-1.718-.795-1.913-.795-1.04-.443-1.88-.985l-2.236-1.39a19.18 19.18 0 0 1-1.325-.853c-1.163-.832-2.668-.054-1.73.894.594.602.738 1.284.306 1.45-.54.207-1.184-.376-1.184-1.068 0-.58-1.14-2.02-1.598-2.02zm-4.87 1.25c-.508-.01-.498.224-.116.836.24.383.593.473 1.656.43l1.424-.09c.25-.127-.576-1.122-.845-1.02-.18.07-.823.037-1.433-.075a4.5 4.5 0 0 0-.687-.083zm2.21 2.4c-.067-.002-.133.044-.2.124-.368.444.108 1.828 1.077 3.14.593.802 1.004.982.985.43-.006-.182-.403-1.147-.878-2.145-.536-1.126-.783-1.544-.985-1.55zm13.242 1.358c.055-.006.115.024.182.09.088.088.11.304.05.49-.1.27-.148.27-.315 0s-.083-.562.083-.58zm-27.7 1.375c-.32.043-.37.344-.497 1.474-.174 1.55-.85 3.97-1.242 4.44-.116.138-.215.53-.215.87 0 .395-.214.7-.596.845-.83.317-1.68 1.303-1.375 1.598.135.13.666.36 1.176.505a9.28 9.28 0 0 0 1.905.282c.976.024 1.53-.322 1.02-.638-.557-.344-.282-1.615.522-2.385.675-.647.738-.807.39-1.002-.415-.232-.414-.334-.04-5.226.04-.537-.08-.68-.654-.745l-.232-.017c-.058-.003-.11-.006-.157 0zm9.69.72c-.45-.02-.538.385-.406 1.292.07.47.012.926-.124 1s-.248.388-.248.67c0 .763.46.623.927-.282s1.08-1.004 2.286-.38c2.027 1.048.907-.64-1.21-1.822-.554-.3-.956-.476-1.226-.49zm16.985 1.143c.096.005.174.083.273.24.132.21.246.47.248.58s-.298.2-.662.2c-.758 0-.855-.31-.248-.812.173-.144.293-.212.39-.207zm-35.543 2.368c-.22.042-.505.315-.505.555 0 .176.154.15.406-.058.222-.184.348-.39.282-.455-.046-.046-.11-.056-.182-.04zm1.474.596c-.095.018-.243.132-.38.298-.21.252-.234.406-.058.406.32 0 .697-.504.513-.687-.017-.017-.043-.023-.075-.017zm31.278.008c.024-.003.054-.002.083 0 .865.045 4.157 1.808 4.157 2.277 0 .197-.12.4-.265.447-.363.116-3.327-1.403-3.958-2.03-.464-.46-.472-.526-.075-.68.017-.007.034-.014.058-.017zm-6.915.09a4.11 4.11 0 0 1 .447.008c1.98.144 2.845.77 2.46 1.772-.207.54-.228.53-2.02-.464-1.46-.81-1.767-1.28-.886-1.317zm12.306.414c.5-.057 1.63.605 1.63.994 0 .317-.43.3-1.39-.05-.805-.294-.947-.69-.33-.928.027-.01.058-.013.09-.017zm-38.938 1.02c-.017.002-.033.012-.05.017v.67c.24-.244.363-.515.273-.605-.065-.065-.143-.09-.224-.083zm5.035.778c-.146.006-.366.063-.687.15-.368.1-.525.292-.43.538a.42.42 0 0 0 .538.24c.212-.08.496-.15.63-.15s.24-.18.24-.398c0-.273-.046-.4-.3-.38z"/><g id="F" class="C H M"><path d="M321.32 133.38c.03-1.138.344-2.195.93-3.197 1.535-2.886 6.223-2.817 5.2.713-.38 1.3-1.675 2.065-3.212 2.196.1-.343.72-1.554.23-1.8-.788.027-1.766 1.243-2 1.823-.034.083-.024.18-.062.26m-3.038.07c-.03-1.138-.344-2.195-.93-3.197-1.535-2.886-6.223-2.817-5.2.713.38 1.3 1.675 2.065 3.212 2.196-.1-.343-.72-1.554-.23-1.8.788.027 1.766 1.243 2 1.823.034.083.024.18.062.26" class="D"/><path d="M320.253 122.435c-1.617 1.558-2.703 3.36-2.235 5.472.258 1.166.884 2.245 1.326 3.368.276.704.347 1.44.314 2.18h1.372c-.066-.746.078-1.47.314-2.18.42-1.13 1.06-2.202 1.326-3.368.496-2.18-.668-3.825-2.228-5.465l-.095-.11-.093.102z"/><path d="M318.974 134.32c-.287.718-1.456 2.034-2.078 2.41-.16.097.77-.056 1.187-.138.547-.107 1.258-.628 1.24-.444-.002.842.263 2.246.953 2.89l.065.062.068-.062c.7-.72.95-1.984.953-2.89-.017-.184.694.337 1.24.444.417.082 1.348.235 1.187.138-.622-.375-1.8-1.69-2.077-2.41h-2.742z" class="D"/><path d="M317.084 133.42h6.53v.946h-6.53z"/></g><use xlink:href="#E" x="24.996" y="-.358"/><use xlink:href="#F" x="108.485" y="-1.242"/><use xlink:href="#F" x="54.953" y="133.58"/></g><defs ><path id="H" d="M2983.2-135.4c0 13.323-10.8 24.123-24.123 24.123s-24.123-10.8-24.123-24.123 10.8-24.123 24.123-24.123 24.123 10.8 24.123 24.123z"/><path id="I" d="M325.88 14.077c-5.852 0-10.596 4.725-10.596 10.553s4.744 10.567 10.596 10.567 10.61-4.738 10.61-10.567-4.757-10.553-10.61-10.553z"/><path id="J" d="M262.06 46.643c-5.852 0-10.61 4.725-10.61 10.553s4.757 10.553 10.61 10.553 10.596-4.725 10.596-10.553-4.744-10.553-10.596-10.553z"/><path id="K" d="M2918.71-231.668c0 13.957-11.314 25.272-25.272 25.272s-25.272-11.314-25.272-25.272 11.314-25.272 25.272-25.272 25.272 11.314 25.272 25.272z"/><path id="L" d="M378.09 42.812c0 1.83-1.382 3.313-3.087 3.313s-3.087-1.483-3.087-3.313 1.382-3.313 3.087-3.313 3.087 1.483 3.087 3.313z"/><path id="M" d="M2069.1 730.7c.224.008.43.094.656.094 12.76 0 23.094-12.766 23.094-28.5s-10.335-28.5-23.094-28.5c-.225 0-.432.086-.656.094v56.812z"/><path id="N" d="M2066.3 668.73h6.95v66.53h-6.95c-2.46-25.7-2.862-50.125 0-66.53z"/><path id="O" d="M3203.874 1424.706c0 16.272-13.19 29.463-29.463 29.463s-29.463-13.19-29.463-29.463 13.19-29.463 29.463-29.463 29.463 13.19 29.463 29.463z"/><path id="P" d="M3153.9 1446.2c10.772 4.058 21.975 5.422 35.22 4.384-.747 7.614-7.853 4.525-6.792 11.03s-27.318 4.332-24.724-2.545-5.077-5.295-3.705-12.87z"/><path id="Q" d="M1807.73 703.168c0 18.438-13.782 33.384-30.784 33.384s-30.784-14.947-30.784-33.384 13.782-33.384 30.784-33.384 30.784 14.947 30.784 33.384z"/><path id="R" d="M1810.333 703.168c0 18.438-13.472 33.384-30.1 33.384s-30.1-14.947-30.1-33.384 13.472-33.384 30.1-33.384 30.1 14.947 30.1 33.384z"/><path id="S" d="M1807.565 703.168c0 15.948-11.92 28.876-26.62 28.876s-26.62-12.928-26.62-28.876 11.92-28.876 26.62-28.876 26.62 12.928 26.62 28.876z"/><path id="T" d="M1881 701.45l50.396-34.397h3.228l-48.065 34.397H1881z"/><path id="U" d="M1881 701.45l50.396 34.397h3.228l-48.065-34.397H1881z"/><path id="V" d="m1934.7,735.73,45.26-33.397-45.158-35.103"/><path id="W" d="M1899 701.8l36.162 26.636 35.632-26.812-35.81-26.107L1899 701.8z"/><path id="X" d="M1923.4 701.9l19.128 14.028 18.848-14.12-18.942-13.75-19.035 13.842z"/><path id="Y" d="M2030.2 670.6c-6 1.755-10.688 15.383-10.687 31.906s4.678 30.12 10.687 31.875l.25.063a4.59 4.59 0 0 0 1.063.125l10.844-.024v-18.352c.738-4.16 1.156-8.78 1.156-13.688s-.418-9.558-1.156-13.72v-18.18l-12.156-.01z"/><path id="Z" d="M2053.844 702.68c0 17.617-5.377 31.9-12.01 31.9s-12.01-14.282-12.01-31.9 5.377-31.9 12.01-31.9 12.01 14.282 12.01 31.9z"/><path id="a" d="M2043 674.4c25.152 7.78 23.558 49.664 0 57.98-16.346-3.472-14.067-57.72 0-57.98z"/><path id="b" d="M1285.752 317.11v-47.28"/><path id="c" d="M441.02 117.63c-43.565.002-88.48.232-132.05-.027l-.093 114.17c-.033 21.023 20.943 34.093 33.148 34.093 12.073 0 28.728-1.65 33.148 10.475 3.626-12.113 18.945-10.38 33.148-10.475 13.807-.095 32.518-16.78 32.554-34.093l.14-114.14z"/><path id="d" d="M273.82 336.38l4.8 3.045 5.368-5.085-5.538-3.12-4.63 5.16z"/><path id="e" d="M278.45 320.64l5.513 4.008v9.685l-5.513-3.113v-10.58z"/><path id="f" d="M245.5 337.1v65.288l10.07-8.61V334.42l-10.07 2.69z"/><path id="g" d="M250.16 336.38l-4.8 3.045-5.368-5.085 5.538-3.12 4.63 5.16z"/><path id="h" d="M245.53 320.64l-5.513 4.008v9.685l5.513-3.113v-10.58z"/><path id="i" d="M245.45 331.15l4.437 5.22h24.17l4.428-5.244-33.033.023z"/><path id="j" d="M374.92 633.3l-.075-9.97c.05-3.246 1.893-4.242 3.784-4.195s3.655.834 3.737 4.274l-.023 9.895-7.423-.003z"/><path id="k" d="M181.334 402.976c0-3.047 2.588-5.518 5.78-5.518s5.782 2.47 5.782 5.518h-5.782z"/><path id="l" d="M158.48 407.6s-4.638-5.155-.19-6.35c4.324-1.16 8.76 4.498 8.76 4.498"/><path id="m" d="M282.93 407.6s4.638-5.155.19-6.35c-4.324-1.16-8.76 4.498-8.76 4.498"/><path id="n" d="M411.38 895.76c-.664-38.306-3.942-58.44 26.058-83.387 29.825 25.68 26.988 46.736 27.88 83.76l-53.938-.373z"/><path id="o" d="M370.007 230.988a10.66 10.66 0 0 0-1.085.099l-.86.157a7.64 7.64 0 0 0-.712.224l-.638.24-.63.24-.704.215a7.72 7.72 0 0 1-.845.166c-.313.044-.664.076-1.06.09a10.53 10.53 0 0 1-1.201-.033l-.936-.116c.147 1.017.356 2.024.62 3.006l.315.033 1.2.033 1.06-.09.845-.157a7.94 7.94 0 0 0 .704-.224l.63-.24.638-.24.712-.215c.258-.065.54-.122.86-.166s.68-.076 1.085-.09a7.99 7.99 0 0 1 1.077.033 5.95 5.95 0 0 1 .861.141 6.02 6.02 0 0 1 .712.224l.63.273.638.273c.218.09.44.17.696.24a6.05 6.05 0 0 0 .845.174c.314.042.67.066 1.068.066s.752-.024 1.068-.066a6.2 6.2 0 0 0 .853-.174c.256-.07.483-.15.704-.24l.638-.273.638-.265.712-.232c.256-.064.537-.1.853-.14s.67-.048 1.068-.033l1.068.09a7.47 7.47 0 0 1 .845.166 6.88 6.88 0 0 1 .679.215l.613.24.62.24.704.224c.733.308 1.263.38 2.178.373l1.06-.09.845-.157a7.94 7.94 0 0 0 .704-.224l.63-.24.638-.24.712-.215c.258-.065.54-.122.86-.166s.68-.076 1.085-.09a7.99 7.99 0 0 1 1.077.033 5.95 5.95 0 0 1 .861.141 6.02 6.02 0 0 1 .712.224l.63.273.638.273c.218.09.44.17.696.24a6.05 6.05 0 0 0 .845.174c.314.042.67.066 1.068.066s.752-.024 1.068-.066a6.2 6.2 0 0 0 .853-.174c.256-.07.483-.15.704-.24l.638-.273.638-.265.712-.232c.256-.064.537-.1.853-.14s.67-.048 1.068-.033l1.068.09a7.47 7.47 0 0 1 .845.166 6.88 6.88 0 0 1 .679.215l.613.24.62.24.704.224a7.87 7.87 0 0 0 .87.157c.33.044.7.076 1.126.09.43.015.802-.002 1.126-.033s.605-.077.853-.14.468-.14.67-.224l.58-.265.588-.282c.206-.088.424-.17.68-.24s.544-.124.878-.166.715-.075 1.16-.075c.45 0 .845.027 1.192.066s.647.09.92.157.514.148.737.232l.63.257.596.265c.205.082.418.157.654.224s.5.118.795.157a7.54 7.54 0 0 0 1.002.066c.38 0 .765-.027 1.15-.066l.166-.025.63-3.006-.795.116c-.386.04-.77.058-1.15.058a7.65 7.65 0 0 1-1.002-.058c-.295-.04-.56-.1-.795-.166s-.45-.15-.654-.232l-.596-.257-.63-.265c-.223-.083-.465-.157-.737-.224s-.57-.127-.92-.166-.742-.066-1.192-.066a9.17 9.17 0 0 0-1.159.075 6.02 6.02 0 0 0-.878.174c-.255.07-.473.152-.68.24l-.588.273-.58.273a4.94 4.94 0 0 1-.671.224c-.248.064-.53.1-.853.14a8.66 8.66 0 0 1-1.126.033l-1.126-.09c-.33-.044-.61-.1-.87-.166s-.488-.14-.704-.215l-.62-.24-.613-.24-.68-.224c-.25-.065-.53-.113-.845-.157l-1.068-.1c-.4-.015-.752.002-1.068.033s-.597.077-.853.14-.492.147-.712.232l-.638.265-.638.282c-.696.32-.964.2-1.656.298-.386.04-.77.058-1.15.058a7.65 7.65 0 0 1-1.002-.058c-.295-.04-.56-.1-.795-.166s-.45-.15-.654-.232l-.596-.257-.63-.265c-.223-.083-.465-.157-.737-.224s-.57-.127-.92-.166-.742-.066-1.192-.066a9.17 9.17 0 0 0-1.159.075 6.02 6.02 0 0 0-.878.174c-.255.07-.473.152-.68.24l-.588.273-.58.273a4.94 4.94 0 0 1-.671.224c-.248.064-.53.1-.853.14a8.66 8.66 0 0 1-1.126.033l-1.126-.09c-.33-.044-.61-.1-.87-.166s-.488-.14-.704-.215l-.62-.24-.613-.24-.68-.224c-.25-.065-.53-.113-.845-.157l-1.068-.1c-.4-.015-.752.002-1.068.033s-.597.077-.853.14-.492.147-.712.232l-.638.265-.638.282a6.71 6.71 0 0 1-.704.24 6.2 6.2 0 0 1-.853.174c-.316.042-.67.066-1.068.066s-.754-.024-1.068-.066a6.05 6.05 0 0 1-.845-.174c-.254-.07-.478-.152-.696-.24l-.638-.282-.63-.265a6 6 0 0 0-.712-.232 5.95 5.95 0 0 0-.861-.141c-.24-.023-.5-.035-.787-.033-.095.001-.188-.004-.3 0z"/></defs></svg>