<svg xmlns="http://www.w3.org/2000/svg" xmlns:xlink="http://www.w3.org/1999/xlink" height="960" width="1600" xmlns:v="https://vecta.io/nano"><style><![CDATA[.B{stroke:#000}.C{stroke-width:.625}.D{fill:none}.E{fill:#ffd203}.F{fill:#ed2939}.G{stroke-linejoin:round}]]></style><defs><clipPath id="A"><path d="M0 720h1200V0H0z"/></clipPath><clipPath id="B"><path d="M747.437 712.492h294.403V363.937H747.437z"/></clipPath><clipPath id="C"><path d="M0 720h1200V0H0z"/></clipPath><clipPath id="D"><path d="M146.824 352.288H441.23V3.733H146.824z"/></clipPath><path id="E" d="M639.833 487.39h25.64v-54.777h-25.64z"/><path id="F" d="M274.707 323.792c15.05 2.188 30.036 1.846 44.957-1.123.244 2.36 1.137 5.53 2.34 8.113a100.88 100.88 0 0 0 7.479 13.246c-1.984.133-4.635-1.425-6.635-4.647-.73 1.48-3.884 2.66-5.975.764 1.677-1.92 4.174-4.29 2.392-6.874-1.276-1.853-3.57-1.47-5.093-.485-1.367.885-2.6 2.88-2.983 5.798-1.973-3.17-4.172-4.6-6.122-4.6-3.257-.001-4.84 1.128-4.797 2.916.078 3.14 3.666 4.23 6.117 4.933-.728 2.727-4.015 3.446-5.432 2.6.068 3.79-1.313 6.538-3.052 7.503-1.784-.876-3.3-3.552-3.422-7.34-1.374.917-4.693.36-5.556-2.325 2.412-.825 5.942-2.092 5.862-5.232-.045-1.79-1.683-2.837-4.936-2.673-1.948.098-4.073 1.634-5.885 4.9-.527-2.896-1.86-4.826-3.268-5.64-1.57-.908-3.88-1.176-5.063.737-1.65 2.672.962 4.913 2.733 6.747-1.994 1.997-5.202.978-6.006-.464-1.836 3.317-4.406 5.006-6.394 4.972 2.5-4.15 4.935-9 6.807-13.602 1.073-2.64 1.806-5.85 1.932-8.22z"/><path id="G" d="M151.566 604.94c.162 6.83 1.898 13.178 5.13 19.194 8.466 17.328 34.322 16.914 28.622-4.28-2.1-7.81-9.235-12.4-17.71-13.186.612 2.058 3.977 9.332 1.26 10.755-4.344-.16-9.737-7.464-11.034-10.947-.187-.5-.135-1.078-.344-1.57"/><path id="H" d="M146.682 671.112c8.918-9.354 14.907-20.17 12.325-32.855-1.424-7-4.876-13.48-7.31-20.223-1.523-4.23-1.912-8.65-1.732-13.094h-7.566c.362 4.48-.43 8.82-1.732 13.094-2.32 6.785-5.85 13.22-7.31 20.223-2.734 13.094 3.683 22.97 12.286 32.814l.526.652z"/><path id="I" d="M153.74 599.755c1.582-4.314 8.032-12.214 11.458-14.466.888-.584-4.248.337-6.547.827-3.016.643-6.936 3.77-6.844 2.666.01-5.053-1.452-13.485-5.258-17.36l-.36-.374-.372.374c-3.805 4.318-5.24 11.91-5.258 17.36.092 1.104-3.828-2.023-6.844-2.666-2.3-.5-7.435-1.41-6.547-.827 3.426 2.252 9.872 10.152 11.454 14.466z"/><path id="J" d="M161.18 605.16h-30.053c-1.647 0-2.982-1.27-2.982-2.84h0c0-1.568 1.335-2.84 2.982-2.84h30.053c1.647 0 2.982 1.27 2.982 2.84h0c0 1.568-1.335 2.84-2.982 2.84"/><path id="K" d="M256.284 599.755c1.582-4.314 8.032-12.214 11.458-14.466.888-.584-4.248.337-6.547.827-3.016.643-6.936 3.77-6.844 2.666.008-5.053-1.452-13.485-5.258-17.36l-.36-.374-.372.374c-3.805 4.318-5.24 11.91-5.258 17.36.092 1.104-3.828-2.023-6.844-2.666-2.3-.5-7.435-1.41-6.547-.827 3.426 2.252 9.872 10.152 11.454 14.466z"/><path id="L" d="M89.525 523.956c-.162 6.83-1.898 13.178-5.132 19.194-8.465 17.328-34.32 16.914-28.62-4.278 2.1-7.8 9.234-12.4 17.71-13.187-.612 2.058-3.977 9.332-1.26 10.755 4.344-.16 9.738-7.464 11.035-10.947.187-.5.135-1.078.344-1.57"/><path id="M" d="M95.4 589.677c8.918-9.354 14.907-20.17 12.325-32.855-1.424-7-4.877-13.48-7.31-20.223-1.523-4.23-1.912-8.65-1.732-13.094h-7.566c.362 4.478-.432 8.818-1.732 13.094-2.32 6.784-5.85 13.22-7.31 20.223-2.734 13.094 3.683 22.97 12.286 32.813l.526.653z"/><path id="N" d="M151.566 442.068c.162 6.83 1.898 13.178 5.13 19.194 8.466 17.328 34.322 16.914 28.622-4.28-2.1-7.81-9.235-12.4-17.71-13.186.612 2.057 3.977 9.332 1.26 10.755-4.344-.16-9.737-7.464-11.034-10.947-.187-.5-.135-1.078-.344-1.57"/><path id="O" d="M146.682 508.24c8.918-9.354 14.907-20.17 12.325-32.855-1.424-7-4.876-13.48-7.31-20.223-1.523-4.23-1.912-8.648-1.732-13.094h-7.566c.362 4.478-.43 8.82-1.732 13.094-2.32 6.785-5.85 13.22-7.31 20.223-2.734 13.094 3.683 22.97 12.286 32.814l.526.652z"/><path id="P" d="M161.18 442.288h-30.053c-1.647 0-2.982-1.27-2.982-2.84s1.335-2.84 2.982-2.84h30.053c1.647 0 2.982 1.27 2.982 2.84s-1.335 2.84-2.982 2.84"/><path id="Q" d="M461.375 599.755c1.582-4.314 8.032-12.214 11.458-14.466.89-.584-4.248.337-6.547.827-3.016.643-6.936 3.77-6.845 2.666.01-5.053-1.45-13.485-5.257-17.36l-.36-.374-.372.374c-3.805 4.318-5.24 11.91-5.258 17.36.092 1.104-3.828-2.023-6.844-2.666-2.3-.5-7.436-1.41-6.547-.827 3.426 2.252 9.872 10.152 11.454 14.466z"/><path id="R" d="M51.193 599.755c1.582-4.314 8.032-12.214 11.458-14.466.89-.584-4.248.337-6.547.827-3.016.643-6.936 3.77-6.844 2.666.01-5.053-1.452-13.485-5.258-17.36l-.36-.374-.372.374c-3.805 4.318-5.24 11.91-5.258 17.36.092 1.104-3.828-2.023-6.844-2.666-2.3-.5-7.435-1.41-6.547-.827 3.426 2.252 9.872 10.152 11.454 14.466z"/><path id="S" d="M563.92 599.755c1.582-4.314 8.032-12.214 11.458-14.466.89-.584-4.247.337-6.547.827-3.015.643-6.935 3.77-6.844 2.666.01-5.053-1.452-13.485-5.257-17.36l-.36-.374-.373.374c-3.805 4.318-5.238 11.91-5.258 17.36.092 1.104-3.828-2.023-6.843-2.666-2.3-.5-7.436-1.41-6.547-.827 3.426 2.252 9.872 10.152 11.454 14.466z"/></defs><g transform="matrix(1.333333 0 0 -1.333333 0 960)"><path d="M0 0h1200v720H0z" fill="#002395"/><g class="E"><use xlink:href="#E"/><path d="M738.5 487.39h25.64v-54.777H738.5z"/><use xlink:href="#E" x="197.333"/><use xlink:href="#E" x="296"/><use xlink:href="#E" x="394.667"/><use xlink:href="#E" x="49.333" y="80"/><use xlink:href="#E" x="148" y="80"/><path d="M886.5 567.39h25.64v-54.777H886.5z"/><use xlink:href="#E" x="345.333" y="80"/><use xlink:href="#E" y="160"/><path d="M738.5 647.39h25.64v-54.777H738.5z"/><use xlink:href="#E" x="197.333" y="160"/><use xlink:href="#E" x="296" y="160"/><use xlink:href="#E" x="394.667" y="160"/><path d="M689.166 672.6h25.64V720h-25.64zm98.667 0h25.64V720h-25.64zm98.667 0h25.64V720H886.5zm98.666 0h25.64V720h-25.64zM600 512.6h16.14v54.778H600zm0 160h16.14V720H600z"/><use xlink:href="#E" x="444" y="80"/><path d="M689.166 360h25.64v47.388h-25.64zm98.667 0h25.64v47.388h-25.64zm98.667 0h25.64v47.388H886.5zm98.666 0h25.64v47.388h-25.64zM600 360h16.14v47.388H600zm483.833 0h25.64v47.388h-25.64z"/><use xlink:href="#E" x="493.333"/><use xlink:href="#E" x="493.333" y="160"/><path d="M1083.833 672.6h25.64V720h-25.64zm98.667-160h17.5v54.778h-17.5zm0 160h17.5V720h-17.5zm0-312.6h17.5v47.388h-17.5z"/></g><g clip-path="url(#A)"><g clip-path="url(#B)"><path d="M978.507 486.944c4.5.2 9.382 5.18 17.124-3.492 1.6 3.246 1.448 7.433-2.125 9.946 5.26 3.41 10.903 12.22 12.49 17.507 2.067 6.888 3.373 14.94 8.84 16.933 2.9 1.057 5.616-1.027 5.366-4.59-.542-7.737-3.224-6.073-6.067-16.517-1.067-3.922 1.04-10.074 10.115-8.717-3.842 1.773-4.045 4.113-3.63 7.207.72 5.37 10.07 11.66 11.047 20.483 1.15 10.377-7.332 15.047-11.54 15.448-5.636.537-12.503-3-16.653-10.048-2.193 10.25 4.98 20.22 12.76 24.987 6.516 3.996 13.918 7.492 17.545 13.248 4.09 6.49 3.266 14.654-.928 18.677-.215-3.882-2.934-10.4-11.076-14.574-9.884-5.066-19.44-7.974-27.42-22.412-1.675 25.832 26.036 35.9 37.55 43.897 14.29 9.926 9.622 31.554 5.284 34.507.25-3.622.4-9.293-3.916-16-4.993-7.758-13.726-11.274-24.26-17.07-10.48-5.763-19.177-14.97-23.303-24.63-1.136 6.52 3.694 15.966 9.778 22.58 6.302 6.85 13.83 12.858 18.112 16.485 8.527 7.227 20.95 17.23 22.24 39.165.9 15.426-6.768 26.23-17.534 30.737-6.314 2.645-15.57 3.04-21.943 1.612-3.2-.717-6.386-1.82-9.38-3.618-2.108-1.266-5.744-.487-5.38 3.2.43 4.333 6.62 4.653 7.28 9.73.544 4.19-2.64 7.557-6.012 9.223.844-2.566-.07-5.543-1.84-8.513-2.306-3.87-7.527-3.458-8.207-10.78-.336-3.663 2.108-7.793 5.576-8.818.41-.25 1.1-.805.807-1.207-3.827-5.25-4.52-12.195-4.132-17.012.648-8.043 3.43-10.88 3.467-18.328.012-2.322.008-9.017-2.787-13.43-3.444-5.44-6.392-7.596-9.675-9.3 4.63-.3 9.582.783 13.047 2.128 6.405 2.484 11.84 10.394 12.922 15.638.72 3.492.558 6.756.1 9.936 3.134-1.06 8.594-1.21 12.414 1.318 3.923 2.597 6.094 8.21 3.2 13.102-.996-4.96-4.312-6.758-9.29-6.956-4.738-.187-8.523 2.77-8.937 7.912-.61 7.58 5.837 13.1 14.697 13.206 11.74.14 18.116-8.476 17.493-19.75-.624-11.3-6.223-19.62-14.14-26.345-6.8-5.78-13.958-11.392-21.035-18.415-5.52-5.477-16.394-17.088-16.758-32.483-.27-11.408 3.05-20.634 8.242-28.945s8.27-15.236 10.485-21.68c2.664-7.747 1.416-18.32-6.09-21.284-7.775-3.07-18.33 1.582-22.076 11.72-1.332-7.41-3.15-22.734 4.355-22.16 4.545-1.564 8.638-3.652 13.79-3.435" class="E"/><path d="M978.507 486.944c4.5.2 9.382 5.18 17.124-3.492 1.6 3.246 1.448 7.433-2.125 9.946 5.26 3.41 10.903 12.22 12.49 17.507 2.067 6.888 3.373 14.94 8.84 16.933 2.9 1.057 5.616-1.027 5.366-4.59-.542-7.737-3.224-6.073-6.067-16.517-1.067-3.922 1.04-10.074 10.115-8.717-3.842 1.773-4.045 4.113-3.63 7.207.72 5.37 10.07 11.66 11.047 20.483 1.15 10.377-7.332 15.047-11.54 15.448-5.636.537-12.503-3-16.653-10.048-2.193 10.25 4.98 20.22 12.76 24.987 6.516 3.996 13.918 7.492 17.545 13.248 4.09 6.49 3.266 14.654-.928 18.677-.215-3.882-2.934-10.4-11.076-14.574-9.884-5.066-19.44-7.974-27.42-22.412-1.675 25.832 26.036 35.9 37.55 43.897 14.29 9.926 9.622 31.554 5.284 34.507.25-3.622.4-9.293-3.916-16-4.993-7.758-13.726-11.274-24.26-17.07-10.48-5.763-19.177-14.97-23.303-24.63-1.136 6.52 3.694 15.966 9.778 22.58 6.302 6.85 13.83 12.858 18.112 16.485 8.527 7.227 20.95 17.23 22.24 39.165.9 15.426-6.768 26.23-17.534 30.737-6.314 2.645-15.57 3.04-21.943 1.612-3.2-.717-6.386-1.82-9.38-3.618-2.108-1.266-5.744-.487-5.38 3.2.43 4.333 6.62 4.653 7.28 9.73.544 4.19-2.64 7.557-6.012 9.223.844-2.566-.07-5.543-1.84-8.513-2.306-3.87-7.527-3.458-8.207-10.78-.336-3.663 2.108-7.793 5.576-8.818.41-.25 1.1-.805.807-1.207-3.827-5.25-4.52-12.195-4.132-17.012.648-8.043 3.43-10.88 3.467-18.328.012-2.322.008-9.017-2.787-13.43-3.444-5.44-6.392-7.596-9.675-9.3 4.63-.3 9.582.783 13.047 2.128 6.405 2.484 11.84 10.394 12.922 15.638.72 3.492.558 6.756.1 9.936 3.134-1.06 8.594-1.21 12.414 1.318 3.923 2.597 6.094 8.21 3.2 13.102-.996-4.96-4.312-6.758-9.29-6.956-4.738-.187-8.523 2.77-8.937 7.912-.61 7.58 5.837 13.1 14.697 13.206 11.74.14 18.116-8.476 17.493-19.75-.624-11.3-6.223-19.62-14.14-26.345-6.8-5.78-13.958-11.392-21.035-18.415-5.52-5.477-16.394-17.088-16.758-32.483-.27-11.408 3.05-20.634 8.242-28.945s8.27-15.236 10.485-21.68c2.664-7.747 1.416-18.32-6.09-21.284-7.775-3.07-18.33 1.582-22.076 11.72-1.332-7.41-3.15-22.734 4.355-22.16 4.545-1.564 8.638-3.652 13.79-3.435z" class="B C D"/><path d="M816.628 409.03c1.243-7.76-1.837-9-7.2-9.334 1.82-1.67 7.916-4.45 11.952-2.32 4.435 2.34 5.564 9.288 5.124 9.465zm-16.944 12.283s-6.042 2.484-10.458-.033c-4.762-2.714-4.395-9.1-3.492-11.292 4.047 5.92 9.34 4.78 13.293 2zm-9.53 19.138a10.07 10.07 0 0 1-2.795-.322c-6.895-1.837-6.795-7.086-6.893-8.832 7.635 3.71 10.44-.001 14.862-3.667l3.714 9.598c-1.363.95-4.91 3.147-8.888 3.223m10.067 13.304c-4.495-.018-7.695-3.363-8.068-4.017 8.257-.54 8.65-3.79 10.868-9.57 3.148 2.287 5.927 4.247 7.747 5.3.16 1.334-1.83 5.27-6.507 7.38-1.43.646-2.78.9-4.04.906" class="F"/><path d="M816.628 409.03c1.243-7.76-1.837-9-7.2-9.334 1.82-1.67 7.916-4.45 11.952-2.32 4.435 2.34 5.564 9.288 5.124 9.465zm-16.944 12.283s-6.042 2.484-10.458-.033c-4.762-2.714-4.395-9.1-3.492-11.292 4.047 5.92 9.34 4.78 13.293 2zm-9.53 19.138a10.07 10.07 0 0 1-2.795-.322c-6.895-1.837-6.795-7.086-6.893-8.832 7.635 3.71 10.44-.001 14.862-3.667l3.714 9.598c-1.363.95-4.91 3.147-8.888 3.223zm10.067 13.304c-4.495-.018-7.695-3.363-8.068-4.017 8.257-.54 8.65-3.79 10.868-9.57 3.148 2.287 5.927 4.247 7.747 5.3.16 1.334-1.83 5.27-6.507 7.38-1.43.646-2.78.9-4.04.906z" class="B C D"/><path d="M865.665 511.993c-14.108.006-22.854-9.41-24.66-19.917-.776-4.51-1.5-7.594-3.618-9.37-5.173-4.353-13.488-5.275-14.262-4.985 4.968-5.917 9.363-7.898 15.99-6.46-1.38-7.285 5.324-16.322 8.787-23.78 1.17-2.518-4.705-4.293-11.765-5.505-2.298-.394-6.805-3.223-9.013-3.838-2.287-.638-5.74-.415-7.066.404-1.37.848-6.318 6.42-10.075 7.655-3.497 1.148-7.874.5-8.687-2.357-1.295-4.543 4.746-6.36 5.552-7.966.78-1.553-.56-2.796-1.694-2.144-1.343.773-5.676 5.585-8.354 4.735-2.018-.64-3.68-2.45-4.187-7.46-.43-4.248 6.522-5.545 9.15-5.746 2.14-.163 1.86-2.28.572-2.684-1.388-.433-7.45 3.198-7.795.32s-.796-9.15 3.008-11.353c3-1.73 14.233 1.557 15.52 1.88 1.534.386 3.03.837 3.53.375 3.4-3.135-3.547-4.254-1.2-7.164 2.497-3.093 6.106-3.378 9.433-3.926 6.837-1.126 3.368 11.826 4.88 11.905 3.263.453 4.54.952 7.17-1.17s6.58-8.684 12.118-10.394c-.482 5.016-.085 9.528 1.6 12.9 1.924-5.758 8.857-8.61 15.898-10.446-3.524 4.117-4.487 11.587-3.36 12.727 4.628-5.153 8.98-7.03 17.723-6.78-2.603 1.93-3.934 7.57-3.358 9.155.88 2.433 2.79-1.803 5.133 3.14 1.478 3.116-.907 6.872-1.894 8.813-4.53 8.906-5.217 29.525 15.713 34.394 11.383 2.648 28.584 9.26 30.073 11.132 11.866 14.918.91 27.524-5.212 34.756-15.49-7.388-37.858-1.095-55.663-.846" class="E"/><g class="B C"><path d="M865.665 511.993c-14.108.006-22.854-9.41-24.66-19.917-.776-4.51-1.5-7.594-3.618-9.37-5.173-4.353-13.488-5.275-14.262-4.985 4.968-5.917 9.363-7.898 15.99-6.46-1.38-7.285 5.324-16.322 8.787-23.78 1.17-2.518-4.705-4.293-11.765-5.505-2.298-.394-6.805-3.223-9.013-3.838-2.287-.638-5.74-.415-7.066.404-1.37.848-6.318 6.42-10.075 7.655-3.497 1.148-7.874.5-8.687-2.357-1.295-4.543 4.746-6.36 5.552-7.966.78-1.553-.56-2.796-1.694-2.144-1.343.773-5.676 5.585-8.354 4.735-2.018-.64-3.68-2.45-4.187-7.46-.43-4.248 6.522-5.545 9.15-5.746 2.14-.163 1.86-2.28.572-2.684-1.388-.433-7.45 3.198-7.795.32s-.796-9.15 3.008-11.353c3-1.73 14.233 1.557 15.52 1.88 1.534.386 3.03.837 3.53.375 3.4-3.135-3.547-4.254-1.2-7.164 2.497-3.093 6.106-3.378 9.433-3.926 6.837-1.126 3.368 11.826 4.88 11.905 3.263.453 4.54.952 7.17-1.17s6.58-8.684 12.118-10.394c-.482 5.016-.085 9.528 1.6 12.9 1.924-5.758 8.857-8.61 15.898-10.446-3.524 4.117-4.487 11.587-3.36 12.727 4.628-5.153 8.98-7.03 17.723-6.78-2.603 1.93-3.934 7.57-3.358 9.155.88 2.433 2.79-1.803 5.133 3.14 1.478 3.116-.907 6.872-1.894 8.813-4.53 8.906-5.217 29.525 15.713 34.394 11.383 2.648 28.584 9.26 30.073 11.132 11.866 14.918.91 27.524-5.212 34.756-15.49-7.388-37.858-1.095-55.663-.846z" class="D"/><path d="M870.055 439.432s3.803-5.3.916-10.883c-3-5.822-9.924-2.405-9.924-2.405" class="E"/></g><path d="M780.706 639.884c-4.298-6.577-9.82-6.866-16.92-3.245 4.25-13.5 14.648-13.63 24.254-6.374zm-19.576 37.25c-3.787.21-8.4-2.115-10.488-11.33 10.053 7.2 9.913.02 14.733-4.9l6.952 11.185s-3.72 2.78-8.736 4.553a8.94 8.94 0 0 1-2.461.493m37.837 14.14c-2.132.095-4.238-.464-5.77-1.524 4.382-1.687 6.773-3.625 4.38-10.88l8.235-5.777c2.152 2.474 4.49 8.194.435 14.25-1.735 2.593-4.538 3.806-7.28 3.93m-23.783.87c-6.35.038-9.912-4.824-10.86-6.594 11.322 1.425 10.26-1.864 12.168-8.622l9.89 3.852c-.798 3.547-2.21 9.308-7.383 10.797a14.01 14.01 0 0 1-3.813.567" class="F"/><path d="M780.706 639.884c-4.298-6.577-9.82-6.866-16.92-3.245 4.25-13.5 14.648-13.63 24.254-6.374zm-19.576 37.25c-3.787.21-8.4-2.115-10.488-11.33 10.053 7.2 9.913.02 14.733-4.9l6.952 11.185s-3.72 2.78-8.736 4.553a8.94 8.94 0 0 1-2.461.493zm37.837 14.14c-2.132.095-4.238-.464-5.77-1.524 4.382-1.687 6.773-3.625 4.38-10.88l8.235-5.777c2.152 2.474 4.49 8.194.435 14.25-1.735 2.593-4.538 3.806-7.28 3.93zm-23.783.87c-6.35.038-9.912-4.824-10.86-6.594 11.322 1.425 10.26-1.864 12.168-8.622l9.89 3.852c-.798 3.547-2.21 9.308-7.383 10.797a14.01 14.01 0 0 1-3.813.567z" class="B C D"/><path d="M797.68 623.945c.33-3.77 2.77-9.216 1.722-13.73 2.717 2.568 5.214 5.815 5.522 9.317 4.1-7.228-1.125-17.313-.727-25.18 2.1 2.728 7.195 6.746 8.34 10.378 4.133-8.938-5.29-10.96-.395-28.632 1.703 6.38 6.027 11.657 7.847 16.03 1.395-12.144 13.068-20.163 19.645-18.15 15.082-19.66 33.244-12.005 32.366 9.38 0 0-14.256 31.525-17.943 34.245-4.003 2.953-9.096 5.62-14.904 9.326-6.556 4.183-11.936 7.54-17.02 12.242s-7.53 8.92-10.86 12.22c-4.688 4.648-7.8 9.808-7.9 12.204-.122 2.933 2.72 3.72 3.773 8.375 1.254 5.54-4.443 11.483-9.74 10.66-3.02-.47-3.345-6.09-4.976-7.22-.384-.267-.845-.36-1.435-.186-3.098.905-.55 9.904-5.553 10.26s-8.994-1.166-11.7-6.072c-2.175-3.945 5.362-6.635 5.645-8.952.064-.52-1.028-1.272-1.558-1.26-.348.01-5.736 5.815-9.95 4.41-3.285-1.095-6.847-4.944-5.723-10.282.97-4.616 7.085-4.946 10.02-5.26 3.48-.373 11.263-10.304 10.635-14.778-.192-3.607-5.555-2.187-6.683-6.323-1.446-5.303 2.704-11.247 7.373-10.54 3.493.528 7.245 5.075 8.834 5.223 3.85.022 4.982-3.52 5.347-7.706" class="E"/><path d="M797.68 623.945c.33-3.77 2.77-9.216 1.722-13.73 2.717 2.568 5.214 5.815 5.522 9.317 4.1-7.228-1.125-17.313-.727-25.18 2.1 2.728 7.195 6.746 8.34 10.378 4.133-8.938-5.29-10.96-.395-28.632 1.703 6.38 6.027 11.657 7.847 16.03 1.395-12.144 13.068-20.163 19.645-18.15 15.082-19.66 33.244-12.005 32.366 9.38 0 0-14.256 31.525-17.943 34.245-4.003 2.953-9.096 5.62-14.904 9.326-6.556 4.183-11.936 7.54-17.02 12.242s-7.53 8.92-10.86 12.22c-4.688 4.648-7.8 9.808-7.9 12.204-.122 2.933 2.72 3.72 3.773 8.375 1.254 5.54-4.443 11.483-9.74 10.66-3.02-.47-3.345-6.09-4.976-7.22-.384-.267-.845-.36-1.435-.186-3.098.905-.55 9.904-5.553 10.26s-8.994-1.166-11.7-6.072c-2.175-3.945 5.362-6.635 5.645-8.952.064-.52-1.028-1.272-1.558-1.26-.348.01-5.736 5.815-9.95 4.41-3.285-1.095-6.847-4.944-5.723-10.282.97-4.616 7.085-4.946 10.02-5.26 3.48-.373 11.263-10.304 10.635-14.778-.192-3.607-5.555-2.187-6.683-6.323-1.446-5.303 2.704-11.247 7.373-10.54 3.493.528 7.245 5.075 8.834 5.223 3.85.022 4.982-3.52 5.347-7.706z" class="B C D"/><path d="M890.473 519.085c9.192-3.452 17-11.963 17.998-18.08-5.297-10.554-1.803-15.273 5.768-14 6.178 1.028 6.188 5.958 4.56 11.647-1.452 5.075-3.66 8.504-8.364 12.134-6.143 4.74-17.322 8.773-19.963 8.31" class="E"/><path d="M890.473 519.085c9.192-3.452 17-11.963 17.998-18.08-5.297-10.554-1.803-15.273 5.768-14 6.178 1.028 6.188 5.958 4.56 11.647-1.452 5.075-3.66 8.504-8.364 12.134-6.143 4.74-17.322 8.773-19.963 8.31z" class="B C D"/><path d="M962.176 380.478c-1.275-1.265-4-3.27-3.022-8.606 1.05-5.738 6.484-7.726 8.7-7.618-2.86 5.078-1.53 9.38 1.615 12.377zm-14.683 6.158s-5.878-1.668-6.498-9.103c-.62-7.427 4.642-9.933 6-10.406-.674 5.53 1.34 10.538 7.666 13.015zm-8.645 14.27c-1.403-.15-2.95-.67-4.415-1.787-5.466-4.162-3.62-11.73-3.164-12.64 4.313 7.097 7.848 7.602 13.155 3.334l-.646 10.02c-.63.572-2.592 1.325-4.93 1.073m8.1 15.05a9.45 9.45 0 0 1-1.881-.445c-4.58-1.612-6.728-7.653-6.702-9.962 4.1 3.645 7.13 4.347 12.792.08 1.267 2.073 3.19 4.95 5.12 7.855-.736.67-4.925 3.068-9.33 2.47" class="F"/><path d="M962.176 380.478c-1.275-1.265-4-3.27-3.022-8.606 1.05-5.738 6.484-7.726 8.7-7.618-2.86 5.078-1.53 9.38 1.615 12.377zm-14.683 6.158s-5.878-1.668-6.498-9.103c-.62-7.427 4.642-9.933 6-10.406-.674 5.53 1.34 10.538 7.666 13.015zm-8.645 14.27c-1.403-.15-2.95-.67-4.415-1.787-5.466-4.162-3.62-11.73-3.164-12.64 4.313 7.097 7.848 7.602 13.155 3.334l-.646 10.02c-.63.572-2.592 1.325-4.93 1.073zm8.1 15.05a9.45 9.45 0 0 1-1.881-.445c-4.58-1.612-6.728-7.653-6.702-9.962 4.1 3.645 7.13 4.347 12.792.08 1.267 2.073 3.19 4.95 5.12 7.855-.736.67-4.925 3.068-9.33 2.47z" class="B C D"/><path d="M775.474 507.583c-1.335-2.585-3.774-6.463-2.28-11.105 1.82-5.654 8.925-7 10.928-7.14-3.46 5.9-2.358 10.015.433 15.722zm-10.962 12.103s-7.497-2.395-9.314-8.34c-1.938-6.342 2.106-11.337 3.97-12.32.827 4.437 1.805 10.795 10.52 12.547zm-2.16 17.218c-2.334-.012-6.005-.403-8.99-2.384-4.68-3.105-5.986-10.158-5.53-11.573 4.61 4.785 8.093 6.203 16.635 4.4l.196 9.43s-.913.124-2.312.116m12.898 19.844c-4.29-.04-8.24-4.2-9.155-6.696 4.633 1.84 7.805.983 10.492-1.83l6.872 4.83s-3.66 3.196-7.346 3.656a6.57 6.57 0 0 1-.863.041" class="F"/><path d="M775.474 507.583c-1.335-2.585-3.774-6.463-2.28-11.105 1.82-5.654 8.925-7 10.928-7.14-3.46 5.9-2.358 10.015.433 15.722zm-10.962 12.103s-7.497-2.395-9.314-8.34c-1.938-6.342 2.106-11.337 3.97-12.32.827 4.437 1.805 10.795 10.52 12.547zm-2.16 17.218c-2.334-.012-6.005-.403-8.99-2.384-4.68-3.105-5.986-10.158-5.53-11.573 4.61 4.785 8.093 6.203 16.635 4.4l.196 9.43s-.913.124-2.312.116zm12.898 19.844c-4.29-.04-8.24-4.2-9.155-6.696 4.633 1.84 7.805.983 10.492-1.83l6.872 4.83s-3.66 3.196-7.346 3.656a6.57 6.57 0 0 1-.863.041z" class="B C D"/><path d="M979.597 394.65c1.617 11.484 14.6 5.793 19.302 15.683-3.754-.342-8.614 1.65-10.485 5.446 9.74 1.233 13.64 4.957 17.956 9.97-3.9-.637-9.812-.568-11.515 4.937 4.653.826 14.422 2.402 18.487 11.562-9.23-3.07-14.336-.648-14.327 2.14.027 8.246 4.798 8.552-2.507 13.435-2.053 1.372-9.897 1.652-9.92 5.844-.012 2.223 5.67 7.1 8.47 9.276-1.997-.093-7.38 1.71-11.725-.27s-8.305-3.184-16.2 2.815c-5.855 5.158-11.227 5.998-4.155 14.98 4.494 6.158.306 15.658-2.557 22.723-2.787 7.537-5.253 15.15-10.7 23.042-4.183 6.062-15.328 16.42-15.927 24.535-.783 10.516-.98 21.742-.33 27.212 1.782 14.987 2.4 17.835-11.79 22.66-8.394 2.853-37.554 10.337-51.358-4.928-7.053-7.8-14.644-7.276-20.778-17.692s-6.274-7.1-11.587-12.07-10.123-8.827-11.646-9.813c-3.043-1.97-4.115-2.365-9.235-6.254s-9.695-7.523-10.548-8.477c-1.707-1.908-10.846-5.495-12.883-5.263-1.256.144-4.834 6.314-7.517 6.813-3.362.626-11.282-1.745-11.375-6.017-.05-2.288 6.103-4.46 5.13-7.027-.663-1.746-5.5-3.474-7.66-2.98-1.23.282-4.775 2.343-7.687 1.56-5.442-1.46-7.1-9.313-3.876-12.373 1.64-1.556 8.02.353 8.978-.204 1.086-.632 1.782-1.128 1.2-2.356-.63-1.332-8.53-.976-9.526-2.71-3.392-5.906 1.435-14.327 7.6-11.643 2.075.9 4.06 2.415 5.448 3.424 1.23.895 2.38-.23 2.504-.905.283-1.537-5.413-5.134-4.652-7.467 1.466-4.487 11.007-5.658 13.327-1.912 1.8 2.908 5.464 9.802 6.153 10.738.345.467.88 1.516 5.148 2.657 10.65 2.563 14.207-2.073 18.076-11.076 3.467 2.928 8.937 11.576 6.14 16.31 3.958-4.185 10.618-8.952 16.343-9.55-2.306 6.348.665 11.693 1.58 13.867 3.657-3.79 13.534-7.83 20.605-6.32-6.082 3.806-9.552 10.68-2.743 13.9s8.546 5.06 10.1 11.088 9.395 4.14 12.367-.117 4.163-5.83 7.61-9.7c3.7-4.174 8.7-8.28 11.963-10.804 3.686-2.852 7.118-5.976 10.217-10.485 3.97-5.777 5.84-12.314 5.63-20.262-.906-7.66-6.703-12.135-6.676-19.684-.24-2.906-3.393-7.553 1.397-14.153s8.15-21.258 4.062-27.276c12.837 2.677 16.485 14.643 12.89 24.032 5.597-3.417 9.134-4.007 13.707-6.98l11.555-7.582c4.042-2.872 3.474-2.35 9.547-5.725.51-.704 2.314-5.77 2.522-7.116.06-.4.762-3.467.22-7.212-.48-3.314-1.735-7.136-3.41-8.574-1.726-1.48-2.996 3.114-5.137 2.39-2.83-.955-8.07-6.246-6.838-8.928 1.198-2.61 7.822-.513 5.54-2.288l-2.918-2.27c-1.793-1.395-2.855 1.156-6.91-.138-4.985-1.59-5.364-8.108-2.037-11.083 2.2-1.958 5.893.077 5.893.077 4.205 1.692 5.948.36.67-1.93 0 0-5.077-2.32-3.752-6.426.903-2.8 5.356-5.208 7.464-4.502 2.796.936 5.727 3.26 6.406 5.043 1.274 3.342 3.016 1.727 2.164-.908-.483-1.497-1.226-4.648.984-5.838 2.696-1.452 8.31.5 9.84 2.527 2.34 3.103 1.272 7.31.405 8.424 4.354 2.132 6.337 5.36 7.275 8.198" class="E"/><g class="B C"><path d="M979.597 394.65c1.617 11.484 14.6 5.793 19.302 15.683-3.754-.342-8.614 1.65-10.485 5.446 9.74 1.233 13.64 4.957 17.956 9.97-3.9-.637-9.812-.568-11.515 4.937 4.653.826 14.422 2.402 18.487 11.562-9.23-3.07-14.336-.648-14.327 2.14.027 8.246 4.798 8.552-2.507 13.435-2.053 1.372-9.897 1.652-9.92 5.844-.012 2.223 5.67 7.1 8.47 9.276-1.997-.093-7.38 1.71-11.725-.27s-8.305-3.184-16.2 2.815c-5.855 5.158-11.227 5.998-4.155 14.98 4.494 6.158.306 15.658-2.557 22.723-2.787 7.537-5.253 15.15-10.7 23.042-4.183 6.062-15.328 16.42-15.927 24.535-.783 10.516-.98 21.742-.33 27.212 1.782 14.987 2.4 17.835-11.79 22.66-8.394 2.853-37.554 10.337-51.358-4.928-7.053-7.8-14.644-7.276-20.778-17.692s-6.274-7.1-11.587-12.07-10.123-8.827-11.646-9.813c-3.043-1.97-4.115-2.365-9.235-6.254s-9.695-7.523-10.548-8.477c-1.707-1.908-10.846-5.495-12.883-5.263-1.256.144-4.834 6.314-7.517 6.813-3.362.626-11.282-1.745-11.375-6.017-.05-2.288 6.103-4.46 5.13-7.027-.663-1.746-5.5-3.474-7.66-2.98-1.23.282-4.775 2.343-7.687 1.56-5.442-1.46-7.1-9.313-3.876-12.373 1.64-1.556 8.02.353 8.978-.204 1.086-.632 1.782-1.128 1.2-2.356-.63-1.332-8.53-.976-9.526-2.71-3.392-5.906 1.435-14.327 7.6-11.643 2.075.9 4.06 2.415 5.448 3.424 1.23.895 2.38-.23 2.504-.905.283-1.537-5.413-5.134-4.652-7.467 1.466-4.487 11.007-5.658 13.327-1.912 1.8 2.908 5.464 9.802 6.153 10.738.345.467.88 1.516 5.148 2.657 10.65 2.563 14.207-2.073 18.076-11.076 3.467 2.928 8.937 11.576 6.14 16.31 3.958-4.185 10.618-8.952 16.343-9.55-2.306 6.348.665 11.693 1.58 13.867 3.657-3.79 13.534-7.83 20.605-6.32-6.082 3.806-9.552 10.68-2.743 13.9s8.546 5.06 10.1 11.088 9.395 4.14 12.367-.117 4.163-5.83 7.61-9.7c3.7-4.174 8.7-8.28 11.963-10.804 3.686-2.852 7.118-5.976 10.217-10.485 3.97-5.777 5.84-12.314 5.63-20.262-.906-7.66-6.703-12.135-6.676-19.684-.24-2.906-3.393-7.553 1.397-14.153s8.15-21.258 4.062-27.276c12.837 2.677 16.485 14.643 12.89 24.032 5.597-3.417 9.134-4.007 13.707-6.98l11.555-7.582c4.042-2.872 3.474-2.35 9.547-5.725.51-.704 2.314-5.77 2.522-7.116.06-.4.762-3.467.22-7.212-.48-3.314-1.735-7.136-3.41-8.574-1.726-1.48-2.996 3.114-5.137 2.39-2.83-.955-8.07-6.246-6.838-8.928 1.198-2.61 7.822-.513 5.54-2.288l-2.918-2.27c-1.793-1.395-2.855 1.156-6.91-.138-4.985-1.59-5.364-8.108-2.037-11.083 2.2-1.958 5.893.077 5.893.077 4.205 1.692 5.948.36.67-1.93 0 0-5.077-2.32-3.752-6.426.903-2.8 5.356-5.208 7.464-4.502 2.796.936 5.727 3.26 6.406 5.043 1.274 3.342 3.016 1.727 2.164-.908-.483-1.497-1.226-4.648.984-5.838 2.696-1.452 8.31.5 9.84 2.527 2.34 3.103 1.272 7.31.405 8.424 4.354 2.132 6.337 5.36 7.275 8.198z" class="D"/><g class="E"><path d="M807.997 525.098s37.495 11.985 61.33 37.237"/></g></g><path d="M875.32 683.997c15.05 2.187 30.036 1.846 44.957-1.124.243 2.36 1.137 5.532 2.34 8.114 2.1 4.504 4.772 9.225 7.478 13.245-1.984.134-4.635-1.425-6.635-4.646-.73 1.48-3.883 2.66-5.975.764 1.678-1.92 4.175-4.29 2.392-6.875-1.276-1.852-3.57-1.47-5.093-.484-1.366.884-2.6 2.88-2.983 5.797-1.972-3.17-4.17-4.598-6.122-4.6-3.256-.001-4.84 1.128-4.797 2.916.078 3.14 3.666 4.23 6.118 4.933-.73 2.726-4.016 3.446-5.434 2.6.07 3.79-1.312 6.54-3.05 7.503-1.785-.876-3.3-3.552-3.422-7.34-1.374.917-4.693.362-5.556-2.325 2.412-.824 5.942-2.092 5.862-5.23-.045-1.79-1.684-2.837-4.935-2.673-1.95.097-4.074 1.634-5.886 4.9-.527-2.896-1.86-4.826-3.268-5.64-1.57-.91-3.88-1.176-5.063.737-1.65 2.672.962 4.913 2.733 6.747-1.994 1.997-5.202.977-6.006-.464-1.836 3.316-4.406 5.006-6.394 4.972a100.63 100.63 0 0 0 6.806-13.603c1.074-2.638 1.807-5.85 1.933-8.22" class="E"/><path d="M875.32 683.997c15.05 2.187 30.036 1.846 44.957-1.124.243 2.36 1.137 5.532 2.34 8.114 2.1 4.504 4.772 9.225 7.478 13.245-1.984.134-4.635-1.425-6.635-4.646-.73 1.48-3.883 2.66-5.975.764 1.678-1.92 4.175-4.29 2.392-6.875-1.276-1.852-3.57-1.47-5.093-.484-1.366.884-2.6 2.88-2.983 5.797-1.972-3.17-4.17-4.598-6.122-4.6-3.256-.001-4.84 1.128-4.797 2.916.078 3.14 3.666 4.23 6.118 4.933-.73 2.726-4.016 3.446-5.434 2.6.07 3.79-1.312 6.54-3.05 7.503-1.785-.876-3.3-3.552-3.422-7.34-1.374.917-4.693.362-5.556-2.325 2.412-.824 5.942-2.092 5.862-5.23-.045-1.79-1.684-2.837-4.935-2.673-1.95.097-4.074 1.634-5.886 4.9-.527-2.896-1.86-4.826-3.268-5.64-1.57-.91-3.88-1.176-5.063.737-1.65 2.672.962 4.913 2.733 6.747-1.994 1.997-5.202.977-6.006-.464-1.836 3.316-4.406 5.006-6.394 4.972a100.63 100.63 0 0 0 6.806-13.603c1.074-2.638 1.807-5.85 1.933-8.22z" class="B C D"/><path d="M912.66 630.126c-5 1.254-9.82 2.455-13.788 4.985-3.695 2.357-9.27 3.25-13.78 2.335-7.26-1.468-11.95-2.723-19.327-.79-6.21 1.63-8.064 5.702-6.886 12.6 1.295-4.012 3.486-5.95 5.58-6.553 2.694-.777 7.505-.784 11.266.55 19.47 6.91 32.208 1.09 36.935-13.12" class="F"/><path d="M912.66 630.126c-5 1.254-9.82 2.455-13.788 4.985-3.695 2.357-9.27 3.25-13.78 2.335-7.26-1.468-11.95-2.723-19.327-.79-6.21 1.63-8.064 5.702-6.886 12.6 1.295-4.012 3.486-5.95 5.58-6.553 2.694-.777 7.505-.784 11.266.55 19.47 6.91 32.208 1.09 36.935-13.12z" class="B C D"/><path d="M873.31 635.465c-.486-2.093.11-4.756 1.07-6.388l4.61 1.058c-2.35 1.288-4.44 3.196-5.682 5.33m-5.815 22.26c-.8-1.927-.666-7.924 3.164-9.83.606 3.404 2.26 7.348 3.49 9.36z" fill="#fff"/><path d="M873.31 635.465c-.486-2.093.11-4.756 1.07-6.388l4.61 1.058c-2.35 1.288-4.44 3.196-5.682 5.33zm-5.815 22.26c-.8-1.927-.666-7.924 3.164-9.83.606 3.404 2.26 7.348 3.49 9.36z" class="B C D"/><path d="M934.612 549.158c-1.937 2.896-1.64 7.267-.51 10.87 1.54 4.914 5.118 8.924 6.277 14.377 1.348 6.38-1.87 7.92-1.368 11.065 2.662-4.737 10.336-5.1 12.646.857-3.415.483-6.5 2.75-7.6 5.947-1.98 5.756 2.908 7.746 3.698 13.322.933 6.578-2.966 9.443-3.215 12.228 3.27-.998 7.243.837 7.718 4.276-1.738-.644-3.518-.196-4.614 1.717-1.314 2.293-.26 5.312-.704 7.806-.82 4.63-4.358 5.198-4.812 8.08 3.45-1.745 8.044.765 8.128 5.19-1.28-.83-2.937-.94-4.314-.083-2.477 1.543-1.156 4.502-2.08 7.213-.67 1.964-4.626 4.23-4.847 6.374 2.982-.812 5.824.938 5.876 4.602-1.554-.692-5.07-.2-6.234 1.186-5.444 6.437-9.274 11.765-15.7 16.294-5.203 3.673-18.65 6.174-29.073 6.8-7.68.46-14.204-2.858-18.917-5.272-4.106-2.105-1.543-4.235-.475-6.245-3.51.432-6.5 1.034-9.83-.257-1.916-.745-4.414-2.37-4.212-3.447.117-.622 1.48-2.646 2.645-1.906-.075-2.414-.556-3.786-.484-6.29.095-3.295 1.98-6.313 4.663-6.997 7.115-1.812 13.644-1.44 20.198 1.06 8.874 3.386 11.668-1.635 12.376-7.05.714-5.46-1.083-12.225-5.997-16.457-2.55-2.197-7.23-4.365-11.782-4.162-2.555.113-5.02 1.385-7.26.403-1.142-.5-1.437-4.256-1.78-6.313-.27-1.605.966-2.486 2.67-2.9 3.953-.96 2.928-5.086 5.287-5.743.157 1.08 1.205 5.413 2.176 5.44 3.902.112 12.87 1.22 12.593-.253-.7-3.708-4.94-5.526-14.58-7.27-7.48-1.353-21.947 3-19.842 20.126-9.78-5.335-12.882-21.394-4.93-26.336-2.86.4-6.026.174-9.5-.394-5.15-.843-10.635 3.333-13.955 7.41-1.532-12.192.662-19.092 6.822-23.093 7.32-4.754 12.408-3.915 17.373-4.8-4.176-2.123-7.18-6.02-11.003-9.522-4.296-3.933-10.512-7.08-17.337-6.17 2.855-5.884 8.36-9.497 15.064-10.646 9.047-1.55 16.582.904 22.863 5.412-1.075-5.795-7.065-7.825-8.247-14.83-1.058-6.26 1.753-11.898 8.043-13.403-1.7 10.042 8.386 12.804 14.343 14.878 5.638 1.964 10.552 4.742 14.63 9.393.58-5.935-7.343-10.03-3.765-18.76 2.406-5.87 8.404-8.485 14.953-8.54-4.173 2.86-5.117 8.69-2.175 13.86 4.226 7.42 9.434 7.77 14.952 16.39 1.464 2.287 2.503 6.09 3.34 9.728 2.243-4.154.87-7.897.036-11.194-1.567-6.194 3.33-14.525 11.753-13.967" class="E"/><g class="B C"><path d="M934.612 549.158c-1.937 2.896-1.64 7.267-.51 10.87 1.54 4.914 5.118 8.924 6.277 14.377 1.348 6.38-1.87 7.92-1.368 11.065 2.662-4.737 10.336-5.1 12.646.857-3.415.483-6.5 2.75-7.6 5.947-1.98 5.756 2.908 7.746 3.698 13.322.933 6.578-2.966 9.443-3.215 12.228 3.27-.998 7.243.837 7.718 4.276-1.738-.644-3.518-.196-4.614 1.717-1.314 2.293-.26 5.312-.704 7.806-.82 4.63-4.358 5.198-4.812 8.08 3.45-1.745 8.044.765 8.128 5.19-1.28-.83-2.937-.94-4.314-.083-2.477 1.543-1.156 4.502-2.08 7.213-.67 1.964-4.626 4.23-4.847 6.374 2.982-.812 5.824.938 5.876 4.602-1.554-.692-5.07-.2-6.234 1.186-5.444 6.437-9.274 11.765-15.7 16.294-5.203 3.673-18.65 6.174-29.073 6.8-7.68.46-14.204-2.858-18.917-5.272-4.106-2.105-1.543-4.235-.475-6.245-3.51.432-6.5 1.034-9.83-.257-1.916-.745-4.414-2.37-4.212-3.447.117-.622 1.48-2.646 2.645-1.906-.075-2.414-.556-3.786-.484-6.29.095-3.295 1.98-6.313 4.663-6.997 7.115-1.812 13.644-1.44 20.198 1.06 8.874 3.386 11.668-1.635 12.376-7.05.714-5.46-1.083-12.225-5.997-16.457-2.55-2.197-7.23-4.365-11.782-4.162-2.555.113-5.02 1.385-7.26.403-1.142-.5-1.437-4.256-1.78-6.313-.27-1.605.966-2.486 2.67-2.9 3.953-.96 2.928-5.086 5.287-5.743.157 1.08 1.205 5.413 2.176 5.44 3.902.112 12.87 1.22 12.593-.253-.7-3.708-4.94-5.526-14.58-7.27-7.48-1.353-21.947 3-19.842 20.126-9.78-5.335-12.882-21.394-4.93-26.336-2.86.4-6.026.174-9.5-.394-5.15-.843-10.635 3.333-13.955 7.41-1.532-12.192.662-19.092 6.822-23.093 7.32-4.754 12.408-3.915 17.373-4.8-4.176-2.123-7.18-6.02-11.003-9.522-4.296-3.933-10.512-7.08-17.337-6.17 2.855-5.884 8.36-9.497 15.064-10.646 9.047-1.55 16.582.904 22.863 5.412-1.075-5.795-7.065-7.825-8.247-14.83-1.058-6.26 1.753-11.898 8.043-13.403-1.7 10.042 8.386 12.804 14.343 14.878 5.638 1.964 10.552 4.742 14.63 9.393.58-5.935-7.343-10.03-3.765-18.76 2.406-5.87 8.404-8.485 14.953-8.54-4.173 2.86-5.117 8.69-2.175 13.86 4.226 7.42 9.434 7.77 14.952 16.39 1.464 2.287 2.503 6.09 3.34 9.728 2.243-4.154.87-7.897.036-11.194-1.567-6.194 3.33-14.525 11.753-13.967z" class="D"/><path d="M912.428 680.89c-.942 9.84 8.157 10.573 15.076 13.282-1.135-6.272-.856-14.498-5.16-16.4" class="E"/></g><path d="M878.27 672.77c2.825-1.875 4.537-2.6 7.198-1.857 4.325 1.07 5.72 3.512 7.7 3.28-.108 1.727-.398 3.385-3.17 4.084-2.724-.47-4.286-1.13-5.56-1.89-.358-.214.577-2.43 1.37-4.29-.716.038-2.805 1.064-2.988 3.213-1.155-.81-2.4-1.683-4.557-2.538" fill="#fff"/><g class="B C D"><path d="M878.27 672.77c2.825-1.875 4.537-2.6 7.198-1.857 4.325 1.07 5.72 3.512 7.7 3.28-.108 1.727-.398 3.385-3.17 4.084-2.724-.47-4.286-1.13-5.56-1.89-.358-.214.577-2.43 1.37-4.29-.716.038-2.805 1.064-2.988 3.213-1.155-.81-2.4-1.683-4.557-2.538z" class="G"/><path d="M874.143 675.663c2.897-4.134 5.364-1.396 7.926-.165 6.692 6.862 10.826 1.474 15.498-1.34M895.32 621.2c10.583-.67 15.413 12.03 15.413 12.03s4.788-6.254 2.02-11.353c5.94 4.173 9.203 12.5 3.628 23.743 3.455-.528 6.88-4.144 7.446-6.218 2.247 8.1.28 19.174-7.414 25.2m-52.833 6.273s1.067-2.522 2.814-1.067m60.338 17.867s-8.7 1.694-10.025-7.716"/></g><path d="M981.953 454.243s6.08.523 9.424-5.2c3.488-5.968-2.412-10.364-2.412-10.364" class="B C E"/></g></g><g class="E"><path d="M39.22 127.185h25.64V72.408H39.22zm98.667 0h25.64V72.408h-25.64zm98.667 0h25.64V72.408h-25.64zm98.666 0h25.64V72.408h-25.64zm98.667 0h25.64V72.408h-25.64z"/><use xlink:href="#E" x="-551.279" y="-280.205"/><use xlink:href="#E" x="-452.613" y="-280.205"/><use xlink:href="#E" x="-353.946" y="-280.205"/><use xlink:href="#E" x="-255.279" y="-280.205"/><path d="M39.22 287.185h25.64v-54.777H39.22z"/><use xlink:href="#E" x="-501.946" y="-200.205"/><use xlink:href="#E" x="-403.279" y="-200.205"/><use xlink:href="#E" x="-304.613" y="-200.205"/><use xlink:href="#E" x="-205.946" y="-200.205"/><path d="M88.555 312.407h25.64v47.4h-25.64zm98.665 0h25.64v47.4h-25.64zm98.667 0h25.64v47.4h-25.64zm98.667 0h25.64v47.4h-25.64zM0 152.407h15.527v54.778H0zm0 160h15.527v47.4H0z"/><use xlink:href="#E" x="-156.613" y="-280.205"/><path d="M88.555 0h25.64v47.184h-25.64zm98.665 0h25.64v47.184h-25.64zm98.667 0h25.64v47.184h-25.64zm98.667 0h25.64v47.184h-25.64zM0 0h15.527v47.184H0zm483.22 0h25.64v47.184h-25.64zm49.334 127.185h25.64V72.408h-25.64z"/><use xlink:href="#E" x="-107.279" y="-200.205"/><path d="M483.22 312.407h25.64v47.4h-25.64zm98.668-160h17.5v54.778h-17.5zm0 160h17.5v47.4h-17.5zm0-312.407h17.5v47.184h-17.5z"/></g><g clip-path="url(#C)"><g clip-path="url(#D)"><path d="M377.895 126.74c4.51.2 9.382 5.18 17.124-3.492 1.6 3.247 1.448 7.433-2.124 9.946 5.258 3.41 10.902 12.22 12.488 17.507 2.067 6.888 3.373 14.94 8.84 16.933 2.9 1.057 5.616-1.027 5.366-4.59-.542-7.737-3.224-6.073-6.067-16.517-1.068-3.922 1.04-10.074 10.115-8.717-3.842 1.773-4.045 4.114-3.63 7.206.72 5.37 10.07 11.662 11.047 20.484 1.15 10.378-7.332 15.047-11.54 15.448-5.636.537-12.503-3-16.653-10.048-2.193 10.25 4.98 20.22 12.76 24.987 6.516 3.996 13.918 7.493 17.545 13.248 4.09 6.49 3.266 14.654-.93 18.676-.214-3.88-2.933-10.4-11.075-14.573-9.884-5.066-19.44-7.974-27.42-22.412-1.675 25.83 26.036 35.9 37.55 43.896 14.29 9.926 9.623 31.555 5.285 34.508.25-3.622.4-9.293-3.916-16-4.994-7.758-13.726-11.274-24.262-17.07-10.478-5.764-19.176-14.97-23.302-24.632-1.137 6.52 3.694 15.966 9.778 22.58 6.3 6.852 13.83 12.858 18.112 16.485 8.527 7.227 20.95 17.23 22.24 39.165.9 15.426-6.768 26.23-17.534 30.738-6.314 2.643-15.57 3.04-21.943 1.61-3.198-.717-6.386-1.82-9.38-3.618-2.107-1.267-5.743-.487-5.378 3.2.43 4.333 6.62 4.653 7.28 9.73.543 4.19-2.642 7.557-6.013 9.223.844-2.566-.07-5.543-1.84-8.512-2.306-3.87-7.526-3.46-8.207-10.782-.336-3.663 2.108-7.792 5.575-8.818.41-.25 1.1-.804.808-1.207-3.827-5.25-4.52-12.195-4.132-17.012.648-8.043 3.43-10.878 3.467-18.328.01-2.322.008-9.017-2.787-13.43-3.444-5.44-6.392-7.596-9.675-9.3 4.63-.29 9.582.783 13.047 2.127 6.405 2.484 11.84 10.395 12.922 15.64.72 3.492.557 6.757.098 9.936 3.135-1.06 8.595-1.212 12.415 1.318 3.923 2.597 6.094 8.21 3.2 13.102-.996-4.96-4.313-6.76-9.29-6.956-4.737-.187-8.523 2.77-8.937 7.912-.61 7.58 5.837 13.1 14.697 13.206 11.74.14 18.116-8.476 17.493-19.75-.624-11.3-6.223-19.62-14.14-26.345-6.8-5.78-13.958-11.392-21.035-18.414-5.52-5.478-16.394-17.09-16.76-32.484-.27-11.408 3.05-20.634 8.243-28.945s8.27-15.236 10.485-21.68c2.664-7.747 1.416-18.32-6.1-21.284-7.774-3.07-18.328 1.582-22.075 11.72-1.332-7.41-3.15-22.734 4.355-22.16 4.544-1.565 8.638-3.654 13.79-3.436" class="E"/><path d="M377.895 126.74c4.51.2 9.382 5.18 17.124-3.492 1.6 3.247 1.448 7.433-2.124 9.946 5.258 3.41 10.902 12.22 12.488 17.507 2.067 6.888 3.373 14.94 8.84 16.933 2.9 1.057 5.616-1.027 5.366-4.59-.542-7.737-3.224-6.073-6.067-16.517-1.068-3.922 1.04-10.074 10.115-8.717-3.842 1.773-4.045 4.114-3.63 7.206.72 5.37 10.07 11.662 11.047 20.484 1.15 10.378-7.332 15.047-11.54 15.448-5.636.537-12.503-3-16.653-10.048-2.193 10.25 4.98 20.22 12.76 24.987 6.516 3.996 13.918 7.493 17.545 13.248 4.09 6.49 3.266 14.654-.93 18.676-.214-3.88-2.933-10.4-11.075-14.573-9.884-5.066-19.44-7.974-27.42-22.412-1.675 25.83 26.036 35.9 37.55 43.896 14.29 9.926 9.623 31.555 5.285 34.508.25-3.622.4-9.293-3.916-16-4.994-7.758-13.726-11.274-24.262-17.07-10.478-5.764-19.176-14.97-23.302-24.632-1.137 6.52 3.694 15.966 9.778 22.58 6.3 6.852 13.83 12.858 18.112 16.485 8.527 7.227 20.95 17.23 22.24 39.165.9 15.426-6.768 26.23-17.534 30.738-6.314 2.643-15.57 3.04-21.943 1.61-3.198-.717-6.386-1.82-9.38-3.618-2.107-1.267-5.743-.487-5.378 3.2.43 4.333 6.62 4.653 7.28 9.73.543 4.19-2.642 7.557-6.013 9.223.844-2.566-.07-5.543-1.84-8.512-2.306-3.87-7.526-3.46-8.207-10.782-.336-3.663 2.108-7.792 5.575-8.818.41-.25 1.1-.804.808-1.207-3.827-5.25-4.52-12.195-4.132-17.012.648-8.043 3.43-10.878 3.467-18.328.01-2.322.008-9.017-2.787-13.43-3.444-5.44-6.392-7.596-9.675-9.3 4.63-.29 9.582.783 13.047 2.127 6.405 2.484 11.84 10.395 12.922 15.64.72 3.492.557 6.757.098 9.936 3.135-1.06 8.595-1.212 12.415 1.318 3.923 2.597 6.094 8.21 3.2 13.102-.996-4.96-4.313-6.76-9.29-6.956-4.737-.187-8.523 2.77-8.937 7.912-.61 7.58 5.837 13.1 14.697 13.206 11.74.14 18.116-8.476 17.493-19.75-.624-11.3-6.223-19.62-14.14-26.345-6.8-5.78-13.958-11.392-21.035-18.414-5.52-5.478-16.394-17.09-16.76-32.484-.27-11.408 3.05-20.634 8.243-28.945s8.27-15.236 10.485-21.68c2.664-7.747 1.416-18.32-6.1-21.284-7.774-3.07-18.328 1.582-22.075 11.72-1.332-7.41-3.15-22.734 4.355-22.16 4.544-1.565 8.638-3.654 13.79-3.436z" class="B C D"/><path d="M216.016 48.825c1.243-7.76-1.836-9-7.2-9.334 1.82-1.67 7.916-4.45 11.952-2.32 4.435 2.34 5.564 9.288 5.123 9.465zM199.07 61.107s-6.04 2.485-10.458-.032c-4.76-2.714-4.394-9.1-3.49-11.292 4.047 5.92 9.34 4.78 13.293 2zm-9.528 19.14a10.07 10.07 0 0 1-2.795-.322c-6.895-1.837-6.795-7.086-6.893-8.832 7.635 3.71 10.44 0 14.863-3.667l3.713 9.597c-1.363.95-4.912 3.148-8.888 3.224M199.6 93.55c-4.495-.018-7.695-3.363-8.068-4.016 8.257-.54 8.65-3.8 10.868-9.57 3.148 2.287 5.927 4.247 7.747 5.3.16 1.333-1.83 5.27-6.507 7.38-1.43.646-2.78.9-4.04.906" class="F"/><path d="M216.016 48.825c1.243-7.76-1.836-9-7.2-9.334 1.82-1.67 7.916-4.45 11.952-2.32 4.435 2.34 5.564 9.288 5.123 9.465zM199.07 61.107s-6.04 2.485-10.458-.032c-4.76-2.714-4.394-9.1-3.49-11.292 4.047 5.92 9.34 4.78 13.293 2zm-9.528 19.14a10.07 10.07 0 0 1-2.795-.322c-6.895-1.837-6.795-7.086-6.893-8.832 7.635 3.71 10.44 0 14.863-3.667l3.713 9.597c-1.363.95-4.912 3.148-8.888 3.224zM199.6 93.55c-4.495-.018-7.695-3.363-8.068-4.016 8.257-.54 8.65-3.8 10.868-9.57 3.148 2.287 5.927 4.247 7.747 5.3.16 1.333-1.83 5.27-6.507 7.38-1.43.646-2.78.9-4.04.906z" class="B C D"/><path d="M265.053 151.788c-14.108.006-22.854-9.4-24.662-19.916-.775-4.51-1.51-7.595-3.617-9.37-5.173-4.354-13.488-5.276-14.262-4.986 4.968-5.917 9.363-7.898 16-6.46-1.38-7.286 5.323-16.322 8.786-23.782 1.17-2.518-4.705-4.293-11.765-5.505-2.298-.394-6.805-3.222-9.013-3.837-2.287-.638-5.74-.416-7.067.404-1.37.847-6.317 6.42-10.074 7.654-3.497 1.15-7.874.5-8.687-2.356-1.295-4.543 4.746-6.36 5.552-7.966.78-1.553-.56-2.796-1.693-2.145-1.344.774-5.677 5.585-8.355 4.736-2.018-.64-3.68-2.45-4.187-7.46-.43-4.247 6.522-5.544 9.15-5.745 2.14-.163 1.86-2.282.57-2.684-1.387-.434-7.45 3.197-7.794.32s-.796-9.15 3.007-11.352c2.99-1.73 14.234 1.556 15.522 1.88 1.533.385 3.03.836 3.53.375 3.39-3.135-3.547-4.254-1.198-7.164 2.497-3.093 6.105-3.378 9.433-3.926 6.837-1.126 3.368 11.825 4.88 11.904 3.263.453 4.54.952 7.17-1.17s6.582-8.683 12.12-10.393c-.483 5.015-.085 9.528 1.6 12.9 1.924-5.758 8.857-8.61 15.898-10.445-3.524 4.117-4.487 11.587-3.36 12.726 4.628-5.153 8.98-7.03 17.723-6.78-2.603 1.932-3.934 7.57-3.36 9.155.882 2.433 2.8-1.803 5.134 3.14 1.477 3.115-.906 6.87-1.895 8.813-4.53 8.905-5.216 29.525 15.713 34.394 11.383 2.648 28.585 9.26 30.074 11.13 11.866 14.92.91 27.524-5.21 34.757-15.5-7.39-37.86-1.095-55.664-.847" class="E"/><g class="B C"><path d="M265.053 151.788c-14.108.006-22.854-9.4-24.662-19.916-.775-4.51-1.51-7.595-3.617-9.37-5.173-4.354-13.488-5.276-14.262-4.986 4.968-5.917 9.363-7.898 16-6.46-1.38-7.286 5.323-16.322 8.786-23.782 1.17-2.518-4.705-4.293-11.765-5.505-2.298-.394-6.805-3.222-9.013-3.837-2.287-.638-5.74-.416-7.067.404-1.37.847-6.317 6.42-10.074 7.654-3.497 1.15-7.874.5-8.687-2.356-1.295-4.543 4.746-6.36 5.552-7.966.78-1.553-.56-2.796-1.693-2.145-1.344.774-5.677 5.585-8.355 4.736-2.018-.64-3.68-2.45-4.187-7.46-.43-4.247 6.522-5.544 9.15-5.745 2.14-.163 1.86-2.282.57-2.684-1.387-.434-7.45 3.197-7.794.32s-.796-9.15 3.007-11.352c2.99-1.73 14.234 1.556 15.522 1.88 1.533.385 3.03.836 3.53.375 3.39-3.135-3.547-4.254-1.198-7.164 2.497-3.093 6.105-3.378 9.433-3.926 6.837-1.126 3.368 11.825 4.88 11.904 3.263.453 4.54.952 7.17-1.17s6.582-8.683 12.12-10.393c-.483 5.015-.085 9.528 1.6 12.9 1.924-5.758 8.857-8.61 15.898-10.445-3.524 4.117-4.487 11.587-3.36 12.726 4.628-5.153 8.98-7.03 17.723-6.78-2.603 1.932-3.934 7.57-3.36 9.155.882 2.433 2.8-1.803 5.134 3.14 1.477 3.115-.906 6.87-1.895 8.813-4.53 8.905-5.216 29.525 15.713 34.394 11.383 2.648 28.585 9.26 30.074 11.13 11.866 14.92.91 27.524-5.21 34.757-15.5-7.39-37.86-1.095-55.664-.847z" class="D"/><path d="M269.442 79.228s3.803-5.3.917-10.883c-3.01-5.822-9.925-2.405-9.925-2.405" class="E"/></g><path d="M180.094 279.68c-4.298-6.577-9.82-6.866-16.92-3.245 4.25-13.51 14.648-13.632 24.253-6.374zm-19.576 37.25c-3.787.21-8.4-2.115-10.488-11.33 10.053 7.2 9.913.02 14.733-4.9l6.952 11.184s-3.72 2.78-8.737 4.554a8.93 8.93 0 0 1-2.46.493m37.837 14.14c-2.133.095-4.238-.464-5.77-1.524 4.382-1.687 6.772-3.625 4.38-10.88l8.235-5.777c2.152 2.474 4.49 8.194.436 14.25-1.736 2.593-4.54 3.806-7.28 3.93m-23.783.87c-6.35.038-9.912-4.823-10.86-6.595 11.322 1.426 10.26-1.863 12.168-8.62l9.89 3.852c-.8 3.547-2.21 9.308-7.383 10.797-1.37.395-2.637.56-3.813.567" class="F"/><path d="M180.094 279.68c-4.298-6.577-9.82-6.866-16.92-3.245 4.25-13.51 14.648-13.632 24.253-6.374zm-19.576 37.25c-3.787.21-8.4-2.115-10.488-11.33 10.053 7.2 9.913.02 14.733-4.9l6.952 11.184s-3.72 2.78-8.737 4.554a8.93 8.93 0 0 1-2.46.493zm37.837 14.14c-2.133.095-4.238-.464-5.77-1.524 4.382-1.687 6.772-3.625 4.38-10.88l8.235-5.777c2.152 2.474 4.49 8.194.436 14.25-1.736 2.593-4.54 3.806-7.28 3.93zm-23.783.87c-6.35.038-9.912-4.823-10.86-6.595 11.322 1.426 10.26-1.863 12.168-8.62l9.89 3.852c-.8 3.547-2.21 9.308-7.383 10.797-1.37.395-2.637.56-3.813.567z" class="B C D"/><path d="M197.067 263.74c.33-3.77 2.77-9.216 1.722-13.73 2.717 2.57 5.213 5.815 5.522 9.317 4.11-7.228-1.125-17.313-.727-25.182 2.1 2.73 7.194 6.747 8.34 10.378 4.133-8.937-5.29-10.96-.396-28.63 1.704 6.38 6.03 11.657 7.848 16.032 1.395-12.145 13.067-20.164 19.645-18.153 15.082-19.658 33.244-12.004 32.366 9.38 0 0-14.256 31.525-17.943 34.245-4.003 2.953-9.096 5.62-14.905 9.325-6.555 4.184-11.935 7.54-17.02 12.243s-7.53 8.92-10.86 12.22c-4.687 4.648-7.8 9.808-7.9 12.204-.122 2.933 2.72 3.718 3.773 8.375 1.254 5.54-4.443 11.483-9.74 10.66-3.02-.47-3.345-6.088-4.975-7.22-.384-.267-.845-.36-1.435-.187-3.098.906-.55 9.906-5.554 10.26s-8.993-1.166-11.698-6.072c-2.175-3.945 5.36-6.635 5.645-8.952.064-.52-1.028-1.273-1.558-1.26-.35.008-5.736 5.814-9.95 4.4-3.285-1.095-6.847-4.944-5.724-10.282.97-4.616 7.085-4.945 10.02-5.26 3.48-.37 11.262-10.303 10.634-14.777-.192-3.607-5.553-2.188-6.68-6.323-1.447-5.303 2.703-11.247 7.372-10.54 3.493.53 7.245 5.076 8.834 5.224 3.85.022 4.98-3.52 5.347-7.706" class="E"/><path d="M197.067 263.74c.33-3.77 2.77-9.216 1.722-13.73 2.717 2.57 5.213 5.815 5.522 9.317 4.11-7.228-1.125-17.313-.727-25.182 2.1 2.73 7.194 6.747 8.34 10.378 4.133-8.937-5.29-10.96-.396-28.63 1.704 6.38 6.03 11.657 7.848 16.032 1.395-12.145 13.067-20.164 19.645-18.153 15.082-19.658 33.244-12.004 32.366 9.38 0 0-14.256 31.525-17.943 34.245-4.003 2.953-9.096 5.62-14.905 9.325-6.555 4.184-11.935 7.54-17.02 12.243s-7.53 8.92-10.86 12.22c-4.687 4.648-7.8 9.808-7.9 12.204-.122 2.933 2.72 3.718 3.773 8.375 1.254 5.54-4.443 11.483-9.74 10.66-3.02-.47-3.345-6.088-4.975-7.22-.384-.267-.845-.36-1.435-.187-3.098.906-.55 9.906-5.554 10.26s-8.993-1.166-11.698-6.072c-2.175-3.945 5.36-6.635 5.645-8.952.064-.52-1.028-1.273-1.558-1.26-.35.008-5.736 5.814-9.95 4.4-3.285-1.095-6.847-4.944-5.724-10.282.97-4.616 7.085-4.945 10.02-5.26 3.48-.37 11.262-10.303 10.634-14.777-.192-3.607-5.553-2.188-6.68-6.323-1.447-5.303 2.703-11.247 7.372-10.54 3.493.53 7.245 5.076 8.834 5.224 3.85.022 4.98-3.52 5.347-7.706z" class="B C D"/><path d="M289.86 158.88c9.192-3.45 17-11.962 17.998-18.08-5.297-10.555-1.802-15.274 5.768-14.01 6.178 1.028 6.188 5.96 4.56 11.648-1.452 5.075-3.66 8.504-8.365 12.133-6.142 4.74-17.322 8.774-19.962 8.31" class="E"/><path d="M289.86 158.88c9.192-3.45 17-11.962 17.998-18.08-5.297-10.555-1.802-15.274 5.768-14.01 6.178 1.028 6.188 5.96 4.56 11.648-1.452 5.075-3.66 8.504-8.365 12.133-6.142 4.74-17.322 8.774-19.962 8.31z" class="B C D"/><path d="M361.563 20.273c-1.275-1.265-4-3.27-3.022-8.606 1.05-5.738 6.484-7.726 8.7-7.618-2.86 5.078-1.53 9.38 1.616 12.377zM346.88 26.43s-5.878-1.668-6.5-9.103c-.62-7.427 4.643-9.933 6-10.406-.675 5.53 1.34 10.538 7.665 13.015zm-8.646 14.27c-1.403-.15-2.95-.67-4.415-1.787-5.466-4.162-3.62-11.73-3.164-12.64 4.314 7.097 7.85 7.602 13.156 3.334l-.647 10.02c-.63.572-2.592 1.325-4.93 1.073m8.1 15.05a9.36 9.36 0 0 1-1.88-.446c-4.58-1.61-6.728-7.652-6.703-9.96 4.1 3.645 7.13 4.347 12.792.08 1.267 2.073 3.19 4.95 5.12 7.855-.735.67-4.924 3.068-9.33 2.47" class="F"/><path d="M361.563 20.273c-1.275-1.265-4-3.27-3.022-8.606 1.05-5.738 6.484-7.726 8.7-7.618-2.86 5.078-1.53 9.38 1.616 12.377zM346.88 26.43s-5.878-1.668-6.5-9.103c-.62-7.427 4.643-9.933 6-10.406-.675 5.53 1.34 10.538 7.665 13.015zm-8.646 14.27c-1.403-.15-2.95-.67-4.415-1.787-5.466-4.162-3.62-11.73-3.164-12.64 4.314 7.097 7.85 7.602 13.156 3.334l-.647 10.02c-.63.572-2.592 1.325-4.93 1.073zm8.1 15.05a9.36 9.36 0 0 1-1.88-.446c-4.58-1.61-6.728-7.652-6.703-9.96 4.1 3.645 7.13 4.347 12.792.08 1.267 2.073 3.19 4.95 5.12 7.855-.735.67-4.924 3.068-9.33 2.47z" class="B C D"/><path d="M174.86 147.378c-1.335-2.585-3.774-6.463-2.28-11.104 1.82-5.655 8.925-7 10.928-7.14-3.46 5.9-2.358 10.014.433 15.722zM163.9 159.482s-7.497-2.395-9.314-8.34c-1.938-6.342 2.106-11.338 3.97-12.32.827 4.437 1.805 10.795 10.518 12.547zm-2.16 17.218c-2.333-.012-6.003-.404-8.988-2.385-4.68-3.105-5.986-10.158-5.53-11.573 4.61 4.785 8.093 6.203 16.635 4.4l.196 9.43s-.913.124-2.313.117m12.9 19.843c-4.29-.04-8.24-4.2-9.155-6.695 4.633 1.84 7.805.982 10.493-1.832l6.87 4.83s-3.66 3.196-7.346 3.655a6.41 6.41 0 0 1-.863.041" class="F"/><path d="M174.86 147.378c-1.335-2.585-3.774-6.463-2.28-11.104 1.82-5.655 8.925-7 10.928-7.14-3.46 5.9-2.358 10.014.433 15.722zM163.9 159.482s-7.497-2.395-9.314-8.34c-1.938-6.342 2.106-11.338 3.97-12.32.827 4.437 1.805 10.795 10.518 12.547zm-2.16 17.218c-2.333-.012-6.003-.404-8.988-2.385-4.68-3.105-5.986-10.158-5.53-11.573 4.61 4.785 8.093 6.203 16.635 4.4l.196 9.43s-.913.124-2.313.117zm12.9 19.843c-4.29-.04-8.24-4.2-9.155-6.695 4.633 1.84 7.805.982 10.493-1.832l6.87 4.83s-3.66 3.196-7.346 3.655a6.41 6.41 0 0 1-.863.041z" class="B C D"/><path d="M378.984 34.446c1.617 11.484 14.59 5.793 19.302 15.683-3.755-.342-8.614 1.65-10.485 5.446 9.74 1.233 13.64 4.957 17.956 9.97-3.9-.637-9.812-.568-11.515 4.937 4.653.826 14.422 2.402 18.486 11.562-9.228-3.07-14.335-.648-14.326 2.14.026 8.246 4.798 8.552-2.507 13.435-2.053 1.372-9.898 1.65-9.92 5.844-.012 2.223 5.67 7.1 8.47 9.276-1.997-.093-7.38 1.712-11.725-.27s-8.305-3.183-16.2 2.815c-5.855 5.158-11.227 5.998-4.156 14.98 4.495 6.16.306 15.66-2.556 22.724-2.787 7.537-5.253 15.15-10.7 23.042-4.183 6.062-15.33 16.422-15.927 24.534-.783 10.517-.982 21.742-.33 27.212 1.782 14.988 2.4 17.835-11.79 22.66-8.395 2.853-37.554 10.337-51.358-4.927-7.053-7.8-14.644-7.278-20.78-17.693s-6.273-7.1-11.586-12.07-10.124-8.826-11.645-9.813c-3.044-1.97-4.116-2.365-9.237-6.254s-9.694-7.523-10.548-8.477c-1.707-1.908-10.845-5.495-12.882-5.263-1.256.144-4.833 6.314-7.517 6.813-3.362.626-11.282-1.745-11.375-6.017-.05-2.29 6.104-4.46 5.13-7.027-.663-1.746-5.5-3.475-7.66-2.98-1.23.282-4.776 2.343-7.688 1.562-5.44-1.46-7.1-9.314-3.875-12.374 1.64-1.556 8.02.353 8.978-.204 1.086-.63 1.782-1.128 1.2-2.356-.632-1.332-8.53-.976-9.526-2.71-3.392-5.906 1.435-14.327 7.6-11.643 2.075.9 4.06 2.415 5.447 3.424 1.232.895 2.38-.23 2.504-.905.283-1.538-5.413-5.135-4.65-7.468 1.466-4.486 11.007-5.657 13.327-1.91 1.8 2.908 5.464 9.802 6.153 10.738.345.467.88 1.516 5.148 2.658 10.65 2.56 14.207-2.073 18.076-11.076 3.467 2.927 8.937 11.576 6.14 16.3 3.958-4.185 10.618-8.952 16.343-9.552-2.306 6.35.664 11.694 1.58 13.868 3.658-3.79 13.535-7.83 20.606-6.32-6.082 3.807-9.553 10.683-2.743 13.892s8.546 5.06 10.1 11.087 9.395 4.14 12.367-.116 4.162-5.832 7.61-9.71c3.7-4.174 8.7-8.28 11.962-10.804 3.687-2.852 7.12-5.976 10.218-10.485 3.97-5.777 5.838-12.314 5.63-20.262-.906-7.66-6.703-12.135-6.677-19.684-.24-2.906-3.392-7.552 1.398-14.153s8.148-21.26 4.06-27.276c12.837 2.677 16.486 14.642 12.892 24.032 5.597-3.417 9.134-4.007 13.707-6.98l11.555-7.582c4.042-2.87 3.474-2.347 9.547-5.724.51-.704 2.314-5.77 2.52-7.116.06-.4.763-3.467.22-7.212-.48-3.314-1.735-7.136-3.412-8.574-1.725-1.48-2.995 3.114-5.136 2.39-2.83-.955-8.07-6.246-6.838-8.928 1.198-2.61 7.822-.513 5.54-2.288l-2.918-2.27c-1.794-1.395-2.855 1.156-6.912-.138-4.984-1.59-5.363-8.108-2.036-11.083 2.19-1.958 5.893.077 5.893.077 4.205 1.692 5.948.36.67-1.93 0 0-5.077-2.32-3.753-6.426.904-2.8 5.357-5.208 7.464-4.502 2.797.936 5.728 3.26 6.407 5.043 1.274 3.342 3.016 1.727 2.164-.908-.483-1.497-1.227-4.648.984-5.838 2.695-1.452 8.31.5 9.84 2.527 2.34 3.103 1.27 7.31.404 8.424 4.355 2.132 6.337 5.36 7.276 8.198" class="E"/><g class="B C"><path d="M378.984 34.446c1.617 11.484 14.59 5.793 19.302 15.683-3.755-.342-8.614 1.65-10.485 5.446 9.74 1.233 13.64 4.957 17.956 9.97-3.9-.637-9.812-.568-11.515 4.937 4.653.826 14.422 2.402 18.486 11.562-9.228-3.07-14.335-.648-14.326 2.14.026 8.246 4.798 8.552-2.507 13.435-2.053 1.372-9.898 1.65-9.92 5.844-.012 2.223 5.67 7.1 8.47 9.276-1.997-.093-7.38 1.712-11.725-.27s-8.305-3.183-16.2 2.815c-5.855 5.158-11.227 5.998-4.156 14.98 4.495 6.16.306 15.66-2.556 22.724-2.787 7.537-5.253 15.15-10.7 23.042-4.183 6.062-15.33 16.422-15.927 24.534-.783 10.517-.982 21.742-.33 27.212 1.782 14.988 2.4 17.835-11.79 22.66-8.395 2.853-37.554 10.337-51.358-4.927-7.053-7.8-14.644-7.278-20.78-17.693s-6.273-7.1-11.586-12.07-10.124-8.826-11.645-9.813c-3.044-1.97-4.116-2.365-9.237-6.254s-9.694-7.523-10.548-8.477c-1.707-1.908-10.845-5.495-12.882-5.263-1.256.144-4.833 6.314-7.517 6.813-3.362.626-11.282-1.745-11.375-6.017-.05-2.29 6.104-4.46 5.13-7.027-.663-1.746-5.5-3.475-7.66-2.98-1.23.282-4.776 2.343-7.688 1.562-5.44-1.46-7.1-9.314-3.875-12.374 1.64-1.556 8.02.353 8.978-.204 1.086-.63 1.782-1.128 1.2-2.356-.632-1.332-8.53-.976-9.526-2.71-3.392-5.906 1.435-14.327 7.6-11.643 2.075.9 4.06 2.415 5.447 3.424 1.232.895 2.38-.23 2.504-.905.283-1.538-5.413-5.135-4.65-7.468 1.466-4.486 11.007-5.657 13.327-1.91 1.8 2.908 5.464 9.802 6.153 10.738.345.467.88 1.516 5.148 2.658 10.65 2.56 14.207-2.073 18.076-11.076 3.467 2.927 8.937 11.576 6.14 16.3 3.958-4.185 10.618-8.952 16.343-9.552-2.306 6.35.664 11.694 1.58 13.868 3.658-3.79 13.535-7.83 20.606-6.32-6.082 3.807-9.553 10.683-2.743 13.892s8.546 5.06 10.1 11.087 9.395 4.14 12.367-.116 4.162-5.832 7.61-9.71c3.7-4.174 8.7-8.28 11.962-10.804 3.687-2.852 7.12-5.976 10.218-10.485 3.97-5.777 5.838-12.314 5.63-20.262-.906-7.66-6.703-12.135-6.677-19.684-.24-2.906-3.392-7.552 1.398-14.153s8.148-21.26 4.06-27.276c12.837 2.677 16.486 14.642 12.892 24.032 5.597-3.417 9.134-4.007 13.707-6.98l11.555-7.582c4.042-2.87 3.474-2.347 9.547-5.724.51-.704 2.314-5.77 2.52-7.116.06-.4.763-3.467.22-7.212-.48-3.314-1.735-7.136-3.412-8.574-1.725-1.48-2.995 3.114-5.136 2.39-2.83-.955-8.07-6.246-6.838-8.928 1.198-2.61 7.822-.513 5.54-2.288l-2.918-2.27c-1.794-1.395-2.855 1.156-6.912-.138-4.984-1.59-5.363-8.108-2.036-11.083 2.19-1.958 5.893.077 5.893.077 4.205 1.692 5.948.36.67-1.93 0 0-5.077-2.32-3.753-6.426.904-2.8 5.357-5.208 7.464-4.502 2.797.936 5.728 3.26 6.407 5.043 1.274 3.342 3.016 1.727 2.164-.908-.483-1.497-1.227-4.648.984-5.838 2.695-1.452 8.31.5 9.84 2.527 2.34 3.103 1.27 7.31.404 8.424 4.355 2.132 6.337 5.36 7.276 8.198z" class="D"/><g class="E"><path d="M207.385 164.894s37.495 11.984 61.33 37.237"/></g></g><use xlink:href="#F" class="E"/><use xlink:href="#F" class="B C D"/><path d="M312.047 269.922c-5 1.254-9.82 2.455-13.788 4.985-3.696 2.357-9.27 3.248-13.78 2.335-7.26-1.468-11.95-2.723-19.327-.79-6.21 1.63-8.064 5.702-6.886 12.6 1.295-4.012 3.486-5.95 5.58-6.553 2.695-.777 7.505-.784 11.266.55 19.47 6.91 32.208 1.09 36.935-13.12" class="F"/><path d="M312.047 269.922c-5 1.254-9.82 2.455-13.788 4.985-3.696 2.357-9.27 3.248-13.78 2.335-7.26-1.468-11.95-2.723-19.327-.79-6.21 1.63-8.064 5.702-6.886 12.6 1.295-4.012 3.486-5.95 5.58-6.553 2.695-.777 7.505-.784 11.266.55 19.47 6.91 32.208 1.09 36.935-13.12z" class="B C D"/><path d="M272.696 275.26c-.486-2.093.1-4.757 1.072-6.39l4.6 1.06c-2.35 1.288-4.44 3.196-5.682 5.33m-5.815 22.26c-.8-1.928-.666-7.925 3.164-9.83.607 3.404 2.262 7.348 3.492 9.36z" fill="#fff"/><path d="M272.696 275.26c-.486-2.093.1-4.757 1.072-6.39l4.6 1.06c-2.35 1.288-4.44 3.196-5.682 5.33zm-5.815 22.26c-.8-1.928-.666-7.925 3.164-9.83.607 3.404 2.262 7.348 3.492 9.36z" class="B C D"/><path d="M334 188.954c-1.936 2.896-1.638 7.267-.5 10.87 1.538 4.914 5.118 8.924 6.276 14.377 1.348 6.38-1.87 7.92-1.367 11.066 2.662-4.738 10.336-5.1 12.645.856-3.415.483-6.5 2.75-7.6 5.946-1.982 5.757 2.907 7.747 3.697 13.323.933 6.578-2.966 9.444-3.215 12.228 3.27-.998 7.244.837 7.718 4.276-1.737-.644-3.518-.196-4.614 1.716-1.314 2.294-.26 5.314-.703 7.807-.82 4.63-4.36 5.197-4.813 8.08 3.45-1.745 8.045.765 8.128 5.19-1.28-.83-2.936-.94-4.314-.083-2.477 1.542-1.156 4.502-2.08 7.213-.67 1.964-4.626 4.23-4.847 6.374 2.982-.812 5.824.938 5.877 4.602-1.555-.692-5.072-.2-6.235 1.186-5.443 6.438-9.274 11.765-15.7 16.294-5.202 3.672-18.65 6.174-29.072 6.8-7.68.46-14.205-2.858-18.917-5.272-4.107-2.105-1.544-4.235-.476-6.245-3.51.432-6.5 1.035-9.83-.256-1.916-.746-4.414-2.37-4.212-3.448.117-.622 1.48-2.646 2.646-1.906-.076-2.415-.556-3.786-.485-6.292.095-3.295 1.98-6.312 4.664-6.996 7.115-1.812 13.643-1.44 20.198 1.062 8.873 3.385 11.668-1.636 12.376-7.052.713-5.46-1.083-12.225-5.997-16.457-2.55-2.198-7.23-4.365-11.783-4.162-2.554.114-5.02 1.384-7.26.403-1.142-.5-1.438-4.257-1.782-6.313-.27-1.605.966-2.486 2.67-2.9 3.953-.96 2.928-5.086 5.287-5.743.158 1.08 1.205 5.413 2.176 5.44 3.902.113 12.87 1.223 12.593-.252-.698-3.71-4.94-5.526-14.58-7.27-7.48-1.353-21.947 3-19.843 20.126-9.78-5.335-12.882-21.394-4.93-26.336-2.86.4-6.026.174-9.5-.394-5.15-.843-10.635 3.333-13.955 7.41-1.53-12.192.662-19.092 6.822-23.093 7.32-4.754 12.408-3.915 17.374-4.8-4.176-2.123-7.18-6.02-11.004-9.52-4.295-3.934-10.51-7.08-17.337-6.17 2.855-5.884 8.36-9.497 15.065-10.646 9.047-1.55 16.58.904 22.862 5.412-1.075-5.795-7.064-7.825-8.247-14.83-1.058-6.26 1.753-11.898 8.043-13.403-1.698 10.042 8.387 12.804 14.344 14.88 5.638 1.963 10.55 4.74 14.63 9.39.58-5.933-7.344-10.03-3.765-18.758 2.406-5.87 8.403-8.486 14.952-8.54-4.173 2.858-5.117 8.69-2.175 13.86 4.226 7.42 9.434 7.77 14.952 16.39 1.464 2.287 2.504 6.09 3.34 9.728 2.244-4.153.87-7.897.036-11.194-1.567-6.195 3.33-14.526 11.753-13.967" class="E"/><g class="B C"><path d="M334 188.954c-1.936 2.896-1.638 7.267-.5 10.87 1.538 4.914 5.118 8.924 6.276 14.377 1.348 6.38-1.87 7.92-1.367 11.066 2.662-4.738 10.336-5.1 12.645.856-3.415.483-6.5 2.75-7.6 5.946-1.982 5.757 2.907 7.747 3.697 13.323.933 6.578-2.966 9.444-3.215 12.228 3.27-.998 7.244.837 7.718 4.276-1.737-.644-3.518-.196-4.614 1.716-1.314 2.294-.26 5.314-.703 7.807-.82 4.63-4.36 5.197-4.813 8.08 3.45-1.745 8.045.765 8.128 5.19-1.28-.83-2.936-.94-4.314-.083-2.477 1.542-1.156 4.502-2.08 7.213-.67 1.964-4.626 4.23-4.847 6.374 2.982-.812 5.824.938 5.877 4.602-1.555-.692-5.072-.2-6.235 1.186-5.443 6.438-9.274 11.765-15.7 16.294-5.202 3.672-18.65 6.174-29.072 6.8-7.68.46-14.205-2.858-18.917-5.272-4.107-2.105-1.544-4.235-.476-6.245-3.51.432-6.5 1.035-9.83-.256-1.916-.746-4.414-2.37-4.212-3.448.117-.622 1.48-2.646 2.646-1.906-.076-2.415-.556-3.786-.485-6.292.095-3.295 1.98-6.312 4.664-6.996 7.115-1.812 13.643-1.44 20.198 1.062 8.873 3.385 11.668-1.636 12.376-7.052.713-5.46-1.083-12.225-5.997-16.457-2.55-2.198-7.23-4.365-11.783-4.162-2.554.114-5.02 1.384-7.26.403-1.142-.5-1.438-4.257-1.782-6.313-.27-1.605.966-2.486 2.67-2.9 3.953-.96 2.928-5.086 5.287-5.743.158 1.08 1.205 5.413 2.176 5.44 3.902.113 12.87 1.223 12.593-.252-.698-3.71-4.94-5.526-14.58-7.27-7.48-1.353-21.947 3-19.843 20.126-9.78-5.335-12.882-21.394-4.93-26.336-2.86.4-6.026.174-9.5-.394-5.15-.843-10.635 3.333-13.955 7.41-1.53-12.192.662-19.092 6.822-23.093 7.32-4.754 12.408-3.915 17.374-4.8-4.176-2.123-7.18-6.02-11.004-9.52-4.295-3.934-10.51-7.08-17.337-6.17 2.855-5.884 8.36-9.497 15.065-10.646 9.047-1.55 16.58.904 22.862 5.412-1.075-5.795-7.064-7.825-8.247-14.83-1.058-6.26 1.753-11.898 8.043-13.403-1.698 10.042 8.387 12.804 14.344 14.88 5.638 1.963 10.55 4.74 14.63 9.39.58-5.933-7.344-10.03-3.765-18.758 2.406-5.87 8.403-8.486 14.952-8.54-4.173 2.858-5.117 8.69-2.175 13.86 4.226 7.42 9.434 7.77 14.952 16.39 1.464 2.287 2.504 6.09 3.34 9.728 2.244-4.153.87-7.897.036-11.194-1.567-6.195 3.33-14.526 11.753-13.967z" class="D"/><path d="M311.815 320.685c-.942 9.842 8.157 10.573 15.077 13.282-1.135-6.272-.857-14.498-5.16-16.4" class="E"/></g><path d="M277.657 312.565c2.825-1.875 4.537-2.602 7.198-1.857 4.325 1.07 5.72 3.51 7.71 3.28-.11 1.727-.4 3.385-3.172 4.084-2.725-.47-4.286-1.13-5.56-1.89-.358-.214.577-2.43 1.37-4.29-.716.037-2.805 1.065-2.988 3.212-1.155-.81-2.4-1.682-4.557-2.537" fill="#fff"/><g class="B C D"><path d="M277.657 312.565c2.825-1.875 4.537-2.602 7.198-1.857 4.325 1.07 5.72 3.51 7.71 3.28-.11 1.727-.4 3.385-3.172 4.084-2.725-.47-4.286-1.13-5.56-1.89-.358-.214.577-2.43 1.37-4.29-.716.037-2.805 1.065-2.988 3.212-1.155-.81-2.4-1.682-4.557-2.537z" class="G"/><path d="M273.53 315.458c2.897-4.134 5.364-1.396 7.926-.164 6.692 6.86 10.826 1.474 15.498-1.34m-2.244-52.957c10.583-.67 15.413 12.03 15.413 12.03s4.8-6.254 2.02-11.353c5.94 4.173 9.203 12.5 3.63 23.743 3.455-.527 6.878-4.144 7.445-6.218 2.247 8.1.28 19.175-7.414 25.2m-52.838 6.27s1.068-2.522 2.814-1.067m60.34 17.867s-8.7 1.694-10.025-7.717"/></g><path d="M381.34 94.04s6.08.522 9.423-5.2c3.488-5.967-2.412-10.363-2.412-10.363" class="B C E"/></g><g class="E"><path d="M140.798 605.392c-.162 6.83-1.898 13.178-5.13 19.194-8.466 17.328-34.322 16.914-28.622-4.28 2.1-7.8 9.235-12.4 17.71-13.186-.612 2.057-3.977 9.332-1.26 10.755 4.344-.16 9.737-7.464 11.034-10.947.188-.5.135-1.078.344-1.57"/><use xlink:href="#G"/><use xlink:href="#H"/><use xlink:href="#I"/><use xlink:href="#J"/><path d="M243.343 605.392c-.162 6.83-1.898 13.178-5.13 19.194-8.466 17.328-34.322 16.914-28.622-4.28 2.1-7.8 9.235-12.4 17.7-13.186-.612 2.057-3.977 9.332-1.26 10.755 4.344-.16 9.737-7.464 11.034-10.947.187-.5.135-1.078.344-1.57m16.69-.418c.162 6.83 1.898 13.178 5.13 19.194 8.466 17.328 34.322 16.914 28.622-4.28-2.1-7.8-9.235-12.4-17.7-13.186.612 2.058 3.977 9.332 1.26 10.755-4.344-.16-9.737-7.464-11.034-10.947-.187-.5-.135-1.078-.344-1.57m-10.806 66.206c8.918-9.354 14.907-20.17 12.325-32.855-1.424-7-4.876-13.48-7.3-20.223-1.523-4.23-1.912-8.65-1.732-13.094h-7.566c.362 4.48-.43 8.82-1.732 13.094-2.32 6.785-5.85 13.22-7.3 20.223-2.734 13.094 3.683 22.97 12.286 32.814l.526.652z"/><use xlink:href="#K"/><path d="M263.725 605.16h-30.053c-1.647 0-2.982-1.27-2.982-2.84h0c0-1.568 1.335-2.84 2.982-2.84h30.053c1.647 0 2.982 1.27 2.982 2.84h0c0 1.568-1.335 2.84-2.982 2.84"/><use xlink:href="#L"/><path d="M100.294 523.504c.16 6.83 1.898 13.178 5.13 19.194 8.466 17.328 34.322 16.914 28.622-4.278-2.1-7.8-9.235-12.4-17.71-13.187.612 2.058 3.977 9.332 1.26 10.755-4.344-.16-9.738-7.463-11.034-10.947-.188-.5-.136-1.078-.345-1.57"/><use xlink:href="#M"/><path d="M102.466 518.32c1.582-4.313 8.032-12.214 11.458-14.466.888-.584-4.248.337-6.547.827-3.016.643-6.936 3.77-6.844 2.667.008-5.053-1.452-13.486-5.258-17.36l-.36-.374-.372.374c-3.805 4.318-5.24 11.91-5.258 17.36.092 1.103-3.828-2.024-6.844-2.667-2.3-.5-7.435-1.41-6.547-.827 3.426 2.252 9.872 10.153 11.454 14.466z"/><path d="M109.907 523.724H79.853c-1.646 0-2.982-1.27-2.982-2.84s1.336-2.84 2.982-2.84h30.054c1.647 0 2.982 1.27 2.982 2.84s-1.335 2.84-2.982 2.84m82.163.232c-.16 6.83-1.897 13.178-5.13 19.194-8.466 17.328-34.322 16.914-28.622-4.278 2.1-7.8 9.235-12.4 17.7-13.187-.6 2.058-3.977 9.332-1.26 10.755 4.344-.16 9.738-7.464 11.034-10.947.188-.5.136-1.078.345-1.57m16.693-.42c.16 6.83 1.897 13.178 5.13 19.194 8.466 17.328 34.322 16.914 28.622-4.278-2.1-7.8-9.235-12.4-17.7-13.187.6 2.058 3.977 9.332 1.26 10.755-4.344-.16-9.738-7.463-11.034-10.947-.188-.5-.136-1.078-.345-1.57m-10.808 66.206c8.918-9.354 14.906-20.17 12.325-32.855-1.424-7-4.877-13.48-7.3-20.223-1.523-4.23-1.912-8.65-1.732-13.094h-7.566c.362 4.478-.432 8.818-1.732 13.094-2.32 6.784-5.85 13.22-7.3 20.223-2.734 13.094 3.683 22.97 12.286 32.813l.526.653z"/><path d="M205.012 518.32c1.582-4.313 8.032-12.214 11.458-14.466.888-.584-4.248.337-6.547.827-3.016.643-6.936 3.77-6.845 2.667.01-5.053-1.45-13.486-5.257-17.36l-.36-.374-.372.374c-3.805 4.318-5.24 11.91-5.258 17.36.092 1.103-3.828-2.024-6.844-2.667-2.3-.5-7.436-1.41-6.547-.827 3.426 2.252 9.872 10.153 11.454 14.466z"/><path d="M212.453 523.724H182.4c-1.647 0-2.982-1.27-2.982-2.84s1.335-2.84 2.982-2.84h30.054c1.647 0 2.982 1.27 2.982 2.84s-1.335 2.84-2.982 2.84m82.162.232c-.162 6.83-1.898 13.178-5.132 19.194-8.465 17.328-34.32 16.914-28.62-4.278 2.1-7.8 9.234-12.4 17.7-13.187-.612 2.058-3.977 9.332-1.26 10.755 4.344-.16 9.738-7.464 11.035-10.947.187-.5.135-1.078.344-1.57m16.69-.42c.162 6.83 1.898 13.178 5.132 19.194 8.465 17.328 34.32 16.914 28.62-4.278-2.1-7.8-9.234-12.4-17.7-13.187.612 2.058 3.977 9.332 1.26 10.755-4.344-.16-9.738-7.463-11.035-10.947-.187-.5-.135-1.078-.344-1.57M300.5 589.677c8.918-9.354 14.907-20.17 12.325-32.855-1.424-7-4.877-13.48-7.3-20.223-1.523-4.23-1.912-8.65-1.732-13.094h-7.566c.362 4.478-.432 8.818-1.732 13.094-2.32 6.784-5.85 13.22-7.3 20.223-2.734 13.094 3.683 22.97 12.286 32.813l.526.653z"/><path d="M307.557 518.32c1.582-4.313 8.032-12.214 11.458-14.466.888-.584-4.248.337-6.547.827-3.016.643-6.936 3.77-6.845 2.667.01-5.053-1.45-13.486-5.257-17.36l-.36-.374-.372.374c-3.805 4.318-5.24 11.91-5.258 17.36.092 1.103-3.828-2.024-6.844-2.667-2.3-.5-7.435-1.41-6.547-.827 3.426 2.252 9.872 10.153 11.454 14.466z"/><path d="M314.998 523.724h-30.054c-1.646 0-2.982-1.27-2.982-2.84s1.336-2.84 2.982-2.84h30.054c1.647 0 2.982 1.27 2.982 2.84s-1.335 2.84-2.982 2.84m-174.2-81.204c-.162 6.83-1.898 13.178-5.13 19.194-8.466 17.328-34.322 16.915-28.622-4.278 2.1-7.8 9.235-12.4 17.7-13.187-.612 2.058-3.977 9.333-1.26 10.755 4.344-.16 9.737-7.463 11.034-10.947.188-.5.135-1.078.344-1.57"/><use xlink:href="#N"/><use xlink:href="#O"/><path d="M153.74 436.884c1.582-4.314 8.032-12.214 11.458-14.466.888-.584-4.248.337-6.547.827-3.016.643-6.936 3.77-6.844 2.666.01-5.053-1.452-13.485-5.258-17.36l-.36-.374-.372.374c-3.805 4.318-5.24 11.91-5.258 17.36.092 1.104-3.828-2.023-6.844-2.666-2.3-.5-7.435-1.41-6.547-.827 3.426 2.252 9.872 10.152 11.454 14.466z"/><use xlink:href="#P"/><path d="M243.343 442.52c-.162 6.83-1.898 13.178-5.13 19.194-8.466 17.328-34.322 16.915-28.622-4.278 2.1-7.8 9.235-12.4 17.7-13.187-.612 2.058-3.977 9.333-1.26 10.755 4.344-.16 9.737-7.463 11.034-10.947.187-.5.135-1.078.344-1.57m16.69-.42c.162 6.83 1.898 13.178 5.13 19.194 8.466 17.328 34.322 16.914 28.622-4.28-2.1-7.8-9.235-12.4-17.7-13.186.612 2.057 3.977 9.332 1.26 10.755-4.344-.16-9.737-7.464-11.034-10.947-.187-.5-.135-1.078-.344-1.57m-10.806 66.206c8.918-9.354 14.907-20.17 12.325-32.855-1.424-7-4.876-13.48-7.3-20.223-1.523-4.23-1.912-8.648-1.732-13.094h-7.566c.362 4.478-.43 8.82-1.732 13.094-2.32 6.785-5.85 13.22-7.3 20.223-2.734 13.094 3.683 22.97 12.286 32.814l.526.652zm7.056-71.356c1.582-4.314 8.032-12.214 11.458-14.466.888-.584-4.248.337-6.547.827-3.016.643-6.936 3.77-6.844 2.666.008-5.053-1.452-13.485-5.258-17.36l-.36-.374-.372.374c-3.805 4.318-5.24 11.9-5.258 17.36.092 1.104-3.828-2.023-6.844-2.666-2.3-.5-7.435-1.4-6.547-.827 3.426 2.252 9.872 10.152 11.454 14.466z"/><path d="M263.725 442.288h-30.053c-1.647 0-2.982-1.27-2.982-2.84s1.335-2.84 2.982-2.84h30.053c1.647 0 2.982 1.27 2.982 2.84s-1.335 2.84-2.982 2.84M345.9 605.392c-.162 6.83-1.898 13.178-5.13 19.194-8.466 17.328-34.322 16.914-28.622-4.28 2.1-7.8 9.234-12.4 17.7-13.186-.612 2.057-3.977 9.332-1.26 10.755 4.344-.16 9.738-7.464 11.035-10.947.187-.5.135-1.078.344-1.57m16.7-.418c.16 6.83 1.898 13.178 5.13 19.194 8.466 17.328 34.322 16.914 28.622-4.28-2.1-7.8-9.235-12.4-17.7-13.186.612 2.058 3.977 9.332 1.26 10.755-4.344-.16-9.738-7.464-11.034-10.947-.188-.5-.135-1.078-.345-1.57m-10.807 66.206c8.918-9.354 14.907-20.17 12.325-32.855-1.424-7-4.877-13.48-7.3-20.223-1.523-4.23-1.912-8.65-1.732-13.094H347.5c.362 4.48-.43 8.82-1.732 13.094-2.32 6.785-5.85 13.22-7.3 20.223-2.734 13.094 3.683 22.97 12.286 32.814l.526.652z"/><path d="M358.83 599.755c1.582-4.314 8.032-12.214 11.458-14.466.888-.584-4.248.337-6.547.827-3.016.643-6.936 3.77-6.844 2.666.008-5.053-1.452-13.485-5.258-17.36l-.36-.374-.372.374c-3.805 4.318-5.24 11.91-5.258 17.36.092 1.104-3.828-2.023-6.844-2.666-2.3-.5-7.435-1.41-6.547-.827 3.426 2.252 9.872 10.152 11.454 14.466z"/><path d="M366.27 605.16h-30.054c-1.646 0-2.98-1.27-2.98-2.84h0c0-1.568 1.335-2.84 2.98-2.84h30.054c1.647 0 2.982 1.27 2.982 2.84h0c0 1.568-1.335 2.84-2.982 2.84m82.164.232c-.16 6.83-1.897 13.178-5.13 19.194-8.466 17.328-34.322 16.914-28.622-4.28 2.1-7.8 9.235-12.4 17.7-13.186-.6 2.057-3.977 9.332-1.26 10.755 4.344-.16 9.738-7.464 11.034-10.947.188-.5.135-1.078.345-1.57m16.69-.418c.16 6.83 1.897 13.178 5.13 19.194 8.466 17.328 34.322 16.914 28.622-4.28-2.1-7.8-9.234-12.4-17.7-13.186.6 2.058 3.977 9.332 1.26 10.755-4.344-.16-9.74-7.464-11.035-10.947-.188-.5-.135-1.078-.344-1.57m-10.807 66.206c8.92-9.354 14.906-20.17 12.325-32.855-1.424-7-4.877-13.48-7.3-20.223-1.523-4.23-1.912-8.65-1.732-13.094h-7.566c.362 4.48-.432 8.82-1.732 13.094-2.32 6.785-5.85 13.22-7.3 20.223-2.734 13.094 3.682 22.97 12.286 32.814l.525.652z"/><use xlink:href="#Q"/><path d="M468.816 605.16h-30.054c-1.647 0-2.982-1.27-2.982-2.84h0c0-1.568 1.335-2.84 2.982-2.84h30.054c1.646 0 2.98 1.27 2.98 2.84h0c0 1.568-1.335 2.84-2.98 2.84m-71.656-81.204c-.16 6.83-1.898 13.178-5.13 19.194-8.466 17.328-34.322 16.914-28.622-4.278 2.1-7.8 9.235-12.4 17.7-13.187-.612 2.058-3.977 9.332-1.26 10.755 4.344-.16 9.738-7.464 11.034-10.947.188-.5.135-1.078.345-1.57m16.693-.42c.16 6.83 1.897 13.178 5.13 19.194 8.466 17.328 34.322 16.914 28.622-4.278-2.1-7.8-9.235-12.4-17.7-13.187.6 2.058 3.977 9.332 1.26 10.755-4.344-.16-9.738-7.463-11.034-10.947-.188-.5-.135-1.078-.344-1.57m-10.808 66.206c8.918-9.354 14.906-20.17 12.325-32.855-1.425-7-4.877-13.48-7.3-20.223-1.523-4.23-1.912-8.65-1.732-13.094h-7.566c.36 4.478-.432 8.818-1.732 13.094-2.32 6.784-5.85 13.22-7.312 20.223-2.734 13.094 3.683 22.97 12.287 32.813l.525.653zm7.057-71.357c1.582-4.313 8.03-12.214 11.457-14.466.9-.584-4.247.337-6.546.827-3.016.643-6.936 3.77-6.845 2.667.01-5.053-1.45-13.486-5.257-17.36l-.36-.374-.373.374c-3.804 4.318-5.238 11.9-5.258 17.36.092 1.103-3.828-2.024-6.843-2.667-2.3-.5-7.436-1.4-6.547-.827 3.426 2.252 9.872 10.153 11.454 14.466z"/><path d="M417.543 523.724H387.5c-1.647 0-2.982-1.27-2.982-2.84s1.335-2.84 2.982-2.84h30.053c1.647 0 2.982 1.27 2.982 2.84s-1.335 2.84-2.982 2.84M345.9 442.52c-.162 6.83-1.898 13.178-5.13 19.194-8.466 17.328-34.322 16.915-28.622-4.278 2.1-7.8 9.234-12.4 17.7-13.187-.612 2.058-3.977 9.333-1.26 10.755 4.344-.16 9.738-7.463 11.035-10.947.187-.5.135-1.078.344-1.57m16.7-.42c.16 6.83 1.898 13.178 5.13 19.194 8.466 17.328 34.322 16.914 28.622-4.28-2.1-7.8-9.235-12.4-17.7-13.186.612 2.057 3.977 9.332 1.26 10.755-4.344-.16-9.738-7.464-11.034-10.947-.188-.5-.135-1.078-.345-1.57m-10.807 66.206c8.918-9.354 14.907-20.17 12.325-32.855-1.424-7-4.877-13.48-7.3-20.223-1.523-4.23-1.912-8.648-1.732-13.094H347.5c.362 4.478-.43 8.82-1.732 13.094-2.32 6.785-5.85 13.22-7.3 20.223-2.734 13.094 3.683 22.97 12.286 32.814l.526.652zm7.057-71.356c1.582-4.314 8.032-12.214 11.458-14.466.888-.584-4.248.337-6.547.827-3.016.643-6.936 3.77-6.844 2.666.008-5.053-1.452-13.485-5.258-17.36l-.36-.374-.372.374c-3.805 4.318-5.24 11.9-5.258 17.36.092 1.104-3.828-2.023-6.844-2.666-2.3-.5-7.435-1.4-6.547-.827 3.426 2.252 9.872 10.152 11.454 14.466z"/><path d="M366.27 442.288h-30.054c-1.646 0-2.98-1.27-2.98-2.84s1.335-2.84 2.98-2.84h30.054c1.647 0 2.982 1.27 2.982 2.84s-1.335 2.84-2.982 2.84m82.164.232c-.16 6.83-1.897 13.178-5.13 19.194-8.466 17.328-34.322 16.915-28.622-4.278 2.1-7.8 9.235-12.4 17.7-13.187-.6 2.058-3.977 9.333-1.26 10.755 4.344-.16 9.738-7.463 11.034-10.947.188-.5.135-1.078.345-1.57m16.69-.42c.16 6.83 1.897 13.178 5.13 19.194 8.466 17.328 34.322 16.914 28.622-4.28-2.1-7.8-9.234-12.4-17.7-13.186.6 2.057 3.977 9.332 1.26 10.755-4.344-.16-9.74-7.464-11.035-10.947-.188-.5-.135-1.078-.344-1.57m-10.807 66.206c8.92-9.354 14.906-20.17 12.325-32.855-1.424-7-4.877-13.48-7.3-20.223-1.523-4.23-1.912-8.648-1.732-13.094h-7.566c.362 4.478-.432 8.82-1.732 13.094-2.32 6.785-5.85 13.22-7.3 20.223-2.734 13.094 3.682 22.97 12.286 32.814l.525.652z"/><path d="M461.375 436.884c1.582-4.314 8.032-12.214 11.458-14.466.89-.584-4.248.337-6.547.827-3.016.643-6.936 3.77-6.845 2.666.01-5.053-1.45-13.485-5.257-17.36l-.36-.374-.372.374c-3.805 4.318-5.24 11.91-5.258 17.36.092 1.104-3.828-2.023-6.844-2.666-2.3-.5-7.436-1.41-6.547-.827 3.426 2.252 9.872 10.152 11.454 14.466z"/><path d="M468.816 442.288h-30.054c-1.647 0-2.982-1.27-2.982-2.84s1.335-2.84 2.982-2.84h30.054c1.646 0 2.98 1.27 2.98 2.84s-1.335 2.84-2.98 2.84M38.252 605.392c-.16 6.83-1.898 13.178-5.13 19.194C24.655 641.914-1.2 641.5 4.5 620.307c2.1-7.8 9.235-12.4 17.7-13.186-.612 2.057-3.977 9.332-1.26 10.755 4.344-.16 9.738-7.464 11.034-10.947.188-.5.135-1.078.345-1.57m16.69-.42c.162 6.83 1.898 13.178 5.13 19.194 8.466 17.328 34.322 16.914 28.622-4.28-2.1-7.8-9.234-12.4-17.7-13.186.612 2.058 3.977 9.332 1.26 10.755-4.344-.16-9.738-7.464-11.035-10.947-.187-.5-.135-1.078-.344-1.57m-10.806 66.206c8.92-9.354 14.907-20.17 12.325-32.855-1.424-7-4.876-13.48-7.3-20.223-1.523-4.23-1.912-8.65-1.732-13.094h-7.566c.362 4.48-.43 8.82-1.732 13.094-2.32 6.785-5.85 13.22-7.3 20.223-2.734 13.094 3.683 22.97 12.286 32.814l.526.652z"/><use xlink:href="#R"/><path d="M58.635 605.16H28.58c-1.647 0-2.982-1.27-2.982-2.84h0c0-1.568 1.335-2.84 2.982-2.84h30.054c1.646 0 2.982 1.27 2.982 2.84h0c0 1.568-1.336 2.84-2.982 2.84M38.252 442.52c-.16 6.83-1.898 13.178-5.13 19.194C24.655 479.042-1.2 478.63 4.5 457.436c2.1-7.8 9.235-12.4 17.7-13.187-.612 2.058-3.977 9.333-1.26 10.755 4.344-.16 9.738-7.463 11.034-10.947.188-.5.135-1.078.345-1.57m16.69-.42c.162 6.83 1.898 13.178 5.13 19.194 8.466 17.328 34.322 16.914 28.622-4.28-2.1-7.8-9.234-12.4-17.7-13.186.612 2.057 3.977 9.332 1.26 10.755-4.344-.16-9.738-7.464-11.035-10.947-.187-.5-.135-1.078-.344-1.57M44.137 508.24c8.92-9.354 14.907-20.17 12.325-32.855-1.424-7-4.876-13.48-7.3-20.223-1.523-4.23-1.912-8.648-1.732-13.094h-7.566c.362 4.478-.43 8.82-1.732 13.094-2.32 6.785-5.85 13.22-7.3 20.223-2.734 13.094 3.683 22.97 12.286 32.814l.526.652zm7.056-71.356c1.582-4.314 8.032-12.214 11.458-14.466.9-.584-4.248.337-6.547.827-3.016.643-6.936 3.77-6.844 2.666.01-5.053-1.452-13.485-5.258-17.36l-.36-.374-.372.374c-3.805 4.318-5.24 11.9-5.258 17.36.092 1.104-3.828-2.023-6.844-2.666-2.3-.5-7.435-1.4-6.547-.827 3.426 2.252 9.872 10.152 11.454 14.466z"/><path d="M58.635 442.288H28.58c-1.647 0-2.982-1.27-2.982-2.84s1.335-2.84 2.982-2.84h30.054c1.646 0 2.982 1.27 2.982 2.84s-1.336 2.84-2.982 2.84M550.98 605.392c-.16 6.83-1.898 13.178-5.132 19.194-8.465 17.328-34.32 16.914-28.62-4.28 2.1-7.8 9.234-12.4 17.7-13.186-.612 2.057-3.978 9.332-1.26 10.755 4.344-.16 9.74-7.464 11.035-10.947.188-.5.135-1.078.344-1.57m16.7-.418c.162 6.83 1.898 13.178 5.132 19.194 8.465 17.328 34.32 16.914 28.622-4.28-2.1-7.8-9.235-12.4-17.712-13.186.612 2.058 3.978 9.332 1.26 10.755-4.344-.16-9.738-7.464-11.035-10.947-.187-.5-.135-1.078-.344-1.57m-10.807 66.206c8.92-9.354 14.907-20.17 12.326-32.855-1.425-7-4.877-13.48-7.312-20.223-1.522-4.23-1.9-8.65-1.73-13.094h-7.567c.362 4.48-.43 8.82-1.732 13.094-2.32 6.785-5.848 13.22-7.3 20.223-2.734 13.094 3.683 22.97 12.286 32.814l.526.652z"/><use xlink:href="#S"/><path d="M571.36 605.16h-30.054c-1.646 0-2.98-1.27-2.98-2.84h0c0-1.568 1.335-2.84 2.98-2.84h30.054c1.646 0 2.982 1.27 2.982 2.84h0c0 1.568-1.336 2.84-2.982 2.84m-71.653-81.204c-.162 6.83-1.898 13.178-5.132 19.194-8.466 17.328-34.32 16.914-28.622-4.278 2.1-7.8 9.235-12.4 17.712-13.187-.612 2.058-3.978 9.332-1.26 10.755 4.344-.16 9.738-7.464 11.035-10.947.187-.5.135-1.078.344-1.57m16.69-.42c.16 6.83 1.898 13.178 5.132 19.194 8.465 17.328 34.32 16.914 28.622-4.278-2.1-7.8-9.235-12.4-17.712-13.187.612 2.058 3.978 9.332 1.26 10.755-4.344-.16-9.74-7.463-11.035-10.947-.188-.5-.135-1.078-.344-1.57M505.6 589.677c8.92-9.354 14.907-20.17 12.325-32.855-1.424-7-4.877-13.48-7.3-20.223-1.523-4.23-1.9-8.65-1.732-13.094h-7.566c.362 4.478-.432 8.818-1.732 13.094-2.32 6.784-5.848 13.22-7.3 20.223-2.734 13.094 3.683 22.97 12.286 32.813l.526.653zm7.058-71.357c1.582-4.313 8.032-12.214 11.458-14.466.9-.584-4.247.337-6.547.827-3.015.643-6.935 3.77-6.844 2.667.008-5.053-1.452-13.486-5.258-17.36l-.36-.374-.372.374c-3.805 4.318-5.24 11.9-5.258 17.36.092 1.103-3.828-2.024-6.844-2.667-2.3-.5-7.435-1.4-6.547-.827 3.427 2.252 9.873 10.153 11.455 14.466z"/><path d="M520.1 523.724h-30.054c-1.646 0-2.982-1.27-2.982-2.84s1.336-2.84 2.982-2.84H520.1c1.646 0 2.98 1.27 2.98 2.84s-1.335 2.84-2.98 2.84m30.9-81.204c-.16 6.83-1.898 13.178-5.132 19.194-8.465 17.328-34.32 16.915-28.62-4.278 2.1-7.8 9.234-12.4 17.7-13.187-.612 2.058-3.978 9.333-1.26 10.755 4.344-.16 9.74-7.463 11.035-10.947.188-.5.135-1.078.344-1.57m16.7-.42c.162 6.83 1.898 13.178 5.132 19.194 8.465 17.328 34.32 16.914 28.622-4.28-2.1-7.8-9.235-12.4-17.712-13.186.612 2.057 3.978 9.332 1.26 10.755-4.344-.16-9.738-7.464-11.035-10.947-.187-.5-.135-1.078-.344-1.57m-10.807 66.206c8.92-9.354 14.907-20.17 12.326-32.855-1.425-7-4.877-13.48-7.312-20.223-1.522-4.23-1.9-8.648-1.73-13.094h-7.567c.362 4.478-.43 8.82-1.732 13.094-2.32 6.785-5.848 13.22-7.3 20.223-2.734 13.094 3.683 22.97 12.286 32.814l.526.652zm7.057-71.356c1.582-4.314 8.032-12.214 11.458-14.466.9-.584-4.247.337-6.547.827-3.015.643-6.935 3.77-6.844 2.666.01-5.053-1.452-13.485-5.257-17.36l-.36-.374-.373.374c-3.805 4.318-5.238 11.9-5.258 17.36.092 1.104-3.828-2.023-6.843-2.666-2.3-.5-7.436-1.4-6.547-.827 3.426 2.252 9.872 10.152 11.454 14.466z"/><path d="M571.36 442.288h-30.054c-1.646 0-2.98-1.27-2.98-2.84s1.335-2.84 2.98-2.84h30.054c1.646 0 2.982 1.27 2.982 2.84s-1.336 2.84-2.982 2.84"/></g></g><path d="M968.97 299.905l181.634-86.894v86.894zm-319.577-76.442V147.02L831.028 60.13h159.79zm0 76.442l501.21-239.776v76.44L809.182 299.905z" class="E"/><path d="M0 360h600v360H0zm63.998 296.002H536V424H63.998zM600 0h600v360H600zm63.998 296.002h472V64h-472z" class="F"/><path d="M482 720v-63.998h54L599.998 720zm-182-63.998h91V720h-91zm-182 0h91V720h-91zM0 720V593.002h63.998v63L.001 720zm536.002-233H600v106.002h-63.998zM0 487V360l63.998 64v63zm482-63v-64h118l-64 64zm-182-64h91v64h-91zm-182 0h91v64h-91z" fill="#fff"/></g></svg>