<svg xmlns="http://www.w3.org/2000/svg" xmlns:xlink="http://www.w3.org/1999/xlink" viewBox="0 0 264.583 158.75" height="600" width="1000" xmlns:v="https://vecta.io/nano"><style><![CDATA[.B{stroke-width:1.261}.C{stroke-linecap:round}.D{stroke:#080808}.E{fill:none}.F{stroke-width:.915}.G{fill:#085d98}.H{stroke-width:1.145}.I{fill:#fcd41c}.J{stroke-width:1.099}.K{stroke-width:1.282}.L{stroke-width:.366}.M{stroke-width:1.328}.N{stroke-width:.732}.O{stroke-width:1.07}.P{stroke-width:1.253}.Q{stroke-width:1.365}.R{stroke-width:1.373}.S{stroke-width:1.152}.T{stroke-width:1.271}.U{stroke-width:.801}.V{stroke-width:1.053}.W{stroke-width:1.161}]]></style><g transform="matrix(.666667 0 0 .666667 635.84003 75.150598)"><path d="M-953.76-112.726h396.875V125.4H-953.76z" fill="#d90d16"/><path d="M-840.175-5.962c-.315 1.488.234 1.517.864 2.58s-.376 4.328-.376 4.328c2.9.274 6.587-4.262 3.056-6.356zm180.33-1.836s-.284.244.9 1.787 1.83 5.07 1.83 5.07c2.32-1.647 3.388-7.247 1.765-7.3zm-18.308-3.834c-.883-.985-5.422 1.42-3.565 6.345 1.925-3.974 4.145-2.82 4.145-2.82zm-70.79 3.67c-1.75.56-.898 4.64 2.003 4.93-1.006-3.137 2.615-5.54.2-5.54zm-8.34-5.144c-1.524-.615-4.275 2.117-1.964 5.802 2.327-3.333 4.303-3.534 4.303-3.534zm-.708-5.5c-.784-1.013-4.524-1.497-4.406 4.2 2.712-2.446 4.916-.777 4.9-.73zm6.46-4.007c.335-1.537-2.552-4.015-5.733-1.098 3.16.728 4 2.365 3.96 2.372z" class="D F G"/><g class="I D"><use xlink:href="#B" class="B"/><use xlink:href="#C" class="J"/></g><g class="F G D"><path d="M-671.1-9.903c-1.7-.227-4.94 5.256-2.25 9.015 1.352-4.357 5.046-6.253 5.046-6.253zm-3.908-8.543c-.608-1.3-4.896-.227-5.745 3.846 2.9-1.68 5.473-.296 5.473-.296zm-158.87-3.38c.473-1.382-3.206-5.206-6.583-3.727 3.136 2.023 3.96 5.5 3.96 5.5zm-13.695 9.692c-1.158-1.405-6.255.902-5.635 7.513 2.965-4 6.455-2.52 6.455-2.52zm.408-8.3c-.47-1.854-5.815-1.6-7.643 3.486 3.794-1.42 6.6 1.073 6.6 1.073z"/><use xlink:href="#D"/><path d="M-858.728-64.487c-.544-1.6-6.455-.567-7.138 4.643 3.905-2.482 6.2-.052 6.2-.052zm17.525-8.935c.64-1.594-1.996-5.563-5.68-3.76 3.064 2.208 2.18 5.993 2.18 5.993zm6.68 5.692c1.05-.615.98-5.3-3.06-5.642.642 2.005.102 5.386.102 5.386z"/></g><path d="M-810.8-48.3s4.186 14.457 15.24 2.355" class="D E L"/><use xlink:href="#E" class="B D I"/><use xlink:href="#F" class="D G M"/><g class="E D"><g class="C"><path d="M-652.433-11.995c-.708-1.906-2.833-2.383-2.833-2.383" class="H"/><path d="M-786.632-43.385c1.606 2.68 2.077 6.115.264 8.32m-6.642-2.52c2.62 2.763 3.545 5.3 2.884 8.85m-2.92-6.423c.924 2 2.014 3.955 1.18 8.06m-7.7-6.403c.676 2.128.93 5.637-1.606 8.64m-1.807-.882c1.74-1.888 2.304-4.943 1.927-7.345m-15.344-6.943c-2.07.674-4.63 3.573-4.493 3.757m6.045-.02c-2.57-1.728-5.46 1.296-5.46 1.296" class="N"/><path d="M-779.502-60.77c-1.694.748-1.444 4.65-1.444 4.65M-815-66.2c1.808 1.24 1.085 4.963 1.085 4.963" class="F"/><path d="M-855.634-68.4c1.974.6 3.213 2.24 3.568 3.804l.602 2.46m11.49-7.67c-2 1.826-1.56 4.958-1.56 4.958" class="B"/></g><use xlink:href="#G" class="B"/><path d="M-789.202-36.17c6.963 11.47-5.055 12.833-7.425 11.16" class="B C"/><path d="M-779.22-51.134c4.264 1.797 4.106 5.825 4.887 8.078-1.307.168-2.37-.3-3.512-.805" class="B"/><g class="C"><path d="M-782.748-37.212c0 3.813-2.7 5.377-3.95 5.854" class="O"/><path d="M-845.752-73.017c.11 1.538-.2 2.06-.74 3.407s.177 3.705.177 3.705" class="B"/><path d="M-665.562-32.628c-3.37.47-4.668 1.435-4.666 1.435m12.113 1.823c-2.48.952-4.593.995-4.593.995m7.733 4.547c-2.126-.237-3.26-.17-3.26-.17m7.795 5.438c-1.1-.77-4.712-.287-4.798-.207m-18.07 11.205c.532-2.86 2.8-4.04 4.757-4.04m-7.57-2.278c1.577-.24 3.85-.095 3.85-.095" class="H"/><path d="M-821.555-51.02c-3.956 2.583-5.29 5.386-4.5 10.855" class="B"/><path d="M-796.045-37.587c2.05 4.708 2.333 12.763-4.7 15.39" class="P"/><path d="M-802.946-33.52c-.355 3.345-2.7 9.556-7.296 10.476" class="B"/><path d="M-697.273-57.772c.886-2.622 3.912-4.94 3.912-4.94m-9.473 4.916c1.772-3.098 4.435-5.135 4.435-5.135m-13.717 5.11c2.694-1.507 3.824-2.514 5.692-5.075m-12.923 4.98c1.612-.708 2.458-1.327 3.54-2.2 1.058-.854 1.674-1.706 2.837-2.93" class="H"/><path d="M-717.733-66.2c-6.17-.564-8.282-2.828-9.258-4.093m20.48-4.807c-4.147 1.68-5.805-.022-6.16-.022M-814.236-24.98c3.38-1.568 4.024-5.255 4.024-5.255" class="B"/><path d="M-815.74-42.262c-3.12-.477-11.014 6.17-8.468 14.435" class="Q"/><path d="M-820.7-45.907c-4.433.84-6.604 7.863-3.895 12" class="R"/><use xlink:href="#H" class="S"/></g></g><g fill="#080808"><use xlink:href="#I"/><path d="M-804.193-65.298c.275-.882.457-2.848-1.408-2.457l-.048.023-.008.004c-.478.326-.908 1.283-1.028 1.835s-.56 2.194.995 2.302h.004.004.038c.757-.18 1.26-.98 1.45-1.708z"/></g><g class="D"><g class="B C E"><path d="M-784.243-57.162h-2.763c-1.956 3.458-7.448 2.274-5.972 2.934"/><path d="M-793.183-54.407c.245 4.562-7.996 8.285-8.2 1.184"/></g><use xlink:href="#J" class="C E T"/><path d="M-789.074-54.948c-1.926 5.184-.462 8.58-.462 8.58" class="B C E"/><path d="M-810.72-53.87c-1.115 1.735-2.09 1.873-2.09 1.873" class="C E F"/><use xlink:href="#K" class="B I"/><path d="M-854.267-50.14c1.88.396 3-.767 2.9-.707m-1.6 4.464c3.326 1.015 5.745-.934 5.745-.934" class="C E F"/><path d="M-848.75-14.3c2.098-.87 4.936-.055 4.936-.055m2.387 6.322c1.063-1.906 2.627-2.66 2.627-2.66" class="B G C"/><g class="E"><path d="M-822.123-4.413c1.408-.538 1.5-3.438 1.438-5.4m5.055 4.71c1.317-1.008.884-4.694.884-4.694" class="H C"/><path d="M-810.46-5.055c1.2-1.262.953-4.978.953-4.978m7.294 4.9c1.3-1.62.75-5.088.75-5.1" class="K C"/><path d="M-746-12.928c-3.642 2.134-3.603 3.898-3.564 4.408m8.968-4.272c-.355 3.098-2.57 5.108-2.57 5.108m7.074-4.9c-.112 2.95-2.227 4.888-2.227 4.888m7.655-4.84c-.01 3.486-2.035 4.922-2.035 4.922m7.874-4.913c-.15 2.574-.828 4.005-1.9 4.957m7.862-5.806c.532 1.67-.262 3.397-.262 3.397m-35.205-11.204c2.98.64 3.886 2.1 3.886 2.1m-6.924 4.086c1.913-3.687 4.824-1.562 5.728-.634" class="J C"/><path d="M-772.607-22.483c-2.534 1-3.732.688-5.08-.206m8.473-2.284c-2.63 1.232-4.153 1.155-5.524.116m10.038-3.163c-1.778 1-2.8 1.357-3.673.532m6.82-2.88c-2.176 1-3.415 1.357-4.495.532" class="U C"/><g class="J"><use xlink:href="#L"/><use xlink:href="#M"/></g><g class="C"><path d="M-850.88-44.156c2.936.452 4.754-.904 4.912-1.01" class="F"/><path d="M-838.167-32.3c.026.047 2.857.308 4.645-3.022m-9.978-1.115c1.928.388 3.805.53 5.708-2.155m-10.276-1.508c.332-.057 3.412 2.16 6.7-1.73" class="V"/></g><g class="W"><use xlink:href="#N"/><use xlink:href="#O"/></g><g class="C"><path d="M-804.028-59.687s-.833-2.96 1.48-4.996 2.683-5.366 2.683-5.366m1.85 10.64s1.018-1.203.278-3.608 1.758-4.533 1.758-4.533" class="K"/><use xlink:href="#P" class="B"/></g></g><path d="M-840.175 86.667c-.315 1.488.234 1.517.864 2.58s-.376 4.328-.376 4.328c2.9.274 6.587-4.262 3.056-6.356zm180.33-1.837s-.284.244.9 1.787 1.83 5.07 1.83 5.07c2.32-1.647 3.388-7.247 1.765-7.3zm-18.308-3.833c-.883-.985-5.422 1.42-3.565 6.345 1.925-3.974 4.145-2.82 4.145-2.82zm-70.79 3.67c-1.75.56-.898 4.64 2.003 4.93-1.006-3.137 2.615-5.54.2-5.54zm-8.34-5.144c-1.524-.615-4.275 2.117-1.964 5.802 2.327-3.333 4.303-3.534 4.303-3.534zm-.708-5.5c-.784-1.013-4.524-1.497-4.406 4.2 2.712-2.446 4.916-.777 4.9-.73zm6.46-4.007c.335-1.537-2.552-4.015-5.733-1.098 3.16.728 4 2.365 3.96 2.372z" class="F G"/><g class="I"><use xlink:href="#B" y="92.63" class="B"/><use xlink:href="#C" y="92.629" class="J"/></g><g class="F G"><path d="M-671.1 82.726c-1.7-.227-4.94 5.256-2.25 9.015 1.352-4.357 5.046-6.253 5.046-6.253zm-3.908-8.543c-.608-1.3-4.896-.227-5.745 3.846 2.9-1.68 5.473-.296 5.473-.296zm-158.87-3.38c.473-1.382-3.206-5.206-6.583-3.727 3.136 2.023 3.96 5.5 3.96 5.5zm-13.695 9.69c-1.158-1.405-6.255.902-5.635 7.513 2.965-4 6.455-2.52 6.455-2.52zm.408-8.3c-.47-1.854-5.815-1.6-7.643 3.486 3.794-1.42 6.6 1.073 6.6 1.073z"/><use xlink:href="#D" y="92.63"/><path d="M-858.728 28.142c-.544-1.6-6.455-.567-7.138 4.643 3.905-2.482 6.2-.052 6.2-.052zm17.525-8.934c.64-1.594-1.996-5.563-5.68-3.76 3.064 2.208 2.18 5.993 2.18 5.993zm6.68 5.692c1.05-.615.98-5.3-3.06-5.642.642 2.005.102 5.386.102 5.386z"/></g><path d="M-810.8 44.33s4.186 14.457 15.24 2.355" class="E L"/><use xlink:href="#E" y="92.629" class="B I"/><use xlink:href="#F" y="92.629" class="G M"/><g class="E"><g class="C"><path d="M-652.433 80.634c-.708-1.906-2.833-2.383-2.833-2.383" class="H"/><path d="M-786.632 49.245c1.606 2.68 2.077 6.115.264 8.32m-6.642-2.52c2.62 2.763 3.545 5.3 2.884 8.85m-2.92-6.424c.924 2 2.014 3.955 1.18 8.06m-7.7-6.392c.676 2.128.93 5.637-1.606 8.64m-1.807-.893c1.74-1.888 2.304-4.943 1.927-7.345m-15.344-6.942c-2.07.674-4.63 3.573-4.493 3.757m6.045-.022c-2.57-1.728-5.46 1.296-5.46 1.296" class="N"/><path d="M-779.502 31.86c-1.694.748-1.444 4.65-1.444 4.65M-815 26.43c1.808 1.24 1.085 4.963 1.085 4.963" class="F"/><path d="M-855.634 24.24c1.974.6 3.213 2.24 3.568 3.804l.602 2.46m11.49-7.68c-2 1.826-1.56 4.958-1.56 4.958" class="B"/></g><use xlink:href="#G" y="92.628" class="B"/><path d="M-789.202 56.458c6.963 11.47-5.055 12.833-7.425 11.16" class="B C"/><path d="M-779.22 41.495c4.264 1.797 4.106 5.825 4.887 8.078-1.307.168-2.37-.3-3.512-.805" class="B"/><g class="C"><path d="M-782.748 55.417c0 3.813-2.7 5.377-3.95 5.854" class="O"/><path d="M-845.752 19.613c.11 1.538-.2 2.06-.74 3.407s.177 3.705.177 3.705" class="B"/><path d="M-665.562 60.002c-3.37.47-4.668 1.435-4.666 1.435m12.113 1.82c-2.48.952-4.593.995-4.593.995m7.733 4.547c-2.126-.237-3.26-.17-3.26-.17m7.795 5.44c-1.1-.77-4.712-.287-4.798-.207m-18.07 11.205c.532-2.86 2.8-4.04 4.757-4.04m-7.57-2.278c1.577-.24 3.85-.095 3.85-.095" class="H"/><path d="M-821.555 41.6c-3.956 2.583-5.29 5.386-4.5 10.855" class="B"/><path d="M-796.045 55.042c2.05 4.708 2.333 12.763-4.7 15.39" class="P"/><path d="M-802.946 59.1c-.355 3.345-2.7 9.556-7.296 10.476" class="B"/><path d="M-697.273 34.857c.886-2.622 3.912-4.94 3.912-4.94m-9.473 4.917c1.772-3.098 4.435-5.135 4.435-5.135m-13.717 5.11c2.694-1.507 3.824-2.514 5.692-5.075m-12.923 4.982c1.612-.708 2.458-1.327 3.54-2.2 1.058-.854 1.674-1.706 2.837-2.93" class="H"/><path d="M-717.733 26.44c-6.17-.564-8.282-2.828-9.258-4.093m20.48-4.807c-4.147 1.68-5.805-.022-6.16-.022m-101.566 50.13c3.38-1.568 4.024-5.255 4.024-5.255" class="B"/><path d="M-815.74 50.367c-3.12-.477-11.014 6.17-8.468 14.435" class="Q"/><path d="M-820.7 46.722c-4.433.84-6.604 7.863-3.895 12" class="R"/><use xlink:href="#H" y="92.63" class="S"/></g></g></g><g fill="#080808"><use xlink:href="#I" y="92.63"/><path d="M-804.193 27.332c.275-.882.457-2.848-1.408-2.457l-.048.023-.008.004c-.478.326-.908 1.283-1.028 1.835s-.56 2.194.995 2.302h.004.004l.038.002c.757-.18 1.26-.98 1.45-1.708z"/></g><g class="D"><g class="B C E"><path d="M-784.243 35.467h-2.763c-1.956 3.458-7.448 2.274-5.972 2.934"/><path d="M-793.183 38.223c.245 4.562-7.996 8.285-8.2 1.184"/></g><use xlink:href="#J" y="92.629" class="C E T"/><path d="M-789.074 37.68c-1.926 5.184-.462 8.58-.462 8.58" class="B C E"/><path d="M-810.72 38.76c-1.115 1.735-2.09 1.873-2.09 1.873" class="C E F"/><use xlink:href="#K" y="92.629" class="B I"/><path d="M-854.267 42.5c1.88.396 3-.767 2.9-.707m-1.6 4.464c3.326 1.015 5.745-.934 5.745-.934" class="C E F"/><path d="M-848.75 78.34c2.098-.87 4.936-.055 4.936-.055m2.387 6.31c1.063-1.906 2.627-2.66 2.627-2.66" class="B G C"/><g class="E"><path d="M-822.123 88.216c1.408-.538 1.5-3.438 1.438-5.4m5.055 4.71c1.317-1.008.884-4.694.884-4.694" class="H C"/><path d="M-810.46 87.574c1.2-1.262.953-4.978.953-4.978m7.294 4.9c1.3-1.62.75-5.088.75-5.1" class="K C"/><path d="M-746 79.7c-3.642 2.134-3.603 3.898-3.564 4.408m8.968-4.27c-.355 3.098-2.57 5.108-2.57 5.108m7.074-4.91c-.112 2.95-2.227 4.888-2.227 4.888m7.655-4.84c-.01 3.486-2.035 4.922-2.035 4.922m7.874-4.913c-.15 2.574-.828 4.005-1.9 4.957m7.862-5.806c.532 1.67-.262 3.397-.262 3.397m-35.205-11.204c2.98.64 3.886 2.1 3.886 2.1m-6.924 4.086c1.913-3.687 4.824-1.562 5.728-.634" class="J C"/><path d="M-772.607 70.146c-2.534 1-3.732.688-5.08-.206m8.473-2.284c-2.63 1.232-4.153 1.155-5.524.116m10.038-3.164c-1.778 1-2.8 1.357-3.673.532m6.82-2.88c-2.176 1-3.415 1.357-4.495.532" class="U C"/><g class="J"><use xlink:href="#L" y="92.629"/><use xlink:href="#M" y="92.629"/></g><g class="C"><path d="M-850.88 48.473c2.936.452 4.754-.904 4.912-1.01" class="F"/><path d="M-838.167 60.33c.026.047 2.857.308 4.645-3.022m-9.978-1.116c1.928.388 3.805.53 5.708-2.155m-10.276-1.51c.332-.057 3.412 2.16 6.7-1.73" class="V"/></g><g class="W"><use xlink:href="#N" y="92.629"/><use xlink:href="#O" y="92.63"/></g><g class="C"><path d="M-804.028 32.943s-.833-2.96 1.48-4.996 2.683-5.366 2.683-5.366m1.85 10.64s1.018-1.203.278-3.608 1.758-4.533 1.758-4.533" class="K"/><use xlink:href="#P" y="92.62" class="B"/></g></g></g></g><defs ><path id="B" d="M-731.79-42.58c-.21 8.755 5.924 5.375 11.374 7.068 2.83.95 4.468 3.454 4.317 5.808s-.856 3.562-1.204 5.64c-.218 1.3.51 2.016 1.665 3.337s1.947 3.64 1.534 5.496c-.555 2.493-2.245 5.567-4.996 5.8.093-1.16-.116.742.043-.525 0 0-.298 1.056-1.24 1.61s-3.197 1.96-6.927 1.142c0 0 .972-.52.03.02-1.112.75-7.274.64-5.7-.2.45.848 0 0-.267.137-.763.462-5.1.862-5.1-.452-1.13.966-3.23.673-4.208.17-.772-.63-.916.706-2.38.924s-4.644-.22-4.807-1.97c-.394-.826-.062.65.012-.438-4.36 2.81-8.01-.554-8.382-2.932-.145-.927-.07-1.91.417-2.785 0 0-1.875.154-1.653-3.282s2.488-3.656 4.884-3.268c1.14.22.29-.31.488-1.314.272-1.37 1.672-1.684 3.28-.9 2.117.876 3.72 3.53 4.372 5.5s5.546 1.236 7.814 1.115c2.767-.148 3.064-2.566.977-4.838s-7.396-7.006-7.396-7.006c-2.02-1.78-2.44-4.933.16-6.487s5.588-5.05 5.352-7.406z"/><path id="C" d="M-816.152-33.563c-.742 2.172-.018 5.365-2.558 6.59-2.554-.18-2.637-4.114-3.138-3.25l1.074-.762.25-.42.535-.26z"/><path id="D" d="M-850.912-72.455c.245-2.045-4.83-4.822-8.403-.968 4.057.778 5.765 4.76 5.765 4.76l2.638-3.793z"/><path id="E" d="M-742.337-41.204c-2.767.438-8.698 2.793-12.158 5.614-7.295 5.95-19.987 14.218-21.614 15.533s-3.996 1.633-4.972.1-1.628-.438-1.466 1.753c1.293 8.272-2.84 10.95-7.188 10.855-1.17-.026-2.77-.648-3.734-1.427-.95 4.623-5.152 5.082-8.947 4.626-.058-.545.3-1.174.3-1.174-1.255 1.59-5.1 1.42-8.42 1.18-.22-.967.43-.87.385-1.47-1.11 2.033-2.732 1.705-5.828 1.49-.037-.428.402-.924.402-.924-1.355 1.44-3.83.863-6.022.9-.08-.388-.686-.143-.686-.143-.874.263-2.733.54-5.197.2-1.223-.455-.19-1.087.072-1.764.285-.694-2.943 1.193-3.58-.876-.13-.9 0 0-.68 1.692-.425 1.055-1.006 1.733-2.634 2.17s-5.66-.175-6.512-1.095c-.877-.908-1.303-2.847-.65-3.943s-3.1 2.113-4.72 2.4c-4.768.894-5.395-7.51-3.158-8.546l.52-.24c-2.376-.995-1.48-4.307-.292-6.327s4.856-1.7 7-.438c1.255.838 3.94 3.7 3.42 1.533-.363-1.345-.365-3.144 1.604-3.79 6.575-2.162 5.895 5.556 9.466 6.42s6.854-2.303 12.392-2.555 14.487-2.443 14.462-2.785c-7.295 2.455-8.852-.998-9.666-.78-2.86.35-3.548-2.076-3.538-2.054-2.584 1.022-5.348-.472-6.677-1.738.93-.726 4.19-2.727 3.405-5.673-3.036.8-5.4 2.498-6.617 5.093-.713-.915-1.63.812-4.01-.09s-3.678-3.098-6.155-1.67c-2.648-3.356-1.966-2.588-4.992-3.4-1.836-.487-2.97-2.943-2.692-3.418s-2.858.435-3.528-3.195c.185-.3-.696.044-2.384-.724-2.055-1.246-2.305-2.868-2.467-3.962-1.05.098-3.29-1.833-2.28-2.4-1.71-1.235-3.167-3.267-2.027-3.925-.998-.765-.44-.802-1-1.638-1.038-1.235-.716-2.54.098-2.54s.934-2.916-.388-2.916-2.607.23-3.426-.59c-1.653-1.656-2.038-4.745-1.176-6.92.724-1.827 3.526-3.756 4.702-3.558s.588.593.294-1.186 1.66-3.115 2.94-3.558c1.55-.69 4.356.1 5.436.593 1.043.467 1.175.79 1.175-.593 0-.972.84-1.84 1.85-2.094 1.682-.387 3.03.063 3.88 1.105.835 1.025 1.47 2.768.294 3.954s0 0 1.755-.214c2.045-.25 2.97.384 3.828 1.4 1.068 1.263 1.076 3.47-.44 4.942-1.337 1.3-3.232 4.15-2.204 5.14 1.47 1.588 7.955 6.815 9.333 7.6s10.51.932 3.22-1.285c1.35-2.32 3.806-2.213 5.22-2.243.458-3.596 4.75-2.68 2.623-5.734h0c-2.128-3.054-1.07-9.85 3.447-8.106-1.264-2.913.725-4.552 2.61-3.452-.572-2.425 1.438-3.9 3.3-1.794-.458-2.704 3.07-4.22 4.33-1.66.132-2.723 3.44-4.036 4.73-.537.962-2.93 4.932-3.39 5.28.87 1.552-2.41 5.02-2.126 4.37 1.764 3.078-1.375 5.063 1.2 3.817 4.387 2.866-.596 5.38 2.06 2.826 5.95 5.53-1.973 5.807 5.46 2.952 9.043 1.476.877.865.843 2.168 1.5s4.496 1.23 6.566 1.465 6.93.05 10.582-.438 9.088-2.677 15.298-3.352 76.47.884 78.586.665 4.927-3.384 4.765-5.794-2.6-4.156-5.042-4.375-14.977-.22-17.257.22-5.398.662-7.162 3.066-1.375 2.936-2.755 3.702-3.677-.23-4.107-.13l-1.186.277c-.915.362-3.137.4-4.756 0l-.123-.126c-3.326.893-7.882.652-8.74.214-.626-.458.605-1.03-1.126-.182-1.095.468-5.632.834-5.958-.066-.043-.71-.558-.36-1.198-.16-4.124.798-4.81-.623-6.902-.215s3.78-4.018 2.827-3.92c-1.315.136-4.34.303-12.2 1.265s-19.778 2.152-26.605-.873c-2.32-1.027-4.258-3.816-4.192-6.352.078-3.03 2.838-5.692 5.395-7.32 4.104-2.613 9.082-2.924 14.31-2.876 4.523.04 10.04 1.192 13.754.686s4.778-2.867 11.155-3.504 12.085 2.058 15.608 5.55c-.968.24.46.04.46.04 4.79-2 8.34-3.764 15.297-2.022-1.52 4.814-11.59 9.87-16.88 10.642s-9.007.338-12.62.028c-1.628-.12-5.1.69-12.135-2.26s-11.113-4.532-16.758-4.605c-4.686-.06-12.442 1.215-12.446 5.782s9.86 3.648 13.646 3.712 17.663-1.492 27.275-2.593c3.256 0 2.137.348 6.68.35s7.422-.45 11.178-1.822 3.3-1.644 6.882-1.644 30.16-.995 33.74-.776c5.184-.035 9.882 5.425 9.558 10.157s-1.745 6.638-2.497 7.533c4.165.027 10.84.12 10.84 5.283-4.077-2.407-7.988-1.973-10.088-1.973-.54.006-59.087-.06-57.772-.067 12.397 1.424 21.342 13.834 24.238 16.017s7.326 1.97 9.28 1.533 4.233-2.4 5.86-3.943c1.595-1.635 3.102-2.17 5.06-1.664s3.7 2.96 2.27 4.784c0 0 1.04-.155 2.763-.155 6.572-.077 5.17 3.387 5.17 3.387s4.538.267 3.275 5.4l.023.115c2.683.32 4.195 2.495 4.328 4.284l-.004.92c1.136 1.076 2.147 5.98-.9 6.803-.342.092-1.062.04-1.062.04.3 1.532.856 4.884-2.844 5.874s-6.162-1.373-6.488-3.344c-.65-3.45-.144 4.082-4.62 4.994-4.227.914-6.474-1.43-6.8-2.525s.198-1.07-1.8-.44-4.376-.85-4.56-2.847.318-3.554 3.218-3.828c.358-.4.685.683-.132-1.243s.684-4.044 2.905-4.256 6.723 2.644 8.01 2.976c0 0 1.924-1.138-1.045-3.086s-9.568-3.65-14.91-3.486-16.89 3.643-20.363 3.503c-2.48-.1-7.423-.334-10.08-8.32-2.158-8.154-9.54-11.38-13.735-12.42-5.317-1.39-11.39-1.76-16.71-.944z"/><path id="F" d="M-807.402-51.465c.735 1.17 3.532 2.028 4.79.768.95-.952 1.43-.826 1.818.543.4 1.416 2.855.706 2.793 1.737-.166 2.75-1.233 5.17-2.597 7.982-2.093 4.316-8.703 3.013-7.952.467 1.03-3.488.808-9.62.978-9.853z"/><path id="G" d="M-782.33-20.338c1.24-4.28 6.115-7.63 7.3-8.016 0 0 1.263.047-4.212 3.988-1.417.954-2.765 3.116-1.765 4.506"/><path id="H" d="M-781.12-48.96c2.93 3.896 4.045 6.278 4.214 7.635.276 2.357.58 6.97-6.343 6.876.536-1.786 1.025-5.178-.083-7.013"/><path id="I" d="M-793.862-65.98c-.563.027-.928.177-.958.74-.008.127-.16.567-.224 1.024s-.047.948.01 1.5c.294 1.31 1.983 1.48 2.297.403.18-.676.264-1.245.255-1.794-.005-.274-.05-.604-.1-.85-.152-.635-.646-1.036-1.28-1.024z"/><path id="J" d="M-801.394-53.264c-.18 3.337-4.664 3.836-6.283.976-1.26-1.906-2.27-1.53-3.086-2.6-.886-1.163-.808-2.044-1.832-3.986"/><path id="K" d="M-779.248-54.325s.84.672 1.807.58c1.237-.118 2.29-.212 3.68.354-.777 1.112-2.098 2.23-3.68 2.645-.506.133-1.48-.355-1.73-.46"/><path id="L" d="M-810.21-54.534s-.738 3.45-.747 5.115c-.012 2.187 1.033 3.98 1.033 3.98s1.99-1.896 2.52-6.753"/><path id="M" d="M-797.498-49.746s-.532 2.163-.46 3.258c.074 1.13.908 3.274.908 3.274.85-.787 2.593-3.015 3.286-8.788"/><path id="N" d="M-790.5-63.612c.088 2.586-6.223 1.926-6.674.143-.635-2.156 3.724-2.667 5.555-1.956.965.375 1.087 1.148 1.12 1.813z"/><path id="O" d="M-802.092-65.45c-.522-2.6-4.67-2.854-6.07-2.094-.195.106-.46.468-.547.65-.824 2.656 3.827 3.204 4.963 3.176"/><path id="P" d="M-799.06-59.6c4.08.442 2.978 4.125.25 3.1.25 4.055-4.753 3.544-4.325.437-2.524.865-3.86-3.4.127-3.446"/></defs></svg>