<svg height="600" viewBox="0 0 900 600" width="900" xmlns="http://www.w3.org/2000/svg"><path d="m0 600h899.99999v-599.99999833h-899.99999z" fill="#c1000a"/><g stroke-width=".999063" transform="matrix(1.3341197 0 0 -1.3350486 23.827438 489.21966)"><g fill="#ffd800"><path d="m159.9148 215.33c-3.15 0-5.704-2.555-5.704-5.706v-135.96c0-3.151 2.554-5.707 5.704-5.707s5.704 2.556 5.704 5.707v135.96c0 3.151-2.554 5.706-5.704 5.706"/><path d="m184.9919 205.3974c-3.15 0-5.704-2.555-5.704-5.706v-116.104c0-3.151 2.554-5.706 5.704-5.706 3.149 0 5.704 2.555 5.704 5.706v116.104c0 3.151-2.555 5.706-5.704 5.706"/><path d="m210.0686 183.5399c-3.15 0-5.704-2.554-5.704-5.706v-72.315c0-3.151 2.554-5.706 5.704-5.706s5.704 2.555 5.704 5.706v72.315c0 3.152-2.554 5.706-5.704 5.706"/><path d="m235.51 150.7089c-4.955 0-8.972-4.019-8.972-8.977 0-4.957 4.017-8.976 8.972-8.976s8.972 4.019 8.972 8.976c0 4.958-4.017 8.977-8.972 8.977"/><path d="m149.7048 230.5219c1.058 1.473 1.687 3.274 1.687 5.226 0 4.958-4.017 8.977-8.972 8.977s-8.972-4.019-8.972-8.977c0-2.322.888-4.43 2.334-6.024-7.725-9.352-17.865-15.032-21.783-17.003-1.372 3.197-4.546 5.436-8.244 5.436-4.956 0-8.973-4.018-8.973-8.976 0-4.957 4.017-8.976 8.973-8.976 2.027 0 3.891.68 5.394 1.815 9.911-15.274 12.713-33.326 13.502-42.362-9.045.778-27.118 3.56-42.392 13.492 1.075 1.48 1.717 3.296 1.717 5.266 0 4.957-4.017 8.976-8.972 8.976s-8.972-4.019-8.972-8.976c0-3.727 2.27-6.923 5.503-8.28-2.247-4.502-8.689-16.191-17.668-22.269-1.637 1.745-3.957 2.842-6.537 2.842-4.956 0-8.973-4.019-8.973-8.977 0-4.957 4.017-8.976 8.973-8.976 2.587 0 4.913 1.103 6.55 2.856 8.976-6.085 15.415-17.786 17.656-22.282-3.233-1.357-5.504-4.553-5.504-8.281 0-4.957 4.017-8.976 8.972-8.976s8.972 4.019 8.972 8.976c0 1.97-.642 3.785-1.717 5.266 15.28 9.936 33.363 12.716 42.403 13.493-.777-9.02-3.561-27.036-13.513-42.364-1.503 1.135-3.367 1.816-5.394 1.816-4.956 0-8.973-4.019-8.973-8.976 0-4.958 4.017-8.977 8.973-8.977 3.7 0 6.875 2.242 8.247 5.442 3.916-1.958 14.043-7.607 21.785-17.003-1.449-1.595-2.339-3.705-2.339-6.029 0-4.958 4.017-8.977 8.972-8.977s8.972 4.019 8.972 8.977c0 1.952-.629 3.754-1.687 5.226-7.707 13.234-20.089 21.7-27.317 25.791 13.6 23.324 13.572 49.718 13.564 50.913l-.041 5.406-5.404.05c-1.197.013-27.582.082-50.894-13.505-3.04 5.502-8.405 13.881-15.704 20.146 7.298 6.26 12.662 14.628 15.702 20.125 23.31-13.588 49.696-13.525 50.896-13.507l5.404.049.041 5.407c.008 1.195.035 27.589-13.564 50.912 7.228 4.092 19.611 12.558 27.317 25.792"/></g><g fill="#fff"><g><path d="m293.822 157.8749c-9.79 0-17.754-7.808-17.754-17.405 0-9.675 7.964-17.545 17.754-17.545 9.674 0 17.545 7.87 17.545 17.545 0 9.759-7.707 17.405-17.545 17.405m-.07-41.802c-14.303 0-25.507 10.717-25.507 24.397 0 13.829 10.966 24.258 25.507 24.258 14.304 0 25.508-10.656 25.508-24.258 0-13.68-11.204-24.397-25.508-24.397"/><path d="m344.1872 116.142c-10.807 0-18.354 7.577-18.354 18.426 0 10.93 7.547 18.564 18.354 18.564 6.368 0 11.528-2.002 14.939-5.791l-4.05-4.76c-2.684 2.649-6.226 4.048-10.262 4.048l-.273-.002c-6.612-.002-11.233-4.961-11.233-12.059 0-7.1 4.617-12.059 11.227-12.059 4.605 0 8.373 1.494 10.915 4.326l4.093-4.093c-3.384-4.319-8.688-6.6-15.356-6.6"/><path d="m383.1677 116.142c-10.808 0-18.355 7.577-18.355 18.426 0 10.93 7.547 18.564 18.355 18.564 6.368 0 11.528-2.002 14.94-5.791l-4.052-4.76c-2.683 2.649-6.224 4.048-10.261 4.048l-.272-.002c-6.613-.002-11.233-4.961-11.233-12.059 0-7.1 4.616-12.059 11.226-12.059 4.606 0 8.374 1.494 10.915 4.326l4.092-4.093c-3.383-4.319-8.687-6.6-15.355-6.6"/><path d="m411.1482 159.1244c-2.507 0-4.397 1.951-4.397 4.539 0 2.626 1.89 4.606 4.397 4.606 2.508 0 4.398-1.98 4.398-4.606 0-2.588-1.89-4.539-4.398-4.539m-3.703-6.271h7.407v-36.434h-7.407z"/><path d="m439.9929 116.0731c-2.368 0-10.093.757-10.093 10.509v19.418h-5.208v5.465h5.208v10.137h7.406v-10.137h10.904v-5.465h-10.904v-17.96c0-3.633 1.3-5.254 4.213-5.254 1.541 0 3.217.463 5.405 1.498l1.858-5.643c-2.92-1.704-5.877-2.568-8.789-2.568"/><path d="m469.8064 132.808c-5.458 0-7.892-1.599-7.892-5.185 0-3.486 2.907-5.739 7.406-5.739 5.789 0 10.306 3.046 10.739 7.242l.001 3.682zm-2.152-16.735c-7.496 0-12.732 4.608-12.732 11.204 0 6.629 5.251 10.788 13.705 10.855h11.433v1.365c0 4.955-3.223 7.685-9.074 7.685-3.552 0-7.191-1.225-10.82-3.643l-2.998 5.104c5.148 3.041 8.842 4.489 15.554 4.489 9.256 0 14.606-4.641 14.677-12.736l.067-23.977h-7.338v4.649l-1.634-1.479c-2.543-2.3-6.292-3.516-10.84-3.516"/><path d="m527.3035 116.4193v20.509c0 5.683-3.503 9.213-9.142 9.213-6.024-.07-10.134-4.016-10.739-10.301l-.002-19.421h-7.476v36.434h7.476v-7.227l1.76 2.328c2.596 3.436 6.669 5.177 12.105 5.177 8.325 0 13.496-5.357 13.496-13.981v-22.731z"/><path d="m550.9587 159.1244c-2.507 0-4.398 1.951-4.398 4.539 0 2.626 1.891 4.606 4.398 4.606s4.398-1.98 4.398-4.606c0-2.588-1.891-4.539-4.398-4.539m-3.704-6.271h7.409v-36.434h-7.409z"/><path d="m583.2742 147.2499c-5.646 0-9.729-3.33-10.922-8.906l-.253-1.184h21.758l-.113 1.081c-.591 5.641-4.505 9.009-10.47 9.009m.14-31.108c-11.146 0-18.633 7.404-18.633 18.426 0 10.86 7.576 18.494 18.426 18.564 5.563 0 9.853-1.577 12.745-4.687 3.361-3.613 4.808-9.2 4.306-16.61h-28.053l.368-1.254c1.535-5.236 5.929-8.489 11.465-8.489 3.988 0 7.674 1.487 10.41 4.193l3.894-4.149c-3.672-3.922-8.828-5.994-14.928-5.994"/></g><g><path d="m268.2448 178.5941.079 26.578 4.877-.079-.08-22.033 11.378-.079-.078-4.387z"/><path d="m295.0666 187.3944c-2.772 0-3.903-.71-3.903-2.45 0-1.694 1.395-2.747 3.642-2.747 2.933 0 5.218 1.509 5.433 3.589l-.001 1.528zm-1.156-8.987c-4.222 0-7.171 2.612-7.171 6.351 0 3.823 2.875 6.127 7.692 6.165h5.727l.079.397c0 2.481-1.569 3.792-4.537 3.792-1.875 0-3.808-.666-5.742-1.979l-.246-.167-1.93 3.452.209.033c2.88 1.711 4.907 2.526 8.641 2.526 5.182 0 8.177-2.613 8.216-7.17l.038-13.293-4.691.08.079 1.903v.189l-.135-.132c-1.433-1.405-3.588-2.147-6.229-2.147"/><path d="m324.903 190.891 5.991-.08c4.074 0 6.141 1.703 6.141 5.059 0 3.234-2.067 4.873-6.141 4.873h-5.991zm-4.877-12.297.08 26.578 10.788-.079c6.809 0 10.714-3.321 10.714-9.111 0-4.057-1.852-7.083-5.216-8.519l5.839-8.869h-5.527l-4.697 7.853c-.405.015-.759.015-1.113.015h-5.912l-.079-7.947z"/><path d="m352.0544 201.265 4.308 6.014 4.938-2.16-4.985-3.854zm3.146-6.115c-2.866 0-4.998-1.783-5.564-4.655l10.785-.094c-.174 3.006-2.156 4.749-5.221 4.749m.075-16.705c-6.185 0-10.341 4.111-10.341 10.229 0 6.029 4.205 10.266 10.227 10.303 3.088 0 5.475-.882 7.093-2.623 1.889-2.032 2.695-5.161 2.392-9.298l-.019-.258-14.814.074c.667-2.853 2.918-4.562 5.798-4.562 2.098 0 4.035.799 5.45 2.252l.203.208 2.535-2.822-.175-.083c-2.041-2.237-4.927-3.42-8.349-3.42"/><path d="m377.5622 195.1127c-3.249 0-5.544-2.418-5.581-5.882.038-3.538 2.28-5.914 5.581-5.914 3.242 0 5.507 2.432 5.507 5.916 0 3.462-2.265 5.88-5.507 5.88m-.336-23.864c-2.949 0-5.76.889-8.352 2.643l-.216.147 2.14 3.479.133-.207c1.985-1.469 3.868-2.123 6.109-2.123 3.663 0 6.029 2.132 6.029 5.432v1.847l-.143-.177c-1.421-1.784-3.572-2.726-6.221-2.726-5.472 0-9.149 3.93-9.149 9.781 0 5.725 3.616 9.595 8.998 9.633 2.759 0 4.903-.923 6.373-2.741l.142-.175v2.846l4.727-.08-.08-18.096c0-5.761-4.117-9.483-10.49-9.483"/><path d="m395.6052 201.5258c-1.537 0-2.697 1.192-2.697 2.772 0 1.601 1.16 2.808 2.697 2.808 1.538 0 2.696-1.207 2.696-2.808 0-1.58-1.158-2.772-2.696-2.772m-2.403-22.932.079 20.314 4.727-.08-.08-20.234z"/><path d="m412.5691 194.8891c-3.462 0-5.88-2.556-5.88-6.215 0-3.74 2.363-6.253 5.88-6.253 3.44 0 5.843 2.572 5.843 6.253 0 3.659-2.403 6.215-5.843 6.215m0-16.444c-6.221 0-10.564 4.221-10.564 10.266 0 6.141 4.245 10.266 10.564 10.266 6.198 0 10.527-4.222 10.527-10.266 0-6.045-4.329-10.266-10.527-10.266"/><path d="m427.0905 178.5941.079 20.313 4.765-.079-.079-2.992v-.256l.145.211c1.452 2.114 3.796 3.186 6.965 3.186 4.676 0 7.581-3.005 7.581-7.842v-12.541h-4.765l.08 11.347c0 2.889-1.709 4.612-4.574 4.612-3.044-.035-5.125-2.038-5.433-5.227l.001-10.812z"/></g><g><path d="m272.1067 92.641h4.333c3 0 4.694 1.277 4.694 3.917 0 2.555-1.694 3.776-4.694 3.776h-4.333zm4.472 10.638c4.888 0 7.694-2.417 7.694-6.638 0-4.389-2.806-6.944-7.694-6.944h-4.472v-5.861h-3.277v19.443z"/><path d="m293.823 81.809c-.917-2.333-2.583-3.5-4.805-3.5-1.334 0-2.389.389-3.417 1.25l1.362 2.472c.694-.5 1.249-.722 1.916-.722.972 0 1.75.527 2.25 1.639l.5 1.111-6.111 14.553h3.305l4.417-11.193 4.11 11.193h3.194z"/><path d="m306.1242 95.6684c1 2 2.777 3.055 5.11 3.055v-3.055c-2.971.167-4.86-1.583-5.11-4.111v-7.721h-3.194v14.776h3.194z"/><path d="m317.926 100.7235 2.944 4.11 3.277-1.388-3.388-2.722zm6.166-8.388c-.112 2.388-1.694 3.833-4.111 3.833-2.332 0-3.972-1.472-4.332-3.833zm2.777-2.333h-11.165c.5-2.278 2.25-3.694 4.583-3.694 1.61 0 3.083.611 4.166 1.722l1.694-1.806c-1.444-1.583-3.554-2.5-6.11-2.5-4.555 0-7.555 3.028-7.555 7.472 0 4.472 3.083 7.5 7.472 7.527 5.193 0 7.305-3.389 6.915-8.721"/><path d="m344.3366 93.0297v-9.193h-3.193v8.304c0 2.222-1.334 3.583-3.556 3.583-2.444-.027-3.972-1.721-4.193-4.027v-7.86h-3.195v14.776h3.195v-2.833c1.054 2.055 2.943 2.944 5.443 2.944 3.444 0 5.499-2.166 5.499-5.694"/><path d="m352.6648 100.7235 2.944 4.11 3.278-1.388-3.388-2.722zm6.166-8.388c-.11 2.388-1.693 3.833-4.11 3.833-2.333 0-3.972-1.472-4.332-3.833zm2.778-2.333h-11.166c.5-2.278 2.25-3.694 4.583-3.694 1.612 0 3.083.611 4.166 1.722l1.695-1.806c-1.444-1.583-3.555-2.5-6.111-2.5-4.554 0-7.554 3.028-7.554 7.472 0 4.472 3.083 7.5 7.471 7.527 5.194 0 7.305-3.389 6.916-8.721"/><path d="m375.1599 92.3353c-.111 2.389-1.694 3.833-4.11 3.833-2.333 0-3.972-1.472-4.333-3.833zm2.777-2.333h-11.165c.5-2.277 2.25-3.694 4.583-3.694 1.611 0 3.083.611 4.166 1.722l1.695-1.805c-1.445-1.583-3.556-2.5-6.111-2.5-4.555 0-7.554 3.027-7.554 7.471 0 4.472 3.082 7.5 7.47 7.527 5.195 0 7.306-3.388 6.916-8.721"/><path d="m390.8493 97.2514-1.166-2.36c-1.306.805-2.944 1.305-4.25 1.305-1.25 0-2.166-.417-2.166-1.472 0-2.722 7.859-1.25 7.832-6.611 0-3.027-2.694-4.388-5.666-4.388-2.166 0-4.472.722-5.943 2.055l1.138 2.278c1.278-1.139 3.333-1.833 4.945-1.833 1.36 0 2.416.472 2.416 1.583 0 3.027-7.778 1.333-7.749 6.666 0 2.999 2.61 4.277 5.443 4.277 1.861 0 3.833-.556 5.166-1.5"/><path d="m400.816 93.391h6.833v-2.194h-6.833z"/><path d="m436.5866 83.8363-.027 14.526-6.139-12.499h-2.138l-6.138 12.499v-14.526h-3.083v19.442h3.888l6.416-12.915 6.388 12.915h3.861v-19.442z"/><path d="m448.6081 100.7235 2.944 4.11 3.278-1.388-3.389-2.722zm6.166-8.388c-.111 2.388-1.694 3.833-4.11 3.833-2.333 0-3.972-1.472-4.333-3.833zm2.777-2.333h-11.165c.499-2.278 2.25-3.694 4.582-3.694 1.612 0 3.083.611 4.166 1.722l1.696-1.806c-1.445-1.583-3.556-2.5-6.111-2.5-4.555 0-7.555 3.028-7.555 7.472 0 4.472 3.083 7.5 7.471 7.527 5.195 0 7.305-3.389 6.916-8.721"/><path d="m471.7693 91.1688c0 2.861-1.861 4.861-4.527 4.861s-4.528-2.028-4.555-4.861c.027-2.806 1.861-4.805 4.555-4.805 2.666 0 4.527 1.999 4.527 4.805m3.194-7.333h-3.194v2.528c-1.056-1.722-2.833-2.666-5.193-2.666-4.25 0-7.083 3.083-7.083 7.582 0 4.444 2.861 7.472 7.027 7.472 2.389 0 4.166-.973 5.249-2.695v8.388h3.194z"/><path d="m479.82 98.612h3.166v-14.776h-3.166zm3.444 4.222c0-1.11-.805-1.916-1.86-1.916-1.056 0-1.861.806-1.861 1.916 0 1.139.805 1.944 1.861 1.944 1.055 0 1.86-.805 1.86-1.944"/><path d="m496.0671 84.7807c-1.167-.694-2.389-1.083-3.639-1.083-2.221 0-4.138 1.277-4.138 4.305v7.666h-2.083v2.388h2.083v4.055h3.166v-4.055h4.361v-2.388h-4.361v-7.083c0-1.528.584-2 1.584-2 .666 0 1.36.222 2.221.639z"/><path d="m509.0632 92.3353c-.111 2.389-1.694 3.833-4.11 3.833-2.333 0-3.972-1.472-4.333-3.833zm2.777-2.333h-11.165c.5-2.277 2.25-3.694 4.583-3.694 1.611 0 3.083.611 4.166 1.722l1.695-1.805c-1.445-1.583-3.556-2.5-6.111-2.5-4.555 0-7.555 3.027-7.555 7.471 0 4.472 3.083 7.5 7.471 7.527 5.195 0 7.306-3.388 6.916-8.721"/><path d="m518.365 95.6684c1 2 2.777 3.055 5.11 3.055v-3.055c-2.971.167-4.86-1.583-5.11-4.111v-7.721h-3.194v14.776h3.194z"/><path d="m529.3064 95.6684c1 2 2.777 3.055 5.11 3.055v-3.055c-2.971.167-4.86-1.583-5.11-4.111v-7.721h-3.194v14.776h3.194z"/><path d="m545.3025 89.0302v1.361h-4c-2.083 0-3.055-.556-3.055-1.972 0-1.333 1.083-2.194 2.861-2.194 2.278 0 4.027 1.194 4.194 2.805m.027-3.389c-1.054-1.305-2.749-1.944-4.887-1.944-3.195 0-5.195 1.972-5.195 4.583 0 2.694 2.028 4.417 5.582 4.444h4.473v.444c0 1.862-1.194 2.972-3.527 2.972-1.417 0-2.889-.5-4.361-1.5l-1.305 2.223c2.054 1.221 3.554 1.86 6.36 1.86 3.805 0 5.943-1.944 5.972-5.193l.027-9.694h-3.139z"/><path d="m566.8796 93.0297v-9.193h-3.193v8.304c0 2.222-1.334 3.583-3.556 3.583-2.444-.027-3.972-1.721-4.194-4.027v-7.86h-3.194v14.776h3.194v-2.833c1.055 2.055 2.944 2.944 5.444 2.944 3.444 0 5.499-2.166 5.499-5.694"/><path d="m575.2087 100.7235 2.944 4.11 3.278-1.388-3.389-2.722zm6.166-8.388c-.111 2.388-1.694 3.833-4.11 3.833-2.333 0-3.972-1.472-4.333-3.833zm2.777-2.333h-11.165c.5-2.278 2.25-3.694 4.583-3.694 1.611 0 3.083.611 4.166 1.722l1.695-1.806c-1.445-1.583-3.556-2.5-6.111-2.5-4.555 0-7.555 3.028-7.555 7.472 0 4.472 3.083 7.5 7.472 7.527 5.194 0 7.305-3.389 6.915-8.721"/><path d="m597.7029 92.3353c-.111 2.389-1.694 3.833-4.11 3.833-2.333 0-3.972-1.472-4.333-3.833zm2.777-2.333h-11.165c.5-2.277 2.25-3.694 4.583-3.694 1.611 0 3.083.611 4.166 1.722l1.695-1.805c-1.445-1.583-3.556-2.5-6.111-2.5-4.555 0-7.555 3.027-7.555 7.471 0 4.472 3.083 7.5 7.471 7.527 5.195 0 7.306-3.388 6.916-8.721"/></g></g></g></svg>