<svg xmlns="http://www.w3.org/2000/svg" xmlns:xlink="http://www.w3.org/1999/xlink" width="1125" height="750" xmlns:v="https://vecta.io/nano"><style><![CDATA[.B{fill:none}.C{stroke:#000}.D{stroke-width:.625}.E{fill:#ed2939}.F{stroke-width:2.104}.G{fill:#002395}.H{stroke-width:7.75}.I{stroke-linecap:square}]]></style><defs><clipPath id="A"><path d="M0 600h900V0H0v600z"/></clipPath><path id="B" d="M749.367 556.572c10.898 1.088 24.177 1.833 34.334 10.355-2.18-8.175-10.71-11.625-13.438-16.528 3.27-.546 11.258-.913 13.438.178 5.45 1.09 12.534 4.904 19.62 7.628s13.09 5.085 18.54.725c-11.445-1.1-22.532-10.366-15.814-20.9-8.72 1.636-18.155-4.012-17.6-16.002-4.903 10.9-31.44 32.9-38.525 33.988l-.544.546z"/><path id="C" d="M651.62 506.69c23.595 13.05 29.718-1.706-.1-2.852-.513.8-.2 1.823-.2 2.37l.29.482z"/><path id="D" d="M750.272 188.44c-2.134-13.418 2.846-25.404 8.718-23.258 1.067-4.83 5.514-8.766 9.07-8.408-.533-5 5.693-15.386 10.852-14.85 2.668-7.157 7.115-17.89 13.875-11.986 1.958-8.23 6.227-17.533 12.81-15.565 3.024.894-2.136 108.238-1.6 106.45l-53.725-32.382z"/><path id="E" d="M710.877 187.547c3.024-8.945 1.424-21.827-6.937-22.72-1.6-3.936-5.16-6.62-9.43-7.872-1.78-8.05-6.404-15.923-10.495-13.597-1.957-8.23-9.962-20.574-13.698-12.524-1.78-11.27-11.564-19.142-15.477-14.49-3.202 3.757 4.456 99.477 4.456 99.477l51.58-28.272z"/><path id="F" d="M707.227 119.717c-7.677-7.06-16.888-20.292-18.203-22.938s-1.535-4.853.877-6.838 6.914-6.632 5.162-9.493c-10.912 9.604-18.102 8.39-28.848.89-2.193 3.087-.44 7.058 3.73 8.823 4.145 1.458 7.677.44 11.184 5.292s10.528 23.6 12.94 26.247c3.728 1.986 8.346 6.955 11.197 8.06 1.535-2.647 3.464-9.445 3.024-9.226l-1.062-.817z"/></defs><g transform="matrix(1.25 0 0 -1.25 0 750)"><path d="M551.83 0H900v300H551.83V0z" fill="#fff"/><g fill="#ffd203"><path d="M0 0h551.83v600H0V0z"/><path d="M551.83 300H900v300H551.83V300z"/></g><g clip-path="url(#A)"><path d="M688.326 503.162c7.63-5.995 21.244-10.723 11.98-21.622 8.175-1.1 11.456 6.906 11.456 12.9s-22.89 8.177-23.436 8.72" class="E"/><path d="M688.326 503.162c7.63-5.995 21.244-10.723 11.98-21.622 8.175-1.1 11.456 6.906 11.456 12.9s-22.89 8.177-23.436 8.72z" class="B C D"/><path d="M697.746 376.2c91.022 30.63 58.757 136.265-19.376 126.264-6.04-.6-10.67-1.616-15-4.374-6.877-3.203-17.814-4.215-19.378-.626 1.133 2.34 7.168 4.56 6.875 8.126-5.154 2.462-13.53 5.478-11.876 15 14.9-2.683 19.38 8.75 18.753 15.003-.625 4.19-4.377 15 23.752 25.003 50.004 11.25 115.013-6.876 125.016-92.5 3.75-58.757-42.507-79.385-55.008-88.76s-26.877-16.253-33.753-36.253c-2.5 17.5-11.877 26.877-20.004 33.127" class="G"/><g class="B C"><g class="D"><path d="M697.746 376.2c91.022 30.63 58.757 136.265-19.376 126.264-6.04-.6-10.67-1.616-15-4.374-6.877-3.203-17.814-4.215-19.378-.626 1.133 2.34 7.168 4.56 6.875 8.126-5.154 2.462-13.53 5.478-11.876 15 14.9-2.683 19.38 8.75 18.753 15.003-.625 4.19-4.377 15 23.752 25.003 50.004 11.25 115.013-6.876 125.016-92.5 3.75-58.757-42.507-79.385-55.008-88.76s-26.877-16.253-33.753-36.253c-2.5 17.5-11.877 26.877-20.004 33.127z"/><path d="M657.26 529.322c4.36-3.815 11.445-7.074 17.985 4.36 6.54 9.266 15.836.544 15.836.544m-9.28-9.68c8.72-15.27 28.426-15.192 49.8-13.076"/></g><path d="M735.75 518.767c64-17.438 56-94.284 14.855-124.258" stroke-width="1.92"/></g><path d="M730.836 378.9c-26.705-6.54-53.4-2.18-73.575 33.246-7.084 13.08-23.526 12.114-24.466 3.46 10.874 9.39 16.14-7.6 14.908-13.997-12.948-.188-16.067-4.315-22.2-9 4.446-.055 12.324 3.538 22.493-9.885 11.897-14.858 28.34-15.925 33.8-15.925 6.54-.545 9.078-1.727 17.072 1.483-4.603-6.54-22.157-9.35-30.697-3.186-2.34-9.076 5.614-6.872 20.71-14.526 10.605-6.18 18.178-16.947 29.43-21.8 11.24-4.622 19.388-3.866 30.832 5.942-25.07-5.448-41.186 6.592-18.297 44.197" class="E"/><path d="M730.836 378.9c-26.705-6.54-53.4-2.18-73.575 33.246-7.084 13.08-23.526 12.114-24.466 3.46 10.874 9.39 16.14-7.6 14.908-13.997-12.948-.188-16.067-4.315-22.2-9 4.446-.055 12.324 3.538 22.493-9.885 11.897-14.858 28.34-15.925 33.8-15.925 6.54-.545 9.078-1.727 17.072 1.483-4.603-6.54-22.157-9.35-30.697-3.186-2.34-9.076 5.614-6.872 20.71-14.526 10.605-6.18 18.178-16.947 29.43-21.8 11.24-4.622 19.388-3.866 30.832 5.942-25.07-5.448-41.186 6.592-18.297 44.197z" class="B C D"/><path d="M790.24 412.147c-6.54-16.894-14.798-35.623-2.81-48.157-15.804-.547-27.175 15.624-27.175 21.62 5.995 3.816 23.445 16.727 29.984 26.538" class="E"/><path d="M790.24 412.147c-6.54-16.894-14.798-35.623-2.81-48.157-15.804-.547-27.175 15.624-27.175 21.62 5.995 3.816 23.445 16.727 29.984 26.538z" class="B C D"/><path d="M753.182 436.127c-7.63-20.164-15.826-24.523-32.176-24.523 8.72-4.36 13.1-5.452 10.376-16.35 10.9 9.263 21.8 26.704 21.8 40.873" class="E"/><g class="B C D"><path d="M753.182 436.127c-7.63-20.164-15.826-24.523-32.176-24.523 8.72-4.36 13.1-5.452 10.376-16.35 10.9 9.263 21.8 26.704 21.8 40.873zm-9.8 105.73c3.813-2.724 4.904-6.54 4.36-13.625 5.995 9.8 13.08 10.357 18.53 4.362.544 6.54 7.63 7.083 12.534 3.268M719.4 501.526c17.44-2.18 29.43-15.805 32.7-22.9"/></g><use xlink:href="#B" class="E"/><use xlink:href="#B" class="B C D"/><path d="M800.595 495.532c7.63-10.9 20.168-25.07 24.526-26.704-11.444-2.182-14.706-9.644-6.542-25.07-5.994 5.45-8.718 7.63-12.533 3.815 3.27 8.718-5.995 48.503-5.45 47.96" class="E"/><path d="M800.595 495.532c7.63-10.9 20.168-25.07 24.526-26.704-11.444-2.182-14.706-9.644-6.542-25.07-5.994 5.45-8.718 7.63-12.533 3.815 3.27 8.718-5.995 48.503-5.45 47.96z" class="B C D"/><use xlink:href="#C" fill="#ffd203"/><use xlink:href="#C" class="B C D"/><path d="M688.87 515.152c9.81-7.086 23.98-5.995 31.61-5.45s-1.634-3.27-1.634-8.174 1.413-7.233 3.27-11.446c2.145-4.863 1.278-12.188-5.63-16.18 3.45 10.71-7.997 20.54-12.356 23.812-5.165 3.23-15.26 17.984-15.26 17.44" class="E"/><path d="M688.87 515.152c9.81-7.086 23.98-5.995 31.61-5.45s-1.634-3.27-1.634-8.174 1.413-7.233 3.27-11.446c2.145-4.863 1.278-12.188-5.63-16.18 3.45 10.71-7.997 20.54-12.356 23.812-5.165 3.23-15.26 17.984-15.26 17.44z" class="B C D"/><path d="M683.58 527.96c0 2.074-1.78 3.752-3.975 3.752s-3.97-1.678-3.97-3.752 1.777-3.753 3.97-3.753 3.975 1.68 3.975 3.753" fill="#fff"/><g class="B C D"><path d="M647.93 404.288c1.06-3.275 2.903-4.465 5.314-7.912-3.193.727-6.676 3.916-8.424 4.456m51.694-55.722c5 1.047 4.867 2.066 6.047 2.83-.228-1.723-3.37-2.575-1.936-6.522M668.162 512c3.9 1.282 7.804-1.7 9.838-3.75 2.606-2.486 7.723-4.386 11.387-5.227"/></g><path d="M712.895 562.977c8.72 4.362 13.403 7.987 15.036 11.255 1.636-3.815-1.09-7.63-1.09-10.9 6.54 0 16.895 4.904 19.074 7.084 4.907-3.815 1.957-12.147.706-14.65" class="C D G"/><path d="M768.67 543.532c8.48-3.083 10.86-1.397 17.026.915-3.853-6.166-7.707-6.936-13.103-5.395" stroke-width=".75" class="B C"/><g class="E"><path d="M122 0H61v600h61V0zm122 0h-61v600h61V0zm123.415 0h-61v600h61V0zm122 0h-61v600h61V0zM729.33 237.304c-5.535.506-11.07-.253-14.088-1.77s-9.434-2.15-13.7-.632c2.767-4.807 8.302-6.073 14.6-3.3 3.455 1.597 8.43 3.415 10.566 2.9 5.66-1.14 3.523 2.53 2.642 2.783"/></g><g class="D"><path d="M729.33 237.304c-5.535.506-11.07-.253-14.088-1.77s-9.434-2.15-13.71-.632c2.767-4.807 8.302-6.073 14.59-3.29 3.455 1.597 8.43 3.415 10.566 2.91 5.66-1.14 3.523 2.53 2.642 2.783z" class="B C"/><path d="M812.74 23.866H640.302v28.62H812.74v-28.62z" stroke="#fff" class="G"/></g><path d="M645.137 53.02c3.558 6.978 6.937 9.304 8.184 13.775s4.1 7.335 9.072 11.45c8.894 7.872 18.267 12.155 27.217 5.546 5.103-3.768 1.6-12.344 7.827-15.386s10.14-16.46 9.43-21.29c-8.005 6.62-15.833 8.944-23.66 3.22-6.048-4.114-12.452-5.545-19.213-.715s-19.034 3.4-18.856 3.4"/><path d="M645.137 53.02c3.558 6.978 6.937 9.304 8.184 13.775s4.1 7.335 9.072 11.45c8.894 7.872 18.267 12.155 27.217 5.546 5.103-3.768 1.6-12.344 7.827-15.386s10.14-16.46 9.43-21.29c-8.005 6.62-15.833 8.944-23.66 3.22-6.048-4.114-12.452-5.545-19.213-.715s-19.034 3.4-18.856 3.4z" class="B C F"/><use xlink:href="#D" class="E"/><use xlink:href="#D" class="B C D"/><path d="M780.19 121.086c-11.255 3.325-11.594 7.958-14.44 13.683s-2.932 13.852-11.386 17.89c-6.705 3.203-7.324 7.62-8.035 11.912s3.765 23.154 3.765 23.154-2.127-.21-2.717.715c2.933.42 10.293-2.826 12.68.716 1.63-2.024 4.018-2.234 5.693-.716 1.422-2.53 7.662-2.234 8.538.716 3.393-1.858 9.588 1.597 8.54 4.294 4.988-1.352 8.877 2.776 7.827 6.44 7 .123 7.08 5.68 4.27 8.587 2.724.376 4.32 3.326 2.136 5.725 2.846 2.147 4.98-2.147 4.98-5.725s3.14-67.522 3.14-73.963 1.934-17.703 3.976-21.975c4.233-8.862 7.574-10.142 12.937-9.723-4.198 7.252-4.356 14.82-5.068 20.545s-3.646 82.528-4.053 82.513l-.005.014c2.692-.73 4.636.004 6.087 1.076-2.588.186-3.648 2.85-4.168 3.686-1.135 2.287-2.174 8.562-3.596 12.14s-10.766 19.632-15.656 22.9c-5.692 3.014-14.79 6.654-17.077 2.147-3.324-5.715 2.846-17.175 6.404-17.9s-4.27 2.863-3.558-1.432 2.847-9.302.713-12.165-4.982-4.293-7.828-4.293-4.27 0-5.693-2.148-4.98-3.578-7.827-1.43-7.115 2.863-9.25 2.863-7.072-.847-7.324-.087l.166 8.963c1.804-1.248 8.698.222 11.484 3.474-4.53.3-7.183 7.093-7.096 9.873 2.4-.4 4.92 1.133 7.013 2.65-3.125.097-6.963 4.145-8.033 8.898 2.688-.166 3.387 1.517 5.37 2.95-3.274-.208-9.166 4.285-10.665 8.367-2.135 2.146-16.53 2.605-20.8 2.605s-3.557-1.178-3.557-3.325 1.423-.716-3.558-3.578c-7.37-1.977-7.958-9.928-4.144-12.798 1.422 1.43 1.828 2.78 3.01 4.207 1.004 1.07 3.233.568 4.092-.618.727-.876 2.46-2.18 3.723-2.21 1.285.097 2.507.917 4.203-.326 7.79-3.582 3.062-13.803-6.616-13.3 1.894-4.305 5.25-5.694 11.3-3.503-.845-2.448-3.436-6.546-4.976-7.867-10.68-6.04-17.872-18.916-13.264-36.83 2.845-5.01 8.81-20.064-.877-24.793-9.92-4.215-10.552-10.063-13.06-16.294-2.896-6.537-10.275-17.328-16.062-16.517 4.342-7.38 20.877 3.803 23.43 8.48 2.3-5.192 2.206-12.953 8.704-14.522-3.875 9.505-.624 13.954 7.716 20.684 4.4-5.813-4.5-32.63-15.435-35.337 5.038-2.485 12.475 1.394 15.192 2.022-1.057-2.406-13.19-9.918-18.97-10.005 8.3-6.92 18.383 3.38 22.78 7.884-.63-4.858-12.682-16.443-18.18-17.498.288-8.646 46.08-10.374 47.684-.724-5.693 1.554-14.7 9.33-17.47 17.44 7.203-7.265 13.188-12.57 22.828-7.596-9.596 2.443-15.043 7.03-17.136 9.743 4.8-1.41 7.083-2.2 12.776-1.474-7.892 4.004-18.148 26.356-16.17 36.212 9.875-6.686 11-12.27 8.212-21.307 8.398-.216 7.774 12.498 9.412 16.625 5.162-9.534 14.468-17.312 22.98-10.82" class="E"/><path d="M780.19 121.086c-11.255 3.325-11.594 7.958-14.44 13.683s-2.932 13.852-11.386 17.89c-6.705 3.203-7.324 7.62-8.035 11.912s3.765 23.154 3.765 23.154-2.127-.21-2.717.715c2.933.42 10.293-2.826 12.68.716 1.63-2.024 4.018-2.234 5.693-.716 1.422-2.53 7.662-2.234 8.538.716 3.393-1.858 9.588 1.597 8.54 4.294 4.988-1.352 8.877 2.776 7.827 6.44 7 .123 7.08 5.68 4.27 8.587 2.724.376 4.32 3.326 2.136 5.725 2.846 2.147 4.98-2.147 4.98-5.725s3.14-67.522 3.14-73.963 1.934-17.703 3.976-21.975c4.233-8.862 7.574-10.142 12.937-9.723-4.198 7.252-4.356 14.82-5.068 20.545s-3.646 82.528-4.053 82.513l-.005.014c2.692-.73 4.636.004 6.087 1.076-2.588.186-3.648 2.85-4.168 3.686-1.135 2.287-2.174 8.562-3.596 12.14s-10.766 19.632-15.656 22.9c-5.692 3.014-14.79 6.654-17.077 2.147-3.324-5.715 2.846-17.175 6.404-17.9s-4.27 2.863-3.558-1.432 2.847-9.302.713-12.165-4.982-4.293-7.828-4.293-4.27 0-5.693-2.148-4.98-3.578-7.827-1.43-7.115 2.863-9.25 2.863-7.072-.847-7.324-.087l.166 8.963c1.804-1.248 8.698.222 11.484 3.474-4.53.3-7.183 7.093-7.096 9.873 2.4-.4 4.92 1.133 7.013 2.65-3.125.097-6.963 4.145-8.033 8.898 2.688-.166 3.387 1.517 5.37 2.95-3.274-.208-9.166 4.285-10.665 8.367-2.135 2.146-16.53 2.605-20.8 2.605s-3.557-1.178-3.557-3.325 1.423-.716-3.558-3.578c-7.37-1.977-7.958-9.928-4.144-12.798 1.422 1.43 1.828 2.78 3.01 4.207 1.004 1.07 3.233.568 4.092-.618.727-.876 2.46-2.18 3.723-2.21 1.285.097 2.507.917 4.203-.326 7.79-3.582 3.062-13.803-6.616-13.3 1.894-4.305 5.25-5.694 11.3-3.503-.845-2.448-3.436-6.546-4.976-7.867-10.68-6.04-17.872-18.916-13.264-36.83 2.845-5.01 8.81-20.064-.877-24.793-9.92-4.215-10.552-10.063-13.06-16.294-2.896-6.537-10.275-17.328-16.062-16.517 4.342-7.38 20.877 3.803 23.43 8.48 2.3-5.192 2.206-12.953 8.704-14.522-3.875 9.505-.624 13.954 7.716 20.684 4.4-5.813-4.5-32.63-15.435-35.337 5.038-2.485 12.475 1.394 15.192 2.022-1.057-2.406-13.19-9.918-18.97-10.005 8.3-6.92 18.383 3.38 22.78 7.884-.63-4.858-12.682-16.443-18.18-17.498.288-8.646 46.08-10.374 47.684-.724-5.693 1.554-14.7 9.33-17.47 17.44 7.203-7.265 13.188-12.57 22.828-7.596-9.596 2.443-15.043 7.03-17.136 9.743 4.8-1.41 7.083-2.2 12.776-1.474-7.892 4.004-18.148 26.356-16.17 36.212 9.875-6.686 11-12.27 8.212-21.307 8.398-.216 7.774 12.498 9.412 16.625 5.162-9.534 14.468-17.312 22.98-10.82z" class="B C D"/><use xlink:href="#E" class="E"/><use xlink:href="#E" class="B C D"/><path d="M719.513 211.393c-6.54 1.012-13.56-.358-16.076-2.383s-8.7-2.826-10.2-.802-3.523 3.037-6.038 3.542c-9.632 2.653-8.53 18.52-4.53 20.24 6.482 2.5 8.564 15.252-.534 15.298-9.56.228-16.456-.654-20.48-4.702s-8.48-10.827-9.678-18.693c-1.053-6.91-4.69-15.712-9.528-19.647 2.785-1.04 4.958-.375 5.86-.21-1.865-4.397-.02-85.8-7.4-98.553-1.5-5.06 9.056-4.048 12.578 4.05s8.05 97.662 8.555 102.216 2.068-1.344 4.528-3.16c-1.276-5.572 1-8.966 4.528-9.707-.208-4.855 5-5.714 7.547-4.845-.3-3.246 3.345-4.56 7.045-3.542 1.92-3.813 7.76-4.467 9.266-2.203 2.57-3.103 5.772-.746 6.835 1.19 2.663-2.714 9.378-4.85 9.118-.53-.862 6.274 4.136 19.576 8.614 22.44" class="E"/><g class="C"><g class="D"><path d="M719.513 211.393c-6.54 1.012-13.56-.358-16.076-2.383s-8.7-2.826-10.2-.802-3.523 3.037-6.038 3.542c-9.632 2.653-8.53 18.52-4.53 20.24 6.482 2.5 8.564 15.252-.534 15.298-9.56.228-16.456-.654-20.48-4.702s-8.48-10.827-9.678-18.693c-1.053-6.91-4.69-15.712-9.528-19.647 2.785-1.04 4.958-.375 5.86-.21-1.865-4.397-.02-85.8-7.4-98.553-1.5-5.06 9.056-4.048 12.578 4.05s8.05 97.662 8.555 102.216 2.068-1.344 4.528-3.16c-1.276-5.572 1-8.966 4.528-9.707-.208-4.855 5-5.714 7.547-4.845-.3-3.246 3.345-4.56 7.045-3.542 1.92-3.813 7.76-4.467 9.266-2.203 2.57-3.103 5.772-.746 6.835 1.19 2.663-2.714 9.378-4.85 9.118-.53-.862 6.274 4.136 19.576 8.614 22.44z" class="B"/><g class="E"><path d="M672.452 194.702c.178-10.733-.178-60.827-2.5-65.12m14.054 13.774c1.423 8.4.355 47.23.355 47.23m9.687-33.81c.7 7.156.533 31.308.533 31.308m8.895-23.078c.533 6.62-.535 22.9-.535 22.9m55.85-22.72c-2.134 5.546 0 23.08 0 23.08m9.26-31.49c-2.5 5.546-.7 30.414-.7 30.414m11.562-45.263c-2.5 8.588 0 47.23 0 47.23m13.875-58.68c-2.846 8.767-2.615 66.182-2.615 66.182"/></g></g><g class="F"><path d="M671.287 81.108c0-2.3-1.53-4.565-2.863-6.312-.214-.282.634.306.962.438 1.458.594 2.934 1.066 4.358 1.876.598.34.82.222 1.142.837" class="B"/><path d="M686.052 74.49a9.3 9.3 0 0 0 5.543-4.149" fill="red"/></g><g class="D E"><path d="M664.9 158.595c.876 12.352.7 37.894-.024 41.294m131.454 2.603c-.22-10.808-1.38-37.06 1.472-45.44"/></g></g><path d="M767.537 121.26c6.142-9.484 9.43-16.982 11.185-22.056s5.702-7.72 11.405-9.263c4.97-1.154 7.817-5.414 6.21-8.853-11.807 8.127-25.42 6.84-29.236-.852-2.414 4.632.876 6.837 3.728 8.6s5.92 2.87 2.85 7.72-16.26 20.273-19.112 24.022c-1.654 1.886 1.543 7.457 2.42 10.988 2.867-4.375 10.55-10.528 10.55-10.308" class="E"/><path d="M767.537 121.26c6.142-9.484 9.43-16.982 11.185-22.056s5.702-7.72 11.405-9.263c4.97-1.154 7.817-5.414 6.21-8.853-11.807 8.127-25.42 6.84-29.236-.852-2.414 4.632.876 6.837 3.728 8.6s5.92 2.87 2.85 7.72-16.26 20.273-19.112 24.022c-1.654 1.886 1.543 7.457 2.42 10.988 2.867-4.375 10.55-10.528 10.55-10.308z" class="B C D"/><use xlink:href="#F" class="E"/><use xlink:href="#F" class="B C D"/><path d="M718.513 258.796c-.617 2.997-1.278 11.15-1.374 13.793.85.24 3.717-12.34 3.717-12.34l1.535 14 2.913-13.415 2.027 14.053 2.47-13.77 2.925 13.645 1.365-13.662 3.814 13.474.09-13.8 4.762 12.285-.182-13.373s4.125 10.98 4.628 10.5c-.44-2.362-2.337-11.237-3.656-13.256-5.482 1.544-25.036 1.86-25.036 1.86" class="E"/><path d="M718.513 258.796c-.617 2.997-1.278 11.15-1.374 13.793.85.24 3.717-12.34 3.717-12.34l1.535 14 2.913-13.415 2.027 14.053 2.47-13.77 2.925 13.645 1.365-13.662 3.814 13.474.09-13.8 4.762 12.285-.182-13.373s4.125 10.98 4.628 10.5c-.44-2.362-2.337-11.237-3.656-13.256-5.482 1.544-25.036 1.86-25.036 1.86z" class="B C D"/><path d="M718.41 253.437c1.974-6.176 8.334-3.75 8.992-.44.657 1.764-5.482.44-8.992.44" class="E"/><path d="M718.41 253.437c1.974-6.176 8.334-3.75 8.992-.44.657 1.764-5.482.44-8.992.44z" class="B C D"/><path d="M720.207 49.264c3.736 4.473 14.943 6.262 19.925 2.325s7.115-5.366 11.385-5.724c1.245 6.62 7.65 13.954 7.472 16.102-5.514 6.977-5.694 10.913-9.073 12.88-2.718 1.438-5.326 1.73-6.582 7.515-3.368 15.506-24.728 6.976-25.44 2.683-.833-3.862-.89-6.26-6.225-11.093s-8.54-8.944-6.404-14.85-.712-14.312 6.582-14.133c4.98 1.073 8.36 4.294 8.36 4.294"/><path d="M720.207 49.264c3.736 4.473 14.943 6.262 19.925 2.325s7.115-5.366 11.385-5.724c1.245 6.62 7.65 13.954 7.472 16.102-5.514 6.977-5.694 10.913-9.073 12.88-2.718 1.438-5.326 1.73-6.582 7.515-3.368 15.506-24.728 6.976-25.44 2.683-.833-3.862-.89-6.26-6.225-11.093s-8.54-8.944-6.404-14.85-.712-14.312 6.582-14.133c4.98 1.073 8.36 4.294 8.36 4.294z" class="B C F"/><path d="M808.976 55.346c-.533 7.872-4.44 15.258-10.14 16.64-3.75 1.06-4.626 6.62-7.47 10.198s-18.68 5.367-20.637 1.073-2.313-6.44-4.624-8.588-3.38-4.83-6.048-13.06c-11.386-15.923-10.04-19.83 0-11.808 2.946 2.355 18.5 3.936 21.346.716 3.736-4.83 12.808-7.156 16.723-2.327 2.5 2.327 7.65 4.294 10.85 7.156"/><g class="B"><g class="C F"><path d="M808.976 55.346c-.533 7.872-4.44 15.258-10.14 16.64-3.75 1.06-4.626 6.62-7.47 10.198s-18.68 5.367-20.637 1.073-2.313-6.44-4.624-8.588-3.38-4.83-6.048-13.06c-11.386-15.923-10.04-19.83 0-11.808 2.946 2.355 18.5 3.936 21.346.716 3.736-4.83 12.808-7.156 16.723-2.327 2.5 2.327 7.65 4.294 10.85 7.156z"/><path d="M786.03 66.26c-.353-2.933-4.15-5.937-6.66-7.065l-.65-.28m17.626 8.955c1.24-2.493 1.666-3.465 3.687-5.664 2.104-2.3 4.424-4.74 7.04-6.392.253-.16.404-.132.7-.108m-88.81 18.962c1.353-1.814 5.615-5.837 1.8-7.46-1.547-.658-2.64-1.12-4.348-1.126m9.31-5.368c1.425-2.866 4.086-4.444 6.425-6.45m-72.602 1.976c2.106 0 8.77 3.727 10.968 4.704a172.06 172.06 0 0 0-1.096-1.353c-2.132-2.625-2.782-5.86-4.375-8.752"/></g><g stroke="#002395" class="H I"><path d="M645.404 50.708c5.888 4.9 12.305 3.004 17.543-1.836m19.64.085c-6.3-6.52-12.597-6.602-19.662-.08m19.594.103c6.256 6.604 12.47 6.562 19.533.04m19.64.086c-6.3-6.52-12.597-6.602-19.66-.08m19.592.1c6.256 6.602 12.47 6.56 19.534.04m19.642.085c-6.3-6.52-12.598-6.602-19.662-.08m19.592.1c6.255 6.602 12.47 6.562 19.533.04m19.64.087c-6.3-6.52-12.597-6.603-19.66-.08m19.592.1c2.417 2.557 5.526 4.824 9.172 4.937"/></g></g><g class="C D E"><path d="M743.827 211.872c-2.322-1.167-7.046-5.138-5.825-4.187m45.594-14.145c0-3.938.415.307-.908-6.245"/><path d="M772.826 187.7c-1.7-3.416-.88-.684-.836-6.83a53.91 53.91 0 0 0 .006-.656m-9.838 7.536c-.052-2.56-.104-9.557.156-10.383m-8.648 10.333l-.207-7.98m-75.28 14.645c1.657-5.655.725-22.748-.064-26.764m11.032 20.1c1.115-3.364.2-7.407.104-10.938m9 10.208c.726-2.292.104-5.834.104-9.063m8.18 8.96v-6.86"/></g><g class="B"><g stroke="#fff" class="H I"><path d="M640.712 38.13c6.2 4.9 12.938 3.005 18.446-1.835m20.652.085c-6.623-6.52-13.246-6.602-20.675-.08m20.603.1c6.578 6.604 13.1 6.562 20.54.04m20.652.087c-6.622-6.52-13.245-6.602-20.673-.08m20.6.1c6.578 6.603 13.112 6.562 20.54.04m20.653.086c-6.623-6.52-13.245-6.602-20.674-.08m20.6.1c6.578 6.602 13.1 6.562 20.54.04m20.65.085c-6.623-6.52-13.246-6.603-20.673-.082m20.6.104c2.542 2.557 5.812 4.823 9.645 4.937"/></g><g stroke="#960" stroke-width="2"><path d="M551.83 600V0"/><path d="M551.83 300H900"/></g></g></g></g></svg>