<svg xmlns="http://www.w3.org/2000/svg" xmlns:xlink="http://www.w3.org/1999/xlink" width="600" height="300" xmlns:v="https://vecta.io/nano"><style><![CDATA[.B{stroke:#000}.C{fill:none}.D{stroke-width:.465}.E{fill:#fff}.F{fill:#ccc}.G{fill:#e6e6e6}.H{baseline-shift:baseline}.I{fill:#eac634}.J{fill:#f1dc79}.K{fill:#d71e1e}.L{fill:#97141c}.M{fill:#cf142b}.N{word-spacing:normal}.O{direction:ltr}.P{writing-mode:lr-tb}.Q{fill:#e1bb16}.R{fill:#edd05c}.S{fill-rule:evenodd}.T{stroke-width:.598}.U{stroke-width:.653}.V{stroke-linejoin:round}]]></style><path d="M0 0h600v300H0z" class="E S"/><path id="A" d="M0 120h600v60H0z" class="M S"/><use transform="matrix(0 .5 -1 0 450 0)" width="600" height="300" xlink:href="#A" class="M"/><g class="B D"><path d="M330.052 96.2c0 2.986-13.455 5.407-30.05 5.407s-30.05-2.42-30.05-5.407 13.455-5.407 30.05-5.407 30.05 2.42 30.05 5.407z" fill="#888"/><path d="M325.445 96.2c0 1.477-11.39 2.674-25.443 2.674s-25.443-1.197-25.443-2.674 11.39-2.674 25.443-2.674 25.443 1.197 25.443 2.674z" fill="#731818"/></g><path d="M300 223.47l-19.286-40.066-44.34 3.33L261.427 150l-25.055-36.735 44.34 3.33L300 76.53l19.286 40.066 44.34-3.33L338.573 150l25.055 36.735-44.34-3.33z" stroke="#2c1317" class="E"/><use xlink:href="#C" class="K"/><path d="M275.56 55.274c-1.33-.09-3.627 1.3-4.282 2.424-.544.934-.678 1.5-.67 2.58.005.888.203 1.754.72 2.475.552.767 1.272 1.4 2.167 1.703 1.1.375 2.68.546 3.817.258 1.604-.408 3.27-1.655 4.643-2.58 2.322-1.565 3.805-2.842 6.344-4.023 2.16-1.005 7.48-1.6 7.48-1.6l.103.104-.206-2.58-4.075.517-3.353.98-2.528 1.34-3.043 1.394-4.385-2.425-1.96-.516-.774-.05z" fill="#de4f40"/><path d="M283.245 58.42l-3.095 2.476c-.808.647-1.87 1.267-2.89 1.445-1.203.2-2.814.365-3.662-.465-1.404-1.373-.964-2.653.206-3.56.7-.533 2.395-.632 3.25-.464 1.036.203 1.948 1.243 2.807 1.33l.806.082 2.577-.845z" class="L"/><use xlink:href="#C" class="B C D"/><path d="M298.293 61.028s-4.81 1.296-7.872 2.697c-2.802 1.282-8.26 4.943-11.315 5.353-7.415.74-9.24-1.293-11.682-4.612l.404 8.922 5.2 10.508 12.526.106 12.525-3.184 1.805-10.827-1.592-8.963z" fill="#ba1b24"/><path d="M267.5 72.22s6.78 4.654 10.03 5.188c3.832.63 6.9-.07 10.628-1.123 4.16-1.172 11.6-6.613 11.6-6.613l-1.804 11.252-13.905 3.503-10.827-.318-5.308-10.2-.424-1.7z" class="L"/><use xlink:href="#D" class="K"/><path d="M324.44 55.274c1.33-.09 3.627 1.3 4.282 2.424.544.934.678 1.5.67 2.58-.005.888-.203 1.754-.72 2.475-.552.767-1.272 1.4-2.167 1.703-1.1.375-2.68.546-3.817.258-1.604-.408-3.27-1.655-4.643-2.58-2.322-1.565-3.805-2.842-6.344-4.023-2.16-1.005-7.48-1.6-7.48-1.6l-.103.104.206-2.58 4.075.517 3.353.98 2.528 1.34 3.043 1.394 4.385-2.425 1.96-.516.774-.05z" fill="#de4f40"/><path d="M316.755 58.42l3.095 2.476c.808.647 1.87 1.267 2.89 1.445 1.203.2 2.814.365 3.662-.465 1.404-1.373.964-2.653-.206-3.56-.7-.533-2.395-.632-3.25-.464-1.036.203-1.948 1.243-2.807 1.33l-.806.082-2.577-.845z" class="L"/><use xlink:href="#D" class="B C D"/><path d="M301.707 61.028s4.81 1.296 7.872 2.697c2.802 1.282 8.26 4.943 11.315 5.353 7.415.74 9.24-1.293 11.682-4.612l-.404 8.922-5.2 10.508-12.526.106-12.525-3.184-1.805-10.827 1.592-8.963z" fill="#ba1b24"/><path d="M332.5 72.22s-6.78 4.654-10.03 5.188c-3.832.63-6.9-.07-10.628-1.123-4.16-1.172-11.6-6.613-11.6-6.613l1.804 11.252 13.905 3.503 10.827-.318 5.308-10.2.424-1.7z" class="L"/><g letter-spacing="normal" class="N O P H"><use xlink:href="#E" class="Q"/><path d="M300.26 43.226l.03-1.577 3.782.264c8.675.954 16.296 4.108 22.096 8.338 6.628 4.834 10.993 11.085 11.462 17.424l-1.298.22c-3.345-11.516-12.183-21.693-36.072-24.67z" class="J"/><use xlink:href="#E" class="B C D"/></g><use xlink:href="#F" class="F"/><use xlink:href="#G" class="G"/><path d="M343.43 61.624a2.12 2.13 3.992 1 1-4.232-.295 2.12 2.13 3.992 1 1 4.231.295z" class="E"/><use xlink:href="#F" class="B C D"/><use xlink:href="#H" class="F"/><use xlink:href="#G" x="-3.372" y="-6.687" class="G"/><use xlink:href="#I" class="E"/><use xlink:href="#H" class="B C D"/><use xlink:href="#F" x="-8.204" y="-12.244" class="F"/><use xlink:href="#J" class="G"/><use xlink:href="#I" x="-4.831" y="-5.557" class="E"/><use xlink:href="#F" x="-8.204" y="-12.244" class="B C D"/><use xlink:href="#F" x="-14.366" y="-16.733" class="F"/><use xlink:href="#J" x="-6.162" y="-4.489" class="G"/><use xlink:href="#K" class="E"/><use xlink:href="#F" x="-14.366" y="-16.733" class="B C D"/><use xlink:href="#F" x="-21.055" y="-20.582" class="F"/><use xlink:href="#J" x="-12.851" y="-8.338" class="G"/><use xlink:href="#I" x="-17.682" y="-13.894" class="E"/><use xlink:href="#F" x="-21.055" y="-20.582" class="B C D"/><use xlink:href="#F" x="-28.436" y="-22.837" class="F"/><use xlink:href="#G" x="-28.435" y="-22.835" class="G"/><use xlink:href="#K" x="-14.07" y="-6.104" class="E"/><use xlink:href="#F" x="-28.436" y="-22.837" class="B C D"/><g letter-spacing="normal" class="N O P H"><use xlink:href="#L" class="Q"/><path d="M299.74 43.226l-.03-1.577-3.782.264c-8.675.954-16.296 4.108-22.096 8.338-6.628 4.834-10.993 11.085-11.462 17.424l1.298.22c3.345-11.516 12.183-21.693 36.072-24.67z" class="J"/><use xlink:href="#L" class="B C D"/></g><use xlink:href="#M" class="F"/><use xlink:href="#N" class="G"/><path d="M256.57 61.624a2.12 2.13-3.992 1 1 4.232-.295 2.12 2.13-3.992 1 1-4.231.295z" class="E"/><use xlink:href="#M" class="B C D"/><use xlink:href="#O" class="F"/><use xlink:href="#N" x="3.372" y="-6.687" class="G"/><path d="M259.944 54.937a2.12 2.13-3.992 1 1 4.232-.295 2.12 2.13-3.992 1 1-4.232.295z" class="E"/><use xlink:href="#O" class="B C D"/><use xlink:href="#M" x="8.204" y="-12.244" class="F"/><use xlink:href="#P" class="G"/><use xlink:href="#Q" class="E"/><use xlink:href="#M" x="8.204" y="-12.244" class="B C D"/><use xlink:href="#M" x="14.366" y="-16.733" class="F"/><use xlink:href="#P" x="6.162" y="-4.489" class="G"/><use xlink:href="#R" class="E"/><use xlink:href="#M" x="14.366" y="-16.733" class="B C D"/><use xlink:href="#M" x="21.055" y="-20.582" class="F"/><use xlink:href="#P" x="12.851" y="-8.338" class="G"/><use xlink:href="#Q" x="12.851" y="-8.337" class="E"/><use xlink:href="#M" x="21.055" y="-20.582" class="B C D"/><use xlink:href="#M" x="28.436" y="-22.837" class="F"/><use xlink:href="#N" x="28.435" y="-22.835" class="G"/><use xlink:href="#R" x="14.07" y="-6.104" class="E"/><use xlink:href="#M" x="28.436" y="-22.837" class="B C D"/><path d="M298.35 22.372c-.52-2.46-2.735-4.38-4.892-6.316 4.384.472 8.767.33 13.15 0-1.98 2.02-4.808 3.802-5.007 6.316 2.553-1.107 4.198-3.348 6.163-5.19-.466 3.706-.145 7.41 0 11.117-1.953-1.567-3.618-3.554-6.163-4.257.757 2.3 2.62 4.066 5.056 5.56h-13.346c2.21-1.545 4.213-3.226 5.038-5.56-2.425.782-4.168 2.806-6.115 4.46.343-3.74.304-7.478 0-11.218 1.875 2.036 3.623 4.336 6.115 5.088z" class="B D R"/><use xlink:href="#S" class="F"/><use xlink:href="#T" class="G"/><use xlink:href="#U" class="E"/><g class="B D"><use xlink:href="#S" class="C"/><path d="M307.9 37.682c0 4.363-3.537 7.9-7.9 7.9s-7.9-3.537-7.9-7.9 3.537-7.9 7.9-7.9 7.9 3.537 7.9 7.9z" class="I"/></g><path d="M303.128 35.363a4.518 4.387 0 1 1-9.037 0 4.518 4.387 0 1 1 9.037 0z" class="J"/><use xlink:href="#V" class="I"/><path d="M291.83 37.137l7.873-.07.342-8.146-1.506.48-.137 6.23-5.477-.07-1.095 1.164v.4zm9.584-1.37l.01 1.408 6.768.03v-.754l-1.095-.958-5.477-.07-.206.343z" class="J"/><use xlink:href="#V" class="B C D"/><g transform="matrix(.77757 0 0 .77757 152.857 16.395)" class="T"><rect width="14.761" height="18.541" ry="2.603" x="181.705" y="34.911" fill="#f3d948" stroke="#333"/><g class="B I"><rect width="4.058" height="21.257" ry="2.029" x="180.856" y="33.971"/><rect width="4.058" height="21.257" ry="2.029" x="193.557" y="33.971"/></g></g><use xlink:href="#W" class="F"/><use xlink:href="#X" class="G"/><use xlink:href="#Y" class="E"/><use xlink:href="#W" class="B C D"/><use xlink:href="#W" y="4.903" class="F"/><use xlink:href="#X" y="4.9" class="G"/><use xlink:href="#Y" y="4.902" class="E"/><use xlink:href="#W" y="4.903" class="B C D"/><use xlink:href="#W" y="10.247" class="F"/><use xlink:href="#X" y="10.246" class="G"/><use xlink:href="#Y" y="10.238" class="E"/><use xlink:href="#W" y="10.247" class="B C D"/><path d="M271.2 92.75s-3.82-12.47-6.557-18.366l-4.098-8.206 5.6-3.237 2.887-.404c-1.42 3.784-1.32 6.43-1.348 9.172 2.973-.513 4.34-2.77 5.935-4.317l1.888 7.96c-2.977-1.323-4.962-.66-6.88.134 0 0 1.23 2.403 2.16 3.238 1.063.955 2.235 1.5 3.642 1.753 1.33.24 2.83.32 4.046-.27 2.562-1.244 3.867-3.956 3.507-3.776 0 0 .257-2.38-.404-3.238-.496-.64-1.513-1.162-2.293-.944-1.23.345-1.89 3.103-1.89 3.103s-1.183-2.348-1.483-3.642c-.265-1.14-.66-2.462-.135-3.507.39-.78 1.3-1.325 2.158-1.484 1.136-.2 3.237.8 3.237.8s-.627-2.115-.8-3.238c-.093-.577.047-1.348.27-1.888.51-1.234 2.024-2.293 1.844-2.3s1.546.647 2.345 1.717c.35.47.674 1.182.725 1.764.1 1.133.012 3.337.012 3.337s1.785-1.505 2.94-1.58c.87-.057 1.885.247 2.456.907.766.885.708 2.263.732 3.433.026 1.328-.543 3.895-.543 3.895s-1.316-2.512-2.593-2.543c-.8-.02-1.67.735-2 1.48-.43.993.403 3.237.403 3.237 5.047 3.94 10.27-.1 11.34-4.04v-1.483c-2.113.29-3.012.662-5.125 3.102l-.675-9.846c2.023 1.83 3.777 2.486 5.8 2.158-.2-2.86-1.624-4.135-3.96-6.638l2.293-.675h6.863l2.293.675c-2.336 2.503-3.943 3.777-4.133 6.638 2.023.328 3.777-.33 5.8-2.158l-.675 9.846c-2.113-2.44-3.012-2.81-5.125-3.102v1.484c1.07 3.938 6.293 7.98 11.34 4.04 0 0 .834-2.245.404-3.238-.322-.744-1.18-1.5-2-1.48-1.278.032-2.594 2.544-2.594 2.544s-.57-2.567-.543-3.895c.024-1.17-.034-2.548.732-3.433.57-.66 1.585-.964 2.456-.907 1.154.075 2.94 1.58 2.94 1.58s-.09-2.204.01-3.337c.052-.582.377-1.295.726-1.764.8-1.07 2.525-1.725 2.345-1.718s1.333 1.067 1.844 2.3c.223.54.363 1.312.27 1.9-.183 1.122-.8 3.236-.8 3.236s2.1-1.02 3.237-.81c.86.16 1.767.703 2.158 1.484.525 1.045.13 2.367-.135 3.507-.3 1.294-1.483 3.642-1.483 3.642s-.658-2.758-1.89-3.103c-.78-.218-1.797.303-2.293.944-.66.858-.404 3.238-.404 3.238-.36-.18.945 2.532 3.507 3.776 1.216.6 2.716.51 4.046.27 1.407-.252 2.58-.798 3.642-1.753.93-.835 2.158-3.238 2.158-3.238-1.917-.795-3.902-1.457-6.88-.134l1.888-7.96c1.596 1.546 2.962 3.804 5.935 4.317-.028-2.742.07-5.388-1.348-9.172l2.62.482 5.877 3.16s-2.765 5.336-4.098 8.205c-2.738 5.896-6.558 18.366-6.558 18.366l-.118.336c-19.54-4.374-38.638-3.864-57.46-.336z" class="I"/><path d="M280.64 91.247l-9.428 1.503s-3.82-12.47-6.558-18.366l-4.098-8.206 5.6-3.237 2.887-.404c-1.42 3.784-1.32 6.43-1.348 9.172 2.973-.513 4.34-2.77 5.935-4.317l1.888 7.96c-2.977-1.323-4.962-.66-6.88.134 0 0 1.23 2.403 2.16 3.238 1.063.955 2.235 1.5 3.642 1.753 1.33.24 2.83.32 4.046-.27l2.145 11.04zm40.867-11.04c1.216.6 2.716.508 4.046.27 1.407-.253 2.58-.8 3.642-1.754.93-.835 2.158-3.238 2.158-3.238-1.917-.795-3.902-1.457-6.88-.134l1.888-7.96c1.596 1.546 2.962 3.804 5.935 4.317-.028-2.742.07-5.388-1.348-9.172l2.62.482 5.877 3.16s-2.765 5.336-4.098 8.205c-2.738 5.896-6.558 18.366-6.558 18.366l-.118.336a128.602 128.602 0 0 0-10.532-1.9l-.308.282 3.675-11.262z" class="Q"/><path d="M276.776 91.798a176.14 176.14 0 0 0-5.565.952s-3.82-12.47-6.558-18.366l-4.098-8.206 5.6-3.237 2.887-.404c-1.42 3.784-1.32 6.43-1.348 9.172 2.973-.513 4.34-2.77 5.935-4.317l1.888 7.96c-2.977-1.323-4.962-.66-6.88.134 0 0 1.23 2.403 2.16 3.238 1.063.955 2.235 1.5 3.642 1.753l2.328 11.322zm48.776-11.322c1.407-.252 2.58-.798 3.642-1.753.93-.835 2.158-3.238 2.158-3.238-1.917-.795-3.902-1.457-6.88-.134l1.888-7.96c1.596 1.546 2.962 3.804 5.935 4.317-.028-2.742.07-5.388-1.348-9.172l2.62.482 5.877 3.16s-2.765 5.336-4.098 8.205c-2.738 5.896-6.558 18.366-6.558 18.366l-.118.336a128.575 128.575 0 0 0-5.705-1.142l-.25-.256 2.836-11.212z" fill="#c6ad18"/><path d="M306.25 90.072l.742-12.953c-2.62-.744-4.685-3.095-5.314-5.4v-1.484c2.113.29 3.012.662 5.125 3.102l.675-9.846c-2.023 1.83-3.777 2.486-5.8 2.158.2-2.86 1.7-4.077 4.046-6.58l-2.293-.675h-6.862l-2.293.674c2.335 2.504 3.856 3.72 4.046 6.58-2.023.33-3.777-.328-5.8-2.157l.675 9.846c2.113-2.44 3.012-2.81 5.125-3.102v1.484c-.633 2.33-2.72 4.695-5.362 5.423l.818 12.94c4.172-.16 8.44-.178 12.47 0z" class="R"/><path d="M336.144 72.137c-.648 1.294-.322 1.226-.797 2.247-2.738 5.896-6.558 18.366-6.558 18.366l-.118.336-2.822-.598-.133-.037 7.995-21.46c-.973.018 3.116 1.222 2.433 1.145zm-62.347 20.148l-2.586.465s-3.82-12.47-6.558-18.366c-.573-1.234-.3-.54-1.06-2.066l2.972-1.08 7.23 21.048z" fill="#b39d17"/><path d="M260.267 66.28l1.983 3.418 5.535-2.267 1.344-4.763h-2.516l-6.346 3.6zm79.366.04l-1.983 3.42-5.676-2.408-1.203-4.623h2.516l6.346 3.6z" class="I"/><path d="M269.786 75.25l-1.313-3.72 1.64-.656 3.282-3.283 2.08 7.878-2.955-.875h-1.532l-1.203.656zm60.274-.067l1.312-3.72-1.64-.657-3.283-3.282-2.08 7.878 2.955-.876h1.532l1.203.657z" fill="#d2b225"/><path d="M271.536 70l1.532 4.266 2.517 1.204-1.86-7.987-2.2 2.516zm57.046-.014l-1.532 4.267-2.516 1.203 1.86-7.987 2.188 2.517z" class="I"/><path d="M261.36 67.373l7.332-2.954.437-1.75h-2.954l-5.8 3.6.985 1.094zm77.234-.013l-7.33-2.955-.438-1.75 2.764.38 6 3.23-.985 1.095zM278 73.328s-.584-2.098-.28-3.085c.165-.54.53-1.16 1.074-1.308 1.38-.373 4.02 1.495 4.02 1.495s-.722-3.294-.608-4.954c.054-.788.608-2.3.608-2.3s.835.996 1.075 1.6c.706 1.745.98 5.562.98 5.562s1.967-2.172 3.272-2.15c.648.01 1.28.552 1.6 1.122.38.698.093 2.383.093 2.383l1.542 1.963.327-5.75-.794-1.822-2-.748-1.402.233-1.917 1.356-.046-3.74-.795-1.542-2.056-1.73-1.823 2.243-.56 2 .935 3.46-2.85-.84-1.543.233-1.262 1.496.187 2.7 1.776 4.02.468-1.916zm43.993-.188s.584-2.098.28-3.085c-.165-.54-.53-1.16-1.074-1.308-1.38-.373-4.02 1.495-4.02 1.495s.722-3.294.608-4.954c-.055-.788-.608-2.3-.608-2.3s-.835.996-1.075 1.6c-.707 1.745-.982 5.562-.982 5.562s-1.966-2.172-3.27-2.15c-.65.01-1.28.552-1.6 1.12-.38.7-.093 2.384-.093 2.384l-1.542 1.963-.327-5.75.794-1.823 2-.747 1.402.233 1.916 1.356.047-3.74.795-1.542 2.056-1.73 1.823 2.244.56 2-.934 3.46 2.85-.84 1.543.233 1.262 1.496-.187 2.7-1.777 4.02-.467-1.916z" class="R"/><path d="M304.827 59.84l1.07-.7-2.335-.89-6.556.223-2.667.555 1.246 1.152 2.93-.438.107 10.734v16.1l3.435.107-.75-27.157 3.522.3z" class="J"/><path d="M271.2 92.75s-3.82-12.47-6.557-18.366l-4.098-8.206 5.6-3.237 2.887-.404c-1.42 3.784-1.32 6.43-1.348 9.172 2.973-.513 4.34-2.77 5.935-4.317l1.888 7.96c-2.977-1.323-4.962-.66-6.88.134 0 0 1.23 2.403 2.16 3.238 1.063.955 2.235 1.5 3.642 1.753 1.33.24 2.83.32 4.046-.27 2.562-1.244 3.867-3.956 3.507-3.776 0 0 .257-2.38-.404-3.238-.496-.64-1.513-1.162-2.293-.944-1.23.345-1.89 3.103-1.89 3.103s-1.183-2.348-1.483-3.642c-.265-1.14-.66-2.462-.135-3.507.39-.78 1.3-1.325 2.158-1.484 1.136-.2 3.237.8 3.237.8s-.627-2.115-.8-3.238c-.093-.577.047-1.348.27-1.888.51-1.234 1.326-1.886 1.844-2.592.693.69 1.546.94 2.345 2 .35.468.674 1.18.725 1.763.1 1.133.012 3.337.012 3.337s1.785-1.505 2.94-1.58c.87-.057 1.885.247 2.456.907.766.885.708 2.263.732 3.433.026 1.328-.543 3.895-.543 3.895s-1.316-2.512-2.593-2.543c-.8-.02-1.67.735-2 1.48-.43.993.403 3.237.403 3.237 5.047 3.94 10.27-.1 11.34-4.04v-1.483c-2.113.29-3.012.662-5.125 3.102l-.675-9.846c2.023 1.83 3.777 2.486 5.8 2.158-.2-2.86-1.7-4.074-4.046-6.577l2.293-.674h6.862l2.293.674c-2.335 2.503-3.856 3.716-4.046 6.577 2.023.328 3.777-.33 5.8-2.158l-.675 9.846c-2.113-2.44-3.012-2.81-5.125-3.102v1.484c1.07 3.938 6.293 7.98 11.34 4.04 0 0 .834-2.245.404-3.238-.322-.744-1.18-1.5-2-1.48-1.278.032-2.594 2.544-2.594 2.544s-.57-2.567-.543-3.895c.024-1.17-.034-2.548.732-3.433.57-.66 1.585-.964 2.456-.907 1.154.075 2.94 1.58 2.94 1.58s-.09-2.204.01-3.337c.052-.582.377-1.295.726-1.764.8-1.07 1.303-1.55 2.113-2.358.6.755 1.565 1.707 2.076 2.94.223.54.363 1.312.27 1.9-.183 1.122-.8 3.236-.8 3.236s2.1-1.02 3.237-.81c.86.16 1.767.703 2.158 1.484.525 1.045.13 2.367-.135 3.507-.3 1.294-1.483 3.642-1.483 3.642s-.658-2.758-1.89-3.103c-.78-.218-1.797.303-2.293.944-.66.858-.404 3.238-.404 3.238-.36-.18.945 2.532 3.507 3.776 1.216.6 2.716.51 4.046.27 1.407-.252 2.58-.798 3.642-1.753.93-.835 2.158-3.238 2.158-3.238-1.917-.795-3.902-1.457-6.88-.134l1.888-7.96c1.596 1.546 2.962 3.804 5.935 4.317-.028-2.742.07-5.388-1.348-9.172l2.62.482 5.877 3.16-2.342 4.6-1.756 3.605c-2.738 5.896-6.558 18.366-6.558 18.366l-.118.336c-19.54-4.374-38.638-3.864-57.46-.336z" class="B C D"/><g letter-spacing="normal" class="N O P"><use xlink:href="#Z" class="E"/><path d="M271.225 97.022c19.892-4.364 39.058-3.947 57.83.02 1.07.353 2.186-1.85 2.657-2.834-26.883-6.7-42.873-4.9-63.624 0-.186-.72-.29.438.582 1.452.596.695 2.1 1.255 2.555 1.362z" class="F"/><use xlink:href="#Z" class="B C D"/></g><path d="M296.5 91.766s2.543-1.044 3.884-1.3c1.38-.264 4.208-.23 4.208-.23l-1.58-.792s-1.515-.232-2.797-.626c-.732-.226-1.587-.623-2.318-.655-.93-.04-2.256.325-2.256.325l2.5.63-1.28.37c-.393.14-1.465.72-1.465.72l2.86.025s-.83.4-1.163.697c-.253.232-.605.836-.605.836zm-11.708.704s2.4-1.36 3.686-1.786c1.334-.438 4.144-.767 4.144-.767l-1.67-.583s-1.53-.036-2.852-.264c-.755-.13-1.654-.414-2.383-.352-.93.078-2.196.6-2.196.6l2.57.303-1.22.532c-.372.187-1.36.9-1.36.9l2.838-.34s-.773.494-1.064.84c-.22.263-.493.907-.493.907zm23.528-.114s2.602-.888 3.955-1.063c1.394-.18 4.215.024 4.215.024l-1.53-.885s-1.498-.324-2.753-.795c-.717-.27-1.546-.717-2.274-.793-.927-.097-2.27.187-2.27.187l2.468.78-1.3.293c-.4.115-1.505.63-1.505.63l2.853.198s-.852.34-1.203.625c-.267.217-.654.8-.654.8zm-34.978 1.524s2.212-1.63 3.45-2.204c1.275-.6 4.027-1.246 4.027-1.246l-1.726-.384s-1.525.143-2.864.072c-.765-.04-1.7-.218-2.408-.072-.913.187-2.1.863-2.1.863h2.588l-1.15.67c-.347.23-1.246 1.054-1.246 1.054l2.78-.67s-.7.58-.96.958c-.2.287-.383.96-.383.96zm46.713-.232s2.68-.614 4.044-.648c1.404-.034 4.2.46 4.2.46l-1.43-1.038s-1.456-.477-2.656-1.075c-.686-.343-1.464-.874-2.18-1.025-.912-.193-2.278-.05-2.278-.05l2.374 1.03-1.323.158c-.4.072-1.563.47-1.563.47l2.818.492s-.883.25-1.262.498c-.288.188-.733.726-.733.726z"/><g transform="matrix(.77757 0 0 .77757 165.732 1.269)"><rect width="12.202" height="7.05" ry="2.249" x="166.576" y="98.883" fill="#1d369e"/><path d="M168.265 104.495l-.058-3.238.867-.752 7.575-.058 1.04 1.62-.057 2.08h1.098l.058-3.4-1.387-1.967-9.02.116-1.678 1.272.058 3.816.578.694.926-.173z" fill="#4163ef"/><path d="M166.935 102.933l2.08 1.388 7.17.058.925-.925.058-2.082 1.214-1.85.637 1.272-.3 3.758-1.156 1.562-8.847-.174-1.85-1.214-.3-.752.348-1.04z" fill="#2545cb"/><rect width="12.202" height="7.05" ry="2.249" x="166.576" y="98.883" class="B C T"/><rect width="3.812" height="1.598" ry=".752" x="168.944" y="101.06" fill="#5674f1"/></g><path d="M288.806 81.64a4.507 2.748-6.311 1 1-8.898 1.352 4.507 2.748-6.311 1 1 8.898-1.352z" fill="#2ca02c"/><path d="M279.936 83.253c3.826.666 6.976.396 8.133-2.634l.774.89v1.278l-1.936 1.5-2.44.814-3.02-.504-1.51-1.355z" fill="#237f23"/><path d="M279.975 82.556c1.697-1.447 4.038-2.177 6.66-2.595l-2.168-.503-2.478.58-1.5 1.278-.504 1.24z" fill="#32b532"/><use xlink:href="#a" transform="matrix(.77038 -.11702 .14164 .63647 152.728 33.757)" class="B C U"/><path d="M284.4 81.568a1.394.716 0 1 1-2.789 0 1.394.716 0 1 1 2.789 0z" fill="#6cd66c"/><use xlink:href="#b" class="K"/><path d="M265.574 85.543l1 1.333 2.917.75 4.417-3.5c-2.57.714-4.542 2.127-8.334 1.417z" fill="#9b1616"/><path d="M265.408 83.96c2.722-1.604 5.445-.277 8.167-.084l-6.584-2.417-1.167 1.25-.416 1.25z" fill="#e43a3a"/><path d="M268.24 83.75a1.083.792 0 1 1-2.167 0 1.083.792 0 1 1 2.167 0z" fill="#ed7676"/><use xlink:href="#b" class="B C D"/><path d="M311.194 81.64a2.748 4.507-83.689 1 1 8.898 1.352 2.748 4.507-83.689 1 1-8.898-1.352z" fill="#2ca02c"/><path d="M320.064 83.253c-7.025 1.3-7.375-.5-8.907-1.743v1.278l1.936 1.5 2.44.814 3.02-.504 1.51-1.355z" fill="#237f23"/><path d="M320.025 82.556c-1.697-1.447-5.48-1.567-8.103-1.985l3.6-1.113 2.48.58 1.5 1.278.503 1.24z" fill="#32b532"/><use xlink:href="#a" transform="matrix(-.77038 -.11702 -.14164 .63647 447.272 33.757)" class="B C U"/><path d="M313 81.395a.716 1.394 90 1 1 2.788 0 .716 1.394 90 1 1-2.789 0z" fill="#6cd66c"/><use xlink:href="#c" class="K"/><path d="M334.426 85.543l-1 1.333-2.917.75-4.417-3.5c2.57.714 4.542 2.127 8.334 1.417z" fill="#9b1616"/><path d="M334.592 83.96c-2.722-1.604-5.445-.277-8.167-.084l6.584-2.417 1.167 1.25.416 1.25z" fill="#e43a3a"/><path d="M331.76 83.75a.792 1.083 90 1 1 2.167 0 .792 1.083 90 1 1-2.167 0z" fill="#ed7676"/><use xlink:href="#c" class="B C D"/><use xlink:href="#S" y="45.016" class="F"/><use xlink:href="#T" y="45.017" class="G"/><use xlink:href="#U" y="45.018" class="E"/><use xlink:href="#S" y="45.016" class="B C D"/><use xlink:href="#S" x="33.46" y="51.282" class="F"/><use xlink:href="#T" x="33.471" y="51.283" class="G"/><use xlink:href="#U" x="33.471" y="51.282" class="E"/><use xlink:href="#S" x="33.46" y="51.282" class="B C D"/><use xlink:href="#d" class="F"/><path d="M264.057 73.738a2.197 2.258 90 1 1 4.515 0 2.197 2.258 90 1 1-4.515 0z" class="G"/><use xlink:href="#U" x="-33.472" y="51.282" class="E"/><use xlink:href="#d" class="B C D"/><g stroke="#161111"><path d="M312.066 169.052c1.564-1.54 3.844-2.21 5.402-6.238 1.308-3.467 2.304-8.943 3.193-12.244.328-1.163.767-3.413 1.163-5.063.346-1.443.963-2.936 1.14-3.532.342-1.158.458-2.51.608-3.454.327-2.056.607-3.485-.944-3.332-1.62.16-2.09.4-2.76 1.376-.616.9-1.41 2.196-1.875 3.648-.637 2.1-1.096 3.994-1.663 5.46-.66 1.703-.78 1.47-1.738 3.492-1.323-1.76-1.417-3.178-1.744-5.625-.325-2.435-.593-5.025-.685-7.814l-.543-12.78c-.172-2.7.014-6.56-.617-8.548-.294-.927-.94-2.203-2.177-2.165-1.434.01-2.35 1.138-2.543 2.3-.14.926-.21 2.702-.265 3.902-.082 1.743-.07 3.237-.004 4.953.073 1.886.016 7.668-.022 9.55-.07 3.473-.5 3.664-1.145 3.62-.497-.415-.245-7.093-.442-12.86l-.17-7.087c-.03-1.624-.03-3.567-.204-4.828-.297-2.153-.93-3.54-2.492-3.54-1.053 0-1.925.035-2.407 2.43-.26 1.3-.37 4.44-.336 6.164l.1 5.713c.095 4.843.512 13.636-.643 13.856-1.012-.217-.862-2.12-1.04-6.72l-.32-7.004-.318-7.807c-.17-1.54-.32-3.606-2.26-3.43-1.018-.124-1.764.652-2.197 3.395-.242 1.528-.077 7.617.015 9.643.184 4.032.125 5.017.148 7.556.022 2.463.26 5.82-.658 5.877-1.105-.016-.788-1.796-.97-4.618l-.268-5.49c0-1.425-.176-3.52-.305-5.27-.1-1.367-.038-2.876-1.52-2.755-1.505.122-2.43.63-2.74 3.208-.202 1.67-.257 5.28-.3 6.587.162 3.328-.65 10.097-1.054 12.303-.1 1.563-.803 4.586-1.064 6.765-.562 4.7-.784 7.934-.164 10.745.488 2.453.834 4.37 1.783 6.338.88 1.827 2.53 3.577 2.892 5.08.708 2.93.377 8.59.377 10.966s2.065 2.505 6.34 1.585c6.99-1.506 10.808 1.505 16.58-.713-.732-6.576.694-10.53.657-12.907z" stroke-width="1.006" class="M V"/><g stroke-width="1.007" class="C"><path d="M302.522 162.7c.16-8.125 7.528-16.984 10.36-18.727m-20.86 5.385c2.177-.858 4.436-1.48 6.648-2.238 2.706-.763 5.327-1.858 8.12-2.3l5.938-1.223"/><g stroke-linecap="round" class="V"><path d="M287.82 170.452c.232.413.78.436 1.552.493l1.514.036 2.51.003c.722-.023 3.167-.492 4.986-.64 1.018-.082 1.83.158 2.36.194"/><path d="M299.475 170.346c.155.127 1.535.12 2.55.433.896.277 1.523.334 1.688.4.626.068.213.4 3.715.118 2.172.14 4.096-1.737 4.638-2.244"/></g></g></g><defs ><path id="C" d="M299.07 53.504s-5.243.426-7.413 1.098l-3.516 1.023c-2.978 1.178-5.408 2.684-5.408 2.684-3.382-2.26-6.372-3.876-10.32-2.915-1.382.336-3.14 1.75-3.957 2.915-1.027 1.462-1.228 3.43-1.236 5.217-.005 1.032.686 3.02.686 3.02l-1.647 5.766 6.04 11.532 7.826 2.06 19.22-2.06-.275-30.34z"/><path id="D" d="M300.93 53.504s5.243.426 7.413 1.098l3.516 1.023a38.18 38.18 0 0 1 5.408 2.684c3.382-2.26 6.372-3.876 10.32-2.915 1.382.336 3.14 1.75 3.958 2.915 1.026 1.462 1.227 3.43 1.235 5.217.005 1.032-.686 3.02-.686 3.02l1.647 5.766-6.04 11.532-7.826 2.06-19.22-2.06.275-30.34z"/><path id="E" d="M304.07 41.913c8.675.954 16.296 4.108 22.096 8.338 6.628 4.834 10.993 11.085 11.462 17.424l-4.26.324c-.336-4.524-3.8-9.983-9.72-14.295s-14.133-7.474-23.5-7.8l.14-4.265c1.28.043 2.542.127 3.78.264z"/><path id="F" d="M344.162 62.64a3.695 3.695 0 1 1-7.372-.514 3.695 3.695 0 1 1 7.372.514z"/><path id="G" d="M343.64 62.127a2.867 2.79 3.992 1 1-5.72-.4 2.867 2.79 3.992 1 1 5.72.4z"/><path id="H" d="M340.788 55.952a3.695 3.695 0 1 1-7.371-.515 3.695 3.695 0 1 1 7.371.515z"/><path id="I" d="M340.056 54.937a2.12 2.13 3.992 1 1-4.231-.295 2.12 2.13 3.992 1 1 4.23.295z"/><path id="J" d="M335.437 49.884a2.867 2.79 3.992 1 1-5.72-.399 2.867 2.79 3.992 1 1 5.72.4z"/><path id="K" d="M329.063 44.892a2.12 2.13 3.992 1 1-4.23-.295 2.12 2.13 3.992 1 1 4.23.295z"/><path id="L" d="M295.93 41.913c-8.675.954-16.296 4.108-22.096 8.338-6.628 4.834-10.993 11.085-11.462 17.424l4.26.324c.336-4.524 3.8-9.983 9.72-14.295s14.133-7.474 23.5-7.8l-.14-4.265c-1.28.043-2.542.127-3.78.264z"/><path id="M" d="M255.838 62.64a3.695 3.695 0 1 1 7.372-.514 3.695 3.695 0 1 1-7.372.514z"/><path id="N" d="M256.36 62.127a2.79 2.867 86.008 1 1 5.72-.4 2.79 2.867 86.008 1 1-5.72.4z"/><path id="O" d="M259.212 55.952a3.695 3.695 0 1 1 7.371-.515 3.695 3.695 0 1 1-7.371.515z"/><path id="P" d="M264.563 49.884a2.79 2.867 86.008 1 1 5.72-.399 2.79 2.867 86.008 1 1-5.72.4z"/><path id="Q" d="M264.775 49.38a2.12 2.13-3.992 1 1 4.231-.295 2.12 2.13-3.992 1 1-4.23.295z"/><path id="R" d="M270.937 44.892a2.12 2.13-3.992 1 1 4.23-.295 2.12 2.13-3.992 1 1-4.23.295z"/><path id="S" d="M297.1 22.83a2.91 2.91 0 1 1 5.82 0 2.91 2.91 0 1 1-5.82 0z"/><path id="T" d="M297.527 22.455a2.197 2.258 90 1 1 4.516 0 2.197 2.258 90 1 1-4.516 0z"/><path id="U" d="M297.722 22.072a1.67 1.677 0 1 1 3.34 0 1.67 1.677 0 1 1-3.34 0z"/><path id="V" d="M299.68 28.976c-.73 0-1.313.584-1.313 1.312v5.245H293.1c-.728 0-1.336.584-1.336 1.312v.587c0 .728.608 1.312 1.336 1.312h13.826c.73 0 1.312-.584 1.312-1.312v-.587c0-.728-.583-1.312-1.312-1.312h-5.268v-5.245a1.31 1.31 0 0 0-1.312-1.312h-.666z"/><path id="W" d="M296.305 45.323a3.695 3.695 0 1 1 7.39 0 3.695 3.695 0 1 1-7.39 0z"/><path id="X" d="M296.86 44.85a2.79 2.867 90 1 1 5.734 0 2.79 2.867 90 1 1-5.734 0z"/><path id="Y" d="M297.107 44.362a2.12 2.13 0 1 1 4.241 0 2.12 2.13 0 1 1-4.241 0z"/><path id="Z" d="M271.225 97.022c19.892-4.364 39.058-3.947 57.83.02 3.233 1.064 3.966-6.318.808-7.9-19.577-5.806-54.322-2.47-59.796 0-1.647-.293-3.912 7.666 1.158 7.87z"/><path id="a" d="M157.483 104.188a5.775 4.23 0 1 1-11.55 0 5.775 4.23 0 1 1 11.55 0z"/><path id="b" d="M269.32 87.587l4.6-3.46-6.957-2.657s-1.064 1.018-1.265 1.898c-.278 1.217-.272 2.06.506 3.036.694.87 3.116 1.182 3.116 1.182z"/><path id="c" d="M330.68 87.587l-4.6-3.46 6.957-2.657s1.064 1.018 1.265 1.898c.278 1.217.272 2.06-.506 3.036-.694.87-3.116 1.182-3.116 1.182z"/><path id="d" d="M263.62 74.112a2.91 2.91 0 1 1 5.819 0 2.91 2.91 0 1 1-5.82 0z"/></defs></svg>