<svg xmlns="http://www.w3.org/2000/svg" xmlns:xlink="http://www.w3.org/1999/xlink" width="750" height="375" xmlns:v="https://vecta.io/nano"><style><![CDATA[.B{stroke-width:1pt}.C{fill:none}.D{stroke:#2b2b2b}.E{stroke:#000}.F{stroke-width:1.25}.G{stroke-linejoin:round}.H{stroke:#006b00}.I{fill:#fff}.J{stroke-linecap:round}.K{fill:#2b2b2b}.L{fill:#ffc900}.M{stroke-width:.69}.N{fill:#e80000}.O{stroke-width:.625}.P{stroke-width:.993pt}.Q{stroke-width:.689}]]></style><defs><linearGradient id="A" gradientUnits="userSpaceOnUse"><stop stop-color="#d5dfff" offset="0"/><stop stop-color="#fff" offset="1"/></linearGradient><linearGradient id="B" gradientUnits="userSpaceOnUse"><stop stop-color="#474747" offset="0"/><stop stop-color="#f50" offset="1"/></linearGradient><linearGradient id="C" y2="136.839" xlink:href="#B" x2="210.15" y1="136.839" x1="200.415"/><linearGradient id="D" y2="48.992" xlink:href="#B" y1="206.49" x2="208.043" x1="205.627"/><linearGradient id="E" y2="269.547" gradientUnits="userSpaceOnUse" y1="252.882" x2="195.707" x1="195.571"><stop stop-color="#b50000" offset="0"/><stop stop-color="#ffc500" offset="1"/></linearGradient><linearGradient id="F" y2="78.805" xlink:href="#A" y1="706.326" x2="240.97" x1="341.887"/><linearGradient id="G" y2="255.351" xlink:href="#A" y1="269.217" x2="266.556" x1="275.145"/><linearGradient id="H" y2="261.052" xlink:href="#A" y1="261.413" x2="295.659" x1="268.529"/></defs><path fill="#012169" d="M0 0h750v375H0z"/><g class="I"><path d="M0 0v20.963L333.073 187.5h41.925v-20.962L41.925.001H0zm374.998 0v20.962L41.925 187.5H0v-20.962L333.073 0h41.925z"/><path d="M156.25 0v187.5h62.5V0h-62.5zM0 62.5V125h374.998V62.5H0z"/></g><path d="M0 75v37.5h374.998V75H0zM168.75 0v187.5h37.5V0h-37.5zM0 187.5L125 125h27.95l-125 62.5H0zM0 0l125 62.5H97.05L0 13.976V0zm222.05 62.5l125-62.5H375L250 62.5h-27.95zM375 187.5L250 125h27.95L375 173.525V187.5z" fill="#c8102e"/><g transform="matrix(.621 0 0 .621 461.4 21.482)"><g class="E"><g class="B"><path d="M146.97 393.04s-3.35 8.84-5.26 8.84-8.84-3.82-8.84-3.82-5.02 8.13-7.65 8.6c-2.63.48-9.56-1.2-9.56-1.2s-6.7 0-6.93-.96c-.24-.95.24-2.86.24-2.86s-9.558 7.64-11.71 7.16c-2.15-.47-9.32-9.55-9.32-9.55l-1.195 4.78-13.62-.48-11.95-7.65s-6.69 11-6.93 10.75-11.71 2.63-11.71 2.63l-.717-2.15-7.647-4.54 5.974-8.6c0-.24-2.868-1.2-2.868-1.2l-4.3 3.6-8.842 5.73-8.842-4.06 3.824-7.17.478-5.26 6.93-10.5 84.834-82.45 41.82 77.2-6.2 23.18z" fill="#6a4c2d"/><path d="M207.24 398.04l22.08-.8-9.4-4.64 84.14-3.17-11.9-4.53-10.53-14.27-43.6-3.28s-3.28-2.5-8.6-1.25c-.22-3.4-4.3-7.8-4.3-7.8l-26.84-2.04-16.76 11.44 11.32 29 14.4 1.36z" class="I"/><path d="M121.32 150.76l2.22-7.56s3.9-6.56 3.9-9.46c0-2.9 2.9-6.33 2.9-6.33s8.9-2.56 10.78 2.9c9.57-14.46 20.8-.67 20.8-.67l3.1-3.67 6.34-7.78s9 8.45 9.12 9.9c.1 1.45 1.55.45 1.55.45l9.8-.78s4.64 3.64 3.67 10.56c3.45 2.04 6.56 14 6.56 14l-80.73-1.55z" fill="url(#D)"/><path d="M207.25 240.72c1.7-1.03 7-2.72 6.36-10.5s-7.4-8.7-11.15-8.43c-3.77.26-7.14 3.5-7.14 3.5l-12.45-7.9s6.23-39.3 12.84-41.76c6.28-4.53 7.4-6.5 7.4-7.52 0-1.04-2.33-3.64-2.33-3.64l-40.6-4.8-38.4 4.54s-2.98 4.54-2.6 6.36c.4 1.8.52 3.76 7.4 9.08 7.6 5.85 12.84 39.43 12.84 39.43s-10.76 5.3-11.4 4.66c-.65-.64-3.9-1.3-5.58-1.03-1.68.26-7.26 3.1-7.26 10.5 0 7.4 5.58 11.68 5.58 11.68s36.7-4.28 42.15 5.83c5.32-12.2 40.2-7.9 44.35-10z" fill="#656263"/></g><path d="M246.8 199.87s.4-4.27 3.45-6.3c3.05-2.03 23.36-3.05 28.24 0 4.87 3.05 6.7 18.08 6.7 18.08s3.05 5.28 3.25 9.14.6 6.5.6 6.5 16.25 21.13 16.45 40.22c1.83 13 1.42 47.73-3.65 60.93-.2 16.46-7.1 27.22-7.1 27.22s1.62 2.84 1.42 5.9c-.2 3.05-1.83 5.9-1.83 5.9l23.76 11.78-8.73-3.25 8.73 7.32c-.2-.2-9.95-4.68-9.95-4.68l5.9 5.9c-.2-.2-14.42-6.5-14.42-6.5l6.3 6.1-10.77-5.08 6.3 6.5c-.2-.4-9.34-4.06-9.34-4.06l.4 3.45s-7.3-.4-7.3-5.9c-3.66-2.03-6.1-4.88-6.1-4.88l-16.86-2.84-19.1-57.08 4.47-96.48 1.22-4.87-2.03-13z" stroke-opacity=".98" class="F G"/><g fill="#fb0"><path d="M234.03 508.2s-9.78-20.57-14.65-20.86c-4.4-8.4 15.3-76.96 53.38-80.87 20.94 1.72 1.72 24.14-12.05 17.24 1.72 6.03 8.6 14.66 8.6 14.66s-27.25 11.78-35.28 69.83z" class="P"/><path d="M102.9 511.2s8.1-23.42 13-23.7c4.92-.3-13-78.05-52.032-78.63-21.104 1.74-1.735 24.28 12.14 17.34-1.734 6.08-8.672 14.75-8.672 14.75S94.82 452.8 102.9 511.2z" class="B"/></g><path d="M138.7 364.93c-.1-.2-9.7 3-3.48 13.45.47-4.04 4.8-6.5 4.8-6.5s-6.58 7.8.38 14.4c.85-6.2 4.8-8.18 4.8-8.18s-4.9 14.4.1 17.3c.57-5.74 4.23-8.27 4.23-8.27s-4.42 12.88-.47 15.8c.47-4.88 3.76-7.05 3.76-7.05s-1.97 13.36 3.2 14.3c.1-4.7 3.86-9.3 3.86-9.3s-1.7 10.9 6.4 11.38c.1-4.14 1.6-8.84 1.6-8.84s3.67 11.56 9.03 9.68c-.1-3.38.1-9.78 0-9.78-.1 0 3.38 11 9.78 8.94-.94-3.1.37-6.78.37-6.78s3.4 6.87 9.5 4.6c1.04-2.07-.28-6.1-.28-6.1s8.93 9.22 11.66 3.67-7.15-7.43-7.15-7.43h6.68s-2.16-5.64-11.2-6.87c3.1-1.4 6.3-.37 6.3-.37s-1.88-7.06-11.1-7.8c3.58-1.22 7.53-.37 7.53-.37s-1.23-6.68-11.38-8.56c1.6-1.8 5.92-1.22 5.92-1.22s-4.04-6.3-8.65-5.93c-4.6.38-46.27-4.23-46.17-4.14z" fill="#00713d" class="B"/></g><path d="M179.8 398.88s3.67 1.8 3.58 3.4m-1.4-6.3s4.7 3.3 4.6 5.73m-.47-7.43s3.77 2.35 3.95 6.02m2.35-4.5s1.9 4.04 1.23 4.8m2.54-2.64c.28 3.2-.3 3.48-.3 3.48m-46.07-23.7s4.42 2.82 4.05 6.77m-4.33-3.4s2.07 1.97 1.6 3.3m3.86-6.58s2.9 4.04 1.97 6.86m3-4.23s1.32 2.54.1 3.95m2.24-2.73s1.6 2.54.2 3.4m-1.97 4.97s4.13.94 4.7 4.04m-2.26-6.86s4.33.28 4.8 4.9m.93-6.5c.1 0 2.9 5 2.44 6.58m3.12-6.1s1.12 4.8.28 6.3m3.3-4.43l.1 5.55m-5.55-13.07s2.72 1.03 2.53 3.67m-.01-6.12s3.48 1.98 3.1 5.74m.96-7.34s3 3.57 1.88 7.52m3.38-6.67s-1.12 4.42-.66 6.2m3.86-3.2s-1.97 1.5-.94 3.4m-16.18 13.8s.65 3.4 0 3.95m-4.32-5.92s2.16 3.76 1.4 5.64m-6-5.84s2.45 2.82 2.35 5.08m-6.12-4.5s2.26 2.17 2.07 3.4m-4.03-.1s2.16 2.26 2.06 2.73" stroke="#3ec26d" class="C F J"/><g class="B E"><path d="M108.86 244.78l31.1-.56s20.55 0 22.77 6.67c3.9-8.9 21.66-8.33 21.66-8.33l32.2-1.1.56 77.76c-6.3 30.17-28.14 51.47-52.2 60.54-28.7-9.26-46.84-33.5-52.76-61.1l-3.34-73.87z" class="I"/><path d="M119.94 244.5l45.3 120.74 40.93-123.37c-12.7.82-39.94-2-43.32 9.58-5.24-10.36-33.9-6.18-42.92-6.95z" fill="#006b00"/></g><path d="M150.78 309.86c1.75.9 1.7-32.77 4-33.8.65-2.8.98-4 1.8-6.97-1.97-3.5-10.8-3.32-14.06-.35 1.47 4.7 2.12 6.27 2.12 6.27 4.42 7.15 3.54 35.62 6.15 34.86z" class="H L Q"/><g fill="#cdad56" class="E G"><path d="M138.64 49.548s3.2-3.638 3.35-4.5c.15-.873 14.55-1.455 23.13-17.458 4.8-8.438 0-3.492 0-3.492l-.3-4.074s5.97-5.673 3.8-8.73c-2.2-3.055-1.46 3.93-4.95 3.783s-1.6-7.565-1.6-7.565-.3-.873-1.3-1.31c-1.46.146-1.02 2.764-2.33 3.055s-2.47-6.1-2.47-6.1-2.18-2.9-4.08 6.256c1.02 9.748 7.28 7.856 7.28 14.258S153.63 35 152.03 35.145 151 29.762 151 29.762s-.87-2.62-1.45-2.62 3.2-.582 2.62-7.856c-1.3-8.73-2.33 2.037-4.66 1.6s-.58-8 .3-8.874-1.02-4.5-6.1 4.8c-.44 4.5-1.02-1.164-2.04-.873-1.74 3.637-1.45 6.256 1.02 9.602 3.64 3.346 5.97 6.692 5.82 8.438-.14 1.746-2.04 5.674-4.65 5.674-2.62 0 .14-4.8 0-6.402-.15-1.6-4.5-7.42-4.5-7.42s-3.06-4.947-2.77-5.092-.3-.873-1.74 4.22c-1.46 5.092-3.2-3.346-3.2-3.346s-2.03 6.255 2.33 10.038c-3.34-.436-3.63.873-3.63.873 0 1.746 4.5 2.473 5.1 5.528s-4.66 4.8-4.66 4.8 2.2 3.055 8.3-2.91c.15 3.782-2.32 6.4-2.32 6.4 2.03.92 3.63.824 3.92 3.2z" class="F"/><path d="M118.68 49.548s-2.72-4.037-2.84-4.832c-.13-.794-13.38 1.004-19.648-15.158-4.078-7.678 0-3.177 0-3.177l.247-3.707s-4.34-5.308-2.486-8.088 1.1 3.574 3.474 3.587c2.963-.132 1.36-6.884 1.36-6.884s.246-.794 1.112-1.19c1.232.132 1.742 4.115 2.852 4.38s3.4-4.687 4.13-5.705c1.02-.146.98-4.102 2.6 4.237-.86 8.87-8.2 7.15-8.2 12.974s4.7 10.325 6.05 10.458.87-4.898.87-4.898.74-2.383 1.23-2.383c.5 0-4.32.925-3.82-5.694 1.1-6.197 3.57.4 5.55.001s-.23-6.553.34-7.493c.13-.94 3.04-4.977 4.17 3.932.37 4.104 2.6-3.532 3.47-3.267 1.5 3.31-.65 7.73-2.75 10.774-3.1 3.044-4.5 6.38-4.36 7.97.12 1.588.85 3.562 3.08 3.562 2.22 0 .75-2.768.87-4.224s3.83-6.17 3.83-6.17c.73-1.163.12-3.337.9-4.342 1.2.013 1.7-1.667 2.94 2.966 1.24 4.633 2.72-3.045 2.72-3.045s1.73 5.693-1.98 9.135c2.84-.397 3.1.794 3.1.794 0 1.59-1.35 2.25-1.85 5.03s1.48 4.37 1.48 4.37-1.85 2.78-7.04-2.648c-.13 3.442 1.98 5.825 1.98 5.825-1.74.84-3.1.75-3.34 2.913z" stroke-width="1.099"/></g><g class="L"><path d="M198.62 262.5c-2.7-2.46-3.03-.3-4.36-.86-.66-.27-1.17-.88-1.74-1.44-.5-.5-1.08-.72-1.73-1l-.74 2.18c-.25.73.7 1.94.67 3.03-.2 1.62-.85 2.97-2.9 3.52.58-1.15.9-1.2.73-2.6-.08-.7-2.05-1.95-1.8-2.6.36-1.07.98-2.3.52-3.37-.83.57-1.93.27-2.76.62-.7.3-.75 1.62-1.73 2.16-1 .47-3.2.24-5.06-.8 1.13-.85 2.06-.28 3.2-1.13.56-.43.54-2.26 1.1-2.7.57-.43 1.92-.88 2.48-1.3-.5-.58-.48-1.5-1-2.07-.5-.58-2.75-.46-3.26-1.03-1.02-1.16-.82-2.68-1.84-3.83 2.63.94 2.25 2.22 2.9 2.12 1.24-.6 2.48-.7 3.13-.44.66.28 1.9 1.9 2.55 2.17l.85-2.38c.25-.73-1.1-2-.86-2.72.5-1.45 1.72-2.74 2.2-4.2l.6 4c.1.7 1.47 1.07 1.56 1.77.1.7-.72 2.33-.64 3.04.76-.15 1.85-.05 2.6-.2.76-.15 1.26-1.9 2-2.05 1.5-.3 2.6-.2 4.13.08-1.13 1.05-2 .98-2.7 1.94-.56.43.22 1.84-1.4 2.83-.6.36-2.22-.07-2.8.36l1.53 1.73c.5.58 2.78.85 3.3 1.43 1 1.15 1.55 2.53 1.27 3.77zm-69.67 1.2c2.7-2.46 3.03-.3 4.37-.86.65-.28 1.16-.9 1.73-1.44.5-.5 1.08-.72 1.73-1l.74 2.2c.25.73-.68 1.93-.66 3.02.18 1.63.84 2.97 2.88 3.53-.58-1.15-.9-1.2-.73-2.6.1-.7 2.05-1.95 1.8-2.62-.36-1.06-.98-2.3-.52-3.37.84.58 1.93.28 2.77.62.7.32.75 1.63 1.72 2.17 1 .47 3.22.24 5.06-.8-1.13-.86-2.06-.28-3.2-1.14-.56-.42-.53-2.26-1.1-2.68-.56-.43-1.9-.9-2.48-1.32.5-.57.48-1.5 1-2.07.5-.57 2.76-.45 3.26-1.03 1.02-1.15.83-2.67 1.84-3.83-2.63.94-2.24 2.22-2.9 2.13-1.25-.6-2.5-.72-3.14-.44-.65.27-1.9 1.9-2.55 2.17l-.85-2.38c-.25-.73 1.1-2 .86-2.72-.5-1.46-1.72-2.74-2.2-4.2l-.6 4c-.1.7-1.47 1.07-1.56 1.77-.08.7.73 2.33.64 3.03-.76-.15-1.85-.05-2.6-.2-.75-.16-1.25-1.9-2-2.06-1.5-.3-2.6-.2-4.13.08 1.13 1.06 2 .98 2.7 1.95.56.43-.22 1.84 1.4 2.83.6.36 2.23-.07 2.8.36l-1.52 1.73c-.5.58-2.8.85-3.3 1.42-1.02 1.16-1.56 2.54-1.28 3.78z"/><path d="M196.2 270.28c-2.46 1.9-18.3 5.92-18.48 19.7-.16 13.77 2.78 16.9-.16 17.26-5.72 0-6.54-15.34-6.38-22.14.17-6.8.33-5.75.33-5.75s3.92 1.04 3.6 4.36c-.33 3.3 3.92-8.2 2.45-11.33 2.6 2.6 6.05 1.57 6.05 1.4 0-.17-1.96-2.26-2.78-3.83s2.94.87 2.94.87.16-2.62-3.1-2.44c-4.25 0 .66-1.4.66-1.4s2.45 2.27 4.1-.17c-1.8-1.92-4.42-2.97-4.42-2.97s-2.3-4.35-5.4-5.22c-3.6-.88-3.1 1.56-7.2 1.22-.8 1.56-.8 1.74.82 2.26-2.78 1.92-1.3 5.75-1.3 5.75s4.42-1.9 4.25 1.22c-.16 3.14-2.6 2.62-4.25.7-1.47-.87-1.96.87-1.96.87l2.3 2.44s-4.4-.17-5.56 2.8c2.45-.17 3.76.53 3.76.53s-5.07 2.26-5.56 3.48-.65-1.4-.8-1.4c-.17 0-4.9-1.75-4.9-1.75l-1.64 7.54s3.28 3.27 5.07 2.22c1.8-1.04 5.07-4.18 7.03-3.3-5.72 4.36-11.44 10.63-14.55 11.5-.8-.7-3.6-3.5-4.74-2.1-1.14 1.4-.32 3.14 1.15 2.97 1.47-.18-4.74 1.4-3.44 4 1.3 2.6 1.15 2.44 2.3 1.74 1.15-.7-.98-.87 3.27-2.1s4.1-2.44 4.1-2.44-.82 1.9-3.1 2.44c-2.3.52-4.08.52-3.6 1.22.5.7 1.47 1.9 1.14 2.6s4.74-3.66 6.05-.17c3.43-.18 5.72-4.36 4.1-6.8.16 2.6 1.8 3.5.8 4.7-.98 1.22 7.7-4 3.44-7.15 1.14 2.6 1.3 4.7 1.3 4.7s1.96-.18 2.45-.88c.5-.7-.98 1.92-.33 2.44.65.53 3.76 3.5 2.45 5.58-.8-1.22-.98-3.14-1.96-2.96-.98.17-5.07 3.14-7.52 3.3s2.94 9.07 2.94 9.07-3.76-.53-4.25-.18-2.94-3.14-3.43-1.04c-.82 2.6.82 1.56.82 1.56s-2.13-1.04-3.27.18c-1.15 1.22-2.3 2.44-1.47 2.96.8.52 4.4.52 4.9.35s-4.1.35-4.4.87c-.33.52-.98 2.44 0 3.14s3.43-.35 3.6-.87c.17-.53.33 1.9.33 1.9s4.25.35 4.25-4c0-4.36.33 3.13.33 3.13s4.25.7 4.4-3.66c.17-4.35.5 2.97.5 2.97s2.78-.88 2.78-1.57c0-.7-.16 8.7-2.12 11.33-3.1-2.1-5.07 1.4-5.07 1.4s.16 5.05-.17 6.27c-.32 1.22 2.13-.7 2.3-1.22.17-.52 3.1-1.9 3.27-2.26l.98-2.1s-.65 2.44-1.8 2.8c-1.15.34-2.3 1.56-1.8 2.6s2.3 1.74 2.94 2.8c.65 1.04 2.94-6.1 2.94-6.1l.17 1.57s2.94-.7 3.27-2.1c.32-1.4-3.1-2.62-.33-4.88 2.78-2.27 0 2.1 0 2.1s.98 3.3 1.63 3.3c.66 0 2.3-6.28.66-7.84-1.64-1.57 2.45 1.9 2.45 1.9s2.3-6.45-.16-7.32l-3.6-1.22s1.3-1.74.65-1.9c-.65-.18 3.44 3.83 4.1 2.78.66-1.04 1.64-4.18-3.1-5.92-4.75-1.74-.17-6.63-.17-6.63s2.95 3.5 5.07 1.57c2.12-1.9-.16-1.9-.16-1.9s6.04-3.84 6.2-5.76c-1.15-.17-3.1.18-3.1.18s3.44-2.27 2.62-5.93c-1.3 1.92-3.1 1.92-3.1 1.92s2.95-2.96 2.45-5.75c-1.8 1.4-1.63 2.44-2.78 2.1-1.14-.35-3.1-11.33 1.48-12.03 4.57-.7 2.12 5.4 2.28 5.4.17 0 6.87-2.8 0-7.32 1.64-.53 5.07 2.6 5.07 2.6s-1.47-7.67-8.83-2.96c1.8-1.92 2.95-3.14 4.42-2.8s6.7-.18 6.7-1.74c-1.3-1.05-4.08.52-5.56 0-1.47-.53 10.47-1.4 9.5-7.32z" class="G H Q"/></g><path d="M144.36 274.802s6.54-3.66 9.8.877m2.615 6.968c-.166 0-2.3 2.266-2.782 2.266m7.197 5.055s6.045.524 9.97-5.926m-3.433 4.008s.5 3.5 1.474 3.5c.977 0-1.634.87-2.616.17 1.143 1.57 1.8 4.36 0 5.402" class="C J M H"/><path d="M164.63 331.975s-2.125 2.437-4.742 2.613" class="H J M N"/><g class="C H J M"><path d="M167.086 320.817s-1.308-6.968-.49-8.716c.49-2.266 2.616-3.137 4.25-6.097"/><path d="M166.43 315.762s-1.634 4.184-8.827 2.8m10.79-13.248s.486 5.58-6.05 3.5M160.38 280.2s-2.616 2.437-1.634 5.75"/></g><path d="M170.188 274.108s3.433-1.395 4.1-2.095c.65-.695 1.8-2.09 2.125-3.137.326-1.042-2.29-2.613-.983-4.878.817-1.046 1.96-1.22 3.925 0 1.96 1.218-1.8-3.834-3.76-4.008-1.965-.175-3.273 1.394-3.76 1.045-.49-.348.16 1.395-.657 1.395s1.634 1.394 1.474 2.268c-.166.87 2.61 3.83 2.45 4.53-.166.695-4.1 4.702-4.907 4.88z" fill="#006b00"/><g class="G"><g class="M"><path d="M172.644 262.604c1.5-.362 1.73.04 1.468 1.394-.7-.376-.956-.693-1.468-1.394z" stroke="#ffc900" class="L"/><path d="M162.2 340.258s-.55 3.65.796 3.95c-.07-1.412.288-2.374.62-2.75-.288-.142-1.35-1.178-1.415-1.2zm-3.033-4.49c-1.24-.188-3.327.905-2.73 2.226 1-.922 1.938.074 2.643-.865.214-.262.155-1.03.085-1.36zm-.01-2.607s-1.95-.33-2.22 1.1c1.346-.182 1.746-.336 2.195-.034.128-.307.005-1.002.027-1.076z" class="H N"/></g><g stroke-width=".736" class="H"><path d="M150.896 312.603s1.17.467 1.5 1.742c.93-.615 1.372-3.32-1.5-1.742zM148 315.705c.048-.023 2.45-1.577 2.697-.1-.507.54-.732.894-1.127 1.013-.3 0-.93-1.013-1.57-.922zm-.24 5.038c.043-.023 1.543-1.435 2.12-.495.57.945-.465.894-.465.894s-.53-.256-1.655-.398zm-2.12-28.053c-.02 0-1.922-.78-2.718.632 1.26.165 1.703.638 2.275 1.1-.155-.592-.416-1.486.443-1.742zm-3.683 10.565s.085-2.374 1.143-3.342c.598.353.774.917 1.175 1.622-.796.188-1.858.24-2.317 1.72zm5.073-1.695s-2.093 1.036-1.4 2.17c.683-.78 1.436-.54 1.436-.564l-.027-1.605z" class="N"/><path d="M144.007 278.822c-.753.9.93 2.852 2.69 2.567.443-2.118-2.248-3.222-2.69-2.567z" class="L"/><path d="M145.95 277.2s.33 1.674 1.853 1.224c-.24-1.292-1.303-2.26-1.303-2.26-.064.38.22.968-.55 1.036zm1.016 4.85s.838.962 2.494-1.013c-.748.233-2.072-.473-2.072-.473s0 1.366-.422 1.486z" class="N"/><path d="M143.91 274.985c-.748.894.315 2.14 2.077 1.862.443-2.118-1.634-2.516-2.077-1.862z" class="L"/></g></g><path d="M144.62 266.62s7.04-2 10.78 1c3.73 3 3.73.28 3.73.28s5.46 2 7.04 1.58-1.15.15 1-1.15c2.16-1.3-4.3.3-4.88-2.44-1-1.72.14-3.88-2.15-3.16-1.58-2 1-3.44.43-5.6-1.58 1.15-2.45-.43-3.74 2.44-3-.57-.43-4.74-3.73-5.17 0 3.02-2.44 3.16-2.6 4.9-1.43 1-7.75 4.74-5.9 7.32z" fill="url(#E)"/><g class="E"><path d="M63.624 495.58c4.566-1.1 29.306 5.47 38.846 15.7-2.03-18.2-7.072-32.16-7.072-32.16s-14.743-4.2-16.767-2.18c-2.968 3.12-11.883 12.5-15.007 18.65zm-7.542-84.12c-1.734.3-3.47 1.45-5.203 4.34-2.024 4.9-3.47 17.34-6.36 20.23s-5.493 3.18-5.493 5.8c0 2.6.3 8.67 8.095 10.98 7.805.3 20.236-12.43 20.236-12.43s6.36-6.94 8.96-14.45c-15.032 5.2-25.728-8.68-20.236-14.46z" fill="#c01500" class="B"/><path d="M273.5 492.68c-4.53-1.1-29.55 5.44-39.02 15.6 2-18.1 7.02-31.98 7.02-31.98 1.75-.47 14.47-4.18 16.48-2.16 2.94 3.1 12.42 12.42 15.52 18.54zm7-83.63c1.72.3 2.33 2.55 3.74 5.43 2 4.88 4.07 12 6.94 14.87 2.87 2.88 5.45 7.13 5.45 9.72s-.6 6.08-8.35 8.38c-7.74.3-18.97-9.66-18.97-9.66s-6.3-6.9-8.9-14.37c14.92 5.18 24.58-8.14 20.08-14.37z" fill="#c01500" class="P"/><path d="M47.4 479.7s15.6 10.7 15.9 15.6c41.92-62.16 148.88-81.53 209.87-4.34 8.1-10.7 16.48-14.16 16.48-14.16-64.17-83.84-191.95-73.43-242.25 2.9z" fill="#fb0" class="B"/><g fill="#1e5aa6"><g class="B"><path d="M206.44 241.88l6.1-.15-10.9 13.82 13.1 15.28L189 303.27l24.3 29.24c-2.67 6.55-5.77 12.5-9.9 17.9l-13.96-15.43 25.3-31.56-20.8-23.57 12.5-37.97zm-87.3 2.76l-6.55.15 12.22 13.23-12.94 16.15 26.9 29.25-22.26 29.82c2.67 6.55 6.5 13.82 10.62 19.2l13.24-16.73-27.2-30.26 19.93-25.3-13.97-35.5z"/><path d="M149.4 323.2l-9.6 12.8 34.33 39.72c6.06-3.06 10.82-6.55 16-10.76l-17.9-20.66 7.28-21.4 10.5 12.08-32.73 41.76c-5.48-2.33-11.54-5.97-17.02-10.48l17.3-21.96-8.15-21.1zm-10.6-19.93l6.26 7.86-4.08-10.62-2.18 2.76z"/></g><path stroke-width=".968pt" d="M183.6 310.22c.13-.15 5.05-6.7 5.05-6.7l-1.9-2.6-3.14 9.3z"/></g></g><g font-family="Timmons" font-size="14" font-weight="bold"><text y="362.397" x="-328.344" transform="rotate(310.443)"><tspan y="362.397" x="-328.344">L</tspan></text><text y="384.266" x="-292.335" transform="rotate(314.608)"><tspan y="384.266" x="-292.335">E</tspan></text><text y="451.681" x="-239.78" transform="matrix(.7628 -.54464 .56769 .75422 0 0)"><tspan y="451.681" x="-239.78">O</tspan></text><text y="429.958" x="-188.526" transform="matrix(.82844 -.56007 .56007 .82844 0 0)"><tspan y="429.958" x="-188.526">T</tspan></text><text y="451.479" x="-115.426" transform="rotate(334.451)"><tspan y="451.479" x="-115.426">E</tspan></text><text y="453.046" x="-94.111" transform="rotate(336.012)"><tspan y="453.046" x="-94.111">R</tspan></text><text y="454.982" x="-68.371" transform="rotate(338.089)"><tspan y="454.982" x="-68.371">R</tspan></text><text y="445.666" x="112.016" transform="rotate(355.237)"><tspan y="445.666" x="112.016">R</tspan></text><text y="430.793" x="180.225" transform="rotate(0.856)"><tspan y="430.793" x="180.225">R</tspan></text><text y="275.217" x="414.759" transform="rotate(29.645)"><tspan y="275.217" x="414.759">R</tspan></text><text y="193.05" x="483.878" transform="rotate(39.802)"><tspan y="193.05" x="483.878">E</tspan></text><text y="414.028" x="309.116" transform="matrix(.96356 .18112 -.15531 .95184 0 0)"><tspan y="414.028" x="309.116">O</tspan></text><text y="459.272" x="105.058" transform="matrix(.90188 -.1316 .13648 .975 0 0)"><tspan y="459.272" x="105.058">O</tspan></text><text y="455.835" x="-45.708" transform="rotate(339.708)"><tspan y="455.835" x="-45.708">A</tspan></text><text y="144.724" x="518.35" transform="matrix(.70468 .70952 -.70952 .70468 0 0)"><tspan y="144.724" x="518.35">A</tspan></text><text y="388.298" x="271.188" transform="matrix(.98042 .19691 -.19691 .98042 0 0)"><tspan y="388.298" x="271.188">A</tspan></text><text y="455.168" x="40.322" transform="rotate(349.355)"><tspan y="455.168" x="40.322">M</tspan></text><text y="448.079" x="94.429" transform="rotate(354.06)"><tspan y="448.079" x="94.429">P</tspan></text><text y="437.607" x="155.088" transform="rotate(358.537)"><tspan y="437.607" x="155.088">P</tspan></text><text y="276.665" x="405.134" transform="rotate(29.499)"><tspan y="276.665" x="405.134">P</tspan></text><text y="409.793" x="232.095" transform="matrix(.9934 .11468 -.11468 .9934 0 0)"><tspan y="409.793" x="232.095">I</tspan></text><text y="132.089" x="530.392" transform="rotate(46.586)"><tspan y="132.089" x="530.392">T</tspan></text><text y="218.519" x="464.158" transform="rotate(36.816)"><tspan y="218.519" x="464.158">T</tspan></text><text y="361.961" x="313.725" transform="rotate(16.412)"><tspan y="361.961" x="313.725">M</tspan></text><text y="123.248" x="513.704" transform="rotate(47.66)"><tspan y="123.248" x="513.704">G</tspan></text></g><g stroke="#fff700" class="B C J"><path d="m255.94 200.94s6.04-5.17 10.34-5.32"/><path d="M256.8 200.22c.14-.14 36.05-5.17 37.2-6.32m-37.05 6.6c.14-.15 40.2-3.45 40.2-3.45m-40.35 3.6s42.65-2 45.24.15"/><path d="M256.66 200.5s41.8.3 42.52 1.3"/><path d="M256.8 200.5l40.2 3.3m-40.62-3c.14 0 40.93 3.6 44.95 8.76"/><path d="M303.48 216.88c-.14-.14-13.93-16.52-47.25-16.23m.15.3s23.12 1.58 30.44 9.62"/><path d="M256.8 200.65s14.93-2.87 30.6 15.95"/></g><g class="E"><g class="B"><path d="M247.4 217.74s20.72.82 20.72 2.85-15.44 5.9-15.64 14.42 11.78 9.14 12.6 19.9c.8 10.77-9.34 12.4-11.37 15.24-2.04 1.42-6.9 16.65-6.3 25.6s3.25 39.2 7.92 45.3c3.66 2.84 9.14 11.98 15.03 9.14 5.9-2.85 1.83-13.2 1.22-16.05-.6-2.84 2.44-7.5 2.44-11.78s-2.24-7.72-2.03-8.73c.2-1.02 16.45 3.86 15.43 19.9-1 16.05-7.5 11.17-7.5 11.17s2.03 19.7-3.05 22.35c-9.14 4.87-15.84-1.02-15.84-1.02l.86 4-6.95-3.6s-8.94-12.8-10.97-18.5c-2.03-5.68-4.47-31.07-3.66-36.56.8-5.48 1.42-37.58 1.02-39.2-.4-1.63-2.03-28.44-1.02-32.5 1.02-4.06 7.3-21.94 7.1-21.94z" fill="url(#H)"/><path d="M225.06 212.46s14.42-14 22.75-12.4c4.26 0 .2 3.05.2 3.05s7.3.6 8.33 3.86c.2 1.42-3.46 1.83-3.46 1.83s3.05.6 3.25 3.25c.2 2.64-30.87.6-31.07.4z" fill="#ff7000"/><path d="M225.87 211.85s15.44-2.03 21.94-8.53m-6.3 4.28s11.37-.4 11.37 1.22" class="C"/></g><path d="M281.93 373.74s9.75-2.24 12.4-5.7c1.63-1.22 10.16 12.8-12.4 5.7z" class="F G I"/></g><path d="M279.3 293.1s1.22 7.52-2.23 12.6c-1.83 2.03-7.32 5.5-7.32 7.93s2.03 5.68 1.63 8.53c-.4 2.84-3.45 5.7-3.25 8.12 0 2.44 3.45 15.44 3.04 15.64m-9.75-77.2s-7.72 2.64-9.35 10.36" stroke="#fff" class="C J F"/><path d="M258.16 207.6s2.65 7.3 11.18.4c-5.5-7.5-11.18-.2-11.18-.4z" fill="#c75b00" class="B E"/><path d="M264.464 207.283c0 .393-.41.71-.914.71s-.914-.318-.914-.71.41-.71.914-.71.914.318.914.71z"/><path d="M188.4 190.62s16.18 17.5 26.65 17.32c1.9 5.14-4.76 9.92-7.42 12.2-5.33-1.7-10.15.3-22.52-14.9.77-9.7 3.48-14.23 3.3-14.6zm21.9-40.72c2.1-6.47 6.28-11.6 9.9-12.18-.95-4.95 7.62-26.83 32.55-35.2 1.52 11.23-10.66 22.27-10.66 22.27s36.73-6.28 44.15-15.6c-.76 4.2-8.18 30.26-47.4 30.07 14.85 14.1-4.75 25.32-13.13 21.9 15.42-11.8-4.37-18.84-15.4-11.23z" class="B E I"/><path d="M222.86 140.76c7.42-4.76 10.08-4.76 16.18-3.8-4.38.57-4.38.76-4.38.76s-.38.57 2.28 3.05c-3.04-.77-5.7-2.48-14.08 0z" stroke="#ccc" fill="#cccccd" class="B"/><g class="E B"><path d="M220 137.7s14.66-7.8 22.84-13.13" class="C"/><g fill="#00f"><path d="M207.44 220.12s20.18 5.52 22.46-23.4c-4.38-12.56-10.47-39.6-1.14-47.4-8.57-5.9-17.9.2-17.9.2-.57 1.33-8.2 12.18 2.1 31.2-24.36-6.47-14.46 16.56-14.46 16.56.95-3.62 13.9-7.04 17.13 11.42 1.33 4.57-8.76 11.6-8.2 11.42z"/><path d="M230.1 196.9s21.32-11.42 20.74-38.25c-18.08.38-24.55 23.78-24.55 23.78l3.8 14.47z"/></g><path d="M134.55 195.57s-15.8 13.7-24.74 9.32c-6.66 4-14.462-3.04-14.462-3.04s9.132 33.68 41.872 9.32c-.57-7.42-2.3-15.03-2.67-15.6z" class="I"/><path d="M109.62 204.32c1.33-7.04 6.85-10.47 11.23-3.8 5.9 1.15 11.8-23.02-9.14-19.03 5.9-31.6-11.795-43.4-11.795-43.4s-6.28 35.02-3.426 41.5-4.186-12-26.834-17.13c-.38 26.46 25.312 38.83 25.312 38.83s7.233 6.66 14.653 3.04z" fill="#00f"/><g class="C"><path d="M111.7 181.3s-9.9 8.38-7.6 19.8m-7.42-20.95s-2.284 8.18 2.664 19.8"/><path d="M95.157 202.6s4.568-7.42 14.463 2.1"/></g><path d="M97.06 151.22c0-.2-15.034 0-6.1 15.23-6.66 2.1-21.505-7.6-11.228-20.56-33.686-.76-47.39-16.93-47.39-31.78 9.897 10.28 33.496 6.1 41.87 12.37-10.277-9.5-8.184-22.65-8.184-22.65s28.738 8.57 33.876 34.07c-1.713 4.95-2.474 13.7-2.855 13.32z" class="I"/><path d="M73.942 125.82c5.546 5.64 19.795 7.33 27.028 13.6" class="C"/></g><path stroke-width=".948" d="M80.503 142.47s11.797-1.52 15.216 2.66c-4.616 0-6.155-1.14-12.822 1.34 1.88-.96 1.367-2.67 2.393-2.67s-4.274-1.33-4.787-1.33z" stroke="#ccc" fill="#cccccd"/><g class="B E"><path d="M139.3 50.166s6.47-5.7 13.5-.57c-3.18 9.507-14.65 5.9-14.65 5.9s.38 4.758-.76 7.04c2.3 1.727 4.18 7.423 4.18 7.423s11.8-2.855 14.28 2.284c4.52-.624 7.8 0 7.8 0s9.14-2.284 12.37-2.284c3.24 0 13.5 2.664 14.46 4.567.96 1.903 4.38 14.655 6.67 14.464 2.28-.2-5.52 3.045-7.62-.2-2.1-3.236-1.52 4.187-1.52 4.187s6.47 6.85 7.23 8.373-4 13.9-.38 22.46c-3.17.3-3.42 3.6-3.42 3.6-.18 3.77-4.95 4.76-4.95 4.76l-1.14-5.14-3.24 1.9 1.33-4s4.38-10.66 4.76-14.08c.38-3.43-4-9.52-7.42-9.52-3.43 0-5.9 10.85-5.9 10.85s-1.7 8.18-1.14 8.94-2.3-2.66-2.3-2.66-1.52 4.95-2.66 6.47-3.62 2.1-3.62 2.1-1.7-4.95-1.14-6.85 9.33-9.32 8.57-14.65c-.77-5.33 0-4-.2-4.2-.2-.2-4.56-3.996-4.75-6.09s-5.7 2.664-12.94 1.14c-2.22 3.868-2.48 13.508-2.48 13.508s-.76 11.6.76 12.95c1.53 1.33-3.8 4.18-3.8 4.18l-3.8 5.14s-1.33-3.23-1.33-3.04-2.67 1.9-2.67 1.9l1.53-3.8c-.1-2.88 3.7-10.75 3.7-17.4s.48-13.798.48-13.798-7.04-.38-6.85 6.848c.2 7.24-1.7 7.62-1.33 9.7s2.28 8 1.7 9.7c-.57 1.7-2.85 2.28-2.85 2.28l-.57.95s-7.04 3.24-6.85 4.57-.2-3.8-.2-3.8l-.4-5.52s4.2-2.66 4.2-9.32-.96-7.6-.77-9.13c.2-1.53 1.15-7.05.96-7.62s-4 1.522-5.14 1.522c-1.14 0 2.1-3.996 2.48-6.85s-3.8 2.664-7.23-.57c1.6-3.514 4-4.568 4.37-7.232s-2.66 2.284-5.33.38c.22-2.554 2.86-4.758 2.86-4.758s-2.17-.266-3.05 0c-1.7-.57 1.9-3.236 2.1-7.042s-2.1-5.33-2.1-5.52-3.8-3.426-4.37-4.758-.57-2.855-.57-2.855-6.3 4.568-13.7-5.138c6.8-5.803 14.1-1.523 14.1-1.523s1.9-5.33 10.65-4.948c8.76.38 10.47 5.33 10.1 4.758z" fill="#923f00"/><path d="M187.2 148.6c.15 0 16.16.48 16.32 9.04.16 8.55-4.9 6.34-5.07 6.34s-11.73-1.43-11.73-1.43l.48-13.95z" fill="#00f"/><path d="M171.65 146.23s19.97-.15 18.86 8.56c-1.1 8.72-6.18 6.98-6.18 6.98l-9.67-.8-3-14.74z" fill="#fffeff"/><path d="M160.4 145.28l11.57.95s6.97.95 6.66 7.6c-.32 6.66-7.14 6.82-7.14 6.82l-11.25-.64.16-14.74z" fill="#00f"/><path d="M133.3 148.6c-.16 0-16.17.48-16.33 9.04-.15 8.55 4.92 6.34 5.08 6.34s11.73-1.43 11.73-1.43l-.48-13.95z" class="I"/><path d="M148.83 146.23s-19.97-.15-18.86 8.56c1.1 8.72 6.18 6.98 6.18 6.98l9.67-.8 3-14.74z" fill="#00f"/><path d="M160.1 145.28l-11.57.95s-6.98.95-6.66 7.6 7.13 6.82 7.13 6.82l11.25-.64-.15-14.74z" class="I"/><path d="M191.07 241.5s8.32-12.26 11.83-10.95c3.06 1.02.73 10.5-.73 11.4l-11.1-.44zm-57.03 2.2c-2.62-3.65-6.42-13.72-9.92-10.95-3.07 1.02-.73 10.5.73 11.4l9.2-.44z" fill="#5e0043"/><path d="M139.55 219.45s16.2 10 21.53 10.25 22.18-12.97 22.18-12.97" class="C"/><path d="M141.1 180.3l3.1-3.9 15.57 7.9 15.82-7 3.1 3.25L161.08 193l-19.97-12.7z" fill="#5e0043"/></g><path d="M128.75 180.08c1.26 1.6 11.32 13.82 13.14 23.94 1.8 10.12-1.04-13.88-1.04-13.88s12.45 6.1 12.84 10 5.95-.26 6.22-.93l-36.05-23.4 4.9 4.3zm61.5-.7s-13.1 17.25-11.54 36.05c-2.7-9-.52-23.86-.52-23.86l-2.85 1.82s-2.98 12.7-6.75 14.65c-.63-1.5-.5-2.07-.5-2.07s-4.02 5.18-4.8 5.7.26 17.5.26 17.5 1.35 12.32 2.9 12.2c-1.77.86-3.94 2.2-3.94 2.2l-1.6-32.88 3.68-3.7s4.93-5.96 5.32-11.8c-2.14 1.82-4.54 2.34-4.54 2.34s-.65 8.3-2.6 9.46c-1.95 1.17-2 3.34-2 3.34l-.46-10.85 29.95-20.1z" stroke="#474747" fill="#474747" class="F G"/><g class="E"><g class="C"><path d="m160.3 199.35l2.54 51.87" class="F J"/><path d="M128.4 224.12s5.96 3.5 8.17 14.14c19.45-1.43 25.55 5.45 25.55 5.45s15.95-7.65 23.35-6.23c2.6-5.44 9.98-12.45 9.98-12.45" class="B"/></g><path d="M120.26 173.28l40.04 26.2 36.06-24.25s7.52-4.15 6.87-7.13c-.64-3-3.24-1.82-4.54-1.3-1.3.52-37.74 26.33-37.74 26.33l-38.78-24.52s-2.85-.9-3.37.9c-.52 1.82 1.07 2.85 1.46 3.76z" fill="#b4b6b9" class="B"/></g><path d="M191.87 166.48s-10.25-4.35-10.25-.58c0 3.76.3 4.15 1.94 6.57 1.64 2.4-1.26 3.96-1.26 3.96l-.97-2.7c-.58-1.64-6.1-2.8-6.57-4.73-.48-1.94 1.16-5.03-2.13-5.4-3.28-.4-6.47 1.35-7.15 5.12s-4.93 12.56-4.93 12.56l.58-20c7.22.5 20.62 2.1 30.93 3.28-3.1-.48 1.16.2 1.07 1.26-.3.87-1.36.96-1.26.68zm-36.25-5.03c-1.83 0-11.02 1.06-13.34 2.42-2.32 1.35 3.77 3.47 3 5.3s-.87 5.5-3.77 4.74c-2.9-.78-12.66-5.6-12.95-7.25s-2.32-1.74-2.32-1.74 28.03-3.77 29.38-3.48z" stroke="#474747" fill="#474747" class="F G"/><g class="B E"><path d="M160.04 159.15l-.07 24.58M141.1 130.2L129.65 149" class="C"/><path d="M161.8 129.74s4.9 6.67 4.33 8.56c2 1.56 4.23 7.8 4.23 7.8" fill="url(#C)"/><path d="M180.7 128.63s-10.56 14.9-10.23 16" class="C"/></g><path d="M126.6 57.78c-.24.833-1.585 1.156-3.007.72s-2.38-1.464-2.14-2.297 1.585-1.156 3.007-.72 2.38 1.464 2.14 2.297zm4.27-.294c.24.833 1.585 1.156 3.007.72s2.38-1.464 2.14-2.297-1.585-1.156-3.007-.72-2.38 1.464-2.14 2.297z"/><g class="E"><g fill="#ff7000" class="G"><path d="M254.5 366.13s-3.92.74-3.8 1.1c.12.37-11.4.74-11.63.37-.25-.37-1.72 1.96-1.72 1.96l1.84-1.1s2.8 2.93 3.67 2.7-.37 1.1-.12 1.35c.24.24 1.1-.5 1.1-.5l19.02-.32-8.37-5.56z" class="B"/><path d="M261.58 372.05l-15.54.45s-3.9 3.55-4.16 4.4c-.24.86 2.57 1.1 2.57 1.1l.86 2.94 1.96-.73s13.2 1.96 25.34-.74c6.12-2.14 7.2-4.7 2.9-6.27-4.28-1.56-13.8-1.1-13.93-1.15z" class="F"/></g><g class="B"><path d="M208.37 403.93l27.97-1.25-5.2-4.42 75.65-3.05-2.6-6-84.7 3.4 10.2 4.76-22.88.68.68 2.38-6-.23s6.68 2.6 6.9 3.74z" fill="url(#F)"/><path d="M239.73 249.42c-2.23-1.1-12-2.44-22.9 4.67l.45 25.1s16-8.67 23.77-6.67c-.45-7.78-.45-17.77-1.33-23.1z" fill="url(#G)"/><path d="M85.074 325.65l-65.956 65.48m95.352-65l-53.532 70.5m51.142-88.9l-71.455 86.5m-2.15-1.2l6.93-8.12m80.296-33.7l-27.722 38.24m-1.195 5.02l.717 14.57m40.86-44.45l-29.4 36.8m24.14-2.86l11.95-19.6m-7.4-3.82l-14.34 16.25m10.04-31.54l-9.8 11.94m-2.87-29.4S90.8 386.1 91.287 389.7m26.283-53.05c-.7.47-25.805 33.7-25.805 33.7m-1.435 10.5l-4.54 5.5m-5.735 8.37l-6.93 9.08" class="C"/></g></g><g class="B D"><path d="M81.81 225s-2.024 6.36 0 9.54 14.743 28.9 14.743 28.9 8.676-10.7 11.856-11c3.18-.28 1.73 27.76 1.73 27.76s-5.2 4.9-8.38 4.62 7.8 11 7.5 20.53-14.45 56.95-19.654 57.8c-5.203.87 2.313-8.67 2.024-11.27s-1.735-.87-2.89-3.76 1.735-7.23 1.156-10.12-3.18-2.3-3.47-4.33c-.29-2.03 1.735-2.6 1.446-4.92-.29-2.3-3.47-1.73-3.18-3.76.29-2.02.578-1.15.29-4.9s-.867 2.6-4.047 2.9-5.782 7.52-5.782 7.52-6.36 8.96-12.72 4.9c3.758 8.1.868 11.57-.578 11.85-1.445.3 1.156 6.36-2.313 6.65s2.602 13.6-1.445 14.75c4.336 2.02.867 4.62.867 4.62s-10.02.84-7.805 13.88c-29.487-10.4-43.94-28.33-43.652-46.54.29-18.22 6.07-34.7 20.236-40.76 4.047-15.04 10.985-31.23 10.985-31.23s-1.156-6.65-.29-10.98c.868-4.34 4.915-8.67 4.915-8.67s-.58-10.4-.29-15.6c.29-5.2 2.312-7.52 2.6-10.4s-.867-17.64 2.024-20.24 8.383-2.3 11.274-4.04c2.89-1.74 6.65-4.92 10.407-4.63s6.938 2.9 6.938 2.9 14.166 0 15.033 5.5c.867 5.5-2.89 7.52-2.89 7.52s2.024 7.8-6.65 15.03z" fill="#8a9396"/><path d="M69.234 204.97c.454.838-.58 2.276-2.308 3.212s-3.497 1.015-3.95.177.58-2.276 2.308-3.212 3.497-1.015 3.95-.177z" fill="#cecfcf"/></g><path d="M66.834 206.432c0 .53-.48.957-1.074.957s-1.074-.428-1.074-.957.48-.957 1.074-.957 1.074.428 1.074.957z"/><g class="C"><path d="M87.97 216s3.5 15.68-.687 26.5m1.767-33.36s6.85 9.06 5.966 20.33m-5.302-22.32c.22 0 5.745 4.86 5.524 8.17m-4.198-10.16s3.757 2.65 4.64 5.3" class="D O"/><path d="M89.272 203.6s-13.48 21.88-11.71 35.58" class="B E"/><path d="M90.156 202.95s-17.9 10.6-21.213 45.3" class="D O"/><path d="M88.167 209.36l-7.07 5.3" class="B E"/><path d="M62.314 250.24s9.943-41.32 27.62-47.3" class="D O"/></g><g class="B D"><path d="M96.785 264.16s9.505-11.93 11.715-11.5 1.54 27.62 1.54 27.62-7.07 5.3-8.6 5.08c-1.55-.22 7.95 12.82 7.73 17.68s-.44 4.86-.44 4.86 0-2.87-2.2-7.5-.9-9.95-15.25-21.66c-3.536-7.3 7.07 4.42 9.28 2.65 2.2-1.76-3.976-17-3.755-17.23z" class="K"/><path d="M79.893 196.96s-3.994 1.1-4.54 2.72c-.545 1.64-2.905 3.27-4.176 2.72-1.27-.54-3.632-2.54-3.632-2.54" class="C"/></g><path d="M57.196 210.94s-5.992 6-3.086 6.72c2.905.72 5.992-4.72 5.992-4.72s0 9.26 2.542 7.8c2.542-1.45 9.986-6.7 9.986-6.7s2.542-.2 3.087 0c.545.18 6.9 5.62 11.076 3.63-2.36 6.17-5.084 6.9-5.084 6.9s-4.358 5.63-9.986 4.35c-5.63-1.27-7.082-3.63-7.082-3.63s-4.72.37-6.174-1.8-1.997-3.45-1.997-3.45-2.723 2.72-3.45 1.45 0-8.72 4.176-10.53z" class="D F G K"/><path d="M91.15 202.6s-11.076-3.27-14.89 2.18c-3.813 5.44-2.905 8.53-.908 9.07" class="B C D"/><path d="M92.86 202.28c0 1.306-.935 2.364-2.088 2.364s-2.088-1.06-2.088-2.364.935-2.364 2.088-2.364 2.088 1.06 2.088 2.364z"/><path d="M60.624 230.54s4.517 6.95 9.902 8.86-3.735 3.56-9.12-.08c-3.908-5.3-2.866-9.12-2.866-9.12s1.042-1.05 2.084.34zm38.65 41s-12.68-17.63-16.33-18.6c-3.648-.95 2.78-1.73 6.688 2s-1.042-6.08-1.042-6.08l10.683 22.67z" class="B D K"/><path d="M59.41 373.42c4.863-1.3 26.056 12.16 30.833 15.55 4.777 3.38 14.768 1.2 14.768 1.2s-4.6 2.78-7.472 3.48c-2.866.7 8.512.7 8.512.7s-27.1 7.47-54.632-7.03c-2.52-11.3 5.906-13.8 7.99-13.9z" class="D F G K"/><path d="M90.416 275.88s-3.56-.7-5.385-2.78-4.43-7.2-7.122-9.38-16.155-9.55-21.02-9.03-6.34-.52-6.95-1.13-2.605.26-2.258 2.78-3.735 8.08-2.258 10.68 8.425 13.2 9.815 13.55.52 6.17.52 6.17 6.166 6.25 7.73 6.6 3.126 1.48 2.953 2.95c-.174 1.48-6.775 9.56-6.775 9.56s-7.122 3.73-7.2 5.82c-.087 2.08 1.737 6.42 7.383 7.8s20.845.26 21.627-1.04 1.997-9.12 1.476-9.9-4.256-3.13-6.167-2.78-3.647 1.9-3.474 2.26-2.692 1.82-2.692.43 5.645-7.64 6.166-7.12 8.512 1.3 10 5.3 1.476 6.86 5.645 6.43c4.17-.44 9.987-4.26 10.507-12.25s-4.687-13.38-6-14.16-5.646-3.4-5.993-4.6c-.348-1.22-1.216-5.2-.52-6.17zm-75.13 35.27s13.463-3.48 16.937-3.4 16.6 6.16 20.4 9.9c3.82 3.73 11.638 12.6 16.763 11.8s6.6-1.82 6.6-1.82L74 331.47s-4.17 1.13-6.253.6-6.167-1.83-10.25-5.82c-4.082-4-16.676-14.77-27.36-14-10.684.8-16.85 11.3-16.85 11.3s.087-5.13.52-6.26-2.258 2.43-2.258 2.43l3.734-8.6zm49.594 10.42c.087.08 3.388.95 8.946.95s8.512-2.43 8.512-2.43l-.347-2.17.868-3.04s4.256 4.34 4.17 5.2-1.737 1.22-1.737 1.22l-.608-2.1-1.476 1.83s-8.078 6.42-12.507 5.47c-4.43-.96-8.512-3.82-7.383-4.52s1.737-.43 1.563-.43zm-19.63 11.38s-4.864-.1-7.035.95-2.953 2.35-4.43 2.17c-1.476-.17-2.605-2.08-2.17-2.86.608-1.22 3.474-2.78 8.946-2.35 5.472.44 4.7 2.1 4.7 2.1zm17.025 13.2c0-.26-.348-7.12-3.04-9.9s-5.993-2.78-7.47-2.44c-1.476.35 5.472 3.4 6.167 5.4s2.953 7.56 2.345 8.95c-.608 1.38-1.737-3.9-5.993-5.4s-10.162-.7-8.946 1.22 5.993.17 8.425 4.25 4.256 8.43 4.256 8.43l.782-2.96 2.17-.6.26-5.65 1.043-1.3z" class="B D K"/><g class="F G D"><path d="M58.8 368.38l-4.43-8.86s-1.4-5.64-5.124-7.2c-3.735-1.56-8.686-1.3-8.773.6s7.99 4.34 8.512 5.4c.52 1.04.26 2.78-.434 2.86-.695.1-4.256-1.3-6.08-.87-1.824.44-2.866 2.78-5.56 2.1-2.692-.7-4.95-9.3-3.908-10.16s-1.998 1.56-2.606-.7.87-9.3-.174-10.16-6.08-3.9-6.166-4.52c-.087-.6.26-34.56 28.662-6.42C40.56 316 35.784 317.57 33.526 317.5c-1.65 0-12.68.95-15.46 15.02s-6.08 5.3-6.08 5.3-.608 6.08 2.345 7.82c2.953 1.73-1.4 6.77-1.4 6.77s-5.298-12.94-4.516-18.6c-1.042 4.52-.955 15.72 5.732 27.97 7.817 8.25 15.2 15.9 34.83 24.5 10.336-15.8 9.815-17.7 9.815-17.9z" class="K"/><path d="M40.214 368.47s5.732.7 7.295 3.65c1.564 2.95 2.26 7.47 2.26 7.47.955-1.9 1.39-3.56 3.3-4.95s3.3-1.57 3.214-2.6-6.08-7.38-9.12-7.73-8.338 3.3-8.338 3.3-.955 1.4 1.4.87z" fill="#8a9396"/></g><g class="C"><g class="F J"><path d="M53.307 383.4s14.856 6.77 39.324 7.2" stroke="#8a9396"/><path d="M102.9 314.45s-1.27 12.47-10.86 37.07" class="D"/></g><path d="M101 322.12s-2.88 8.95-10.87 15.66" stroke-linecap="butt" class="B D"/></g></g></svg>