<svg xmlns="http://www.w3.org/2000/svg" viewBox="0 0 512.001 512.001" xmlns:v="https://vecta.io/nano"><path d="M512 200.092H0V97.104a8.83 8.83 0 0 1 8.828-8.828h494.345a8.83 8.83 0 0 1 8.828 8.828L512 200.092z" fill="#73af00"/><path d="M503.172 423.725H8.828A8.83 8.83 0 0 1 0 414.897V311.91h512v102.988a8.83 8.83 0 0 1-8.828 8.828z" fill="#ff4b55"/><g fill="#f5f5f5"><path d="M0 200.088h512v111.8H0zm1.4-5.912h.077a1.39 1.39 0 0 0 1.389-1.389v-3.008a1.39 1.39 0 0 1 1.389-1.389h5.827a1.39 1.39 0 0 1 1.389 1.389v3.008a1.39 1.39 0 0 0 1.389 1.389h11.5a1.39 1.39 0 0 0 1.389-1.389v-5.938a1.39 1.39 0 0 0-1.389-1.389h-5.8a1.39 1.39 0 0 0-1.389 1.389v.15a1.39 1.39 0 0 0 1.389 1.389h2.935a1.39 1.39 0 0 1 1.389 1.389v.15a1.39 1.39 0 0 1-1.389 1.389h-5.792a1.39 1.39 0 0 1-1.389-1.389v-3.08a1.39 1.39 0 0 0-1.389-1.389H1.4a1.39 1.39 0 0 0-1.39 1.39v5.938a1.39 1.39 0 0 0 1.389 1.389zm5.748 0h.08a1.39 1.39 0 0 0 1.389-1.389v-.08a1.39 1.39 0 0 0-1.389-1.389h-.08a1.39 1.39 0 0 0-1.389 1.389v.08a1.39 1.39 0 0 0 1.389 1.389zM1.4 182.53h34.423a1.39 1.39 0 0 0 1.389-1.389V181a1.39 1.39 0 0 0-1.389-1.389H1.4A1.39 1.39 0 0 0 0 180.99v.152a1.39 1.39 0 0 0 1.389 1.389zm34.422 11.645h-5.8a1.39 1.39 0 0 1-1.389-1.389v-5.938a1.39 1.39 0 0 1 1.389-1.389h8.648a1.39 1.39 0 0 0 1.389-1.389V181a1.39 1.39 0 0 1 1.389-1.389h.077A1.39 1.39 0 0 1 42.904 181v8.94a1.39 1.39 0 0 0 1.389 1.389h.08a1.39 1.39 0 0 0 1.389-1.389V181a1.39 1.39 0 0 1 1.389-1.389h.077A1.39 1.39 0 0 1 48.617 181v8.94a1.39 1.39 0 0 0 1.389 1.389h.115a1.39 1.39 0 0 0 1.389-1.389V181a1.39 1.39 0 0 1 1.389-1.389h.042A1.39 1.39 0 0 1 54.33 181v11.797a1.39 1.39 0 0 1-1.389 1.389H41.447a1.39 1.39 0 0 1-1.389-1.389v-3.008a1.39 1.39 0 0 0-1.389-1.389h-5.8a1.39 1.39 0 0 0-1.389 1.389v.15a1.39 1.39 0 0 0 1.389 1.389h2.933a1.39 1.39 0 0 1 1.389 1.389v.08a1.39 1.39 0 0 1-1.39 1.389zm22.806.001h.115a1.39 1.39 0 0 0 1.389-1.389v-3.008a1.39 1.39 0 0 1 1.389-1.389h5.754a1.39 1.39 0 0 1 1.389 1.389v3.008a1.39 1.39 0 0 0 1.389 1.389h11.502a1.39 1.39 0 0 0 1.389-1.389v-5.938a1.39 1.39 0 0 0-1.389-1.389h-5.8a1.39 1.39 0 0 0-1.389 1.389v.15a1.39 1.39 0 0 0 1.389 1.389H78.7a1.39 1.39 0 0 1 1.389 1.389v.15a1.39 1.39 0 0 1-1.389 1.389h-5.8a1.39 1.39 0 0 1-1.389-1.389v-3.08a1.39 1.39 0 0 0-1.389-1.389H58.618a1.39 1.39 0 0 0-1.389 1.389v5.938a1.39 1.39 0 0 0 1.389 1.389zm5.713 0h.077a1.39 1.39 0 0 0 1.389-1.389v-.08a1.39 1.39 0 0 0-1.389-1.389h-.077a1.39 1.39 0 0 0-1.389 1.389v.08a1.39 1.39 0 0 0 1.389 1.389zm-5.713-11.645h34.388a1.39 1.39 0 0 0 1.389-1.389V181a1.39 1.39 0 0 0-1.389-1.389H58.618A1.39 1.39 0 0 0 57.229 181v.152a1.39 1.39 0 0 0 1.389 1.389zm34.388 11.645H87.18a1.39 1.39 0 0 1-1.389-1.389v-5.938a1.39 1.39 0 0 1 1.389-1.389h8.648a1.39 1.39 0 0 0 1.389-1.389V181a1.39 1.39 0 0 1 1.389-1.389h.115A1.39 1.39 0 0 1 100.11 181v8.94a1.39 1.39 0 0 0 1.389 1.389h.115a1.39 1.39 0 0 0 1.389-1.389V181a1.39 1.39 0 0 1 1.389-1.389h.042a1.39 1.39 0 0 1 1.389 1.389v8.94a1.39 1.39 0 0 0 1.389 1.389h.115a1.39 1.39 0 0 0 1.389-1.389V181a1.39 1.39 0 0 1 1.389-1.389h.077a1.39 1.39 0 0 1 1.389 1.389v11.797a1.39 1.39 0 0 1-1.389 1.389H98.607a1.39 1.39 0 0 1-1.389-1.389v-3.008a1.39 1.39 0 0 0-1.389-1.389h-5.754a1.39 1.39 0 0 0-1.389 1.389v.15a1.39 1.39 0 0 0 1.389 1.389H93a1.39 1.39 0 0 1 1.389 1.389v.08c-.005.766-.626 1.4-1.393 1.4zm22.808 0h.077a1.39 1.39 0 0 0 1.389-1.389v-3.008a1.39 1.39 0 0 1 1.389-1.389h5.792a1.39 1.39 0 0 1 1.389 1.389v3.008a1.39 1.39 0 0 0 1.389 1.389h11.538a1.39 1.39 0 0 0 1.389-1.389v-5.938a1.39 1.39 0 0 0-1.389-1.389h-5.8a1.39 1.39 0 0 0-1.389 1.389v.15a1.39 1.39 0 0 0 1.389 1.389h2.935a1.39 1.39 0 0 1 1.389 1.389v.15a1.39 1.39 0 0 1-1.389 1.389h-5.827a1.39 1.39 0 0 1-1.389-1.389v-3.08a1.39 1.39 0 0 0-1.389-1.389h-11.502a1.39 1.39 0 0 0-1.389 1.389v5.938a1.39 1.39 0 0 0 1.388 1.389zm5.712 0h.077a1.39 1.39 0 0 0 1.389-1.389v-.08a1.39 1.39 0 0 0-1.389-1.389h-.077a1.39 1.39 0 0 0-1.389 1.389v.08a1.39 1.39 0 0 0 1.389 1.389zm-5.712-11.645h34.424a1.39 1.39 0 0 0 1.389-1.389V181a1.39 1.39 0 0 0-1.389-1.389h-34.424a1.39 1.39 0 0 0-1.389 1.389v.152a1.39 1.39 0 0 0 1.389 1.389zm34.424 11.645h-5.827a1.39 1.39 0 0 1-1.389-1.389v-5.938a1.39 1.39 0 0 1 1.389-1.389h8.646a1.39 1.39 0 0 0 1.389-1.389V181a1.39 1.39 0 0 1 1.389-1.389h.08a1.39 1.39 0 0 1 1.389 1.389v8.94a1.39 1.39 0 0 0 1.389 1.389h.115a1.39 1.39 0 0 0 1.389-1.389V181a1.39 1.39 0 0 1 1.389-1.389h.115A1.39 1.39 0 0 1 163.09 181v8.94a1.39 1.39 0 0 0 1.389 1.389h.042a1.39 1.39 0 0 0 1.389-1.389V181a1.39 1.39 0 0 1 1.389-1.389h.077a1.39 1.39 0 0 1 1.389 1.389v11.797a1.39 1.39 0 0 1-1.389 1.389h-11.54a1.39 1.39 0 0 1-1.389-1.389v-3.008a1.39 1.39 0 0 0-1.389-1.389h-5.8a1.39 1.39 0 0 0-1.389 1.389v.15a1.39 1.39 0 0 0 1.389 1.389h2.973a1.39 1.39 0 0 1 1.389 1.389v.08c-.002.766-.624 1.4-1.4 1.4zm22.77 0h.077a1.39 1.39 0 0 0 1.389-1.389v-3.008a1.39 1.39 0 0 1 1.389-1.389h5.8a1.39 1.39 0 0 1 1.389 1.389v3.008a1.39 1.39 0 0 0 1.389 1.389h11.54a1.39 1.39 0 0 0 1.389-1.389v-5.938a1.39 1.39 0 0 0-1.389-1.389h-5.827a1.39 1.39 0 0 0-1.389 1.389v.15a1.39 1.39 0 0 0 1.389 1.389h2.935a1.39 1.39 0 0 1 1.389 1.389v.15a1.39 1.39 0 0 1-1.389 1.389h-5.8a1.39 1.39 0 0 1-1.389-1.389v-3.08a1.39 1.39 0 0 0-1.389-1.389h-11.502a1.39 1.39 0 0 0-1.389 1.389v5.938a1.39 1.39 0 0 0 1.388 1.389zm5.713 0h.077a1.39 1.39 0 0 0 1.389-1.389v-.08a1.39 1.39 0 0 0-1.389-1.389h-.077a1.39 1.39 0 0 0-1.389 1.389v.08a1.39 1.39 0 0 0 1.389 1.389zm-5.713-11.645h34.388a1.39 1.39 0 0 0 1.389-1.389V181a1.39 1.39 0 0 0-1.389-1.389h-34.388a1.39 1.39 0 0 0-1.389 1.389v.152a1.39 1.39 0 0 0 1.389 1.389zm34.388 11.645h-5.827a1.39 1.39 0 0 1-1.389-1.389v-5.938a1.39 1.39 0 0 1 1.389-1.389h8.72a1.39 1.39 0 0 0 1.389-1.389V181a1.39 1.39 0 0 1 1.389-1.389h.077a1.39 1.39 0 0 1 1.389 1.389v8.94a1.39 1.39 0 0 0 1.389 1.389h.042a1.39 1.39 0 0 0 1.389-1.389V181a1.39 1.39 0 0 1 1.389-1.389h.115a1.39 1.39 0 0 1 1.389 1.389v8.94a1.39 1.39 0 0 0 1.389 1.389h.08a1.39 1.39 0 0 0 1.389-1.389V181a1.39 1.39 0 0 1 1.389-1.389h.077a1.39 1.39 0 0 1 1.389 1.389v11.797a1.39 1.39 0 0 1-1.389 1.389h-11.507a1.39 1.39 0 0 1-1.389-1.389v-3.008a1.39 1.39 0 0 0-1.389-1.389h-5.827a1.39 1.39 0 0 0-1.389 1.389v.15a1.39 1.39 0 0 0 1.389 1.389h2.935a1.39 1.39 0 0 1 1.389 1.389v.08a1.39 1.39 0 0 1-1.386 1.39zm22.805 0h.08a1.39 1.39 0 0 0 1.389-1.389v-3.008a1.39 1.39 0 0 1 1.389-1.389h5.8a1.39 1.39 0 0 1 1.389 1.389v3.008a1.39 1.39 0 0 0 1.389 1.389h11.54a1.39 1.39 0 0 0 1.389-1.389v-5.938a1.39 1.39 0 0 0-1.389-1.389h-5.827a1.39 1.39 0 0 0-1.389 1.389v.15a1.39 1.39 0 0 0 1.389 1.389h2.97a1.39 1.39 0 0 1 1.389 1.389v.15a1.39 1.39 0 0 1-1.389 1.389h-5.8a1.39 1.39 0 0 1-1.389-1.389v-3.08a1.39 1.39 0 0 0-1.389-1.389H230.2a1.39 1.39 0 0 0-1.389 1.389v5.938a1.39 1.39 0 0 0 1.389 1.389zm5.75 0h.042a1.39 1.39 0 0 0 1.389-1.389v-.08a1.39 1.39 0 0 0-1.389-1.389h-.042a1.39 1.39 0 0 0-1.389 1.389v.08a1.39 1.39 0 0 0 1.389 1.389zm-5.75-11.645h34.425a1.39 1.39 0 0 0 1.389-1.389V181a1.39 1.39 0 0 0-1.389-1.389H230.2a1.39 1.39 0 0 0-1.389 1.389v.152a1.39 1.39 0 0 0 1.389 1.389zm34.426 11.645H258.8a1.39 1.39 0 0 1-1.389-1.389v-5.938a1.39 1.39 0 0 1 1.389-1.389h8.684a1.39 1.39 0 0 0 1.389-1.389V181a1.39 1.39 0 0 1 1.389-1.389h.077a1.39 1.39 0 0 1 1.389 1.389v8.94a1.39 1.39 0 0 0 1.389 1.389h.08a1.39 1.39 0 0 0 1.389-1.389V181a1.39 1.39 0 0 1 1.389-1.389h.077a1.39 1.39 0 0 1 1.389 1.389v8.94a1.39 1.39 0 0 0 1.389 1.389h.077a1.39 1.39 0 0 0 1.389-1.389V181a1.39 1.39 0 0 1 1.389-1.389h.08a1.39 1.39 0 0 1 1.389 1.389v11.797a1.39 1.39 0 0 1-1.389 1.389H270.26a1.39 1.39 0 0 1-1.389-1.389v-3.008a1.39 1.39 0 0 0-1.389-1.389h-5.827a1.39 1.39 0 0 0-1.389 1.389v.15a1.39 1.39 0 0 0 1.389 1.389h2.97a1.39 1.39 0 0 1 1.389 1.389v.08a1.39 1.39 0 0 1-1.388 1.389zm22.77 0h.08a1.39 1.39 0 0 0 1.389-1.389v-3.008a1.39 1.39 0 0 1 1.389-1.389h5.8a1.39 1.39 0 0 1 1.389 1.389v3.008a1.39 1.39 0 0 0 1.389 1.389h11.54a1.39 1.39 0 0 0 1.389-1.389v-5.938a1.39 1.39 0 0 0-1.389-1.389h-5.792a1.39 1.39 0 0 0-1.389 1.389v.15a1.39 1.39 0 0 0 1.389 1.389h2.9a1.39 1.39 0 0 1 1.389 1.389v.15a1.39 1.39 0 0 1-1.389 1.389h-5.754a1.39 1.39 0 0 1-1.389-1.389v-3.08a1.39 1.39 0 0 0-1.389-1.389h-11.54a1.39 1.39 0 0 0-1.389 1.389v5.938a1.39 1.39 0 0 0 1.389 1.389zm5.75 0h.042a1.39 1.39 0 0 0 1.389-1.389v-.08a1.39 1.39 0 0 0-1.389-1.389h-.042a1.39 1.39 0 0 0-1.389 1.389v.08a1.39 1.39 0 0 0 1.389 1.389zm-5.75-11.645h34.424a1.39 1.39 0 0 0 1.389-1.389V181a1.39 1.39 0 0 0-1.389-1.389h-34.424a1.39 1.39 0 0 0-1.389 1.389v.152a1.39 1.39 0 0 0 1.389 1.389zm34.425 11.645h-5.8a1.39 1.39 0 0 1-1.389-1.389v-5.938a1.39 1.39 0 0 1 1.389-1.389h8.646a1.39 1.39 0 0 0 1.389-1.389V181a1.39 1.39 0 0 1 1.389-1.389h.08a1.39 1.39 0 0 1 1.389 1.389v8.94a1.39 1.39 0 0 0 1.389 1.389h.077a1.39 1.39 0 0 0 1.389-1.389V181a1.39 1.39 0 0 1 1.389-1.389h.08a1.39 1.39 0 0 1 1.389 1.389v8.94a1.39 1.39 0 0 0 1.389 1.389h.077a1.39 1.39 0 0 0 1.389-1.389V181a1.39 1.39 0 0 1 1.389-1.389h.08a1.39 1.39 0 0 1 1.389 1.389v11.797a1.39 1.39 0 0 1-1.389 1.389h-11.505a1.39 1.39 0 0 1-1.389-1.389v-3.008a1.39 1.39 0 0 0-1.389-1.389h-5.826a1.39 1.39 0 0 0-1.389 1.389v.15a1.39 1.39 0 0 0 1.389 1.389h2.97a1.39 1.39 0 0 1 1.389 1.389v.08a1.39 1.39 0 0 1-1.387 1.389zm22.77 0h.08a1.39 1.39 0 0 0 1.389-1.389v-3.008a1.39 1.39 0 0 1 1.389-1.389h5.826a1.39 1.39 0 0 1 1.389 1.389v3.008a1.39 1.39 0 0 0 1.389 1.389h11.505a1.39 1.39 0 0 0 1.389-1.389v-5.938a1.39 1.39 0 0 0-1.389-1.389h-5.792a1.39 1.39 0 0 0-1.389 1.389v.15a1.39 1.39 0 0 0 1.389 1.389h2.973a1.39 1.39 0 0 1 1.389 1.389v.15a1.39 1.39 0 0 1-1.389 1.389h-5.865a1.39 1.39 0 0 1-1.389-1.389v-3.08a1.39 1.39 0 0 0-1.389-1.389H344.6a1.39 1.39 0 0 0-1.389 1.389v5.938a1.39 1.39 0 0 0 1.387 1.389zm5.713 0h.115a1.39 1.39 0 0 0 1.389-1.389v-.08a1.39 1.39 0 0 0-1.389-1.389h-.115a1.39 1.39 0 0 0-1.389 1.389v.08a1.39 1.39 0 0 0 1.389 1.389zM344.6 182.53h34.424a1.39 1.39 0 0 0 1.389-1.389V181a1.39 1.39 0 0 0-1.389-1.389H344.6a1.39 1.39 0 0 0-1.389 1.389v.152a1.39 1.39 0 0 0 1.389 1.389zm34.426 11.645h-5.8a1.39 1.39 0 0 1-1.389-1.389v-5.938a1.39 1.39 0 0 1 1.389-1.389h8.646a1.39 1.39 0 0 0 1.389-1.389V181a1.39 1.39 0 0 1 1.389-1.389h.08a1.39 1.39 0 0 1 1.389 1.389v8.94a1.39 1.39 0 0 0 1.389 1.389h.077a1.39 1.39 0 0 0 1.389-1.389V181a1.39 1.39 0 0 1 1.389-1.389h.08a1.39 1.39 0 0 1 1.389 1.389v8.94a1.39 1.39 0 0 0 1.389 1.389h.115a1.39 1.39 0 0 0 1.389-1.389V181a1.39 1.39 0 0 1 1.389-1.389h.04a1.39 1.39 0 0 1 1.389 1.389v11.797a1.39 1.39 0 0 1-1.389 1.389H384.65a1.39 1.39 0 0 1-1.389-1.389v-3.008a1.39 1.39 0 0 0-1.389-1.389h-5.754a1.39 1.39 0 0 0-1.389 1.389v.15a1.39 1.39 0 0 0 1.389 1.389h2.9a1.39 1.39 0 0 1 1.389 1.389v.08c-.002.766-.623 1.4-1.4 1.4z"/><path d="M401.82 194.176h.042a1.39 1.39 0 0 0 1.389-1.389v-3.008a1.39 1.39 0 0 1 1.389-1.389h5.792a1.39 1.39 0 0 1 1.389 1.389v3.008a1.39 1.39 0 0 0 1.389 1.389h11.538a1.39 1.39 0 0 0 1.389-1.389v-5.938a1.39 1.39 0 0 0-1.389-1.389h-5.752a1.39 1.39 0 0 0-1.389 1.389v.15a1.39 1.39 0 0 0 1.389 1.389h2.933a1.39 1.39 0 0 1 1.389 1.389v.15a1.39 1.39 0 0 1-1.389 1.389h-5.826a1.39 1.39 0 0 1-1.389-1.389v-3.08a1.39 1.39 0 0 0-1.389-1.389H401.82a1.39 1.39 0 0 0-1.389 1.389v5.938a1.39 1.39 0 0 0 1.389 1.389zm5.712 0h.08a1.39 1.39 0 0 0 1.389-1.389v-.08a1.39 1.39 0 0 0-1.389-1.389h-.08a1.39 1.39 0 0 0-1.389 1.389v.08a1.39 1.39 0 0 0 1.389 1.389zm-5.712-11.645h34.462a1.39 1.39 0 0 0 1.389-1.389V181a1.39 1.39 0 0 0-1.389-1.389H401.82a1.39 1.39 0 0 0-1.389 1.389v.152a1.39 1.39 0 0 0 1.389 1.389zm34.46 11.645h-5.865a1.39 1.39 0 0 1-1.389-1.389v-5.938a1.39 1.39 0 0 1 1.389-1.389h8.648a1.39 1.39 0 0 0 1.389-1.389V181a1.39 1.39 0 0 1 1.389-1.389h.115a1.39 1.39 0 0 1 1.389 1.389v8.94a1.39 1.39 0 0 0 1.389 1.389h.077a1.39 1.39 0 0 0 1.389-1.389V181a1.39 1.39 0 0 1 1.389-1.389h.042A1.39 1.39 0 0 1 449.02 181v8.94a1.39 1.39 0 0 0 1.389 1.389h.115a1.39 1.39 0 0 0 1.389-1.389V181a1.39 1.39 0 0 1 1.389-1.389h.08a1.39 1.39 0 0 1 1.389 1.389v11.797a1.39 1.39 0 0 1-1.389 1.389h-11.54a1.39 1.39 0 0 1-1.389-1.389v-3.008a1.39 1.39 0 0 0-1.389-1.389h-5.8a1.39 1.39 0 0 0-1.389 1.389v.15a1.39 1.39 0 0 0 1.389 1.389h3.008a1.39 1.39 0 0 1 1.389 1.389v.08a1.39 1.39 0 0 1-1.39 1.389zm22.733 0h.08a1.39 1.39 0 0 0 1.389-1.389v-3.008a1.39 1.39 0 0 1 1.389-1.389h5.8a1.39 1.39 0 0 1 1.389 1.389v3.008a1.39 1.39 0 0 0 1.389 1.389h11.54a1.39 1.39 0 0 0 1.389-1.389v-5.938a1.39 1.39 0 0 0-1.389-1.389h-5.754a1.39 1.39 0 0 0-1.389 1.389v.15a1.39 1.39 0 0 0 1.389 1.389h2.935a1.39 1.39 0 0 1 1.389 1.389v.15a1.39 1.39 0 0 1-1.389 1.389h-5.865a1.39 1.39 0 0 1-1.389-1.389v-3.08a1.39 1.39 0 0 0-1.389-1.389h-11.502a1.39 1.39 0 0 0-1.389 1.389v5.938a1.39 1.39 0 0 0 1.388 1.389zm5.713 0h.08a1.39 1.39 0 0 0 1.389-1.389v-.08a1.39 1.39 0 0 0-1.389-1.389h-.08a1.39 1.39 0 0 0-1.389 1.389v.08a1.39 1.39 0 0 0 1.389 1.389zm-5.713-11.645H493.4a1.39 1.39 0 0 0 1.389-1.389V181a1.39 1.39 0 0 0-1.389-1.389h-34.388a1.39 1.39 0 0 0-1.389 1.389v.152a1.39 1.39 0 0 0 1.389 1.389zm34.388 11.645h-5.8a1.39 1.39 0 0 1-1.389-1.389v-5.938a1.39 1.39 0 0 1 1.389-1.389h8.72a1.39 1.39 0 0 0 1.389-1.389V181a1.39 1.39 0 0 1 1.389-1.389h.004a1.39 1.39 0 0 1 1.389 1.389v8.94a1.39 1.39 0 0 0 1.389 1.389h.152a1.39 1.39 0 0 0 1.389-1.389V181a1.39 1.39 0 0 1 1.389-1.389h.004a1.39 1.39 0 0 1 1.389 1.389v8.94a1.39 1.39 0 0 0 1.389 1.389h.08a1.39 1.39 0 0 0 1.389-1.389V181a1.39 1.39 0 0 1 1.389-1.389h.15A1.39 1.39 0 0 1 511.99 181v11.797a1.39 1.39 0 0 1-1.389 1.389h-11.5a1.39 1.39 0 0 1-1.389-1.389v-3.008a1.39 1.39 0 0 0-1.389-1.389h-5.864a1.39 1.39 0 0 0-1.389 1.389v.15a1.39 1.39 0 0 0 1.389 1.389h2.933a1.39 1.39 0 0 1 1.389 1.389v.08a1.39 1.39 0 0 1-1.389 1.389zM1.4 203.035h22.963a1.39 1.39 0 0 0 1.389-1.389v-3.08a1.39 1.39 0 0 0-1.389-1.389H1.4A1.39 1.39 0 0 0 0 198.565v3.08a1.39 1.39 0 0 0 1.389 1.389zm28.633 0H52.95a1.39 1.39 0 0 0 1.389-1.389v-3.08a1.39 1.39 0 0 0-1.389-1.389H30.022a1.39 1.39 0 0 0-1.389 1.389v3.08a1.39 1.39 0 0 0 1.389 1.389zm28.595 0h22.927a1.39 1.39 0 0 0 1.389-1.389v-3.08a1.39 1.39 0 0 0-1.389-1.389H58.618a1.39 1.39 0 0 0-1.389 1.389v3.08a1.39 1.39 0 0 0 1.389 1.389zm28.56 0h23a1.39 1.39 0 0 0 1.389-1.389v-3.08a1.39 1.39 0 0 0-1.389-1.389h-23a1.39 1.39 0 0 0-1.389 1.389v3.08a1.39 1.39 0 0 0 1.389 1.389zm28.636 0h22.963a1.39 1.39 0 0 0 1.389-1.389v-3.08a1.39 1.39 0 0 0-1.389-1.389h-22.963a1.39 1.39 0 0 0-1.389 1.389v3.08a1.39 1.39 0 0 0 1.389 1.389zm28.596 0h22.963a1.39 1.39 0 0 0 1.389-1.389v-3.08a1.39 1.39 0 0 0-1.389-1.389H144.4a1.39 1.39 0 0 0-1.389 1.389v3.08a1.39 1.39 0 0 0 1.389 1.389zm28.597 0h22.963a1.39 1.39 0 0 0 1.389-1.389v-3.08a1.39 1.39 0 0 0-1.389-1.389h-22.963a1.39 1.39 0 0 0-1.389 1.389v3.08a1.39 1.39 0 0 0 1.389 1.389zm28.56 0h23a1.39 1.39 0 0 0 1.389-1.389v-3.08a1.39 1.39 0 0 0-1.389-1.389h-23a1.39 1.39 0 0 0-1.389 1.389v3.08a1.39 1.39 0 0 0 1.389 1.389zm28.633 0h22.965a1.39 1.39 0 0 0 1.389-1.389v-3.08a1.39 1.39 0 0 0-1.389-1.389H230.2a1.39 1.39 0 0 0-1.389 1.389v3.08a1.39 1.39 0 0 0 1.389 1.389zm28.597 0h22.965a1.39 1.39 0 0 0 1.389-1.389v-3.08a1.39 1.39 0 0 0-1.389-1.389h-22.965a1.39 1.39 0 0 0-1.389 1.389v3.08a1.39 1.39 0 0 0 1.389 1.389zm28.598 0h22.965a1.39 1.39 0 0 0 1.389-1.389v-3.08a1.39 1.39 0 0 0-1.389-1.389h-22.965a1.39 1.39 0 0 0-1.389 1.389v3.08a1.39 1.39 0 0 0 1.389 1.389zm28.635 0h22.927a1.39 1.39 0 0 0 1.389-1.389v-3.08a1.39 1.39 0 0 0-1.389-1.389H316.03a1.39 1.39 0 0 0-1.389 1.389v3.08a1.39 1.39 0 0 0 1.389 1.389z"/><path d="M344.6 203.035h22.965a1.39 1.39 0 0 0 1.389-1.389v-3.08a1.39 1.39 0 0 0-1.389-1.389H344.6a1.39 1.39 0 0 0-1.389 1.389v3.08a1.39 1.39 0 0 0 1.389 1.389zm28.635 0h22.925a1.39 1.39 0 0 0 1.389-1.389v-3.08a1.39 1.39 0 0 0-1.389-1.389h-22.925a1.39 1.39 0 0 0-1.389 1.389v3.08a1.39 1.39 0 0 0 1.389 1.389zm28.595 0h22.927a1.39 1.39 0 0 0 1.389-1.389v-3.08a1.39 1.39 0 0 0-1.389-1.389H401.82a1.39 1.39 0 0 0-1.389 1.389v3.08a1.39 1.39 0 0 0 1.389 1.389zm28.597 0h22.965a1.39 1.39 0 0 0 1.389-1.389v-3.08a1.39 1.39 0 0 0-1.389-1.389h-22.965a1.39 1.39 0 0 0-1.389 1.389v3.08a1.39 1.39 0 0 0 1.389 1.389zm28.596 0h22.965a1.39 1.39 0 0 0 1.389-1.389v-3.08a1.39 1.39 0 0 0-1.389-1.389h-22.965a1.39 1.39 0 0 0-1.389 1.389v3.08a1.39 1.39 0 0 0 1.389 1.389zm28.6 0h23a1.39 1.39 0 0 0 1.389-1.389v-3.08a1.39 1.39 0 0 0-1.389-1.389h-23a1.39 1.39 0 0 0-1.389 1.389v3.08a1.39 1.39 0 0 0 1.39 1.39zm22.997 114.79h-.077a1.39 1.39 0 0 0-1.389 1.389v3.008a1.39 1.39 0 0 1-1.389 1.389h-5.827a1.39 1.39 0 0 1-1.389-1.389v-3.008a1.39 1.39 0 0 0-1.389-1.389h-11.5a1.39 1.39 0 0 0-1.389 1.389v5.94a1.39 1.39 0 0 0 1.389 1.389h5.8a1.39 1.39 0 0 0 1.389-1.389v-.152a1.39 1.39 0 0 0-1.389-1.389h-2.935a1.39 1.39 0 0 1-1.389-1.389v-.15a1.39 1.39 0 0 1 1.389-1.389h5.792a1.39 1.39 0 0 1 1.389 1.389v3.08a1.39 1.39 0 0 0 1.389 1.389h11.538a1.39 1.39 0 0 0 1.389-1.389v-5.94a1.39 1.39 0 0 0-1.39-1.389zm-5.748 0h-.08a1.39 1.39 0 0 0-1.389 1.389v.08a1.39 1.39 0 0 0 1.389 1.389h.08a1.39 1.39 0 0 0 1.389-1.389v-.08a1.39 1.39 0 0 0-1.389-1.389zm5.748 11.645h-34.423a1.39 1.39 0 0 0-1.389 1.389v.152a1.39 1.39 0 0 0 1.389 1.389H510.6a1.39 1.39 0 0 0 1.389-1.389v-.152a1.39 1.39 0 0 0-1.389-1.389zm-34.422-11.645h5.8a1.39 1.39 0 0 1 1.389 1.389v5.94a1.39 1.39 0 0 1-1.389 1.389h-8.648a1.39 1.39 0 0 0-1.389 1.389v3.08a1.39 1.39 0 0 1-1.389 1.389h-.077a1.39 1.39 0 0 1-1.389-1.389v-8.94a1.39 1.39 0 0 0-1.389-1.389h-.08a1.39 1.39 0 0 0-1.389 1.389v8.94a1.39 1.39 0 0 1-1.389 1.389h-.077a1.39 1.39 0 0 1-1.389-1.389v-8.94a1.39 1.39 0 0 0-1.389-1.389h-.115a1.39 1.39 0 0 0-1.389 1.389v8.94a1.39 1.39 0 0 1-1.389 1.389h-.042a1.39 1.39 0 0 1-1.389-1.389v-11.797a1.39 1.39 0 0 1 1.389-1.389h11.502a1.39 1.39 0 0 1 1.389 1.389v3.008a1.39 1.39 0 0 0 1.389 1.389h5.8a1.39 1.39 0 0 0 1.389-1.389v-.15a1.39 1.39 0 0 0-1.389-1.389h-2.933a1.39 1.39 0 0 1-1.389-1.389v-.08a1.39 1.39 0 0 1 1.39-1.39zm-22.806 0h-.115a1.39 1.39 0 0 0-1.389 1.389v3.008a1.39 1.39 0 0 1-1.389 1.389h-5.754a1.39 1.39 0 0 1-1.389-1.389v-3.008a1.39 1.39 0 0 0-1.389-1.389h-11.502a1.39 1.39 0 0 0-1.389 1.389v5.94a1.39 1.39 0 0 0 1.389 1.389h5.8a1.39 1.39 0 0 0 1.389-1.389v-.152a1.39 1.39 0 0 0-1.389-1.389H433.3a1.39 1.39 0 0 1-1.389-1.389v-.15a1.39 1.39 0 0 1 1.389-1.389h5.792a1.39 1.39 0 0 1 1.389 1.389v3.08a1.39 1.39 0 0 0 1.389 1.389h11.502a1.39 1.39 0 0 0 1.389-1.389v-5.94a1.39 1.39 0 0 0-1.389-1.389zm-5.713 0h-.077a1.39 1.39 0 0 0-1.389 1.389v.08a1.39 1.39 0 0 0 1.389 1.389h.077a1.39 1.39 0 0 0 1.389-1.389v-.08a1.39 1.39 0 0 0-1.389-1.389zm5.713 11.645h-34.388a1.39 1.39 0 0 0-1.389 1.389v.152a1.39 1.39 0 0 0 1.389 1.389h34.388a1.39 1.39 0 0 0 1.389-1.389v-.152a1.39 1.39 0 0 0-1.389-1.389zm-34.388-11.645h5.827a1.39 1.39 0 0 1 1.389 1.389v5.94a1.39 1.39 0 0 1-1.389 1.389h-8.648a1.39 1.39 0 0 0-1.389 1.389v3.08a1.39 1.39 0 0 1-1.389 1.389h-.115a1.39 1.39 0 0 1-1.389-1.389v-8.94a1.39 1.39 0 0 0-1.389-1.389h-.115a1.39 1.39 0 0 0-1.389 1.389v8.94a1.39 1.39 0 0 1-1.389 1.389h-.042a1.39 1.39 0 0 1-1.389-1.389v-8.94a1.39 1.39 0 0 0-1.389-1.389h-.115a1.39 1.39 0 0 0-1.389 1.389v8.94a1.39 1.39 0 0 1-1.389 1.389h-.077a1.39 1.39 0 0 1-1.389-1.389v-11.797a1.39 1.39 0 0 1 1.389-1.389h11.575a1.39 1.39 0 0 1 1.389 1.389v3.008a1.39 1.39 0 0 0 1.389 1.389h5.754a1.39 1.39 0 0 0 1.389-1.389v-.15a1.39 1.39 0 0 0-1.389-1.389h-2.935a1.39 1.39 0 0 1-1.389-1.389v-.08c.003-.768.625-1.4 1.392-1.4zm-22.808 0h-.077a1.39 1.39 0 0 0-1.389 1.389v3.008a1.39 1.39 0 0 1-1.389 1.389h-5.792a1.39 1.39 0 0 1-1.389-1.389v-3.008a1.39 1.39 0 0 0-1.389-1.389h-11.538a1.39 1.39 0 0 0-1.389 1.389v5.94a1.39 1.39 0 0 0 1.389 1.389h5.8a1.39 1.39 0 0 0 1.389-1.389v-.152a1.39 1.39 0 0 0-1.389-1.389h-2.935a1.39 1.39 0 0 1-1.389-1.389v-.15a1.39 1.39 0 0 1 1.389-1.389h5.827a1.39 1.39 0 0 1 1.389 1.389v3.08a1.39 1.39 0 0 0 1.389 1.389h11.502a1.39 1.39 0 0 0 1.389-1.389v-5.94c.002-.767-.62-1.4-1.388-1.4zm-5.712 0h-.077a1.39 1.39 0 0 0-1.389 1.389v.08a1.39 1.39 0 0 0 1.389 1.389h.077a1.39 1.39 0 0 0 1.389-1.389v-.08a1.39 1.39 0 0 0-1.389-1.389zm5.712 11.645H361.76a1.39 1.39 0 0 0-1.389 1.389v.152a1.39 1.39 0 0 0 1.389 1.389h34.425a1.39 1.39 0 0 0 1.389-1.389v-.152a1.39 1.39 0 0 0-1.389-1.389zm-34.424-11.645h5.827a1.39 1.39 0 0 1 1.389 1.389v5.94a1.39 1.39 0 0 1-1.389 1.389h-8.646a1.39 1.39 0 0 0-1.389 1.389v3.08a1.39 1.39 0 0 1-1.389 1.389h-.08a1.39 1.39 0 0 1-1.389-1.389v-8.94a1.39 1.39 0 0 0-1.389-1.389h-.115a1.39 1.39 0 0 0-1.389 1.389v8.94a1.39 1.39 0 0 1-1.389 1.389h-.115a1.39 1.39 0 0 1-1.389-1.389v-8.94a1.39 1.39 0 0 0-1.389-1.389h-.042a1.39 1.39 0 0 0-1.389 1.389v8.94a1.39 1.39 0 0 1-1.389 1.389h-.077a1.39 1.39 0 0 1-1.389-1.389v-11.797a1.39 1.39 0 0 1 1.389-1.389h11.54a1.39 1.39 0 0 1 1.389 1.389v3.008a1.39 1.39 0 0 0 1.389 1.389h5.8a1.39 1.39 0 0 0 1.389-1.389v-.15a1.39 1.39 0 0 0-1.389-1.389h-2.973a1.39 1.39 0 0 1-1.389-1.389v-.08c.002-.768.624-1.4 1.4-1.4zm-22.77 0h-.077a1.39 1.39 0 0 0-1.389 1.389v3.008a1.39 1.39 0 0 1-1.389 1.389h-5.8a1.39 1.39 0 0 1-1.389-1.389v-3.008a1.39 1.39 0 0 0-1.389-1.389h-11.54a1.39 1.39 0 0 0-1.389 1.389v5.94a1.39 1.39 0 0 0 1.389 1.389h5.827a1.39 1.39 0 0 0 1.389-1.389v-.152a1.39 1.39 0 0 0-1.389-1.389h-2.935a1.39 1.39 0 0 1-1.389-1.389v-.15a1.39 1.39 0 0 1 1.389-1.389h5.8a1.39 1.39 0 0 1 1.389 1.389v3.08a1.39 1.39 0 0 0 1.389 1.389h11.502a1.39 1.39 0 0 0 1.389-1.389v-5.94a1.39 1.39 0 0 0-1.388-1.389zm-5.713 0h-.077a1.39 1.39 0 0 0-1.389 1.389v.08a1.39 1.39 0 0 0 1.389 1.389h.077a1.39 1.39 0 0 0 1.389-1.389v-.08a1.39 1.39 0 0 0-1.389-1.389zm5.713 11.645h-34.388a1.39 1.39 0 0 0-1.389 1.389v.152a1.39 1.39 0 0 0 1.389 1.389h34.388a1.39 1.39 0 0 0 1.389-1.389v-.152a1.39 1.39 0 0 0-1.389-1.389zm-34.388-11.645h5.827a1.39 1.39 0 0 1 1.389 1.389v5.94a1.39 1.39 0 0 1-1.389 1.389h-8.72a1.39 1.39 0 0 0-1.389 1.389v3.08a1.39 1.39 0 0 1-1.389 1.389h-.077a1.39 1.39 0 0 1-1.389-1.389v-8.94a1.39 1.39 0 0 0-1.389-1.389h-.042a1.39 1.39 0 0 0-1.389 1.389v8.94a1.39 1.39 0 0 1-1.389 1.389h-.115a1.39 1.39 0 0 1-1.389-1.389v-8.94a1.39 1.39 0 0 0-1.389-1.389h-.08a1.39 1.39 0 0 0-1.389 1.389v8.94a1.39 1.39 0 0 1-1.389 1.389h-.077a1.39 1.39 0 0 1-1.389-1.389v-11.797a1.39 1.39 0 0 1 1.389-1.389h11.502a1.39 1.39 0 0 1 1.389 1.389v3.008a1.39 1.39 0 0 0 1.389 1.389h5.827a1.39 1.39 0 0 0 1.389-1.389v-.15a1.39 1.39 0 0 0-1.389-1.389h-2.935a1.39 1.39 0 0 1-1.389-1.389v-.08c.003-.768.624-1.4 1.4-1.4zm-22.805 0h-.08a1.39 1.39 0 0 0-1.389 1.389v3.008a1.39 1.39 0 0 1-1.389 1.389h-5.8a1.39 1.39 0 0 1-1.389-1.389v-3.008a1.39 1.39 0 0 0-1.389-1.389h-11.54a1.39 1.39 0 0 0-1.389 1.389v5.94a1.39 1.39 0 0 0 1.389 1.389h5.827a1.39 1.39 0 0 0 1.389-1.389v-.152a1.39 1.39 0 0 0-1.389-1.389h-2.97a1.39 1.39 0 0 1-1.389-1.389v-.15a1.39 1.39 0 0 1 1.389-1.389h5.8a1.39 1.39 0 0 1 1.389 1.389v3.08a1.39 1.39 0 0 0 1.389 1.389h11.54a1.39 1.39 0 0 0 1.389-1.389v-5.94a1.39 1.39 0 0 0-1.389-1.389zm-5.75 0h-.042a1.39 1.39 0 0 0-1.389 1.389v.08a1.39 1.39 0 0 0 1.389 1.389h.042a1.39 1.39 0 0 0 1.389-1.389v-.08a1.39 1.39 0 0 0-1.389-1.389zm5.75 11.645h-34.425a1.39 1.39 0 0 0-1.389 1.389v.152a1.39 1.39 0 0 0 1.389 1.389H281.8a1.39 1.39 0 0 0 1.389-1.389v-.152a1.39 1.39 0 0 0-1.389-1.389zm-34.426-11.645h5.827a1.39 1.39 0 0 1 1.389 1.389v5.94a1.39 1.39 0 0 1-1.389 1.389h-8.684a1.39 1.39 0 0 0-1.389 1.389v3.08a1.39 1.39 0 0 1-1.389 1.389h-.077a1.39 1.39 0 0 1-1.389-1.389v-8.94a1.39 1.39 0 0 0-1.389-1.389h-.08a1.39 1.39 0 0 0-1.389 1.389v8.94a1.39 1.39 0 0 1-1.389 1.389h-.077a1.39 1.39 0 0 1-1.389-1.389v-8.94a1.39 1.39 0 0 0-1.389-1.389h-.077a1.39 1.39 0 0 0-1.389 1.389v8.94a1.39 1.39 0 0 1-1.389 1.389h-.08a1.39 1.39 0 0 1-1.389-1.389v-11.797a1.39 1.39 0 0 1 1.389-1.389h11.502a1.39 1.39 0 0 1 1.389 1.389v3.008a1.39 1.39 0 0 0 1.389 1.389h5.827a1.39 1.39 0 0 0 1.389-1.389v-.15a1.39 1.39 0 0 0-1.389-1.389h-2.97a1.39 1.39 0 0 1-1.389-1.389v-.08a1.39 1.39 0 0 1 1.388-1.39z"/><path d="M224.605 317.826h-.08a1.39 1.39 0 0 0-1.389 1.389v3.008a1.39 1.39 0 0 1-1.389 1.389h-5.8a1.39 1.39 0 0 1-1.389-1.389v-3.008a1.39 1.39 0 0 0-1.389-1.389h-11.54a1.39 1.39 0 0 0-1.389 1.389v5.94a1.39 1.39 0 0 0 1.389 1.389h5.792a1.39 1.39 0 0 0 1.389-1.389v-.152a1.39 1.39 0 0 0-1.389-1.389h-2.9a1.39 1.39 0 0 1-1.389-1.389v-.15a1.39 1.39 0 0 1 1.389-1.389h5.754a1.39 1.39 0 0 1 1.389 1.389v3.08a1.39 1.39 0 0 0 1.389 1.389h11.54a1.39 1.39 0 0 0 1.389-1.389v-5.94a1.39 1.39 0 0 0-1.389-1.389zm-5.75 0h-.042a1.39 1.39 0 0 0-1.389 1.389v.08a1.39 1.39 0 0 0 1.389 1.389h.042a1.39 1.39 0 0 0 1.389-1.389v-.08a1.39 1.39 0 0 0-1.389-1.389zm5.75 11.645H190.18a1.39 1.39 0 0 0-1.389 1.389v.152a1.39 1.39 0 0 0 1.389 1.389h34.424a1.39 1.39 0 0 0 1.389-1.389v-.152a1.39 1.39 0 0 0-1.388-1.39zm-34.425-11.645h5.8a1.39 1.39 0 0 1 1.389 1.389v5.94a1.39 1.39 0 0 1-1.389 1.389h-8.646a1.39 1.39 0 0 0-1.389 1.389v3.08a1.39 1.39 0 0 1-1.389 1.389h-.08a1.39 1.39 0 0 1-1.389-1.389v-8.94a1.39 1.39 0 0 0-1.389-1.389h-.077a1.39 1.39 0 0 0-1.389 1.389v8.94a1.39 1.39 0 0 1-1.389 1.389h-.08a1.39 1.39 0 0 1-1.389-1.389v-8.94a1.39 1.39 0 0 0-1.389-1.389h-.077a1.39 1.39 0 0 0-1.389 1.389v8.94a1.39 1.39 0 0 1-1.389 1.389h-.08a1.39 1.39 0 0 1-1.389-1.389v-11.797a1.39 1.39 0 0 1 1.389-1.389h11.505a1.39 1.39 0 0 1 1.389 1.389v3.008a1.39 1.39 0 0 0 1.389 1.389h5.826a1.39 1.39 0 0 0 1.389-1.389v-.15a1.39 1.39 0 0 0-1.389-1.389h-2.97a1.39 1.39 0 0 1-1.389-1.389v-.08c-.002-.768.62-1.4 1.387-1.4zm-22.77 0h-.08a1.39 1.39 0 0 0-1.389 1.389v3.008a1.39 1.39 0 0 1-1.389 1.389h-5.826a1.39 1.39 0 0 1-1.389-1.389v-3.008a1.39 1.39 0 0 0-1.389-1.389h-11.505a1.39 1.39 0 0 0-1.389 1.389v5.94a1.39 1.39 0 0 0 1.389 1.389h5.792a1.39 1.39 0 0 0 1.389-1.389v-.152a1.39 1.39 0 0 0-1.389-1.389h-2.973a1.39 1.39 0 0 1-1.389-1.389v-.15a1.39 1.39 0 0 1 1.389-1.389h5.865a1.39 1.39 0 0 1 1.389 1.389v3.08a1.39 1.39 0 0 0 1.389 1.389h11.502a1.39 1.39 0 0 0 1.389-1.389v-5.94a1.39 1.39 0 0 0-1.387-1.39zm-5.713 0h-.115a1.39 1.39 0 0 0-1.389 1.389v.08a1.39 1.39 0 0 0 1.389 1.389h.115a1.39 1.39 0 0 0 1.389-1.389v-.08a1.39 1.39 0 0 0-1.389-1.389zm5.713 11.645h-34.424a1.39 1.39 0 0 0-1.389 1.389v.152a1.39 1.39 0 0 0 1.389 1.389H167.4a1.39 1.39 0 0 0 1.389-1.389v-.152a1.39 1.39 0 0 0-1.389-1.389zm-34.426-11.645h5.8a1.39 1.39 0 0 1 1.389 1.389v5.94a1.39 1.39 0 0 1-1.389 1.389h-8.646a1.39 1.39 0 0 0-1.389 1.389v3.08a1.39 1.39 0 0 1-1.389 1.389h-.08a1.39 1.39 0 0 1-1.389-1.389v-8.94a1.39 1.39 0 0 0-1.389-1.389h-.077a1.39 1.39 0 0 0-1.389 1.389v8.94a1.39 1.39 0 0 1-1.389 1.389h-.08a1.39 1.39 0 0 1-1.389-1.389v-8.94a1.39 1.39 0 0 0-1.389-1.389h-.115a1.39 1.39 0 0 0-1.389 1.389v8.94a1.39 1.39 0 0 1-1.389 1.389h-.04a1.39 1.39 0 0 1-1.389-1.389v-11.797a1.39 1.39 0 0 1 1.389-1.389h11.502a1.39 1.39 0 0 1 1.389 1.389v3.008a1.39 1.39 0 0 0 1.389 1.389h5.754a1.39 1.39 0 0 0 1.389-1.389v-.15a1.39 1.39 0 0 0-1.389-1.389H133a1.39 1.39 0 0 1-1.389-1.389v-.08c.003-.768.624-1.4 1.4-1.4zm-22.804 0h-.042a1.39 1.39 0 0 0-1.389 1.389v3.008a1.39 1.39 0 0 1-1.389 1.389h-5.792a1.39 1.39 0 0 1-1.389-1.389v-3.008a1.39 1.39 0 0 0-1.389-1.389H87.254a1.39 1.39 0 0 0-1.389 1.389v5.94a1.39 1.39 0 0 0 1.389 1.389h5.752a1.39 1.39 0 0 0 1.389-1.389v-.152a1.39 1.39 0 0 0-1.389-1.389h-2.933a1.39 1.39 0 0 1-1.389-1.389v-.15a1.39 1.39 0 0 1 1.389-1.389H95.9a1.39 1.39 0 0 1 1.389 1.389v3.08a1.39 1.39 0 0 0 1.389 1.389h11.505a1.39 1.39 0 0 0 1.389-1.389v-5.94c-.002-.767-.625-1.4-1.392-1.4zm-5.712 0h-.08a1.39 1.39 0 0 0-1.389 1.389v.08a1.39 1.39 0 0 0 1.389 1.389h.08a1.39 1.39 0 0 0 1.389-1.389v-.08a1.39 1.39 0 0 0-1.389-1.389zm5.712 11.645H75.72a1.39 1.39 0 0 0-1.389 1.389v.152a1.39 1.39 0 0 0 1.389 1.389h34.462a1.39 1.39 0 0 0 1.389-1.389v-.152a1.39 1.39 0 0 0-1.39-1.389zm-34.46-11.645h5.865a1.39 1.39 0 0 1 1.389 1.389v5.94a1.39 1.39 0 0 1-1.389 1.389h-8.648a1.39 1.39 0 0 0-1.389 1.389v3.08a1.39 1.39 0 0 1-1.389 1.389h-.115a1.39 1.39 0 0 1-1.389-1.389v-8.94a1.39 1.39 0 0 0-1.389-1.389h-.077a1.39 1.39 0 0 0-1.389 1.389v8.94a1.39 1.39 0 0 1-1.389 1.389h-.042a1.39 1.39 0 0 1-1.389-1.389v-8.94a1.39 1.39 0 0 0-1.389-1.389h-.115a1.39 1.39 0 0 0-1.389 1.389v8.94a1.39 1.39 0 0 1-1.389 1.389h-.08a1.39 1.39 0 0 1-1.389-1.389v-11.797a1.39 1.39 0 0 1 1.389-1.389h11.54a1.39 1.39 0 0 1 1.389 1.389v3.008a1.39 1.39 0 0 0 1.389 1.389h5.8a1.39 1.39 0 0 0 1.389-1.389v-.15a1.39 1.39 0 0 0-1.389-1.389H75.72a1.39 1.39 0 0 1-1.389-1.389v-.08c-.003-.768.62-1.4 1.387-1.4zm-22.734 0h-.08a1.39 1.39 0 0 0-1.389 1.389v3.008a1.39 1.39 0 0 1-1.389 1.389h-5.8a1.39 1.39 0 0 1-1.389-1.389v-3.008a1.39 1.39 0 0 0-1.389-1.389H30a1.39 1.39 0 0 0-1.389 1.389v5.94a1.39 1.39 0 0 0 1.389 1.389h5.754a1.39 1.39 0 0 0 1.389-1.389v-.152a1.39 1.39 0 0 0-1.389-1.389H32.84a1.39 1.39 0 0 1-1.389-1.389v-.15a1.39 1.39 0 0 1 1.389-1.389h5.865a1.39 1.39 0 0 1 1.389 1.389v3.08a1.39 1.39 0 0 0 1.389 1.389h11.502a1.39 1.39 0 0 0 1.389-1.389v-5.94a1.39 1.39 0 0 0-1.389-1.389zm-5.712 0h-.08a1.39 1.39 0 0 0-1.389 1.389v.08a1.39 1.39 0 0 0 1.389 1.389h.08a1.39 1.39 0 0 0 1.389-1.389v-.08a1.39 1.39 0 0 0-1.389-1.389zm5.712 11.645H18.6a1.39 1.39 0 0 0-1.389 1.389v.152a1.39 1.39 0 0 0 1.389 1.389h34.388a1.39 1.39 0 0 0 1.389-1.389v-.152a1.39 1.39 0 0 0-1.39-1.389zM18.6 317.826h5.8a1.39 1.39 0 0 1 1.389 1.389v5.94a1.39 1.39 0 0 1-1.389 1.389h-8.72a1.39 1.39 0 0 0-1.389 1.389v3.08a1.39 1.39 0 0 1-1.389 1.389h-.004a1.39 1.39 0 0 1-1.389-1.389v-8.94a1.39 1.39 0 0 0-1.389-1.389h-.154a1.39 1.39 0 0 0-1.389 1.389v8.94a1.39 1.39 0 0 1-1.389 1.389h-.003a1.39 1.39 0 0 1-1.389-1.389v-8.94a1.39 1.39 0 0 0-1.389-1.389h-.08a1.39 1.39 0 0 0-1.389 1.389v8.94a1.39 1.39 0 0 1-1.389 1.389H1.4A1.39 1.39 0 0 1 0 331.013v-11.797a1.39 1.39 0 0 1 1.389-1.389h11.5a1.39 1.39 0 0 1 1.389 1.389v3.008a1.39 1.39 0 0 0 1.389 1.389h5.864a1.39 1.39 0 0 0 1.389-1.389v-.15a1.39 1.39 0 0 0-1.389-1.389H18.6a1.39 1.39 0 0 1-1.389-1.389v-.08a1.39 1.39 0 0 1 1.388-1.39zm492-8.86h-22.963a1.39 1.39 0 0 0-1.389 1.389v3.08a1.39 1.39 0 0 0 1.389 1.389H510.6a1.39 1.39 0 0 0 1.389-1.389v-3.08a1.39 1.39 0 0 0-1.389-1.389zm-28.633 0H459.05a1.39 1.39 0 0 0-1.389 1.389v3.08a1.39 1.39 0 0 0 1.389 1.389h22.927a1.39 1.39 0 0 0 1.389-1.389v-3.08a1.39 1.39 0 0 0-1.389-1.389zm-28.595 0h-22.927a1.39 1.39 0 0 0-1.389 1.389v3.08a1.39 1.39 0 0 0 1.389 1.389h22.927a1.39 1.39 0 0 0 1.389-1.389v-3.08a1.39 1.39 0 0 0-1.389-1.389zm-28.56 0h-23a1.39 1.39 0 0 0-1.389 1.389v3.08a1.39 1.39 0 0 0 1.389 1.389h23a1.39 1.39 0 0 0 1.389-1.389v-3.08a1.39 1.39 0 0 0-1.389-1.389zm-28.636 0h-22.963a1.39 1.39 0 0 0-1.389 1.389v3.08a1.39 1.39 0 0 0 1.389 1.389h22.963a1.39 1.39 0 0 0 1.389-1.389v-3.08a1.39 1.39 0 0 0-1.389-1.389zm-28.596 0h-22.963a1.39 1.39 0 0 0-1.389 1.389v3.08a1.39 1.39 0 0 0 1.389 1.389H367.6a1.39 1.39 0 0 0 1.389-1.389v-3.08a1.39 1.39 0 0 0-1.389-1.389zm-28.597 0H316.03a1.39 1.39 0 0 0-1.389 1.389v3.08a1.39 1.39 0 0 0 1.389 1.389h22.963a1.39 1.39 0 0 0 1.389-1.389v-3.08a1.39 1.39 0 0 0-1.389-1.389zm-28.56 0h-23a1.39 1.39 0 0 0-1.389 1.389v3.08a1.39 1.39 0 0 0 1.389 1.389h23a1.39 1.39 0 0 0 1.389-1.389v-3.08a1.39 1.39 0 0 0-1.389-1.389z"/><path d="M281.8 308.966h-22.965a1.39 1.39 0 0 0-1.389 1.389v3.08a1.39 1.39 0 0 0 1.389 1.389H281.8a1.39 1.39 0 0 0 1.389-1.389v-3.08a1.39 1.39 0 0 0-1.389-1.389zm-28.597 0h-22.965a1.39 1.39 0 0 0-1.389 1.389v3.08a1.39 1.39 0 0 0 1.389 1.389h22.965a1.39 1.39 0 0 0 1.389-1.389v-3.08a1.39 1.39 0 0 0-1.389-1.389zm-28.598 0H201.64a1.39 1.39 0 0 0-1.389 1.389v3.08a1.39 1.39 0 0 0 1.389 1.389h22.965a1.39 1.39 0 0 0 1.389-1.389v-3.08a1.39 1.39 0 0 0-1.389-1.389zm-28.635 0h-22.927a1.39 1.39 0 0 0-1.389 1.389v3.08a1.39 1.39 0 0 0 1.389 1.389h22.927a1.39 1.39 0 0 0 1.389-1.389v-3.08a1.39 1.39 0 0 0-1.389-1.389zm-28.56 0h-22.965a1.39 1.39 0 0 0-1.389 1.389v3.08a1.39 1.39 0 0 0 1.389 1.389H167.4a1.39 1.39 0 0 0 1.389-1.389v-3.08a1.39 1.39 0 0 0-1.389-1.389zm-28.635 0H115.85a1.39 1.39 0 0 0-1.389 1.389v3.08a1.39 1.39 0 0 0 1.389 1.389h22.925a1.39 1.39 0 0 0 1.389-1.389v-3.08a1.39 1.39 0 0 0-1.389-1.389zm-28.595 0H87.254a1.39 1.39 0 0 0-1.389 1.389v3.08a1.39 1.39 0 0 0 1.389 1.389h22.927a1.39 1.39 0 0 0 1.389-1.389v-3.08a1.39 1.39 0 0 0-1.39-1.389zm-28.597 0H58.618a1.39 1.39 0 0 0-1.389 1.389v3.08a1.39 1.39 0 0 0 1.389 1.389h22.965a1.39 1.39 0 0 0 1.389-1.389v-3.08a1.39 1.39 0 0 0-1.389-1.389zm-28.597 0H30.022a1.39 1.39 0 0 0-1.389 1.389v3.08a1.39 1.39 0 0 0 1.389 1.389h22.965a1.39 1.39 0 0 0 1.389-1.389v-3.08a1.39 1.39 0 0 0-1.39-1.389zm-28.598 0h-23A1.39 1.39 0 0 0 0 310.355v3.08a1.39 1.39 0 0 0 1.389 1.389h23a1.39 1.39 0 0 0 1.389-1.389v-3.08a1.39 1.39 0 0 0-1.39-1.389z"/></g><path d="M248.698 214.274c2.618.698 5.414-.07 7.334-2.026 2.898 2.934 7.647 3.004 10.65.14 1.956-1.886 2.76-4.75 2.06-7.334-2.548 4.12-7.925 5.448-12.046 2.863-.2-.14-.5-.28-.663-.42a8.86 8.86 0 0 1-12.291-1.745c-.106-.2-.314-.5-.455-.698-1.05 4.053 1.395 8.24 5.4 9.22zm16.268 81.58c9.386-5.153 17.22-13.272 21.514-23.966 7.314-18.33 2.708-39.02-11.283-52.44-.48-.46-1.212.156-.863.724 13.8 22.503 8.363 52.074-13 68.278l1.02-65.367c.014-.887-.382-1.732-1.07-2.3l-3.473-2.807c-1.064-.86-2.584-.855-3.642.01l-3.422 2.797a2.89 2.89 0 0 0-1.06 2.28l.992 65.413c-21.356-16.196-26.804-45.794-13.026-68.312.348-.568-.383-1.185-.863-.723a48.02 48.02 0 0 0-11.286 52.438c4.295 10.692 12.127 18.812 21.516 23.965-5.975 2.048-12.255 3.134-18.605 2.952-.67-.02-.806.925-.163 1.12 8.068 2.45 16.366 2.617 24.168.868l3.063 5.943a.57.57 0 0 0 1.012.001l3.084-5.94c7.802 1.746 16.103 1.575 24.177-.874.642-.194.508-1.138-.163-1.12-6.358.185-12.653-.9-18.638-2.948zm38.204-60.77c-4.804-8.975-12.782-15.778-22.28-19.1-.595-.2-1.06.577-.573.978 20.966 17.27 25.17 48.032 8.956 70.302-.84 1.118-1.747 2.305-2.62 3.28 19.905-10.685 27.272-35.546 16.516-55.45zm-80.415 52.17c-16.214-22.27-12.044-53.03 8.918-70.3.487-.402.022-1.186-.573-.978-9.485 3.334-17.408 10.135-22.243 19.1-10.824 19.904-3.386 44.765 16.552 55.45-.942-.976-1.85-2.162-2.654-3.28z" fill="#ff4b55"/></svg>