<svg xmlns="http://www.w3.org/2000/svg" width="100%" height="100%" viewBox="0 0 426 286" fill-rule="evenodd" stroke-miterlimit="1" xmlns:v="https://vecta.io/nano"><style><![CDATA[.B{stroke-miterlimit:4}.C{fill:none}.D{stroke-width:.5}.E{fill-rule:nonzero}.F{stroke:#000}.G{fill:#bab8be}]]></style><g class="D F"><path d="M.25.25h425v285H.25z" fill="#0063e7"/><path d="M200.493 209.572h22.982v4.054h-22.982z" fill="#c8c9ca"/><path d="M250.924 243.023l-6.302-33.087h8.275l6.302 33.087h-8.275zm-2.83-1.02h-9.16l-3.212-28.377h6.967" class="E G"/><path d="M250.924 243.023l-2.83-1.02-5.406-28.377 1.933-3.7 6.302 33.087zm-30.312 0l-2.22-1.02v-28.377l2.22-3.7" fill="#f2efec" class="E"/><path d="M239.05 243.023l-3.746-33.087h-14.692v33.087h18.438zm-63.178-1.02h9.16l3.212-28.377h-6.967" class="G E"/><path d="M173.043 243.023l2.83-1.02 5.406-28.377-1.933-3.7-6.302 33.087z" fill="#57605f" class="E"/><path d="M173.043 243.023l6.302-33.087h-8.275l-6.302 33.087h8.275z" class="E G"/><path d="M203.355 243.023l2.22-1.02v-28.377l-2.22-3.7" fill="#57605f" class="B E"/><path d="M184.917 243.023l3.746-33.087h14.692v33.087h-18.438z" class="E G"/><g class="B"><path d="M205.575 213.626h12.816v28.378h-12.816z" fill="#c8c9ca"/><g class="C"><path d="M236.7 222.344h-16.097m16.564 4.136h-16.565m17.033 4.136h-17.033m17.5 4.136h-17.5"/><path d="M238.582 238.887h-17.97m14.176 4.136v-4.136m-10.088 4.136v-4.136m1.217 0v-4.135"/><path d="M232.04 238.887v-4.135m-1.177 0v-4.136m-6.123 4.136v-4.136m1.334 0v-4.136m7.222 0v-4.136m18.734 4.136v-4.136m-1.888 8.272v-4.136m4.82 8.272v-4.136m-2.276 8.27v-4.135m2.354 8.27v-4.136"/></g></g><path d="M255.26 222.344h-8.275m9.063 4.136h-8.275m9.063 4.136h-8.275m9.063 4.136h-8.275m9.06 4.135h-8.274" class="C"/><g class="B C"><path d="M235.772 214.072h-15.16m15.628 4.136H220.6m6.328 4.136v-4.136m4.984 4.136v-4.136"/><path d="M233.517 218.208v-4.136m-4.673 4.136v-4.136m2.148 0v-4.136m17.54 4.136v-4.136m2.22 8.272v-4.136m1.61 8.272v-4.136"/></g><path d="M245.4 214.072h8.275m.797 4.136h-8.274m-7.723 19.742h8.848m-9.306-4.055h8.533m-8.992-4.055h8.22m-8.678-4.053h7.907m-8.367-4.053h7.594m-8.054-4.054h7.28" class="C"/><g class="B C"><path d="M241.982 242.003v-4.054m1.528.001v-4.054m-3.97-.001v-4.054m1.43-.001v-4.054m-2.68.001v-4.053m.723 0v-4.054m1.997 0v-4.054m-53.752 8.718h16.097M186.8 226.48h16.565m-17.043 4.136h17.033m-17.5 4.136h17.5m-17.97 4.135h17.97"/><path d="M189.18 243.023v-4.136m10.087 4.136v-4.136m-1.217 0v-4.135m-6.123 4.135v-4.135m1.177 0v-4.136m6.123 4.136v-4.136m-1.334 0v-4.136m-7.223 0v-4.136m-18.732 4.136v-4.136m1.887 8.272v-4.136m-4.82 8.272v-4.136m2.275 8.27v-4.135m-2.354 8.27v-4.136"/></g><path d="M168.707 222.344h8.275m-9.062 4.136h8.275m-9.065 4.136h8.275m-9.062 4.136h8.275m-9.062 4.135h8.275" class="C"/><g class="B C"><path d="M188.195 214.072h15.16m-15.63 4.136h15.63m-6.326 4.136v-4.136m-4.985 4.136v-4.136"/><path d="M190.45 218.208v-4.136m4.673 4.136v-4.136m-2.148 0v-4.136m-17.54 4.136v-4.136m-2.22 8.272v-4.136m-1.61 8.272v-4.136"/></g><path d="M178.557 214.072h-8.275m-.787 4.136h8.274m7.723 19.742h-8.847m9.305-4.055h-8.534m8.994-4.055h-8.22m8.678-4.053h-7.907m8.366-4.053h-7.594m8.053-4.054h-7.28" class="C"/><path d="M181.985 242.003v-4.054m-1.527.001v-4.054m3.97-.001v-4.054m-1.43-.001v-4.054m2.678.001v-4.053m-.722 0v-4.054m-1.998 0v-4.054" class="B C"/><path d="M205.575 237.95h12.817m-12.817-4.055h12.817m-12.817-4.055h12.817m-12.817-4.053h12.817m-12.817-4.053h12.817m-12.817-4.054h12.817" class="C"/><path d="M208.45 242.085v-4.136m6.163 4.136v-4.136m-2.433.08v-4.136m-3.847.083v-4.136m6.397 4.136v-4.136m-3.963.082v-4.136m-2.197.083v-4.135m4.787 4.135v-4.135m-2.6.08v-4.135m4.083 4.135v-4.135m-2.12 0v-4.136m-3.1.164v-4.136m4.895 4.136v-4.136" class="B C"/></g><g class="E"><g fill="#ffce00" stroke="#1b1918" class="B D"><path d="M211.713 206.522a1.92 1.92 0 0 0-.97-.084 1.96 1.96 0 0 0-1.013.506 2.52 2.52 0 0 1 .169-1.941c.34-.64.977-1.117 1.688-1.265l2.837 1.346-2.7 1.438zm18.107-.168c.447-.087.926.006 1.308.253.33.213.586.54.715.9a1.8 1.8 0 0 1 .003 1.157c.347-.898.52-1.864.506-2.827-.006-.5-.062-.986-.238-1.444s-.48-.88-.9-1.13c-.343-.203-.754-.287-1.15-.234a1.79 1.79 0 0 0-1.046.53l-2.2 2.18 2.992.604zm-6.753 8.186a2.42 2.42 0 0 1 1.224 1.012c.258.428.378.937.338 1.435.676-.156 1.275-.614 1.604-1.224a2.49 2.49 0 0 0 .042-2.236l-2.693-1.413-.515 2.426zm-11.48-1.14a3 3 0 0 0-.76.971 3.01 3.01 0 0 0-.253 1.856c.453.035.912-.008 1.35-.126a4.06 4.06 0 0 0 1.435-.717l.564-2.474-2.337.5zm-5.53-4.167a1.62 1.62 0 0 1 1.497 1.46c.033.366-.066.743-.274 1.047.374-.042.737-.18 1.044-.398s.556-.516.717-.855c.308-.648.28-1.43 0-2.1a3 3 0 0 0-1.044-1.283l-2.844-.088.904 2.206zm-3.73 5.37a3.28 3.28 0 0 1 .447.716 3.29 3.29 0 0 1 .299 1.462 2.17 2.17 0 0 0 .968-.527c.27-.255.474-.58.584-.935.122-.394.13-.816.075-1.225a4.31 4.31 0 0 0-.374-1.281l-3.03-.82 1.03 2.6zm-12.236-.06a5.84 5.84 0 0 0-1.254.388c-.64.28-1.23.677-1.73 1.164a4.34 4.34 0 0 1 .24-2.09c.2-.504.474-.972.835-1.372l1.96-.807 1.527.4-1.576 2.327zm.223-7.6c-.368-.124-.77-.147-1.15-.068a2.21 2.21 0 0 0-1.112.608c-.3.306-.508.702-.6 1.123-.273-1.044-.047-2.207.597-3.073a3.67 3.67 0 0 1 2.507-1.438l3.284 1.817-3.537 1.03z"/><path d="M221.318 191.694l.328 3.9c.047.928.07 1.866-.1 2.78-.274 1.475-1.044 2.818-1.97 3.998-.27.343-.555.678-.9.96s-.718.512-1.14.622c-.466.122-.963.095-1.432-.016-.783-.186-1.495-.597-2.268-.82-.363-.104-.746-.166-1.118-.105a1.75 1.75 0 0 0-1.143.726 2.35 2.35 0 0 1 .465.928c.153.63.027 1.32-.338 1.856a4.67 4.67 0 0 0 1.73.676c.877.152 1.797.048 2.617-.296a3.32 3.32 0 0 1-.152 1.662 3.31 3.31 0 0 1-.945 1.376c-.74.64-1.737.933-2.448 1.604a3.05 3.05 0 0 0-.929 1.856 2.53 2.53 0 0 1 .887.464 2.54 2.54 0 0 1 .886 1.52 8.75 8.75 0 0 0 2.237-1.309c.737-.593 1.373-1.302 1.984-2.025l2.28-2.9 1.056 1.73 2.152 3.67c.3-.4.732-.736 1.208-.933a2.93 2.93 0 0 1 2-.08 3.84 3.84 0 0 0-.645-1.551c-.404-.57-.955-1.02-1.38-1.572-.467-.606-.775-1.333-.885-2.1s-.023-1.542.252-2.256c.866.048 1.724.234 2.533.55l1.334.52c.458.133.957.183 1.4.03a1.66 1.66 0 0 0 .929-.801 2.28 2.28 0 0 1-.971-1.519c-.067-.427-.008-.872.17-1.266a2.63 2.63 0 0 0-1.942-.38c-.415.083-.802.266-1.2.38-.204.057-.414.097-.625.097s-.425-.04-.613-.14a1.26 1.26 0 0 1-.454-.419 1.74 1.74 0 0 1-.237-.575c-.1-.406-.06-.828-.027-1.243l.57-4.45c.32-1.83.75-3.643 1.288-5.423m-15.368-1.84l-6.178 7.5-4.9 5.433c-.543.52-1.1 1.028-1.765 1.398s-1.4.598-2.16.522c-.876-.1-1.652-.578-2.47-.908-.252-.1-.5-.2-.78-.228s-.548-.03-.804.06c-.358.125-.658.408-.802.76a1.66 1.66 0 0 1 .717 1.245c.023.332-.06.67-.232.955a1.64 1.64 0 0 1-.738.648 1.49 1.49 0 0 0 .717 1.097c.336.197.74.252 1.128.232s.77-.1 1.15-.2c.622-.128 1.25-.222 1.883-.283-.613.54-1.174 1.142-1.67 1.8l-.684.855c-.252.264-.55.494-.898.607-.258.085-.533.102-.804.088s-.54-.058-.808-.094-.54-.064-.8-.045-.542.087-.772.23a1.3 1.3 0 0 0-.511.61 1.31 1.31 0 0 0-.056.793 1.74 1.74 0 0 1 1.194.298c.253.178.456.425.582.707a1.73 1.73 0 0 1 .135.904 1.9 1.9 0 0 0 1.372.209c.422-.097.8-.337 1.128-.618s.62-.604.932-.903c.968-.93 2.136-1.616 3.253-2.358l1.85-1.312c.7.75 1.196 1.67 1.462 2.655l.285 1.1c.12.36.298.7.58.96.366.325.9.452 1.373.328.085-.387.272-.75.537-1.044a2.32 2.32 0 0 1 1.462-.746 1.79 1.79 0 0 0-.179-.925c-.17-.344-.442-.623-.716-.892s-.555-.537-.746-.87a2.03 2.03 0 0 1-.09-1.82 1.45 1.45 0 0 1 .815-.219 1.45 1.45 0 0 1 .797.279c.192.142.344.328.507.5s.345.34.567.424c.25.094.543.072.777-.06a2.37 2.37 0 0 1 .388-1.104 2.39 2.39 0 0 1 1.552-1.014 1.11 1.11 0 0 0-.209-.895c-.115-.147-.268-.264-.435-.347s-.35-.135-.535-.163c-.37-.056-.746-.022-1.12.003-.4.027-.808.04-1.2-.074-.192-.057-.375-.147-.53-.276a1.08 1.08 0 0 1-.339-.485c-.085-.257-.056-.54.03-.797s.223-.5.36-.725l3.492-5.64c1.04-1.4 2.253-2.65 3.62-3.72s2.888-1.92 4.402-2.77l.185-.104 3.22-1.887-3.164-5.33-5.37 5.663z"/><path d="M161.155 131.476a1.99 1.99 0 0 0-1.055.331 1.98 1.98 0 0 0-.71.846c-.123.278-.18.58-.28.867a1.82 1.82 0 0 1-.199.409c-.085.125-.194.237-.325.314-.214.124-.47.148-.717.156s-.5.003-.735.08c-.315.102-.565.337-.808.56s-.5.454-.82.538a1.2 1.2 0 0 1-.571.003 1.64 1.64 0 0 1-.525-.23c-.322-.2-.578-.504-.825-.798l-1.042-1.3a3.13 3.13 0 0 1 3.493-.452 8.25 8.25 0 0 1 1.06-.942c.718-.536 1.523-.955 2.374-1.236m6.4 6.438c.2.62.674 1.146 1.277 1.388.48.192 1.015.208 1.528.148s1.017-.192 1.525-.287c2.496-.467 5.167-.004 7.327 1.332 1.357.84 2.537 2.062 3.025 3.58.264.82.318 1.693.3 2.554l-.107 2.58c-.006.96.088 1.922.278 2.863l2.6-1.727.427 2.642c.174.83.386 1.657.75 2.42.657 1.38 1.787 2.506 2.355 3.925.367.92.487 1.937.96 2.807a3.84 3.84 0 0 0 1.389 1.445l1.304-1.415c1.532 1.6 2.836 3.4 3.858 5.357a23.19 23.19 0 0 1 2.248 6.522c2.6-.392 5.3-.018 7.706 1.063 1.513.683 2.926 1.667 3.886 3.022.825 1.166 1.283 2.557 1.556 3.96.225 1.155.326 2.38-.084 3.484-.24.643-.642 1.213-1.08 1.74-.252.303-.522.604-.664.972a1.28 1.28 0 0 0-.087.58.88.88 0 0 0 .241.528 1 1 0 0 0 .331.211c.122.05.25.086.376.12l.377.12a1 1 0 0 1 .329.214.99.99 0 0 1 .213.36 2.49 2.49 0 0 1 .095.41c.046.277.084.567.24.8.148.22.392.364.65.415a1.43 1.43 0 0 0 .778-.08c.494-.187.876-.58 1.24-.964l1.452-1.53a3.32 3.32 0 0 0-.487 1.653c-.013.58.132 1.165.413 1.673s.7.94 1.2 1.237a3.32 3.32 0 0 0 1.66.461 3.34 3.34 0 0 0 2.386-.997 9.84 9.84 0 0 0 3.164 2.553c.973.494 2.028.824 3.1.972a6.59 6.59 0 0 0 1.036-5.549c.44-.125.92-.106 1.346.055a2.17 2.17 0 0 1 1.048.848c.2.312.317.67.4 1.028l.296 1.072a3.71 3.71 0 0 0 .785 1.275 6.74 6.74 0 0 0 1.962-3.179 6.72 6.72 0 0 0 .196-2.59l3.023 3.375a5.63 5.63 0 0 0 1.334-4.043c-.094-1.256-.613-2.445-1.252-3.53-.23-.4-.477-.777-.596-1.213-.06-.218-.084-.447-.054-.67a1.2 1.2 0 0 1 .262-.615c.166-.196.403-.324.653-.38a1.72 1.72 0 0 1 .762.019 2.22 2.22 0 0 1 1.471 1.193 2.7 2.7 0 0 0 .278-2.47 2.67 2.67 0 0 0-1.096-1.294c.373-1.16 1.156-2.18 2.178-2.84a5.34 5.34 0 0 1 2.165-.805l4.163 8.215c.648 1.403 1.274 2.828 1.624 4.333l.455 1.873c.2.608.55 1.193 1.076 1.562.392.274.87.413 1.35.428s.956-.1 1.4-.27c.545-.222 1.043-.56 1.452-.98a15.72 15.72 0 0 0 1.997 2.658c.62.663 1.303 1.276 2.085 1.738.572.337 1.198.6 1.854.692s1.344.04 1.953-.22 1.137-.737 1.464-1.32a3.13 3.13 0 0 0 1.443.194c.515-.052 1.016-.235 1.443-.527a4.25 4.25 0 0 0 2.053.658c.725.04 1.46-.113 2.1-.436a4.28 4.28 0 0 0 2.026-2.165 2.68 2.68 0 0 0 1.417.234 2.67 2.67 0 0 0 1.331-.539c.387-.3.688-.708.86-1.166a2.96 2.96 0 0 0 1.471.395c.514 0 1.027-.138 1.47-.395a2.97 2.97 0 0 0 1.36-1.748c.78.062 1.58-.204 2.165-.722.494-.436.832-1.044.944-1.693a2.32 2.32 0 0 0 1.5-.314 2.36 2.36 0 0 0 .987-1.184 2.37 2.37 0 0 0-.027-1.721 3.47 3.47 0 0 0 1.857-.656 3.46 3.46 0 0 0 1.196-1.565 3.47 3.47 0 0 0-.583-3.441 195.28 195.28 0 0 1-33.76-17.214 195.08 195.08 0 0 1-17.054-12.246c.82-.013 1.64-.08 2.453-.197.93-.135 1.848-.338 2.747-.608a6.38 6.38 0 0 0-.628-3.14c-.44-.9-1.103-1.7-1.912-2.314a8.56 8.56 0 0 1 2.22-.472c1.932-.148 3.866.364 5.8.25.78-.046 1.563-.198 2.258-.555s1.293-.936 1.572-1.666a2.68 2.68 0 0 0-.111-2.137 6.31 6.31 0 0 0-1.86-.072c-.518.058-1.03.18-1.553.183-.665.004-1.33-.2-1.887-.555.715-.275 1.46-.47 2.22-.583 1.082-.158 2.18-.144 3.275-.138 1.683.01 3.418-.01 4.968-.666a6.47 6.47 0 0 0 3.053-2.693c-.373-.502-.836-.936-1.36-1.276a5.3 5.3 0 0 0-2.435-.828 13.88 13.88 0 0 0 3.937-.689c1.083-.357 2.13-.853 3.022-1.564a7.45 7.45 0 0 0 2.387-3.386l-1.638-.777c1.3-.727 2.665-1.376 4.052-1.943.72-.294 1.456-.57 2.114-.985s1.243-.994 1.512-1.724c.237-.643.208-1.38-.078-2.002a8.28 8.28 0 0 0-2.08-.078l-1.766.235a11.21 11.21 0 0 1-3.729-.196 47.03 47.03 0 0 0 8.439-4.239c1.705-1.083 3.4-2.333 4.382-4.093a7.11 7.11 0 0 0 .888-2.918l-2.588-.563a5.95 5.95 0 0 1 1.233-1.95c.587-.615 1.318-1.12 1.713-1.873a2.59 2.59 0 0 0-.105-2.589 13.28 13.28 0 0 0-4.109.68 49.53 49.53 0 0 0 4.985-4.396c1.327-1.34 2.6-2.807 3.218-4.592.182-.534.3-1.097.26-1.66s-.25-1.126-.653-1.52a1.92 1.92 0 0 0-.749-.453 54.47 54.47 0 0 1-4.668 4.064c-1.885 1.462-3.866 2.8-5.926 4.003a41.98 41.98 0 0 0 6.162-7.182l3.1-4.814 1.008-1.584s.505-1.16.532-1.786a3.17 3.17 0 0 0-1.007-2.435l-2.192 1.846-3.384 2.754c1.85-2.3 3.522-4.723 4.996-7.27.865-1.496 1.68-3.102 1.72-4.83a5.74 5.74 0 0 0-1.18-3.601 8.1 8.1 0 0 0-1.041.881c-.887.9-1.552 1.97-2.275 2.997a30.26 30.26 0 0 1-6.717 6.883l8.66-12.878c.585-.888 1.17-1.783 1.596-2.76s.684-2.044.583-3.103a4.79 4.79 0 0 0-1.477-3.007l-1.687 1.953a304.88 304.88 0 0 0-7.563 9.192l3.72-5.717 2.194-3.6s1.056-2.642 1.08-4.05a7.26 7.26 0 0 0-1.226-4.151 38.84 38.84 0 0 0-2.104 2.32l-4.558 5.934a57.71 57.71 0 0 1-5.045 5.612 169.11 169.11 0 0 0 6.442-9.809l3.248-5.926c.57-1.235 1.077-2.56.967-3.915a4.5 4.5 0 0 0-2.494-3.662 223.99 223.99 0 0 1-4.444 6.881c-2.692 4.005-5.513 7.923-8.458 11.746 1.902-4.156 3.948-8.245 6.135-12.26 1.365-2.506 2.793-5 3.7-7.702.4-1.2.718-2.466.788-3.743s-.104-2.58-.622-3.75a6.79 6.79 0 0 0-3.219-3.331c-4.58 9.425-9.64 18.617-15.154 27.527-4.442 7.18-9.228 14.237-15.307 20.096-3 2.892-6.286 5.465-9.46 8.164-2.627 2.235-5.245 4.646-6.707 7.77-1.205 2.576-1.542 5.482-1.5 8.326.035 2.232.308 4.5 1.298 6.512.648 1.312 1.6 2.478 2.786 3.336.97.702 2.084 1.197 2.994 1.975.538.46 1.008 1.037 1.193 1.72.147.54.108 1.118-.012 1.665s-.317 1.075-.487 1.6c-.444 1.4-.708 2.837-.783 4.294-1.373-.876-2.532-2.083-3.353-3.5-.973-1.668-1.455-3.568-2.1-5.385-.17-.474-.355-.946-.6-1.38s-.583-.834-1-1.117c-.47-.317-1.044-.476-1.6-.444a19.51 19.51 0 0 0 .138-2.9c-.015-.574-.057-1.153-.23-1.7s-.5-1.065-.962-1.4a2.05 2.05 0 0 0-1.818-.24 10.54 10.54 0 0 0-.116-2.387c-.122-.744-.33-1.486-.73-2.123a3.89 3.89 0 0 0-1.453-1.352 3.88 3.88 0 0 0-1.932-.452l-.565-1.963c-.124-.438-.248-.878-.43-1.296s-.423-.815-.755-1.127a2.51 2.51 0 0 0-2.276-.6 3.32 3.32 0 0 0-.991-2.632c-.403-.387-.906-.668-1.446-.8a3.3 3.3 0 0 0-1.655.003 8.84 8.84 0 0 0-1.727-3.552 8.8 8.8 0 0 0-3.317-2.53l-1.668 3.356a18.8 18.8 0 0 0-3.65-6.75c-1.998-2.364-4.543-4.192-6.8-6.32-.44-.417-.872-.847-1.35-1.222s-1-.693-1.594-.858a3.44 3.44 0 0 0-2.689.373c.992 1.8 2.08 3.527 3.258 5.2.853 1.2 1.752 2.4 2.566 3.627a31.35 31.35 0 0 1 1.653 2.829 199.93 199.93 0 0 1-3.987-4.446c-1.597-1.837-3.167-3.7-4.977-5.335-1.742-1.565-3.688-2.884-5.617-4.2-.325-.224-.65-.448-1.005-.622s-.74-.296-1.134-.3a2.02 2.02 0 0 0-2.022 2.002 174.68 174.68 0 0 0-4.297-2.826c-.414-.263-.83-.525-1.275-.73s-.924-.35-1.414-.37a2.84 2.84 0 0 0-1.609.432l3.497 6.07a29.06 29.06 0 0 0-5.773-4.995c-1.497-.984-3.083-1.827-4.573-2.822-.796-.532-1.57-1.1-2.432-1.525s-1.84-.665-2.783-.5c-.586.108-1.142.382-1.586.78a65.34 65.34 0 0 0 2.826 2.988 65.52 65.52 0 0 0 4.545 4.111 162.26 162.26 0 0 1-6.988-4.68c-1.392-.985-2.785-2.002-4.357-2.664-1.076-.454-2.276-.735-3.414-.472a3.78 3.78 0 0 0-1.776.971l4.7 4.885 5.607 5.55a60.57 60.57 0 0 0-7.855-5.801 70.68 70.68 0 0 0-6.22-3.417c-.756-.37-1.523-.73-2.34-.934s-1.693-.24-2.5.03a3.4 3.4 0 0 0-2.119 2.198l4.75 3.258c4.66 3.12 9.44 6.1 13.62 9.85 4.594 4.112 8.364 9.043 12.167 13.895 4.577 5.838 9.245 11.608 14.13 17.2 2.592 2.962 5.375 5.965 9.027 7.43 1.833.736 3.82 1.05 5.796 1.036 1.128-.008 2.266-.123 3.34-.472.934-.304 1.82-.783 2.793-.916.734-.1 1.5.005 2.188.25s1.345.63 1.93 1.085c.997.774 1.832 1.762 2.4 2.9 1.084 2.146 1.16 4.685.707 7.046-.068.35-.147.7-.294 1.023s-.37.622-.673.8c-.377.232-.845.272-1.283.214s-.86-.206-1.285-.328c-.7-.2-1.43-.334-2.077-.67-.324-.168-.624-.388-.856-.67s-.393-.627-.425-1a1.58 1.58 0 0 1 .386-1.17c.28-.317.7-.5 1.113-.524-.297-.677-.94-1.192-1.665-1.332a2.32 2.32 0 0 0-1.332.139 2.31 2.31 0 0 0-1.027.86 5.33 5.33 0 0 0-1.847-.717c-1.142-.212-2.315-.044-3.474.04-.337.024-.677.04-1-.005s-.667-.158-.932-.368c-.284-.226-.477-.563-.53-.923a2.2 2.2 0 0 0 1.296-.45 2.19 2.19 0 0 0 .746-1.07c.133-.42.132-.883-.001-1.305a5.04 5.04 0 0 1-1.393.393c-.82.108-1.65.015-2.473-.06-.635-.057-1.286-.1-1.903.06a2.98 2.98 0 0 0-1.634 1.104c-1.557-.227-3.144-.242-4.705-.044-.747.094-1.488.237-2.237.314-1.372.14-2.757.057-4.13.16-.667.05-1.34.145-1.954.4a3.81 3.81 0 0 0-2.04 2.14"/><path d="M163.106 133.285a5.59 5.59 0 0 0-2.331.943 5.63 5.63 0 0 0-2.165 3.053c.88.254 1.822.292 2.72.11.73-.147 1.43-.436 2.164-.555a4.81 4.81 0 0 1 2.387.222 4.12 4.12 0 0 1 1.027-1.554 4.11 4.11 0 0 1 1.721-.971l-3.745-2.784-1.5-1.256c-.46-.464-.857-1-1.09-1.61-.304-.8-.324-1.678-.706-2.433a2.82 2.82 0 0 0-1.57-1.374c-1.43-.432-3.027-.288-4.357.392a5.88 5.88 0 0 0-3.179 4.946c.34.248.753.397 1.174.425a2.27 2.27 0 0 0 1.22-.268c.3-.17.575-.407.85-.627s.572-.428.913-.52c.378-.1.795-.046 1.134.15s.596.528.698.905a6.2 6.2 0 0 1 2.442.75c.885.49 1.645 1.203 2.193 2.054h0z"/></g><path d="M207.215 140.592a28.77 28.77 0 0 0 13.107-8.84c2.67-3.2 4.618-6.978 5.786-10.97a32.61 32.61 0 0 0 1.284-9.735l-.102-.04a11.22 11.22 0 0 1-5.43-5.062c-.5-1.017-.857-2.1-1.1-3.193-.273-1.257-.402-2.547-.352-3.832.087-3.466 1.476-6.797 3.5-9.566 1.766-2.422 4.026-4.473 6.596-5.994.022-.014.048-.02.075-.02.08 0 .145.065.145.145 0 .05-.027.098-.07.124-2.508 1.547-4.692 3.606-6.38 6.008-1.934 2.75-3.215 5.997-3.246 9.315.005 1.228.18 2.454.493 3.64.274 1.03.65 2.025 1.164 2.934a10.21 10.21 0 0 0 5.029 4.501 8.98 8.98 0 0 0 .392.163.54.54 0 0 1 .349.492 33.55 33.55 0 0 1-1.539 10.366c-1.272 4.074-3.338 7.905-6.124 11.125-3.554 4.125-8.28 7.212-13.46 8.8a.19.19 0 0 1-.058.009c-.108 0-.196-.088-.196-.195 0-.085.056-.16.137-.187v.001zm-25.9-8.685l.05.02a18.37 18.37 0 0 1 3.08 2.184l.983.826c1.457.885 2.8 2 3.993 3.285a.19.19 0 0 0 .151.076.19.19 0 0 0 .188-.188c0-.04-.013-.08-.037-.112a19.25 19.25 0 0 0-3.419-4.21l-1.183-.707a19.06 19.06 0 0 0-3.686-1.331l-.05-.02c-.01-.004-.023-.007-.034-.007-.053 0-.096.043-.096.095 0 .04.024.075.06.1h0zm-7.453-22.277l.01.022a10.13 10.13 0 0 0 3.722 4.476c1.66 1.097 3.658 1.697 5.674 1.687 1.3.003 2.552-.236 3.758-.47l.54-.14c1.364-.353 2.7-.657 4.034-.605 1.304.05 2.608.453 3.732 1.167a7.69 7.69 0 0 1 2.687 2.94c.03.064.095.105.166.105.1 0 .183-.083.183-.183 0-.028-.006-.054-.017-.08-.565-1.303-1.486-2.464-2.65-3.32a8.33 8.33 0 0 0-4.03-1.563c-1.488-.16-2.97.084-4.37.347l-.552.105c-1.195.308-2.343.596-3.5.665a9.37 9.37 0 0 1-5.236-1.308 9.49 9.49 0 0 1-3.667-4.033l-.01-.02c-.04-.1-.132-.15-.233-.15-.14 0-.255.115-.255.255 0 .036.007.07.022.103h-.001zm56.34 47.663a10.85 10.85 0 0 0 1.349 2.494l.072.052a10.8 10.8 0 0 0 2.736 1.444c.023.013.05.02.074.02.085 0 .154-.07.154-.154 0-.056-.03-.107-.08-.134a10.01 10.01 0 0 1-1.974-2.089l-.044-.065a9.96 9.96 0 0 1-1.911-1.785c-.038-.067-.1-.1-.188-.1a.22.22 0 0 0-.189.327h0zm-2.543 2.692l-.296.12c-1 .315-1.903 1.088-2.366 2.157l-.068.156c-.103 1.018.2 2 .75 2.72a.31.31 0 0 0 .275.166.3.3 0 0 0 .3-.3c0-.05-.013-.1-.036-.144-.205-.73-.102-1.478.206-2.042l.006-.106c.082-.723.52-1.47 1.224-1.944l.236-.096a.36.36 0 0 0 .237-.338c0-.198-.163-.36-.36-.36-.04 0-.08.007-.12.02h0zm-26.457 6.21a10.25 10.25 0 0 0 4.429 3.335c.782.327 1.66.575 2.402.844l.067.025c.767.197 1.497.452 2.113.873 1.03.736 1.703 1.992 1.734 3.297a.27.27 0 1 0 .54.003 4.91 4.91 0 0 0-1.798-3.925c-.68-.57-1.492-.938-2.287-1.227l-.074-.02-2.436-.594c-1.65-.555-3.155-1.58-4.286-2.937-.05-.06-.124-.098-.203-.098-.142 0-.26.118-.26.26a.26.26 0 0 0 .056.162h0zm-8.497-12.96l.03.038a9.26 9.26 0 0 0 1.165 1.27 9.15 9.15 0 0 0 1.085.85l.015.16c.124.74.3 1.468.528 2.18a15.8 15.8 0 0 0 2.163 4.503c.036.054.096.087.16.087.105 0 .192-.088.192-.193 0-.038-.01-.075-.032-.107a15.37 15.37 0 0 1-1.918-4.446 15.15 15.15 0 0 1-.338-2.121l-.048-.313c-.018-.128-.087-.234-.185-.283a8.45 8.45 0 0 1-1.255-.765c-.434-.323-.84-.688-1.2-1.1l-.03-.036c-.04-.048-.1-.076-.162-.076-.116 0-.2.096-.2.2a.21.21 0 0 0 .047.133h0zm-2.076-3.894a3.18 3.18 0 0 1-1.233-1.74 3.08 3.08 0 0 1-.063-1.346 2.95 2.95 0 0 1 .126-.738 3.09 3.09 0 0 1 .975-1.5c.056-.042.1-.108.1-.178a.22.22 0 0 0-.22-.219c-.046 0-.1.014-.128.04a3.77 3.77 0 0 0-1.413 1.599 4 4 0 0 0-.28.903c-.044.57.036 1.146.237 1.673.312.82.9 1.507 1.648 1.927a.25.25 0 0 0 .13.037c.134 0 .244-.1.244-.244 0-.084-.043-.162-.113-.206h0zm62.1-31.412l.006-.01a20.47 20.47 0 0 0 3.071-7.718c.423-2.368.424-4.785.272-7.16l-.312-2.995a55.3 55.3 0 0 0-5.261-16.264l-.01-.017a.23.23 0 0 0-.206-.13.23.23 0 0 0-.228.229.25.25 0 0 0 .022.1l.008.017a54.47 54.47 0 0 1 4.536 16.224 54.21 54.21 0 0 1 .344 2.928c.238 2.32.323 4.654.004 6.938-.377 2.656-1.3 5.242-2.723 7.543l-.006.01c-.03.046-.045.098-.045.153 0 .156.13.285.286.285a.29.29 0 0 0 .24-.13h.001zm-13.327-43.318l.088.064a4.73 4.73 0 0 0 3.147 1.06l.257-.017a4.73 4.73 0 0 0 2.734-1.918c.017-.022.027-.05.027-.076a.12.12 0 0 0-.214-.075c-.733.744-1.718 1.176-2.686 1.236l-.207.048c-.947.195-2.003.035-2.9-.482l-.083-.06c-.023-.017-.052-.026-.08-.026-.076 0-.138.062-.138.138 0 .043.02.083.055.1h0zm-17.53 125.186l-.022.052-.985 2.043c-.263.533-.522 1.043-.866 1.474a3.54 3.54 0 0 1-.304.395c-.345.393-.8.7-1.308.872a3.14 3.14 0 0 1-1.608.106c-.01-.002-.02-.003-.03-.003-.068 0-.124.056-.124.124 0 .056.04.106.094.12a3.46 3.46 0 0 0 1.779.04 3.52 3.52 0 0 0 1.596-.872 3.96 3.96 0 0 0 .386-.436c.338-.52.566-1.106.772-1.652l.786-2.133.022-.052c.005-.012.008-.026.008-.04 0-.056-.047-.103-.103-.103-.04 0-.08.025-.094.064h0zm-18.328-.444a10.08 10.08 0 0 1-1.828 2.571 9.27 9.27 0 0 1-.974.858c-.375.406-.8.78-1.244 1.106a7.92 7.92 0 0 1-3.703 1.35l-.116.004c-.04.002-.072.035-.072.075s.034.075.075.075l.12-.004c1.372.012 2.764-.33 4.003-1a8.97 8.97 0 0 0 1.511-.993 10.08 10.08 0 0 0 .855-1.103c.616-.914 1.08-1.9 1.373-2.94h.001zm-49.588-70.424c.576-.958 1.44-1.8 2.517-2.406l.01-.004c1.53-.302 3.083-.073 4.363.562l.056.02c.068.024.114.1.114.162 0 .094-.077.172-.17.172-.02 0-.038-.004-.055-.01l-.053-.02c-1.337-.242-2.685-.02-3.777.55l-.008.001c-.975.1-1.985.45-2.873 1.086-.016.017-.038.026-.06.026-.046 0-.083-.037-.083-.082 0-.02.007-.04.022-.057h0z" fill="#fefc32"/><path d="M165.158 125.627a11.26 11.26 0 0 1 .393 1.688l.104.946a2.18 2.18 0 0 0 1.02-.405c.268-.196.494-.462.603-.776.122-.354.084-.76-.1-1.086a1.34 1.34 0 0 0-.88-.641" class="B D F"/></g><g class="C B D F"><path d="M173.847 127.262c.982-.127 1.898-.7 2.442-1.526a3.47 3.47 0 0 0 .527-1.365 41.16 41.16 0 0 1-5.338-.041c-1-.074-2.044-.183-3.023.08-.765.206-1.453.63-2.198.902a5.83 5.83 0 0 1-2.67.314m11.463 2.974a2.82 2.82 0 0 0 2.59 0c.505-.267.914-.68 1.374-1.02.673-.497 1.48-.837 2.315-.864.698-.022 1.385.17 2.045.397s1.312.493 1.998.624c.493.094.996.118 1.494.175s1 .15 1.45.374a2.72 2.72 0 0 1 1.177 1.139l-3.65 1.5a19.45 19.45 0 0 1 5.738 3.913 19.56 19.56 0 0 1 3.275 4.274c.477.84.9 1.755.888 2.72-.01.825-.357 1.64-.943 2.22a3.96 3.96 0 0 0-2.387-1.887c-1-.28-2.103-.147-3.108-.444-.978-.3-1.794-.96-2.538-1.658s-1.46-1.446-2.347-1.95a5.28 5.28 0 0 0-3.941-.5m44.456-16.843a20.63 20.63 0 0 1-1.609 4.082c-2.178 4.163-5.704 7.454-9.376 10.385-1.466 1.17-3.005 2.318-4.793 2.885a8.39 8.39 0 0 1-4.421.168"/><path d="M214.645 134.672a44.07 44.07 0 0 1-8.021-1.887c-3.18-1.07-6.24-2.506-9.094-4.27m-5.893 6.352a4.6 4.6 0 0 1 3.414-.222c.95.315 1.792.943 2.775 1.137a3.33 3.33 0 0 0 3.665-1.915 21.98 21.98 0 0 1-2.859-1.776 21.95 21.95 0 0 1-2.387-2.026m-4.28 15.658c-.2 1.406.058 2.878.746 4.12a6.63 6.63 0 0 0 4.514 3.258c-.057 1.2.05 2.43.314 3.6.44 1.966 1.316 3.818 2.433 5.495a20.91 20.91 0 0 0 4.71 5.024m-1.333-8.123c-.027.76.15 1.528.5 2.198.385.72.968 1.32 1.6 1.824s1.347.923 2.04 1.356l3.533 2.394m2.217 2.394a6.41 6.41 0 0 1 1.099 2.983c.113 1.13-.084 2.292-.565 3.322s-1.243 1.926-2.183 2.566a6.36 6.36 0 0 0-1.099-3.808c-.813-1.186-2.006-2.06-3.25-2.782l-3.776-2.085c-1.55-.978-2.926-2.234-4.042-3.7m-2.08-1.177c-.66-.7-1.26-1.44-1.783-2.238a15.64 15.64 0 0 1-1.2-2.197m-1.9-.127a12.17 12.17 0 0 1-.611-2.664 12.28 12.28 0 0 1-.056-2.109m-1.996 2.3a24.91 24.91 0 0 0-1.334-3.808 24.93 24.93 0 0 0-1.649-3.1 4.64 4.64 0 0 1 2.59.353 4.65 4.65 0 0 1 1.688 1.295m-7.457-2.827a7.12 7.12 0 0 0 1.747-2.44 7.14 7.14 0 0 0 .555-3.497m30.113 34.415a10.43 10.43 0 0 0-1.554 3.94 10.37 10.37 0 0 0 0 3.497m2.276-2.775c.64.685 1.102 1.534 1.332 2.442.343 1.357.17 2.803.5 4.163a5.87 5.87 0 0 0 1.1 2.248m4.084-.15a14 14 0 0 1-4.357-9.97c-.02-2.62.716-5.222 1.96-7.528a18.03 18.03 0 0 1 3.22-4.286m.08 8.752c-.184.852-.296 1.72-.335 2.6-.028.6-.02 1.226.084 1.828s.306 1.194.643 1.704c.518.782 1.356 1.346 2.277 1.53m-1.43-11.592a17.72 17.72 0 0 0 4.83 6.273l.937.82c.284.303.523.662.617 1.067a1.75 1.75 0 0 1-1.665 2.109m-.15-19.634c.772.803 1.327 1.813 1.6 2.894.204.835.236 1.7.322 2.555s.232 1.723.64 2.48c.34.63.845 1.158 1.394 1.618l1.7 1.3c.844.654 1.623 1.4 2.323 2.195m-22.894-12.767l4.042 4.63c.55-.442.996-1 1.296-1.648a4.65 4.65 0 0 0 .43-1.688m-16.626-12.408a13.55 13.55 0 0 0 3.677 4.713c1.836 1.498 4.113 2.5 6.48 2.614 2.8.123 5.564-1.034 7.712-2.836 1.473-1.236 2.7-2.774 3.556-4.5m-16.73-2.743a4.66 4.66 0 0 0 6.791 2.866c.83-.494 1.497-1.257 1.875-2.146a4.62 4.62 0 0 0 .244-2.84m1.766-2.394c.755.4 1.555.7 2.38.893.43.106.872.185 1.315.17s.9-.135 1.25-.395c.436-.316.712-.82.827-1.347s.082-1.075-.008-1.607a7.71 7.71 0 0 0-.584-1.913m1.768-1.06a6.98 6.98 0 0 0 2.374.51c.5.02 1.027-.02 1.5-.182s.93-.457 1.218-.878c.316-.464.415-1.05.365-1.6s-.24-1.095-.463-1.6a12.62 12.62 0 0 0-1.393-2.433m1.5-1.145a5.94 5.94 0 0 0 2.494.887c.46.053.93.052 1.38-.058s.878-.33 1.2-.672c.406-.445.588-1.065.572-1.667s-.214-1.188-.488-1.724c-.354-.7-.838-1.315-1.418-1.83m-.404-2.394a6.14 6.14 0 0 0 2.865 1.452c.443.092.9.133 1.348.064s.883-.256 1.204-.574c.248-.246.42-.564.508-.9a2.53 2.53 0 0 0 .04-1.04c-.113-.7-.472-1.316-.9-1.867a7.76 7.76 0 0 0-2.63-2.16m.5-1.024a8.59 8.59 0 0 0 2.859.167c.382-.042.764-.1 1.12-.256s.684-.374.906-.688a1.8 1.8 0 0 0 .308-.851c.03-.303-.008-.612-.1-.903-.18-.583-.56-1.086-.987-1.52-1.045-1.062-2.432-1.783-3.903-2.027.867-.132 1.704-.456 2.434-.942.662-.442 1.254-1.046 1.5-1.806.22-.7.114-1.478-.207-2.137s-.845-1.205-1.44-1.63a6.01 6.01 0 0 0-2.67-1.06c1.522-.742 2.807-1.96 3.63-3.442.428-.77.736-1.628.745-2.5a3.47 3.47 0 0 0-.227-1.295 2.81 2.81 0 0 0-.74-1.081c-.37-.33-.834-.547-1.32-.648s-1-.1-1.477.007c-.973.193-1.85.713-2.643 1.307-.767.575-1.475 1.227-2.1 1.943.892-.865 1.543-1.976 1.86-3.178.15-.568.226-1.162.16-1.746s-.28-1.16-.665-1.604c-.52-.605-1.32-.927-2.118-.97s-1.6.17-2.317.5a7.63 7.63 0 0 0-3.219 2.747m-26.227 46.903a20.06 20.06 0 0 0 2.277 4.16c.256.36.527.713.87 1s.77.47 1.2.463c.477-.007.93-.25 1.263-.6s.56-.772.74-1.215a7.16 7.16 0 0 0 .348-4.162m1.7.62a16.74 16.74 0 0 0 1.554 1.831c.302.3.62.608 1 .83s.8.364 1.23.335c.285-.02.562-.113.807-.26a2.32 2.32 0 0 0 .633-.568c.35-.45.547-1.002.67-1.56a7 7 0 0 0-1.166-5.55m1.966.448a5.96 5.96 0 0 0 3.1 2.159c.466.135.954.213 1.438.176s.965-.193 1.35-.5c.4-.3.677-.762.814-1.247s.14-1.004.05-1.5c-.137-.748-.486-1.457-.996-2.022a4.14 4.14 0 0 0-1.91-1.196m2.08-.66c.717.85 1.662 1.508 2.708 1.884.42.15.86.258 1.305.252s.898-.132 1.247-.4c.362-.287.592-.72.683-1.175s.052-.926-.055-1.376c-.256-1.076-.906-2.054-1.8-2.705m-1.458-1.1c.824.83 1.884 1.42 3.022 1.688.4.1.793.145 1.193.113s.798-.154 1.123-.388c.27-.195.483-.463.624-.764s.212-.633.22-.965c.014-.664-.222-1.316-.57-1.882-.672-1.095-1.78-1.915-3.022-2.237a6.71 6.71 0 0 0 2.511.274c.597-.048 1.192-.18 1.728-.446s1.008-.677 1.295-1.202c.32-.586.4-1.3.25-1.944s-.474-1.254-.913-1.757a4.94 4.94 0 0 0-3.553-1.665c1.448-.088 2.88-.426 4.215-.993.544-.23 1.08-.505 1.515-.907s.763-.945.805-1.535c.032-.442-.098-.887-.322-1.27s-.54-.706-.885-.983a5.31 5.31 0 0 0-2.016-.996m-2.47-.59c1.194-.298 2.273-1.036 2.983-2.04.397-.56.684-1.214.736-1.9s-.15-1.404-.618-1.907c-.333-.357-.783-.592-1.255-.72s-.965-.154-1.453-.14a9.09 9.09 0 0 0-3.768.939m-.001 0a6.85 6.85 0 0 0 2.394-2.434c.275-.476.493-1 .577-1.534s.027-1.117-.224-1.606c-.206-.402-.535-.734-.917-.976s-.815-.397-1.257-.5c-.757-.16-1.55-.14-2.3.053m10.597 39.22a1.98 1.98 0 0 0 1.217.35 1.98 1.98 0 0 0 1.177-.468c.25-.213.445-.5.56-.797s.153-.644.107-.97m2.395-2c.664.094 1.358-.048 1.932-.395s1.022-.897 1.247-1.528a2.96 2.96 0 0 0-.903-3.258m1.874-1.176a2.73 2.73 0 0 0 1.899-.157c.586-.28 1.065-.777 1.32-1.374a2.73 2.73 0 0 0-1.413-3.533m.677-4.514a2.7 2.7 0 0 0 3.415-2.198 2.69 2.69 0 0 0-2.08-2.944m-1.884-.08c1.232.267 2.57.005 3.6-.706a3.64 3.64 0 0 0 .902-.857c.244-.338.418-.73.47-1.145.075-.57-.08-1.153-.364-1.653s-.687-.922-1.127-1.3c-.982-.823-2.164-1.408-3.415-1.687"/><path d="M247.112 106.042a4.57 4.57 0 0 0 3.807-.471c.534-.337.996-.8 1.333-1.323s.546-1.15.6-1.778a3.75 3.75 0 0 0-.376-1.906 3.87 3.87 0 0 0-1.273-1.47 3.96 3.96 0 0 0-3.1-.588m0 0c1.244-.47 2.363-1.26 3.22-2.277.354-.42.667-.886.84-1.408s.197-1.107-.016-1.614c-.203-.486-.6-.87-1.076-1.113s-1-.36-1.514-.418c-1.762-.2-3.6.295-5.024 1.335"/><path d="M244.522 93.01c1.423-.7 2.638-1.82 3.454-3.18.332-.555.603-1.16.687-1.8s-.032-1.326-.413-1.85c-.397-.547-1.05-.872-1.718-.978s-1.354-.01-2 .154a9.64 9.64 0 0 0-3.886 2.002"/><path d="M240.636 87.36c2.285-1.118 4.128-3.1 5.065-5.475.193-.484.35-1 .378-1.5s-.08-1.06-.378-1.487a2.08 2.08 0 0 0-.709-.626 2.64 2.64 0 0 0-.903-.29c-.63-.1-1.273.02-1.885.195-2.237.646-4.107 2.16-5.883 3.664l-4.83 4.218m4.97-4.34a5.7 5.7 0 0 0 1.638-3.358 3.76 3.76 0 0 0-.01-1.07c-.06-.352-.2-.697-.405-.983a1.91 1.91 0 0 0-1.372-.744c-.534-.036-1.08.17-1.46.55m18.816 114.905l-4.12-7.34-5.378-8.988m18.85 19.875a33.11 33.11 0 0 1-6.213-5.235c-1.8-1.953-3.377-4.116-4.942-6.27l-6.4-8.763m20.44 19.935a137.46 137.46 0 0 1-7.271-7.216c-4.352-4.653-8.38-9.6-12.045-14.82m25.505 20.094a118.02 118.02 0 0 1-13.81-11.453 117 117 0 0 1-10.25-11.305m27.668 21.286a300.33 300.33 0 0 1-15.625-12.905c-3.903-3.452-7.717-7.007-11.435-10.658m31.362 21.815l-17.54-13.155-12.934-9.992m33.583 20.732c-5.405-3.474-10.753-7.036-16.042-10.685a590.79 590.79 0 0 1-16.597-11.879m35.11 19.345a255.65 255.65 0 0 1-17.624-10.019 255.49 255.49 0 0 1-16.54-11.213m-21.816-11.544l5.995 6.16 5.828 5.828m-5.727-10.935a18.88 18.88 0 0 0 3.164 2.665 18.93 18.93 0 0 0 3.33 1.776m-1.6 1.666l2.775 1 2.998.888m-2.165 3.384l2.942.278m-2.887 1.998l1.443 1.665m-6.77-2.943c1.03.38 1.937 1.1 2.554 2a5.32 5.32 0 0 1 .832 2.053m-.278 2.387l.222 1.888m-5.773-3.386l1.998 2.053m-13.98-66.575l2.434-2.237m2.12 7.457l2.355-1.727m-1.138 7.655l2.433.078m-4.435 7.224l2.97.694m-4.635 4.19l2.026 2.08m-4.803 3.082l1.888 1.138m-6.688 3.608l1.748 1.776m-8.936 1.943l1.415 2.193m-7.993.415l.36 2.026M259.28 58.55a51.41 51.41 0 0 1-4.198 6.24 51.23 51.23 0 0 1-5.773 6.217m14.71-7.773l-2.137 2.83c-.894 1.07-1.85 2.1-2.86 3.053m10.935-2.22l-2.942 3.664a58.17 58.17 0 0 1-5.162 5.218m7.993 1.72l-4.72 4.64a140.65 140.65 0 0 1-12.089 10.127m21.305-9.827l-3.8 3.78-4.7 4.553m4.27 4.867l-3.337 1.727-5.887 2.512m12.756.314a50.36 50.36 0 0 1-5.927 3.847 50.48 50.48 0 0 1-7.693 3.454m14.89-1.57a22.5 22.5 0 0 1-6.96 4.787c-3.436 1.507-7.253 2.134-11 1.806m6.84 5.22c-1.036.326-2.136.446-3.218.353-1.273-.1-2.52-.515-3.6-1.177m-.905 13.934c-1.172.15-2.35.24-3.532.272a34.96 34.96 0 0 1-3.83-.111m15.072-6.58a51.27 51.27 0 0 1-5.08 1.027 51.03 51.03 0 0 1-6.66.555m-5.7 11.018c-.636.146-1.285.23-1.936.254s-1.314-.017-1.963-.118m-2.54 4.89c-.86.127-1.736.146-2.6.057-.706-.073-1.404-.217-2.08-.432m3.1-47.86a16.89 16.89 0 0 1 2.664-2.831c1.066-.9 2.244-1.665 3.497-2.276m-8.438-1.39c.835-.957 1.725-1.865 2.664-2.72a33.24 33.24 0 0 1 2.72-2.22m-8.66-1.6l2.165-1.72m7.35-6.954c5.108-5.195 9.715-10.882 13.74-16.956a114.06 114.06 0 0 0 11.018-21.153m-20.008 45.174a404.02 404.02 0 0 0 12.433-15.987c4.263-5.773 8.373-11.66 12.323-17.65M251.474 81.94a84.07 84.07 0 0 0 13.322-12.989 84.06 84.06 0 0 0 10.325-15.986m-15.987 29.863a139.22 139.22 0 0 0 11.768-12.434c2.455-2.936 4.8-5.974 6.994-9.103m-20.65 31.973a140.68 140.68 0 0 0 10.88-9.77 140.81 140.81 0 0 0 10.102-11.212M263.353 96.26a54.44 54.44 0 0 0 8.437-6.772 54.31 54.31 0 0 0 5.44-6.217m-13.766 19.984c3.6-1.82 7.018-4.002 10.18-6.507a59.67 59.67 0 0 0 4.12-3.58m-16.012 16.76c2.697-.464 5.312-1.398 7.693-2.747a23.82 23.82 0 0 0 4.239-3.062m-10.676 11.07a34.45 34.45 0 0 0 5.26-2.277 34.68 34.68 0 0 0 3.454-2.119m-23.356 9.116a15.98 15.98 0 0 0 6.55 2.165c1.896.192 3.815.04 5.695-.27 1.5-.25 3.002-.606 4.463-1.06m-12.324 7.713a19.05 19.05 0 0 0 2.886-.083c.653-.068 1.3-.17 1.943-.305m-8.214 5.44l2.36-.056 2.442-.222m-17.515-29.405l2.924-2.924m-7.948-1.727l2.08-2.532m3.67 14.11l1.884-.157m-.628 7.34l1.492.432m4.02 6.176l1.138.36m.815-9.352l1.582.444m.294-5.754l1.982.805M247.23 102l2.944-.04m-3.53-6.8l2.054-1.1m-18.79-6.226l-1.97 1.804m-1.583 1.887a4.69 4.69 0 0 0-1.021.874 4.67 4.67 0 0 0-.728 1.124m-1.22 3.247a2.81 2.81 0 0 0-.272.979 2.79 2.79 0 0 0 .078.937M215.95 128.4c1.622-.927 2.982-2.307 3.886-3.94.886-1.602 1.332-3.444 1.276-5.273M174.04 107.14a8.48 8.48 0 0 1 .212-2.584c.098-.408.228-.8.425-1.18s.465-.7.806-.953c.496-.354 1.128-.492 1.734-.44s1.2.284 1.705.608a5.06 5.06 0 0 1 1.89 2.165 4.89 4.89 0 0 1 1.504-2.85c.8-.73 1.865-1.187 2.936-1.092a3.27 3.27 0 0 1 2.942 3.33c.275-.755.666-1.467 1.155-2.104.273-.355.58-.7.942-.953s.788-.452 1.234-.495c.66-.065 1.32.193 1.84.604s.908.964 1.23 1.543a9.68 9.68 0 0 1 1.093 3.126 8.3 8.3 0 0 1 1.499-2.562c.327-.38.692-.734 1.122-.992s.93-.417 1.43-.387c.35.02.7.132.992.308s.564.416.778.7c.43.55.663 1.234.78 1.922a6.73 6.73 0 0 1-.386 3.63 4.35 4.35 0 0 1 1.767-1.411c.444-.193.927-.3 1.4-.287s.967.2 1.318.532c.404.383.603.943.663 1.497s-.006 1.114-.055 1.67l-.108 1.996c.657-.033 1.32.057 1.947.263.408.135.804.32 1.14.6s.6.625.743 1.034c.145.453.108.95-.042 1.402s-.4.858-.708 1.23a6.8 6.8 0 0 1-1.915 1.643 7.71 7.71 0 0 1 2.593.786c.544.278 1.06.624 1.478 1.068s.742 1 .87 1.587c.117.55.066 1.128-.104 1.663s-.457 1.03-.804 1.472a6.12 6.12 0 0 1-2.589 1.916m-6.943 2.475c.792-.277 1.55-.653 2.248-1.117.312-.208.614-.434.872-.705s.472-.6.6-.945c.108-.333.128-.695.057-1.038a2.03 2.03 0 0 0-2.565-1.514 4.27 4.27 0 0 0 1.011-1.385c.183-.4.304-.844.238-1.28-.044-.3-.17-.564-.344-.8a2.87 2.87 0 0 0-.63-.61 4.02 4.02 0 0 0-1.97-.753c.922.106 1.885-.277 2.482-.987.295-.35.503-.775.58-1.226s.022-.926-.175-1.34c-.258-.54-.745-.95-1.292-1.195s-1.15-.336-1.75-.355a7.81 7.81 0 0 0-2.843.44 3.64 3.64 0 0 0 1.709-2.735c.057-.616-.06-1.268-.432-1.762-.22-.3-.52-.515-.85-.66a2.71 2.71 0 0 0-1.058-.221c-.726-.01-1.435.237-2.08.57a7.8 7.8 0 0 0-2.395 1.922 4.96 4.96 0 0 0-.34-3.179 3.75 3.75 0 0 0-.705-1.045c-.296-.3-.66-.54-1.064-.66-.594-.177-1.245-.1-1.815.153s-1.07.628-1.52 1.05c-.825.772-1.52 1.683-2.048 2.682a6.16 6.16 0 0 0-1.496-2.561c-.34-.347-.722-.656-1.155-.877a2.93 2.93 0 0 0-1.401-.337c-.663.02-1.302.312-1.8.75s-.862 1.013-1.114 1.626a5.75 5.75 0 0 0-.416 2.51m3.904-2.1l.5 1.55m7.44-1.707l-.04 2.198m7.467.03l-.916 1.36m4.996 3.443l-1.6.222m9.1 5.426l-1.296.314m.313-7.536l-1.5.667m-2.865-6.633l-1.14 1.53m-3.963-6.475l-1.217 2.198m-6.28-3.73l-.117 2.08m-7.262-1.844l.157 2.08m-7.8-.707l1.138 2.237m36.284 9.64a12.57 12.57 0 0 0 1.304-2.858 12.64 12.64 0 0 0 .556-4.469m-4.58-1.303a14.81 14.81 0 0 0 1.166-2.664 14.92 14.92 0 0 0 .541-2.262m-5.204 2.15a37.36 37.36 0 0 0 .777-4.663c.13-1.263.194-2.533.195-3.802m-4.913 5.967l.555-5.884.333-5.08m-5.385 7.744c.45-1.77.782-3.57 1-5.384.23-1.922.328-3.86.293-5.796m-4.345 8.35c-.16-1.77-.418-3.532-.777-5.273-.405-1.966-.936-3.906-1.6-5.804m-.898 13.464a46.65 46.65 0 0 0-3.386-9.436c-1.217-2.505-2.658-4.9-4.302-7.148m2.238 13.99c-2.797-5.445-6.142-10.608-9.97-15.386a92.14 92.14 0 0 0-11.01-11.52m15.485 28.32a102.22 102.22 0 0 0-9.97-14.601 102.12 102.12 0 0 0-10.613-11.14m12.968 27.625c-2.897-6.28-6.57-12.2-10.9-17.584a84.38 84.38 0 0 0-11.833-11.995m14.108 26.99a93.65 93.65 0 0 0-9.97-13.424 93.86 93.86 0 0 0-10.378-9.975m21.526 28.815a208.15 208.15 0 0 0-14.601-17.662 208.57 208.57 0 0 0-12.56-12.482m30.93 29.124a86.6 86.6 0 0 0-11.068-18.055 86.61 86.61 0 0 0-16.721-16.014m29.045 21.273a111.95 111.95 0 0 0-10.087-12.089 113.08 113.08 0 0 0-10.166-9.34m26.847 19.545a101.52 101.52 0 0 0-7.458-8.949 101.31 101.31 0 0 0-7.222-6.986m25.513 13.11a23.61 23.61 0 0 0-3.297-5.81 23.55 23.55 0 0 0-3.376-3.532m53.313 70.354l2.776 1.1m-23.093-22.083a3.89 3.89 0 0 0 1.832-1.72c.305-.578.46-1.235.444-1.888m-.054-1.387l.055-1.027m-21.3-31.415l.55 3.258m4.593.822l-.118 4.003m4.08.433l-.235 2.277m4.317 1.884l-.47 2.708m4.03 5.01l-.6 2.498m15.723 49.56c.713 1 1.515 1.957 2.394 2.826a21.1 21.1 0 0 0 2.237 1.923M170.34 131.8c.228.118.494.16.746.118a1.2 1.2 0 0 0 .667-.354c.146-.153.25-.345.298-.55a1.2 1.2 0 0 0-.023-.626m.804 1.107a1.06 1.06 0 0 0 .942-.019 1.05 1.05 0 0 0 .49-1.276m-1.804 4.7a.81.81 0 0 0 .625.213.81.81 0 0 0 .716-.883.81.81 0 0 0-.262-.507m1.844-.226a.99.99 0 0 0 1.119-.432c.15-.25.18-.57.078-.844m1.237-.765c.2.124.434.167.656.116s.422-.195.54-.4a.92.92 0 0 0 .105-.615.86.86 0 0 0-.341-.523m-1.217 5.18a1.37 1.37 0 0 0 .871.075 1.38 1.38 0 0 0 .739-.468c.228-.282.337-.66.294-1.02m1.02-10.383a16.75 16.75 0 0 1-2.614-.412 16.94 16.94 0 0 1-2.748-.916"/></g></svg>