<svg xmlns="http://www.w3.org/2000/svg" xmlns:xlink="http://www.w3.org/1999/xlink" height="400" width="600" xmlns:v="https://vecta.io/nano"><path d="M0 0h600v400H0z" fill="#0f47af"/><g fill="#fff"><path d="M0 0h600v194H0z"/><path d="M201.016 76.986V227.85c0 52.402 44.638 97.948 98.984 97.948s98.984-45.546 98.984-97.948V76.986L300 77.504z" stroke="#000" stroke-width="1.84"/></g><g id="A"><path d="M282.172 81.988l-.62 1.112a12.15 12.15 0 0 1-.567 1.348l-.802 1.658-.567-.813c-.313-.447-.567-1.15-.567-1.562 0-.57-.157-.7-.663-.578-1.2.317-1.85 1.35-1.637 2.663.14.854.076 1.21-.235 1.21-.506 0-1.37-.925-1.68-1.797-.292-.823-.75-.747-1.177.193-.26.57-.236 1.137.075 2.043.237.69.347 1.332.246 1.433-.404.404-1.472.148-2.01-.48-.314-.367-.7-.588-.856-.492-.526.325-.278 2.35.428 3.51.918 1.505.645 2.25-.717 1.98-.562-.112-1.016-.073-1.016.096 0 .538 1.755 2.417 2.257 2.417.266 0 .48.3.48.663 0 .45-.383.783-1.22 1.06-1.2.393-1.21.418-.6 1.08.47.52.954.645 2.075.556.804-.064 1.465-.076 1.465-.032s-.31.582-.685 1.198-.684 1.26-.685 1.423c-.001.27 1.724.08 3.166-.342.37-.11.6.013.6.3 0 .54-1.397 1.273-2.417 1.273-.972 0-.822.475.513 1.647.995.874 1.1 1.1.685 1.444-.48.398-1.412.34-2.63-.17-.92-.386-.762.737.3 2.13.73.957.81 1.24.428 1.487-.51.328-2.3.082-2.9-.406-.918-.737-1.12.977-.267 2.278.73 1.112.374 1.423-.995.866-2.037-.828-2.642-.86-2.642-.15 0 .357.252 1 .556 1.444.793 1.133.168 1.626-1.177.93-.574-.297-1.145-.698-1.262-.888s-.435-.342-.706-.342c-.673 0-.625 1.345.075 2.118.772.853.075.787-1.048-.096-1.13-.888-1.915-.635-1.925.62l-.01.952-.663-.856c-.976-1.247-.856-1.52.856-1.98 1.803-.482 1.926-.804.513-1.337-1.25-.472-1.32-.985-.17-1.273 1.182-.297 1.118-1.223-.086-1.23-.518-.003-1.16-.145-1.423-.3-.388-.246-.343-.438.246-1.07.862-.925.718-1.327-.406-1.112-.953.182-2.383-.47-2.086-.952.11-.18.556-.32.995-.32 1.006 0 2.436-1.125 2.107-1.658-.135-.22-.533-.396-.877-.396s-.97-.283-1.4-.63l-.78-.63 1.476.032c1.7.04 2.233-.644.888-1.155-.486-.185-.877-.41-.877-.492s.54-.48 1.198-.888 1.198-.886 1.198-1.07-.14-.256-.3-.15-.56.096-.866-.02c-.533-.204-.523-.55.075-2.14.14-.374.036-.39-.535-.086-1.597.854-1.884.564-1.733-1.808l.14-2.193-.866.685c-.83.655-.873.657-.963.053-.167-1.12-.862-3.2-1.07-3.198-.11.001-.51.463-.888 1.027-.88 1.32-1.202 1.296-1.21-.086-.01-2.418-.776-2.346-1.818.17-.63 1.524-1.322 1.724-1.038.3.227-1.136-.28-1.645-.9-.9-.482.58-1.19.707-.845.15.125-.202.114-1.087-.02-1.968-.204-1.325-.294-1.474-.524-.866-.663 1.75-1.4.607-1.358-2.107l.02-1.027-.856 1.027c-.467.565-.85 1.153-.856 1.305-.027.615-.81-.27-1.4-1.594l-.63-1.412-.653 1.465-.663 1.476-1.038-1.048c-.576-.576-1.16-1.048-1.294-1.048s-.148.693-.032 1.54c.23 1.684-.023 1.906-.973.856-1.185-1.31-1.602-.604-.685 1.155l.513 1.038c0 .03-.63-.012-1.4-.086l-1.4-.128.588.9c.324.495 1.344 1.5 2.268 2.236 1.7 1.345 1.726 2.003.096 1.594l-.824-.214.6 1.123c.473.855.96 1.187 2.054 1.433 1.646.37 1.807.746.535 1.23-.725.276-.812.436-.48.834.406.49 2.4 1.28 2.963 1.177.702-.127.868.067.47.546-.234.282-.733.513-1.102.513-1.118 0-.514.8 1.24 1.647 1.197.578 1.556.905 1.284 1.177s-.624.258-1.284-.043c-.5-.228-.996-.33-1.09-.235-.286.286.636 2.186 1.155 2.385.265.102.48.35.48.556 0 .25-.514.293-1.54.14-.847-.127-1.54-.14-1.54-.032s.466.73 1.038 1.38c.983 1.12 1 1.196.353 1.4-.376.12-1.003.047-1.39-.16-1.396-.747-1.824.362-.695 1.797.595.756.616.914.17 1.284-.8.656-.6 1.027.524 1.027 1.344 0 1.32.64-.032.91-.827.165-1.012.352-.877.866.106.407.013.61-.235.524s-.35-.686-.278-1.562c.13-1.593-.078-1.706-1.316-.738-.47.368-1.13.67-1.455.674-.505.006-.532-.112-.203-.834.296-.65.285-.972-.053-1.38-.396-.477-.527-.478-1.24-.01-.437.287-1.108.524-1.498.524-.604 0-.657-.097-.342-.685.408-.763-.06-2.1-.492-1.412-.274.443-2.546.5-3.198.096-.333-.21-.272-.42.257-.9.38-.345.695-.985.695-1.423 0-.726-.076-.766-.866-.406-.656.3-.958.304-1.262 0-.22-.22-.693-.406-1.048-.406-.582 0-.562-.1.235-1.048 1.177-1.398 1.124-1.768-.225-1.52-1.186.22-2.95-.708-2.054-1.08.732-.304 1.493-1.206 1.358-1.615-.07-.213-.584-.44-1.134-.503-1.073-.124-1.85-.608-1.85-1.155 0-.193.38-.245.888-.118 1.062.266 3.904-.108 3.904-.513 0-.157-.418-.482-.93-.727-1.193-.572-.926-1.127.48-1.005.736.063 1.318-.14 1.797-.62.96-.96.89-1.266-.32-1.508-1.164-.233-1.38-1.097-.353-1.423.897-.285 2.064-1.802 2.064-2.685 0-.55-.098-.608-.417-.29-.466.466-1.847.55-2.107.128-.094-.153.117-.73.48-1.284.37-.56.673-1.598.674-2.343.002-1.244-.042-1.3-.6-.813-.33.287-.907.683-1.284.877-.63.325-.684.24-.685-1.07-.001-1.634-1.612-4.43-1.808-3.134-.245 1.618-.456 2.225-.77 2.225-.185 0-.332-.25-.332-.556 0-.69-2.336-2.943-2.77-2.674-.2.117-.174.45.032.834.413.77.415 1.06.043 1.647-.213.336-.584.144-1.498-.77-.67-.67-1.54-1.22-1.936-1.22h-.717l.685 1.284c1.345 2.5.723 2.862-.973.556-.63-.854-1.21-1.486-1.284-1.412s-.155 1.16-.182 2.417-.158 2.29-.29 2.29c-.397 0-1.722-1.557-1.722-2.022 0-.24-.193-.366-.428-.29-.68.224-.727 2.83-.064 3.84.318.486.5.966.417 1.06-.36.36-1.343-.322-1.83-1.262-.28-.542-.662-.984-.845-.984-.527 0-.38 3.492.193 4.59.285.546.434 1.064.342 1.155-.298.298-1.976-1.005-2.15-1.67-.247-.945-.77-.434-.77.75 0 1.33.848 3.347 1.52 3.605.29.112.535.335.535.503 0 .42-1.963.392-2.225-.032-.116-.188-.366-.342-.556-.342-.63 0 .093 1.515 1.348 2.824 1.358 1.417.833 1.822-.75.578-1.046-.823-1.08-.69-.396 1.615.348 1.172.787 1.854 1.38 2.17 1.074.575.44 1.112-.77.653-1.144-.435-1.194-.408-.93.46.297.98 1.504 2.31 2.097 2.31.25 0 .46.172.46.385 0 .254-.47.324-1.37.203-.753-.1-1.37-.06-1.37.086 0 .58 1.408 2.002 2.385 2.407 1.553.643 1.285 1.143-.503.94-1.32-.15-1.54-.08-1.54.45 0 .824 1.5 1.965 2.942 2.236.64.12 1.166.337 1.166.48 0 .622-1.086 1.103-2.054.91-1.304-.26-1.392.47-.193 1.67.594.594 1.22.845 2.13.845 1.21 0 1.254.03.706.578-.327.327-1.11.588-1.786.588-1.537 0-1.543.59-.032 1.744.864.66 1.394.83 2.054.663.544-.136.888-.086.888.14 0 .574-1.356 1.16-2.278.984-.626-.12-.817-.022-.738.385.144.75 2.25 2.107 3.263 2.107 1.33 0 .713.843-.706.963-.69.058-1.252.218-1.252.353s.602.857 1.337 1.605c1.195 1.216 1.468 1.873.78 1.872-.13 0-.688-.39-1.24-.866-1.507-1.296-3.654-1.638-2.685-.428.192.24.458.785.588 1.21.214.7.124.77-.984.77-.655 0-1.186-.04-1.22-.086h-.01l-.792.086.043.3 1.112.76c.048-.053.18.046.44.257.315.258.578.672.578.92s-.154.547-.342.663c-.075.047-.146.063-.203.064l.01.075-.717.866 1.22.93.075.225c.1-.387.397-.32.92.203.464.464.484.67.128 1.24s-.336.725.118.9c.3.115.923.03 1.39-.182 1.144-.52 1.166-.516 1.166.492 0 1.2 1.03.99 1.67-.342l.48-1.006.588.727c.666.823 1.343.468 1.412-.75.035-.612.052-.63.193-.086.095.367.368.548.653.44.773-.297.552.425-.374 1.23-.666.58-.757.837-.45 1.21s.233.5-.353.663c-.826.216-.906.535-.385 1.508.366.684-.117.98-.524.32-.276-.446-2.225-.446-2.225 0 0 .188.154.342.342.342.646 0 .342.707-.428.995l-1.166.417v.01l-1.433.642 1.508.503.02.096c.253.18.47.423.47.6 0 .303-.094.505-.225.6l.02.128-.578.653.727.214c.025-.005.048-.02.075-.02.072-.006.153-.005.235.01.397.075.634.495.706 1.24.095.98.204 1.098.856.9.41-.126.933-.38 1.155-.556.445-.356 1.134.628 1.134 1.615 0 .82.646.467 1.305-.706l.674-1.166c.05-.083.32.187.6.6.765 1.092 1.143.925 1.39-.62.243-1.52.45-1.62 1.68-.813 1.098.72 1.064 1.033-.193 1.797-.902.55-.97.68-.513 1.06.84.697.608 1.13-.524.963-.97-.142-1.04-.095-.845.685.18.71.114.805-.406.6-1.118-.442-2.835-.624-2.835-.3 0 .175.184.505.406.727s.338.453.257.503-.553.442-1.048.877l-.91.792-.032-.053-.524.492 1.294-.214.053.086c.4.066.845.51.845 1.005a3.35 3.35 0 0 1-.021.406l.128.225-.214 1.294 1.027.064c.374-.335 1.476.72 1.476 1.476 0 .916.49 1.04 1.134.29.686-.8 1.04-.83 1.605-.15.634.764.947.63 1.198-.513.242-1.104.492-1.252 1.102-.642.288.288.447.068.62-.856.128-.683.32-1.24.417-1.24.302 0 1.45 1.453 1.465 1.85.007.207.237-.126.503-.738.698-1.606 1.343-1.45 1.07.257-.173 1.082-.113 1.37.29 1.37s.434.18.182.845-.193.927.267 1.21c.446.273.272.304-.706.14-1.932-.326-3.165.926-1.53 1.55.762.29.753.297-.16.535-.508.132-1.16.6-1.455 1.048-.51.78-.493.828.342 1.038.48.12.82.32.75.44s-.348.715-.6 1.326c-.165.385-.335.71-.47.91l.107-.075-.214 1.145.91-.342c.042-.045.088-.088.15-.14.1-.09.193-.153.267-.17a.21.21 0 0 1 .075 0c.145.02.23.236.32.717.085.443.123.726.107.877l.107.214.717 1.358.48-.588c.024-.07.067-.13.128-.16h.01l.02-.032.01.02c.025-.008.046-.02.075-.02.167-.01.4.094.674.342.358.324.653.795.653 1.048 0 .158-.033.27-.086.342l.043.053.428 1.155.17-.556c-.004-.08.026-.163.075-.246l.043-.128.02.02a3.71 3.71 0 0 1 .193-.225c.757-.837 1.04-.81 1.284.118.197.755.21.753 1.24-.235.45-.432.717-.66.866-.695.02-.005.037-.002.053 0 .08.012.118.113.118.29 0 .324-.567.923-1.252 1.326-1.133.668-1.18.75-.546.984.383.142.793.42.91.6.223.36.17.5-.054.492l.043.043.428.93.94.214-.15 1.006 1.433-.29-.064.94.385-.246c.01-.117.126-.26.3-.48.34-.41.545-.43.92-.118.365.303.588.3.888 0 .246-.246.458-.372.6-.396.235-.04.264.21-.118.63-.312.344-.567.806-.567 1.027 0 .325-.136.427-.48.32l.503.406v.717l.93.15.44.717 1.07.364.727.642.3-.44c-.14-.184-.04-.348.086-.674.224-.582.26-.58.578-.01.49.87.9.742 1.67-.513l.685-1.112-.086 1.71c-.07 1.368.013 1.692.428 1.626.285-.045.718.224.952.6.3.48.35.678-.032.578l.45.535 1.294.866 1.647.278.428.44-.054-.727c-.175-.048-.237-.2-.235-.47.01-1.115.548-1.685 1.134-1.198.427.354.546.255.738-.62.158-.72.433-1.048.888-1.048.738 0 .847-.362.278-.93-.21-.21-.305-.583-.214-.834.026-.073.057-.123.096-.14.015-.006.026-.013.043-.01.116.012.278.222.46.6.5 1.064 1.368 1.517 1.744.91.18-.293.48-.315.995-.086.185.083.294.16.3.257l.866.118.32-.984c-.043-.064-.01-.203.086-.45.108-.282.412-.513.674-.513.224 0 .356.072.417.17l.653.193-.128-.877a4.26 4.26 0 0 1-.417-.727c-.406-.89-.4-.89.802-.663 1.064.2 1.21.135 1.21-.48 0-.52.222-.695.856-.695.318 0 .538.026.663.086l.973.054.128-1.09c-.108-.168.27-.56.824-.888 1.236-.73 1.26-1.015.128-1.53-.638-.29-.822-.582-.674-1.048.154-.485-.01-.692-.663-.856-1.008-.253-1.17-.888-.225-.888.355 0 .885.367 1.177.813.75 1.143 1.947 1.412 1.947.44 0-.654.205-.746 1.797-.802l1.316-.043.064-.064.792-.075-.214-.62c-.043-.015-.078-.048-.096-.096-.163-.425.08-.7.94-1.06 1.385-.58 2.22-1.85 1.508-2.29-.38-.234-.356-.453.096-1.24.833-1.453 1.082-3.177.46-3.177-.354 0-.503-.374-.503-1.262 0-.985-.098-1.175-.417-.856-.655.655-1.3.473-1.305-.364-.003-.424-.143-1.002-.32-1.284-.277-.44-.396-.414-.824.17-.64.874-1.047.464-1.005-1.016.024-.865-.083-1.1-.44-.973-.338.13-.48-.1-.48-.75v-.94l1.112.845c1.868 1.402 2.067 1.47 1.808.653-.337-1.063.338-.893 1.187.3.903 1.267 1.37 1.305 1.37.118v-.9l.834.9c1.062 1.146 2.4 1.258 2.054.17-.198-.625-.136-.69.406-.45.76.34 2.215.356 3.06.032.464-.178.508-.327.203-.63-.58-.58-.492-.952.225-.952.686 0 2.118-1.344 2.118-2 0-.223-.237-.406-.524-.406-.468 0-.468-.1 0-1.005.58-1.122.702-2.76.203-2.76-.177 0-.418.154-.535.342-.376.608-.778.366-1.145-.685-.405-1.163-1.08-1.376-1.08-.342 0 .844-.528.898-.845.086-.2-.513-.31-.457-.75.374-.283.534-.594.893-.685.802s.158-.753.546-1.476c.93-1.734.938-2.644.02-2.353-.87.276-.86.044.043-1.177.79-1.07.633-1.733-.406-1.733-.734 0-.763-.045-.46-.834.04-.106.105-.166.193-.17.263-.016.786.46 1.84 1.605 1.537 1.67 1.85 1.87 2.054 1.348.21-.54.323-.484.877.428.77 1.267 1.592 1.352 1.883.193.162-.645.434-.856 1.123-.856.502 0 1.26-.242 1.68-.535a2.44 2.44 0 0 1 .332-.193l.02-.075.792-.503-.267-.17c-.2.122-.422.01-.802-.246-.442-.296-.417-.43.203-.952 1.47-1.238 1.996-3.145.866-3.145-.466 0-.692-.322-.834-1.198-.107-.66-.433-1.45-.727-1.744-.59-.59-.72-1.508-.214-1.508.177 0 .418.154.535.342s.824.342 1.572.342c1.274 0 1.33-.05.973-.717-.437-.817-.427-.823.652-1.155l.406-.107c.02-.003.036-.01.053-.01l.6-.225-1.005-.856 1.433-.93-.93-1.37 1.647-1.658-1.005-.14v-.043c-.4.103-.81-.07-.813-.578-.003-.33-.144-.833-.32-1.112-.273-.432-.432-.394-1.038.257-.877.94-1.167.988-.695.107.534-.998.448-2.183-.14-1.958-.27.103-.65-.02-.856-.267-.283-.34-.05-.772.995-1.818 1.656-1.656 1.782-2.286.385-1.98-.547.12-1.09.08-1.198-.096s.412-.416 1.155-.535c.827-.132 1.496-.474 1.71-.877.5-.934.45-1.048-.44-1.048-.435 0-1.077-.207-1.423-.46-.575-.42-.497-.497.877-.845 2.238-.567 3.145-2.46 1.177-2.46-1.87 0-2.513-.8-.952-1.187 1.874-.465 3.414-2.663 1.626-2.32-.472.1-1.117-.046-1.423-.3-.49-.407-.38-.502.94-.824 1.018-.248 1.636-.63 1.915-1.187.54-1.084.305-1.37-1.112-1.37-1.288 0-1.622-.573-.44-.75 1.002-.15 2.075-1.68 1.936-2.76-.112-.87-.124-.88-1.465-.417-.746.258-1.44.38-1.54.267s-.016-.256.193-.332c.93-.335 1.564-1.077 2-2.343.26-.75.436-1.403.396-1.444s-.64.097-1.337.3c-1.587.487-1.946.17-.973-.866.757-.805 1.423-2.575 1.423-3.787 0-.633-.02-.634-.685-.032-.828.75-1.228.496-.717-.46.502-.938.478-3.476-.032-3.476-.22 0-.673.245-1.005.546-.57.517-.58.486-.235-.642.2-.656.26-1.768.128-2.47l-.246-1.284-.995.963c-1.19 1.14-1.572.935-1.048-.567.455-1.304.48-2.364.075-3.006-.24-.378-.43-.33-1.016.257-.983.983-1.412.912-1.412-.235 0-.53-.206-1.247-.46-1.594-.5-.683-1.252-.456-1.252.374 0 .81-.652.2-1.21-1.134-.007-.017-.015-.026-.02-.043l-.064.064-.717-2.086zm.706 50.938c.192-.036.745.586 1.145 1.358.286.553.36 1.006.17 1.006-.31 0-1.38-1.726-1.38-2.225 0-.085.02-.13.064-.14zm1.893 3.24c.264.01.44.187.44.513 0 .177-.424.316-.94.3-.892-.01-.904-.037-.29-.503.245-.186.476-.285.674-.3.04-.005.08-.012.118-.01zm1.048 1.06c.16.004.344.07.6.193.894.407 1.022.828.48 1.637-.3.45-.4.438-.802-.086-.59-.77-.775-.755-.995.086-.1.377-.346.685-.546.685-.405 0-.176-.802.556-1.947.257-.402.43-.574.695-.567zm-49.537 1.145c.174 0 .32.087.32.193 0 .557-1.806 3.895-2.396 4.428-1.095.99-.893 1.88.428 1.893l1.112.01-1.71 1.433.727.492c.478.32.68.72.567 1.155-.172.657-.78.95-.78.374 0-.162-.4-.887-.888-1.605-1.157-1.705-.947-3.694.546-5.124.553-.53 1.183-1.48 1.39-2.107s.51-1.145.685-1.145zm20.527 1.733c.153-.033.21.203.075.717-.128.49.026.898.46 1.22.636.472.63.502-.128 1.123-.745.61-.743.643-.107.845.537.17.607.384.396 1.134-.144.5-.203 1.085-.14 1.273s-.346.6-.91.93c-1.28.73-1.3 1.142-.053 1.786 1.03.533 1.796 1.95 1.67 3.102-.058.522.128.685.78.685.67 0 .88.194.963.9.095.823.168.867.93.513.46-.213.844-.5.845-.642s.175-.257.385-.257c.386 0 .284.963-.225 2.182-.238.57-.145.634.824.492 1.515-.222 1.61.165.364 1.583l-1.07 1.21.91.353c.5.2 1.054.342 1.23.342.462 0 .395.457-.182 1.22-.774 1.024-.628 1.264.674 1.112.68-.08 1.213.01 1.24.214a19.06 19.06 0 0 1 .086 1.219c.033.75.177.848 1.166.77 1.026-.08 1.1-.028.77.588-.304.568-.513.62-1.273.332-.674-.256-.98-.232-1.187.096-.217.342-.285.343-.29.01-.01-.743-.485-.466-1.326.77-.448.658-.942 1.198-1.09 1.198-.365 0-.775-1.945-.503-2.385.374-.606-.716-.384-1.626.332-1.185.932-1.312.86-.695-.374.387-.777.42-1.152.14-1.433s-.49-.27-.792.032c-.574.574-2.32.525-2.32-.064 0-.26.23-.664.513-.9s.513-.797.513-1.252c0-.678-.107-.77-.6-.513-.366.192-.932.187-1.455-.01-.83-.314-.834-.337-.17-.706 1.67-.93 2.06-2.397.556-2.097-1.265.253-1.743-.43-.77-1.112.978-.685.955-1.697-.043-1.68-1.344.024-1.168-.598.3-1.09 1.727-.576 2.154-1.363.984-1.808-.715-.272-.804-.474-.642-1.476.176-1.084.113-1.17-.877-1.37-1.414-.283-1.394-1.262.043-2.47l1.102-.92-.76-.62c-.948-.768-.964-1.016-.043-1.016.636 0 .705-.142.513-1.166-.123-.658-.048-1.55.182-2.054.245-.538.5-.834.652-.866zm-12.483.075c.016-.002.033.01.054.02.486.3 1.248 3.175.963 3.637-.13.21-.048.62.193.91.33.396.342.683.053 1.145-.318.5-.242.67.45.984.68.3.834.63.834 1.754 0 1.25-.08 1.38-.877 1.38-.713 0-.857.144-.77.77.08.58-.084.795-.663.877-1.106.157-.976 1.26.257 2.17 1.25.924 1.33 1.467.17 1.177-.6-.15-.856-.08-.856.246 0 .553 1.076 1.605 1.647 1.605.22 0 .406.142.406.3 0 .465-.865.688-1.39.364-.256-.158-.588-.2-.738-.118-.503.31-.273 1.1.62 2.16.792.942.815 1.07.29 1.273-.324.124-.87.047-1.22-.17s-.716-.396-.813-.396c-.395 0-.137 1.613.374 2.343.705 1.006.43 1.248-.877.792l-1.038-.364v1.53c0 1.125-.134 1.52-.513 1.52-.282 0-.513-.13-.513-.29 0-.25-1.59-1.136-2.054-1.145-.094-.002-.125.475-.064 1.06.17 1.632-.694 1.315-1.455-.535-.586-1.424-.686-1.517-.93-.856-.444 1.2-.973.848-.973-.642 0-1.26.06-1.35.663-1.027.978.523 1.048.465 1.048-.845 0-1.042.108-1.198.834-1.198 1.112 0 1.37-.514.727-1.433-.5-.716-.475-.778.524-1.198l1.048-.44-1.048-1.06c-1.32-1.322-1.337-1.613-.043-1.423 1.385.203 2.3-.15 1.776-.685-.844-.844-.46-1.338.856-1.09 1.047.196 1.218.154 1.048-.29-.204-.53 2.135-3.337 2.78-3.337.173 0 .518-.252.77-.556.395-.476.325-.67-.513-1.39-.535-.46-1.185-.752-1.444-.653-.318.122-.47-.086-.47-.63 0-.445.253-.906.567-1.027.435-.167.476-.305.17-.6-.555-.555-.497-.952.14-.952.35 0 .478-.208.364-.6-.43-1.467-.61-3.043-.364-3.07zm33.684 1.487c.194.004.436.224.63.653.212.465.276.84.14.824-.65-.07-1.102-.423-1.102-.845s.138-.635.332-.63zm-8.012.952c.037-.003.064 0 .075.01.33.33.494 3.273.182 3.273-.18 0-.955.54-1.722 1.198-1.177 1.007-1.433 1.106-1.615.63-.13-.342.078-.883.535-1.37.414-.44.69-.842.6-.9s-.592-.297-1.145-.535l-1.005-.44 2-1.005c.962-.485 1.827-.843 2.086-.866zm-43.782 2.375c.228.014.106.61-.364 1.733-.713 1.706-1.078 1.698-.94-.02.067-.84.206-1.44.3-1.337s.4.017.653-.193c.153-.127.266-.187.342-.182zm34.486.76c.535-.014.865.31.877.92.003.14-.528.257-1.187.257-1.42 0-1.575-.56-.29-1.048a1.84 1.84 0 0 1 .599-.128zm-19.82 1.177c.282 0 .513.142.513.3s-.23.394-.513.503c-.313.12-.513-.004-.513-.3a.51.51 0 0 1 .513-.503zm-9.178 4.108a.72.72 0 0 1 .556.225c.123.123-.048.426-.374.674-.947.72-1.54.603-1.102-.214.227-.424.582-.667.92-.685zm39.514.064c.532-.008.695.237.556.78-.097.38-.825.498-1.71.278-.944-.234-.708-.7.492-.963.263-.058.486-.094.663-.096zm-38.936 6.215c.123-.024.214.04.214.182 0 .188-.154.44-.342.556s-.342.06-.342-.128.154-.44.342-.556c.047-.03.087-.046.128-.053z" fill="#da121a"/><path d="M249.856 183.982c-1.457-2.258-1.585-3.522-.754-7.445.58-2.737.664-5.306.175-5.306-.363 0-1.196 2.713-1.565 5.1-.298 1.927-.958 3.5-1.753 4.18-.76.65-2.807 1.492-3.046 1.254-.094-.094-.205-.945-.246-1.89-.068-1.57.05-1.868 1.362-3.422 1.543-1.83 2.665-3.793 3.03-5.304.354-1.46-.27-1.113-1.216.676-1.143 2.16-4.49 5.56-5.526 5.613-2.862.148-2.857.15-2.97-.646-.176-1.24 1.167-3.06 2.606-3.534 2.5-.824 5.206-3.05 5.206-4.298 0-.343-.35-.255-1.284.323-1.88 1.163-3.765 1.99-5.72 2.512-3.564.95-5.726.366-7.265-1.96-1.407-2.127-.733-4.407 1.67-5.65 1.238-.64 1.722-.603 1.558.12-.42 1.858 2.198 3.75 4.65 3.36 1.864-.298 4.764-1.997 6.03-3.53 1.446-1.754 2.713-5.142 2.974-7.955.192-2.07.147-2.4-.328-2.4-1.313 0-1.655-2.444-.512-3.66.718-.764.73-.886.296-3.103-.46-2.356-2.62-8.913-3.112-9.452-.362-.395-.778 2.478-.612 4.223.138 1.452-.026 1.605-1.107 1.027-.835-.447-.884.188-.15 1.947.282.676.513 1.383.513 1.572 0 .33-1.272.2-2.437-.25-.36-.14-.616 0-.733.404-.098.34-.432 1.204-.742 1.92-.555 1.283-.553 1.297.134.93.383-.205.697-.497.697-.648 0-.478 1.692-1.07 3.06-1.07.806 0 1.628.26 2.123.673.782.65.785.674.098.685-.39.006-1.072.396-1.514.867s-1.167.856-1.61.856-.893.225-1 .5-.52.604-.918.73-1.386.89-2.193 1.697c-1.424 1.424-1.467 1.532-1.467 3.67 0 1.842-.133 2.345-.81 3.077-.446.48-.91 1.274-1.033 1.76-.354 1.412-.783 1.047-1.546-1.317-.7-2.17-.673-2.944.143-3.958.522-.648.876-2.054.518-2.054-.148 0-.712.442-1.252.982-.633.633-1.47 1.047-2.35 1.164-.753.1-1.663.3-2.023.445-.562.226-.625.147-.443-.565.195-.764.14-.745-.715.253-2.364 2.76-5.778 2.9-6.44.264-.518-2.063 1.083-3.707 2.586-2.654.68.477.79.467 1.246-.11 2.08-2.64 3.076-6.323 3.43-12.67.3-5.388-.018-6.278-1.018-2.854-1.257 4.304-4.456 8.918-6.547 9.443-2.504.628-4.755-.945-4.08-2.853.293-.83.514-.945 1.852-.968 1.433-.025 1.553-.103 2.098-1.37.99-2.296 2.012-8.115 1.994-11.335l-.017-3.015-.924 1.886c-1.765 3.6-3.697 5.6-5.823 6.026-.92.184-1.253.04-2.282-1-1.403-1.403-1.582-2.794-.507-3.947.817-.877 1.448-.95 2.04-.236 1.208 1.455 2.396-.565 2.396-4.075 0-2.275-.582-5.01-2.337-10.986-1.798-6.124-1.933-6.98-1.936-12.323-.003-4.358.112-5.497.756-7.533 1.232-3.896 4.077-7.778 6.67-9.104 1.56-.797 4.45-.874 5.063-.136.234.282.63.513.88.513.553 0 1.93 1.82 2.532 3.343 1.08 2.736-.513 6.312-3.478 7.815-.905.46-1.646 1.055-1.646 1.326s.366 1.5.812 2.73c1.312 3.614 5.003 7.823 9.285 10.588 3.144 2.03 4.9 2.83 6.862 3.122 1.368.205 1.406.18 2.995-1.865l1.61-2.072h-1.37c-.753 0-1.37-.08-1.37-.176s.683-1.015 1.518-2.04c3.03-3.72 3.832-7.36 2.19-9.94-.482-.756-1.128-1.583-1.436-1.84s-.56-.597-.56-.758-.54-1.137-1.198-2.167-1.198-1.957-1.198-2.06c0-.745 1.903.534 4.743 3.19 1.045.977 1.76 1.344 1.76.904 0-.094-.732-.922-1.626-1.84s-2.076-2.242-2.627-2.94c-1.033-1.3-1.362-1.374-3.534-.69-.65.206-.77.118-.763-.567.016-1.693 1.817-3.035 4.07-3.035 1.473 0 2.506.833 5.567 4.486 1.012 1.208 1.346 1.42 1.694 1.076.24-.235 1.076-.428 1.86-.428 1.374 0 1.523.113 4.04 3.07 1.437 1.69 2.612 3.2 2.612 3.38s-.482.405-1.07.523c-1.038.208-1.064.257-.848 1.607.123.766.468 1.767.768 2.225.532.812.37 1.032-.646.872-.14-.022-.256.23-.255.558.004 1.326.755 3.156 2.058 5.017.756 1.08 1.275 2.123 1.153 2.32-.126.205-.8.28-1.573.177l-1.352-.18.626.73 1 1.14c.206.225.57.883.8 1.462.496 1.198.747 1.194 4.292-.062 6.962-2.467 11.448-6.652 13.594-12.68 1.398-3.926 1.33-4.388-.764-5.13-2.548-.905-3.588-2.618-3.588-5.91 0-2.257.093-2.59 1.063-3.8 1.394-1.727 2.76-2.493 4.892-2.745 3.326-.394 6.236 1.536 7.91 5.247 3.118 6.906 3.86 14.704 2.03 21.34-1.627 5.9-2.088 8.935-1.953 12.847.147 4.237.317 4.79 1.31 4.257.887-.475 1.96.1 2.238 1.222.264 1.053-.538 2.355-1.875 3.047-.9.465-1.102.445-2.478-.25-1.926-.972-3.475-3.273-4.1-6.09-.426-1.92-.503-2.048-.695-1.15-.612 2.85-.07 8.477 1.123 11.674.827 2.216 1.434 2.788 2.174 2.048 1.353-1.353 3.192 1 2.092 2.678-1.124 1.715-3.713 1.93-5.75.48-1.99-1.416-3.814-6.686-4.252-12.277-.212-2.7-.3-3.05-.52-2.054-.72 3.25-.626 9.014.242 14.825 1.387 9.288 1.48 9.65 2.273 8.857.525-.525 2.07-.52 2.596.006.665.665.493 2.566-.298 3.303-1.352 1.26-4.105 1.158-5.775-.214-.696-.572-2.76-5.134-2.76-6.103 0-.537-.542-.644-.837-.165-.106.172-.8.415-1.54.54-2.576.435-2.715 1.886-.18 1.886 1.192 0 1.757.218 2.694 1.04 1.066.936 1.916 2.84 1.467 3.29-.096.096-.574-.088-1.063-.41-.603-.395-1.232-.514-1.953-.37-.867.173-1.28.023-2.233-.814-1.072-.94-2.172-1.348-2.172-.803 0 .123.388 1.044.863 2.047l.863 1.823-.72 2.232c-.75 2.32-1.69 3.05-1.69 1.313 0-.506-.31-1.248-.686-1.65s-.77-1.413-.873-2.247c-.384-3.11-.484-3.67-.806-4.516-.427-1.123-1.645-1.964-2.845-1.964-.95 0-1.606-.52-2.764-2.192-.338-.49-.907-.888-1.263-.888-.948 0-1.158-.593-.36-1.02.43-.23 1.536-.283 2.936-.14 2.038.21 2.294.324 2.768 1.24.287.555.572.957.633.892.134-.142-1.08-4.97-1.365-5.433-.11-.18-.537-.013-.947.37-.758.706-2.19 1.233-2.503.92-.095-.095.143-1.1.53-2.255.9-2.7.918-3.27.04-2.8-1.024.548-1.068.475-.865-1.443.104-.988.06-2.246-.1-2.794-.27-.928-.422-.69-2.21 3.423-2.972 6.835-3.305 8.713-1.8 10.208 1.088 1.088 1.088 2.248 0 3.422-1.035 1.116-1.063 1.987-.17 5.166.927 3.303 2.068 5.56 3.613 7.144 1.637 1.68 3.058 2.27 5.458 2.27 3.49 0 5.905-1.707 5.545-3.923-.185-1.137-.14-1.21.723-1.2 2.16.028 3.823 1.962 3.827 4.447.004 2.59-1.615 4.048-5.347 4.814-1.833.376-2.337.356-3.99-.164-1.04-.327-2.56-1.02-3.38-1.538-1.618-1.026-3.028-1.517-3.028-1.054 0 .323 2.81 2.65 5.215 4.317 1.06.735 1.688 1.48 1.97 2.333.228.7.343 1.326.256 1.412-.344.344-3.89.23-4.596-.146-.412-.22-1.62-1.71-2.684-3.31-1.925-2.893-2.444-3.48-2.78-3.145-.203.203.294 1.05 2.877 4.905 1.823 2.72 1.862 2.83 1.628 4.535-.264 1.923-.502 2.05-2.37 1.27-1.243-.52-2.108-1.903-2.45-3.92-.345-2.033-1.584-5.66-2.122-6.212-.44-.45-.47-.306-.267 1.198.128.94.6 3.26 1.05 5.154.452 1.903.722 3.816.602 4.28-.182.703-2.067 4.088-2.277 4.088-.037 0-.64-.886-1.338-1.968zm-18.27-31.692c1.317-.616 1.563-.854 1.194-1.16-.255-.212-.897-.435-1.426-.496-.842-.097-1.018.05-1.4 1.172-.246.706-.35 1.278-.232 1.27s.962-.36 1.874-.787zm36.982-4.335c.817-.753 1.72-1.37 2.004-1.37 1.118 0 1.32-.827.805-3.293-.27-1.295-.66-4.965-.87-8.154s-.43-5.852-.494-5.916c-.253-.253-.552 4.066-.58 8.378-.016 2.494-.142 4.535-.28 4.535-.624 0-2.556-5.2-3.27-8.783l-.465-2.342-.032 2.352c-.028 2.015-.103 2.293-.53 1.94-.273-.227-.89-1.2-1.37-2.163-.967-1.94-1.098-1.635-.406.95.714 2.67 3.004 6.883 4.296 7.905.8.625.184 1.508-1.035 1.508h-1.086l.21 2.004c.24 2.303.74 3.815 1.256 3.815.197 0 1.027-.616 1.844-1.37zm-32.732-1.112c.422-1.177.767-2.228.767-2.337s-.462-.13-1.027-.047-1.027.072-1.027-.024.587-1.153 1.305-2.35c1.42-2.363 1.884-3.442 2.463-5.704l.55-2.054c.094-.318-.26.193-.79 1.134l-.96 1.71-.1-2.824c-.057-1.624-.248-2.824-.448-2.824-.192 0-.277.116-.19.258s-.215 1.952-.674 4.022c-.8 3.66-1.7 5.99-2.285 5.99-.158 0-.18-1.233-.05-2.74.145-1.662.094-3.31-.13-4.193a38.24 38.24 0 0 1-.58-2.773c-.116-.725-.28-1.25-.363-1.166s-.165 3.522-.18 7.64c-.02 5.34.083 7.525.363 7.62.215.072.77.73 1.234 1.465s.958 1.335 1.098 1.335.6-.963 1.023-2.14zm10.608-51.907c-.807-.82-.754-1.133.17-1.002a.97.97 0 0 1 .88.88c.13.914-.228.956-1.05.122z"/><path d="M267.377 160.877c-.044-.424.116-1.177.356-1.674.4-.805.34-1.047-.457-2.22-.825-1.215-1.166-2.824-.697-3.293.338-.338 2.272.374 3.083 1.136.506.475 1.317.76 2.34.826l1.567.027c0-.04-.424-.54-.94-1.112-.728-.805-1.318-1.082-2.603-1.222-.914-.1-1.9-.42-2.195-.715-.483-.483-.428-.632.585-1.578.72-.672 1.476-1.045 2.12-1.045.658 0 1.062-.206 1.18-.6.098-.33.406-1.043.685-1.587.617-1.203.455-1.433-.598-.85-.44.243-1.02.396-1.3.34s-1.15.618-1.956 1.496c-.88.96-1.7 1.552-2.052 1.484-.56-.108-1.293-2.4-1.975-6.185-.35-1.948-2.255-2.656-2.255-.84 0 .887 1.098 4.8 1.73 6.15.355.764.358 1.033.01 1.37s-.55.254-1-.372c-1.7-2.36-2.012-2.626-2.562-2.17-.406.337-.7.35-1.256.052-.4-.214-.9-.327-1.133-.252-.234.078-.08.312.36.548.423.226.77.587.77.8 0 .796 1.154 1.64 2.243 1.64 2.166 0 3.913 2.997 3.917 6.72.002 1.468.114 1.787.687 1.936.386.1.685.467.685.84 0 .612.27 1.116.595 1.116.076 0 .102-.347.058-.77zm-32.054-1.45c.203-.38.4-1.656.418-2.84.045-1.982.14-2.236 1.225-3.244 1.4-1.292 4.653-3.335 5.326-3.335.26 0 .472-.176.472-.4s.25-.574.56-.8c.474-.346.375-.415-.65-.454-.907-.034-1.583.25-2.698 1.138-2.532 2.013-2.872 1.58-1.47-1.87.795-1.956.826-2.205.342-2.74-.292-.323-.532-.78-.532-1.017a.29.29 0 0 0-.416-.29c-.36.12-1.087 2.194-1.77 5.053-.112.47-.34 1.064-.506 1.32-.464.712-1.654-.083-2.36-1.577-.423-.894-.9-1.327-1.622-1.5l-1.883-.5-.856-.248.725.82c.4.45.82 1.227.938 1.724.14.598.515.98 1.107 1.128 1.183.297 2.537 1.202 2.526 1.688-.005.214-1.058.894-2.34 1.512-2.18 1.05-3.813 2.572-3.813 3.552 0 .33.1.333.4.014.226-.226.858-.4 1.406-.4.646 0 1.598-.48 2.715-1.37.946-.753 1.87-1.37 2.055-1.37.47 0 .012 2.297-.762 3.8-.452.884-.58 1.653-.445 2.664.186 1.386.207 1.406.86.815.368-.333.836-.916 1.038-1.295zm29.86-35.63c7.482-1.806 13.05-4.4 16.13-7.5 2.724-2.75 3.65-4.243 4.587-7.383 1.328-4.456.617-7.338-3.193-12.94l-1.022-1.502.82-.63c.45-.346.935-.633 1.076-.637.42-.012.292-1.198-.203-1.875-.697-.953-2.2-.47-2.34.753-.155 1.34-1.158 1.426-1.42.123-.254-1.272-1.313-1.923-2.283-1.404-1.237.662-.492 2.738.983 2.738.592 0 1.413.614 1.413 1.057 0 .13-.53.335-1.18.457-1.215.228-1.75 1.013-1.37 2.005.5 1.306 2.626.645 3.256-1.012.166-.438.5-.796.74-.796.54 0 2.835 4.72 3.377 6.946 1.332 5.468-3.168 12.08-10.87 15.97-2.764 1.396-9.588 3.88-12.6 4.6-1.57.37-1.72.493-1.817 1.483-.104 1.067-.1 1.077 1.027.777a331.14 331.14 0 0 1 4.897-1.212zm-22.764-.34c0-.24-.638-.526-1.455-.65-4.03-.62-14.058-3.5-15.504-4.436a9.86 9.86 0 0 1-1.22-.952c-.262-.255-1.05-.816-1.754-1.246-1.707-1.044-3.506-3.198-4.605-5.512-.717-1.5-.973-2.563-1.06-5.196-.055-1.618.026-2.2.423-3.605.7-2.538 2.876-5.748 4.622-6.68.272-.033.358.27.358.706 0 1.628 2.487 1.933 2.673.327.082-.7-.103-1.015-.83-1.37-1.506-.734-1.422-1.312.2-1.312 1.157 0 1.472-.147 1.785-.834.505-1.108.18-1.833-.946-2.116-1.187-.298-1.987.213-2.124 1.358-.12 1-1.087 1.272-1.095.308-.007-.843-.388-1.325-1.26-1.597-.573-.18-.883-.032-1.308.616-.694 1.06-.223 2.152 1.07 2.476l.873.22-1.173 1.24c-1.867 1.974-2.83 3.488-3.615 5.7-1.098 3.077-1.202 4.5-.594 8.053.7 4.156 1.784 6.344 4.196 8.55 3.626 3.313 7.934 4.87 16.452 5.947 4.535.573 5.903.577 5.903.017zm6.167-23.255c.237-.285.635-1.4.885-2.476.438-1.883.425-2-.334-2.82-.434-.474-1.28-1.562-1.88-2.42-1.452-2.075-2.808-2.854-4.557-2.62-1.284.172-2.676 1.034-2.676 1.655 0 .155.374.112.83-.096 1.44-.657 2.467-.096 4.02 2.194.797 1.174 1.976 2.635 2.622 3.245.936.885 1.093 1.207.774 1.6-.604.727-1.525.314-3.424-1.536-1.953-1.903-2.337-2.094-1.48-.736 2.68 4.245 4.114 5.348 5.22 4.017zm5.473-.68c.368-.443.296-.366-.643-.3-.588.04-1.15-.195-1.087-1.327.043-.748-.52-.8-.8-.06-.554 1.443 1.56 2.853 2.53 1.687z" fill="#fcdd09"/></g><g id="B"><g fill="#da121a"><path id="C" d="M313.843 81.618c-2.633 0-2.944 2.57-4.803 2.57s-1.87-1.162-2.737-1.685c-.59 2.316.67 4.946 2.503 4.946 2.154 0 2.272-2.974 4.223-2.974 1.192 0 1.286 1.224 1.87 2.585.522 1.216 2.042 1.936 3.604 2.283-2.362 2.024-4.274 4.62-5.633 4.62-1.37 0-2.466-1.964-2.466-1.964-.696 1.08-1.23 4.3 1.568 4.3 1.517 0 3.046-1.01 3.046-1.01-3.135 6.102-5.233 12.645-5.233 18.797 0 2.44-2.162 5.79-4.652 6.995.365 1.127 1.174 2.096 2.54 2.096 3.64 0 1.8-7.585 5.738-8.773-.794 5.025-.723 10.063-.347 16.336.25 4.155-1.63 7.322-4.42 8.688-.992.486.207 2.05 2.11 2.05 4.313 0 5.075-8.305 4.728-14.52l2.307 1.048v18.983c0 5.722-.848 7.495-3.634 9.34-1.346.6.667 1.77 2.85 1.77 4.88 0 3.44-10.68 4.027-18.913l2.617 1.165s-.065 2.547-.196 4.55c-.132 2.015.9 2.745 1.485 4.107 0 0-.86 4.942-.86 10.738 0 4.542-1.202 5.718-3.084 6.6-.44.207-.68 1.377 2.616 1.405 4.732.04 3.868-8.203 3.868-12.873 0-7.912.55-18.75.55-18.75l2.42.885-.158 17.702c0 1.16-1.174 2.31-2.345 2.26.54.8 1.067 1.436 2.33 1.436 1.855 0 2.373-1.872 2.36-3.05-.057-5.248.196-17.663.196-17.663l3.084 1.413s.217 1.79 0 3.416c-.226 1.693-1.87 2.547-1.87 2.547 1.145 2.294 2.834 1.77 3.348.885.79-1.357.558-5.885.558-5.885l1.908.932s.164 6.677-.22 10.69c-.317 3.327.428 4.944.543 5.17-.217 2.003-.738 3.966-2.21 5.808-.566-1.287-2-3.92-4.524-3.92-2.117 0-3.34 2.36-3.34 2.36l.377.714s.756-.388 1.6-.388c.337 0 .892.305 1.19.272.5.712 2.994 3.33 2.994 3.33s-2-.343-4.268-.35c-2.666-.008-4.223 2.72-3.5 5.18.608-.954 1.166-1.542 2.526-1.46 1.516-1.14 3.935-1.406 5.406-1.374-.108 1.12-2.305 2.367-2.813 4.946-.348 1.767.58 3.312 1.682 3.944-1.246.284-2.058 3.086-4.192 3.222 0 0 .497.877 2.126.877 3.075 0 4.035-2.873 5.467-2.873 1.167 0 2.24 2.135 5.112 2.135 2.166 0 3.5-1.165 3.5-1.165l.008 2.182s-5.57.023-6.402.38-3.597 3.486-3.597 3.486c3.085.308 4.05-1.398 5.43-1.398 1.265 0 3.128-.225 4.494-.512v1.607c-2.153 1.067-3.838 3.425-5.39 5.613 1.23-.057 1.896.366 5-1.29 1.252.795 2.06 1.75 2.345 2.896l.543.1c.395-1.576 1.07-2.123 1.742-2.67.858.687 3.218.805 5.06 1.118-1.83-1.97-2.384-3.373-4.532-4.666l-.083-1.398c2.223.163 2.496 1.724 3.996 1.724.607 0 .615-.28 1.23-.28 1.642 0 2.758 1.067 3.717 2.104 1.408-2.02-.74-4.115-2.73-4.115-.73 0-1.547.194-1.908.194-1.203 0-1.594-1.705-4.05-2.39l-.015-2.438c1.11.35 2.42 2.904 5 2.904 2.705 0 3.122-2.345 5.308-2.345 1.42 0 3.43 2.073 3.43 2.073.58-1.666.036-4.007-1.267-5.202.852-.488 1.472-1.09 1.93-1.646.638-2.484-1.435-4.867-2.322-6.832 0 0 2.097 1.32 3.56 1.74.768.22 2.157.373 2.157.373.798.634 1.386 1.532 1.96 2.453.46-1.048.77-2.505.34-3.71-.248-.696-1.055-2.407-2.813-2.92-1.48-.43-3.102-.435-4.3-.458 1.052-.963 1.957-1.887 2.797-3.012.867-.117 1.333-.114 2.09 0 0 0-.52-2.81-2.903-2.81-.91 0-.724.505-.724.505-1.797-.353-2.634 1.237-3.883 3.71l-3.024-4.938s.287-2.57.287-6.662c0-4.048-1.188-8.13-2.345-9.573.407-.555.786-1.35.935-2.182.196-1.096.09-2.35.09-4.138l1.56.753s-.21 2.755-.21 5.388c0 2.287.576 4.83 2.21 4.83 1.187 0 1.855-1.29 1.855-1.29-3.454-.13-2.797-6.964-.912-6.964.69 0 1.14.924 1.146 1.708.01 1.418-.168 2.254.075 3.548.153.813.766 1.486 1.4 1.56-.358 1.768-.475 4.5-.475 6.755 0 2.487.302 5.31 2.805 5.31 1.174 0 1.622-.73 1.885-1.297-.778.01-1.43-.577-1.72-1.444-1.103-3.308-.127-6.763.317-10.357-.934-6.23.154-8.092.965-9.224-.107 3.68.78 5.528 1.69 7.026l-.24 15.606c-.043 6.827 1.512 10.186 5.007 10.186 1.054 0 1.847-.55 1.847-.55-4.874-2.82-4.404-10.405-4.404-16.134 0-3.488-.602-13.907 1.772-17.16l1.252.466c.017 4.02.015 9.812.958 14.542.777 3.9 2.32 7.368 4.592 7.368 1.462 0 2.666-1.26 2.918-2.228-3.827-.443-4.383-5.25-4.343-11.064l.18-10.2 1.825 2.01c-.227 2.085-.645 10.093 4.622 10.093 1.234 0 2.055-1.057 2.164-2.39-3.25-1.1-3.292-4.176-2.518-6.972-1.586-1.445-1.977-3.936-1.99-6.157-.02-3.32.194-6.72.58-9.938 2.342 0 1.96 6.918 5.942 6.918 1.895 0 2.85-2.772 2.85-2.772-1.8-.252-3.186-.758-3.634-2.057-.967-2.805-.74-5.814-.74-9.006 0-1.145-.08-2.706-.747-3.672-.354-2.254-2.09-4.92-3.823-6.227.375-1.593.642-3.042.31-4.752a13.7 13.7 0 0 0-.543-1.972c.48.132 1.05.24 1.636.24 4.32 0 3.018-2.692 2.775-2.632-.14.034-1.503 1.444-2.94 1.444-.815 0-1.548-.256-2.074-.48-.608-1.242-1.4-2.353-2.277-3.362.542-.815 1.193-1.83 1.72-2.764 1.297-2.303 2.852-4.022 3.778-4.022 1.205 0 1.007.707 2.18.707 2.197 0 2.078-2.756 1.832-3.207-.238-.436-.885 1.227-2.134 1.227-1.258 0-1.207-1.444-2.858-1.444-1.045 0-2.385.972-3.536 4.65-.497 1.586-1.353 2.928-1.983 3.79-1.407-1.368-3.013-2.53-4.637-3.556-2.056-1.3-4.345-.735-4.532 2.213-.13 2.064.886 3.276 1.878 4.503.216 1.807.24 3.494.128 5.272-.002.008.002.016 0 .023-.274 1.263-1.416 2.873-2.64 3.703-.862.585-1.477.48-2.722.48-4.168 0-4.992 2.304-4.992 4.612 0 2.872 1.3 6.103 2.224 6.103.794 0 1.915-1.652 1.915-3.51 0-1.69-1.402-2.358-1.402-3.696 0-1.393 1.016-1.755 2.345-1.755 4.443 0 4.562-2.73 5.504-4.953 4.496 3.942 1.156 10.264-2.986 12.912-2.856 1.825-6.69 2.728-10.82 1.73.31-3.098.208-6.196.113-9.294a2.18 2.18 0 0 1 1.448-.683c.697-2.702.206-5.692-.897-7.407 2.125-1.215 2.03-3.627 5.12-3.703-2.458-3.068-6.007-2.2-8.287-4.985 1.103-.693 2.05-1.47 2.737-2.376-3.612.04-3.664-2.857-8.95-2.857-3.81 0-6.98 3.237-8.785 6.048-1.29.004-3.656.53-5.376 1.817-1.348 1.008-2.534 2.88-2.534 5.047 0 1.913 1.793 3.323 4.23 3.362 0 0 .045-2.22 1.523-3.13s3.725-.17 3.725-.17 1.41-1.312 2.82-1.312c1.315 0 2.24.78 2.24 1.848 0 .96-1.527 1.662-3.092 1.662-1.492 0-2.735.38-3.846 1.017-1.837 1.053-1.825 2.873-1.825 2.873.945-.754 2.11-1.793 5.308-1.793 1.937 0 3.725-.57 4.954-1.537.047.262.075.512.075.73 0 1.82-.6 2.535-3.484 3.455.535.6 1.485.672 1.485 1.654 0 1.014-3.48 3.8-5.587 5.225.91 2.497 1.1 5.84-4.607 5.84-3.054 0-8.314-1.933-11.786-3.93-3.557-2.044-5.06-4.072-5.06-7.5 0-2.043.612-4.388 3.363-6.157.136-.088.258-.204.37-.334 1.405 2.562 2.115 5.88 4.81 5.893 2.747.012 4.456 2.64 4.14 5.707 1.365-.615 2.4-2.46 2.4-4.96 0-1.88-1.312-2.764-3.114-2.764-1.398 0-1.63.35-3.16.35-1.932 0-3.337-2.88-4.63-4.953.527-1.26.55-3.206.324-4.767-.222-1.54.265-2.24 1.523-3.06 1.18-.767 1.303-3.098-1.13-3.098-1.886 0-4.296.843-6.213 1.894a11.3 11.3 0 0 0-1.44.955c-.656-.165-1.556-.476-2.232-1.04-1.37-1.142-1.063-2.155-1.063-3.455s-.806-2.655-2.066-2.655zm39.843 72.967c.553 2.184 1.996 3.9 3.182 5.77l2.782 5.745c-2.168.267-4.73-.105-5.866 2.042-1.384-.254-.367 4.155 1.538 4.744-.046-1.144-.165-2.377.234-2.53 1.932-2.108 4.442-1.096 6.206-1.6.785 1.49 1.422 3.027 1.8 4.635l-1.033 1.654c-2.508.14-4.142 2.547-6.304 2.547-1.46 0-3.2-1.102-3.484-2.182-.36-1.37-.573-3.817-.573-8.936 0-5.09.495-10.9 1.508-11.887zm-8.754.528c2.573 2.833 2.306 12.505 2.813 18.805.13 1.606-1.33 2.733-2.692 2.733-2.433 0-2.954-2.764-5.414-2.764-2.122 0-2.03 1.57-3.46 1.94-.062-.968-.216-1.863.008-3.05 1.335-1.567 1.873-3.707 3.076-5.186 3.476-.223 5.01 2.1 5.83 2.252-.033.342 1.722 2.266 2.526 3.2-.176-1.67.01-3.34-.596-5.008l-.513-.093c-.303-1.043-.955-1.88-3.076-3.214-.924-.26-1.705-.458-2.55-.388 1.58-1.81 1.803-3.747 2.466-5.707.303-1.054 1.063-2.406 1.583-3.517z"/></g><g stroke="#000"><path d="M340.74 99.227c.314-1.844 2.27-2.98 5.43-2.98l4.373.124-3.408 2.484s-.993-1.304-2.594-1.304c-2.545 0-2.628 1.444-3.8 1.677z" stroke-width=".245"/><path d="M344.992 90.997c.42-.592 1.07-1.266 1.83-1.57.345-.138.778-.14 1.097-.132s.523.15.774.23c.162.052.327.19.254.37-.076.185-.218.362-.43.373-.33.018-.695-.1-.995.09-.26.172-.357.708-.328 1.108-.63.458-1.557.082-2.203-.468z" stroke-width=".073"/></g><path d="M340.2 156.867c-.217 2.003-.738 3.966-2.2 5.808-.566-1.287-2-3.92-4.524-3.92-2.117 0-3.34 2.36-3.34 2.36l.377.714s.756-.388 1.6-.388c.337 0 .892.305 1.2.272.5.712 2.994 3.33 2.994 3.33s-2-.343-4.268-.35c-2.666-.008-4.223 2.72-3.5 5.18.608-.954 1.166-1.542 2.526-1.46 1.516-1.14 3.935-1.406 5.406-1.374-.108 1.12-2.305 2.367-2.813 4.946-.348 1.767.58 3.312 1.68 3.944a.91.91 0 0 1 .204-.023 2.98 2.98 0 0 0 .354-.023 2.36 2.36 0 0 0 .271-.047l.038-.008c-.062-.968-.216-1.863.008-3.05 1.335-1.567 1.873-3.707 3.076-5.186 3.476-.223 5 2.1 5.83 2.252-.033.342 1.722 2.266 2.526 3.2-.176-1.67.01-3.34-.596-5.008l-.513-.093c-.303-1.043-.955-1.88-3.076-3.214-.924-.26-1.705-.458-2.55-.388 1.58-1.8 1.803-3.835 2.466-5.794l-3.137-1.628-.023-.047zm19.3 1.413l-2.707 1.928 2.858 5.9c-2.168.267-4.73-.105-5.866 2.042-1.384-.254-.367 4.155 1.538 4.744-.046-1.144-.165-2.377.234-2.53 1.932-2.108 4.442-1.096 6.206-1.6.785 1.5 1.422 3.027 1.8 4.635l-1.033 1.654.226-.008a2.95 2.95 0 0 1 .27.015l.256.04.166.04.173.055.045.016.113.047.1.04.136.07.226.132.038.023.173.124c.07.054.13.1.196.17.852-.488 1.472-1.1 1.93-1.646.638-2.484-1.435-4.867-2.322-6.832 0 0 2.097 1.32 3.56 1.74.768.22 2.157.373 2.157.373.798.634 1.386 1.532 1.96 2.453.46-1.048.77-2.505.34-3.7-.248-.696-1.055-2.407-2.813-2.92-1.48-.43-3.102-.435-4.3-.458 1.052-.963 1.957-1.887 2.797-3.012.867-.117 1.333-.114 2.1 0 0 0-.52-2.8-2.903-2.8-.9 0-.724.505-.724.505-1.797-.353-2.634 1.237-3.883 3.7l-3.046-4.915zm-46.35-59c-1.002 2.376-1.82 4.792-2.398 7.197 5.898 6.35 14.145 14.006 30.3 12.958-14.75-2.192-22.463-8.368-27.892-20.156zm72.115 2.902c-5.293 9.62-12.477 15.277-25.765 17.252 15.095.98 23.557-4.85 29.46-10.66-.4-2.233-2.092-4.84-3.8-6.126l.106-.466zM342.828 88.92c-1.286 0-3.673.515-5.4 1.805-1.348 1.008-2.53 2.885-2.53 5.05 0 1.913 1.8 3.318 4.227 3.357 0 0 .04-2.22 1.52-3.13s3.73-.17 3.73-.17 1.407-1.3 2.818-1.3c1.315 0 2.238.78 2.238 1.85 0 .96-1.528 1.656-3.093 1.656a7.51 7.51 0 0 0-3.842 1.018c-1.837 1.053-1.824 2.873-1.824 2.873.945-.754 2.106-1.792 5.305-1.792 3.573 0 6.63-1.96 6.63-4.723 0-2.393-2.397-4.182-5.36-4.182-2.22 0-4.42-2.304-4.42-2.304z" fill="#fcdd09"/><g fill="none" stroke="#000" stroke-width=".245"><use xlink:href="#C"/><path d="M334.466 158.948c-.643.617-1.127 1.85-1.176 2.795m-2.775 3.292c-.42.818-.45 2.295.422 3.354m14.146 1.49c.737-.24 1.253-.858 1.508-1.925m-13.03 4.255c1.097-.253 1.864.106 2.564.6m17.638-4.605c.753.538 1.294 1.366 1.706 2.372m11.005-11.112l1.493 2.372m4.308 6.456c-.92-.235-1.807.13-2.005 1.274m-3.796 4.655c-.694-.38-1.165-.832-2.943-.878m-27.374 2.492c-.32.1-.5-.03-.854.107m27.234-.906c.646-.02 1.312-.001 2.162.813"/></g></g><use x="96.866" xlink:href="#A" y="115.393"/><use x="-96.601" xlink:href="#B" y="115.922"/><path d="M300 78.466V325.04m-98.858-131.59h197.19" stroke="#000" stroke-width="1.83"/></svg>