<svg xmlns="http://www.w3.org/2000/svg" xmlns:xlink="http://www.w3.org/1999/xlink" width="1190.5" height="821.33" xmlns:v="https://vecta.io/nano"><g fill-rule="evenodd" stroke="#9e8739" stroke-width="3"><path d="M1.5 1.497H1189V819.83H1.5z" fill="#fee46e"/><path d="M1.5 21.497H1169V799.83H1.5z" fill="#e40544"/></g><use xlink:href="#B" fill="#fff"/><path d="M756.495 575.584c0 17.673-14.327 32-32 32h-108c-17.673 0-32 14.327-32 32 0-17.673-14.327-32-32-32h-110c-17.673 0-32-14.327-32-32V501.66l346-253.144z" fill="#1e5da8"/><path d="M409.3 451.26l272.5-272.5 74.355.34 1.325 141.767-286.786 286.786-33.27-.2c-18.577-2.444-23-14.532-27.254-26.75z" fill="#78b82a"/><g stroke="#9e8739"><use xlink:href="#B" x="1.88" y="1.953" fill="none" stroke-width="6"/><g fill="#fee46e" stroke-width="1.5" stroke-linejoin="round"><use xlink:href="#C"/><use xlink:href="#C" x="7.22"/><use xlink:href="#C" x="14.44"/><use xlink:href="#C" x="21.662"/><use xlink:href="#C" x="28.882"/><use xlink:href="#C" x="36.103"/><use xlink:href="#C" x="43.323"/><use xlink:href="#C" x="50.544"/><use xlink:href="#C" x="57.764"/><use xlink:href="#C" x="64.985"/><use xlink:href="#C" x="72.205"/><use xlink:href="#C" x="79.426"/><use xlink:href="#C" x="86.646"/><use xlink:href="#C" x="93.866"/><use xlink:href="#C" x="101.087"/><use xlink:href="#C" x="108.307"/><use xlink:href="#C" x="115.528"/><use xlink:href="#C" x="122.748"/><use xlink:href="#C" x="129.97"/><use xlink:href="#C" x="137.19"/><use xlink:href="#C" x="144.41"/><use xlink:href="#C" x="151.63"/><use xlink:href="#C" x="158.85"/><use xlink:href="#C" x="166.07"/><use xlink:href="#C" x="173.292"/><use xlink:href="#C" x="180.512"/><use xlink:href="#C" x="187.733"/><use xlink:href="#C" x="194.953"/><use xlink:href="#C" x="202.174"/><use xlink:href="#C" x="209.394"/><use xlink:href="#C" x="216.615"/><use xlink:href="#C" x="223.835"/><use xlink:href="#C" x="231.055"/><use xlink:href="#C" x="238.276"/><use xlink:href="#C" x="245.496"/><use xlink:href="#C" x="252.717"/><use xlink:href="#C" x="259.937"/><use xlink:href="#C" x="267.158"/><use xlink:href="#C" x="274.378"/><use xlink:href="#C" x="281.6"/><use xlink:href="#C" x="288.82"/><use xlink:href="#C" x="296.05"/><use xlink:href="#C" x="303.25"/><use xlink:href="#C" x="310.48"/><use xlink:href="#C" x="317.7"/><use xlink:href="#C" x="324.922"/><use xlink:href="#C" x="332.142"/><use xlink:href="#C" x="339.363"/><use xlink:href="#C" x="346.583"/><use xlink:href="#C" x="353.804"/><use xlink:href="#C" x="361.024"/><use xlink:href="#C" x="368.244"/><use xlink:href="#C" x="375.465"/><use xlink:href="#C" x="382.685"/><use xlink:href="#C" x="389.906"/><use xlink:href="#C" x="397.126"/><use xlink:href="#C" x="404.347"/><use xlink:href="#C" x="411.567"/><use xlink:href="#C" x="418.788"/><use xlink:href="#C" x="426.008"/><use xlink:href="#C" x="433.23"/><use xlink:href="#C" x="440.45"/><use xlink:href="#C" x="447.67"/><use xlink:href="#C" x="454.89"/><use xlink:href="#C" x="462.11"/><use xlink:href="#C" x="469.33"/><use xlink:href="#C" x="476.552"/><use xlink:href="#C" x="483.772"/><use xlink:href="#C" x="490.993"/><use xlink:href="#C" x="498.213"/><use xlink:href="#C" x="505.433"/><use xlink:href="#C" x="512.654"/><use xlink:href="#C" x="519.874"/><use xlink:href="#C" x="527.095"/><use xlink:href="#C" x="534.315"/><use xlink:href="#C" x="541.536"/><use xlink:href="#C" x="548.756"/><use xlink:href="#C" x="555.977"/><use xlink:href="#C" x="563.197"/><use xlink:href="#C" x="570.418"/><use xlink:href="#C" x="577.638"/><use xlink:href="#C" x="584.86"/><use xlink:href="#C" x="592.08"/><use xlink:href="#C" x="599.3"/><use xlink:href="#C" x="606.52"/><use xlink:href="#C" x="613.74"/><use xlink:href="#C" x="620.96"/><use xlink:href="#C" x="628.18"/><use xlink:href="#C" x="635.402"/><use xlink:href="#C" x="642.622"/><use xlink:href="#C" x="649.843"/><use xlink:href="#C" x="657.063"/><use xlink:href="#C" x="664.284"/><use xlink:href="#C" x="671.504"/><use xlink:href="#C" x="678.725"/><use xlink:href="#C" x="685.945"/><use xlink:href="#C" x="693.166"/><use xlink:href="#C" x="700.386"/><use xlink:href="#C" x="707.607"/><use xlink:href="#C" x="714.827"/><use xlink:href="#C" x="722.048"/><use xlink:href="#C" x="729.268"/><use xlink:href="#C" x="736.49"/><use xlink:href="#C" x="743.71"/><use xlink:href="#C" x="750.93"/><use xlink:href="#C" x="758.15"/><use xlink:href="#C" x="765.37"/><use xlink:href="#C" x="772.59"/><use xlink:href="#C" x="779.81"/><use xlink:href="#C" x="787.032"/><use xlink:href="#C" x="794.252"/><use xlink:href="#C" x="801.473"/><use xlink:href="#C" x="808.693"/><use xlink:href="#C" x="815.914"/><use xlink:href="#C" x="823.134"/><use xlink:href="#C" x="830.355"/><use xlink:href="#C" x="837.575"/><use xlink:href="#C" x="844.796"/><use xlink:href="#C" x="852.016"/><use xlink:href="#C" x="859.237"/><use xlink:href="#C" x="866.457"/><use xlink:href="#C" x="873.678"/><use xlink:href="#C" x="880.898"/><use xlink:href="#C" x="888.12"/><use xlink:href="#C" x="895.34"/><use xlink:href="#D"/><use xlink:href="#D" x="7.22"/><use xlink:href="#D" x="14.441"/><use xlink:href="#D" x="21.661"/><use xlink:href="#D" x="28.882"/><use xlink:href="#D" x="36.102"/><use xlink:href="#D" x="43.323"/><use xlink:href="#D" x="50.543"/><use xlink:href="#D" x="57.764"/><use xlink:href="#D" x="64.984"/><use xlink:href="#D" x="72.205"/><use xlink:href="#D" x="79.425"/><use xlink:href="#D" x="86.645"/><use xlink:href="#D" x="93.866"/><use xlink:href="#D" x="101.086"/><use xlink:href="#D" x="108.308"/><use xlink:href="#D" x="115.528"/><use xlink:href="#D" x="122.748"/><use xlink:href="#D" x="129.968"/><use xlink:href="#D" x="137.188"/><use xlink:href="#D" x="144.408"/><use xlink:href="#D" x="151.63"/><use xlink:href="#D" x="158.85"/><use xlink:href="#D" x="166.071"/><use xlink:href="#D" x="173.291"/><use xlink:href="#D" x="180.512"/><use xlink:href="#D" x="187.732"/><use xlink:href="#D" x="194.953"/><use xlink:href="#D" x="202.173"/><use xlink:href="#D" x="209.394"/><use xlink:href="#D" x="216.614"/><use xlink:href="#D" x="223.834"/><use xlink:href="#D" x="231.055"/><use xlink:href="#D" x="238.275"/><use xlink:href="#D" x="245.496"/><use xlink:href="#D" x="252.716"/><use xlink:href="#D" x="259.938"/><use xlink:href="#E"/><use xlink:href="#E" x="7.22"/><use xlink:href="#E" x="14.44"/><use xlink:href="#E" x="21.662"/><use xlink:href="#E" x="28.882"/><use xlink:href="#E" x="36.103"/><use xlink:href="#E" x="43.323"/><use xlink:href="#E" x="50.544"/><use xlink:href="#E" x="57.764"/><use xlink:href="#E" x="64.985"/><use xlink:href="#E" x="72.205"/><use xlink:href="#E" x="79.426"/><use xlink:href="#E" x="86.646"/><use xlink:href="#E" x="93.866"/><use xlink:href="#E" x="101.087"/><use xlink:href="#E" x="108.307"/><use xlink:href="#E" x="115.528"/><use xlink:href="#E" x="122.748"/><use xlink:href="#E" x="129.97"/><use xlink:href="#E" x="137.19"/><use xlink:href="#E" x="144.41"/><use xlink:href="#E" x="151.63"/><use xlink:href="#E" x="158.85"/><use xlink:href="#E" x="166.07"/><use xlink:href="#E" x="173.292"/><use xlink:href="#E" x="180.512"/><use xlink:href="#E" x="187.733"/><use xlink:href="#E" x="194.953"/><use xlink:href="#E" x="202.174"/><use xlink:href="#E" x="209.394"/><use xlink:href="#E" x="216.615"/><use xlink:href="#E" x="223.835"/><use xlink:href="#E" x="231.055"/><use xlink:href="#E" x="238.276"/><use xlink:href="#E" x="245.496"/><use xlink:href="#E" x="252.717"/><use xlink:href="#E" x="259.937"/><use xlink:href="#E" x="267.158"/><use xlink:href="#E" x="274.378"/><use xlink:href="#E" x="281.6"/><use xlink:href="#E" x="288.82"/><use xlink:href="#E" x="296.05"/><use xlink:href="#E" x="303.25"/><use xlink:href="#E" x="310.48"/><use xlink:href="#E" x="317.7"/><use xlink:href="#E" x="324.922"/><use xlink:href="#E" x="332.142"/><use xlink:href="#E" x="339.363"/><use xlink:href="#E" x="346.583"/><use xlink:href="#E" x="353.804"/><use xlink:href="#E" x="361.024"/><use xlink:href="#E" x="368.244"/><use xlink:href="#E" x="375.465"/><use xlink:href="#E" x="382.685"/><use xlink:href="#E" x="389.906"/><use xlink:href="#E" x="397.126"/><use xlink:href="#E" x="404.347"/><use xlink:href="#E" x="411.567"/><use xlink:href="#E" x="418.788"/><use xlink:href="#E" x="426.008"/><use xlink:href="#E" x="433.23"/><use xlink:href="#E" x="440.45"/><use xlink:href="#E" x="447.67"/><use xlink:href="#E" x="454.89"/><use xlink:href="#E" x="462.11"/><use xlink:href="#E" x="469.33"/><use xlink:href="#E" x="476.552"/><use xlink:href="#E" x="483.772"/><use xlink:href="#E" x="490.993"/><use xlink:href="#E" x="498.213"/><use xlink:href="#E" x="505.433"/><use xlink:href="#E" x="512.654"/><use xlink:href="#E" x="519.874"/><use xlink:href="#E" x="527.095"/><use xlink:href="#E" x="534.315"/><use xlink:href="#E" x="541.536"/><use xlink:href="#E" x="548.756"/><use xlink:href="#E" x="555.977"/><use xlink:href="#E" x="563.197"/><use xlink:href="#E" x="570.418"/><use xlink:href="#E" x="577.638"/><use xlink:href="#E" x="584.86"/><use xlink:href="#E" x="592.08"/><use xlink:href="#E" x="599.3"/><use xlink:href="#E" x="606.52"/><use xlink:href="#E" x="613.74"/><use xlink:href="#E" x="620.96"/><use xlink:href="#E" x="628.18"/><use xlink:href="#E" x="635.402"/><use xlink:href="#E" x="642.622"/><use xlink:href="#E" x="649.843"/><use xlink:href="#E" x="657.063"/><use xlink:href="#E" x="664.284"/><use xlink:href="#E" x="671.504"/><use xlink:href="#E" x="678.725"/><use xlink:href="#E" x="685.945"/><use xlink:href="#E" x="693.166"/><use xlink:href="#E" x="700.386"/><use xlink:href="#E" x="707.607"/><use xlink:href="#E" x="714.827"/><use xlink:href="#E" x="722.048"/><use xlink:href="#E" x="729.268"/><use xlink:href="#E" x="736.49"/><use xlink:href="#E" x="743.71"/><use xlink:href="#E" x="750.93"/><use xlink:href="#E" x="758.15"/><use xlink:href="#E" x="765.37"/><use xlink:href="#E" x="772.59"/><use xlink:href="#E" x="779.81"/><use xlink:href="#E" x="787.032"/><use xlink:href="#E" x="794.252"/><use xlink:href="#E" x="801.473"/><use xlink:href="#E" x="808.693"/><use xlink:href="#E" x="815.914"/><use xlink:href="#E" x="823.134"/><use xlink:href="#E" x="830.355"/><use xlink:href="#E" x="837.575"/><use xlink:href="#E" x="844.796"/><use xlink:href="#E" x="852.016"/><use xlink:href="#E" x="859.237"/><use xlink:href="#E" x="866.457"/><use xlink:href="#E" x="873.678"/><use xlink:href="#E" x="880.898"/><use xlink:href="#E" x="888.12"/><use xlink:href="#E" x="895.34"/><use xlink:href="#E" x="902.562" y="0.008"/><use xlink:href="#E" x="909.782" y="0.008"/><use xlink:href="#E" x="917.003" y="0.008"/><use xlink:href="#E" x="924.223" y="0.008"/><use xlink:href="#E" x="931.444" y="0.008"/><use xlink:href="#E" x="938.664" y="0.008"/><use xlink:href="#E" x="945.885" y="0.008"/><use xlink:href="#E" x="953.105" y="0.008"/><use xlink:href="#E" x="960.326" y="0.008"/><use xlink:href="#E" x="967.546" y="0.008"/><use xlink:href="#E" x="974.767" y="0.008"/><use xlink:href="#E" x="981.987" y="0.008"/><use xlink:href="#E" x="989.207" y="0.008"/><use xlink:href="#E" x="996.428" y="0.008"/><use xlink:href="#E" x="1003.65" y="0.008"/><use xlink:href="#E" x="1010.87" y="0.008"/><use xlink:href="#E" x="1018.09" y="0.008"/><use xlink:href="#E" x="1025.31" y="0.008"/><use xlink:href="#E" x="1032.53" y="0.008"/><use xlink:href="#E" x="1039.75" y="0.008"/><use xlink:href="#E" x="1046.97" y="0.008"/><use xlink:href="#E" x="1054.192" y="0.008"/><use xlink:href="#E" x="1061.412" y="0.008"/><use xlink:href="#E" x="1068.633" y="0.008"/><use xlink:href="#E" x="1075.853" y="0.008"/><use xlink:href="#E" x="1083.074" y="0.008"/><use xlink:href="#E" x="1090.294" y="0.008"/><use xlink:href="#E" x="1097.515" y="0.008"/><use xlink:href="#E" x="1104.735" y="0.008"/><use xlink:href="#E" x="1111.956" y="0.008"/><use xlink:href="#E" x="1119.176" y="0.008"/><use xlink:href="#E" x="1126.397" y="0.008"/><use xlink:href="#E" x="1133.617" y="0.008"/><use xlink:href="#E" x="1140.838" y="0.008"/><use xlink:href="#E" x="1148.058" y="0.008"/><use xlink:href="#E" x="1155.278" y="0.008"/><use xlink:href="#E" x="1162.5" y="0.008"/><use xlink:href="#F"/><use xlink:href="#F" y="-7.22"/><use xlink:href="#F" y="-14.441"/><use xlink:href="#F" y="-21.661"/><use xlink:href="#F" y="-28.882"/><use xlink:href="#F" y="-36.102"/><use xlink:href="#F" y="-43.323"/><use xlink:href="#F" y="-50.543"/><use xlink:href="#F" y="-57.763"/><use xlink:href="#F" y="-64.984"/><use xlink:href="#F" y="-72.204"/><use xlink:href="#F" y="-79.425"/><use xlink:href="#F" y="-86.645"/><use xlink:href="#F" y="-93.867"/><use xlink:href="#F" y="-101.087"/><use xlink:href="#F" y="-108.307"/><use xlink:href="#F" y="-115.527"/><use xlink:href="#F" y="-122.747"/><use xlink:href="#F" y="-129.967"/><use xlink:href="#F" y="-137.189"/><use xlink:href="#F" y="-144.409"/><use xlink:href="#F" y="-151.63"/><use xlink:href="#F" y="-158.85"/><use xlink:href="#F" y="-166.071"/><use xlink:href="#F" y="-173.291"/><use xlink:href="#F" y="-180.512"/><use xlink:href="#F" y="-187.732"/><use xlink:href="#F" y="-194.952"/><use xlink:href="#F" y="-202.173"/><use xlink:href="#F" y="-209.393"/><use xlink:href="#F" y="-216.614"/><use xlink:href="#F" y="-223.834"/><use xlink:href="#F" y="-231.055"/><use xlink:href="#F" y="-238.275"/><use xlink:href="#F" y="-245.497"/><use xlink:href="#F" y="-252.717"/><use xlink:href="#F" y="-259.927"/><use xlink:href="#F" y="-267.157"/><use xlink:href="#F" y="-274.377"/><use xlink:href="#F" y="-281.597"/><use xlink:href="#F" y="-288.819"/><use xlink:href="#F" y="-296.039"/><use xlink:href="#F" y="-303.26"/><use xlink:href="#F" y="-310.48"/><use xlink:href="#F" y="-317.701"/><use xlink:href="#F" y="-324.921"/><use xlink:href="#F" y="-332.142"/><use xlink:href="#F" y="-339.362"/><use xlink:href="#F" y="-346.582"/><use xlink:href="#F" y="-353.803"/><use xlink:href="#F" y="-361.023"/><use xlink:href="#F" y="-368.244"/><use xlink:href="#F" y="-375.464"/><use xlink:href="#F" y="-382.685"/><use xlink:href="#F" y="-389.905"/><use xlink:href="#F" y="-397.127"/><use xlink:href="#F" y="-404.347"/><use xlink:href="#F" y="-411.567"/><use xlink:href="#F" y="-418.787"/><use xlink:href="#F" y="-426.007"/><use xlink:href="#F" y="-433.227"/><use xlink:href="#F" y="-440.449"/><use xlink:href="#F" y="-447.669"/><use xlink:href="#F" y="-454.89"/><use xlink:href="#F" y="-462.11"/><use xlink:href="#F" y="-469.33"/><use xlink:href="#F" y="-476.551"/><use xlink:href="#F" y="-483.771"/><use xlink:href="#F" y="-490.992"/><use xlink:href="#F" y="-498.212"/><use xlink:href="#F" y="-505.433"/><use xlink:href="#F" y="-512.653"/><use xlink:href="#F" y="-519.874"/><use xlink:href="#F" y="-527.094"/><use xlink:href="#F" y="-534.315"/><use xlink:href="#F" y="-541.535"/><use xlink:href="#F" y="-548.757"/><use xlink:href="#F" y="-555.977"/><use xlink:href="#F" y="-563.197"/><use xlink:href="#F" y="-570.427"/><use xlink:href="#F" y="-577.637"/><use xlink:href="#F" y="-584.857"/><use xlink:href="#F" y="-592.079"/><use xlink:href="#F" y="-599.299"/><use xlink:href="#F" y="-606.52"/><use xlink:href="#F" y="-613.74"/><use xlink:href="#F" y="-620.96"/><use xlink:href="#F" y="-628.181"/><use xlink:href="#F" y="-635.401"/><use xlink:href="#F" y="-642.622"/><use xlink:href="#F" y="-649.842"/><use xlink:href="#F" y="-657.063"/><use xlink:href="#F" y="-664.283"/><use xlink:href="#F" y="-671.504"/><use xlink:href="#F" y="-678.724"/><use xlink:href="#F" y="-685.945"/><use xlink:href="#F" y="-693.165"/><use xlink:href="#F" y="-700.387"/><use xlink:href="#F" x="0.008" y="-707.607"/><use xlink:href="#F" x="0.008" y="-714.829"/><use xlink:href="#F" x="0.008" y="-722.049"/><use xlink:href="#F" x="0.008" y="-729.27"/><use xlink:href="#F" x="0.008" y="-736.49"/><use xlink:href="#F" x="0.008" y="-743.711"/><use xlink:href="#F" x="0.008" y="-750.931"/><use xlink:href="#F" x="0.008" y="-758.152"/><use xlink:href="#F" x="0.008" y="-765.372"/><use xlink:href="#F" x="0.008" y="-772.593"/><use xlink:href="#F" x="0.008" y="-779.813"/><use xlink:href="#F" x="0.008" y="-787.034"/><use xlink:href="#F" x="0.008" y="-794.254"/><use xlink:href="#F" x="0.008" y="-801.475"/><use xlink:href="#F" x="0.008" y="-808.695"/></g></g><defs ><path id="B" d="M756.37 575.21c0 17.673-14.327 32-32 32h-108c-17.673 0-32 14.327-32 32 0-17.673-14.327-32-32-32h-110c-17.673 0-32-14.327-32-32v-397h346z"/><path id="C" d="M2.75 19.58V3.73a2.5 2.5 0 0 1 3.76-2.195 2.5 2.5 0 0 1 1.24 2.195v15.85h-5z"/><path id="D" d="M905.312 19.573V3.722a2.5 2.5 0 0 1 3.76-2.195 2.5 2.5 0 0 1 1.24 2.195v15.85h-5z"/><path id="E" d="M2.75 801.186v15.85a2.5 2.5 0 0 0 3.76 2.195 2.5 2.5 0 0 0 1.24-2.195v-15.85h-5z"/><path id="F" d="M1170.75 817.127h15.85a2.5 2.5 0 0 0 2.195-3.76 2.5 2.5 0 0 0-2.195-1.24h-15.85v5z"/></defs></svg>