<svg xmlns="http://www.w3.org/2000/svg" xmlns:xlink="http://www.w3.org/1999/xlink" width="750" height="500" xmlns:v="https://vecta.io/nano"><style><![CDATA[.B{stroke-width:2.976}.C{fill:#fabb00}.D{fill:#009149}.E{fill-rule:evenodd}.F{fill:#e2001a}.G{stroke-width:1.618}.H{stroke-width:2.126}.I{stroke-width:2.992}]]></style><path d="M0 0h750v500H0z" fill="#fff"/><path d="M150 0h50v500h-50z" class="D"/><path d="M550 0h50v500h-50z" class="F"/><g stroke="#fabb00" stroke-width="1" class="C"><path d="M220.35 37.14V25.86c.002-.37.037-.6.105-.725s.152-.166.255-.155l.8-.055 1.33-.025c2.108-.012 3.78.472 5.02 1.455s1.872 2.537 1.9 4.665c-.004 1.137-.186 2.112-.545 2.925s-.87 1.477-1.535 1.995c-.53.435-1.2.745-1.975.93s-1.754.275-2.905.27zm-6.04 12h9.8v-.56c-1.662-.04-2.718-.33-3.17-.875s-.648-1.586-.6-3.125v-6.64c1.658-.028 2.9.038 3.7.2a2.87 2.87 0 0 1 1.9 1.28c1.977 3.235 3.605 5.57 4.883 7.004s2.423 2.32 3.434 2.658 2.106.476 3.283.418l.12-.52c-1.054-.324-2.196-1.136-3.425-2.435L230.9 42.7l-2.005-2.905-1.555-2.575c1.55-.683 2.75-1.567 3.595-2.65s1.274-2.467 1.285-4.15c-.098-2.503-.982-4.196-2.655-5.08s-3.547-1.297-5.625-1.24h-9.44v.6c1.623.068 2.657.343 3.1.825s.637 1.487.58 3.015v16.04c.06 1.54-.14 2.58-.605 3.125s-1.556.836-3.275.875zm24.995-.002h18.72l.705-3.155.735-3.245h-.68c-.316.905-.684 1.695-1.105 2.37s-.8 1.205-1.135 1.6c-.662.7-1.537 1.15-2.625 1.315s-2.252.234-3.495.205c-1.66.078-2.9-.078-3.725-.47s-1.236-1.488-1.235-3.3v-7.8h4.68c1.478-.057 2.53.098 3.16.465s1.082 1.292 1.36 2.775h.68v-7.44h-.68c-.253 1.3-.687 2.15-1.3 2.545s-1.687.574-3.22.535h-4.68v-9.36c-.02-.502.03-.818.155-.95s.446-.188.965-.17h3.76c2.333-.035 3.906.335 4.72 1.1s1.387 2.165 1.72 4.17l.68-.12-.24-3.42-.12-2.7h-17.4v.56c1.604.033 2.626.337 3.065.9s.63 1.697.575 3.37v15.68c.067 1.5-.137 2.52-.6 3.06s-1.617.84-3.43.9z"/><use xlink:href="#B"/><use xlink:href="#C"/><path d="M318.356 23.5c-2.982.04-5.524.705-7.625 2s-3.706 2.945-4.816 4.977-1.67 4.2-1.678 6.47c.094 3.77 1.386 6.83 3.875 9.174s5.6 3.554 9.364 3.625c3.906-.064 7.183-1.316 9.83-3.755s4.023-5.68 4.13-9.724c-.128-3.926-1.472-7.023-4.035-9.3s-5.577-3.423-9.044-3.47zm-1.16.96c3.297-.006 6.022 1.106 8.175 3.335s3.267 5.6 3.345 10.144c-.1 3.566-1.13 6.263-3.115 8.1s-4.374 2.743-7.165 2.75c-3.3-.054-6.02-1.246-8.13-3.575s-3.2-5.47-3.27-9.424c.1-3.846 1.12-6.693 3.085-8.54s4.324-2.773 7.075-2.78zm17.3 24.678h9.96v-.56c-1.327-.1-2.323-.33-3-.7s-1.083-.85-1.25-1.47c-.135-.544-.225-1.406-.27-2.585l-.1-4.775V28.42h.08l18.44 21h.44v-15.6l.065-4.465c.05-1.116.16-1.974.335-2.575.166-.583.534-1.057 1.105-1.42s1.43-.597 2.575-.7v-.56h-9.92v.56c2.244.034 3.616.626 4.115 1.775s.7 3.6.605 7.385v11.4h-.12l-18.48-21.12h-4.92v.56c1.037.117 1.823.293 2.36.53s.963.553 1.28.95c.353.34.597.7.73 1.115s.197 1.446.2 3.125v8.68l-.1 4.785c-.068 1.187-.182 2.072-.34 2.655-.15.567-.53 1.033-1.135 1.4s-1.494.593-2.665.68zm30.35 0h18.72l.705-3.155.735-3.245h-.68c-.316.905-.684 1.695-1.105 2.37s-.8 1.205-1.135 1.6c-.662.7-1.537 1.15-2.625 1.315s-2.252.234-3.495.205c-1.66.078-2.9-.078-3.725-.47s-1.236-1.488-1.235-3.3v-7.8h4.68c1.478-.057 2.532.098 3.16.465s1.082 1.292 1.36 2.775h.68v-7.44h-.68c-.253 1.3-.687 2.15-1.3 2.545s-1.687.574-3.22.535h-4.68v-9.36c-.02-.502.03-.818.155-.95s.446-.188.965-.17h3.76c2.333-.035 3.906.335 4.72 1.1s1.387 2.165 1.72 4.17l.68-.12-.24-3.42-.12-2.7h-17.4v.56c1.604.033 2.626.337 3.065.9s.63 1.697.575 3.37v15.68c.067 1.5-.137 2.52-.6 3.06s-1.617.84-3.43.9zm36.98-23.158c-.001-.407.03-.673.095-.8a.34.34 0 0 1 .305-.2c.175-.038.425-.062.75-.07h1.3c2.462-.007 4.317.507 5.565 1.545s1.872 2.642 1.875 4.815c-.047 2.3-.682 3.96-1.905 4.98s-2.747 1.52-4.575 1.5c-.937-.012-1.683-.087-2.24-.225s-.943-.262-1.16-.375zm-5.92 23.16h10.28v-.56c-1.967-.073-3.203-.367-3.7-.88s-.723-1.527-.65-3.04v-6.64l3.2.88c1.3.137 2.66-.048 4.087-.557s2.643-1.364 3.652-2.566 1.535-2.774 1.58-4.717c-.06-2.176-.628-3.76-1.7-4.755s-2.286-1.62-3.638-1.875-2.48-.366-3.38-.33h-9.48v.6c1.687.035 2.713.315 3.08.84s.513 1.565.44 3.12v15.92c.058 1.54-.138 2.58-.6 3.125s-1.508.836-3.17.875zM441.3 34.1l.125-4.805.275-2.435c.105-.62.475-1.1 1.1-1.475s1.505-.606 2.6-.725v-.56h-9.84v.56c1.387.136 2.422.384 3.105.745s1.087.86 1.215 1.495c.136.552.224 1.357.265 2.415l.055 4.785v2.12c.02 3.53-.6 6.348-1.885 8.45s-3.434 3.178-6.475 3.23c-2.722.017-4.837-.797-6.345-2.445s-2.272-4.232-2.295-7.755v-8.88c-.06-1.568.13-2.65.565-3.25s1.474-.902 3.115-.9v-.56h-9.64v.56c1.72.098 2.8.402 3.275.9s.666 1.592.605 3.25v10.12c.001 2.234.268 4.036.8 5.405s1.318 2.46 2.36 3.275c.93.73 1.95 1.25 3.065 1.555a12.62 12.62 0 0 0 3.455.445c1.42-.007 2.77-.253 4.05-.74s2.37-1.173 3.27-2.06c1.217-1.257 2.053-2.752 2.5-4.485s.673-3.837.65-6.315z"/><use xlink:href="#B" x="185.773"/><path d="M495.195 42.898c-.334.885-.696 1.655-1.085 2.3l-.995 1.53c-.47.48-1.16.84-2.065 1.08s-1.964.36-3.175.36c-1.995.083-3.345-.113-4.05-.6s-1.035-1.733-1-3.77V28.66c-.06-1.52.15-2.55.635-3.095s1.606-.846 3.365-.905v-.56h-9.92v.56c1.717.06 2.802.36 3.255.905s.647 1.576.585 3.095v15.72c.06 1.635-.13 2.735-.565 3.3s-1.474.865-3.115.9v.56h17.4l.72-3.285.72-2.955z"/><use xlink:href="#C" x="206.787"/><path d="M526.783 49.138h9.16v-.56c-1.33-.167-2.25-.492-2.76-.975s-1.03-1.437-1.56-2.865l-2.46-6.485-2.7-7.355-2.68-7.4-.48.2-8.68 20.36c-.672 1.728-1.307 2.86-1.905 3.4s-1.562.912-2.895 1.12v.56h9.08v-.56c-1.118-.154-1.952-.356-2.5-.605s-.822-.7-.82-1.355c.022-.468.2-1.234.533-2.3l1.067-3.118.8-1.98h9.24l1.895 4.9c.504 1.402.766 2.378.785 2.93.012.463-.223.797-.705 1s-1.287.377-2.415.52zm-3.8-21.92l3.88 10.72h-8.4l2.1-5.285 2.34-5.435z"/></g><g transform="matrix(.301724 0 0 .30304 287.69741 81.097192)"><g stroke="#000"><g class="B"><path d="M578.518 942.516c0 29.92-24.254 54.173-54.173 54.173H341.45c-29.92 0-54.173 24.254-54.173 54.173 0-29.92-24.254-54.173-54.173-54.173H55.673c-29.92 0-54.173-24.254-54.173-54.173V292.362h577.018z" fill="#008ac9"/><path d="M409.654 996.21l-238.938.153L1.653 827.516 1.5 588.578l168.846-169.063 238.938-.153 169.063 168.846.153 238.938z" class="F"/><path d="M382.073 929.744l-183.862.118L68.118 799.935 68 616.073 197.927 485.98l183.862-.118L511.882 615.79 512 799.65z" fill="#fff"/><g class="D"><path d="M303.895 666.34s-13.096-6.124-2.993-24.87c5.862 13.872 2.993 24.87 2.993 24.87zm8.107-10.374s-10.228-11.498 1.62-19.62c2.993 8.498-1.62 19.62-1.62 19.62zm13.596.624s-10.228-.125-19.333 9.248c0 0 6.112 9.748 19.333-9.248zm1.995-16.12s-7.36-.875-7.858-3.374c0 0 3.867-6.874 8.606-5.374 0 0 1.247 3.75-.624 9.248m2.37 33.806s-5.987-8.874.5-18.247c3.742 14.247-.5 18.247-.5 18.247zm13.658-13.623s-9.978-10.873 1.247-21.12c2.87 15.247-1.247 21.12-1.247 21.12zm-9.916 14.56s9.48-8.873 21.578-.25c-13.346 6.374-21.578.25-21.578.25zm15.466-16.997s.125-8.374 7.36-13.123c2.37 9.248-7.36 13.123-7.36 13.123zm1.746.874s2.245 8.623 17.836 9.248c-10.727-9.998-17.836-9.248-17.836-9.248zm14.218-6.873s-.873-13.872 12.348-18.747c-3.243 14.497-12.348 18.747-12.348 18.747zm18.336-9.187s-.374-9.123 12.223-13.623c-.748 13.748-12.223 13.623-12.223 13.623zm-36.92 48.805s-13.845-.5-18.7-8.624c0 0 9.73-7 18.7 8.624zM363.9 685.4s-14.344 6.75-15.6-4.75c0 0 4.116-2 15.6 4.75zm-1-10.437s9.355 8.874 18.2 1.375c-9.604-7.874-18.2-1.375-18.2-1.375zm-130.8 14.62s6.438 8.13 16.58-1.326c-7.85-3.005-16.58 1.326-16.58 1.326zm-68.28-59.4s1.323 8.837 18.52 16.084c-8.908-17.94-18.52-16.084-18.52-16.084zm20.204 18.895s-3.88 15.642-15.17 2.65c0 0 10.23 1.68 15.17-2.65zm5.74-1.118s-7.497-6.716-7.056-9.72c0 0 5.203-10.25 7.056 9.72zm-14.816 36.764s4.057-11.488 11.3-5.92c-3.88 8.307-11.3 5.92-11.3 5.92zm42.07 1.68s1.147-11.488 14.376-10.605c-6.35 10.87-14.376 10.605-14.376 10.605zm-11.377-33.935s-15.17-9.544-13.053-19.795c0 0 12.7 2.298 13.053 19.795zm24.342 15.82s-8.555-4.242-8.3-20.944c0 0 8.467-1.326 8.3 20.944zM335.2 631.92s8.5-12.02 24.298-10.25c-8.07 12.063-24.298 10.25-24.298 10.25zm12.7-19.53s11.42-6.407 19.8.53c-11.642 7.38-19.8-.53-19.8-.53zm-7.85-.132s-9.172-6.32-12.26-21.475c0 0 13.23 2.298 12.26 21.475zm-1.234-30.93s-10.848 7.38-15.037-5.302c0 0 4.674-6.495 15.037 5.302zm-.132-5.214s-6.88-2.65-4.542-13.83c0 0 6.306 1.016 4.542 13.83zm26.81 17.72s.97-13.698 14.332-17.498c.132 9.765-14.332 17.498-14.332 17.498zm-7.54 4.772s-1.676-11.047 4.454-17.012c5.468 6.407-4.454 17.012-4.454 17.012zm-164.88 69.235s10.415-8.873 23.137-6.8c-9.167 13.435-23.137 6.8-23.137 6.8z"/><path d="M220.202 675.838S205.1 678.9 204.8 669.402c14.22-1.187 15.404 6.436 15.404 6.436zm39.3-4.562s-13.97.562-20.393-8.748c0 0 16.776-.75 20.393 8.748z"/><path d="M243.402 676.525s-5.613-5.437-2.806-11.873c0 0 6.985 3.75 2.806 11.873zm16.152-22.62s-3.305-13.873 5.176-18.184c2.308 13.373-5.176 18.184-5.176 18.184zm20.766 7.186s-9.916-3.062-9.978-17.934c0 0 9.48.937 9.978 17.934zm-9.727 12.248s-7.234-15.872-.56-22.933c7.546 13.56.56 22.933.56 22.933zM284 637.345s-18.2-.062-18.96-7.624c0 0 15.03-5.374 18.96 7.624zm1.622-21.245s-14.22 1.062-19.458-10.686c0 0 12.223-2.437 19.458 10.686zm-30.442 15.16s-12.036-3.187-12.036-14.685c0 0 4.5-2.187 12.036 14.685zm-.178-28.4s-3.867-12.06 7.234-21.684c.8 15.435-7.234 21.684-7.234 21.684zm-4.182-31.22s-15.53-11.623-4.428-27.933c.114-.02 3.94 5.537 4.428 27.933zm3.48 2.874s-5.675-11.8 3.305-20.184c3.118 12.185-3.305 20.184-3.305 20.184zm14.422-24.58s-17.462-.562-19.894-11.248c0 0 13.97-2.75 19.894 11.248zm-2.495-8.186s-5.738-6.3-7.172-19.872c0 0 13.284 7.06 7.172 19.872zm20.705 33.743s-9.355-8.748-.25-20.184c0 0 7.36 8.936.25 20.184zm-9.792-10.247s-15.716 3.5-18.46-7.874c0 0 8.544-2.5 18.46 7.874zM285 575.48s-17.4-.187-18.335-6.936c0 0 9.23-5.874 18.335 6.936zm7.857 11.374s-17.96 6.06-22.638-10.123c0 0 9.667-1.437 22.638 10.123zm-36.593 45.642s3.704-8.44 11.906-13c-.53 13-11.906 13-11.906 13zm-16.404 1.37s-7.232-9.898-3.616-23.065c0 0 7.585 8.616 3.616 23.065zm-10.98-4.1s-10.407 9.456-22.18.354c0 0 8.467-4.463 22.18-.354zm1.455-2.12s-6.968-2.386-2.47-11.444c0 0 3.396 2.342 2.47 11.444zm-7.85-7.732s-9.48-12.416-2.25-23.64c0 0 8.3 12.505 2.25 23.64zm23.9-22.89s-12.26 4.154-10.628 12.46c0 0 8.38.53 10.628-12.46zm-36.204-20.28s3.925 12.682 21.123 5.788c-12.744-8.307-21.123-5.788-21.123-5.788zm24.608 3.093s-13.538-12.814-3.97-26.733c0 0 5.16 9.323 3.97 26.733zm-12.658-17.146s-12.303-13.256-7.76-22.358c0 0 11.157 9.102 7.76 22.358zm.838 4.508s-6.66 10.516-13.715 1.68c0 0 3.572-5.92 13.715-1.68zm-42.378 43.568s10.584 10.65 27.958 1.458c-12.48-4.286-27.958-1.458-27.958-1.458zm25.048-2.784s-3.837-16.084 1.323-21.696c0 0 6.482 10.428-1.323 21.696zm-10.23-8.97s-12.568-5.258-11.995-20.326c0 0 11.995 5.656 11.995 20.326zm114.4 23.157s-9.417-3.312.125-9.436c1.372 1.312-.125 9.436-.125 9.436zm6.1-6.936s-3.243-14.372 6.237-20.37c3.352 7.546-4.642 21.97-6.237 20.37zm-13.78-6.687s1.996-15.185 18.46-22.746c.56 15.56-18.46 22.746-18.46 22.746zm-5.8 2s-15.903-6.374-16.6-10.123c0 0 17.462-2.875 16.6 10.123zm.06-23.307s-6.486-6.56-1.185-16.8c0 0 5.3 5.624 1.185 16.8zm11.3 5.748s-12.535-10.686-4.054-23.933c0 0 3.555 4.062 4.054 23.933zm2.556-16.248s5.55-13.998 16.464-17.622c-.935 14.247-16.464 17.622-16.464 17.622zm-12.098-26.745s-2.87-16.435 5.488-22.87c5.862 19.934-5.488 22.87-5.488 22.87zm-1.87-.625s-11.85-8.5-6.6-21.87c0 0 10.602 5.624 6.6 21.87zm-16.34-6.56s3.305 10.873 14.344 5.562c-5.613-9.186-14.344-5.562-14.344-5.562zm33.863 4.123s2.62-9.06 21.64-12.123c-7.484 13.3-21.64 12.123-21.64 12.123zm6.192-13.605s-4.677-14.247 3.804-20.12c8.606 13.373-3.804 20.12-3.804 20.12z"/></g><path d="M316.98 691.57c-7.113 4.597-13.16 13.418-15.917 25.106-7.748 32.858-5.134 85.992.402 109.475 1.816 7.705 11.23 10.804 19.135 13.134 9.822 2.785 16.428 12.376 16.963 12.935 10.85 14.622 13.72 12.873 13.72 12.873-7.983 1.125-18.834-9.248-18.834-9.248.873 6.5-1.87 9.623-1.87 9.623-8.357-24.996-33.926-21.37-33.926-21.37 32.43 33.62 27.627 37.056 27.627 37.056-13.346-13.06-19.02-16.622-19.02-16.622-2.432 1.125-4.318 8.703-4.318 8.703 1.018-11.4-8.942-23.583-22.95-34.12-2.7 10.165-12.696 25.095-12.68 25.107l-2.646-6.54c-22.05 14.14-13.406 29.516-13.406 29.516s-1.56-5.232-1.56-13.105c.638-6.228 3.1-17.785 17.337-37.368 0 0-4.74-1.75-19.208 13.685 0 0 2.495-5.874.125-10.186 0 0-17.462 3.687-36.857 29.682 0 0-.873-16.185 33.552-33.557 0 0 27.94-9.123 27.7-41.243 0 0 1.87-71.862-4.24-89.61 0 0-5.114-11.623-18.834-20.62 0 0-14.593-8.5-18.585-15.497 0 0-7.608-8.75-11.226-11.498 0 0 20.206 15.872 23.324 16.497 0 0 6.236.5 11.85 8.374 0 0 11.1 10.498 20.455 11.623 0 0-2.744-13.123-7.234-18.872 0 0-5.987-4.124-8.107-14.372 0 0-4.865-13.373-10.477-18.622 0 0 7.858-4.624 16.963 21.62 0 0 9.978 15.372 17.836 19.996 0 0-4.615-41.743 8.232-47.867 0 0-3.99 27.495 3.617 42.867 0 0 6.112-12.873 11.725-17.747l23.324-22.246s-17.96 18.997-24.197 34.62l-4.24 10.873s-.998 6.75 8.73 5.374c.316-.46 5.074.664 15.84-13.248 3.44-4.08 5.535-1.83 12.972.375 0 0 5.862 2.75 19.707-2.25-38.26 11.404-40.572 17.2-40.79 16.693z" class="C"/><g fill="none"><path d="M315.356 687.1s2.734-4.507 2.117-8.926m38.6-2.798l17.286-5.126m-41.308 2.827c-1.56 4.12 6.408-13.753 30.05-18.664 2.1-.793 11.45.63 21.432-11.93"/><path d="M371.603 652.582l6.262 2.828M186.148 678.9s7.585-3.18 21.52-2.474l27.076-.442m-31.044 6.1l4.763-5.48m-25.93-30.31s10.407 6.098 23.196 7.688c.296.1 10.385.257 19.5 10.34"/><path d="M212.607 655.738l4.233-7.247m-23.812 10.075l7.85-5.48m51.33 29.87l3.35-5.567m-60.324-78.3l52.565 43.568"/><path d="M212.343 613.142l-.088-6.628m-26.46-4.86l13.053.53m7.937 19.972l15.963-.53m7.938 16.614l11.2-.53m2.293 16.26l8.643-2.828m2.824-4.418l-2.028-76.1m.793 30.93s-25.665-18.47-32.015-38.442"/><path d="M239.948 588.928l2.47-11.223m-12.348 18.558l9.437-6.98m15.875 26.157L269.67 609m19.757 27.73s9.48-25.495 8.73-37.618c0 0 .374-6.374-11.35-22.37l-21.204-32.87"/><path d="M271.216 551.735l1.247-8.124m16.964 49.367l7.983 2.75m-2.37-46.868l14.094 17.122"/><path d="M308.437 592.767l.572-29.16s2.245-16.872 10.85-30.12"/><path d="M315.744 540.237l-3.243-6.5m-3.367 27.996l6.985-3.624m8.23 85.985s11.6-10.873 15.092-26.745"/><path d="M329.963 616.973l8.232 4.75m-9.417 18.184l8.606 2.562m.936-66.24s7.172 14.685.187 43.93"/><path d="M338.445 619.723l26.692-26.495m-4.615 5.25l7.36 3.75m-26.416-14.005l7.33-4.243m-59.282 53.2s11.465-1.237 27.164-22.005m-30.308 23.17s-6.922-14.747.624-21.87"/></g><path d="M1.5 292.362h577.017v127H1.5z" class="C E"/></g><g stroke-width="2.977" class="D"><use xlink:href="#D"/><use xlink:href="#D" x="83"/><use xlink:href="#D" x="166"/><use xlink:href="#D" x="249"/><use xlink:href="#D" x="332"/><use xlink:href="#D" x="415"/></g><g class="C"><path d="M82.365 188.955L70.863 129.42s-6.75-2.25-6.5-10.506c0 0-.062-11.38 27.193-22.388 0 0 108.488-38.034 215.28-32.02 0 0 132.38 6.014 189.666 36.437 0 0 20.32 10.592 19.445 23.6 0 0 1.375 9.63-9.627 16.01l-7.126 48.403H82.365z" class="B"/><use xlink:href="#E" transform="matrix(1.397418 -.134616 .190868 2.402147 -6061.8561 -386.42555)" class="G"/></g><use xlink:href="#E" transform="matrix(1.119465 -.097357 .152903 1.73728 -4820.8041 -243.65764)" class="D H"/><g class="C"><g class="E I"><use xlink:href="#F"/><use xlink:href="#F" x="5.048" y="28.96"/><use xlink:href="#F" x="95.08" y="13.584"/><use xlink:href="#F" x="91.042" y="-19.446"/></g><path d="M64 161.063l15.545 12.105 28.722-30.975-33.258-.843z" class="B"/></g><path d="M64.063 160.99l12.488 9.725 23.075-24.885-26.72-.677z" class="B F"/><use xlink:href="#E" transform="matrix(-1.397418 -.134616 -.190867 2.402147 6641.5214 -386.42556)" class="C G"/><use xlink:href="#E" transform="matrix(-1.119465 -.097357 -.152903 1.73728 5400.4693 -243.65764)" class="D H"/><g class="C"><g class="E I"><use xlink:href="#G"/><use xlink:href="#G" x="-5.038" y="28.96"/><use xlink:href="#G" x="-95.07" y="13.584"/><use xlink:href="#G" x="-91.031" y="-19.446"/></g><path d="M515.665 161.063l-15.545 12.105-28.72-30.975 33.258-.843z" class="B"/></g><path d="M515.602 160.99l-12.488 9.725-23.075-24.885 26.72-.677z" class="B F"/><path d="M245.47 116.505l43.02 21.74 40.87-20.08-42.406-26.572z" class="B C"/><path d="M253.22 116.233l35.006 18 33.256-16.634-34.506-22.012z" fill="#008ac9" class="B"/><path d="M70.888 129.002c0-24.68 292.26-96.318 444.895 2.003m-443.685 4.863c0-24.68 288.193-98.82 440.83-.5M80.63 179.262c13.37-14.117 229.033-71.8 420.124-.122" fill="none" class="B"/><g class="E B"><path d="M503.622 194.467c-30.13 23.74-144.834 35.952-212.397 36.378-112.113.707-226.127-20.857-217.494-42.016 5.744-14.08 145.717-39.07 217.494-38.522 117.84.902 227.028 32.632 212.397 44.16z" class="C"/><path d="M483.524 194.615c-26.917 16.96-131.924 28.462-192.285 28.766-100.163.505-199.498-15.152-191.785-30.267 5.132-10.057 127.658-27.658 191.785-27.265 105.28.644 205.357 20.53 192.285 28.766z" fill="#fff"/></g></g><g class="C"><path d="M294.743 110.156c0 2.62-2.077 4.743-4.64 4.743s-4.64-2.123-4.64-4.743 2.077-4.743 4.64-4.743 4.64 2.124 4.64 4.743z" class="E"/><path d="M279.778 104.557v-.955c1.386.12 3.16.178 5.32.178l6.368-.065c2.364 0 4.09.502 5.175 1.505 1.085 1.014 1.628 2.4 1.628 4.128a6.66 6.66 0 0 1-2.192 5.075c-1.462 1.365-3.47 2.048-6.03 2.048-.99 0-.934-.078-2.29-.358l-.016 3.6.16 4.775a.64.64 0 0 0 .306.421c.3.173.085.32 1.805.57a8.36 8.36 0 0 1 .645.13v.955l-5.723-.178-5.16.178v-.955l.935-.2c1.42-.29 2.208-.502 2.37-.63.27-.237.403-.87.403-1.894l.048-7.835-.016-8.19c0-.69-.105-1.133-.314-1.327s-1.083-.453-2.62-.777l-.806-.194zm7.996 10.196c1.14.26.89.326 1.708.326 1.762 0 2.25-.464 3.21-1.392s1.443-2.164 1.443-3.707c0-1.5-.443-2.67-1.33-3.513s-1.368-1.263-3.195-1.263c-.806 0-.553.15-1.692.322l-.145 9.227z" stroke="#000" class="B"/></g></g><defs ><path id="B" d="M288.642 37.898h-9.36v.56c2.193.13 3.556.44 4.1.925s.757 1.324.67 2.515v3.48c.005.858-.125 1.482-.4 1.87s-.695.672-1.3.85c-.606.202-1.344.358-2.215.47s-1.84.168-2.905.17c-2.93-.05-5.28-.7-7.05-1.98s-3.046-2.852-3.832-4.745-1.172-3.797-1.157-5.714c.008-3.73 1.002-6.63 2.98-8.694s4.89-3.114 8.74-3.145c2.077-.06 3.853.33 5.33 1.17s2.553 2.5 3.23 4.95l.64-.08-.43-3.455-.25-2.465c-.707-.22-1.752-.45-3.135-.7s-2.937-.37-4.665-.4c-2.67.002-5.157.508-7.463 1.517s-4.175 2.504-5.606 4.486-2.168 4.434-2.2 7.357c.075 3.86 1.465 6.958 4.17 9.29s6.275 3.528 10.71 3.6a24.3 24.3 0 0 0 4.895-.58c1.604-.358 3.066-.712 4.385-1.06-.155-.404-.255-.896-.3-1.475s-.065-1.22-.06-1.925v-3.6c-.044-.857.074-1.472.355-1.845s.99-.637 2.125-.795z"/><path id="C" d="M291.183 49.138h9.68v-.56c-1.663-.04-2.727-.33-3.2-.875s-.667-1.586-.6-3.125V28.66c-.057-1.52.147-2.55.6-3.095s1.527-.846 3.2-.905v-.56h-9.68v.56c1.68.06 2.75.36 3.205.905s.654 1.576.595 3.095v15.92c.06 1.54-.14 2.58-.595 3.125s-1.524.836-3.205.875z"/><path id="D" d="M106.5 354.854c0 13.255-10.745 24-24 24s-24-10.745-24-24 10.745-24 24-24 24 10.745 24 24z"/><path id="E" d="M4417.388 460.717c0 3.07-7.746 5.56-17.3 5.56s-17.3-2.49-17.3-5.56 7.746-5.56 17.3-5.56 17.3 2.49 17.3 5.56z"/><path id="F" d="M130.1 123.64c0 2.765-2.24 5.006-5.004 5.006s-5.004-2.24-5.004-5.006 2.24-5.006 5.004-5.006 5.004 2.24 5.004 5.006z"/><path id="G" d="M449.555 123.64c0 2.765 2.24 5.006 5.004 5.006s5.004-2.24 5.004-5.006-2.24-5.006-5.004-5.006-5.004 2.24-5.004 5.006z"/></defs></svg>