<svg xmlns="http://www.w3.org/2000/svg" xmlns:xlink="http://www.w3.org/1999/xlink" width="1037.4" height="691.6" viewBox="-1 -1 524.089 349.009" xmlns:v="https://vecta.io/nano"><path d="M-1-1.18h524.09v349.393H-1z" fill="#0a4fa2" fill-rule="evenodd"/><g fill="#deb308" stroke="#deb308" stroke-width=".505"><path d="M163.1 77.75l3.6-.544c.2-.076.364-.302.524-.68v-.25l.175-4.103.044-1.95-.066-2.697.044-3.06-.022-5.7.022-4.08c.014-1.723-.113-2.773-.382-3.15s-.964-.646-2.084-.805l-1.855-.35c-.116-.076-.175-.196-.175-.363 0-.106.022-.242.066-.408.145-.136.48-.212 1.004-.227.073 0 .273-.02.6-.057a8.1 8.1 0 0 1 .927-.057h1.8l5.738-.068c3.244 0 5.516.25 6.818.748s2.338 1.34 3.1 2.528 1.156 2.512 1.156 3.978c0 2.78-1.404 4.904-4.2 6.37l-1.135.68c.495 1.088 1.185 2.395 2.073 3.922l2.77 4.942 2.3 3.412a5.26 5.26 0 0 0 1.538 1.145c.603.302 1.618.6 3.044.86l.022.363a3.24 3.24 0 0 1-.022.34l-7.004.045c-.2 0-.45-.015-.785-.045l-3.644-6.778-3.23-6.12c-.436-.635-.796-1.03-1.08-1.2s-.658-.238-1.124-.238l-1.855.023-.6-.023c-.044.484-.066 1.473-.066 2.97v7.753c-.014.287.044.688.175 1.2a1.43 1.43 0 0 0 .6.691c.284.174 1.102.434 2.455.782l.895.227c.116.15.175.355.175.612-.393.076-.67.113-.83.113-1.3 0-2.233-.015-2.77-.045l-.676-.023-2.967.045-2.902-.023-1.985.068-.436-.1-.044-.227c0-.136.102-.295.305-.476zm8.116-14.825l.873.023c1.047 0 2.255-.128 3.622-.385.96-.196 1.738-.518 2.335-.963s1.095-1.107 1.495-1.983a6.48 6.48 0 0 0 .6-2.72c0-1.028-.313-2.116-.938-3.264-.48-.876-1.3-1.6-2.433-2.2s-2.513-.884-4.113-.884l-1.527.068-.087 1.813.1 4.24-.022 1.745.087 4.5zM191.03 77.86c.123-.137.228-.22.314-.25.2-.076.566-.137 1.07-.182 1.193-.1 1.93-.228 2.214-.4.172-.304.258-.73.258-1.276l-.018-1.594.018-5.786-.037-2.733.018-5.717-.092-6.492c-.012-1.55-.092-2.422-.24-2.62-.22-.3-.88-.456-1.974-.5a7.08 7.08 0 0 1-1.236-.137c-.16-.106-.24-.243-.24-.4a1.28 1.28 0 0 1 .092-.433c.1-.076.2-.114.295-.114l.627.023a21.63 21.63 0 0 0 2.251.114l1.365-.045 3.247.1 3.8-.068 1.845-.068 2.103.1 2.62-.023.314.068 1.53-.068.185.114c.06.12.105.25.13.387 0 .213-.028.54-.083.98l-.083.82.13 4c-.012.1-.05.152-.1.182a.96.96 0 0 1-.369-.068c-.135-.288-.317-.797-.544-1.526s-.57-1.572-1.024-2.528c-.308-.638-.547-1.017-.72-1.14s-.53-.182-1.07-.182c-.1 0-.67-.015-1.68-.046l-.793-.023-5.258.137h-.46c-.676 0-1.082.106-1.218.32-.2.364-.314 1.435-.314 3.212l.092 5.467v3.166a1.38 1.38 0 0 0 .443.068h.314l.922.023 1.3.045a2.97 2.97 0 0 0 .387-.023l5.13-.1c.652-.137 1.033-.296 1.144-.478.184-.273.323-.987.415-2.14s.298-1.807.618-1.96a.89.89 0 0 1 .443.114c.025.12.037.235.037.342s-.012.28-.037.524c-.062.562-.092 2.323-.092 5.285l.1 2.642.1 1.572a3.6 3.6 0 0 1-.055.547c-.098.06-.178.1-.24.1h-.13c-.197-.425-.387-1.086-.572-1.982-.32-1.534-.655-2.494-1.005-2.88s-.92-.58-1.707-.58l-.94.034-2.03.034h-1.2l-3.358.137-.02.752.02 4.2-.02 2.642.02 2.574c.012 1.55.092 2.445.24 2.688.2.334.664.5 1.365.5l1.125-.023 1.153.034 2.48.034c2.374 0 3.954-.125 4.74-.376a3.99 3.99 0 0 0 1.946-1.333c.5-.638 1.153-2.012 1.928-4.123.234-.623.467-.934.7-.934.1 0 .234.06.37.182l-.6 2.96a31.27 31.27 0 0 0-.24 3.257c0 .5-.098.92-.295 1.253h-.406l-5.184.068-2.325-.023-5.535.1h-2.25l-.793.023-4.9.182c-.184 0-.3-.038-.378-.114s-.1-.2-.1-.342zm53.502-26.713l.244 3.36.133 2.078-.62.1c-1-2.24-2.22-3.92-3.692-5.04s-3.27-1.68-5.4-1.68c-2.602 0-4.627.317-6.075.95-2.1.9-3.895 2.462-5.388 4.688s-2.24 4.9-2.24 8.05c0 1.813.273 3.442.82 4.887s1.32 2.8 2.317 4.035a16.03 16.03 0 0 0 3.537 3.24c.887.604 1.944 1.06 3.17 1.37.695.162 1.73.243 3.104.243.887 0 1.87-.125 2.95-.376s1.892-.586 2.44-1.006.92-.896 1.12-1.426.3-1.563.3-3.096c0-2.55-.17-4.035-.5-4.455s-1.412-.697-3.215-.83l-.887-.066-.6.022-.355-.066-.333-.553c0-.074.052-.17.155-.287.77-.118 2.44-.177 5-.177l2.816.044 2.284.088 2.062-.022 1.44.044c.103.015.17.04.2.077s.044.1.044.188c0 .162-.037.37-.1.62-.62.133-1.1.2-1.44.2l-1.44-.022c-.488 0-.88.17-1.175.5-.148.162-.222.715-.222 1.658l.022 2.897c0 2-.08 3.258-.244 3.803-.1.324-.274.615-.554.873s-.872.564-1.774.918c-1.286.516-2.454.862-3.503 1.04-1.95.34-3.836.5-5.654.5-2.927 0-5.325-.372-7.195-1.117s-3.48-1.78-4.834-3.107-2.317-2.668-2.894-4.024c-.872-2-1.308-4.017-1.308-6.08 0-2.58.684-5.104 2.05-7.573s3.573-4.478 6.62-6.025c2.143-1.1 5.055-1.636 8.736-1.636 2.542 0 4.623.22 6.242.663s2.9.943 3.847 1.504zm6.518 26.67a2.66 2.66 0 0 1 .88-.25c1.995-.152 3.135-.428 3.422-.83s.43-2.345.43-5.83l-.02-2.387v-2.5l-.078-2.75.04-1.614-.02-1.773v-2.1l-.04-.932.04-1.182.02-.955-.117-3.023c-.052-.212-.124-.417-.215-.614-.482-.288-1.26-.48-2.337-.58s-1.685-.208-1.828-.33c-.104-.1-.163-.326-.176-.705h1.643l5.182.136 5.32-.136a5.6 5.6 0 0 1-.039.682c-.26.076-.697.16-1.3.25-1.238.167-1.995.326-2.268.477-.17.076-.293.205-.372.386-.13.273-.2.78-.235 1.523l-.098 2.932.078 10.115v4l-.04 2.568.108 3.25c.072.47.196.807.372 1s.466.367.87.5c.6.167 1.07.258 1.408.273.73.03 1.193.152 1.388.364a2.64 2.64 0 0 1 .059.5v.182l-2.62.068c-.326 0-.906-.023-1.74-.068l-2.7.045-4.967-.023zm15.742-14.246c0-1.545.187-2.92.56-4.124s1.005-2.5 1.9-3.92 1.956-2.586 3.208-3.533 2.987-1.784 5.202-2.5c1.558-.5 3.53-.75 5.912-.75a17.61 17.61 0 0 1 4.709.636c1.535.424 2.93 1.015 4.182 1.772s2.505 1.924 3.758 3.5c.87 1.1 1.528 2.265 1.97 3.522a15.31 15.31 0 0 1 .87 5.112c0 2-.195 3.658-.584 4.976s-1.043 2.62-1.96 3.908c-.718 1-1.948 2.15-3.7 3.454-1.16.88-2.605 1.587-4.33 2.124s-3.6.807-5.592.807c-2.032 0-3.842-.235-5.43-.704s-2.914-1.04-3.976-1.715-2.154-1.67-3.277-2.988-1.975-2.772-2.555-4.363-.87-3.325-.87-5.203zm15.904 14.133c1.283 0 2.616-.178 4-.534s2.6-.947 3.678-1.772 1.906-1.765 2.5-2.817 1.1-2.405 1.455-4.056a22.79 22.79 0 0 0 .55-4.953c0-2.06-.306-4.097-.917-6.112a11 11 0 0 0-2.315-4.1 10.97 10.97 0 0 0-3.873-2.795c-1.513-.66-3.124-.988-4.835-.988-1.4 0-2.75.227-4.08.682s-2.422 1.034-3.277 1.738-1.65 1.704-2.383 3-1.3 2.723-1.673 4.283-.573 2.94-.573 4.135c0 1.257.2 2.68.573 4.272s.905 2.97 1.57 4.135a12.97 12.97 0 0 0 2.452 3.102c.97.9 2.06 1.6 3.266 2.068s2.498.716 3.873.716zm19.338-27.533l-.02-1.1 4.68-.182.804-.068.557.023c.577.53 1.113 1.137 1.608 1.82l.37.455 4.35 5.298.618.82 2.402 2.9 4.216 5.025 4.927 6.025L328.4 73.4l.02-.364-.124-3.342.082-1.364-.04-2.137v-.978l-.144-5.752-.165-2.5-.144-3.217c0-1.667-.1-2.637-.268-2.9-.124-.197-.708-.402-1.752-.614-.247-.015-.632-.06-1.154-.136-.618-.03-.983-.068-1.093-.114s-.22-.174-.33-.387a2.25 2.25 0 0 1 .186-.682c.37-.12.735-.182 1.093-.182.385 0 .862.053 1.433.16s1.082.16 1.536.16l2.948-.136 1.567-.1h.35l-.04.705c-.22.106-.522.17-.907.193a4.34 4.34 0 0 0-1.072.193c-.495.167-.8.3-.886.432-.33.394-.495.796-.495 1.205l.227 7.185.165 3.297-.02.955.124 4.57.124 8.14-.082 3.25-.97.1-4.968-5.73-1.34-1.57-1.773-2.25-1.34-1.592-.454-.5-5.834-7.048-2.845-3.547-1.484-1.864c-.206-.227-.488-.485-.845-.773l-.062.773c0 2.956.07 7.033.206 12.232l.144 7.526c.014.637.048 1.25.103 1.842l.722.182a35.99 35.99 0 0 1 3.855.614 1.94 1.94 0 0 0 .247.205l-.02.864a1.74 1.74 0 0 1-.536.114 4.11 4.11 0 0 1-.557-.046c-1.36-.12-3.017-.182-4.968-.182-1.374 0-2.584.038-3.628.114l-.3.023c-.124 0-.302-.015-.536-.046l-.02-.682.536-.273.97-.16c.866-.136 1.498-.288 1.897-.455a1.53 1.53 0 0 0 .64-.477c.15-1.046.227-2.577.227-4.593l-.062-5.16V63.5l-.04-6.457c-.028-2.88-.117-4.578-.268-5.093-.082-.273-.254-.515-.515-.728-.522-.4-1.206-.667-2.05-.773s-1.392-.197-1.64-.273zm33.002 27.687c.13-.137.24-.22.33-.25.22-.076.597-.137 1.13-.183 1.26-.1 2.04-.228 2.337-.4.182-.305.273-.73.273-1.28l-.02-1.6.02-5.804-.04-2.742.02-5.735L339 53.34c-.013-1.554-.097-2.43-.253-2.628-.234-.3-.928-.457-2.084-.503-.493-.015-.928-.06-1.305-.137-.17-.107-.253-.244-.253-.4a1.25 1.25 0 0 1 .097-.434.59.59 0 0 1 .312-.114l.662.023a24 24 0 0 0 2.376.114l1.44-.046 3.428.1 4.012-.068 1.948-.07 2.22.1 2.766-.023.33.068 1.617-.068.195.114a1.36 1.36 0 0 1 .136.388c0 .213-.03.54-.088.983l-.088.823.136 4.022c-.013.1-.052.152-.117.183a1.06 1.06 0 0 1-.39-.068c-.143-.3-.334-.8-.574-1.53s-.6-1.577-1.08-2.536c-.325-.64-.578-1.02-.76-1.143s-.558-.183-1.13-.183c-.117 0-.708-.015-1.772-.046l-.838-.023-5.55.137h-.487c-.714 0-1.143.107-1.286.32-.22.366-.33 1.44-.33 3.222l.097 5.484v3.176c.143.046.3.068.467.068h.33l.974.023 1.363.046c.156 0 .292-.008.4-.023l5.415-.1c.688-.137 1.1-.297 1.208-.48.195-.274.34-1 .438-2.148s.315-1.813.653-1.965a.98.98 0 0 1 .467.114c.026.122.04.236.04.343s-.013.282-.04.526c-.065.564-.097 2.33-.097 5.3l.107 2.65.107 1.577c0 .137-.02.32-.058.548-.104.06-.188.1-.253.1h-.136c-.208-.427-.4-1.1-.604-1.988-.338-1.54-.7-2.502-1.062-2.9s-.97-.583-1.802-.583l-.993.034-2.143.034h-1.266l-3.545.137-.02.754.02 4.204-.02 2.65.02 2.582c.013 1.554.097 2.453.253 2.696.22.335.7.503 1.44.503l1.188-.023 1.217.034 2.62.034c2.506 0 4.175-.126 5.006-.377a4.22 4.22 0 0 0 2.055-1.337c.54-.64 1.217-2.018 2.035-4.136.247-.625.493-.937.74-.937.117 0 .247.06.4.183l-.643 2.97c-.143 1.066-.227 2.156-.253 3.268 0 .503-.104.922-.312 1.257h-.428l-5.473.068-2.454-.023-5.843.1h-2.376l-.838.023-5.162.183c-.195 0-.328-.038-.4-.114s-.107-.2-.107-.343zm-154.886 192.3a22.74 22.74 0 0 1 .265 3.496l-.022.95a2.43 2.43 0 0 1-.463.066c-.088 0-.213-.015-.375-.044-.618-1.726-1.626-3.053-3.023-3.983s-3.126-1.394-5.186-1.394c-1.1 0-2.008.125-2.76.376-1.324.457-2.486 1.088-3.487 1.892s-1.846 1.763-2.538 2.876-1.24 2.463-1.644 4.05-.607 3.205-.607 4.857c0 3.157.478 5.764 1.434 7.822s2.266 3.525 3.928 4.403 3.34 1.317 5.032 1.317l1.037-.022 2.405-.42c1.074-.3 1.96-.675 2.66-1.095s1.383-1.014 2.052-1.78 1.24-1.66 1.7-2.677l.265-.1c.074 0 .184.044.33.133l-.044.686-1.346 5.1-.883.266c-1.72.6-4.024.885-6.907.885-2.325 0-4.064-.16-5.22-.476s-2.413-.8-3.774-1.482-2.556-1.56-3.586-2.666-1.86-2.504-2.494-4.193-.95-3.53-.95-5.52c0-1.888.25-3.537.75-4.945s1.273-2.836 2.317-4.28a14.71 14.71 0 0 1 3.696-3.607 13.95 13.95 0 0 1 4.734-2.036c1.22-.265 2.95-.398 5.186-.398 1.633 0 3.17.218 4.612.653s2.405.86 2.9 1.272z"/><path d="M181.918 297.288c.206-.116.4-.173.55-.173h.507l.53-.022c1.13-.1 1.8-.202 2.005-.303.514-.274.955-.75 1.322-1.43.764-1.473 1.623-3.56 2.578-6.262l.86-2.34 1.058-2.73 2.07-5.698 2.335-6.153 1.124-3.25.64-.043.77.022c.632 1.228 1.2 2.55 1.674 3.965l1.3 3.358 3.35 8.905 1.785 4.832 1.85 5.06c.294.628.565 1.044.815 1.246.073.058.35.144.826.26l1.002.26c.676.188 1.146.347 1.4.477.06.16.088.282.088.368 0 .072-.022.18-.066.325l-1 .022c-.75 0-2.07-.022-3.966-.065l-2.203-.065-2.666.043c-.176 0-.356-.01-.54-.033l-.474-.032h-.485c-.162-.014-.308-.058-.44-.13a1.59 1.59 0 0 1 .11-.585c.176-.087.338-.137.485-.152l2.313-.152c.602-.03 1.057-.108 1.366-.238.088-.26.132-.455.132-.585 0-.26-.2-.932-.573-2.015l-.694-2.058c-.198-.65-.98-2.788-2.346-6.413-.602-.1-1.13-.152-1.586-.152l-4.715.043-1.388-.022c-.5 0-1.05.036-1.652.108l-.375.932-1.94 5.958-1.234 3.748c0 .13.066.347.198.65.308.087.72.166 1.234.238l2.996.26c.162.13.242.246.242.347a1.24 1.24 0 0 1-.066.325l-1.52.022c-1.175 0-2.54-.036-4.098-.108l-1.542-.043-1.608.043-1.08.043c-.352 0-.808-.022-1.366-.065v-.13a1.41 1.41 0 0 1 .088-.412zm10.5-13l5.376.13 3.018-.108c-.147-.563-.316-1.1-.507-1.582l-1.586-4.16-2.005-5.005-.22-.4c-.088.173-.4.917-.97 2.232l-2.027 5.265-.595 1.68-.386 1.17a3.74 3.74 0 0 1-.231.683zm21.364 13.57a1.67 1.67 0 0 1 .148-.623c.96-.323 1.896-.54 2.807-.646.603-.06 1-.23 1.164-.508.123-.2.197-.94.222-2.216l.13-6.095-.02-4.132.02-5.402v-1.43l-.037-6.072c-.012-.154-.062-.37-.148-.646-.32-.185-.588-.308-.803-.37s-1.18-.285-2.9-.67l-.02-.37c0-.092.006-.215.02-.37l1.145.046 2.807.115 1.625.046.48-.023a8.71 8.71 0 0 1 .536.046l1.256-.023 1.478-.14 2.105.07a5.06 5.06 0 0 1-.129.9c-.135.03-.776.073-1.92.127s-1.804.142-1.976.265c-.283.2-.425.816-.425 1.847l-.037 1.5v1.385l.02 4.27v1.454l.037 7.64-.055 6.5.02 1.43c0 .462.062.746.185.854l2.715.046h1.256l3.195-.14c.837-.03 1.434-.135 1.8-.312s.954-.696 1.8-1.558c.505-.554.9-1.123 1.182-1.708l.314-.554c.234-.4.548-1.2.942-2.4h.6l-.24 1.57-.74 5.425-.074.854-6.907-.254c-5.935 0-9.456.07-10.564.208a12.26 12.26 0 0 1-1.09.046zm21.264-.482c.197-.116.373-.174.528-.174h.486l.507-.022c1.085-.1 1.725-.203 1.923-.304.493-.275.916-.753 1.268-1.434.732-1.478 1.556-3.572 2.472-6.28l.824-2.347 1.014-2.738 1.986-5.716 2.24-6.172 1.078-3.26.613-.043.74.022a30.52 30.52 0 0 1 1.606 3.977l1.247 3.37 3.212 8.932 1.7 4.847 1.775 5.075c.282.63.542 1.047.782 1.25.07.058.335.145.792.26l.96.26c.648.188 1.1.348 1.352.478a1.21 1.21 0 0 1 .084.369 1.3 1.3 0 0 1-.063.326l-.95.022c-.718 0-1.986-.022-3.803-.065l-2.113-.065-2.557.043a4.23 4.23 0 0 1-.518-.033c-.176-.022-.328-.033-.454-.033h-.465c-.155-.015-.296-.058-.423-.13a1.66 1.66 0 0 1 .106-.587c.17-.087.324-.138.465-.152l2.218-.152c.577-.03 1.014-.1 1.3-.24.085-.26.127-.456.127-.587 0-.26-.183-.935-.55-2.02l-.666-2.065c-.2-.652-.94-2.796-2.25-6.433-.578-.1-1.085-.152-1.52-.152l-4.522.043-1.33-.022c-.48 0-1.007.036-1.585.1l-.36.935-1.86 5.977-1.183 3.76c0 .13.063.348.2.652.296.087.7.167 1.183.24l2.873.26c.155.13.232.246.232.348 0 .072-.02.18-.063.326l-1.458.022a80.46 80.46 0 0 1-3.93-.11l-1.48-.043-1.542.043-1.035.043a16.61 16.61 0 0 1-1.3-.065v-.13a1.43 1.43 0 0 1 .084-.413zm10.078-13.04l5.155.13 2.895-.1c-.14-.565-.303-1.094-.486-1.587l-1.52-4.173-1.923-5.02-.2-.4c-.084.174-.394.92-.93 2.24l-1.944 5.28-.57 1.684-.37 1.174a3.87 3.87 0 0 1-.222.685zm20.904-14.878v-.72l.65-.116 2.26-.116 6.297-.372 4.398-.046c2.724 0 4.718.194 5.984.58 1.842.573 3.216 1.437 4.122 2.6s1.358 2.436 1.358 3.846c0 2.293-1.7 4.222-5.07 5.787l-.12.186c1.73.45 3.148 1.077 4.254 1.882s1.955 1.8 2.547 2.95c.433.852.65 1.968.65 3.347 0 2.308-1.086 4.365-3.256 6.17s-5.163 2.707-8.976 2.707h-3.58l-3.63.116-5.624.046a19.28 19.28 0 0 1-1.658-.07v-.256c0-.186.04-.318.12-.395.096-.093.28-.17.553-.232l3.4-.825c.264-.147.445-.383.54-.7.192-.62.288-2.216.288-4.787l-.072-2.673v-2.417l-.144-10.714-.024-4.67-.024-.58-3.605-.35c-.673-.016-1.218-.07-1.634-.163zm9.54 11.76c.8.155 1.642.232 2.523.232 3.46 0 5.808-.736 7.042-2.208s1.85-2.936 1.85-4.392a6.49 6.49 0 0 0-.324-1.987c-.216-.674-.6-1.282-1.154-1.824s-1.238-.945-2.055-1.208a13.86 13.86 0 0 0-4.278-.674c-1.362 0-2.628.147-3.797.442a16.26 16.26 0 0 0-.024.72l.048 1.325a40.53 40.53 0 0 1 .024 1.394l-.072 2.812.024 1.673.168 3.277zm5.648 15.803c1.586-.108 2.916-.434 4-.976.497-.248 1.085-.693 1.766-1.336s1.2-1.414 1.586-2.312.565-1.766.565-2.603c0-.635-.132-1.418-.397-2.347a6.13 6.13 0 0 0-1.346-2.452c-.633-.705-1.574-1.286-2.824-1.743s-2.628-.686-4.134-.686l-4.903.163-.024.8.024.86-.024 1.743v1.975l.264 6.46s.565 1.24 1.3 1.72 2.127.728 4.146.744zm14.98.28l3.667-.55c.193-.077.37-.306.533-.7v-.253l.178-4.155.044-1.974-.067-2.732.044-3.1-.022-5.763.022-4.133c.015-1.745-.115-2.8-.4-3.2s-.982-.654-2.122-.815l-1.9-.356c-.12-.077-.178-.2-.178-.367 0-.107.022-.245.067-.413.148-.138.5-.214 1.022-.23a8.76 8.76 0 0 0 .61-.057 8.32 8.32 0 0 1 .945-.058h1.822l5.845-.07c3.304 0 5.62.253 6.945.758s2.382 1.358 3.167 2.56a7.21 7.21 0 0 1 1.178 4.03c0 2.816-1.43 4.967-4.3 6.45l-1.156.7c.504 1.102 1.208 2.426 2.1 3.972l2.823 5.005 2.334 3.455c.43.467.952.853 1.567 1.16s1.648.597 3.1.872l.022.367c0 .092-.007.207-.022.344l-7.134.046a9.56 9.56 0 0 1-.8-.046l-3.712-6.865-3.3-6.2c-.445-.643-.8-1.045-1.1-1.205s-.67-.24-1.145-.24l-1.9.023-.622-.023c-.045.5-.067 1.492-.067 3.008v7.852c-.015.3.044.696.178 1.217a1.45 1.45 0 0 0 .611.7c.3.176 1.122.44 2.5.792l.9.23c.12.153.178.36.178.62-.4.077-.682.115-.845.115-1.333 0-2.274-.015-2.823-.046l-.7-.023-3.023.046-2.956-.023-2.022.07-.445-.092-.044-.23c0-.138.104-.298.3-.482zm8.268-15.015l.9.023c1.067 0 2.297-.13 3.7-.4.978-.2 1.77-.524 2.378-.976s1.115-1.12 1.522-2 .6-1.806.6-2.755c0-1.04-.32-2.143-.956-3.306-.5-.888-1.315-1.63-2.478-2.227s-2.56-.895-4.2-.895l-1.556.07-.1 1.837.1 4.293-.022 1.768.1 4.57z"/><path d="M323.023 297.418a2.74 2.74 0 0 1 .903-.255c2.047-.155 3.217-.437 3.512-.848s.44-2.396.44-5.957l-.02-2.44v-2.555l-.08-2.8.04-1.65-.02-1.812v-2.137l-.04-.952.04-1.208.02-.975-.12-3.1a3.43 3.43 0 0 0-.221-.627c-.495-.294-1.294-.492-2.398-.592s-1.73-.213-1.876-.337c-.107-.093-.167-.333-.18-.72h1.686l5.317.14 5.458-.14a5.71 5.71 0 0 1-.04.697c-.268.077-.716.163-1.344.255-1.27.17-2.047.333-2.328.488a.73.73 0 0 0-.381.395c-.134.28-.214.797-.24 1.556l-.1 2.996.08 10.335v4.088l-.04 2.624.1 3.32c.074.48.2.825.38 1.034s.478.375.893.5c.615.17 1.097.263 1.445.28.75.03 1.224.155 1.425.372a2.69 2.69 0 0 1 .06.511v.186l-2.7.07c-.334 0-.93-.023-1.786-.07l-2.77.046-5.097-.023zm14.437-.15c.194-.12.366-.18.52-.18h.477l.498-.022c1.065-.104 1.694-.208 1.887-.313.484-.283.9-.774 1.245-1.474.72-1.52 1.528-3.67 2.427-6.455l.8-2.412.996-2.814 1.95-5.874 2.2-6.343 1.058-3.35.602-.045.726.022a32.14 32.14 0 0 1 1.576 4.087l1.224 3.462 3.153 9.18 1.68 4.98 1.742 5.215c.277.648.532 1.076.767 1.284.07.06.328.15.778.268l.944.268c.636.194 1.08.357 1.327.5a1.37 1.37 0 0 1 .083.38 1.41 1.41 0 0 1-.062.335l-.933.022a175.5 175.5 0 0 1-3.734-.067l-2.074-.067-2.5.045a3.95 3.95 0 0 1-.508-.034 3.64 3.64 0 0 0-.446-.034h-.456a.95.95 0 0 1-.415-.134 1.76 1.76 0 0 1 .104-.603c.166-.1.318-.14.456-.156l2.178-.156c.567-.03.995-.112 1.286-.246.083-.268.125-.47.125-.603 0-.268-.18-.96-.54-2.077l-.653-2.122c-.187-.67-.923-2.874-2.2-6.6a8.41 8.41 0 0 0-1.493-.156l-4.44.045-1.307-.022a11.93 11.93 0 0 0-1.556.112l-.353.96-1.825 6.142-1.162 3.864c0 .134.062.357.187.67.3.1.678.17 1.162.246l2.82.268c.152.134.228.253.228.357a1.36 1.36 0 0 1-.062.335l-1.43.022a76.59 76.59 0 0 1-3.858-.112l-1.452-.045-1.514.045-1.016.045c-.332 0-.76-.022-1.286-.067v-.134a1.53 1.53 0 0 1 .083-.424zm9.894-13.4l5.06.134 2.842-.112a15.74 15.74 0 0 0-.477-1.63l-1.493-4.288-1.887-5.16-.207-.402c-.083.18-.387.945-.913 2.3l-1.908 5.427-.56 1.73-.363 1.206a4.02 4.02 0 0 1-.218.704z"/></g><path d="M336.318 172.766c0 45.614-33.7 82.59-75.274 82.59s-75.274-36.977-75.274-82.59 33.7-82.59 75.274-82.59 75.274 36.977 75.274 82.59z" fill="#d5d6d8"/><path d="M257.286 96.246l2.204-6.054c1.015-.065 2.066-.02 3.11 0l2.204 6.054z" fill="#0a4fa2"/><path d="M261.05 250.172c20.65 0 39.225-9.756 52.116-25.302L208.922 120.66c12.895-15.537 31.475-25.3 52.13-25.3s39.228 9.758 52.112 25.31l-104.233 104.2c12.892 15.543 31.468 25.3 52.12 25.3z" fill="#deb308"/><path d="M271.736 157.363v1.945H250.29v-1.945h9.278v-27.59l-8.27-2.173 4.6-12.714-4.27.525 9.374-25.243 9.374 25.243-4.27-.525 4.6 12.714-8.27 2.173v27.59z" fill="#32b457"/><path d="M269.718 133.345l-8.705 2.98-8.705-2.98m17.4-2.307l-8.705 2.98-8.705-2.98" fill="none" stroke="#32b457" stroke-width="1.516"/><path d="M225.12 154.105l-4.34 20.76 4.34 21.278h-10.356l4.364-21.278-4.364-20.76z"/><use xlink:href="#B"/><use xlink:href="#B" x="11.74"/><use xlink:href="#B" y="45.195"/><use xlink:href="#B" x="11.74" y="45.195"/><path d="M198.91 170.027l20.764 4.34 21.283-4.34v10.354l-21.283-4.363-20.764 4.363z"/><use xlink:href="#C"/><use xlink:href="#C" y="-11.738"/><use xlink:href="#C" x="45.205"/><use xlink:href="#B" x="28.393" y="16.718"/><path d="M299.413 151.45h7.07v46.797h-7.07z"/><path d="M279.543 171.315h46.8v7.067h-46.8zm17.34-16.81h12.132v5.54h-12.132z"/><path d="M296.882 189.652h12.132v5.54h-12.132zM282.6 168.784h5.54v12.13h-5.54zm35.155 0h5.54v12.13h-5.54z"/><path d="M248.374 223.12h25.553v22.503s-.134 1.39-1.89 1.39h-5.214s-5.064-1.313-8.172-5.438-9.726-4.266-10.278-4.266v-14.2z" fill="#00aeef"/><path d="M253.315 226.907v13.496m5.215-13.496v16.746m5.215-16.715v19.745m5.215-19.776v20.745" stroke="#deb308" fill="none" stroke-width="1.516"/><path d="M249.5 220.893s-4.533 0-7.273-2.72-2.7-7.42-2.7-7.42h43.055s.05 4.7-2.7 7.42-7.273 2.72-7.273 2.72H249.5zm-13.245-17.236H286.1v5.273h-49.855z" fill="#00aeef"/><defs ><path id="B" d="M215.84 152.537c0 .932-.755 1.687-1.687 1.687s-1.687-.755-1.687-1.687.755-1.687 1.687-1.687 1.687.755 1.687 1.687z"/><path id="C" d="M199.028 180.993a1.69 1.69 0 0 1-1.687 1.687 1.69 1.69 0 0 1-1.687-1.687 1.69 1.69 0 0 1 1.687-1.687 1.69 1.69 0 0 1 1.687 1.687z"/></defs></svg>