<svg xmlns="http://www.w3.org/2000/svg" viewBox="0 0 512.001 512.001" xmlns:v="https://vecta.io/nano"><path d="M503.172 88.276H8.828A8.83 8.83 0 0 0 0 97.103v317.793a8.83 8.83 0 0 0 8.828 8.828h494.345a8.83 8.83 0 0 0 8.828-8.828V97.103a8.83 8.83 0 0 0-8.829-8.827z" fill="#ffd250"/><path d="M185.38 123.586v264.828a8.83 8.83 0 0 0 8.828 8.828H476.7a8.83 8.83 0 0 0 8.828-8.828V123.586a8.83 8.83 0 0 0-8.828-8.828H194.207a8.83 8.83 0 0 0-8.828 8.828z" fill="#963c3c"/><path d="M92.7 114.76H35.3a8.83 8.83 0 0 0-8.828 8.828v264.828a8.83 8.83 0 0 0 8.828 8.828H92.7V114.76z" fill="#5aa587"/><path d="M150.07 114.76H92.7v282.483h57.38a8.83 8.83 0 0 0 8.828-8.828V123.586a8.83 8.83 0 0 0-8.828-8.827z" fill="#ff7350"/><path d="M393.553 326.735c-.296-1.973 1.44-4.52 4.125-8.182l2.752-4.158c-.25-.018-.594.002-.85.015-1.485.072-3.732.174-5.695-2.005a4.14 4.14 0 0 1-1.066-3.09c.147-2.37 2.083-4.702 3.284-5.935-3.097-2.175-6.056-4.434-8.785-7.162-5.214-5.215-11.16-7.726-17.727-7.588-.608 6.53 2.758 10.826 6.35 15.347 1.06 1.33 2.114 2.66 3.073 4.05 4.725 6.84 3.737 20.05 3.138 21.448-.68 1.586-4.415 5.102-9.54 4.417-2.357-.3-5.07.483-6.78 1.977-.735.643-1.612 1.713-1.612 3.147 0 .072.006.435.118.502.7.416 3.262-.396 5.102-1.4.508-.277 1.14-.195 1.568.203 3.623 3.392 7.26.46 7.66.116.497-.425 1.23-.44 1.736-.032 3.708 2.988 7.573-.278 7.736-.42a1.36 1.36 0 0 1 1.628-.109c1.6 1.055 3.08 1.356 4.393.906 1.146-.398 1.754-1.26 1.825-1.468.033-.548-.703-3.375-1.2-5.247-.512-1.965-1.04-3.995-1.243-5.342zm40.154-125.07c-1.117-.085-1.926.157-2.48.705-1.015 1.003-.932 2.8-.93 2.828.02.402-.138.794-.43 1.068s-.693.413-1.095.354c-2.008-.263-4.978-2.382-10.488-6.42-8.755-6.417-21.987-16.115-34.6-17.7-14.674-1.864-27.733 2.817-31.05 11.113-3.694 9.236 4.157 17.65 4.236 17.736.4.423.487 1.054.213 1.567-2.07 3.9-.502 6.778.9 8.355.443-1.302 1.105-2.2 2.017-2.738 2.202-1.316 5.078-.227 9.055 1.28 2.35.888 5.013 1.896 8.12 2.657 7.964 1.952 17.677.212 26.248-1.323 3.03-.543 5.95-1.064 8.666-1.4 6.835-.87 13.687 2.158 15.57 6.906.913 2.3 1.4 6.915-5.58 11.993-12.556 9.133-69.815 4.918-73.188 4.66a12.22 12.22 0 0 1-.307.024c1.252 1.406 2.72 2.777 3.36 2.948.652.174 1.077.802.994 1.473a1.35 1.35 0 0 1-1.322 1.187l-5.866.1.54 5.645a1.35 1.35 0 0 1-.422 1.113c-.305.287-.727.407-1.137.352-.23-.038-5.293-.847-8.793-2.793l-6.625 4.18a1.35 1.35 0 0 1-.723.207 1.32 1.32 0 0 1-.435-.072c-.387-.132-.694-.43-.835-.814l-2.528-6.873-2.997 5.996a1.35 1.35 0 0 1-1.145.747c-.487.05-.95-.216-1.213-.632l-2.57-4.095c-1.175 1.468-3.06 3.605-4.986 4.94a1.35 1.35 0 0 1-1.207.17c-.41-.137-.724-.463-.853-.872l-1.346-4.25c-1.2 1.506-2.914 3.502-4.738 5-.4.324-.93.4-1.397.195a1.35 1.35 0 0 1-.81-1.154l-.434-6.83c-1.542.786-3.64 1.8-4.804 2.173-.53.166-1.112-.01-1.46-.446a1.35 1.35 0 0 1-.116-1.521c2.087-3.624 4.002-8.15 4.148-10.4-1.384 1.657-3.32 3.243-5.486 5.004-4.606 3.75-10.337 8.413-14.556 16.576-2.946 5.705-5.062 15.657-1.33 24.935 3.185 7.915 10.04 13.82 20.308 17.615-.343-1.498-.607-2.97-.634-4.353-.134-7.028 1.325-13.443 1.388-13.713.168-.73.892-1.2 1.62-1.013a1.35 1.35 0 0 1 1.015 1.62c-.014.063-1.444 6.37-1.318 13.053.063 3.27 1.47 7.307 2.83 11.2 1.806 5.188 3.676 10.552 2.863 15.066-1.107 6.136-8.746 7.692-15.838 6.508-2.016-.34-3.85.16-5.167 1.388-1.337 1.247-2.023 3.16-1.834 5.115.1.92.434 1.107.546 1.17.853.46 2.86-.166 3.945-.733.546-.287 1.22-.17 1.64.298 2.844 3.186 6.674.007 6.835-.132.55-.463 1.37-.42 1.863.106 1.07 1.142 2.206 1.7 3.47 1.74 2.3.14 4.502-1.916 4.524-1.933.4-.4 1-.5 1.505-.26 4.463 2.043 6.805.856 6.9.8 3.873-3.302 1.635-11.137 1.612-11.217a1.34 1.34 0 0 1 .13-1.064 1.36 1.36 0 0 1 .865-.636c5.425-1.244 8.457-4.725 9.923-7.033-2.68-.026-4.8-.966-6.065-2.926-2.02-3.165-1.05-7.93 2.474-12.14 6.03-7.204 9.715-21.784 9.162-27.722-.068-.744.48-1.402 1.223-1.473.724-.074 1.402.48 1.473 1.223.483 5.2-1.862 15.988-6.142 24.122 5.422-1.5 10.37-3.695 15.534-6.05 5.132-2.342 10.44-4.762 16.82-6.76 10.78-3.375 20.3-1.036 28.274 6.95 3.868 3.868 8.1 6.7 12.98 9.983l6.7 4.6c6.285 4.524 6.174 8.302 6.056 12.3-.035 1.22-.074 2.48.063 3.844.65 6.495-4.515 7.522-6.998 8.015-.34.067-.66.13-.937.2a29.21 29.21 0 0 1-1.234.268c-2.52.5-6.33 1.284-7.266 4.5-.17.578-.104.78-.104.78.398.18 2.462-.287 4.105-1.034a1.35 1.35 0 0 1 1.096-.012 1.36 1.36 0 0 1 .747.803c.48 1.405 1.226 1.644 1.47 1.724 1.704.532 4.5-1.036 5.332-1.633.523-.37 1.228-.33 1.7.103 1.397 1.276 2.7 1.837 3.85 1.68 1.554-.216 2.497-1.68 2.507-1.695a1.36 1.36 0 0 1 1.028-.636 1.41 1.41 0 0 1 1.128.442c.003.006 1.187 1.255 3.6 2.02 1.6.497 2-.076 2.12-.266.67-.98.43-3.48-.88-5.115-1.716-2.146-2.513-5.4-2.03-8.312.444-2.673 1.886-4.852 4.165-6.304 4.178-2.66 5.132-5.524 4.865-6.07-.077-.038-.53-.097-.894-.145-1.864-.247-4.984-.66-8.193-6.584-2.834-5.23-.092-13.508 3.082-23.097 1.6-4.857 3.274-9.882 4.3-14.8 2.84-13.632-6.086-24.456-6.176-24.563-.46-.55-.414-1.365.1-1.857 6.265-5.878 8.96-11.327 8.002-16.195-.995-5.076-5.9-8.625-9.817-10.12-4.868-1.866-13.75-.806-22.343.216-7.18.853-13.966 1.662-18.347.747-2.257-.474-3.9-1.544-4.913-3.18-.826-1.348-1.028-2.825-1.02-3.977-2.176.818-3.646 2.834-3.663 2.858-.248.348-.65.558-1.075.566-.534-.02-.836-.186-1.096-.523-1.107-1.43-1.553-3-1.32-4.694.298-2.178 1.704-4.05 2.856-5.26-5.037-1.77-8.898 2.453-9.076 2.654a1.37 1.37 0 0 1-1.721.256c-2.43-1.494-3.936-4.426-3.84-7.47.092-2.873 1.574-5.282 4.065-6.605 1.707-.906 3.345-1.073 4.863-.5 1.444.544 2.457 1.668 3.095 2.622 1.843-2.102 1.998-5.73 1.998-5.772a1.35 1.35 0 0 1 .43-.953c.265-.247.632-.402.98-.363 3.204.132 5.693 1.3 7.393 3.44 2.324 2.94 2.542 7.025 2.406 9.554 5.12-2.613 4.47-8.644 4.437-8.926-.054-.466.134-.925.5-1.217a1.34 1.34 0 0 1 1.297-.218c5.432 1.917 7.4 6.76 7.874 10.366a5.13 5.13 0 0 0 1.561-3.375c0-.618.42-1.158 1.018-1.3.605-.15 1.226.12 1.523.662 2.095 3.83 5.3 6.215 7.63 7.548l-1.6-3.903c-.218-.53-.08-1.138.343-1.52s1.048-.458 1.55-.186c2.68 1.443 4.803 3.076 7.05 4.807 2.7 2.087 5.513 4.243 9.46 6.098 3.855 1.813 6.455 1.468 7.95.862 1.55-.626 2.436-1.73 2.724-2.486.544-1.43.703-3.48-.17-4.842-.562-.88-1.512-1.365-2.824-1.452zM273.95 221.122c.118.038 10.236 3.23 19.422 3.778a1.35 1.35 0 0 1 1.155.802 1.36 1.36 0 0 1-.18 1.397l-.32.4c1.822-.273 4.114-.526 6.362-.535l-3.243-3.95c-2.457-.045-11.446-.436-18.762-3.96-1.777-.862-4.85-2.35-6.3-1.597-.252.13-.668.74-.6 1.5.1.95.968 1.725 2.477 2.18zm30.486-19.558c-.14 0-.27.015-.382.05-.6.177-.9.844-.97 1.364-.098.666.07 1.56.844 2.078 1 .67 2.1.212 2.705-.395.194-.2 1.122-1.182.437-2.268v-.003c-1.057-.487-1.984-.826-2.633-.826zm-13.28 32.622c.655 1.562 1.672 2.773 2.513 3.585.32-.7.806-1.408 1.544-1.946.722-.526 1.974-1.04 3.808-.657.03.002.054.008.083.01.053.012.094.007.148.02.047.01.077.05.124.062.065.023.134.025.196.06.047.025.076.068.118.098.7.294 1.266.766 1.57 1.48 1.025 2.392-.78 7.036-2.37 10.34l2.784-1.432a1.35 1.35 0 0 1 1.99 1.106l.382 6.036c2.116-2.23 3.783-4.653 3.804-4.685.292-.428.798-.643 1.314-.575a1.35 1.35 0 0 1 1.092.93l1.544 4.875c2.16-1.987 4.044-4.648 4.066-4.682.263-.37.7-.567 1.142-.575a1.36 1.36 0 0 1 1.112.634l2.327 3.7 3.32-6.64c.242-.484.697-.8 1.287-.747.54.03 1.007.377 1.195.885l3.03 8.24 5.914-3.732c.448-.286 1.016-.278 1.464.014 1.93 1.263 4.893 2.078 6.76 2.497l-.505-5.297a1.35 1.35 0 0 1 1.327-1.481l3.384-.05a29.65 29.65 0 0 1-1.816-2.025c-.22-.268-.308-.597-.294-.92-2.493-.106-5.967-.55-9.44-2.05l-2.067 3.188c-.198.305-.508.516-.863.588a1.24 1.24 0 0 1-.271.029 1.36 1.36 0 0 1-.754-.23l-7.816-5.244-1.436 3.9a1.35 1.35 0 0 1-1.025.863 1.34 1.34 0 0 1-1.265-.44c-1.343-1.54-3.452-3.9-4.706-5.196-1.13 1.1-3.112 2.846-5.23 4.022-.345.192-.758.222-1.126.086a1.35 1.35 0 0 1-.8-.797l-2.143-5.75c-.26-.7.095-1.48.797-1.74a1.36 1.36 0 0 1 1.741.797l1.562 4.195c2.268-1.575 4.16-3.603 4.183-3.628.483-.52 1.287-.582 1.837-.138.788.63 2.926 2.986 4.42 4.66l1.246-3.393c.142-.4.458-.693.853-.82.4-.136.826-.072 1.172.162l8.105 5.438 1.96-3.02c.377-.582 1.13-.785 1.74-.474 3.598 1.8 7.482 2.234 9.962 2.3-1.513-2.827-1.646-6.4-1.655-7.253a30.3 30.3 0 0 1-7.02-4.303l-.974 2.407a1.35 1.35 0 0 1-2.049.586l-3.9-2.837-.38 2.93a1.35 1.35 0 0 1-.758 1.045c-.4.198-.895.178-1.288-.063-.136-.08-3.353-2.047-5.27-4.204a1.353 1.353 0 1 1 2.023-1.797c.8.9 1.945 1.816 2.9 2.502l.393-3.018c.062-.474.37-.88.807-1.068a1.36 1.36 0 0 1 1.33.147l4.352 3.157 1.042-2.57c.168-.413.53-.717.966-.812a1.35 1.35 0 0 1 1.216.337c3.374 3.175 7.025 4.9 9.295 5.73-.776-3.612-1.07-8.142-1.086-8.38-.002-.034.013-.063.013-.096-2.1-1.163-5.1-3.167-7.667-6.316-.012 1.668-.148 3.366-.557 4.438a1.35 1.35 0 0 1-.807.793c-.372.133-.786.095-1.125-.097-.163-.094-3.108-1.784-5.3-4.254-.378 1.36-.833 2.794-1.216 3.434-.366.606-1.13.83-1.766.514a21.51 21.51 0 0 1-4.05-2.72c-.18 1.802-.458 3.838-.854 4.83a1.34 1.34 0 0 1-.798.77c-.365.125-.767.097-1.107-.086-.124-.067-2.472-1.355-4.665-2.988l-.594 2.257a1.36 1.36 0 0 1-.729.879 1.37 1.37 0 0 1-1.14.009c-.163-.074-4.033-1.854-6.237-4.547a1.352 1.352 0 0 1 2.092-1.712c1.054 1.287 2.666 2.363 3.83 3.038l.694-2.637a1.35 1.35 0 0 1 .924-.953 1.34 1.34 0 0 1 1.293.295c1.293 1.17 3.043 2.32 4.287 3.083.265-1.67.47-4.086.558-5.652.035-.605.466-1.113 1.055-1.244a1.35 1.35 0 0 1 1.485.675c.744 1.37 2.532 2.705 3.88 3.55.37-1.158.826-2.865 1.17-4.338a1.35 1.35 0 0 1 1.186-1.039c.578-.072 1.128.26 1.365.8.845 1.873 2.893 3.585 4.355 4.633.16-1.973.012-4.777-.17-6.53-.067-.652.342-1.258.97-1.44.643-.174 1.3.116 1.6.702 2.722 5.52 7.535 8.58 10.04 9.865 1.365-14.934-3.012-20.648-3.06-20.706a1.37 1.37 0 0 1-.275-1.1c.073-.388.308-.726.65-.924 2.43-1.407 3.906-3.977 4.8-6.47-5.502 5.334-14.22 7.383-18.465 8.092l2.073 2.527c.316.386.395.915.204 1.376a1.35 1.35 0 0 1-1.117.828c-5.203.52-9-.17-11.556-1.03l.885 1.633a1.35 1.35 0 0 1-.042 1.362c-.257.414-.73.693-1.205.634-4.24-.18-7.948-1.928-10.996-3.47-.145.995-.636 1.964-1.453 2.763-1 .977-2.274 1.482-3.537 1.482a4.59 4.59 0 0 1-2.56-.774c-1.53-1.02-2.303-2.834-2.02-4.73.263-1.742 1.362-3.104 2.87-3.555 2.017-.6 4.32.567 7.233 2.05 2.312 1.178 5.07 2.58 8.075 3.2l-1.675-3.094c-.312-.576-.168-1.3.343-1.702a1.36 1.36 0 0 1 1.736.038c.03.026 3.398 2.793 11.042 2.65l-1.928-2.35c-.317-.386-.395-.918-.203-1.38a1.36 1.36 0 0 1 1.124-.826c.146-.013 11.25-1.14 18.083-6.645-2.225.65-3.947.548-4.08.546a1.35 1.35 0 0 1-.954-.508c-3.13-3.933-6.333-5.15-7.948-5.525-.907 2.858-3.103 5.17-3.2 5.282-.3.3-.705.45-1.117.408a1.36 1.36 0 0 1-1.01-.632c-2.414-3.9-5.894-4.914-7.916-5.167.248 2.876-1.762 5.238-3.1 6.22a1.36 1.36 0 0 1-1.704-.081c-5.807-5.2-10.292-3.655-12.106-2.618.573 1.423.303 2.586-.085 3.372-2.773 5.62-19.927 6.75-23.338 6.918a1.34 1.34 0 0 1-1.12-.5c-.273-.337-.366-.782-.256-1.2.25-.936.083-1.945-.47-2.847-.564-.92-1.468-1.592-2.415-1.795-.892-.2-2.593-.067-3.6 1.048-1.163 1.28-1.242 3.644-.23 6.84 1.816 5.74 7.4 11.393 10.894 14.492a14.52 14.52 0 0 1-.003-1.37 1.35 1.35 0 0 1 .98-1.231c.558-.163 1.15.05 1.482.526 1.154 1.658 2.53 2.778 3.564 3.464l.68-4.33c.095-.6.576-1.063 1.178-1.134.6-.05 1.178.268 1.4.83 1.226 2.978 8.988 12.3 11.875 15.642a1.35 1.35 0 0 1 .163 1.533c-.27.493-.82.76-1.38.7-4.946-.705-12.212.94-12.284.957a1.35 1.35 0 0 1-1.358-2.167l1-1.246c-6.867-.714-13.553-2.52-16.256-3.3l-2.27 6.17 6.12-.6c.46-.058.936.156 1.217.537a1.35 1.35 0 0 1 .169 1.322l-1.154 2.82 5.04-1.334c.668-.185 1.353.172 1.606.8.668 1.692 1.487 2.803 2.14 3.492l1.42-3.14c.224-.5.712-.832 1.252-.794a1.34 1.34 0 0 1 1.224.826zm-17.525 69.197c5.337 3.564 9.65-.502 11.956-3.633-4.917-3.587-8.497-8-10.6-13.255-.7-1.717-1.14-3.453-1.5-5.186-.502-.394-7.927-6.275-14.146-13.15-.318.83-.735 1.487-1.073 1.932.437 1.777.012 3.228-.535 4.158.377 1.267.074 2.524-.365 3.44.94 1.42 1.112 2.8.5 4.146-.138.306-.324.588-.518.865.774.934 2 3.072 2 7.374 0 2.893 1.07 4.63 1.87 5.52.467-.404.978-.63 1.54-.7 1.707-.2 3.1 1.27 5.026 3.284 1.5 1.58 3.368 3.543 5.845 5.194zm-26.547-36.685c-.1 0-.2-.002-.3-.002-1.946-.018-3.725-.212-5.364-.527-.158.452.178 1.766.53 2.036.345.265.576.703.564 1.138s-.2.86-.558 1.105c-.23.162-.918.776-.927 1.374-.01.584.68 1.187 1.092 1.497a1.35 1.35 0 0 1 .206 1.974c-.174.206-.67.96-.585 1.6.018.134.074.543.78 1.022a1.36 1.36 0 0 1 .575.897c.06.365-.032.738-.254 1.034.002 0-.378.555-.233 1.107.162.6.924 1.08 1.532 1.367 1.14.536 2.778.88 4.487.948.052-.01.105-.001.158-.003 1.44.042 2.92-.098 4.182-.564 1.24-.457 2.06-1.12 2.444-1.97.12-.265.37-.815-.696-2.058-.416-.487-.435-1.195-.047-1.704.002-.003.904-1.244.348-2.234a1.35 1.35 0 0 1 .222-1.62c.08-.088.92-1.077.254-2.852a1.35 1.35 0 0 1 .34-1.461c.05-.05 1.273-1.323 1.246-3.26l-.493-.608c-2.62 1.1-5.832 1.773-9.5 1.773zm12.378-94.323c-5.472 2.943-17.142 12.17-17.48 37.43l.3 42.568c.036.06.088.12.118.18.706 1.332.372 3.06-.024 4.255 3.38 1.208 7.597.712 9.404.265-.36-1.055-.646-2.76.577-4.7-.2-50.764 4.65-72.36 7.103-80.007zm.563 85.3c0-2.164-1.632-3.848-3.245-4.394-.334-.115-1.473-.43-1.995.254-.978 1.28-.63 2.183-.298 3.06.186.487.378 1 .234 1.563-.183.733-.85 1.034-1.07 1.134-1.836.833-8.817 1.926-13.64-.564a1.36 1.36 0 0 1-.594-1.801c.5-1.043.88-2.574.596-3.106-.023-.044-.086-.165-.467-.216-.36-.05-.718-.074-1.073-.074-1.647 0-3.175.518-4 1.402-.664.712-.872 1.618-.634 2.767.802 3.873 5.65 6.223 12.97 6.3 5.178-.018 9.632-1.24 11.855-3.445.906-.895 1.363-1.86 1.363-2.87zm-11.648 32.105c.313-.413.83-.6 1.34-.505.94.197 3.28.693 4.62-.348.47-.36.575-1.34.215-1.98-.124-.22-.5-.885-1.908-.345-1.334.514-3.25 1.07-4.452-.01-.24-.216-.393-.47-.5-.728l-1.077-.105a2.09 2.09 0 0 1-.546.833c-1.198 1.08-3.115.525-4.45.01-1.405-.534-1.786.125-1.908.345-.36.64-.256 1.62.212 1.978 1.344 1.036 3.684.546 4.452.384.5-.1 1.1.072 1.43.48s.45.95.218 1.415c-.305.6-1.63 3.2-2.925 4.818 1.692 2.474 3.157 6.883-.275 10.806-.28.317-.715.476-1.12.458a1.35 1.35 0 0 1-1.037-.618c-.195-.296-.883-1.117-1.642-1.265-.23-.044-.6-.062-1.116.296-.354.245-.553 1.055-.254 1.942.534 1.586 2.194 2.466 4.535 2.357.532-.053 1.108.313 1.323.85a1.35 1.35 0 0 1-.377 1.527l-2.206 1.892 3.602.877c.478.116.854.483.985.957.006.023.544 1.942 1.62 3.56 1.075-1.62 1.614-3.538 1.62-3.56.13-.474.508-.84.985-.957l3.602-.877-2.208-1.892a1.34 1.34 0 0 1-.377-1.527c.223-.527.75-.898 1.323-.85 2.314.103 4-.77 4.537-2.36.3-.885.1-1.695-.254-1.94-.532-.36-.898-.343-1.124-.295-.785.16-1.5 1.037-1.635 1.263a1.35 1.35 0 0 1-1.037.618c-.44.023-.84-.138-1.12-.458-3.43-3.922-1.964-8.332-.273-10.806-1.295-1.618-2.62-4.207-2.925-4.818-.232-.46-.18-1.013.134-1.423z" fill="#ffd250"/><path d="M438.807 201.65c-.723-1.126-2.164-2.504-4.925-2.684-1.92-.138-3.457.378-4.576 1.497-.9.897-1.334 2.008-1.54 2.947-1.846-.97-4.8-3.135-7.884-5.395-8.98-6.582-22.552-16.53-35.873-18.214-10.804-1.373-23.093.782-29.85 7.052.102-.83.132-1.384.136-1.48.001-.018-.014-.03-.014-.05.002-.253-.068-.49-.196-.7-.028-.045-.057-.08-.1-.12-.15-.195-.338-.363-.586-.455l-.016-.01c-.255-.09-.512-.075-.757-.017-.047.01-.088.02-.134.034-.236.083-.444.222-.604.422-.01.013-.03.014-.04.028a10.55 10.55 0 0 1-8.078 4.311c-5.067-6.017-10.422-6.204-10.653-6.21-.776.05-1.27.48-1.37 1.154-.212 1.43-1.043 2.844-1.746 3.826-4.465-5.55-10.75-4.995-11.03-4.972-.435.042-.82.292-1.04.67a1.36 1.36 0 0 0-.059 1.235c.806 1.772-.17 3.316-.95 4.174-8.8-7.044-15.554-1.305-15.625-1.242-.516.452-.613 1.222-.222 1.786.655.95.54 1.474.365 1.828-1.422 2.882-11.74 4.762-19.467 5.314-.04-1.087-.372-2.17-.978-3.16-.96-1.565-2.474-2.667-4.157-3.03-1.87-.407-4.503.023-6.18 1.875-1.875 2.06-2.144 5.25-.806 9.48 2.092 6.607 8.372 12.823 12.035 16.022-.892-.33-1.777-.7-2.634-1.102-2.156-1.05-5.767-2.807-8.435-1.42-1.346.696-2.208 2.44-2.05 4.142.08.853.556 2.77 3.053 3.994l-3.004 8.16c-.16.437-.085.927.2 1.295s.738.57 1.204.518l6.033-.602-1.33 3.254c-.194.476-.103 1.02.236 1.406a1.33 1.33 0 0 0 1.364.414l6.55-1.734c1.692 3.475 3.948 4.69 4.054 4.745.333.177.717.203 1.068.08s.64-.382.793-.72l1.043-2.3a14.55 14.55 0 0 0 2.974 3.072l-1.35 1.1c-4.547 3.7-10.774 8.77-15.25 17.434-2.248 4.35-4 10.99-3.476 18.05-3.26-2.74-9.406-8.175-13.93-13.738.545-.372 1.124-.723 1.562-1.155 1.415-1.4 2.162-3.06 2.162-4.79 0-3.598-2.636-6.13-5.084-6.958-.91-.307-1.788-.353-2.586-.217-.08-58.98 6.638-77.035 8.002-80.076.215-.48.132-1.045-.215-1.443s-.895-.557-1.4-.408c-.886.26-21.713 6.766-22.172 41.226l.3 41.112c-2.827-.298-5.51.506-7.074 2.175-.888.95-1.834 2.616-1.308 5.166.7 3.383 3.43 5.88 7.618 7.252-.115.444-.154.946-.098 1.508.065.66.27 1.48.653 2.188-.51.61-1.013 1.48-1.04 2.553-.024 1.034.387 2.005 1.226 2.894-.33.668-.62 1.57-.493 2.572.077.596.328 1.387 1.034 2.152-.2.6-.322 1.362-.11 2.21.217.877.762 1.63 1.57 2.275-2.072-.384-3.528.55-4.21 1.767-1.024 1.825-.61 4.27.924 5.45 1.25.96 2.734 1.267 4.087 1.196-.69 1.166-1.417 2.244-1.875 2.602-.298.23-.487.575-.518.95s.092.747.345 1.027c.14.156 3.092 3.48 1.335 6.936-.543-.446-1.246-.863-2.082-1.033-1.087-.22-2.187.03-3.188.717-1.43.98-1.96 3.05-1.3 5.035.513 1.52 1.792 3.08 3.975 3.8l-1.9 1.628c-.386.33-.553.85-.435 1.343a1.35 1.35 0 0 0 .995.999l5.43 1.323c.416 1.193 1.367 3.496 2.956 5.085.254.254.736.396 1.096.396a1.35 1.35 0 0 0 .957-.396c1.59-1.59 2.54-3.892 2.956-5.085l5.43-1.323a1.35 1.35 0 0 0 .995-.999c.118-.495-.05-1.013-.435-1.343l-1.9-1.628c2.182-.72 3.463-2.28 3.975-3.8.67-1.986.14-4.057-1.3-5.035-1.003-.69-2.11-.936-3.19-.717-.835.17-1.536.585-2.08 1.03-1.728-3.436 1.198-6.782 1.34-6.938.25-.28.374-.652.34-1.025s-.22-.718-.516-.948c-.457-.356-1.182-1.432-1.87-2.598 1.352.012 2.83-.234 4.083-1.202.275-.21.47-.5.67-.782.096 5.94 3.86 8.29 4.023 8.388a1.35 1.35 0 0 0 1.85-.457c.32-.52.51-.62.505-.626.476.026 1.81 1.432 2.787 2.457 1.592 1.675 3.576 3.762 6.304 5.58 2 1.334 3.89 1.86 5.625 1.86 4.872 0 8.52-4.11 10.078-6.223 3.034 1.903 6.474 3.555 10.396 4.895.134.046.27.064.405.067a132.97 132.97 0 0 0 1.507 4.564c1.693 4.857 3.443 9.88 2.755 13.695-.89 4.943-8.7 4.993-12.73 4.317-2.86-.466-5.513.266-7.46 2.08s-2.95 4.567-2.678 7.354c.19 1.947 1.164 2.863 1.95 3.288 1.806.97 4.248.245 5.575-.298 3.047 2.654 6.69 1.54 8.896.138 1.356 1.133 2.868 1.727 4.505 1.763a4.35 4.35 0 0 0 .162.002c2.474 0 4.555-1.302 5.596-2.1 5.24 2.12 8.238.54 8.763.215 4.255-3.6 3.555-10.04 3-12.846 8.745-2.648 11.563-10.248 11.685-10.585a1.36 1.36 0 0 0-.278-1.374c-.343-.37-.867-.518-1.348-.39-2.696.724-4.825.23-5.84-1.356-1.373-2.147-.483-5.66 2.268-8.947.577-.7 1.123-1.453 1.657-2.248 6.758-1.51 12.53-4.14 18.64-6.926 5.058-2.306 10.3-4.692 16.508-6.64 1.743-.547 3.437-.868 5.107-1.085-.505 7.33 3.255 12.16 6.948 16.808 1.02 1.282 2.04 2.563 2.964 3.9 3.96 5.735 3.2 17.76 2.88 18.844-.28.617-2.935 3.32-6.697 2.803-3.126-.416-6.625.614-8.92 2.622-1.636 1.432-2.537 3.274-2.537 5.184 0 1.628.782 2.436 1.44 2.828 1.96 1.164 5.203-.08 6.94-.913 1.624 1.255 3.292 1.718 4.833 1.718 1.917 0 3.64-.714 4.85-1.506 3.628 2.292 7.428.95 9.546-.495 2.654 1.44 4.787 1.155 6.162.614a6.31 6.31 0 0 0 1.226-.647c.055.057.105.134.16.18 1.44 1.24 4.104.58 5.81-.04.776 1.284 1.802 1.863 2.613 2.12 2.506.798 5.383-.575 6.83-1.432 1.757 1.358 3.502 1.93 5.246 1.684 1.538-.213 2.698-1.04 3.445-1.763.797.573 2.007 1.28 3.64 1.795.72.23 1.355.322 1.91.322 1.886 0 2.87-1.075 3.256-1.636 1.565-2.285.75-6.154-.998-8.338-1.03-1.288-1.887-3.7-1.474-6.177.22-1.322.91-3.168 2.947-4.465 3.676-2.338 6.088-5.504 6.144-8.063.024-1.057-.377-1.93-1.133-2.457-.667-.467-1.414-.566-2.137-.66-1.6-.213-3.616-.478-6.168-5.19-2.274-4.2.42-12.34 3.274-20.957 1.632-4.93 3.32-10.03 4.378-15.108 2.618-12.57-3.693-22.696-5.978-25.85 6.355-6.25 9.02-12.25 7.922-17.842-1.208-6.162-6.953-10.383-11.503-12.126-5.5-2.108-14.72-1.012-23.633.056-6.95.832-13.523 1.62-17.47.785-1.492-.312-2.553-.96-3.153-1.928-1.043-1.683-.484-3.895-.48-3.918a1.36 1.36 0 0 0-.254-1.193c-.27-.333-.714-.546-1.108-.505-2.593.104-4.66 1.55-5.935 2.742-.074-.363-.086-.736-.033-1.122.35-2.6 3.346-4.874 3.375-4.896.358-.27.562-.7.54-1.15a1.35 1.35 0 0 0-.647-1.09c-5.512-3.357-10.658-.87-13.292 1.464-1.113-1.1-1.784-2.758-1.732-4.437.033-1.103.423-3.13 2.627-4.3.997-.53 1.854-.647 2.63-.36 1.3.484 2.164 2.082 2.388 2.66.142.37.443.66.815.79a1.33 1.33 0 0 0 1.13-.106c3.017-1.76 3.982-5.457 4.288-7.508 1.774.29 3.127 1.042 4.1 2.282 2.758 3.478 1.63 9.604 1.62 9.666-.088.458.067.928.407 1.246a1.36 1.36 0 0 0 1.272.317c6.124-1.64 8.084-6.614 8.386-10.3 4.683 2.916 4.364 8.947 4.346 9.23-.03.466.18.915.558 1.186a1.36 1.36 0 0 0 1.3.159c2.24-.91 3.48-2.388 4.17-3.753 4.263 5.6 10.19 7.53 10.473 7.623.502.153 1.048.014 1.406-.374s.457-.946.256-1.432l-1.323-3.207c1.077.76 2.114 1.558 3.18 2.38 2.826 2.174 5.746 4.423 9.96 6.403 4.738 2.226 8.114 1.727 10.12.924 2-.81 3.584-2.317 4.24-4.035.764-2 1.052-4.963-.425-7.262zm-2.105 6.304c-.287.756-1.173 1.86-2.724 2.486-1.496.606-4.096.95-7.95-.862-3.948-1.855-6.752-4.012-9.46-6.098-2.247-1.73-4.37-3.363-7.05-4.807-.5-.27-1.122-.198-1.55.186a1.35 1.35 0 0 0-.343 1.521l1.6 3.903c-2.338-1.334-5.534-3.718-7.63-7.548a1.35 1.35 0 0 0-1.523-.662c-.6.153-1.018.693-1.018 1.31a5.13 5.13 0 0 1-1.561 3.375c-.466-3.605-2.442-8.448-7.874-10.366a1.34 1.34 0 0 0-1.297.218 1.36 1.36 0 0 0-.499 1.217c.033.28.682 6.313-4.437 8.926.138-2.528-.08-6.613-2.406-9.554-1.7-2.15-4.188-3.307-7.393-3.44-.348-.04-.715.116-.98.363s-.42.6-.43.953c0 .042-.156 3.67-1.998 5.772-.638-.953-1.65-2.078-3.095-2.622-1.518-.573-3.156-.405-4.863.5-2.492 1.323-3.974 3.732-4.065 6.605-.095 3.043 1.41 5.975 3.84 7.47.557.337 1.28.233 1.72-.256.178-.2 4.04-4.423 9.076-2.654-1.152 1.208-2.558 3.082-2.856 5.26-.233 1.684.213 3.263 1.32 4.694.26.337.562.502 1.096.523.426-.007.826-.218 1.075-.566.018-.024 1.487-2.04 3.663-2.858-.01 1.152.194 2.628 1.02 3.977 1.003 1.635 2.655 2.705 4.913 3.18 4.38.915 11.167.106 18.347-.747 8.593-1.022 17.475-2.082 22.343-.216 3.906 1.496 8.822 5.044 9.817 10.12.957 4.868-1.737 10.318-8.002 16.195-.525.49-.573 1.308-.11 1.857.09.107 9.016 10.93 6.176 24.563-1.025 4.928-2.69 9.953-4.3 14.8-3.174 9.588-5.914 17.868-3.082 23.097 3.21 5.926 6.33 6.337 8.193 6.584.363.047.815.107.894.145.268.546-.687 3.41-4.865 6.07a9.04 9.04 0 0 0-4.165 6.304c-.483 2.903.313 6.167 2.03 8.312 1.31 1.635 1.55 4.136.88 5.114-.132.2-.532.763-2.12.266-2.423-.767-3.607-2.016-3.6-2.02-.286-.313-.697-.466-1.128-.443a1.35 1.35 0 0 0-1.028.636c-.01.015-.953 1.48-2.507 1.695-1.16.157-2.453-.405-3.85-1.68a1.36 1.36 0 0 0-1.7-.103c-.84.597-3.628 2.165-5.332 1.633-.245-.08-.992-.32-1.47-1.724-.125-.36-.396-.653-.747-.803a1.35 1.35 0 0 0-1.096.012c-1.644.747-3.708 1.216-4.105 1.036 0 0-.065-.204.104-.782.936-3.227 4.745-4 7.266-4.51l1.234-.268c.278-.068.597-.132.937-.2 2.483-.493 7.647-1.52 6.998-8.015-.138-1.365-.098-2.625-.063-3.844.118-4 .23-7.777-6.056-12.3-2.318-1.67-4.553-3.17-6.7-4.61-4.89-3.283-9.112-6.115-12.98-9.983-7.983-7.987-17.492-10.327-28.274-6.95-6.378 1.998-11.687 4.42-16.82 6.76-5.163 2.356-10.112 4.55-15.534 6.05 4.28-8.135 6.624-18.922 6.142-24.122-.07-.744-.75-1.297-1.473-1.223-.744.07-1.29.73-1.223 1.473.553 5.938-3.133 20.518-9.162 27.722-3.523 4.21-4.494 8.977-2.474 12.14 1.255 1.96 3.384 2.9 6.065 2.926-1.465 2.308-4.5 5.8-9.923 7.033a1.36 1.36 0 0 0-.865.636c-.19.32-.236.706-.13 1.064.023.08 2.26 7.915-1.612 11.217-.097.056-2.44 1.242-6.9-.8-.505-.23-1.105-.13-1.505.26-.023.018-2.215 2.073-4.524 1.933-1.263-.03-2.398-.597-3.47-1.74-.493-.526-1.313-.57-1.863-.106-.16.14-3.99 3.318-6.835.132-.417-.467-1.092-.585-1.64-.298-1.086.567-3.092 1.195-3.945.733-.113-.062-.457-.247-.546-1.17-.19-1.955.497-3.868 1.834-5.115 1.318-1.23 3.153-1.727 5.167-1.388 7.092 1.184 14.73-.372 15.838-6.508.812-4.514-1.057-9.877-2.863-15.066-1.36-3.903-2.766-7.94-2.83-11.21-.127-6.68 1.304-12.99 1.318-13.053a1.35 1.35 0 0 0-1.015-1.621c-.73-.177-1.453.284-1.62 1.013-.063.27-1.523 6.685-1.388 13.713.028 1.383.3 2.855.634 4.353-10.27-3.794-17.123-9.7-20.308-17.615-3.732-9.278-1.615-19.23 1.33-24.935 4.218-8.163 9.95-12.826 14.556-16.576 2.165-1.76 4.103-3.347 5.486-5.004-.146 2.25-2.06 6.775-4.148 10.4a1.35 1.35 0 0 0 .116 1.521c.348.435.93.61 1.46.446 1.163-.363 3.263-1.387 4.804-2.173l.434 6.83c.032.505.345.95.8 1.154s1.007.13 1.397-.195c1.824-1.496 3.546-3.492 4.738-5l1.346 4.25c.13.408.446.733.853.872a1.35 1.35 0 0 0 1.207-.169c1.928-1.334 3.81-3.47 4.987-4.94l2.57 4.095c.26.416.726.684 1.213.632a1.35 1.35 0 0 0 1.145-.747l2.997-5.996 2.528 6.873c.14.384.448.682.835.814a1.3 1.3 0 0 0 .435.072c.252 0 .504-.07.723-.207l6.625-4.18c3.5 1.945 8.565 2.755 8.793 2.793.408.054.832-.065 1.137-.352s.46-.697.422-1.113l-.54-5.645 5.866-.09c.675-.01 1.24-.518 1.322-1.187s-.342-1.3-.994-1.473c-.64-.17-2.108-1.543-3.36-2.948l.307-.024c3.373.257 60.632 4.472 73.188-4.66 6.983-5.078 6.495-9.694 5.58-11.993-1.884-4.748-8.736-7.777-15.57-6.906-2.717.348-5.64.868-8.666 1.41-8.57 1.535-18.283 3.275-26.248 1.323-3.106-.76-5.77-1.77-8.12-2.657-3.977-1.506-6.852-2.595-9.055-1.28-.913.546-1.575 1.436-2.017 2.738-1.414-1.577-2.982-4.456-.91-8.355.273-.513.186-1.143-.213-1.567-.08-.085-7.93-8.5-4.236-17.736 3.318-8.295 16.377-12.977 31.05-11.113 12.625 1.597 25.856 11.294 34.61 17.7 5.512 4.04 8.48 6.158 10.488 6.42.402.058.798-.08 1.095-.354a1.36 1.36 0 0 0 .431-1.068c-.002-.018-.085-1.825.93-2.828.553-.548 1.362-.79 2.48-.705 1.313.086 2.262.573 2.825 1.447.872 1.367.714 3.42.17 4.85zM394.162 338.8c-1.313.45-2.784.15-4.393-.906a1.36 1.36 0 0 0-1.628.109c-.163.14-4.03 3.407-7.736.42-.505-.407-1.238-.393-1.736.032-.402.345-4.04 3.275-7.66-.116-.428-.398-1.06-.48-1.568-.203-1.842.995-4.414 1.807-5.102 1.39-.113-.067-.118-.43-.118-.502 0-1.434.877-2.504 1.612-3.147 1.71-1.494 4.423-2.287 6.78-1.977 5.126.685 8.863-2.83 9.54-4.417.6-1.4 1.588-14.606-3.138-21.448-.96-1.388-2.014-2.72-3.073-4.05-3.593-4.52-6.958-8.815-6.35-15.347 6.566-.138 12.513 2.374 17.727 7.588 2.73 2.73 5.687 4.99 8.785 7.162-1.2 1.234-3.137 3.564-3.284 5.935a4.14 4.14 0 0 0 1.066 3.089c1.963 2.18 4.2 2.078 5.695 2.005.256-.014.6-.033.85-.015-.378.918-1.78 2.835-2.752 4.158-2.684 3.66-4.42 6.21-4.125 8.182.203 1.346.732 3.375 1.244 5.34.488 1.87 1.225 4.7 1.19 5.247-.07.2-.68 1.072-1.826 1.47zm5.698-18.64c2.6-3.55 3.922-5.47 3.157-7-.785-1.57-2.39-1.503-3.563-1.443-1.26.06-2.454.113-3.558-1.113a1.41 1.41 0 0 1-.377-1.108c.094-1.546 1.838-3.552 2.842-4.536l2.342 1.586 6.626 4.56c5.12 3.686 5.044 6.21 4.934 10.027-.038 1.244-.08 2.654.076 4.193.375 3.758-1.768 4.48-4.833 5.1a23.02 23.02 0 0 0-1.068.23c-.317.08-.696.156-1.116.242-1.955.396-5.08 1.065-7.253 3.09l-.657-2.574c-.493-1.896-1.004-3.855-1.186-5.058-.15-1.022 2.313-4.38 3.634-6.186zm-137.098-25.246c-.562.06-1.073.287-1.54.69-.8-.892-1.87-2.627-1.87-5.52 0-4.302-1.217-6.44-1.99-7.374.193-.277.38-.558.518-.865.602-1.335.43-2.726-.51-4.146.44-.918.742-2.174.365-3.44.548-.93.972-2.382.535-4.158a7.86 7.86 0 0 0 1.073-1.932c6.22 6.873 13.644 12.755 14.146 13.15.35 1.732.8 3.468 1.49 5.186 2.113 5.255 5.693 9.667 10.6 13.255-2.305 3.13-6.618 7.197-11.956 3.633-2.477-1.65-4.345-3.616-5.844-5.194-1.918-2.014-3.32-3.475-5.027-3.284zm-11.32 11.924c.278.32.68.48 1.12.458a1.35 1.35 0 0 0 1.037-.618c.147-.225.85-1.105 1.635-1.263.225-.05.59-.067 1.124.295.354.245.553 1.055.254 1.94-.535 1.588-2.223 2.462-4.537 2.36-.573-.047-1.1.313-1.323.85s-.062 1.152.377 1.527l2.208 1.892-3.602.877c-.478.116-.854.483-.985.957-.006.023-.544 1.942-1.62 3.56-1.077-1.62-1.615-3.538-1.62-3.56-.13-.474-.508-.84-.985-.957l-3.602-.877 2.206-1.892c.44-.377.6-1 .377-1.527s-.79-.904-1.323-.85c-2.342.11-4-.77-4.535-2.357-.3-.886-.1-1.697.254-1.942.523-.358.886-.34 1.116-.296.76.148 1.447.97 1.642 1.265a1.35 1.35 0 0 0 1.037.618c.404.018.84-.14 1.12-.458 3.432-3.922 1.966-8.332.275-10.806 1.295-1.618 2.62-4.207 2.925-4.818.233-.463.098-1.003-.218-1.415s-.93-.582-1.43-.48c-.768.162-3.108.652-4.452-.384-.467-.358-.57-1.34-.212-1.978.12-.22.504-.88 1.908-.345 1.335.514 3.253 1.07 4.45-.01.273-.245.43-.535.546-.833.355.054.715.073 1.077.105.116.26.268.512.51.728 1.204 1.08 3.118.525 4.452.01 1.41-.54 1.785.125 1.908.345.36.64.254 1.62-.215 1.98-1.343 1.04-3.68.544-4.62.348a1.34 1.34 0 0 0-1.34.505c-.313.4-.366.963-.136 1.426.305.61 1.63 3.2 2.925 4.818-1.7 2.47-3.155 6.882.275 10.803zm4.39-38.036a1.35 1.35 0 0 0-.34 1.461c.666 1.777-.174 2.764-.254 2.852a1.35 1.35 0 0 0-.222 1.621c.557 1-.345 2.23-.348 2.234-.387.51-.37 1.217.047 1.704 1.064 1.242.815 1.793.696 2.058-.382.85-1.205 1.512-2.444 1.97-1.265.467-2.743.606-4.182.564-.053.002-.106-.006-.158.003-1.708-.068-3.348-.412-4.487-.948-.608-.286-1.37-.756-1.532-1.367-.147-.552.234-1.107.233-1.107a1.36 1.36 0 0 0-.321-1.931c-.705-.48-.76-.888-.78-1.022-.086-.632.4-1.385.585-1.59a1.36 1.36 0 0 0 .328-1.033c-.04-.374-.233-.715-.534-.94-.413-.3-1.1-.915-1.092-1.497.01-.6.696-1.213.927-1.374.36-.245.546-.67.558-1.105s-.218-.874-.564-1.138c-.352-.27-.686-1.583-.53-2.036a29.57 29.57 0 0 0 5.364.527l.3.002c3.668 0 6.88-.662 9.496-1.773l.493.608a4.86 4.86 0 0 1-1.242 3.26zM246.81 264c-7.32-.067-12.17-2.418-12.97-6.3-.238-1.15-.03-2.056.634-2.767.826-.885 2.354-1.402 4-1.402.354 0 .714.024 1.073.074.38.05.444.172.467.216.284.532-.086 2.063-.596 3.106-.324.662-.06 1.462.594 1.8 4.824 2.49 11.805 1.397 13.64.564.22-.1.888-.402 1.07-1.134.145-.575-.047-1.077-.234-1.562-.333-.876-.68-1.78.298-3.06.522-.685 1.66-.37 1.995-.254 1.614.546 3.245 2.23 3.245 4.394 0 1.007-.458 1.973-1.362 2.87-2.224 2.203-6.678 3.425-11.856 3.443zm4.974-6.918c-1.806.448-6.023.945-9.404-.265.396-1.196.732-2.923.024-4.255-.03-.057-.082-.12-.118-.18l-.3-42.568c.337-25.26 12.006-34.488 17.48-37.43-2.452 7.647-7.293 29.242-7.103 80.006-1.223 1.93-.937 3.636-.577 4.69zm36.892-22.92l-1.42 3.14c-.653-.69-1.473-1.8-2.14-3.492-.252-.638-.937-.995-1.605-.8l-5.04 1.334 1.154-2.82a1.35 1.35 0 0 0-.169-1.322c-.28-.382-.756-.596-1.217-.537l-6.12.61 2.27-6.17c2.702.79 9.39 2.595 16.256 3.31l-1 1.246a1.36 1.36 0 0 0-.092 1.567c.307.488.89.73 1.45.6.072-.015 7.338-1.662 12.284-.957.56.068 1.108-.198 1.38-.69a1.35 1.35 0 0 0-.163-1.533c-2.888-3.34-10.65-12.664-11.875-15.642-.23-.562-.81-.88-1.41-.83-.602.072-1.084.535-1.178 1.134l-.68 4.33c-1.034-.685-2.4-1.806-3.564-3.464a1.34 1.34 0 0 0-1.482-.526 1.35 1.35 0 0 0-.98 1.231 14.92 14.92 0 0 0 .003 1.37c-3.484-3.1-9.077-8.754-10.894-14.492-1.013-3.198-.934-5.562.23-6.84 1.016-1.116 2.72-1.237 3.61-1.048.948.203 1.852.874 2.415 1.795.552.903.718 1.91.47 2.847-.11.417-.018.863.256 1.2s.696.53 1.12.5c3.41-.17 20.565-1.3 23.338-6.918.387-.786.658-1.95.085-3.372 1.815-1.036 6.298-2.572 12.106 2.618a1.36 1.36 0 0 0 1.704.081c1.337-.983 3.348-3.346 3.1-6.22 2.023.254 5.503 1.278 7.916 5.167.222.356.594.588 1 .632s.826-.107 1.117-.408c.107-.11 2.303-2.424 3.2-5.282 1.615.377 4.818 1.592 7.948 5.525.234.295.58.478.954.508.132.002 1.855.105 4.08-.546-6.833 5.505-17.938 6.63-18.083 6.645a1.36 1.36 0 0 0-1.124.826c-.192.46-.115.994.203 1.38l1.928 2.35c-7.645.142-11.012-2.624-11.042-2.65-.495-.43-1.223-.44-1.736-.038-.51.4-.655 1.126-.343 1.702l1.675 3.094c-3.006-.63-5.763-2.03-8.075-3.2-2.912-1.483-5.215-2.65-7.233-2.05-1.508.45-2.607 1.813-2.87 3.555-.284 1.898.5 3.71 2.02 4.73a4.59 4.59 0 0 0 2.56.774c1.26 0 2.536-.505 3.537-1.482.818-.798 1.31-1.768 1.453-2.763 3.048 1.544 6.758 3.29 10.996 3.47.476.058.948-.22 1.205-.634a1.35 1.35 0 0 0 .042-1.362l-.885-1.633c2.557.862 6.354 1.55 11.556 1.03.497-.05.925-.366 1.117-.828a1.36 1.36 0 0 0-.204-1.376l-2.073-2.527c4.247-.707 12.964-2.758 18.465-8.092-.905 2.494-2.38 5.064-4.81 6.47-.34.198-.575.537-.65.924a1.37 1.37 0 0 0 .275 1.099c.046.058 4.424 5.772 3.06 20.706-2.504-1.287-7.317-4.345-10.04-9.865-.29-.585-.946-.876-1.59-.702-.63.18-1.037.788-.97 1.44.18 1.754.328 4.558.17 6.53-1.462-1.048-3.5-2.76-4.355-4.633-.238-.53-.788-.862-1.365-.79a1.35 1.35 0 0 0-1.186 1.039c-.342 1.473-.798 3.18-1.17 4.338-1.347-.844-3.136-2.178-3.88-3.55-.287-.53-.89-.81-1.485-.675-.6.13-1.02.64-1.055 1.244-.088 1.566-.295 3.982-.558 5.652-1.244-.762-2.994-1.913-4.287-3.083a1.34 1.34 0 0 0-1.293-.295c-.452.134-.802.495-.924.953l-.694 2.637c-1.163-.675-2.775-1.75-3.83-3.038a1.35 1.35 0 1 0-2.092 1.712c2.205 2.694 6.073 4.473 6.237 4.547a1.37 1.37 0 0 0 1.14-.009c.36-.17.627-.493.73-.88l.594-2.257c2.194 1.633 4.542 2.92 4.665 2.988.34.183.742.212 1.107.086.365-.132.655-.413.798-.77.396-.992.675-3.027.854-4.83 1.848 1.606 3.922 2.655 4.05 2.72.634.316 1.4.092 1.766-.514.382-.64.836-2.073 1.216-3.434 2.19 2.468 5.137 4.16 5.3 4.254.34.192.753.225 1.126.097.372-.134.666-.423.807-.793.408-1.073.544-2.77.557-4.438 2.577 3.148 5.56 5.153 7.667 6.316 0 .033-.015.062-.013.096.014.238.3 4.768 1.086 8.38-2.27-.84-5.922-2.554-9.295-5.73-.324-.307-.782-.43-1.216-.337s-.798.4-.966.812l-1.042 2.57-4.352-3.157c-.384-.278-.89-.337-1.33-.147a1.35 1.35 0 0 0-.807 1.068l-.393 3.018c-.946-.685-2.08-1.59-2.89-2.502a1.35 1.35 0 0 0-1.91-.113c-.558.497-.61 1.352-.113 1.9 1.917 2.156 5.134 4.122 5.27 4.204.393.242.877.26 1.288.063s.697-.6.758-1.045l.38-2.93 3.9 2.837c.334.243.767.316 1.166.204s.726-.407.883-.79l.974-2.407c2.505 2.06 4.994 3.4 7.02 4.303.01.842.142 4.426 1.655 7.253-2.48-.065-6.364-.5-9.962-2.3a1.35 1.35 0 0 0-1.739.474l-1.96 3.02-8.105-5.438a1.32 1.32 0 0 0-1.172-.162 1.35 1.35 0 0 0-.853.819l-1.246 3.393c-1.492-1.674-3.63-4.03-4.42-4.66a1.35 1.35 0 0 0-1.837.138c-.023.024-1.916 2.052-4.183 3.628l-1.562-4.195a1.36 1.36 0 0 0-1.741-.797c-.7.26-1.057 1.042-.797 1.74l2.143 5.75a1.35 1.35 0 0 0 .8.797c.37.136.78.106 1.126-.086 2.12-1.177 4.102-2.934 5.23-4.022 1.255 1.295 3.363 3.656 4.706 5.196a1.34 1.34 0 0 0 1.265.44 1.35 1.35 0 0 0 1.025-.863l1.436-3.9 7.816 5.244a1.36 1.36 0 0 0 .754.23c.09 0 .18-.01.27-.03.356-.072.667-.284.863-.588l2.067-3.188c3.474 1.5 6.948 1.944 9.44 2.05-.014.322.073.65.294.92a30.72 30.72 0 0 0 1.816 2.025l-3.384.05a1.35 1.35 0 0 0-1.326 1.482l.505 5.297c-1.868-.42-4.83-1.234-6.76-2.497-.448-.292-1.016-.3-1.464-.014l-5.914 3.732-3.03-8.24a1.35 1.35 0 0 0-1.195-.885 1.29 1.29 0 0 0-1.287.747l-3.32 6.64-2.327-3.71c-.242-.384-.66-.622-1.112-.634-.45.007-.88.204-1.142.575-.023.033-1.907 2.693-4.066 4.682l-1.544-4.875c-.157-.493-.58-.854-1.092-.93-.516-.068-1.022.147-1.314.575a43.43 43.43 0 0 1-3.804 4.685l-.382-6.036a1.35 1.35 0 0 0-.693-1.096c-.402-.225-.892-.23-1.297-.01a100.5 100.5 0 0 1-2.784 1.432c1.592-3.305 3.398-7.948 2.37-10.34-.306-.714-.882-1.187-1.57-1.48-.043-.03-.072-.073-.118-.098-.063-.034-.13-.036-.196-.06-.046-.013-.076-.05-.124-.062-.054-.013-.095-.01-.148-.02-.028-.003-.054-.01-.083-.01-1.835-.382-3.086.13-3.808.657-.738.54-1.225 1.256-1.544 1.946-.84-.812-1.857-2.023-2.513-3.585a1.35 1.35 0 0 0-1.228-.83c-.54-.034-1.027.308-1.25.798zm-10.3-15.1c7.315 3.526 16.305 3.916 18.762 3.96l3.243 3.95c-2.248.01-4.54.263-6.362.535l.32-.4c.317-.395.386-.934.18-1.397s-.652-.77-1.155-.802c-9.186-.546-19.304-3.738-19.404-3.773-.012-.001-.016-.004-.02-.005-1.508-.455-2.386-1.23-2.474-2.18-.068-.75.348-1.358.6-1.49 1.46-.754 4.532.735 6.31 1.597zm12.784.763c.292-.2.508-.51.565-.87l.396-2.537c.81 1.18 1.794 2.486 2.808 3.802-1.047-.072-2.334-.196-3.77-.394zm-2.382-.383a48.04 48.04 0 0 1-2.026-.423 1.35 1.35 0 0 0-.114-.879 3.63 3.63 0 0 1-.109-.243 15.88 15.88 0 0 0 2.249 1.545zm17.846-14.772c-.615.606-1.695 1.066-2.705.395-.774-.516-.942-1.41-.844-2.078.08-.52.378-1.187.97-1.364a1.37 1.37 0 0 1 .382-.05c.65 0 1.575.34 2.633.824l.002.003c.686 1.088-.243 2.08-.437 2.27zm51.45 20.256a1.36 1.36 0 0 0 2.066-.967c.225-1.702.64-2.746 1.238-3.104 1.078-.647 3.7.343 6.71 1.487 2.3.872 5.166 1.955 8.43 2.755 8.52 2.087 18.534.295 27.368-1.288 2.985-.534 5.86-1.048 8.533-1.4 5.59-.712 11.287 1.628 12.713 5.22 1.077 2.71-.578 5.84-4.66 8.807-11.313 8.226-65.482 4.573-71.005 4.178-1.47-1.4-2.044-4.263-2.215-6.15.893.285 1.492.427 1.57.444.092.02.185.03.278.03.387 0 .762-.168 1.024-.467.32-.374.416-.89.247-1.352-.844-2.303-1.308-6.558-1.5-8.736a1.32 1.32 0 0 0 1.054-.134c.352-.216.585-.584.634-.994 1.6-13.594-1.19-20.682-2.654-23.337a11.47 11.47 0 0 0 1.004-.87c.098 6.425 3.825 11.592 5.35 13.437-2.72 6.162 1.23 10.79 3.818 12.432z" fill="#464655"/><path d="M222.355 155.24c-.525-10.9-3.113-28.53-11.385-28.935-4.662-.215-6.96 2.655-7.054 2.778-.273.354-.72.553-1.155.53l-3.16-.2.566 2.095a1.36 1.36 0 0 1-.435 1.387c-.192.162-4.662 4.044-1.942 8.988 2.072 3.767 8.77 5.55 13.658 6.85 2.183.582 4.07 1.084 5.294 1.683 2.182 1.067 4.093 2.867 5.614 4.813z" fill="#ffd250"/><path d="M211.1 123.602c-4.757-.233-7.718 2.138-8.83 3.27l-4.385-.263a1.36 1.36 0 0 0-1.13.497c-.275.337-.372.786-.26 1.207l.842 3.124c-2.15 2.194-4.678 6.75-1.922 11.76 2.628 4.782 9.973 6.735 15.334 8.163 2.047.544 3.815 1.015 4.803 1.497 3.17 1.55 5.716 5.076 7.04 7.86a1.35 1.35 0 0 0 1.222.771 1.39 1.39 0 0 0 .292-.032c.615-.136 1.054-.68 1.06-1.308.014-1.462.187-35.85-14.067-36.546zm.345 25.14c-4.89-1.3-11.586-3.083-13.658-6.85-2.72-4.943 1.75-8.825 1.942-8.988.4-.34.57-.88.435-1.387l-.566-2.095 3.16.2a1.39 1.39 0 0 0 1.155-.531c.095-.124 2.392-2.994 7.054-2.778 8.273.404 10.86 18.034 11.385 28.935-1.52-1.945-3.432-3.746-5.615-4.813-1.222-.6-3.1-1.102-5.293-1.683z" fill="#464655"/><path d="M448.542 155.24c.525-10.9 3.113-28.53 11.385-28.935 4.662-.215 6.96 2.655 7.054 2.778.273.354.72.553 1.155.53l3.16-.2-.566 2.095a1.36 1.36 0 0 0 .435 1.387c.192.162 4.662 4.044 1.942 8.988-2.072 3.767-8.77 5.55-13.658 6.85-2.183.582-4.07 1.084-5.294 1.683-2.182 1.067-4.094 2.867-5.614 4.813z" fill="#ffd250"/><path d="M445.73 160.15c.007.63.446 1.172 1.06 1.308a1.39 1.39 0 0 0 .292.032 1.35 1.35 0 0 0 1.221-.771c1.325-2.784 3.87-6.3 7.04-7.86.99-.483 2.755-.953 4.803-1.497 5.362-1.427 12.705-3.38 15.334-8.163 2.755-5 .227-9.566-1.922-11.76l.842-3.124c.113-.422.015-.87-.26-1.207s-.714-.53-1.13-.497l-4.385.263c-1.113-1.13-4.074-3.502-8.83-3.27-14.252.693-14.08 35.082-14.066 36.546zm8.428-9.725c-2.183 1.068-4.095 2.87-5.615 4.813.525-10.9 3.113-28.53 11.385-28.935 4.662-.215 6.96 2.655 7.054 2.778.273.354.72.553 1.155.53l3.16-.2-.566 2.095a1.36 1.36 0 0 0 .435 1.387c.192.162 4.662 4.044 1.942 8.988-2.072 3.767-8.77 5.55-13.658 6.85-2.18.582-4.07 1.084-5.293 1.683z" fill="#464655"/><path d="M448.542 356.76c.525 10.9 3.113 28.53 11.385 28.935 4.662.215 6.96-2.655 7.054-2.78.273-.354.72-.553 1.155-.53l3.16.2-.566-2.095a1.36 1.36 0 0 1 .435-1.387c.192-.162 4.662-4.044 1.942-8.988-2.072-3.767-8.77-5.55-13.658-6.85-2.183-.582-4.07-1.084-5.294-1.683-2.182-1.065-4.094-2.866-5.614-4.812z" fill="#ffd250"/><path d="M459.797 388.398c4.757.233 7.717-2.138 8.83-3.27l4.385.263a1.36 1.36 0 0 0 1.13-.497c.275-.337.372-.786.26-1.207l-.842-3.124c2.15-2.194 4.678-6.75 1.922-11.76-2.628-4.782-9.973-6.735-15.334-8.163-2.047-.544-3.815-1.015-4.803-1.497-3.17-1.55-5.716-5.076-7.04-7.86a1.35 1.35 0 0 0-1.221-.771 1.39 1.39 0 0 0-.292.032c-.615.136-1.054.68-1.06 1.308-.015 1.462-.188 35.85 14.066 36.546zm-.345-25.14c4.89 1.3 11.586 3.083 13.658 6.85 2.72 4.943-1.75 8.825-1.942 8.988-.4.34-.57.88-.435 1.387l.566 2.095-3.16-.2a1.39 1.39 0 0 0-1.155.531c-.095.124-2.392 2.994-7.054 2.778-8.273-.404-10.86-18.034-11.385-28.935 1.52 1.945 3.432 3.746 5.615 4.813 1.222.6 3.1 1.102 5.293 1.683z" fill="#464655"/><path d="M222.355 356.76c-.525 10.9-3.113 28.53-11.385 28.935-4.662.215-6.96-2.655-7.054-2.78-.273-.354-.72-.553-1.155-.53l-3.16.2.566-2.095a1.36 1.36 0 0 0-.435-1.387c-.192-.162-4.662-4.044-1.942-8.988 2.072-3.767 8.77-5.55 13.658-6.85 2.183-.582 4.07-1.084 5.294-1.683 2.182-1.065 4.093-2.866 5.614-4.812z" fill="#ffd250"/><path d="M225.167 351.85c-.007-.63-.446-1.172-1.06-1.308a1.39 1.39 0 0 0-.292-.032c-.513 0-.994.292-1.222.77-1.325 2.784-3.87 6.3-7.04 7.86-.99.483-2.755.953-4.803 1.497-5.362 1.427-12.705 3.38-15.334 8.163-2.755 5-.227 9.566 1.922 11.76l-.842 3.124c-.113.422-.015.87.26 1.207s.714.53 1.13.497l4.385-.263c1.113 1.13 4.074 3.502 8.83 3.27 14.254-.693 14.08-35.082 14.067-36.546zm-8.428 9.726c2.183-1.068 4.095-2.87 5.615-4.813-.525 10.9-3.113 28.53-11.385 28.935-4.662.215-6.96-2.655-7.054-2.778-.273-.354-.72-.553-1.155-.53l-3.16.2.566-2.095a1.36 1.36 0 0 0-.435-1.387c-.192-.162-4.662-4.044-1.942-8.988 2.072-3.767 8.77-5.55 13.658-6.85 2.182-.583 4.07-1.085 5.293-1.683z" fill="#464655"/></svg>