<?xml version="1.0" encoding="UTF-8"?>
<svg xmlns="http://www.w3.org/2000/svg" xmlns:xlink="http://www.w3.org/1999/xlink" width="750" height="500">
<rect width="750" height="500" fill="#fff"/>
<rect width="300" height="500" fill="#061d60"/>
<g>
<path fill="#d7110e" stroke="#fff" stroke-width="0.5571" d="m51.001,98.4472c0,20.5969,16.857,37.2945,37.4539,37.2945s37.2453-16.6975,37.2453-37.2945v-48.2289h-74.699v48.2286z"/>
<path fill="#fff" stroke="#010001" stroke-width="0.5571" d="m68.3021,96.2985c0,12.1514,9.04713,22.0027,20.1046,22.0027,11.0565,0,19.9923-9.85127,19.9923-22.0027v-28.4527h-40.0969v28.4529z"/>
<g id="castle3">
<g id="castle" fill="#ffd02e" stroke="#010101" stroke-width="0.0632">
<path d="m62.8656,58.5338v-5.29813h2.18382v5.29913h-2.18382z"/>
<path d="m58.496,58.5338v-5.29813h2.18483v5.29913h-2.18483z"/>
<path d="m54.1273,58.5338v-5.29813h2.18483v5.29913h-2.18476z"/>
<path d="m61.2012,53.8884v-1.23028h-3.2256v1.23028h3.2256z"/>
<path d="M65.0495,64.642v-8.98993h-10.9222v8.98997h10.9221z"/>
<path d="m65.5959,58.8185v-1.1992h-12.015v1.1992h12.015z"/>
<path d="M65.5959,65.8483v-1.19924h-12.015v1.1992h12.015z"/>
<path d="m56.7884,64.642v-2.11865c0-1.49298,1.25334-2.70321,2.80047-2.70321,1.54612,0,2.79946,1.21023,2.79946,2.70321v2.11865h-5.59993z"/>
<path d="m57.9084,64.642v-1.63336c0-1.15007,0.752005-2.08456,1.67948-2.08456,0.928476,0,1.67948,0.934492,1.67948,2.08456v1.63336h-3.35896z"/>
<path d="m65.5358,53.8884v-1.23028h-3.2256v1.23028h3.2256z"/>
<path d="m53.64,53.8884v-1.23028h3.2256v1.23028h-3.22556z"/>
</g>
<use xlink:href="#castle" y="33.842"/>
<use xlink:href="#castle" transform="matrix(0.5523,-0.8337,0.8337,0.5523,-9.1907,139.0644)"/>
</g>
<use xlink:href="#castle" x="28.789"/>
<use xlink:href="#castle3" transform="matrix(-1,0,0,1,176.752,0)"/>
<g id="quina" fill="#fff">
<path fill="#004b8f" d="m83.5007,93.5882c0,2.84759,2.18483,5.15775,4.85394,5.15775,2.66912,0,4.82587-2.30916,4.82587-5.15775v-6.67279h-9.68082v6.67279z"/>
<circle cx="88.342" cy="91.986" r="0.903"/>
<circle cx="86.042" cy="88.99" r="0.903"/>
<circle cx="90.639" cy="88.99" r="0.903"/>
<circle cx="86.042" cy="94.983" r="0.903"/>
<circle cx="90.639" cy="94.983" r="0.903"/>
</g>
<use xlink:href="#quina" y="-15.482286"/>
<use xlink:href="#quina" x="-12.518383"/>
<use xlink:href="#quina" y="15.485293"/>
<use xlink:href="#quina" x="12.521388"/>
</g>
<g>
<path id="star" fill="#ffd02e" stroke="#ffd02e" stroke-width="0.4512" d="m300.015,111.652,8.56565,26.3864-22.4591-16.3191,27.7869,0.0397-22.4591,16.2794z"/>
<use xlink:href="#star" transform="rotate(-55,300,306.3)"/>
<use xlink:href="#star" transform="rotate(-41.25,300,306.3)"/>
<use xlink:href="#star" transform="rotate(-27.5,300,306.3)"/>
<use xlink:href="#star" transform="rotate(-13.75,300,306.3)"/>
<use xlink:href="#star" transform="rotate(13.75,300,306.3)"/>
<use xlink:href="#star" transform="rotate(27.5,300,306.3)"/>
<use xlink:href="#star" transform="rotate(41.25,300,306.3)"/>
<use xlink:href="#star" transform="rotate(55,300,306.3)"/>
</g>
<g fill="none" stroke="#010101" stroke-width="0.4512">
<path fill="#ffd02e" d="m288.587,264.395c5.57887-14.5398,17.2179-15.6527,23.9428-23.7233,2.63302-3.16143,9.06016-1.80882,13.5752-2.78342,4.30147-0.92747,5.7353,0.92747,6.15742,5.05949,8.01036-0.3369,7.84191,3.12032,7.08189,6.49332-0.3369-1.3486-3.96257-1.56016-5.73329-1.39171,0,2.95087-2.10862,3.07821-5.39639,3.92246-2.53677,0.64873-2.98296,4.60227-3.04713,7.4629,7.08289,0.16745,13.3336-6.11431,19.7416-13.0298,6.40909-6.91444,16.9412-12.9495,34.0668-11.9739,20.7433,1.18015,61.894,1.85495,75.7229-2.19285,13.8299-4.04879,16.865,1.6865,6.74699,8.09459,1.17714,2.52975-1.55915,7.0508-6.41009,8.93884,2.3613,2.86664-1.3496,6.74599-8.60094,9.61163,0.3369,4.55314-6.91444,9.78108-16.1892,10.6263,2.3603,5.73229-11.638,10.7938-26.8155,9.78109,1.51805,2.19285-3.54044,6.07119-9.27673,6.07119,2.02339,2.36029-3.20355,5.05949-6.91344,5.22894,2.19185,2.0244-8.60094,5.22794-14.3352,4.04679,0.16845,2.0244-6.24064,3.54145-10.4559,2.52975-0.50635,1.85495-5.05949,2.52874-7.75769,0.6738-0.6748,1.85595-3.87834,2.19385-6.74599,0.3379-1.85494,1.85595-5.05949,1.68649-6.91443-0.50635-1.18115,2.0244-4.0478,2.69819-6.0722,0.16845-1.68649,2.19385-4.04679,1.52005-5.90173-0.6738-0.3369,2.02339-6.29479,5.39739-9.66779-6.74699-0.84024,5.69719-2.45655,9.24365-3.82319,11.637,1.12099,3.46524,1.79378,11.1748,1.52607,18.0451,1.0117,6.74699,4.03777,16.5251,5.97794,22.7667,1.94017,6.24165-1.08991,5.60695-2.86063,4.59425,0.22259,0.84726,0.24666,1.89907-0.007,3.24766-0.6748-0.9014-2.39839-2.26303-3.91744-2.26303-0.0421,0.92547-0.40007,1.875-1.22728,2.76838-1.60127-2.0244-3.20354-4.46992-5.05949-4.46992-1.85495,0.42213-5.39639,2.19385-6.40809,5.14572-0.34592-0.72092-0.57754-1.61731-0.57252-2.55682-1.3486,1.09593-5.4345,1.26538-6.36197-0.0872-0.006,0.62066-0.1133,1.29245-0.31684,2.05147-0.7119-1.04679-2.29412-2.46056-3.89539-2.53476-0.0612,0.97962-0.42313,1.97026-1.26538,2.80649-1.50802-2.09359-3.36497-3.95154-5.21891-4.03777-1.87199,0.34091-5.49165,1.94719-6.6357,4.84893-0.59859-1.40274-0.83222-3.57553,0.1123-5.23997-1.07486-0.0942-2.18683-0.75201-1.81684-2.07955-3.20455,5.56584-7.42079,4.38469-9.10729,1.68449-3.37299,3.7109-10.2724,1.497-7.25234-3.20153,12.1424-18.8894,13.6604-24.9606,17.0334-34.9111,1.31852-3.95655,0.50535-10.119,2.3613-16.0207-4.21725,7.41978-9.44519,8.60093-10.6253,6.91444-1.3486,1.6875-5.90174,3.37199-7.08289,0.67379-1.3486,1.01371-4.38469,1.01371-5.56484-0.3369-2.19385,1.6865-5.39639,1.85595-5.90274,0.3369-2.19285,1.3496-6.74599,1.18216-7.58924-0.3369-3.37299,2.86765-10.7938,1.35061-10.4569-2.86664-7.88402,3.69184-15.009,1.6875-14.6711-2.19185-4.72159,0.50535-7.42079-1.85695-7.08289-4.04879-5.05949,0.3369-8.09558-2.86564-7.25234-6.23964-10.7928,1.0127-37.6073-2.19285-35.7523-10.6263-7.58923-1.34759-18.8884-6.91343-15.1775-11.2981-4.89104-1.3496-10.4569-5.39639-9.95053-9.27473-6.91544-1.52005-8.26404-7.25234-6.07119-8.43349-6.57754-2.19285-7.58222-10.485,3.87934-7.58924,16.0207,4.0478,59.0264,3.373,82.2995,2.0244,23.2741-1.3496,23.1046,4.88904,43.511,19.2253,9.21357,6.47527,16.9813,4.96424,21.4231,5.8486z"/>
<path d="m314.804,344.895c0.88075,0.83382,1.54492,2.15494,1.47995,3.55548"/>
<path d="m320.208,347.465c-0.66417-2.53396-3.12594-3.01404-5.40361-2.57005-1.60267-0.42233-2.95267-1.51605-2.95267-4.38209,0-1.85896,1.09732-4.64198,3.37139-9.44639,1.11898-2.35709,1.6893-6.47928,1.86617-10.9588"/>
<path d="m303.019,349.339c0.0108-2.03944,1.09733-4.22688,4.28102-4.86578,1.68569-0.3357,2.36069-0.76163,2.36069-3.20174,0-7.8401-9.78208-9.35976-9.78208-28.7543"/>
<path d="m310.191,309.326c1.15508-2.88048,3.89118-4.67085,5.37112-7.26617"/>
<path d="m288.587,264.393c1.55936,0.31043,2.71083,0.89158,3.36778,2.2488"/>
<path d="m291.046,344.906c0.87353,0.90601,1.49439,2.37513,1.40054,3.85869"/>
<path d="m296.655,349.252c0.0361-3.46163-2.79385-4.76109-5.61297-4.34598-1.58101-0.49091-2.54117-0.76886-2.41123-3.63129,0.53423-11.6952,10.6917-15.3806,8.38156-36.6846"/>
<path d="m279.437,347.144c0.61724-1.0901,1.73623-1.97085,3.59518-2.25601,1.70014-0.2599,2.38958-0.67139,2.50148-3.1115,0.10107-2.2127-1.36805-3.21618-2.18022-4.47233-3.88757-6.01002-7.08208-22.5999-5.06069-28.6712"/>
<path d="m325.167,259.434c-0.0181,0.84826,0.0108,1.69652,0.0108,2.48703,0,8.26604-5.31336,11.8071-5.22673,18.7195,0.0469,3.82981-0.15883,7.05321-0.5595,9.78208"/>
<path d="m290.436,269.678c-16.8642-0.675-31.032-4.72139-39.1284-16.1892-8.09639-11.4678-21.9249-11.8035-35.414-10.4571-13.4928,1.35-27.3213,1.01069-39.1247,0"/>
<path d="m195.192,243.916c-1.0143,2.86604,2.31738,8.22272,27.6136,5.52272"/>
<path d="m197.513,248.092c0.675,5.73209,13.6588,9.78209,30.357,6.24105"/>
<path d="m205.775,254.416c-5.0607,0.16965-1.6857,5.48302,4.21604,6.15441,5.90174,0.675,16.3588,0.84104,22.0909-0.675"/>
<path d="m209.991,260.571c-3.375,2.7-1.66043,6.48289,9.10708,7.25174,2.3607,0.16965,11.1285,0.33569,19.2249-2.025"/>
<path d="m220.322,267.906c-3.0357,2.025,0.29599,5.64906,6.03168,5.64906,5.73209,0,12.1428-1.01069,16.5249-3.20534"/>
<path d="m226.35,273.558c-2.36069,3.20535,1.45107,6.65254,8.93744,4.89105,2.86604-0.675,9.61243-3.37139,11.6374-5.0607"/>
<path d="m235.963,278.28c-3.20535,2.025-1.10094,6.75361,5.06069,3.87674,2.53035-1.18035,5.90174-3.20174,8.26243-5.56604"/>
<path d="m241.023,282.16c-0.84465,2.53035,1.85535,4.55535,5.7357,2.19465,3.87673-2.36069,5.90173-4.89104,7.08208-6.74639"/>
<path d="m246.755,284.351c-0.50535,2.19105,2.025,5.7357,10.7928-4.21604"/>
<path d="m250.971,286.037c-0.675,2.7,3.375,4.38569,9.78209-3.88035"/>
<path d="m255.527,287.387c1.68569,2.7,4.21604,2.53035,10.1178-3.87674"/>
<path d="m259.743,288.567c-0.3357,2.52674,3.88035,3.20174,8.60174-2.025"/>
<path d="m265.013,289.412c-0.33569,2.53035,4.84773,1.35,8.38877-3.0357"/>
<path d="m269.691,289.578c1.35,2.025,5.73569,2.19105,8.60174-2.7"/>
<path d="m277.452,288.062c-2.7,3.54104,1.6857,4.89104,5.0607,1.35"/>
<path d="m280.653,292.617c5.90174-4.55535,3.20535-14.3338,7.59104-14.3338"/>
<path d="m137.474,244.887c10.9624,4.04639,40.6444,6.57673,60.5442,4.89104"/>
<path d="m143.545,253.323c12.4785,3.54104,42.0774,4.59506,60.2916,4.08971"/>
<path d="m153.494,262.596c8.77139,2.025,38.114,6.40709,57.0032,3.20535"/>
<path d="m168.672,273.894c7.42139,1.85535,37.2694,4.25936,53.2925-1.13703"/>
<path d="m204.425,284.521c4.72139-0.16966,16.4021-2.99238,22.6396-6.70308"/>
<path d="m211.677,290.758c6.91605-1.0107,16.8245-3.96337,23.0619-9.02406"/>
<path d="m218.763,294.808c4.89104-0.16965,17.7088-5.47941,23.2713-9.69906"/>
<path d="m233.432,296.999c4.89104-2.02139,11.1321-6.15441,15.6838-10.2008"/>
<path d="m243.889,299.865c4.55535-3.20535,8.43209-7.92674,11.9731-11.9731"/>
<path d="m251.477,300.205c3.54104-2.02139,6.19772-5.94505,9.06377-9.99144"/>
<path d="m257.382,299.865c2.86605-2.025,6.40709-6.02808,8.43209-9.23343"/>
<path d="m262.945,300.205c2.7-2.19104,5.73569-5.90174,7.58743-9.78209"/>
<path d="m270.03,299.53c2.3607-2.02139,4.59506-4.76471,6.62006-9.31644"/>
<path d="m268.511,346.751c3.54104-6.07139,7.75709-13.3195,10.7928-20.2392"/>
<path d="m277.618,345.065c2.025-3.0357,3.4147-6.62005,4.93435-9.31645"/>
<path d="m295.327,344.895c-0.0866-3.62407-0.76163-15.1785-0.50535-20.8275"/>
<path d="m303.506,345.989c0.0866-4.29906-1.77232-13.8285-1.68569-20.7409"/>
<path d="m316.999,344.812c-0.50534-2.11163-2.10802-9.02406-2.44371-12.1428"/>
<path d="m325.178,266.646c17.5392-0.3393,22.2606-28.3356,50.9318-27.6606,28.6676,0.675,46.2104,2.7,59.6996,1.35"/>
<path d="m381.672,245.732c17.8785,1.35,25.2962-1.35,25.1266-5.56604"/>
<path d="m378.471,251.128c11.2981,1.51604,22.5529,2.53035,22.1342-5.90174"/>
<path d="m373.41,256.694c9.10709,1.85535,22.9356,4.21605,22.5999-5.22674"/>
<path d="m366.664,262.09c12.9838,3.7107,25.4659,5.05709,24.6213-4.21604"/>
<path d="m361.603,268.162c11.2981,4.3857,23.6106,4.84773,22.2606-3.24866"/>
<path d="m356.206,271.703c10.1178,6.57673,18.6798,5.69238,18.6798-0.37901"/>
<path d="m351.485,274.908c8.76778,6.24105,15.0088,6.74639,15.8535,1.18035"/>
<path d="m348.449,277.099c5.7357,6.40708,10.7928,6.24104,11.9731,2.53034"/>
<path d="m344.403,277.605c3.7107,5.90174,9.61243,8.09639,10.1178,4.21605"/>
<path d="m341.284,279.124c3.7107,5.90173,9.10709,8.26243,9.61244,4.38569"/>
<path d="m337.87,280.467c3.33168,6.12553,8.31658,8.22994,9.06377,4.39291"/>
<path d="m334.072,281.142c2.31738,6.83663,7.29506,8.775,8.38877,4.81163"/>
<path d="m330.037,280.445c1.02874,7.14706,5.56243,9.96257,7.36725,6.26992"/>
<path d="m326.918,281.878c1.02875,7.14345,4.41458,8.79666,6.5226,5.84398"/>
<path d="m322.785,282.301c1.02875,7.14345,4.41457,8.79665,6.5226,5.84398"/>
<path d="m324.503,287.639c-1.0143,1.43302-2.7,2.7-4.80802,0.50535"/>
<path d="m461.445,240.335c-9.11069,6.24104-48.7408,7.75708-61.0532,7.25174"/>
<path d="m455.034,249.273c-12.4785,5.56604-37.6087,7.42139-60.3782,6.4107"/>
<path d="m446.436,258.885c-9.61243,4.55173-44.1854,4.89104-56.4979,3.88034"/>
<path d="m430.244,269.512c-10.4571,1.85535-33.7283,1.18035-47.5604-0.16965"/>
<path d="m403.428,279.29c-8.09639-0.16965-21.2896-2.31738-29.8913-4.51203"/>
<path d="m394.151,285.362c-5.22674,0.675-20.6579-2.7-28.415-6.24104"/>
<path d="m387.238,290.592c-4.55535,0.84465-19.8999-1.85535-27.9963-9.10709"/>
<path d="m372.905,294.638c-6.74639-0.675-15.3878-5.64907-20.1092-10.8794"/>
<path d="m362.448,297.169c-5.90174-1.18035-10.6231-6.57674-14.5035-11.9731"/>
<path d="m354.69,297.844c-3.03569-2.19105-8.68476-6.99907-11.4678-11.4678"/>
<path d="m347.944,298.18c-3.88034-1.93837-6.99906-6.32406-8.51871-10.2874"/>
<path d="m341.032,297.674c-2.19465-2.53034-4.38569-5.64906-5.73569-9.35976"/>
<path d="m334.957,297.844c-1.76872-2.27768-3.11872-4.29907-4.89104-9.02407"/>
<path d="m329.055,297.169c-1.85535-2.025-3.07901-4.42541-4.93436-9.06377"/>
<path d="m333.61,248.049c-1.85535,0.12634-3.66738,0.0433-4.51203,0.37901"/>
<path d="m332.26,242.949c0.12634,1.01069-0.80134,0.88436-0.92767,1.72901"/>
<path d="m319.006,242.772c2.17661-0.6353,4.2738,1.02152,6.30963,0.49451,0.90241-0.23462,2.41845-0.37179,3.86591,0.40067"/>
<path d="m321.955,242.952c-0.20214,1.05401,0.69305,2.10441,1.98168,2.17299,1.13343,0.0578,2.31738-0.68583,2.23436-1.9492"/>
</g>
</svg>