<svg xmlns="http://www.w3.org/2000/svg" width="594" height="459" xmlns:v="https://vecta.io/nano"><style><![CDATA[.B{fill:#129612}.C{stroke-width:.375}.D{fill:#7eff00}.E{stroke:#000}.F{stroke-width:.125}.G{fill:#642864}.H{stroke-width:1.403}]]></style><path d="M0 0h594v459H0V0z" fill="#0c2d83"/><path d="M281.704 64.003h35.61V88.76h-35.61z" class="B"/><path d="M264.78 82c0 .535 1.74 1.185 4.867 1.185a69.42 69.42 0 0 1 7.779.521c2.44.382 3.117-.288 2.354-1.052-1.144-1.3-15-1.876-15-.653zm62.235 0l-3.117 1.393 7.128.4c3.813 0 7.472-.573 7.472-.955s-1.345-.97-2.87-.97c-1.45 0-3.342-.368-4.028-.75-.84-.382-2.677.052-4.584.893zm-28.067-28.815c-.915 1.376-2.288 3.2-3.05 3.974-.763.84-1.373 2.217-1.45 3.057 0 1.223-.23 1.07-.84-.688-1.373-3.745-2.44-4.357-4.957-3.057a18.71 18.71 0 0 1-4.805 1.605c-1.45.23-3.05.917-3.508 1.452-.38.6-2.593 1.223-4.73 1.376-4.5.382-6.712 1.605-12.508 6.802-1.297 1.223-2.822 2.14-3.356 2.14-1.45 0-1.373.46.6 2.675 1.068 1.223 2.136 1.758 2.974 1.53.763-.23 1.525-.077 1.83.382.23.382 1.373.764 2.517.84 1.678.076 1.525.23-1.068.917-1.983.6-4.27 2.14-6.254 4.28-3.508 3.745-3.9 4.662-1.83 4.662.763 0 1.754.382 2.288.917.458.46 2.67.917 4.88.994 3.508.076 4.042.382 4.27 1.758.305 2.14 1.297 2.14 6.33-.153 5.34-2.37 8.695-4.968 11.517-8.8 2.212-3.057 2.288-4.662.23-4.662-1.45 0-2.364-3.67-1.373-5.274 1.22-1.987 4.73-1.987 6.788 0 1.678 1.605 1.983 1.605 4.957.688 2.746-.917 3.356-.917 5.568.306 2.517 1.376 2.593 1.376 4.5-.6 2.136-2.14 4.957-2.6 6.483-1.07 1.297 1.3 1.144 5.12-.23 5.656-1.45.6-1.45 2.064.076 5.044 1.678 3.2 4.424 5.427 10 8.178 5.644 2.828 6.178 2.828 7.017.688.458-1.376 1.22-1.68 4.576-1.758 2.136-.077 4.347-.535 4.805-.994.534-.535 1.525-.917 2.288-.917 2.135 0 1.678-1.3-1.754-4.815-1.983-1.9-4.424-3.592-6.33-4.127-2.593-.688-2.746-.84-1.068-.917 1.144-.077 2.288-.46 2.517-.84.305-.46 1.068-.6 1.83-.382.84.23 1.907-.306 2.974-1.53 1.983-2.217 2.06-2.675.6-2.675-.534 0-2.06-.994-3.356-2.217-5.1-4.892-8.542-6.573-14.338-6.88-.534-.077-1.068-.84-1.297-1.68-.38-1.376-.84-1.53-2.974-1.147-1.373.306-3.203.535-4.042.612s-2.746.917-4.195 1.9c-2.67 1.758-3.737 1.376-3.813-1.3 0-.6-1.22-2.522-2.67-4.127-1.45-1.68-2.67-3.287-2.67-3.67 0-1.53-2.364-.382-3.966 1.834zm4.877 3.43c1.45 1.376 2.978 3.144 3.283 4.138 1.068 3.516 2.192 4.026 5.853 2.04 1.907-.994 3.82-1.803 4.8-1.803.915 0 2.215-.445 2.75-.98 1.525-1.53 1.348-.604.128 3.37-1.754 5.8.188 1.66-4.388-1.015-.153-.153-1.82 3.74-1.057 2.898s1.252-1.994 1.023-2.223c-.458-.46-7.507 4.002-8.803 5.76-.915 1.223-.7 1.3-2.748.23-2.136-1.146-2.118-1.018-2.118-6.98 0-3.592-.7-6.146-1.17-6.146s-.794 2.835-.794 6.427c0 5.885-.108 5.722-2.014 6.4-2.67 1.07-3.65 1.105-3.192-.042.38-1.147-5.835-7.653-6.674-6.9-.23.306.166 1.924 1.082 2.918s1.24 1.755 1.24 1.984c0 .153-.95-.055-2.703.097-2.67.153-3.165.316-4.614-1.366-1-1.147-1.63-2.28-1.63-2.508 0-1.147 2.87-2.68 4.472-2.68.915 0 1.473-.368 1.473-.75s.596-1 1.283-1.24c1.45-.535 3.012 1.692 3.012 3.68 0 .84.44 1.254 1.05 1.8.915.764 1.658.83 2.344-.928.38-1.07.825-2.248.825-2.4 0-.23.818-1.296 2.038-2.595 1.297-1.223 2.413-2.755 2.413-3.137 0-1.146.155-.733 2.825 1.942zm-23.948 7.317c0 2.064-2.28 3.405-5.8 3.405-2.593 0-6.258 1.67-6.258 2.74 0 .382.673.677 1.435.372.686-.306 2.212-.67 3.432-.9 1.83-.306 1.934-.326 1.934 1.355 0 1.07-.3 2.258-.52 2.946-.534 1.3-3.137 1.525-3.137.302 0-.46-1.023-.702-2.32-.702-1.22 0-2.038-.382-2.038-.84 0-.535-.92-.657-1.987-.35-2.67.688-2.596-.486-.46-2.626 3.9-3.822 7.22-5.864 10.653-6.476 5.415-.917 5.054-1.136 5.054.775zm48.597.062c3.813.6 11.86 6.18 10.868 7.786-.305.382-.6.46-1.677.23-1.068-.306-1.893.004-1.893.538 0 .46-.804.84-2.1.84-1.22 0-2.632-.007-2.632.452 0 1.53-2.18 1.233-2.637-.525-.554-1.623 1.956-2.76 3.493-3.158 2.517.153 4.857-.454 4.857-.76 0-.917-2.288-1.452-6.178-1.452-2.212 0-4.496-.44-5.716-1.206-1.144-.688-1.573-.924-1.837-1.188-.076 0-.25-.6.055-1.508.305-1.223.34-1.543 1.56-1.313.84.23 2.84.785 4.212 1.014zm-44.932 4.402c2.44 2.293 1.838 3.464-1.976 3.54l-3.44.358 2.957 1.22c1.678.46 4.136.997 5.356 2l2.136 1.758-2.44 1.3c-2.974 1.452-3.313.92-6.67-.302-1.525-.535-2.44-.874-2.212-1.485.23-.535.016-1.207-.3-1.36-1.297-.84-.273-4.192 2.015-6.255 1.297-1.146 2.4-2.08 2.63-2.08s1.017.4 1.933 1.32zm40.05.997c1.754 1.605 2.44 3.846 2.06 7.2-.153 1.376-3.102 2.87-5.77 2.87-2.212 0-5.22-2.133-4.46-3.356.23-.46 2.372-1.366 4.355-2.665 2.288-1.53 3.082-3.12 2.167-3.12-.763 0-2.247.472-3 1.237-1.983 1.758-1.365.563.694-1.807s1.6-2.508 3.965-.368zm-48.645 10.304c.458.688 2.874 1.643 5.4 1.873 4.118.46 4.27.05 3.05 1.348-.763.84-3.463 2.147-5.98 3.37-4.195 2.14-4.402 2.373-4.707 1.15-.38-1.987-1.664-2.522-4.486-2.064-2.44.46-7.356-.778-7.356-1.848 0-.994 4.035-4.742 5.56-5.125 2.44-.764 7.612.073 8.527 1.296zM339.18 81c1.22 1.376 2.257 2.27 2.257 2.575 0 1.223-4.3 2.165-7.2 1.706s-4.368.198-4.445 2.185c0 .382-.405.55-1.244.473-2.136-.382-7.966-3.68-9.415-5.284-1.068-1.223-1.3-.688 2.752-1.07 2.44-.23 4.7-.92 4.93-1.38.915-1.452 3.927-2.15 7.13-1.768 2.364.23 3.546.806 5.224 2.564z"/><path d="M300.73 54.52c-.138.363-1.188 1.73-2.32 2.984-1.63 1.84-2.2 2.705-2.653 4.044-.746 2.26-1.188 2.845-1.85 2.454-.608-.363-1.382-1.84-1.74-3.347-.608-2.454-2.653-3.375-4.1-1.813-.47.53-1.16.893-1.85 1.032-1.547.28-2.984 1.06-3.84 2.064-.387.474-.718.976-.718 1.06 0 .112.553.92 1.243 1.785 1.74 2.23 2.404 2.538 5.527 2.4 1.437-.028 2.68-.167 2.8-.307.1-.112-.055-.558-.387-.976-1.4-1.73-2.266-3.235-2-3.514.525-.53 4.974 3.598 6.024 5.606.193.335.332.865.332 1.17 0 .474.166.586.83.586 1.243 0 3.84-1.088 4.2-1.757.193-.362.415-2.8.525-5.773.193-5.048.332-6.136.83-6.136.36 0 .525 1.422.774 6.722l.442 5.27c.36.614 2.708 1.952 3.4 1.952.442 0 1.3-.586 2.515-1.757.995-.948 2.874-2.454 4.173-3.347 3.26-2.203 3.758-2.148 2.073.25-.525.753-.967 1.506-.967 1.674 0 .446 2.625 1.6 3.62 1.6.608 0 1.078-.223 1.52-.725.7-.8 2.238-5.355 2.515-7.335.193-1.395-.083-1.534-1.27-.67-.414.335-1.603.753-2.625.976-1.05.223-3.15.976-4.698 1.673-4.007 1.785-4.587 1.7-5.554-.865-.276-.753-.8-1.87-1.188-2.482-.774-1.255-4.587-5.16-5.03-5.16-.166 0-.414.307-.553.67zm-25.8 8.422c-3.288.642-6.4 2.4-9.837 5.494-1.934 1.757-2.874 3.096-2.653 3.7.138.4.442.446 1.907.28 1.52-.14 1.74-.112 2.128.4.304.418.94.67 2.2.837s1.934.418 2.266.837c.497.614 1.437.725 2.542.28.774-.28 1.27-1.646 1.27-3.542 0-2.26-.497-2.454-3.73-1.45-.995.307-2.128.53-2.515.474-.636-.084-.663-.112-.25-.697.608-.865 3.067-1.7 5.97-2.036 4.2-.474 5.775-1.506 5.775-3.765V62.49l-1.575.028c-.884 0-2.46.195-3.5.418zm48.25-.112c-.138.195-.36.67-.47 1.06-.083.4-.25.892-.304 1.143-.166.586 2.1 2.092 3.924 2.65.7.195 2.93.502 4.946.64 3.5.25 5.25.67 5.25 1.283 0 .167-1.658.307-4.117.363-2.68.056-4.283.195-4.532.4-.276.25-.332.67-.22 1.534.22 1.73.857 2.76 1.85 3.124 1.105.4.94.418 1.713-.418.497-.53 1.078-.753 2.432-.948 1.16-.167 1.88-.418 2.128-.753.276-.4.746-.502 2.2-.502 1.658 0 1.85-.056 1.934-.586.166-1.255-3.924-4.993-7.793-7.112-2.93-1.6-8.262-2.705-8.953-1.87zm-43.164 5.105c-2.128 1.7-3.344 3.486-3.813 5.662-.193.78-.166 1.283.1 1.757.193.362.36 1.004.387 1.422 0 .92.94 1.7 2.846 2.343 2.35.8 4.117.67 6.798-.586l2.32-1.088-1.216-1.088c-1.575-1.395-3.786-2.538-6.632-3.375l-2.266-.64 2.542-.14c2.736-.167 3.896-.67 3.896-1.674 0-.67-2.736-3.57-3.344-3.57-.22 0-.94.446-1.63.976zm39.654 1.31c-1.326 1.478-2.2 2.957-1.962 3.207.083.084.746-.25 1.465-.725 1.354-.92 2.487-1.34 2.763-1.032.276.28-.746 1.227-2.957 2.817-3.592 2.594-3.896 3.04-2.93 4.295.636.837 2.8 1.98 3.73 1.98 1.63 0 4.1-.865 5.195-1.813 1.022-.892 1.022-.892.995-3.096 0-2.677-.8-4.518-2.598-6.08-1.603-1.367-2.155-1.3-3.703.446zm-53.333 8.87c-1.52.474-6.107 4.9-5.858 5.7.138.474 1.85 1.255 3.482 1.562.83.14 2.736.28 4.283.28 3.178 0 3.813.25 4.3 1.813.25.753.47.976.995.976.8 0 7.24-3.3 8.87-4.546 1.105-.865 1.88-1.813 1.658-2.036-.055-.056-1.4-.307-2.984-.53-3.454-.53-4.532-.837-5.665-1.673-.442-.363-1.492-.837-2.266-1.088-1.824-.53-5.72-.78-6.825-.446zm8.732 3.737c3.123.4 4.946.976 4.946 1.618 0 .195-.387.25-1.16.1-.663-.084-3.786-.307-7-.474l-6.466-.586c-.718-.25-.553-.642.387-.865 1.133-.28 6.2-.167 9.285.195zm55.79-3.848c-1.575.307-3.288 1.004-3.758 1.562-.718.78-1.382 1.004-4.504 1.478-4.256.67-4.45.697-4.45.948 0 .92 5.333 4.463 8.65 5.773 2.2.892 2.957.8 3.344-.363.525-1.534.718-1.618 4.974-1.785 3.427-.112 4.1-.223 5.278-.837.746-.363 1.382-.8 1.437-.948.138-.446-2.8-3.877-3.813-4.5a15.49 15.49 0 0 0-1.824-.892c-1.05-.363-4.338-.614-5.333-.446zm.7 3.486c.608.195 2.266.474 3.703.64 2.68.307 3.5.78 1.934 1.116-.47.084-3.565.167-6.853.14l-5.97-.028 1.52-.697c1.686-.78 3.5-1.422 4.145-1.45.22-.028.912.112 1.52.28z" class="B"/><path d="M247.927 307.64h0c11.037 13.402 41.03 14.574 49.47 30.448 12.855-17.046 40.382-19.128 56.482-32.27h0" fill="none" stroke="#d2d2d2" stroke-width="3.109"/><path d="M235.292 148.568c-1.872.75-4.493 1.25-4.992 3.252.125.75 1.498.875 2.62.625-.125-1.376.25-1.876 1.997-1.5-.25-.75.25-1.5.374-2.376h0zm128.422 0c1.872.75 4.493 1.25 4.992 3.252-.125.75-1.498.875-2.62.625.125-1.376-.25-1.876-1.997-1.5.25-.75-.25-1.5-.374-2.376h0zm-54.29 65.035c1.622.5 4.118 1.126 4.493 2.877 0 .75-1.248.75-2.37.625.125-1.25-.25-1.75-1.872-1.5.25-.625-.25-1.376-.25-2h0z" fill="#b68c5b" class="C E"/><path d="M312.545 80.406c1.373 0 2.62.25 3.994.375 8.487 24.513 49.297 24.513 57.784 8.63-4.368-4.002-5.242-7.004-4.743-12.382.374-3.127 1.123-9.38 9.36-9.755 3.12-.125 5.117 2 5.367 11.006.624 14.633-17.597 29.64-34.82 28.64-11.98-.75-37.7-8.38-36.942-26.514h0z" fill="#fff"/><g class="E"><g class="C"><path d="M260.752 187.59c-.25-1.75-.998-3.376-1.747-4.627 0 .25-.998.5-.998.25.75 1.25 1.373 2.876 1.622 4.127.374.25.75.25.998.375h0l.125-.125zM262 143.815c-.25-1.75-.998-3.376-1.747-4.627 0 .25-.998.5-.998.25.75 1.25 1.373 2.877 1.622 4.127.374.25.75.25.998.375h0l.125-.125zm-32.573 12.757c.25-1.75.998-3.377 1.748-4.628 0 .25.998.5.998.25-.75 1.25-1.373 2.876-1.622 4.127-.374.25-.75.25-.998.375h0l-.125-.125z" fill="#0f0"/><path d="M260.003 185.338c.5 0 1.248.375 1.498.5.998 1 2.995 3.127 2.995 4.503 0-1 1.123-3.752.125-4.628-.624-.875-3.87-1-4.618-.375h0zm0 .5c-.624 0-1.248.75-1.622 1.376-.624 1.626-1.747 4.878-1.123 6.504-.5-1.376-2.995-3.752-2.496-5.378.5-1.25 3.994-3 5.242-2.5h0zm-.374-1.126c-.5.25-1.248.876-1.373 1.5-.624 1.5-1.997 4.753-1.123 6.504-.624-1.376-2.995-3.752-2.62-5.503.374-1.376 4.118-3 5.117-2.5h0zm1.622-43.148c.5 0 1.248.375 1.498.5.998 1 2.995 3.127 2.995 4.503 0-1 1.123-3.752.125-4.627-.624-.876-3.87-1-4.618-.375h0zm0 .5c-.624 0-1.248.75-1.622 1.376-.624 1.626-1.747 4.878-1.123 6.503-.5-1.376-2.995-3.752-2.496-5.378.5-1.25 3.994-3 5.242-2.5h0zm-.374-1.125c-.5.25-1.248.875-1.373 1.5-.624 1.5-1.997 4.753-1.123 6.504-.624-1.376-2.995-3.752-2.62-5.503.374-1.376 4.118-3.002 5.117-2.5h0zm-30.7 13.382c-.5 0-1.248.375-1.498.5-.998 1-2.995 3.127-2.995 4.502 0-1-1.123-3.752-.125-4.628.624-.876 3.87-1 4.618-.375h0zm0 .5c.624 0 1.248.75 1.622 1.376.624 1.625 1.747 4.878 1.123 6.503.5-1.376 2.995-3.752 2.496-5.378-.5-1.25-3.994-3-5.242-2.5h0zm.374-1.126c.5.25 1.248.875 1.373 1.5.624 1.5 1.997 4.752 1.123 6.504.624-1.375 2.995-3.752 2.62-5.503-.374-1.376-4.118-3.002-5.117-2.5h0z" class="D"/></g><path d="M259.63 184.838c-.624.125-1.373.625-1.622 1-.75 1-2.122 3.502-1.248 4.503-.624-1-3.494-2.626-2.995-3.752.5-.875 4.618-2.126 5.866-1.75h0zm-.125.125c.624.125 1.373.875 1.622 1.626.624 1.376 1.872 4.753 1.123 6.378.624-1.25 2.995-3.627 2.62-5.378-.5-1.25-4.118-3.127-5.367-2.626h0zm1.373-43.9c-.624.125-1.373.625-1.622 1-.75 1-2.122 3.502-1.248 4.503-.624-1-3.494-2.627-2.995-3.752.5-.875 4.618-2.126 5.866-1.75h0zm-.125.125c.624.125 1.373.875 1.622 1.626.624 1.376 1.872 4.753 1.123 6.38.624-1.25 2.995-3.627 2.62-5.378-.5-1.25-4.118-3.127-5.367-2.626h0zM230.55 153.82c.624.125 1.373.626 1.622 1 .75 1 2.122 3.502 1.248 4.502.624-1 3.494-2.627 2.995-3.752-.5-.875-4.618-2.126-5.866-1.75h0zm.125.125c-.624.125-1.373.876-1.622 1.626-.624 1.376-1.872 4.753-1.124 6.378-.624-1.25-2.995-3.627-2.62-5.378.5-1.25 4.118-3.127 5.367-2.626h0z" class="D F"/><g class="C"><path d="M338.63 187.59c.25-1.75.998-3.376 1.747-4.627 0 .25.998.5.998.25-.75 1.25-1.373 2.876-1.622 4.127-.374.25-.75.25-.998.375h0l-.125-.125zm-1.248-43.774c.25-1.75.998-3.376 1.747-4.627 0 .25.998.5.998.25-.75 1.25-1.373 2.877-1.622 4.127-.374.25-.75.25-.998.375h0l-.125-.125zm32.573 12.757c-.25-1.75-.998-3.377-1.747-4.628 0 .25-.998.5-.998.25.75 1.25 1.373 2.876 1.622 4.127.374.25.75.25.998.375h0l.125-.125z" fill="#0f0"/><path d="M339.377 185.338c-.5 0-1.248.375-1.498.5-.998 1-2.995 3.127-2.995 4.503 0-1-1.123-3.752-.125-4.628.624-.875 3.87-1 4.618-.375h0zm0 .5c.624 0 1.248.75 1.622 1.376.624 1.626 1.747 4.878 1.123 6.504.5-1.376 2.995-3.752 2.496-5.378-.5-1.25-3.994-3-5.242-2.5h0zm.374-1.126c.5.25 1.248.876 1.373 1.5.624 1.5 1.997 4.753 1.123 6.504.624-1.376 2.995-3.752 2.62-5.503-.374-1.376-4.118-3-5.117-2.5h0zm-1.622-43.148c-.5 0-1.248.375-1.498.5-.998 1-2.995 3.127-2.995 4.503 0-1-1.123-3.752-.125-4.627.624-.876 3.87-1 4.618-.375h0zm0 .5c.624 0 1.248.75 1.622 1.376.624 1.626 1.747 4.878 1.123 6.503.5-1.376 2.995-3.752 2.496-5.378-.5-1.25-3.994-3-5.242-2.5h0zm.374-1.125c.5.25 1.248.875 1.373 1.5.624 1.5 1.997 4.753 1.123 6.504.624-1.376 2.995-3.752 2.62-5.503-.374-1.376-4.118-3.002-5.117-2.5h0zm30.7 13.382c.5 0 1.248.375 1.498.5.998 1 2.995 3.127 2.995 4.502 0-1 1.123-3.752.125-4.628-.624-.876-3.87-1-4.618-.375h0zm0 .5c-.624 0-1.248.75-1.622 1.376-.624 1.625-1.747 4.878-1.123 6.503-.5-1.376-2.995-3.752-2.496-5.378.5-1.25 3.994-3 5.242-2.5h0zm-.374-1.126c-.5.25-1.248.875-1.373 1.5-.624 1.5-1.997 4.752-1.123 6.504-.624-1.375-2.995-3.752-2.62-5.503.374-1.376 4.118-3.002 5.117-2.5h0z" class="D"/></g><path d="M339.752 184.838c.624.125 1.373.625 1.622 1 .75 1 2.122 3.502 1.248 4.503.624-1 3.494-2.626 2.995-3.752-.5-.875-4.618-2.126-5.866-1.75h0zm.125.125c-.624.125-1.373.875-1.622 1.626-.624 1.376-1.872 4.753-1.123 6.378-.624-1.25-2.995-3.627-2.62-5.378.5-1.25 4.118-3.127 5.367-2.626h0zm-1.373-43.9c.624.125 1.373.625 1.622 1 .75 1 2.122 3.502 1.248 4.503.624-1 3.494-2.627 2.995-3.752-.5-.875-4.618-2.126-5.866-1.75h0zm.125.125c-.624.125-1.373.875-1.622 1.626-.624 1.376-1.872 4.753-1.123 6.38-.624-1.25-2.995-3.627-2.62-5.378.5-1.25 4.118-3.127 5.367-2.626h0zm30.202 12.632c-.624.125-1.373.626-1.622 1-.75 1-2.122 3.502-1.248 4.502-.624-1-3.494-2.627-2.995-3.752.5-.875 4.618-2.126 5.866-1.75h0zm-.125.125c.624.125 1.373.876 1.622 1.626.624 1.376 1.872 4.753 1.123 6.378.624-1.25 2.995-3.627 2.62-5.378-.5-1.25-4.118-3.127-5.367-2.626h0z" class="D F"/><g class="C"><path d="M284.1 251.75c.25-1.75.998-3.377 1.747-4.627 0 .25.998.5.998.25-.75 1.25-1.373 2.877-1.622 4.127-.374.25-.75.25-.998.375h0l-.125-.125zm-1.248-43.774c.25-1.75.998-3.377 1.747-4.627 0 .25.998.5.998.25a14.19 14.19 0 0 0-1.622 4.128c-.374.25-.75.25-.998.375h0l-.125-.125zm32.573 12.757c-.25-1.75-.998-3.377-1.747-4.627 0 .25-.998.5-.998.25.75 1.25 1.373 2.877 1.622 4.128.374.25.75.25.998.375h0l.125-.125z" fill="#0f0"/><path d="M284.84 249.498c-.5 0-1.248.375-1.498.5-.998 1-2.995 3.127-2.995 4.502 0-1-1.123-3.752-.125-4.627.624-.876 3.87-1 4.618-.375h0zm0 .5c.624 0 1.248.75 1.622 1.376.624 1.626 1.747 4.878 1.123 6.503.5-1.376 2.995-3.752 2.496-5.378-.5-1.25-3.994-3.002-5.242-2.5h0zm.374-1.126c.5.25 1.248.875 1.373 1.5.624 1.5 1.997 4.752 1.123 6.503.624-1.376 2.995-3.752 2.62-5.503-.374-1.376-4.118-3.002-5.117-2.5h0zm-1.622-43.15c-.5 0-1.248.375-1.498.5-.998 1-2.995 3.127-2.995 4.502 0-1-1.123-3.752-.125-4.627.624-.875 3.87-1 4.618-.375h0zm0 .5c.624 0 1.248.75 1.622 1.376.624 1.625 1.747 4.877 1.123 6.504.5-1.376 2.995-3.752 2.496-5.378-.5-1.25-3.994-3.002-5.242-2.5h0zm.374-1.126c.5.25 1.248.875 1.373 1.5.624 1.5 1.997 4.752 1.123 6.503.624-1.376 2.995-3.752 2.62-5.503-.374-1.376-4.118-3.002-5.117-2.5h0zm30.7 13.382c.5 0 1.248.375 1.498.5.998 1 2.995 3.126 2.995 4.502 0-1 1.123-3.752.125-4.627-.624-.875-3.87-1-4.618-.375h0zm0 .5c-.624 0-1.248.75-1.622 1.375-.624 1.626-1.747 4.878-1.123 6.504-.5-1.376-2.995-3.752-2.496-5.378.5-1.25 3.994-3.002 5.242-2.5h0zm-.374-1.126c-.5.25-1.248.876-1.373 1.5-.624 1.5-1.997 4.753-1.123 6.504-.624-1.376-2.995-3.752-2.62-5.503.374-1.375 4.118-3 5.117-2.5h0z" class="D"/></g><path d="M285.213 248.997c.624.125 1.373.626 1.622 1 .75 1 2.122 3.502 1.248 4.502.624-1 3.494-2.627 2.995-3.752-.5-.876-4.618-2.126-5.866-1.75h0zm.125.125c-.624.125-1.373.876-1.622 1.626-.624 1.376-1.872 4.752-1.123 6.378-.624-1.25-2.995-3.627-2.62-5.378.5-1.25 4.118-3.127 5.366-2.627h0zm-1.373-43.9c.624.125 1.373.625 1.622 1 .75 1 2.122 3.502 1.248 4.502.624-1 3.494-2.626 2.995-3.752-.5-.876-4.618-2.126-5.866-1.75h0zm.125.125c-.624.125-1.373.876-1.622 1.626-.624 1.376-1.872 4.752-1.123 6.38-.624-1.25-2.995-3.627-2.62-5.378.5-1.25 4.118-3.127 5.367-2.627h0zm30.202 12.632c-.624.125-1.373.625-1.622 1-.75 1-2.122 3.5-1.248 4.502-.624-1-3.494-2.626-2.995-3.752.5-.876 4.618-2.126 5.866-1.75h0zm-.125.125c.624.125 1.373.876 1.622 1.626.624 1.376 1.872 4.752 1.123 6.38.624-1.25 2.995-3.627 2.62-5.378-.5-1.25-4.118-3.127-5.367-2.627h0z" class="D F"/></g><g fill="#ffd300"><path d="M365.708 365.44c-11.487 13.986-17.235 9.052-29.552 5.35-12.3-3.708-25.444-9.87-37.347-12.745-11.903-2.884-41.462-4.95-59.52-5.767-16.717-.767-22.523-7.512-22.975-12.745.117-.036 5.3-1.365 16.135-.285 10.948 1.102 11.495.832 13.68-2.467a16.24 16.24 0 0 0 1.493-2.737c1.042-.723 1.522-1.767 1.522-3.146 0-4.124-2.877-10.278-32.43-10.278-10.038 0-17.453-.343-23.113-.9l8.748-22.564c2.666-7.402-9.644-8.628-9.644-8.628-11.495 0-20.323.197-26.063-1.24-10.832-2.708-19.296-3.694-35.708-2.876-16.42.825-29.552.825-51.72-5.76 2.054 8.44 18.473 19.943 18.473 19.943l-25.86 11.935 7.386 1.854c22.166 6.585 35.3 6.585 51.72 5.76 12.522-.628 20.41-.204 28.256 1.24l-5.718 18.403c10.366 10.767 17.562 16.425 50.247 19.563l-6.286 7.957 1.355.27c11.77 16.184 18.335 21.38 45.702 21.943 27.36.54 39.954.27 61.02 9.862 21.074 9.6 30.733 12.95 47.42 8.015 0 0 .3.87 3.33-6.278 3.41-8.037 4.254-23.396 7.532-26.148 3.285-2.737 7.663-10.417 7.663-10.417l-5.747 2.876"/><path d="M441.24 328.283c3.555 1.642 7.386 2.738 18.88-.555 11.487-3.278 44.87-9.037 62.383-7.672-6.84-6.03-24.898-15.08-24.898-15.08l18.335-15.08s-4.655.27-11.218-1.372c-19.427-5.475-38.04.825-54.457 7.687-3.25 1.35-5.93 2.38-8.158 3.146l-3.883-13.57s-6.68-4.876-22.516.43c-14.452 4.862-17.708 12.73-16.885 14.643.823 1.92 7.663 14.81 7.663 14.81l-.16.467c-6.024 2.825-13.855 5.694-23.375 8.57-27.1 8.24-33.107 12.06-57.19 29.63l6.294 15.08 13.134 4.1s3.285 1.095 6.017.825l.335.212c13.702-9.366 22.07-13.09 42.905-19.417 27.1-8.227 40.493-16.184 37.485-23.856l-4.647-12.614s6.017-3.562 8.48-2.467l5.478 12.06"/></g><g fill="#fff"><path d="M161.1 314.64l3.198-11.22c.46-2.752 4.75-4.446 16.776-2.694 8.3 1.212 14.94 2.54 18.7-.496l.168-.073c.495-5.35-7.03-4.832-7.03-4.832h-.204c-11.495 0-20.323.197-26.063-1.24-10.84-2.708-19.296-3.708-35.715-2.883-15.042.76-27.338.818-46.343-4.234 3.693 4.52 13.097 11.44 13.097 11.44l-18.473 8.84c22.166 6.584 35.3 6.584 51.72 5.76 13.563-.686 21.693-.117 30.215 1.606m56.414 24.2c2.82-.555 7.982-.632 13.963.207 9.3 1.343 12.742.44 13.488-.753l-6.087 14.016s-23.684.27-22.6-13.16"/><path d="M370.97 363.257l-4.92 7.03c-9.003 12.102-20.1 8.4-32.765 5.43-12.318-3.686-25.45-9.862-37.354-12.746-11.903-2.876-41.455-4.927-59.513-5.76-18.065-.825-23.397-8.636-23-13.986.05-.628.168-1.183.35-1.664l3.038-5.417.452-.6c2.025-2.518 7.255-2.248 16.273-.95 5.747.8 9.644.927 12.114.3l.204-.715c0-4.117-2.462-8.643-32.015-8.643s-36.327-2.876-42.897-5.76c-3.868-1.694-9.448-7.33-8.392-10.994l-6.658 21.688c11.218 11.804 16.623 17.826 50.83 21.118l-5.747 8.512c11.764 16.17 18.335 21.38 45.694 21.93 27.367.555 39.954.27 61.028 9.862 21.066 9.614 31.44 12.8 48.127 7.855m-190.913-93.17c1.522 3.307 5.973 6.97 8.9 8.256 4.37 1.92 8.836 3.832 20.068 4.898l-.03.03 6.425-17.46c-2.66 7.395-11.342 5.446-21.948 3.9m260.705 16.038c3.555 1.657 7.386 2.752 18.88-.54 11.495-3.278 38.723-9.183 56.235-7.8l-17.27-8.3 12.704-10.22a46.59 46.59 0 0 1-2.41-.533c-19.427-5.5-38.04.818-54.458 7.672-16.42 6.862-18.335 5.5-20.52 3.007l-4.378-8.497s.27-3.832 3.555-5.205l3.832-1.65s-3.555-4.935-17.242 0c-13.68 4.927-14.503 11.25-14.226 12.344 0 0 2.74-.27 5.47-1.365 2.74-1.102 9.3-4.935 11.225-.27 1.908 4.657 1.908 5.614 1.908 5.614 3.016 7.672-10.664 15.213-37.755 23.44s-32.568 11.52-56.65 29.068l3.832 10.424 12.565 3.905c17.125-12.176 24.818-16.008 48.186-23.097 27.1-8.227 40.5-16.184 37.485-23.863l-4.378-12.067s4.93-4.373 7.94-3.292l5.47 11.25"/></g><path d="M170.073 330.466c-1.23 1.7-1.384 4.022.575 5.278.357.226.918.358 1.318.358l-.277-3.022 2.185 1.168.16 1.606c.845-.27 1.66-.993 2.17-1.708 1.202-1.65 1.275-4.175-.517-5.33-1.945-1.24-4.334-.102-5.616 1.65l-1.974-1.438c2.07-2.854 5.973-4.037 8.967-2.1 2.987 1.913 3.25 5.745 1.173 8.614-1.005 1.365-2.375 2.4-3.904 2.905l.197 2.57-2.156-1.102-.087-1.3c-1.02.015-2.105-.336-3.038-.934-2.994-1.913-3.285-5.723-1.15-8.643l1.974 1.438m16.9.69l2.484.24-1.952 6.548c-.43 1.438-.903 3.5 1.2 3.686 2.105.204 2.848-1.8 3.285-3.263l1.952-6.54 2.484.24-2.1 7c-.852 2.847-2.812 4.876-6.228 4.562-3.416-.343-4.087-2.62-3.234-5.475l2.083-7m16.09 12.945l-2.528-.05 2.52-11.753 2.528.058-2.52 11.745m9.892 23.33l-1.98-1.387 5.878-8.44-2.047-1.424 1.202-1.73 6.06 4.234-1.195 1.73-2.047-1.43-5.87 8.446m16.127-2.387l-1.122 2.102.306.08c1.297.4 2.397.33 3.103-1.007.72-1.358-.087-1.898-1.333-2.285l-.32-.102-.634 1.212-2.375-.664 1.588-2.993 3.183.95c2.382.73 3.518 2.183 2.273 4.533-.743 1.387-2.33 2.526-4.08 2.285l.954 5.657-2.848-.854-.575-5.3-.036-.015-2.346 4.416-2.353-.715 4.24-7.964 2.375.664m14.56 4.212l-1.442 2.504 2.972.234-.488-4.497h-.03l-1.013 1.76-2.07-.584 3.147-4.767 1.894.146 1.72 12.702-2.608-.182-.342-2.628-4.35-.33-1.654 2.467-2.58-.197 4.77-7.212 2.07.584m13.437-4.78l1.777.102 4.78 8.767h.022l1.785-8.095 2.455.124-2.702 12.293-1.77-.102-4.77-8.767h-.036l-1.8 8.183-2.455-.124 2.717-12.38m23.212 4.664c-.3-.642-.794-1.08-1.603-1.153-.772-.088-1.675.4-1.887 1.183-.546 2.022 4.618 1.68 3.526 5.7-.656 2.4-2.673 3.95-5.216 3.694-1.72-.168-2.717-1.256-3.198-2.723l1.974-1.314c.08.942.728 1.87 1.77 1.97 1 .095 1.82-.657 2.076-1.57.335-1.24-.758-1.708-1.632-2.183-1.428-.796-2.4-1.694-1.887-3.548.546-2 2.52-3.453 4.618-3.24 1.107.117 2.5.803 3.038 1.686l-1.58 1.496m8.83 11.134l-2.36-.453 3.657-9.825-2.433-.467.743-2.015 7.233 1.416-.743 1.993-2.44-.467-3.657 9.818m11.335-9.8l2.244.883-2.55 6.453c-.568 1.416-1.238 3.467.67 4.226 1.908.767 2.826-1.2 3.387-2.613l2.542-6.46 2.244.898-2.717 6.9c-1.114 2.8-3.147 4.475-6.228 3.248s-3.43-3.832-2.316-6.643l2.724-6.898m13.09 16.506l3.154 1.314-.8 1.942-5.383-2.24 4.735-11.446 2.23.927-3.926 9.504m10.286 6.263l-2.273-.818 4.16-11.672 2.273.796-4.16 11.694m10.263 2.606l-2.4-.467 2.826-9.752-2.5-.5.575-1.993 7.394 1.453-.575 1.986-2.5-.5-2.826 9.767m9.903-39.52c-.707-.328-1.413-.387-2.12.015-.67.372-1.027 1.255-.634 1.97 1.02 1.8 4.873-1.358 6.906 2.278 1.2 2.168.72 4.46-1.486 5.687-1.48.847-3.052.584-4.494-.24l.62-2.095c.743.672 1.916.986 2.82.482.86-.482.976-1.5.517-2.336-.626-1.1-1.836-.854-2.863-.708-1.705.197-3.118.066-4.05-1.613-1.005-1.78-.48-3.978 1.333-5.008.954-.54 2.55-.8 3.62-.453l-.168 2.022m4.093-5.418l2.134-1.14 3.263 6.117c.714 1.336 1.843 3.175 3.657 2.22 1.807-.97.9-2.935.2-4.292l-3.256-6.117 2.127-1.14 3.482 6.548c1.42 2.68 1.37 5.3-1.56 6.855-2.92 1.57-5.128.16-6.55-2.5l-3.5-6.54m19.466-6.818c-.677-.365-1.377-.467-2.105-.14-.7.33-1.122 1.183-.78 1.913.88 1.9 4.96-.986 6.716 2.788 1.056 2.24.4 4.497-1.887 5.563-1.552.73-3.096.358-4.473-.555l.765-2.05c.7.708 1.85 1.124 2.783.68.896-.4 1.093-1.423.685-2.292-.54-1.168-1.763-.986-2.797-.913-1.72.073-3.1-.175-3.926-1.898-.867-1.87-.2-4.022 1.697-4.905.998-.467 2.608-.628 3.65-.183l-.32 1.993m13.242 4.92l-2.244.883-3.773-9.563-2.316.913-.772-1.956 6.884-2.723.772 1.956-2.316.912 3.766 9.577m8.413-3.036l-2.28.788-4-11.738 2.287-.78 3.992 11.73m.635-13.6l1.64-.584 9.018 6.03.022-.015-2.746-7.87 2.265-.8 4.18 11.942-1.64.57-9-6h-.03l2.783 7.957-2.28.796-4.203-12.015"/><g fill="#fff"><path d="M286.087 81.907c1.747 6.878 15.975 6.378 19.095 6.128h0l13.104-3.752-.375.22c3.994 10.255 19.22 16.04 31.576 15.915 12.106-.125 20.093-4.002 24.96-11.006-4.243-4.503-5.367-5.88-4.867-13.758.374-4.502 4.243-8.254 8.61-8.38 4.992-.125 9.235 3.877 12.855 7.38 5.74 5.503 10.234 12.007 16.474 16.885 5.74 4.752 12.106 4.627 17.348 8.254 5.616 4.002 11.856 10.38 14.352 16.76 2.122 5.503-1.747 11.38-5.367 11.38-4.118 0-8.487-3.627-7.738-7.004-7.24-5.378-21.216 6.128-24.586 18.5-4.493 16.133 2.37 33.518 10.608 40.522-2.62 6.878-11.73 12.63-16.474 17.01-1.747 6.38.75 15.258 6.115 19.26 6.365 1 16.973.75 23.837 1.25 3.12 1.126 2.496 5.378 3.37 8.63 1.123 4.252 3.245 9.13 2.62 13.757-2.122 14.383-6.615 26.64-20.218 36.02-7.114 4.752-12.98 8.004-21.216 11.006-3.62-3.252-6.864-8.005-10.858-9.88-12.855-.25-28.58 6.38-32.948 15.758-2.122 4.627 3.37 9.63 9.6 14.758-13.104 9.505-28.58 14.258-42.932 20.76-4.867 2.252-9.235 5.503-16.474 13.883-7.488-9.005-11.357-12.882-18.346-16.134-12.355-5.628-27.207-8.88-36.567-18.5 5.74-3.377 9.235-6.128 10.11-11.38-7.987-10.13-17.348-20.886-29.703-24.013-4.118 1.626-9.36 8.88-12.605 14.258-30.452-6.38-55.163-40.022-39.188-67.787 3.494 1.375 8.61 3.877 12.855 1.625 7.988-5.003 17.472-11.38 18.096-20.76-.25-9.005-7.114-15.384-15.226-19.51 5.367-3.877 11.232-17.635 11.607-27.515.374-9.255-4.742-17.76-9.6-25.64-2.246-3.877-7.488-7.38-10.608-8.505-1.373 2.126-6.864 6.88-10.983 7.13-4.118.125-10.11-3.252-10.11-7.504 0-3.25 1.373-8.38 5.117-10.63 10.234-6.253 22.215-10.38 31.575-17.884 5.616-4.628 8.237-12.882 14.103-17.635 2.246-1.75 4.742-3.627 7.113-4.252 6.048 25.367 15.044 28.424 27.67 32.71 13.853 1.626 32.234-4.195 44.215-18.327z"/><path d="M282.717 80.53c-1.872 11.63-21.738 18.93-33.22 19.34-11.414-.82-19.945-5.958-26.81-13.462 2.745-.625 5.865-6.504 5.49-11.13-.125-3.752-3.62-7.63-7.24-8.254-2.746-.5-4.493-.375-6.74.5-5.366 27.015 22.464 38.77 36.567 38.396 14.103-.5 35.04-10.818 34.04-24.95v-.28l-2.09-.156z"/></g><path d="M407.498 328.4l1.093 2.5 3.518-1.555.845 1.927-3.518 1.548 1.34 3.066 3.65-1.6.845 1.92-5.857 2.57-4.975-11.35 5.864-2.577.845 1.92-3.65 1.613m16.87 2.618l-2.098 1.197-3.832-9.577-2.17 1.226-1.027-1.825 6.44-3.65 1.034 1.825-2.17 1.24 3.824 9.563M354.716 301c.08.102-.08.168-.16.255h-.087v-.24l.248-.015m-.154 1.08l-.168-.24c.16-.168.495.16.168.24"/><path d="M355.546 301.82h0"/><path d="M401.98 306.673c1.595 2.46 6.312.7 11.483-1.508 3.318-.944 6.285-1.8 5.97.385-.4 3.72-12.684 10.116-13.07 9.3-1.473-3.068-1.578-3.426-4.383-8.187zm39.38-7.713l-4.377 1.384c-2.7.14-5.42 1.2-5.353-1.747 1.583-3.038 8.028-5.654 8.066-5.533l1.664 5.896zM172.742 102.265l9.816-5.143c9.584-6.05 10.665-6.093 15.643-12.323 6.507-8.143 2.63-5.83 8.942-12.18.868 10.6 19.44 40.414 39.286 40.198 24.37-.023 39.405-15.202 44.022-24.832 5.773-.366 11.528-.704 17.472-.25 5.367 15.508 25.46 25.4 41.8 25.264 17.722-.125 41.434-11.63 39.438-39.772 25.76 33.587 24.32 15.542 44.804 35.77-37.395-2.887-64.523 47.754-33.697 83.523-4.338 5.414-6.744 13.015-3.067 13.425l15.117 13.5c31.158 29.048-9.428 53.13-29.77 58.633L351.73 299.6h-8.487c-9.735 11.506-34.196 11.756-45.803 25.64-14.976-17.26-33.946-11.756-42.183-27.015h0-5.367s-15.243-7.375-38.837-20c-27.32-12.575-39.46-20.246-29.566-54.653 24.408-16.195 22.635-24.825 17.235-34.907 19.73-29.482 20.286-71.152-29.452-84.762l3.473-1.638z" fill="#fff"/><g class="C E"><path d="M263.123 187.714c.874-1.376 2.122-1.626 3.245-1 .998.5 1.498 2.25.25 3.377 2.246.75 1.997 4.002-.374 4.252 1.747.876 1.747 3.752-.624 4.128 1.123 1.25.374 3.252-.998 3.752.125.75-.374 1.5-1.248 1.876.5 1 .25 1.876-.374 2.5-.125.75-.624 1.126-1.123 1.5-.25.875-.998 1.626-2.122 1.626s-2.122-.876-2.122-2.126c-1.747-1-1.373-2.877 0-3.752-1.872-.75-2.122-2.752-.874-3.627-.374-.5-.5-1-.5-1.5-.998-.625-1.373-1.75-.874-2.627-1.997-.5-2.246-2.5-1.373-3.502-1.498-1.126-.874-3.252.5-3.752-.25-1.25.75-2.25 1.872-2.377.75-.125 1.622.25 1.997.876.624-.375 1.747-.125 2.37.625.5-.375 1.498-.75 2.37-.25h0zm1.248-43.774c.874-1.375 2.122-1.625 3.245-1 .998.5 1.498 2.25.25 3.376 2.246.75 1.997 4.002-.374 4.252 1.747.876 1.747 3.752-.624 4.128 1.123 1.25.374 3.252-.998 3.752.125.75-.374 1.5-1.248 1.876.5 1 .25 1.876-.374 2.5-.125.75-.624 1.126-1.123 1.5-.25.875-.998 1.625-2.122 1.625s-2.122-.875-2.122-2.126c-1.747-1-1.373-2.877 0-3.752-1.872-.75-2.122-2.752-.874-3.627-.374-.5-.5-1-.5-1.5-.998-.625-1.373-1.75-.874-2.626-1.997-.5-2.246-2.5-1.373-3.502-1.498-1.125-.874-3.25.5-3.752-.25-1.25.75-2.252 1.872-2.376.75-.125 1.622.25 1.997.875.624-.375 1.747-.125 2.37.625.5-.375 1.498-.75 2.37-.25h0zm-37.316 12.757c-.874-1.376-2.122-1.626-3.245-1-.998.5-1.497 2.25-.25 3.377-2.246.75-1.997 4.002.374 4.252-1.747.875-1.747 3.752.624 4.127-1.123 1.25-.374 3.252.998 3.752-.125.75.374 1.5 1.248 1.876-.5 1-.25 1.876.374 2.5.125.75.624 1.126 1.123 1.5.25.875.998 1.626 2.122 1.626s2.122-.875 2.122-2.126c1.747-1 1.373-2.877 0-3.752 1.872-.75 2.122-2.75.874-3.627.374-.5.5-1 .5-1.5.998-.625 1.373-1.75.874-2.626 1.997-.5 2.246-2.5 1.373-3.502 1.498-1.126.874-3.252-.5-3.752.25-1.25-.75-2.25-1.872-2.376-.75-.125-1.622.25-1.997.875-.624-.375-1.747-.125-2.37.626-.5-.375-1.498-.75-2.37-.25h0zm109.202 31.017c-.874-1.376-2.122-1.626-3.245-1-.998.5-1.498 2.25-.25 3.377-2.246.75-1.997 4.002.374 4.252-1.747.876-1.747 3.752.624 4.128-1.123 1.25-.374 3.252.998 3.752-.125.75.374 1.5 1.248 1.876-.5 1-.25 1.876.374 2.5.125.75.624 1.126 1.123 1.5.25.875.998 1.626 2.122 1.626s2.122-.876 2.122-2.126c1.747-1 1.373-2.877 0-3.752 1.872-.75 2.122-2.752.874-3.627.374-.5.5-1 .5-1.5.998-.625 1.373-1.75.874-2.627 1.997-.5 2.246-2.5 1.373-3.502 1.498-1.126.874-3.252-.5-3.752.25-1.25-.75-2.25-1.872-2.377-.75-.125-1.622.25-1.997.876-.624-.375-1.747-.125-2.37.625-.5-.375-1.498-.75-2.37-.25h0zm-1.248-43.774c-.874-1.375-2.122-1.625-3.245-1-.998.5-1.498 2.25-.25 3.376-2.246.75-1.997 4.002.374 4.252-1.747.876-1.747 3.752.624 4.128-1.123 1.25-.374 3.252.998 3.752-.125.75.374 1.5 1.248 1.876-.5 1-.25 1.876.374 2.5.125.75.624 1.126 1.123 1.5.25.875.998 1.625 2.122 1.625s2.122-.875 2.122-2.126c1.747-1 1.373-2.877 0-3.752 1.872-.75 2.122-2.752.874-3.627.374-.5.5-1 .5-1.5.998-.625 1.373-1.75.874-2.626 1.997-.5 2.246-2.5 1.373-3.502 1.498-1.125.874-3.25-.5-3.752.25-1.25-.75-2.252-1.872-2.376-.75-.125-1.622.25-1.997.875-.624-.375-1.747-.125-2.37.625-.5-.375-1.498-.75-2.37-.25h0zm37.316 12.757c.874-1.376 2.122-1.626 3.245-1 .998.5 1.498 2.25.25 3.377 2.246.75 1.997 4.002-.374 4.252 1.747.875 1.747 3.752-.624 4.127 1.123 1.25.374 3.252-.998 3.752.125.75-.374 1.5-1.248 1.876.5 1 .25 1.876-.374 2.5-.125.75-.624 1.126-1.123 1.5-.25.875-.998 1.626-2.122 1.626s-2.122-.875-2.122-2.126c-1.747-1-1.373-2.877 0-3.752-1.872-.75-2.122-2.75-.874-3.627-.374-.5-.5-1-.5-1.5-.998-.625-1.373-1.75-.874-2.626-1.997-.5-2.246-2.5-1.373-3.502-1.498-1.126-.874-3.252.5-3.752-.25-1.25.75-2.25 1.872-2.376.75-.125 1.622.25 1.997.875.624-.375 1.747-.125 2.37.626.5-.375 1.498-.75 2.37-.25h0z" fill="#b400b4"/><path d="M259.005 205.224c-.5 1.876.874 3.752 2.37 3.377-.998 1.25-3.37 1-3.87-1-.374-.625.25-2.126 1.498-2.376h0zm1.498-1.626c-.5 1.626 1.248 3.002 2.746 2.75-.998 1.25-3.37.876-3.87-.875-.374-.625-.125-1.75 1.123-1.876h0zm1.373-3.502c-.5 1.75.874 3.627 2.37 3.252-1.123 1.375-3.37 1-3.87-.876-.374-.75.125-2.25 1.498-2.376h0zm-3.994-3.5c-.624 1.75.874 3.627 2.37 3.252-1.123 1.5-3.37 1-3.994-.876-.25-.75.25-2.126 1.622-2.376h0zm2.746-1.626c-.5 1.876.874 3.752 2.496 3.25-1.123 1.376-3.494 1-3.994-.75-.374-.75.25-2.25 1.498-2.5h0zm-3.62-2.25c-.624 1.876.874 3.126 2.37 2.75-1.123 1.5-3.37 1-3.994-.875-.25-.75.25-1.626 1.622-1.876h0zm6.115-.125c-.624 1.75.874 3.502 2.37 3.252-1.123 1.376-3.37 1-3.994-.875-.25-.75.25-2.25 1.622-2.377h0zm-3.37-2.376c-.5 1.876.25 3.376 1.747 3.126-.998 1.376-2.746 1.126-3.245-.625-.25-.876.25-2.252 1.498-2.5h0zm-5.117-1.376c-.5 1.876.874 3.752 2.496 3.376-1.123 1.376-3.494.876-3.994-.875-.374-.75.25-2.252 1.498-2.5h0zm1.248-2.25c-.5 1.876.874 3.627 2.37 3.377-1.123 1.376-3.37 1-3.87-.876-.374-.75.125-2.376 1.498-2.5h0zm5.74 1c-.5 1.75.874 3.627 2.37 3.377-.998 1.376-3.37.875-3.87-.876-.374-.75.25-2.376 1.498-2.5h0zm2.995-1.126c-.624 1.876.874 3.627 2.37 3.377-1.123 1.375-3.37 1-3.87-.876-.374-.75.125-2.25 1.498-2.5h0zm-4.368-25.013c-.5 1.876.874 3.752 2.37 3.377-.998 1.25-3.37 1-3.87-1-.374-.625.25-2.126 1.498-2.376h0zm1.498-1.626c-.5 1.626 1.248 3.002 2.746 2.752-.998 1.25-3.37.875-3.87-.876-.374-.625-.125-1.75 1.123-1.876h0zm1.373-3.502c-.5 1.75.874 3.627 2.37 3.252-1.123 1.376-3.37 1-3.87-.875-.374-.75.125-2.25 1.498-2.377h0zm-3.994-3.502c-.624 1.75.874 3.627 2.37 3.252-1.123 1.5-3.37 1-3.994-.876-.25-.75.25-2.126 1.622-2.376h0zm2.746-1.626c-.5 1.876.874 3.752 2.496 3.252-1.123 1.376-3.494 1-3.994-.75-.374-.75.25-2.25 1.498-2.5h0zm-3.62-2.25c-.624 1.876.874 3.127 2.37 2.75-1.123 1.5-3.37 1-3.994-.875-.25-.75.25-1.626 1.622-1.876h0zm6.115-.125c-.624 1.75.874 3.502 2.37 3.252-1.123 1.376-3.37 1-3.994-.875-.25-.75.25-2.25 1.622-2.377h0zm-3.37-2.376c-.5 1.876.25 3.377 1.747 3.127-.998 1.376-2.746 1.126-3.245-.625-.25-.875.25-2.25 1.498-2.5h0zm-5.117-1.375c-.5 1.876.874 3.752 2.496 3.376-1.123 1.376-3.494.876-3.994-.875-.374-.75.25-2.25 1.498-2.5h0zm1.248-2.252c-.5 1.876.874 3.627 2.37 3.377-1.123 1.376-3.37 1-3.87-.876-.374-.75.125-2.376 1.498-2.5h0zm5.74 1c-.5 1.75.874 3.627 2.37 3.377-.998 1.375-3.37.875-3.87-.876-.374-.75.25-2.376 1.498-2.5h0zm2.995-1.125c-.624 1.876.874 3.627 2.37 3.377-1.123 1.376-3.37 1-3.87-.875-.374-.75.125-2.25 1.498-2.5h0zm-34.695 31.517c.5 1.876-.874 3.752-2.372 3.376.998 1.25 3.37 1 3.87-1 .374-.625-.25-2.126-1.497-2.376h0zm-1.498-1.626c.5 1.626-1.248 3-2.745 2.752.998 1.25 3.37.875 3.87-.876.375-.625.125-1.75-1.123-1.876h0zm-1.373-3.502c.5 1.75-.874 3.627-2.37 3.252 1.123 1.376 3.37 1 3.87-.875.374-.75-.125-2.25-1.498-2.377h0zm3.994-3.502c.624 1.75-.874 3.627-2.37 3.252 1.123 1.5 3.37 1 3.994-.875.25-.75-.25-2.126-1.622-2.377h0zm-2.746-1.625c.5 1.876-.874 3.752-2.496 3.252 1.123 1.376 3.494 1 3.994-.75.374-.75-.25-2.25-1.498-2.5h0zm3.62-2.252c.624 1.876-.874 3.127-2.37 2.75 1.123 1.5 3.37 1 3.994-.875.25-.75-.25-1.626-1.622-1.876h0zm-6.115-.125c.624 1.75-.874 3.502-2.37 3.25 1.123 1.376 3.37 1 3.994-.875.25-.75-.25-2.252-1.622-2.376h0zm3.37-2.377c.5 1.876-.25 3.377-1.747 3.127.998 1.376 2.746 1.126 3.245-.625.25-.875-.25-2.25-1.498-2.5h0zm5.117-1.376c.5 1.876-.874 3.752-2.496 3.377 1.123 1.376 3.494.875 3.994-.876.374-.75-.25-2.252-1.498-2.502h0zm-1.248-2.25c.5 1.876-.874 3.627-2.37 3.377 1.123 1.376 3.37 1 3.87-.876.374-.75-.125-2.376-1.498-2.5h0zm-5.74 1c.5 1.75-.874 3.627-2.37 3.376.998 1.376 3.37.876 3.87-.875.374-.75-.25-2.377-1.498-2.5h0zm-2.995-1.126c.624 1.876-.874 3.627-2.37 3.377 1.123 1.376 3.37 1 3.87-.875.374-.75-.124-2.25-1.498-2.5h0z" class="G"/></g><path d="M175.387 220.607c2.62.5 5.117.876 7.363-.125-11.73 26.014 6.74 47.4 31.2 59.157-1.123 1.876-2.246 3.252-3.37 4.878-24.212-10.88-47.8-34.143-35.194-63.9h0zm79.5 78.418h-5.367v6.63c10.608 12.882 39.438 14.008 47.55 29.266 12.355-16.384 38.814-18.385 54.29-31.017h0V300.4h-8.487c-9.735 11.506-34.196 11.756-45.803 25.64-14.976-17.26-33.946-11.756-42.183-27.015h0zM411.14 216.98c2.62.125 5.242-.125 7.863.375 14.852 33.143-3.245 51.403-31.45 67.036-1.622-1.876-3.494-4.002-5.366-5.503 20.343-5.503 48.673-28.766 28.954-61.908h0zm-5.616-29.767l-5.616 4.878c-30.826-35.77-5.74-88.048 33.697-82.295 3.744.5 6.74 8.755 5.242 8.255-45.678-18.76-54.29 49.902-33.322 69.162h0zM312.794 80.406c.374 2.5 2.122 4.002 3.744 3.502 1.747-.625 2.246-3.627 1.872-5.378-.25-2.25-1.997-5.628-4.867-5.628-2.496 0-5.616 2.877-5.74 6.63-.125 2.877-.125 6.004-.25 9.005 5.367 15.51 25.46 25.39 41.81 25.264 17.722-.126 41.434-11.63 39.438-39.772-1.498-1.376-2.87-2.877-4.243-4.252 3.37 23.262-18.97 37.395-35.32 37.02-13.603-.375-38.564-10.506-36.442-26.39h0zm-21.34-3.377c.125 4.627-.125 7.254-1.373 11.756-4.618 9.63-11.482 22.762-39.937 24.013-30.7 1.25-45.553-23.513-41.81-41.898 1.747-1.626 4.243-2.877 5.99-3.377-5.367 18.5 12.98 38.396 36.442 38.396 16.6 0 35.943-14.007 33.697-25.138-6.5 0-7.24-10.006 1.747-9.88 4.493 0 5.367 3.752 5.242 6.128h0zM166.65 104.294c51.17 10.13 52.042 57.53 31.7 85.17l-5.242-6.253c20.093-23.388 10.858-66.41-31.7-75.917l5.242-3zm207.92-15.008c3.62-4.378 4.992-5.754 5.117-9.255.125-2-.5-7.254-2.496-7.254-2.122 0-2.87 4.128-3.12 6.128-.25 2.627 3.12 5.878.5 10.38h0zM426 120.803c4.243 1.126 6.615-1.25 8.86.25 1.498 1 1.747 2.25 1.123 3.25-.624 1.25-2.496 1.876-3.87 1.5-2.62-.75-3.494-3.252-6.115-5.003h0zM222.812 86.66c-2.496-3.377-4.243-7.13-4.368-10.005-.125-2.377 1.373-6.128 3.245-5.253 1.747.626 3.37 4.252 2.37 7.254-.874 3.126-1.747 5.503-1.248 8.004h0zm-45.553 31.518c-4.992-2.5-7.738-4.377-11.856-3.877-2.496.25-5.117 2.75-4.618 5.378s3.994 4.002 6.5 3.127c3.744-1 5.117-3.752 9.984-4.628h0z" fill="#ffd312"/><g class="E"><path d="M340.376 205.224c.5 1.876-.874 3.752-2.37 3.377.998 1.25 3.37 1 3.87-1 .374-.625-.25-2.126-1.498-2.376h0zm-1.498-1.626c.5 1.626-1.248 3.002-2.746 2.75.998 1.25 3.37.876 3.87-.875.374-.625.125-1.75-1.123-1.876h0zm-1.373-3.502c.5 1.75-.874 3.627-2.37 3.252 1.123 1.375 3.37 1 3.87-.876.374-.75-.125-2.25-1.498-2.376h0zm3.994-3.5c.624 1.75-.874 3.627-2.37 3.252 1.123 1.5 3.37 1 3.994-.876.25-.75-.25-2.126-1.622-2.376h0zm-2.746-1.626c.5 1.876-.874 3.752-2.496 3.25 1.123 1.376 3.494 1 3.994-.75.374-.75-.25-2.25-1.498-2.5h0zm3.62-2.25c.624 1.876-.874 3.126-2.37 2.75 1.123 1.5 3.37 1 3.994-.875.25-.75-.25-1.626-1.622-1.876h0zm-6.115-.125c.624 1.75-.874 3.502-2.37 3.252 1.123 1.376 3.37 1 3.994-.875.25-.75-.25-2.25-1.622-2.377h0zm3.37-2.376c.5 1.876-.25 3.376-1.747 3.126.998 1.376 2.746 1.126 3.245-.625.25-.876-.25-2.252-1.498-2.5h0zm5.117-1.376c.5 1.876-.874 3.752-2.496 3.376 1.123 1.376 3.494.876 3.994-.875.374-.75-.25-2.252-1.498-2.5h0zm-1.248-2.25c.5 1.876-.874 3.627-2.37 3.377 1.123 1.376 3.37 1 3.87-.876.374-.75-.125-2.376-1.498-2.5h0zm-5.74 1c.5 1.75-.874 3.627-2.37 3.377.998 1.376 3.37.875 3.87-.876.374-.75-.25-2.376-1.498-2.5h0zm-2.995-1.126c.624 1.876-.874 3.627-2.37 3.377 1.123 1.375 3.37 1 3.87-.876.374-.75-.125-2.25-1.498-2.5h0zm4.368-25.013c.5 1.876-.874 3.752-2.37 3.377.998 1.25 3.37 1 3.87-1 .374-.625-.25-2.126-1.498-2.376h0zm-1.498-1.626c.5 1.626-1.248 3.002-2.746 2.752.998 1.25 3.37.875 3.87-.876.374-.625.125-1.75-1.123-1.876h0zm-1.373-3.502c.5 1.75-.874 3.627-2.37 3.252 1.123 1.376 3.37 1 3.87-.875.374-.75-.125-2.25-1.498-2.377h0zm3.994-3.502c.624 1.75-.874 3.627-2.37 3.252 1.123 1.5 3.37 1 3.994-.876.25-.75-.25-2.126-1.622-2.376h0zm-2.746-1.626c.5 1.876-.874 3.752-2.496 3.252 1.123 1.376 3.494 1 3.994-.75.374-.75-.25-2.25-1.498-2.5h0zm3.62-2.25c.624 1.876-.874 3.127-2.37 2.75 1.123 1.5 3.37 1 3.994-.875.25-.75-.25-1.626-1.622-1.876h0zm-6.115-.125c.624 1.75-.874 3.502-2.37 3.252 1.123 1.376 3.37 1 3.994-.875.25-.75-.25-2.25-1.622-2.377h0zm3.37-2.376c.5 1.876-.25 3.377-1.747 3.127.998 1.376 2.746 1.126 3.245-.625.25-.875-.25-2.25-1.498-2.5h0zm5.117-1.375c.5 1.876-.874 3.752-2.496 3.376 1.123 1.376 3.494.876 3.994-.875.374-.75-.25-2.25-1.498-2.5h0zm-1.248-2.252c.5 1.876-.874 3.627-2.37 3.377 1.123 1.376 3.37 1 3.87-.876.374-.75-.125-2.376-1.498-2.5h0zm-5.74 1c.5 1.75-.874 3.627-2.37 3.377.998 1.375 3.37.875 3.87-.876.374-.75-.25-2.376-1.498-2.5h0zm-2.995-1.125c.624 1.876-.874 3.627-2.37 3.377 1.123 1.376 3.37 1 3.87-.875.374-.75-.125-2.25-1.498-2.5h0zm34.695 31.517c-.5 1.876.874 3.752 2.37 3.376-.998 1.25-3.37 1-3.87-1-.374-.625.25-2.126 1.498-2.376h0zm1.498-1.626c-.5 1.626 1.248 3 2.746 2.752-.998 1.25-3.37.875-3.87-.876-.374-.625-.125-1.75 1.123-1.876h0zm1.373-3.502c-.5 1.75.874 3.627 2.37 3.252-1.123 1.376-3.37 1-3.87-.875-.374-.75.125-2.25 1.498-2.377h0zm-3.994-3.502c-.624 1.75.874 3.627 2.37 3.252-1.123 1.5-3.37 1-3.994-.875-.25-.75.25-2.126 1.622-2.377h0zm2.746-1.625c-.5 1.876.874 3.752 2.496 3.252-1.123 1.376-3.494 1-3.994-.75-.374-.75.25-2.25 1.498-2.5h0zm-3.62-2.252c-.624 1.876.874 3.127 2.37 2.75-1.123 1.5-3.37 1-3.994-.875-.25-.75.25-1.626 1.622-1.876h0zm6.115-.125c-.624 1.75.874 3.502 2.37 3.25-1.123 1.376-3.37 1-3.994-.875-.25-.75.25-2.252 1.622-2.376h0zm-3.37-2.377c-.5 1.876.25 3.377 1.747 3.127-.998 1.376-2.746 1.126-3.245-.625-.25-.875.25-2.25 1.498-2.5h0zm-5.117-1.376c-.5 1.876.874 3.752 2.496 3.377-1.123 1.376-3.494.875-3.994-.876-.374-.75.25-2.252 1.498-2.502h0zm1.248-2.25c-.5 1.876.874 3.627 2.37 3.377-1.123 1.376-3.37 1-3.87-.876-.374-.75.125-2.376 1.498-2.5h0zm5.74 1c-.5 1.75.874 3.627 2.37 3.376-.998 1.376-3.37.876-3.87-.875-.374-.75.25-2.377 1.498-2.5h0zm2.995-1.126c-.624 1.876.874 3.627 2.37 3.377-1.123 1.376-3.37 1-3.87-.875-.374-.75.125-2.25 1.498-2.5h0z" class="C G"/><g fill="#961e1d" class="H"><path d="M292.452 275.387c.75-2.376 2.496-2.5 2.496-5.878h0v-71.29c0-1 .874-1.75 1.872-1.75h0c.998 0 2.122.75 2.122 1.75v71.29c.998 3.377-.624 5.253 2.246 5.378 7.363.5 15.35 1 22.215 3 .75.625.624 1.25 0 1.876h0H277.1c-.374-.876-.125-2.126.874-2.752 7.613-2.25 14.227-.626 14.477-1.626h0zm53.166-58.406c.874-2.626 2.746-2.752 2.746-6.38h0V131.81c0-1.126.874-1.876 1.997-1.876h0c1.123 0 2.246.875 2.246 2l.125 78.668c.998 3.627-.874 5.753 2.246 5.878 7.987.5 16.724 1 23.962 3.252.874.625.624 1.376 0 2.126h0-49.92c-.374-1-.125-2.376.998-3.127 8.237-2.5 15.226-.626 15.6-1.75h0zm-92.354 0c-.874-2.626-2.746-2.752-2.746-6.38h0V131.81c0-1.126-.874-1.876-1.997-1.876h0a1.97 1.97 0 0 0-1.997 2.001l-.125 78.668c-.998 3.627.624 5.753-2.246 5.878-7.987.5-16.724 1-23.962 3.252-.874.625-.624 1.376 0 2.126h49.67c.374-1 .125-2.376-.998-3.127-8.237-2.5-15.226-.626-15.6-1.75h0z"/><path d="M290.08 197.47c.998 1.876 1.997 2.752 4.243 2.752 2.995 0 7.488 2.126 9.36 3.877 2.62 2.25 5.242 6.628 5.99 10.13.374 2 .125 4.003-1.123 5.128-2.87 2.626-6.365 4.252-9.36 6.378-3.12 2.126-6.365 4.753-8.237 8.505-1.373 2.626-.75 5.878.5 8.255 2.37 4.502 7.24 8.255 11.107 12.63.75.75 2.995-.125 3.37 1.126 1.872 5.503.624 10.255 1.747 16.01.624 3.502 5.367 3.502 7.488 4.502-4.243-.25-8.986-.5-12.73-2.25.998-.876 1.498-1.626 1.498-3.377 0-4.002-1.622-10.005-3.744-12.006-3.12-3.252-7.114-7.13-10.11-10.506-2.37-2.5-3.62-4.128-4.118-7.004-.874-4.252.624-7.754 2.995-11.38 3.12-4.752 9.485-7.254 14.103-10.256 1.123-.75 2.62-3.752 2.62-6.003-.125-3.502-3.62-7.38-5.367-7.754-2.246-.375-7.114.125-9.36-.5-.75-.25-.125-1.25-1.248-1.25-1.248-.125-2.122.75-2.62 2 .125-1-1.373-1.5-2.87-1.126 1.747-2.25 3.744-3.127 6.5-3.502.25-1.375-1.123-2.75-2.37-3.627 1.248.5 1.747.25 1.747-.75h0zm52.916-66.66c1.123 2 2.122 3.002 4.493 3.002 3.245 0 8.237 2.5 10.234 4.252 2.746 2.626 5.49 7.38 6.365 11.256.374 2.126.125 4.377-1.248 5.628-2.995 2.877-6.74 4.753-9.984 7.004-3.37 2.377-6.99 5.253-8.986 9.38-1.373 2.877-.75 6.504.624 9.13 2.62 5.003 7.738 9.13 11.856 13.883.874 1 3.245 0 3.744 1.376 1.997 6.004.624 11.256 1.747 17.635.75 3.877 5.99 3.877 8.237 4.878-4.618-.25-9.735-.5-13.853-2.376 1.123-1 1.747-1.876 1.747-3.752 0-4.502-1.872-11.13-3.994-13.382-3.494-3.502-7.738-7.754-10.983-11.507-2.62-2.75-3.87-4.502-4.493-7.63-.874-4.753.75-8.63 3.37-12.632 3.245-5.253 10.11-8.004 15.1-11.256 1.248-.875 2.87-4.252 2.746-6.63 0-3.877-3.744-8.255-5.616-8.505-2.496-.5-7.738 0-10.234-.626-.75-.25-.125-1.376-1.373-1.376-1.248-.125-2.122.876-2.746 2.126.125-1-1.498-1.5-3.12-1.126 1.872-2.626 4.118-3.502 6.99-4.002.25-1.376-1.248-3.002-2.62-3.877 1.373.5 1.997.25 1.997-.876h0zm-86.863 0c-1.123 2-2.122 3.002-4.493 3.002-3.245 0-8.237 2.5-10.234 4.252-2.746 2.626-5.49 7.38-6.365 11.256-.374 2.126-.125 4.377 1.248 5.628 2.995 2.877 6.74 4.753 9.984 7.004 3.37 2.377 6.99 5.253 8.986 9.38 1.373 2.877.75 6.504-.624 9.13-2.62 5.003-7.738 9.13-11.856 13.883-.874 1-3.245 0-3.744 1.376-1.997 6.004-.624 11.256-1.747 17.635-.75 3.877-5.99 3.877-8.237 4.878 4.617-.25 9.734-.5 13.853-2.376-1.123-1-1.747-1.876-1.747-3.752 0-4.502 1.872-11.13 3.994-13.382 3.494-3.502 7.738-7.754 10.983-11.507 2.37-2.75 3.62-4.502 4.243-7.63.874-4.753-.75-8.63-3.12-12.632-3.245-5.253-10.11-8.004-15.1-11.256-1.248-.875-2.87-4.252-2.746-6.63 0-3.877 3.744-8.255 5.616-8.505 2.496-.5 7.738 0 10.234-.626.75-.25.125-1.376 1.373-1.376.998-.125 1.872.876 2.496 2.126-.125-1 1.498-1.5 3.12-1.126-1.872-2.626-4.118-3.502-6.74-4.002-.25-1.376 1.248-3.002 2.37-3.877-1.123.5-1.747.25-1.747-.876h0z"/></g><g class="C"><path d="M281.72 251.874c-.874-1.376-2.122-1.625-3.245-1-.998.5-1.498 2.252-.25 3.377-2.246.75-1.997 4.002.374 4.252-1.747.875-1.747 3.752.624 4.127-1.123 1.25-.374 3.252.998 3.752-.125.75.374 1.5 1.248 1.876-.5 1-.25 1.876.374 2.5.125.75.624 1.126 1.123 1.5.25.875.998 1.625 2.122 1.625s2.122-.875 2.122-2.126c1.747-1 1.373-2.877 0-3.752 1.872-.75 2.122-2.752.874-3.627.374-.5.5-1 .5-1.5.998-.625 1.373-1.75.874-2.626 1.997-.5 2.246-2.5 1.373-3.502 1.498-1.126.874-3.252-.5-3.752.25-1.25-.75-2.25-1.872-2.376-.75-.125-1.622.25-1.997.875-.624-.375-1.747-.125-2.37.626-.5-.375-1.498-.75-2.37-.25h0zM280.47 208.1c-.874-1.376-2.122-1.626-3.245-1-.998.5-1.498 2.252-.25 3.377-2.246.75-1.997 4.002.374 4.252-1.747.875-1.747 3.752.624 4.127-1.123 1.25-.374 3.252.998 3.752-.125.75.374 1.5 1.248 1.876-.5 1-.25 1.876.374 2.5.125.75.624 1.126 1.123 1.5.25.876.998 1.626 2.122 1.626s2.122-.876 2.122-2.126c1.747-1 1.373-2.877 0-3.752 1.872-.75 2.122-2.75.874-3.627.374-.5.5-1 .5-1.5.998-.626 1.373-1.75.874-2.626 1.997-.5 2.246-2.5 1.373-3.502 1.498-1.126.874-3.252-.5-3.752.25-1.25-.75-2.25-1.872-2.376-.75-.125-1.622.25-1.997.876-.624-.375-1.747-.125-2.37.625-.5-.375-1.498-.75-2.37-.25h0zm37.316 12.757c.874-1.376 2.122-1.626 3.245-1 .998.5 1.498 2.25.25 3.377 2.246.75 1.997 4.002-.374 4.252 1.747.876 1.747 3.752-.624 4.127 1.123 1.25.374 3.252-.998 3.752.125.75-.374 1.5-1.248 1.876.5 1 .25 1.876-.374 2.5-.125.75-.624 1.125-1.123 1.5-.25.876-.998 1.626-2.122 1.626s-2.122-.876-2.122-2.126c-1.747-1-1.373-2.877 0-3.752-1.872-.75-2.122-2.75-.874-3.627-.374-.5-.5-1-.5-1.5-.998-.626-1.373-1.75-.874-2.627-1.997-.5-2.246-2.5-1.373-3.502-1.498-1.126-.874-3.252.5-3.752-.25-1.25.75-2.25 1.872-2.376.75-.125 1.622.25 1.997.876.624-.375 1.747-.125 2.37.625.5-.375 1.498-.75 2.37-.25h0z" fill="#b400b4"/><path d="M285.837 269.33c.5 1.876-.874 3.752-2.37 3.377.998 1.25 3.37 1 3.87-1 .374-.625-.25-2.126-1.498-2.376h0zm-1.498-1.626c.5 1.626-1.248 3-2.746 2.752.998 1.25 3.37.875 3.87-.876.374-.625.125-1.75-1.123-1.876h0zm-1.373-3.502c.5 1.75-.874 3.627-2.37 3.25 1.123 1.376 3.37 1 3.87-.875.374-.75-.125-2.252-1.498-2.376h0zm3.994-3.502c.624 1.75-.874 3.627-2.37 3.252 1.123 1.5 3.37 1 3.994-.875.25-.75-.25-2.126-1.622-2.377h0zm-2.746-1.625c.5 1.876-.874 3.752-2.496 3.252 1.123 1.376 3.494 1 3.994-.75.374-.75-.25-2.252-1.498-2.5h0zm3.62-2.252c.624 1.876-.874 3.127-2.37 2.752 1.123 1.5 3.37 1 3.994-.875.25-.75-.25-1.626-1.622-1.876h0zm-6.115-.125c.624 1.75-.874 3.502-2.37 3.25 1.123 1.376 3.37 1 3.994-.875.25-.75-.25-2.252-1.622-2.376h0zm3.37-2.377c.5 1.876-.25 3.377-1.747 3.127.998 1.376 2.746 1.125 3.245-.626.25-.875-.25-2.25-1.498-2.5h0zm5.117-1.376c.5 1.876-.874 3.752-2.496 3.377 1.123 1.376 3.494.875 3.994-.876.374-.75-.25-2.25-1.498-2.5h0zm-1.248-2.25c.5 1.876-.874 3.627-2.37 3.377 1.123 1.375 3.37 1 3.87-.876.374-.75-.125-2.376-1.498-2.5h0zm-5.74 1c.5 1.75-.874 3.627-2.37 3.376.998 1.376 3.37.876 3.87-.875.374-.75-.25-2.377-1.498-2.5h0zm-2.995-1.126c.624 1.876-.874 3.627-2.37 3.376 1.123 1.376 3.37 1 3.87-.875.374-.75-.125-2.25-1.498-2.5h0zm4.368-25.014c.5 1.876-.874 3.752-2.37 3.377.998 1.25 3.37 1 3.87-1 .374-.626-.25-2.126-1.498-2.377h0zm-1.498-1.625c.5 1.625-1.248 3-2.746 2.75.998 1.25 3.37.876 3.87-.875.374-.626.125-1.75-1.123-1.876h0zm-1.373-3.502c.5 1.75-.874 3.627-2.37 3.252 1.123 1.376 3.37 1 3.87-.876.374-.75-.125-2.25-1.498-2.376h0zm3.994-3.502c.624 1.75-.874 3.627-2.37 3.25 1.123 1.5 3.37 1 3.994-.875.25-.75-.25-2.126-1.622-2.376h0zm-2.746-1.626c.5 1.876-.874 3.752-2.496 3.252 1.123 1.375 3.494 1 3.994-.75.374-.75-.25-2.25-1.498-2.5h0zm3.62-2.25c.624 1.876-.874 3.127-2.37 2.752 1.123 1.5 3.37 1 3.994-.876.25-.75-.25-1.626-1.622-1.876h0zm-6.115-.125c.624 1.75-.874 3.502-2.37 3.252 1.123 1.376 3.37 1 3.994-.876.25-.75-.25-2.25-1.622-2.376h0zm3.37-2.376c.5 1.876-.25 3.377-1.747 3.127.998 1.376 2.746 1.126 3.245-.626.25-.875-.25-2.25-1.498-2.5h0zm5.117-1.376c.5 1.876-.874 3.752-2.496 3.377 1.123 1.376 3.494.875 3.994-.876.374-.75-.25-2.25-1.498-2.5h0zm-1.248-2.25c.5 1.876-.874 3.627-2.37 3.377 1.123 1.376 3.37 1 3.87-.875.374-.75-.125-2.377-1.498-2.5h0zm-5.74 1c.5 1.75-.874 3.627-2.37 3.376.998 1.376 3.37.876 3.87-.875.374-.75-.25-2.376-1.498-2.5h0zm-2.995-1.126c.624 1.876-.874 3.627-2.37 3.377 1.123 1.376 3.37 1 3.87-.875.374-.75-.125-2.252-1.498-2.502h0zm34.695 31.517c-.5 1.876.874 3.752 2.37 3.377-.998 1.25-3.37 1-3.87-1-.374-.626.25-2.126 1.498-2.377h0zm1.498-1.625c-.5 1.625 1.248 3.002 2.746 2.75-.998 1.25-3.37.876-3.87-.875-.374-.626-.125-1.75 1.123-1.876h0zm1.373-3.502c-.5 1.75.874 3.627 2.37 3.252-1.123 1.376-3.37 1-3.87-.876-.374-.75.125-2.25 1.498-2.376h0zm-3.994-3.502c-.624 1.75.874 3.627 2.37 3.252-1.123 1.5-3.37 1-3.994-.876-.25-.75.25-2.126 1.622-2.376h0zm2.746-1.626c-.5 1.876.874 3.752 2.496 3.252-1.123 1.376-3.494 1-3.994-.75-.374-.75.25-2.25 1.498-2.5h0zm-3.62-2.25c-.624 1.876.874 3.127 2.37 2.752-1.123 1.5-3.37 1-3.994-.876-.25-.75.25-1.626 1.622-1.876h0zm6.115-.125c-.624 1.75.874 3.502 2.37 3.252-1.123 1.376-3.37 1-3.994-.876-.25-.75.25-2.25 1.622-2.376h0zm-3.37-2.376c-.5 1.876.25 3.376 1.747 3.127-.998 1.376-2.746 1.126-3.245-.625-.25-.875.25-2.25 1.498-2.5h0zm-5.117-1.376c-.5 1.876.874 3.752 2.496 3.377-1.123 1.375-3.494.875-3.994-.876-.374-.75.25-2.25 1.498-2.5h0zm1.248-2.25c-.5 1.876.874 3.627 2.37 3.377-1.123 1.376-3.37 1-3.87-.875-.374-.75.125-2.377 1.498-2.5h0zm5.74 1c-.5 1.75.874 3.627 2.37 3.377-.998 1.376-3.37.875-3.87-.875-.374-.75.25-2.376 1.498-2.5h0zm2.995-1.126c-.624 1.876.874 3.627 2.37 3.377-1.123 1.376-3.37 1-3.87-.876-.374-.75.125-2.25 1.498-2.5h0z" class="G"/></g><path d="M252.265 134.56c1.498-1.75 3.37-2.877 5.117-2.377-1.997-2.877-3.744-10.13-2.62-13.757.624 1.626.998 2 2.122 1.75.25-1.5 1.747-2.126 2.995-2.502.624.75.998 2.126.25 3.752.5-1.125 1.997-1.75 2.995-.375.874 1.25 1.498 3.502-.374 5.628 2.246.875 5.616-.626 6.74-4.503 1.248 1.25 1.248 1.75.5 3.252 1.373-1.126 3.744-.375 5.367 1.126 0 1.876-1.747 4.378-3.245 4.378 1.123.125 1.747.875 1.872 2.5-3.12-1.25-5.616-.5-7.987 1.5 2.746.876 3.245 2.126 3.744 3.627-.125 1.376-1.373 1.876-2.37 1.876 1.248 0 1.872.875 1.997 2.626-1.248.75-2.37.25-3.494-.5-.75.876-.374 1.5-.25 3.002-3.62-1.126-6.365-6.88-7.488-11.13-1.872-.625-3.62.25-4.992 2.126-.624.75-1.622-1-.874-2h0zm-11.73 4.752c-.624-1.876-1.997-3.502-3.87-3.376 2.746-2.126 6.615-8.005 6.5-11.38-.998 1.25-1.373 1.376-2.37.875.25-1.5-.75-2.376-1.747-3.126-.874.5-1.622 1.625-1.498 3.252 0-1.126-1.248-2.126-2.496-1.25-1.123.876-2.37 2.752-1.373 5.128-2.246.125-4.867-2.126-4.617-5.878-1.498.625-1.748 1-1.373 2.626-.874-1.375-3.37-1.375-5.117-.625-.624 1.876.125 4.502 1.498 4.877-.998-.125-1.747.25-2.37 1.626 3.12-.125 4.992 1.125 6.615 3.752-2.62-.125-3.62.75-4.368 2-.25 1.376.624 2 1.622 2.5-1.123-.375-1.997 0-2.62 1.5.874 1.126 1.997 1 3.245.625.375 1-.125 1.5-.75 2.752 3.744.125 7.738-4.252 9.984-7.63 1.872 0 3.12 1.25 3.87 3.377.25.75 1.622-.5 1.248-1.626h0zm4.243 55.656c-1.622-1.25-3.87-1.876-5.866-1.126 1.997-3.127 3.245-10.13 1.498-13.008-.374 1.5-.874 1.75-2.122 1.876-.5-1.25-2.122-1.626-3.494-1.75-.75.875-.998 2.25 0 3.627-.624-1-2.37-1.25-3.37.125-.75 1.376-1.248 3.502.874 5.128-2.37 1.126-6.24.625-7.862-2.877-1.373 1.375-1.373 1.876-.125 3.126-1.747-.75-4.368.5-5.99 2 .25 1.876 2.246 3.752 4.118 3.502-1.248.375-1.997 1.126-1.997 2.626 3.37-1.75 6.116-1.625 9.11-.125-2.87 1.25-3.494 2.5-3.62 4.002.25 1.25 1.498 1.376 2.87 1.25-1.373.25-2.122 1.126-1.997 2.75 1.373.5 2.62-.125 3.87-1.25.75.75.5 1.376.374 3 4.118-1.876 6.5-7.63 7.24-11.88 2.122-.876 3.994-.375 5.866 1.126.75.5 1.747-1.376.624-2.126h0zm12.98-18.385c1.622.876 3.62 1.5 4.992.5-.998 3.126-.874 9.63 1.123 12.382 0-1.5.25-1.75 1.373-1.876.624 1.25 1.997 1.376 3.12 1.376.5-.75.5-2.25-.5-3.25.75.875 2.122 1 2.746-.375.374-1.376.374-3.502-1.622-4.753 1.622-1.25 4.992-.876 6.864 2.126.75-1.25.874-1.626-.25-2.75 1.498.625 3.494-.625 4.368-2.252-.374-1.75-2.37-3.376-3.87-3 .998-.375 1.373-1 1.123-2.377-2.496 1.626-4.742 1.626-7.363.5 2.122-1.25 2.37-2.5 2.246-4.002-.374-1.126-1.498-1.126-2.62-1 1.123-.25 1.622-1 1.373-2.75-1.373-.25-2.246.375-2.87 1.376-1.123-.625-.998-1.25-1.123-2.627-2.995 2-3.87 7.504-3.87 11.38-1.498 1-3.37.625-4.992-.5-.75-.75-1.123 1.125-.25 1.876h0zm35.943 24.264c-1.373-1.626-3.12-2.627-4.742-2.126 1.872-2.627 3.494-9.255 2.37-12.507-.5 1.5-.874 1.75-1.872 1.626-.374-1.376-1.622-2-2.746-2.377-.624.75-.998 2-.25 3.502-.5-1-1.872-1.626-2.746-.375-.874 1.126-1.373 3.127.25 5.128-2.122.75-5.242-.625-6.24-4.127-1.123 1.125-1.248 1.626-.374 3-1.248-1-3.62-.375-4.992 1 0 1.626 1.498 4.002 2.995 4.002-1.123.125-1.622.75-1.747 2.25 2.87-1.126 5.117-.5 7.363 1.376-2.496.75-2.995 1.876-3.494 3.252.125 1.25 1.248 1.625 2.246 1.75-1.123-.125-1.747.75-1.872 2.25 1.123.75 2.122.375 3.245-.375.624.75.374 1.376.125 2.75 3.494-1 5.99-6.254 7.114-10.13 1.622-.625 3.245.25 4.618 1.876.5.75 1.498-.875.75-1.75h0zm10.858 4.252c.624-1.626 1.872-3.127 3.62-3.002-2.496-2-6.115-7.254-6.115-10.38.998 1.126 1.373 1.25 2.246.875-.25-1.376.75-2.25 1.747-2.876.75.5 1.498 1.5 1.248 3.002.125-1.126 1.123-2 2.37-1.126.998.75 2.246 2.376 1.248 4.628 2.122.125 4.493-2 4.243-5.378 1.498.625 1.622.876 1.373 2.376.75-1.25 2.995-1.25 4.618-.5.624 1.626 0 4.002-1.373 4.377.998-.125 1.747.25 2.246 1.5-2.87-.125-4.618 1-6.115 3.377 2.496-.125 3.245.625 3.994 1.876.25 1.125-.5 1.75-1.498 2.126.998-.25 1.872.125 2.496 1.5-.874.876-1.872.876-2.995.5-.374.875 0 1.376.624 2.5-3.37.125-7.114-3.877-9.235-6.88-1.747 0-2.87 1.126-3.494 3.002-.25.75-1.622-.5-1.248-1.5h0zm-3.994 50.527c1.622-1.126 3.62-1.75 5.49-1-1.872-2.877-2.995-9.255-1.373-11.882.374 1.376.75 1.626 1.872 1.75.5-1.126 1.997-1.5 3.37-1.625.624.875.874 2 0 3.252.5-.875 2.122-1.126 2.995.125s1.248 3.252-.75 4.753c2.246 1 5.866.5 7.24-2.627 1.373 1.25 1.373 1.626.25 2.75 1.622-.625 3.994.5 5.49 1.876-.25 1.75-2.122 3.377-3.87 3.127 1.248.375 1.872 1 1.872 2.377-3.12-1.5-5.616-1.376-8.487-.125 2.746 1.126 3.245 2.252 3.494 3.627-.25 1.126-1.498 1.25-2.746 1.25 1.248.125 1.997 1 1.872 2.377-1.248.5-2.37 0-3.494-1-.874.626-.624 1.126-.5 2.626-3.744-1.75-5.866-6.88-6.615-10.756-1.997-.75-3.744-.375-5.49 1-.624.5-1.498-1.25-.624-1.876h0zm-11.98-16.76c-1.498.876-3.37 1.5-4.618.5.874 2.876.874 8.755-.998 11.256-.125-1.376-.25-1.626-1.248-1.75-.624 1.126-1.872 1.25-2.995 1.25-.374-.625-.374-2 .5-2.877-.624.75-1.997.876-2.496-.375-.374-1.25-.374-3.127 1.498-4.377-1.622-1.126-4.618-.75-6.365 2-.75-1.126-.75-1.5.25-2.5-1.373.625-3.245-.625-4.118-2.126.374-1.5 2.246-3 3.62-2.626-.874-.375-1.373-1-.998-2.25 2.246 1.5 4.368 1.5 6.74.5-1.997-1.125-2.246-2.25-2.122-3.502.5-1.126 1.373-1.126 2.496-1-1.123-.25-1.498-1-1.373-2.5 1.373-.25 2.122.375 2.746 1.25.998-.5.998-1.126.998-2.377 2.746 1.75 3.62 6.754 3.62 10.256 1.373 1 3.12.626 4.742-.375.624-.626.874 1 .125 1.626h0zm58.283-104.307c-1.498-1.75-3.37-2.877-5.117-2.377 1.997-2.877 3.744-10.13 2.62-13.757-.624 1.626-.998 2-2.122 1.75-.25-1.5-1.747-2.126-2.995-2.502-.624.75-.998 2.126-.25 3.752-.5-1.125-1.997-1.75-2.995-.375-.874 1.25-1.498 3.502.374 5.628-2.246.875-5.616-.626-6.74-4.503-1.248 1.25-1.248 1.75-.5 3.252-1.373-1.126-3.744-.375-5.366 1.126 0 1.876 1.747 4.378 3.245 4.378-1.123.125-1.747.875-1.872 2.5 3.12-1.25 5.616-.5 7.987 1.5-2.746.876-3.245 2.126-3.744 3.627.125 1.376 1.373 1.876 2.37 1.876-1.248 0-1.872.875-1.997 2.626 1.248.75 2.37.25 3.494-.5.75.876.374 1.5.25 3.002 3.62-1.126 6.365-6.88 7.488-11.13 1.872-.625 3.62.25 4.992 2.126.624.75 1.622-1 .874-2h0zm11.73 4.752c.624-1.876 1.997-3.502 3.87-3.376-2.746-2.126-6.615-8.005-6.5-11.38.998 1.25 1.373 1.376 2.37.875-.25-1.5.75-2.376 1.747-3.126.874.5 1.622 1.625 1.498 3.252 0-1.126 1.248-2.126 2.496-1.25 1.123.876 2.37 2.752 1.373 5.128 2.246.125 4.867-2.126 4.618-5.878 1.498.625 1.747 1 1.373 2.626.874-1.375 3.37-1.375 5.117-.625.624 1.876-.125 4.502-1.498 4.877.998-.125 1.747.25 2.37 1.626-3.12-.125-4.992 1.125-6.615 3.752 2.62-.125 3.62.75 4.368 2 .25 1.376-.624 2-1.622 2.5 1.123-.375 1.997 0 2.62 1.5-.874 1.126-1.997 1-3.245.625-.374 1 .125 1.5.75 2.752-3.744.125-7.738-4.252-9.984-7.63-1.872 0-3.12 1.25-3.87 3.377-.25.75-1.622-.5-1.248-1.626h0zm-4.243 55.656c1.622-1.25 3.87-1.876 5.866-1.126-1.997-3.127-3.245-10.13-1.498-13.008.374 1.5.874 1.75 2.122 1.876.5-1.25 2.122-1.626 3.494-1.75.75.875.998 2.25 0 3.627.624-1 2.37-1.25 3.37.125.75 1.376 1.248 3.502-.874 5.128 2.37 1.126 6.24.625 7.863-2.877 1.373 1.375 1.373 1.876.125 3.126 1.747-.75 4.368.5 5.99 2-.25 1.876-2.246 3.752-4.118 3.502 1.248.375 1.997 1.126 1.997 2.626-3.37-1.75-6.115-1.625-9.11-.125 2.87 1.25 3.494 2.5 3.62 4.002-.25 1.25-1.498 1.376-2.87 1.25 1.373.25 2.122 1.126 1.997 2.75-1.373.5-2.62-.125-3.87-1.25-.75.75-.5 1.376-.374 3-4.12-1.876-6.5-7.63-7.24-11.88-2.122-.876-3.994-.375-5.866 1.126-.75.5-1.747-1.376-.624-2.126h0zm-12.98-18.385c-1.622.876-3.62 1.5-4.992.5.998 3.126.874 9.63-1.123 12.382 0-1.5-.25-1.75-1.373-1.876-.624 1.25-1.997 1.376-3.12 1.376-.5-.75-.5-2.25.5-3.25-.75.875-2.122 1-2.746-.375-.374-1.376-.374-3.502 1.622-4.753-1.622-1.25-4.992-.876-6.864 2.126-.75-1.25-.874-1.626.25-2.75-1.498.625-3.494-.625-4.368-2.252.374-1.75 2.37-3.376 3.87-3-.998-.375-1.373-1-1.123-2.377 2.496 1.626 4.743 1.626 7.363.5-2.122-1.25-2.37-2.5-2.246-4.002.374-1.126 1.498-1.126 2.62-1-1.123-.25-1.622-1-1.373-2.75 1.373-.25 2.246.375 2.87 1.376 1.123-.625.998-1.25 1.123-2.627 2.995 2 3.87 7.504 3.87 11.38 1.498 1 3.37.625 4.992-.5.75-.75 1.123 1.125.25 1.876h0z" class="B H"/></g><path d="M223.474 277.394c-.17.068-1.05.205-1.933.342-2 .274-2.563.293-3.242 2.587-.305 1.027-1.044 2.49-1.62 3.176-.983 1.3-1.89 3.83-1.653 4.993.203 1.164 1.51 1.552 3.817 1.038 2.95-.616 3.677-.92 3.812-.236s-1.648 2.15-3.784 3.724c-2 1.472-2.577 2.913-2.883 6.233-.102 1.403-.32 3.514-.625 4.884l-.52 3.343c.27.685 4.528 1.08 7.24.635 4.273-.685 6.524-2.803 6.965-6.226.305-2.225 1.344-4.834 2.734-6.272 1.22-1.267 1.365-1.065 2.315-.107.882.9.483.754-.568 5.957-1.017 5.066-.666 7.146 1.132 8.652 1.458 1.232 3.185 1.06 3.728-.513.237-.685 1.146-2.487 1.926-3.548 1.967-2.6 2.38-4.48 1.125-7.32-.882-2.02-1.375-2.36-.595-2.36.203 0 .477.388 1.393 1.347.916.924 2.757 2.015 3.13 2.015 2.238 0 2.39-9.987.253-11.356-1.085-.685-1.458.24-1.458 3.663 0 2.464.324 3.15-.05 3.15-.51 0-.632-.6-1.106-2.175-.407-1.438-2.286-2.085-3.627-.984l-1.307 1.072.177 5.35c.203 4.04.352 3.71-.09 3.71-.712 0-.524-.495-.83-4.808-.136-1.985-.407-4.085-.644-4.495-.203-.377-1.105-1.296-1.885-1.64-1.22-.548-2.02-.582-3.376-.24-2.984.822-6.05 3.978-7.847 7.606-.983 1.985-.966 2.46-1.712 2.153-.475-.17-.475-.004 0-1.168.814-1.95 2.854-4.363 5.635-7.375 3.188-3.49 3.148-4.172 2.64-5.918-.6-2.088-1.074-2.92-4.024-3.33-1.696-.24-3.49-.15-3.49-.457 0-.787.814-.993 4.002-.993 2.95 0 3.222-.068 3.832-.822.373-.445.746-1.198.882-1.677.34-1.403-.577-1.78-4.273-1.746-1.797 0-3.39.068-3.595.137z" class="B"/><path d="M217.46 277.015c-2.246 3.47-4.68 9.192-4.68 11.07 0 2.44 3.276 4.033 5.7 2.626 1.498-.75 1.872-.75 1.3.094-.374.563-1.685 1.407-2.902 1.876-1.872.75-2.246 1.5-2.246 4.596 0 2.064-.52 2.637-.842 4.22-.11.536-.265 2.208-.265 3.846 0 3.94 3.193 5.387 9.7 3.797 3.723-.91 2.174-.4 4.82-2.15.936-1.688 1.67-3.43 2.324-5.587s1.685-4.22 2.246-4.596.75-.094.468.657c-2.62 6.38-2.808 8.442-1.3 11.63 1.3 2.814 2.06 3.283 4.774 3.283 2.902 0 .914-.8 4.094-4.51.936-2.345 2.076-3.08 2.29-3.497.663-1.303.577-1.24.51-1.986-.144-1.62 1.53-1.262 1.998-1.262 3.65 0 5.055-7.973 2.434-13.132-1.778-3.47-2.434-3.47-4.96 0-3.838 5.16-11.42 3.002-11.42-3.283 0-1.5.655-3.377 1.498-4.315 1.03-1.22 1.217-2.064.562-3.283-.75-1.313-2.434-1.688-7.863-1.876-6.27-.28-7.02-.094-8.237 1.782zm14.227 1.688c-.655 2.627-2.153 3.565-5.242 3.002-1.872-.28-3.37-.094-3.744.563-.468.657.28 1.032 1.966 1.032 3.276 0 4.493.844 5.335 3.47.468 1.595-.094 2.72-2.808 5.16-2.902 2.72-5.99 7.13-5.99 8.724 0 1.688 2.153 0 2.902-2.25 1.404-3.846 6.833-7.88 9.547-7.035 2.902.844 3.463 2.064 3.463 7.13 0 2.626.468 4.502 1.03 4.502.655 0 .842-1.595.374-4.784-.468-3.658-.374-5.065.562-5.628 2.153-1.407 3.65-.938 3.65 1.032 0 1.032.468 1.876 1.03 1.876.655 0 .842-1.032.562-2.533-.936-4.97 1.59-7.035 2.62-2.157.842 3.658-.28 8.442-1.872 8.442-.75 0-1.966-.938-2.714-2.064-1.778-2.44-3.276-1.407-1.685 1.126 1.685 2.72 1.404 5.44-.75 7.692-1.03 1.126-1.872 2.626-1.872 3.283 0 2.064-3.182 1.313-4.306-1.032-.75-1.595-.655-3.47.28-7.035 1.3-5.16 1.03-6.66-1.123-6.66-1.498 0-4.212 4.596-4.212 7.223-.094 4.41-4.118 6.566-11.326 6.097-2.434-.188-2.527-.375-1.685-3.752.468-1.876.842-4.784.842-6.285 0-2.157.75-3.377 3.276-5.065 3.744-2.533 4.493-5.347 1.217-4.22-4.4 1.407-5.897 1.032-5.616-1.5.187-1.22.936-2.72 1.59-3.283.75-.47 1.404-1.97 1.59-3.283.187-1.876.936-2.44 3.557-2.814 6.084-.844 9.828-.47 9.547 1.032z"/><path d="M182.696 183.36c-.203.616-.814 1.027-2.103 1.472-2.747.958-6.536 2.845-6.637 3.427-.034.308 1.314 1.502 2.908 2.53 4.273 2.807 4.354 2.325-.394 2.736-3.56.308-4.306 1.087-7.053 3.62l-3.778 3.225c-.916.65-2.114 2.14-2.25 2.688-.203.822 1.067 1.59 3.102 3.54 2.374 2.293 4.564 3.275 6.158 3.31 1.424 0 2.958-.848 6.078-3.14 1.56-1.13 3.284-2.72 4.166-3.027 1.458-.513 1.446-.33 2.226.182 1.153.787 1.092 1.967-.06 3.13-.44.48-1.477 1.16-1.714 1.16-.746 0-4.742 4.81-5.454 6.42-.882 1.95-.91 3.76.04 4.41 1.017.753 2.06.745 3.1-.247.51-.48 2.058-.977 2.295-.977 1.29 0 2.006-1.29 3.33-2.52 1.764-1.643 3.096-1.994 3.435-3.98.136-.82-.14-1.696.03-1.8.543-.342 1.046.37 1.046 1.5 0 4.04 3.46 4.93 5.257 1.37.373-.753 1.41-1.495 1.748-1.87.746-.856 1.682-3.6 1.444-4.217-.27-.685-1.802-.2-2.582.612-.407.445-1.423 1.61-1.898 2.602-.848 1.71-1.358 2.464-1.833 1.985-.102-.103.642-.88.947-1.974.678-2.293-.2-3.023-2.032-3.023-1.458 0-2.712.753-4.848 3.594-4.17 5.58-3.89 4.34.01-1.685 1.05-1.643 1.177-3.415 1.28-3.963.237-1.164-.916-3.526-2.07-4.313-1.357-.9-4.36-1.182-8.123.22l-4.8 1.726c-.983.17-.8.597-.292-.225 1.153-1.78 6.493-3.553 9.986-3.62 2.815-.034 3.5-1.01 4.145-2.346 1.12-2.225 1.516-3.062-.925-5.63-1.22-1.267-2.447-2.275-2.447-2.41 0-.685.66-.076 2.357 1.2 2.544 1.95 3.46 2.362 5.02 2.362 1.662 0 4.4-1.26 4.037-2.217-.102-.342-1.47-1.6-2.385-2.08-.916-.445-2.544-1.54-3.663-2.396-3.425-2.6-6.198-2.887-6.808-1.347z" class="B"/><path d="M181.042 182.145c-.655.75-2.527 1.595-4.212 1.876-4.4.844-6.084 5.534-2.434 6.66 2.714.844 2.246 2.157-.562 1.595-1.966-.375-3.09.188-4.96 2.345-1.3 1.5-3.182 3.002-4.025 3.377-.936.28-1.685 1.22-1.685 1.876 0 .75-.655 1.876-1.404 2.533-1.217 1.032-.842 1.782 2.995 5.253 2.527 2.25 5.242 4.033 6.178 4.127 2.246 0 6.365-2.157 8.518-4.596 1.03-1.126 2.434-1.97 3.09-1.97.75 0-.28 1.595-2.34 3.47-4.587 4.41-6.084 9.943-2.995 11.537 2.62 1.407 7.956-.28 11.513-3.564 1.404-1.313 2.527-1.97 2.527-1.407s.655 1.313 1.498 1.595c1.685.657 5.054-.938 5.054-2.44 0-.563.562-1.5 1.3-2.064s1.59-2.626 1.872-4.596l.655-3.564-4.212.563c-3.744.563-4.493.375-6.646-1.782-1.966-1.97-2.434-3.095-1.966-5.065.75-3.002 3.838-5.816 6.365-5.816 2.434 0 1.966-4.596-.655-6.003-1.03-.563-3.09-1.97-4.493-3.19-2.995-2.345-7.395-2.72-8.986-.75zm7.956 2.908c1.498 1.313 3.463 2.626 4.4 2.908 2.34.75 1.966 2.908-.75 3.377-1.59.375-3.182-.188-4.96-1.69-2.434-2.157-3.93-2.814-3.93-1.782 0 .28 1.123 1.5 2.527 2.72 1.966 1.69 2.34 2.626 1.778 4.596-.562 2.25-1.03 2.533-4.586 2.533-4.025 0-10.11 2.533-10.764 4.502-.187.657 1.404.28 3.744-.75 2.246-1.032 5.523-1.876 7.395-1.876 2.714 0 3.557.47 4.493 2.533.936 2.157.842 2.814-.655 4.878-2.714 3.658-4.118 6.66-3.182 6.66.468 0 2.06-1.688 3.463-3.752 1.872-2.814 3.182-3.752 4.586-3.564 1.966.375 2.153.844 1.03 3.752-.374.938-.28 1.688.28 1.688s1.404-1.313 1.966-2.814c1.123-3.377 4.306-4.034 3.276-.75-.28 1.22-1.03 2.25-1.404 2.44-.468.188-.842.75-.842 1.313s-.75 1.595-1.59 2.25c-2.153 1.5-4.025.094-4.025-3.002 0-1.22-.374-2.25-.936-2.25-.468 0-.936 1.032-.936 2.25 0 2.533-3.93 6.19-6.646 6.19-.842 0-1.778.47-1.966 1.126-.187.563-1.123.844-1.966.47-1.217-.47-1.498-1.22-1.03-3.19.562-2.626 5.148-7.785 6.74-7.785 1.123 0 2.246-2.72 1.498-3.846-.936-1.595-4.025-.844-7.114 1.782-5.054 4.41-7.582 4.502-11.887.657-3.65-3.377-3.744-3.377-1.872-5.253.936-.938 2.06-1.782 2.434-1.782s1.685-1.126 2.902-2.626c1.778-1.97 2.995-2.533 5.99-2.533 4.96 0 5.43-1.407 1.217-3.658-1.778-1.032-3.276-2.064-3.276-2.44 0-.75 3.276-2.44 6.365-3.283 1.123-.375 2.06-1.032 2.06-1.5 0-1.69 3.463-.844 6.178 1.5z"/><path d="M413.307 185.768c-.712.377-1.92.72-2.904 1.473-.95.72-3.638 2.205-4.587 2.753-2 1.095-1.394 2.244-.004 3.168 1.56 1.027 4.258.878 6.97-1.14 3.832-2.875 3.836-2.867.547.35-2.306 2.225-2.193 3.392-1.55 5.446.577 1.814 1.553 2.63 4.3 2.63 3.324 0 8.433 2.02 9.96 3.73 1.357 1.506 1.176.397-3.91-1.486-3.3-1.198-7.663-1.54-8.986-.65-1.12.72-3.035 4.266-2.764 5.396.136.445 1.545 2.13 2.63 3.807 1.865 2.875 2.375 3.96 1.968 4.37-.305.274-.58-.68-2.92-3.728-2.204-2.84-3.707-3.468-5.504-3.263-.916.103-.74.692-.706 1.958a12.04 12.04 0 0 0 .305 2.533c.44 1.883-.814 1.232-2.035-1.06-1.255-2.362-2.224-4.205-3.072-4.205-.95 0-.692 2.87.36 4.308.475.65 1.05 1.643 1.323 2.19.746 1.61 2.204 2.91 3.256 2.91 1.29 0 2-.958 2.374-3.252.51-3.08 1.424-3.457 1.865-.753.34 1.917.848 2.875 2.442 4.416 1.323 1.3 3.3 2.328 4.477 2.328.373 0 1.085.377 1.594.856.983.924 1.526 1.027 2.544.513.814-.445 1.61-2.164.865-3.9-.95-2.328-4.618-6.423-6.517-7.21-1.017-.445-1.858-1.628-1.69-2.826.068-.48.17-.932.68-1.17 1.29-.616 2.884.198 6.24 2.662 1.526 1.095 3.283 2.198 3.893 2.507 1.594.82 3.912.806 5.743-.29 2-1.164 5.845-4.72 5.845-5.473 0-.856-.996-2.03-2.624-3.126-.814-.548-2.53-2.004-3.65-3.1-2.5-2.362-3.072-3.02-6.633-3.327-2.95-.274-4.157-.267-3.818-1.157.102-.308 1.222-1.1 2.85-2.16 2.78-1.814 2.883-1.95 2.374-2.533-.577-.65-2.95-1.78-6.07-2.944-1.085-.376-1.73-.856-1.933-1.403-.407-1.027-1.662-1.06-3.527-.137z" class="B"/><path d="M418.677 184.48c.655.75 2.527 1.595 4.212 1.876 4.4.844 6.084 5.534 2.434 6.66-2.714.844-2.246 2.157.562 1.595 1.966-.375 3.09.188 4.96 2.345 1.3 1.5 3.182 3.002 4.025 3.377.936.28 1.685 1.22 1.685 1.876 0 .75.655 1.876 1.404 2.533 1.217 1.032.842 1.782-2.995 5.253-2.527 2.25-5.242 4.034-6.178 4.127-2.246 0-6.365-2.157-8.518-4.596-1.03-1.126-2.434-1.97-3.09-1.97-.75 0 .28 1.595 2.34 3.47 4.587 4.41 6.084 9.943 2.995 11.538-2.62 1.407-7.956-.28-11.513-3.564-1.404-1.313-2.527-1.97-2.527-1.407s-.655 1.313-1.498 1.595c-1.685.657-5.054-.938-5.054-2.44 0-.563-.562-1.5-1.3-2.064s-1.59-2.626-1.872-4.596l-.655-3.564 4.212.563c3.744.563 4.493.375 6.646-1.782 1.966-1.97 2.434-3.095 1.966-5.065-.75-3.002-3.838-5.816-6.365-5.816-2.434 0-1.966-4.596.655-6.003 1.03-.563 3.09-1.97 4.493-3.19 2.995-2.345 7.395-2.72 8.986-.75zm-7.956 2.908c-1.498 1.313-3.463 2.626-4.4 2.908-2.34.75-1.966 2.908.75 3.377 1.59.375 3.182-.188 4.96-1.688 2.434-2.157 3.93-2.814 3.93-1.782 0 .28-1.123 1.5-2.527 2.72-1.966 1.688-2.34 2.626-1.778 4.596.562 2.25 1.03 2.533 4.587 2.533 4.025 0 10.11 2.533 10.764 4.502.187.657-1.404.28-3.744-.75-2.246-1.032-5.523-1.876-7.395-1.876-2.714 0-3.557.47-4.493 2.533-.936 2.157-.842 2.814.655 4.878 2.714 3.658 4.118 6.66 3.182 6.66-.468 0-2.06-1.688-3.463-3.752-1.872-2.814-3.182-3.752-4.586-3.564-1.966.375-2.153.844-1.03 3.752.374.938.28 1.688-.28 1.688s-1.404-1.313-1.966-2.814c-1.123-3.377-4.306-4.033-3.276-.75.28 1.22 1.03 2.25 1.404 2.44.468.188.842.75.842 1.313s.75 1.595 1.59 2.25c2.153 1.5 4.025.094 4.025-3.002 0-1.22.374-2.25.936-2.25.468 0 .936 1.032.936 2.25 0 2.533 3.93 6.19 6.646 6.19.842 0 1.778.47 1.966 1.126.187.563 1.123.844 1.966.47 1.217-.47 1.498-1.22 1.03-3.19-.562-2.626-5.148-7.786-6.74-7.786-1.123 0-2.246-2.72-1.498-3.846.936-1.595 4.025-.844 7.114 1.782 5.055 4.41 7.582 4.502 11.887.657 3.65-3.377 3.744-3.377 1.872-5.253-.936-.938-2.06-1.782-2.434-1.782s-1.685-1.126-2.902-2.626c-1.778-1.97-2.995-2.533-5.99-2.533-4.96 0-5.43-1.407-1.217-3.658 1.778-1.032 3.276-2.064 3.276-2.44 0-.75-3.276-2.44-6.365-3.283-1.123-.375-2.06-1.032-2.06-1.5 0-1.688-3.463-.844-6.178 1.5z"/><path d="M368.21 278.123c-1.05.41-1.153.72-.644 1.95.746 1.746 1.5 2.597 4 2.392 2.61-.24 3.63-.122 3.867.53.27.72.608.31-2.07.583-2.137.24-3.003.775-3.817 1.7-2.07 2.328-1.8 4.088 1.804 7.922 4.002 4.28 5.345 3.515 5.98 8.205-.407.685-.965.064-2.118-2.126-2.035-3.8-5.385-7.203-8.234-7.716-1.526-.274-4.58 1.057-5.124 2.29-.237.48-.144 2.8-.28 4.898-.237 3.936-.172 4.998-.884 3.937-.407-.65-.285-.442.122-3.968.475-3.56.237-5.6-1.017-6.252-1.594-.822-3.226-.137-3.43.958-.27 1.3-.95 2.6-1.357 2.636-.203.034-.373-1.3-.44-3.183-.034-1.78-.27-3.457-.475-3.697-1.29-1.575-2.442 1.335-2.238 5.648.237 5.17 1.526 6.093 4.375 3.15.916-.96 1.554-.74 1.758-.74.746 0 .287.2-.56 2.093-1.323 2.944-.822 4.72 1.01 7.424.814 1.232 1.73 2.773 2 3.457.644 1.54 2.83 1.426 4.357.023.95-.856 1.207-1.44 1.342-3.392.068-1.438-.44-3.157-.88-5.142-1.153-4.895-1.463-6.097.47-6.097 1.696 0 3.664 3.678 4.207 7.41.44 3.08 2.467 4.803 6.266 5.625 2 .41 4.997.358 6.625.05 1.255-.274 1.323-.9.543-5.032-.27-1.472-.51-3.624-.543-4.41-.034-2.567-.4-3.872-3.114-6.13-3.968-3.286-4.84-4.3-1.076-3.352 3.866 1.027 5.634.035 5.26-2.293-.136-.685-.928-2.054-1.573-2.978-.644-.958-1.208-3.107-1.446-4.03-.237-.958-1.354-1.883-1.76-2.122-1.357-.924-9.25-.898-10.913-.214z" class="B"/><path d="M381.42 277.63c2.246 3.47 4.68 9.192 4.68 11.07 0 2.44-3.276 4.034-5.7 2.626-1.498-.75-1.872-.75-1.3.094.374.563 1.685 1.407 2.902 1.876 1.872.75 2.246 1.5 2.246 4.596 0 2.064.374 3.94.842 4.22s.842 2.064.842 3.846c0 3.94-3.9 4.494-7.812 4.52-3.43-.595-5.496-1.702-7.274-2.584-.936-1.688-1.67-3.72-2.324-5.877s-1.685-4.22-2.246-4.596-.315 3.525-.035 4.275c2.62 6.38 1.075 3.665.733 8.88-1.6 1.656-2.396 2.406-4.63 2.27-2.34-.143-2.647-.954-4.094-3.063-.936-2.345-3.457-6.9-3.3-5.234.054.576-1.03-2.814-1.498-2.814-3.65 0-5.055-7.973-2.434-13.132 1.778-3.47 2.434-3.47 4.96 0 3.838 5.16 11.42 3.002 11.42-3.283 0-1.5-.655-3.377-1.498-4.315-1.03-1.22-1.217-2.064-.562-3.283.75-1.313 2.434-1.688 7.863-1.876 6.27-.28 7.02-.094 8.237 1.782zm-14.228 1.688c.655 2.627 2.153 3.565 5.242 3.002 1.872-.28 3.37-.094 3.744.563.468.657-.28 1.032-1.966 1.032-3.276 0-4.493.844-5.335 3.47-.468 1.595.094 2.72 2.808 5.16 2.902 2.72 5.99 7.13 5.99 8.724 0 1.688-2.153 0-2.902-2.25-1.404-3.846-6.833-7.88-9.547-7.035-2.902.844-3.463 2.064-3.463 7.13 0 2.626-.468 4.502-1.03 4.502-.655 0-.842-1.595-.374-4.784.468-3.658.374-5.065-.562-5.628-2.153-1.407-3.65-.938-3.65 1.032 0 1.032-.468 1.876-1.03 1.876-.655 0-.842-1.032-.562-2.533.936-4.97-1.59-7.035-2.62-2.157-.842 3.658.28 8.442 1.872 8.442.75 0 1.966-.938 2.714-2.064 1.778-2.44 3.276-1.407 1.685 1.126-1.685 2.72-1.404 5.44.75 7.692 1.03 1.126 1.872 2.626 1.872 3.283 0 2.064 3.182 1.313 4.306-1.032.75-1.595.655-3.47-.28-7.035-1.3-5.16-1.03-6.66 1.123-6.66 1.498 0 4.212 4.596 4.212 7.223.094 4.41 4.118 6.566 11.326 6.097 2.434-.188 2.527-.375 1.685-3.752-.468-1.876-.842-4.784-.842-6.285 0-2.158-.75-3.377-3.276-5.065-3.744-2.533-4.493-5.347-1.217-4.22 4.4 1.407 5.897 1.032 5.616-1.5-.187-1.22-.936-2.72-1.59-3.283-.75-.47-1.404-1.97-1.59-3.283-.187-1.876-.936-2.44-3.557-2.814-6.084-.844-9.828-.47-9.547 1.032z"/><path d="M300.432 73.777c3.87 0 6.99 3.127 6.99 7.13 0 3.877-3.12 7.13-6.99 7.13s-7.114-3.252-7.114-7.13a7.12 7.12 0 0 1 7.114-7.129h0zM193.975 227.11c-4.618 0-8.36-3.502-8.36-8.13s3.744-8.38 8.36-8.38c4.743 0 8.362 3.752 8.362 8.38s-3.62 8.13-8.362 8.13h0zm.125-36.144c4.493 0 7.987 3.627 7.987 8.004 0 4.503-3.494 8.13-7.987 8.13-4.368 0-7.988-3.627-7.988-8.13 0-4.377 3.62-8.004 7.988-8.004h0zM179 171.83c4.243 0 7.863 3.627 7.863 8.004s-3.62 8.005-7.863 8.005c-4.368 0-7.987-3.627-7.987-8.005s3.62-8.004 7.987-8.004h0zm240.994 4.252c-5.117 0-9.36 4.127-9.36 9.255s4.243 9.38 9.36 9.38 9.235-4.252 9.235-9.38-4.118-9.255-9.235-9.255h0zm-16.474 50.403c4.618 0 8.487-3.877 8.487-8.63 0-4.627-3.87-8.504-8.487-8.504-4.743 0-8.61 3.877-8.61 8.504 0 4.753 3.87 8.63 8.61 8.63h0zm1.123-35.395c4.743 0 8.61 3.877 8.61 8.63s-3.87 8.63-8.61 8.63-8.487-3.877-8.487-8.63 3.744-8.63 8.487-8.63h0zm-33.447 78.043c-3.494 0-6.365 2.877-6.365 6.38 0 3.627 2.87 6.503 6.365 6.503a6.45 6.45 0 0 0 6.49-6.503c0-3.502-2.87-6.38-6.5-6.38h0zm-10.234 8.255a6.85 6.85 0 0 1 6.864 6.878c0 3.752-3.12 6.88-6.864 6.88s-6.864-3.127-6.864-6.88a6.85 6.85 0 0 1 6.864-6.878h0zm-12.106 7.63c4.493 0 8.237 3.877 8.237 8.38 0 4.627-3.744 8.505-8.237 8.505-4.618 0-8.362-3.877-8.362-8.505 0-4.502 3.744-8.38 8.362-8.38h0zm-124.742-16.634c3.744 0 6.99 3.126 6.99 7.003 0 4.002-3.245 7.13-6.99 7.13a7.12 7.12 0 0 1-7.114-7.129c0-3.877 5.556-7.003 9.425-7.003h-2.31zm13.543 7.13c-4.368 0-7.987 3.627-7.987 8.13 0 4.377 3.62 8.004 7.987 8.004 4.493 0 8.112-3.627 8.112-8.004 0-4.502-3.62-8.13-8.112-8.13h0zm13.23 23.262c-3.994 0-7.24-3.25-7.24-7.13 0-4.002 3.245-7.254 7.24-7.254s7.363 3.252 7.363 7.254c0 3.877-3.37 7.13-7.363 7.13h0z" fill="#ffd300" class="E H"/></svg>