<svg xmlns="http://www.w3.org/2000/svg" xmlns:xlink="http://www.w3.org/1999/xlink" height="1080" viewBox="0 0 6912 4320" width="1728" xmlns:v="https://vecta.io/nano"><style><![CDATA[.B{stroke:#002d56}.C{stroke-miterlimit:3.86369991}.D{fill-rule:evenodd}.E{stroke-width:8.489}.F{stroke-width:4.9}.G{fill:#eed000}.H{fill:none}.I{stroke-linejoin:round}.J{stroke-width:1.633}.K{stroke-width:4.083}.L{fill:#002d56}.M{stroke-width:6.367}.N{stroke-width:7.428}.O{stroke-width:5.421}.P{stroke-width:4.517}.Q{stroke-width:3.488}.R{stroke-width:3.267}.S{stroke-width:2.45}]]></style><path d="M0 0h6912v4320H0z" fill="#fff"/><path d="M0 0h6912v1440H0z" fill="#b50027"/><path d="M0 0h2880v2880H0z" class="L"/><path d="M1504.465 393.787l102.6-72.344-125.564-1.805-37.16-119.964-40.44 118.857-125.556-1.802L1378.9 392l-40.426 118.858 102.6-72.347 100.563 75.255zm-493.377 88.287l57.22-111.726-112.017 56.746-88.645-88.954 19.422 124.03-112 56.746 124.012 19.9 19.433 124.026 57.22-111.728 124 19.906zM613.715 791.968l-1.25-125.515L539.65 768.75l-119.822-37.574 74.83 100.798-72.8 102.3 119.057-39.993 74.837 100.787-1.25-125.516 119.053-39.997zM408.96 1250.103l-59.428-110.554-16.94 124.4-123.554 22.407 113.092 54.48-16.938 124.403 86.835-90.732 113.095 54.467-59.43-110.555 86.83-90.734zm28.922 499.644l-104-70.275 42.808 118.03-98.987 77.25 125.45-4.312 42.808 118.023 34.727-120.687 125.447-4.324-103.992-70.274 34.72-120.686zm258.93 431.82l-124.73-13.905 92.748 84.618-51.75 114.396 109.075-62.1 92.744 84.6-25.33-122.997 109.066-62.118-124.732-13.903-25.335-122.993zm430.72 259.272l-116.902 45.646 121.44 31.827 7.332 125.338 67.72-105.678 121.434 31.823-79.58-97.136 67.708-105.682-116.903 45.648-79.582-97.13zm499.24 30.853l-82.3 94.736 122.317-28.248 64.732 107.57 10.858-125.037 122.308-28.248-115.598-49.03 10.845-125.035-82.3 94.738-115.597-49.023zm459.243-204.198l-28.85 122.124 95.177-81.847 107.3 65.17-48.486-115.758 95.17-81.844-125.137 10.3-48.497-115.75-28.85 122.126-125.134 10.307zm310.06-396.563l31.202 121.54 46.242-116.696 125.3 7.844-96.72-79.966 46.238-116.7-106.015 67.267-96.725-79.955 31.203 121.54-106 67.27zM2339.455 899l117.735 43.37-69.754-104.345 77.63-98.64-120.746 34.16-69.752-104.338-4.875 125.45-120.74 34.17 117.736 43.37-4.87 125.446zm-355.91-356.315l124.4-16.304-110.248-59.98 22.904-123.4-91.04 86.35-110.243-59.973 53.975 113.342-91.03 86.358 124.4-16.306L1960.64 666.1zm502.688 836l84.1 93.117-13.28-124.814 114.58-51.27-122.796-25.864-13.28-124.806-62.613 108.822-122.796-25.85 84.104 93.117-62.607 108.822z" fill="#fff" class="D"/><g class="G"><path d="M918.673 2090.018h-36.357v-4.044l4.438-.342c1.934-.15 3.3-.38 4.097-.684 1.252-.493 2.162-1.157 2.73-1.993.57-.873.854-2.07.854-3.6v-58.562c0-1.328-.2-2.43-.626-3.304-.418-.912-1.405-1.67-2.96-2.28-1.138-.456-2.58-.872-4.324-1.253-1.707-.417-3.112-.664-4.2-.74v-4.044h36.357v4.044c-1.177.04-2.58.2-4.2.456-1.632.228-3.055.532-4.267.912-1.442.456-2.4 1.196-2.902 2.222s-.74 2.165-.74 3.418v58.504c0 1.253.265 2.375.797 3.36.57.95 1.517 1.7 2.845 2.278.797.305 2.086.646 3.87 1.025 1.82.342 3.357.532 4.6.57v4.045zm99.62-76.79c-1.063.04-2.694.342-4.893.912s-3.775 1.16-4.722 1.766c-1.366.95-2.296 2.773-2.788 5.47-.455 2.697-.683 6.115-.683 10.254v59.188h-4.95l-48.932-66.138v41.7c0 4.67.285 8.26.854 10.767.606 2.506 1.516 4.292 2.73 5.354.87.837 2.672 1.615 5.405 2.336s4.532 1.102 5.405 1.14v4.044h-33.114v-4.044c1.024-.08 2.75-.436 5.178-1.083 2.427-.684 3.944-1.3 4.552-1.823 1.326-1.063 2.237-2.675 2.73-4.842.493-2.202.738-5.942.74-11.222v-39.82c0-1.746-.304-3.493-.9-5.24s-1.423-3.094-2.447-4.044c-1.365-1.254-3.225-2.316-5.576-3.2-2.315-.9-4.193-1.404-5.633-1.48v-4.044h23.044l45.404 61.638v-38.453c0-4.708-.304-8.315-.9-10.824-.608-2.544-1.48-4.233-2.617-5.07-1.063-.72-2.807-1.422-5.234-2.108-2.4-.684-4.2-1.063-5.462-1.14v-4.044h32.83v4.044zm119.078 44.49l-3.698.57c-1.518.23-2.75.57-3.698 1.025-1.138.57-1.954 1.387-2.447 2.45-.455 1.025-.683 2.24-.683 3.646v6.267l.057 9.228.228 3.93c-5.046 2.278-10.07 4.026-15.078 5.24s-9.92 1.82-14.737 1.823c-5.16 0-10.128-.968-14.907-2.905s-8.953-4.7-12.518-8.26c-3.604-3.607-6.47-7.993-8.592-13.16s-3.186-10.936-3.186-17.318c0-6.153 1.004-11.85 3.015-17.1 2.048-5.278 4.93-9.854 8.648-13.73 3.602-3.797 7.9-6.74 12.86-8.83 5.007-2.125 10.355-3.188 16.045-3.2 4.552 0 8.515.552 11.9 1.652s6.353 2.432 8.933 3.988l2.333-3.874h4.552l.512 28.255h-4.666c-.797-3.113-1.783-6.17-2.958-9.172-1.177-3.036-2.694-5.75-4.552-8.146a20.5 20.5 0 0 0-6.828-5.697c-2.656-1.442-5.843-2.163-9.56-2.165-4.06 0-7.68.837-10.867 2.506-3.186 1.634-5.957 4.083-8.307 7.35-2.315 3.153-4.097 7.083-5.35 11.792s-1.878 9.97-1.878 15.78c0 5.127.606 9.97 1.82 14.526 1.252 4.52 3.053 8.43 5.405 11.735 2.35 3.38 5.3 6.04 8.82 7.975s7.528 2.906 12.006 2.906c3.337 0 6.37-.513 9.104-1.538 2.768-1.026 4.72-2.108 5.86-3.247.302-1.974.453-3.968.455-5.98l.057-5.127v-4.443c0-1.595-.228-3-.683-4.216-.418-1.253-1.3-2.165-2.674-2.734-1.252-.57-2.96-.986-5.12-1.254-2.125-.302-3.794-.493-5.007-.57v-4.158h35.4v4.158zm79.388-38.965c3.565 3.723 6.353 8.223 8.364 13.5 2 5.24 3.014 11.05 3.016 17.432 0 6.42-1.024 12.248-3.073 17.5s-4.893 9.704-8.535 13.387a36.91 36.91 0 0 1-12.3 8.43c-4.676 1.973-9.636 2.96-14.907 2.962-5.615 0-10.8-1.044-15.6-3.133-4.742-2.125-8.82-5.068-12.233-8.83-3.414-3.683-6.108-8.145-8.08-13.387-1.934-5.278-2.902-10.918-2.902-16.92 0-6.57 1.024-12.417 3.073-17.546 2.048-5.164 4.874-9.625 8.478-13.387 3.565-3.72 7.7-6.57 12.404-8.545a38.27 38.27 0 0 1 14.85-2.962c5.348 0 10.393 1.008 15.135 3.02s8.837 4.842 12.3 8.488zm-8.477 57.308c2.123-3.456 3.66-7.367 4.6-11.735.985-4.367 1.477-9.247 1.48-14.64 0-5.544-.55-10.633-1.65-15.267-1.063-4.632-2.637-8.583-4.723-11.85-2.087-3.228-4.705-5.733-7.852-7.52-3.15-1.823-6.753-2.734-10.8-2.734-4.552 0-8.42 1.045-11.607 3.133s-5.786 4.88-7.795 8.374c-1.897 3.343-3.32 7.254-4.267 11.735-.9 4.482-1.366 9.2-1.366 14.128 0 5.47.492 10.407 1.48 14.812s2.54 8.317 4.666 11.735c2.048 3.343 4.626 5.963 7.738 7.86 3.1 1.862 6.826 2.792 11.152 2.792 4.057 0 7.72-.95 10.98-2.85s5.916-4.555 7.967-7.975zm109.297-25.976c0 6.875-1.3 12.836-3.87 17.887s-5.937 9.2-10.07 12.42c-4.173 3.23-8.858 5.64-14.054 7.234s-10.565 2.393-16.102 2.393h-33.456v-4.044c1.1 0 2.52-.1 4.267-.285 1.78-.228 2.957-.474 3.528-.74 1.138-.493 1.952-1.214 2.447-2.164.53-.986.795-2.163.796-3.532v-58.333c0-1.3-.228-2.448-.683-3.475-.418-1.025-1.27-1.84-2.56-2.45-1.177-.57-2.447-.986-3.812-1.253s-2.542-.437-3.528-.514v-4.044h35.277c4.854 0 9.633.76 14.338 2.278 4.703 1.48 8.8 3.495 12.3 6.04 4.74 3.38 8.458 7.804 11.152 13.273s4.038 11.905 4.04 19.3zm-13.94-.06c0-5.43-.722-10.33-2.162-14.697-1.442-4.404-3.547-8.24-6.316-11.507-2.617-3.114-5.843-5.563-9.672-7.35-3.794-1.784-8.022-2.675-12.688-2.677a143.09 143.09 0 0 0-5.291.114l-4.324.114v62.15c0 3.457 1.005 5.85 3.016 7.178s5.1 1.994 9.274 1.994c4.817 0 9.027-.854 12.63-2.563s6.524-4.082 8.762-7.12c2.35-3.2 4.058-6.873 5.12-11.052 1.098-4.216 1.648-9.076 1.65-14.584zm168.122-36.798c-.95.04-2.048.268-3.3.684-1.252.38-2.4.894-3.47 1.538-1.328.836-2.4 1.805-3.243 2.905-.797 1.064-1.5 2.563-2.105 4.5l-9.388 30.762-11.55 37.427h-5.234l-20.37-62.207-21.223 62.207h-5.007l-11.664-41.357-8.08-28.768c-.34-1.177-.854-2.22-1.536-3.133-.646-.9-1.536-1.746-2.674-2.506-.95-.645-2.068-1.12-3.357-1.424-1.252-.342-2.4-.55-3.414-.627v-4.044h32.944v4.044c-2.884.154-5.348.438-7.396.855-2 .418-3.016 1.122-3.016 2.108 0 .38.057.894.17 1.538l.284 1.48c.87 3.343 2.408 8.87 4.6 16.577l9.9 34.522 20.14-59.986h5.576l20.312 61.296 7.056-24.667 4.893-18.115c.9-3.532 1.48-5.942 1.707-7.235.228-1.328.342-2.448.342-3.36 0-1.3-.893-2.373-2.674-3.247-1.746-.873-4.6-1.46-8.535-1.767v-4.044h29.302zm78.395 52.98l-1.536 23.812h-67.025v-4.044l4.552-.456c1.896-.266 3.127-.53 3.698-.798 1.213-.57 2.047-1.3 2.504-2.222.492-.9.738-2.068.74-3.475v-58.106c0-1.253-.2-2.354-.626-3.304-.418-.986-1.3-1.783-2.617-2.393-1.024-.493-2.4-.93-4.153-1.3-1.707-.38-3.072-.607-4.097-.684v-4.044h62.474v19.482h-4.267c-.76-2.886-2.4-5.942-4.95-9.172-2.504-3.265-4.893-5.05-7.17-5.354-1.177-.15-2.58-.266-4.2-.342s-3.5-.112-5.576-.114h-12.688v32.13h9.104c2.92 0 5.044-.265 6.373-.797 1.365-.57 2.56-1.5 3.584-2.792.834-1.1 1.534-2.562 2.105-4.386.606-1.86 1.005-3.607 1.195-5.24h4.268v31.616h-4.268c-.153-1.823-.57-3.74-1.25-5.754-.646-2.05-1.328-3.53-2.048-4.443-1.177-1.48-2.523-2.45-4.04-2.905-1.48-.456-3.453-.684-5.917-.684h-9.104v24.268c0 2.432.17 4.35.512 5.754s1.005 2.47 2 3.2 2.33 1.196 4.04 1.424c1.707.2 4.134.285 7.283.285h4.95c2.048 0 3.773-.07 5.177-.228 1.44-.15 2.92-.417 4.438-.798 1.554-.417 2.655-.966 3.3-1.652 1.744-1.823 3.565-4.575 5.462-8.26 1.935-3.72 3.167-6.455 3.698-8.203h4.095zm118.753-35.09h-3.926c-.34-1.367-.967-2.98-1.877-4.842-.873-1.898-1.86-3.684-2.96-5.355-1.138-1.747-2.4-3.265-3.755-4.557-1.33-1.328-2.618-2.088-3.87-2.28-1.177-.15-2.657-.265-4.438-.34l-4.95-.114h-3.3v64.656c0 1.254.265 2.413.797 3.476.53 1.025 1.46 1.822 2.788 2.393.683.267 2.105.626 4.268 1.082 2.2.456 3.906.703 5.12.74v4.044h-38.122v-4.044l4.836-.456c2.2-.228 3.717-.513 4.552-.854 1.252-.493 2.162-1.195 2.73-2.108.606-.948.9-2.202.9-3.76v-65.17h-3.3l-4.38.114-5.007.34c-1.252.153-2.56.912-3.926 2.28-1.328 1.33-2.56 2.848-3.698 4.557s-2.144 3.532-3.015 5.47c-.873 1.9-1.48 3.475-1.82 4.728h-3.983v-21.932h70.325v21.93zm91.767 58.903h-21.735c-4.818-7.557-9.18-14.088-13.086-19.596a438.92 438.92 0 0 0-12.63-17.033h-8.25v25.635c0 1.33.208 2.506.626 3.53.416.988 1.307 1.75 2.674 2.28.683.267 1.878.513 3.585.74s3.147.36 4.324.4v4.044h-34.14v-4.044l3.926-.4c1.744-.188 2.957-.436 3.642-.74 1.138-.493 1.952-1.214 2.446-2.165.53-.95.795-2.163.797-3.646v-58.448c0-1.328-.2-2.505-.57-3.532s-1.27-1.804-2.674-2.336c-.95-.342-2.182-.645-3.698-.9-1.52-.303-2.808-.493-3.87-.57v-4.044h37.268c3.414 0 6.618.36 9.616 1.082 2.996.684 5.707 1.806 8.136 3.36 2.35 1.52 4.228 3.514 5.633 5.98 1.403 2.432 2.104 5.374 2.105 8.83 0 3.116-.475 5.868-1.422 8.26a17.12 17.12 0 0 1-4.2 6.21c-1.707 1.635-3.755 3.06-6.145 4.272-2.4 1.18-5.026 2.185-7.908 3.02l9.9 13.33 9.73 13.16c1.668 2.278 3.167 3.97 4.495 5.07 1.366 1.064 2.712 1.937 4.04 2.62.985.495 2.217.874 3.698 1.14s2.7.418 3.698.456v4.046zm-29.928-60.27c0-4.9-1.404-8.772-4.2-11.62-2.808-2.886-6.77-4.327-11.892-4.33h-9.672v34.692h7.454c5.235 0 9.596-1.67 13.086-5.013 3.487-3.378 5.232-7.955 5.234-13.73zm114.363-16.52c-1.063.04-2.617.268-4.666.684s-3.718 1.045-5.007 1.88c-1.3.875-2.182 2.677-2.674 5.412s-.74 6.078-.74 10.026v35.148c0 4.482-.93 8.374-2.788 11.678s-4.306 6.02-7.34 8.146c-2.998 2.05-6.164 3.514-9.502 4.386-3.3.9-6.47 1.367-9.502 1.367-4.856 0-9.18-.646-12.973-1.937-3.794-1.253-6.98-2.962-9.56-5.127-2.542-2.165-4.458-4.632-5.747-7.406-1.3-2.8-1.935-5.734-1.935-8.773v-47.794c0-1.328-.227-2.43-.683-3.304-.418-.9-1.3-1.746-2.617-2.506-.95-.53-2.162-.95-3.642-1.253-1.48-.342-2.694-.55-3.642-.627v-4.044h33.627v4.044c-1.063.04-2.4.2-4.04.514-1.593.304-2.77.6-3.528.854-1.3.456-2.162 1.216-2.617 2.28-.418 1.064-.626 2.222-.626 3.475v44.662c0 2.165.228 4.443.683 6.836.493 2.355 1.44 4.557 2.845 6.607 1.48 2.1 3.5 3.8 6.03 5.127s6.03 1.994 10.47 1.994c4.17 0 7.662-.664 10.47-1.994 2.845-1.328 5.082-3.074 6.714-5.24 1.554-2.05 2.655-4.196 3.3-6.438s.966-4.5.967-6.78v-33.155c0-4.215-.304-7.65-.9-10.3-.608-2.695-1.5-4.46-2.674-5.298-1.328-.95-3.15-1.7-5.462-2.222-2.276-.53-4.022-.835-5.235-.912v-4.044h33v4.045zm59.9 39.706c1.707 1.9 2.96 3.988 3.755 6.267.834 2.24 1.25 4.86 1.252 7.86 0 7.14-2.637 13.027-7.9 17.66s-11.817 6.948-19.63 6.95c-3.604 0-7.208-.552-10.8-1.652-3.604-1.14-6.714-2.507-9.33-4.102l-2.447 4.16h-4.552l-.797-27.686h4.6c.948 3.418 2.046 6.514 3.3 9.286 1.3 2.734 2.976 5.298 5.064 7.7 1.972 2.24 4.265 4.026 6.885 5.354 2.655 1.33 5.727 1.994 9.218 1.994 2.617 0 4.893-.342 6.827-1.025 1.972-.684 3.565-1.652 4.78-2.905s2.104-2.715 2.674-4.387c.606-1.7.908-3.664.9-5.868 0-3.227-.9-6.227-2.73-9-1.82-2.8-4.534-4.937-8.136-6.38l-8.478-3.247c-3.186-1.215-5.937-2.354-8.25-3.418-4.552-2.05-8.1-4.728-10.64-8.032-2.503-3.34-3.755-7.7-3.755-13.045 0-3.076.626-5.942 1.878-8.602s3.033-5.03 5.348-7.12c2.2-1.974 4.797-3.512 7.795-4.614 2.996-1.14 6.125-1.7 9.388-1.7 3.716 0 7.036.57 9.957 1.7 2.96 1.14 5.65 2.47 8.08 3.988l2.333-3.874h4.552l.455 26.83h-4.6c-.836-3.076-1.783-6.02-2.845-8.83-1.024-2.8-2.372-5.353-4.04-7.633-1.632-2.202-3.624-3.95-5.974-5.24-2.353-1.328-5.235-1.992-8.648-1.994-3.604 0-6.677 1.16-9.218 3.475s-3.812 5.146-3.812 8.488c0 3.495.814 6.4 2.447 8.716 1.63 2.28 4 4.16 7.112 5.64a95.82 95.82 0 0 0 8.137 3.475c2.692.95 5.3 1.976 7.795 3.077 2.276.987 4.456 2.107 6.543 3.36 2.123 1.253 3.964 2.716 5.52 4.386zm87.376-21.818h-3.926c-.34-1.367-.967-2.98-1.877-4.842-.873-1.898-1.86-3.684-2.96-5.355-1.138-1.747-2.4-3.265-3.755-4.557-1.328-1.328-2.617-2.088-3.87-2.28-1.177-.15-2.656-.265-4.438-.34l-4.95-.114h-3.3v64.656c0 1.254.265 2.413.796 3.476.53 1.025 1.46 1.822 2.788 2.393.683.267 2.105.626 4.267 1.082 2.2.456 3.906.703 5.12.74v4.044h-38.122v-4.044l4.836-.456c2.2-.228 3.716-.513 4.552-.854 1.25-.493 2.162-1.195 2.73-2.108.606-.948.9-2.202.9-3.76v-65.17h-3.3l-4.38.114-5.007.34c-1.25.153-2.56.912-3.926 2.28-1.328 1.33-2.56 2.848-3.698 4.557a37.87 37.87 0 0 0-3.016 5.469c-.873 1.9-1.48 3.475-1.82 4.728h-3.983v-21.932h70.326z" stroke="#eed000" class="C J D"/><path d="M1442.886 1066.19c.164-.07.257-.1.263-.1.064-.02 10.04 3.57 10.126 19.197 8.83-1.654 12.393 3.01 10.69 13.987 0 0-10.482-2.834-12.193 3.143-2.57 6.9-.6 12.54 5.88 16.888 0 0 10.9 8.638 17.76-7.735l9.328-21.942c1.908-6.032 13.265-20.168 23.578-22.15 3.93-1.575 7.7-1.264 11.886-.26 0 0 9.024 1.953 9.28 9.494s-2.822 10.822-7.91 13c-5.626 2.42-12.573-2.773-12.573-2.773-2.422-.453-3.195.385-4.683 1.417-.685.475-3.54 3.6-5.196 7.14 0 0-5.01 10.588-7.398 18.675-1.882 6.368-6.03 25.63-25.53 28.52h-46.022c-19.5-2.89-23.65-22.152-25.53-28.52-2.4-8.087-7.398-18.675-7.398-18.675-1.655-3.53-4.51-6.664-5.196-7.14-1.487-1.03-2.26-1.87-4.683-1.417 0 0-6.948 5.192-12.574 2.773-5.09-2.188-8.168-5.47-7.91-13s9.28-9.494 9.28-9.494c4.196-1.002 7.957-1.314 11.886.26 10.313 1.98 21.67 16.117 23.577 22.15 0 0 2.47 5.57 9.328 21.942s17.76 7.735 17.76 7.735c6.49-4.35 8.448-9.98 5.88-16.888-1.7-5.978-12.193-3.143-12.193-3.143-1.7-10.978 1.862-15.64 10.69-13.987.085-15.628 10.062-19.222 10.127-19.197a2.99 2.99 0 0 1 .263.09z"/><path d="M1500.156 1591.96H1388.75l13.148-434.677h85.63zm-.476 241.716h-118.304l-.005-197.392 118.3-.037z" class="B C D E"/><use xlink:href="#B" class="B C E"/><path d="M1388.33 1592.438h104.688c7.438 0 13.468 4.776 13.468 10.668h0c0 5.892-6.03 10.668-13.468 10.668H1388.33c-7.438 0-13.468-4.776-13.468-10.668h0c0-5.892 6.03-10.668 13.468-10.668z" class="B C D E"/></g><path d="M1408.073 1673.258h63.204v130.138h-63.204z" class="B C E H"/><g class="G B C"><path d="M1406.756 1142.12h72.604c5.967 0 10.804 3.515 10.804 7.852s-4.837 7.85-10.804 7.85h-72.604c-5.967 0-10.804-3.515-10.804-7.85s4.838-7.852 10.804-7.852z" class="F"/><path d="M847.716 1857.296h1205.74v40.657H847.716z" stroke-width="10" class="D"/><path d="M796.275 1897.608H2105.73v43.05H796.275z" stroke-width="6"/><g class="D"><path d="M883.37 974.46h1125.787v24.908H883.37z" stroke-width="9.55"/><path d="M1797.1 973.698c-58.327-139.73-193.696-237.364-351.38-237.364-157.59 0-292.886 97.77-351.272 237.364H954.513c64.724-214.77 260.38-372.222 491.21-372.222 230.985 0 426.756 157.157 491.414 372.153z" class="F I"/><path d="M913.62 999.682s19.46 11.64 35.665 46.297l1001.527-.04s16.47-38.75 39.16-46.332z" stroke-width="6"/><path d="M1162.093 1054.98s92.78 159.232 281.446 157.04c186.37-2.166 281.447-151.624 281.447-151.624l49.7 73.646s18.367 24.91-17.286 56.317c-125.957 110.957-225.73 132.764-313.86 132.13-130.155-7.123-235.137-51.168-314.94-132.13-14.354-11.935-17.287-27.617-12.965-40.614z" class="F I"/></g></g><path d="M1113.745 1166.262s-5.672-32.22 45.107-6.226l3.78-104.514m615.564 88.808c-16.206-34.927-45.918 7.85-45.918 7.85l-7.48-91.244" class="H M B C"/><g class="G"><path d="M943.87 1047.856h1006.944c3.58 0 6.482 3.027 6.482 6.76v2.252c0 3.734-2.902 6.76-6.482 6.76H943.87c-3.58 0-6.482-3.027-6.482-6.76v-2.252c-.001-3.734 2.902-6.76 6.482-6.76z" stroke-width="5" class="B C"/><path d="M1032.874 1064.94c.164-.07.257-.1.263-.1.065-.02 10.04 3.57 10.126 19.197 8.83-1.654 12.393 3.01 10.692 13.987 0 0-10.482-2.834-12.193 3.143-2.57 6.9-.6 12.54 5.88 16.888 0 0 10.9 8.638 17.76-7.735l9.328-21.942c1.907-6.032 13.264-20.168 23.578-22.15 3.93-1.575 7.7-1.264 11.886-.26 0 0 9.024 1.953 9.28 9.494s-2.823 10.822-7.91 13c-5.626 2.42-12.573-2.773-12.573-2.773-2.422-.453-3.196.385-4.683 1.417-.685.475-3.54 3.6-5.196 7.14 0 0-5.01 10.588-7.398 18.675-1.882 6.368-6.03 25.63-25.53 28.52h-46.022c-19.5-2.89-23.65-22.152-25.53-28.52-2.39-8.087-7.398-18.675-7.398-18.675-1.655-3.53-4.51-6.664-5.196-7.14-1.487-1.03-2.26-1.87-4.683-1.417 0 0-6.948 5.192-12.573 2.773-5.09-2.188-8.168-5.47-7.912-13s9.28-9.494 9.28-9.494c4.196-1.002 7.957-1.314 11.886.26 10.313 1.98 21.67 16.117 23.577 22.15 0 0 2.47 5.57 9.328 21.942s17.76 7.735 17.76 7.735c6.49-4.35 8.448-9.98 5.88-16.888-1.71-5.978-12.193-3.143-12.193-3.143-1.7-10.978 1.863-15.64 10.69-13.987.086-15.628 10.062-19.222 10.127-19.197a2.99 2.99 0 0 1 .263.09z"/><g class="B C D E"><path d="M1088.87 1591.96H977.464l14.816-434.677h82.295zm3.45 241.716H974.016l-.001-197.392 118.305-.037z"/><path d="M973.205 1613.774h119.926c8.354 0 15.125 5.09 15.125 11.372h0c0 6.28-6.772 11.372-15.125 11.372H973.205c-8.353 0-15.125-5.09-15.125-11.372h0c-.001-6.28 6.77-11.372 15.125-11.372z"/><path d="M980.824 1592.438h104.688c7.438 0 13.468 4.776 13.468 10.668h0c0 5.892-6.03 10.668-13.468 10.668H980.824c-7.438 0-13.468-4.776-13.468-10.668h0c0-5.892 6.03-10.668 13.468-10.668z"/></g></g><path d="M1001.566 1673.258h63.204v130.138h-63.204z" class="B C E H"/><g class="G"><path d="M996.866 1143.786h72.604c5.967 0 10.804 3.515 10.804 7.852s-4.837 7.852-10.804 7.852h-72.604c-5.967 0-10.804-3.515-10.804-7.852s4.837-7.852 10.804-7.852z" class="B C F"/><path d="M948.896 1834.177h168.544v22.744H948.896z" class="B C D K"/><path d="M1858.99 1066.19c.164-.07.257-.1.263-.1.065-.02 10.042 3.57 10.127 19.197 8.83-1.654 12.393 3.01 10.69 13.987 0 0-10.482-2.834-12.193 3.143-2.57 6.9-.6 12.54 5.88 16.888 0 0 10.9 8.638 17.76-7.735l9.328-21.942c1.908-6.032 13.264-20.168 23.578-22.15 3.93-1.575 7.7-1.264 11.886-.26 0 0 9.024 1.953 9.28 9.494s-2.822 10.822-7.912 13c-5.625 2.42-12.573-2.773-12.573-2.773-2.422-.453-3.195.385-4.683 1.417-.685.475-3.54 3.6-5.196 7.14 0 0-5.01 10.588-7.398 18.675-1.882 6.368-6.03 25.63-25.53 28.52h-46.022c-19.5-2.89-23.65-22.152-25.53-28.52-2.4-8.087-7.4-18.675-7.4-18.675-1.655-3.53-4.5-6.664-5.196-7.14-1.487-1.03-2.26-1.87-4.683-1.417 0 0-6.948 5.192-12.574 2.773-5.09-2.188-8.168-5.47-7.91-13s9.28-9.494 9.28-9.494c4.196-1.002 7.957-1.314 11.886.26 10.313 1.98 21.67 16.117 23.578 22.15 0 0 2.47 5.57 9.328 21.942s17.76 7.735 17.76 7.735c6.488-4.35 8.448-9.98 5.878-16.888-1.7-5.978-12.193-3.143-12.193-3.143-1.7-10.978 1.862-15.64 10.69-13.987.085-15.628 10.062-19.222 10.126-19.197a2.99 2.99 0 0 1 .263.09z"/><path d="M1917.102 1591.96h-111.407l14.815-434.677h82.296zm6.152 241.716H1804.95l-1.248-197.392 119.553-.037z" class="B C D E"/><use xlink:href="#B" x="424.418" class="B C E"/><path d="M1809.948 1592.438h104.688c7.438 0 13.468 4.776 13.468 10.668h0c0 5.892-6.03 10.668-13.468 10.668h-104.688c-7.438 0-13.468-4.776-13.468-10.668h0c0-5.892 6.03-10.668 13.468-10.668z" class="B C D E"/></g><path d="M1831.408 1673.258h63.204v130.138h-63.204z" class="B C E H"/><g class="G B C"><path d="M1824.538 1142.12h72.604c5.967 0 10.804 3.515 10.804 7.852s-4.837 7.85-10.804 7.85h-72.604c-5.967 0-10.804-3.515-10.804-7.85s4.837-7.852 10.804-7.852z" class="F"/><g class="D"><path d="M1353.505 1834.177h168.544v22.744h-168.544z" class="K"/><path d="M727.8 1525.974c-28.63-20.578-58.882-15.162-58.882-15.162s21.86-29.1 56.72-14.62c22.148 9.206 41.056 43.32 97.237 7.58s77.986-53.798 127.488-70.397c50.86-17.054 90.754-20.577 102.64-24.9s30.48-11.12 39.975-68.23c2.16-12.997 54.02 108.303 54.02 108.303s-7.563 40.072-57.262 62.816-135.8 36.35-183.67 74.73c-16.206 12.996-47.347 35.467-66.175 63.087-44.297 64.98-90.484 72.292-90.484 72.292s41.88-36.678 53.48-86.1c2.16-9.206-1.37-50.612 15.126-67.148-17.517 17.56-61.868-17.038-56.18-12.455 0 0-5.402-9.207-34.033-29.784zm1072.296-184.698s8.643 49.278 105.34 74.188 111.823 56.318 127.5 63.9 56.37 36.77 99.938 22.202c17.164-5.74 65.126-18.954 69.04-16.017 1.468 2.447-13.703 27.896-15.56 30.097-32.083 38.016-44.297 43.863-56.18 49.82-25.956 13-27.962 14.6-46.457 15.704 0 0 17.286 21.66 19.987 56.86s49.7 70.938 49.7 70.938-62.664-16.245-90.214-53.6-72.927-69.314-89.674-77.437-102.098-37.365-119.925-44.404-73.468-36.28-81.03-83.393 27.55-108.845 27.55-108.845z" class="N"/></g><path d="M883.307 1379.172c-65.635-25.722-45.367-43.083-45.367-43.083 16.15-28.875 37.307-65.144 117.277-95.913 106.96-41.155 216.082-22.743 186.91 24.9l-48.348 79.603s-12.695-34.115-71.037-12.455-76.352 30.84-79.813 42.288c-5.402 17.87-3.24 29.242 38.895 22.744-27.55 9.206-58.244-.4-92.704-15.732z" class="N"/><path d="M1883.557 1330.608c12.13 3.125 32.835 13.174 45.04 21.94 59.464 42.705 48.516 79.96 32.03 80.933-18.367 1.083 116.593-2.69 132.8-11.355s21.608-18.412 11.885-38.99-83.19-146.21-203.117-170.036-167.45 26.74-157.2 43.863c9.723 16.245 54.02 70.396 55.64 92.598 12.3-23.234 39.972-29.853 82.92-18.953z" class="I M"/></g><g class="D"><path d="M1826.076 1307.34l-23.147-33.257 6.03 36.13-9.3 1.56-10.505-62.956 9.963-1.67 30.066 42.1 15.12-49.67 8.816-1.48 10.505 62.955-12.295 2.063-6.028-36.13-12.276 39.2zm95.567-24.126c-2.002 9.865-5.758 16.942-11.262 21.23-5.5 4.26-11.903 5.643-19.2 4.154-7.227-1.474-12.555-5.25-15.984-11.332-3.423-6.108-4.147-14.025-2.173-23.753l.724-3.565c1.84-9.063 5.422-16.03 10.746-20.902 5.35-4.865 12.058-6.476 20.124-4.83 7.88 1.608 13.25 5.724 16.104 12.35 2.88 6.63 3.417 14.396 1.612 23.293zm-13.264-3.57l.345-1.7c1.565-7.7 2.097-13.558 1.598-17.545s-3.12-6.464-7.858-7.43c-4.373-.892-7.616.173-9.73 3.195-2.087 3.028-3.997 8.8-5.73 17.35l-.312 1.534c-1.745 8.594-2.302 14.625-1.668 18.092s3.278 5.676 7.94 6.627c3.822.78 6.936-.384 9.34-3.5 2.428-3.102 4.454-8.646 6.075-16.633zm64.43 31.186c-4.927 9.096-10.3 14.916-16.116 17.46-5.796 2.558-12.038 2.015-18.73-1.628l-19.48-10.604 30.384-56.097 17.472 9.5c7.984 4.346 12.382 9.87 13.193 16.57.848 6.688-.983 14.194-5.494 22.522zm-11.846-6.93l.826-1.524c3.33-6.146 4.862-11.393 4.602-15.74s-2.13-7.464-5.605-9.357l-4.474-2.435-21.323 39.368 5.495 3c3.405 1.854 6.67 1.946 9.793.277 3.137-1.693 6.698-6.22 10.686-13.58zm46.538 9.56l-11.98 12.22 12.837 12.648-6.744 6.88-12.838-12.648-12.6 12.854 17.698 17.438-6.655 6.8-27.42-27.016 44.635-45.533 26.247 25.86-6.655 6.8zm6.364 100.925l-6.835-11.635c8.792-5.317 14.63-9.853 17.52-13.6 2.923-3.748 3.422-7.26 1.497-10.54l-1.628-2.77-24.65 14.556-6.917-11.773 54.864-32.398 12.084 20.568c2.943 5 3.884 9.225 2.827 12.65-1.045 3.446-3.228 6.15-6.547 8.1l-2.982 1.76c-3.127 1.846-6.17 2.416-9.133 1.7s-5.685-2.784-8.166-6.23c1.13 4.867.08 9.638-3.15 14.312-3.2 4.684-9.45 9.78-18.783 15.3zm31.3-36.014l1.5-.88c2.375-1.402 3.718-3.004 4.032-4.806s-.222-3.88-1.606-6.234l-2.258-3.844-14.507 8.567 1.87 3.186c1.64 2.793 3.346 4.475 5.12 5.046s3.724.224 5.86-1.035zm-203.55 114.797l-11.285-8.22 5.378-15-16.15-11.763-12.675 9.696-8.983-6.543 53.898-39.643 10.28 7.488zm-2.834-32.392l7.733-23.387-19.407 14.884zm73.7 5.88l-11.816-5.78-23.75 48.818-12.25-6 23.75-48.817-12.105-5.92 4.16-8.554 36.172 17.687zm29.238 1.25l-24.878 58.758-12.545-5.34 24.878-58.758zm48.255 58.348c-4.085 9.198-9.28 15.292-15.58 18.282-6.3 2.966-12.84 2.927-19.65-.113-6.738-3.008-11.124-7.85-13.16-14.533-2.024-6.706-1.022-14.594 3.005-23.663l1.476-3.323c3.752-8.45 8.753-14.474 15.004-18.076 6.274-3.6 13.17-3.706 20.7-.35 7.348 3.28 11.7 8.464 13.057 15.553 1.38 7.1.23 14.797-3.454 23.092zm-12.18-6.363l.704-1.584c3.192-7.188 4.975-12.782 5.348-16.783s-1.65-6.988-6.07-8.96c-4.077-1.82-7.474-1.484-10.2 1-2.7 2.503-5.805 7.735-9.34 15.696l-.635 1.43c-3.56 8.013-5.404 13.78-5.534 17.302s1.975 6.253 6.322 8.193c3.563 1.6 6.854 1.13 9.872-1.38 3.04-2.502 6.215-7.475 9.52-14.922zm54.72 33.25l18.84-32.715 8.4 4.863-31.835 55.28-5.068-2.934-6.2-49.9-20 34.73-8.4-4.863 31.835-55.28 6.318 3.657zM944.877 1341.726l-8.452 5.1-47.12-46.084 11.82-7.12 29.778 29.24L920.4 1282l8.28-4.988 31.117 28.433-12.323-39.755 9.45-5.692 18.43 63.367-8.452 5.092-32.254-29.082zm47.15-90.376l18.616 61.043-13.033 3.995-18.616-61.043zm73.217 32.58c.94 6.703-.483 11.958-4.266 15.766-3.8 3.78-9.453 6.202-16.995 7.264-4.314.608-8 .854-11.028.742s-5.58-.438-7.625-.976l-1.527-10.892c1.646.765 4.14 1.34 7.487 1.722 3.34.355 6.573.313 9.697-.128 4.393-.618 7.323-1.657 8.792-3.118 1.495-1.463 2.043-3.62 1.643-6.47a7.49 7.49 0 0 0-2.473-4.65c-1.4-1.257-5.043-2.664-10.955-4.224-4.712-1.272-8.492-3.202-11.337-5.793-2.85-2.616-4.63-6.467-5.343-11.55-.68-4.86.7-9.24 4.148-13.143 3.472-3.907 8.676-6.348 15.6-7.326 3.36-.473 6.418-.605 9.174-.395 2.778.18 4.74.415 5.888.708l1.35 9.635c-2.36-.266-4.693-.463-7.005-.594s-4.738-.01-7.28.342c-3.6.507-6.1 1.46-7.534 2.855s-2.012 2.975-1.765 4.734c.313 2.235 1.146 3.84 2.497 4.817s5.082 2.176 11.2 3.592c5.688 1.307 9.893 3.4 12.616 6.253 2.744 2.835 4.424 6.443 5.04 10.827zm197.066-43.4c-1.954 3.845-4.823 6.48-8.605 7.902-3.747 1.4-8.083.856-13.013-1.66-2.882-1.472-5.1-2.86-6.658-4.16-1.535-1.3-2.7-2.56-3.462-3.8l4.425-8.707c.724.877 1.752 1.892 3.085 3.048a23.45 23.45 0 0 0 4.375 2.9c1.476.754 2.966.978 4.473.67s2.77-1.466 3.792-3.476l21.65-42.594 12.144 6.203zm69.18 25.5c-2.148 5.608-5.468 9.377-9.955 11.306-4.48 1.902-10.15 1.534-17.008-1.105-7.36-2.83-11.997-6.563-13.914-11.198s-1.595-10.295.967-16.983l15.356-40.087 12.723 4.894-15.977 41.707c-1.24 3.24-1.5 5.938-.74 8.098.78 2.144 2.88 3.873 6.3 5.188 3.168 1.22 5.8 1.397 7.867.534 2.1-.853 3.867-3.15 5.3-6.888l15.886-41.47 9.43 3.627zm67.355 13.764c-.823 6.718-3.554 11.425-8.2 14.122-4.636 2.668-10.732 3.538-18.292 2.607-4.324-.532-7.938-1.248-10.844-2.145s-5.277-1.87-7.114-2.922l1.337-10.917c1.392 1.166 3.654 2.368 6.787 3.606 3.136 1.2 6.27 2.008 9.4 2.393 4.403.542 7.502.3 9.298-.73 1.822-1.025 2.907-2.965 3.258-5.822a7.49 7.49 0 0 0-1.19-5.133c-1.02-1.573-4.183-3.882-9.5-6.922-4.223-2.45-7.375-5.296-9.455-8.537-2.077-3.267-2.804-7.448-2.18-12.543.597-4.87 3.063-8.744 7.4-11.62 4.363-2.873 10.02-3.88 16.97-3.026 3.368.415 6.356 1.08 8.963 2 2.637.893 4.47 1.63 5.504 2.212l-1.183 9.657c-2.2-.868-4.414-1.665-6.613-2.4s-4.573-1.243-7.12-1.558c-3.608-.444-6.28-.176-8.014.803s-2.7 2.352-2.927 4.115c-.274 2.24.115 4.007 1.168 5.3s4.347 3.42 9.88 6.374c5.157 2.738 8.68 5.842 10.572 9.314 1.92 3.447 2.612 7.368 2.074 11.763zm62.775-31.704l-13.146-.23-.947 54.306-13.626-.238.947-54.306-13.466-.236.166-9.516 40.238.703zm37.182-13.067l7.758 63.358-13.527 1.665-7.758-63.357zm76.203 44.373c-.706.895-2.148 1.985-4.325 3.272-2.17 1.313-4.802 2.443-7.893 3.392-7.795 2.4-14.932 1.804-21.4-1.756-6.46-3.594-11.193-10.313-14.196-20.157l-.753-2.468c-2.797-9.17-2.55-17.296.738-24.38 3.314-7.1 8.74-11.8 16.28-14.102 3.245-.994 6.015-1.622 8.312-1.884 2.287-.288 4.13-.292 5.53-.01l2.96 9.7c-1.3-.282-2.952-.377-5-.284-2.015.1-4.286.517-6.816 1.292-4.703 1.44-7.795 4.498-9.276 9.168-1.457 4.664-1.147 10.393.926 17.2l.26.85c2.22 7.282 5.1 12.287 8.603 15.014 3.54 2.72 7.444 3.426 11.712 2.118 2.887-.885 5.263-1.936 7.127-3.157 1.855-1.246 3.3-2.323 4.338-3.23zm18.875-67.636l7.758 15.265 16.036-8.192 4.368 8.594-16.037 8.2 8.16 16.057 22.107-11.293 4.3 8.48-34.25 17.496-28.907-56.875 32.787-16.748 4.3 8.48zm-671.314 303.932c5.008 9.055 7.02 16.725 6.037 23-.96 6.275-4.77 11.26-11.43 14.96l-19.385 10.77-30.885-55.84 17.387-9.658c7.945-4.414 14.954-5.163 21.028-2.248 6.083 2.878 11.416 8.46 16 16.75zm-12.193 6.3l-.84-1.517c-3.383-6.117-6.975-10.234-10.772-12.35s-7.425-2.2-10.884-.3l-4.452 2.473 21.675 39.188 5.47-3.038c3.388-1.882 5.22-4.592 5.493-8.13.26-3.562-1.638-9.005-5.7-16.334zm69.657-30.302c3.924 9.27 4.828 17.234 2.713 23.894-2.127 6.636-6.622 11.4-13.485 14.333-6.8 2.9-13.316 2.803-19.578-.263-6.273-3.1-11.344-9.205-15.214-18.344l-1.418-3.35c-3.605-8.515-4.6-16.292-2.954-23.332 1.66-7.05 6.28-12.186 13.857-15.4 7.405-3.15 14.155-2.807 20.253 1.033 6.12 3.83 10.95 9.925 14.492 18.284zm-12.95 4.592l-.676-1.597c-3.067-7.244-5.933-12.366-8.598-15.37s-6.224-3.556-10.676-1.66c-4.1 1.748-6.18 4.468-6.214 8.16-.01 3.68 1.684 9.532 5.08 17.555l.6 1.44c3.42 8.074 6.368 13.362 8.85 15.86s5.9 2.817 10.3.953c3.6-1.528 5.5-4.255 5.725-8.18.25-3.935-1.213-9.655-4.4-17.16zm63.117 11.57l-28.807-28.473 12.498 34.424-8.852 3.23-21.777-59.983 9.492-3.464 37.217 35.893 5.836-51.603 8.4-3.065 21.777 59.984-11.715 4.274-12.497-34.424-4.942 40.788zm83.948-631.775c-.038 1.3-.615 3.334-1.728 6.068-1.088 2.754-2.72 5.68-4.9 8.783-5.475 7.82-12.354 12.516-20.64 14.1-8.292 1.53-17.116-.982-26.474-7.534l-2.346-1.642c-8.716-6.103-13.964-13.503-15.745-22.2-1.762-8.722 0-16.864 5.3-24.428 2.28-3.255 4.374-5.838 6.285-7.748 1.885-1.927 3.556-3.28 5.016-4.053l9.23 6.462c-1.36.7-2.937 1.823-4.727 3.395-1.772 1.55-3.546 3.592-5.323 6.13-3.303 4.718-4.055 9.693-2.256 14.925 1.817 5.2 5.956 10.073 12.416 14.597l.808.565c6.922 4.847 12.898 7.197 17.928 7.052 5.048-.17 9.07-2.397 12.07-6.678 2.028-2.896 3.48-5.567 4.35-8.014.847-2.462 1.435-4.477 1.766-6.042zm34.562-85.24c8.037 7.76 12.324 15.6 12.86 23.513.514 7.894-2.263 14.978-8.327 21.26-6 6.213-12.963 9.213-20.9 8.997-7.95-.237-15.886-4.182-23.812-11.835l-2.904-2.804c-7.384-7.13-11.677-14.735-12.882-22.815-1.182-8.102 1.575-15.62 8.27-22.554 6.543-6.776 13.853-9.615 21.93-8.517 8.097 1.077 15.77 5.115 23.02 12.114zm-11.828 10.897l-1.385-1.337c-6.28-6.066-11.463-10.025-15.546-11.88s-8.092-.744-12.027 3.33c-3.63 3.76-4.693 7.563-3.187 11.4 1.527 3.824 5.77 9.095 12.726 15.813l1.25 1.207c7.002 6.76 12.34 10.853 16.017 12.27s7.45.125 11.32-3.883c3.173-3.286 4.06-7.02 2.66-11.2-1.378-4.203-5.32-9.447-11.827-15.73zm74.97-54.438l-24.64-33.915 9.2-6.678 41.638 57.3-5.545 4.03-54.832-15.172 26.158 36.004-9.2 6.678-41.637-57.3 6.912-5.022zm88.232-35.896c3.175 6.807 3.253 12.9.236 18.278-3.03 5.35-8.587 9.9-16.67 13.68-4.624 2.156-8.65 3.705-12.077 4.647s-6.37 1.486-8.823 1.628l-5.158-11.062c2.08.24 5.048-.02 8.905-.786 3.843-.8 7.44-1.967 10.787-3.528 4.708-2.195 7.65-4.327 8.827-6.396 1.205-2.08 1.134-4.567-.216-7.46-.873-1.872-2.285-3.234-4.236-4.085s-6.475-1.073-13.57-.665c-5.664.294-10.496-.44-14.494-2.202-4.012-1.8-7.22-5.265-9.628-10.428-2.302-4.935-2.148-10.083.464-15.445 2.638-5.374 7.673-9.794 15.105-13.26 3.602-1.68 6.974-2.9 10.117-3.63 3.158-.78 5.424-1.216 6.798-1.305l4.563 9.786c-2.718.542-5.387 1.15-8 1.818s-5.295 1.642-8.018 2.9c-3.858 1.8-6.36 3.7-7.506 5.676s-1.303 3.87-.47 5.658c1.06 2.27 2.497 3.688 4.315 4.255s6.364.54 13.633-.1c6.765-.6 12.12.15 16.068 2.245 3.963 2.056 6.982 5.3 9.06 9.763zm61.29-58.683l-14.873 3.985 15.6 58.223-15.417 4.13-15.6-58.223-15.236 4.083-2.734-10.203 45.526-12.198zm41.377-15.76l15.923-1.114 4.944 70.668-15.923 1.114zm101.247 12.413l-15.36-1.074-4.205 60.13-15.922-1.113 4.205-60.13-15.734-1.1.737-10.536 47.016 3.288zm77.5 60.652c-1.95 6.375-5.438 10.773-10.465 13.196-5.02 2.393-11.644 2.33-19.874-.185-8.83-2.7-14.583-6.57-17.264-11.6s-2.86-11.362-.534-18.965l13.93-45.566 15.263 4.667-14.494 47.406c-1.125 3.68-1.15 6.702-.07 9.06 1.117 2.34 3.727 4.134 7.827 5.387 3.8 1.162 6.865 1.2 9.195.1 2.358-1.08 4.186-3.742 5.487-7.993l14.4-47.137 11.313 3.46zm88.977-4.447l-13.72-7-27.365 53.707-14.22-7.246 27.365-53.707-14.054-7.16 4.795-9.4 41.995 21.398zm39.14 12.63l12.912 9.382-41.64 57.3-12.912-9.382zm62.126 103.624c-7.9 7.9-15.813 12.05-23.734 12.448-7.9.376-14.936-2.524-21.112-8.697-6.108-6.108-8.985-13.122-8.63-21.045.375-7.944 4.458-15.8 12.25-23.6l2.854-2.855c7.258-7.258 14.937-11.418 23.037-12.48 8.12-1.04 15.6 1.847 22.406 8.664 6.66 6.66 9.37 14.02 8.133 22.074-1.218 8.077-5.4 15.678-12.514 22.805zm-10.688-12.017l1.36-1.36c6.174-6.174 10.224-11.286 12.15-15.336s.885-8.077-3.12-12.083c-3.696-3.696-7.48-4.824-11.352-3.385-3.85 1.46-9.195 5.6-16.033 12.448l-1.23 1.228c-6.883 6.882-11.066 12.15-12.547 15.8s-.255 7.446 3.685 11.386c3.23 3.23 6.948 4.182 11.153 2.855 4.225-1.306 9.536-5.157 15.933-11.553zm54.648 73.7l33.915-24.64 6.678 9.2-57.3 41.637-4.028-5.545 15.17-54.832-36.004 26.158-6.677-9.2 57.3-41.638 5.02 6.912z" class="L"/><path d="M1673.098 1398.95s3.906-4.294 5.173-1.16 1.536 5.806.452 6.977-.955 1.91-2.5 3.876-.854 3.088-2.335 4.033-2.16.52-3.793.433l-.664 4.873-1.062 4.073.612 3.918 2.784 6.23-2.123-4.67 2.972 5.094c2.25 5.935 23.638 11.897 31.387 15.364 16.13 7.216 13.608 41.517 15.307 44.913s8.49 48.816 8.49 56.457-8.49 48.816-9.338 57.306l-2.536 24.62c-.21 2.027-3.12-.638-4.04 1.186-1.22 2.418-1.042 9.375-.753 11.677-.507 5.008-1.932 8.902-2.163 11.448-.85 9.34-9.455 10.21-9.455 10.21s-.306 31.94-2.004 39.58-2.853 9.096-.306 30.32-3.396 47.543-3.396 47.543l-10.465 44.637c-1.698 5.943 1.126 11.396 1.975 15.64s.85 11.037.85 11.037h-74.647c-1.898 0 1.31-6.715 3.82-11.46 1.162-2.198 4.67-5.518 9.763-6.367s5.518-6.367 8.5-13.16 1.698-21.224-.85-30.14-5.943-30.563-5.943-38.204-4.213-25.045-8.458-36.93-6.367-37.78-6.367-40.326c0-1.11-.485-2.545-1.384-4.796-1.162-2.908-1.35-7.18-3.74-13.882-4.245-11.885-3.852-26.318-4.276-38.628s-5.094-25.894-7.245-28.904l-1.313-5.318-13.092 4.083-12.657 9.91c-2.787 2.52-5.826 2.94-10.944 3.396-9.91.885-19.817-10.743-22.142-27.55-2.57-18.578 1.1-26.54 21.775-26.476l9.187.02 7.984.266H1578s2.318 4.523-1.288 6.12-4.635 1.862-4.635 1.862l4.613 5.282c-.086.01 2.5-1.738 10.188-5.943l2.865-6.686c.212-4.245.53-5.2-.318-9.87s-2.497-31.513-2.497-37.88.185-13.9.833-21.25c.6-6.686.5-21.587 3.75-27.917 4.032-7.853 25.833-11.25 25.833-11.25s9.435-1.033 10.708-3.58c.475-.95 2.845-5.02 3.853-6.61-6.068-2.154-8.06-9.613-8.947-11.43-.924-1.89-2.547-10.613-2.76-11.46-.313-1.253-2.214-9.138-3.278-12.26s-.16-8.814-.16-8.814l-6.905-.76-8.35-.642s-4.67-.654-5.87-1.125-5.25-1.298-5.25-1.298-6.634-5.682-.055-10.245 14.313-8.793 15.58-9.545 1.773-2.002 1.773-2.002l-.118-1.642c-1.514-2.33-2.985-5.474-4.876-12.32s16.08-9.705 16.08-9.705c5.198-.446 22.627 1.86 20.833 1.465 3.64.804 6.02.674 12.974.63s16.025 2.476 21.08 3.56 10.21 5.763 12.82 10.604 13.172 10.963 16.286 13.99c4.71 4.58 10.3 14.174 12.465 17.678 3.77 6.128-.296 4.665-1.562 5.417-5.9 3.496-38.687-3.9-35.828-3.545 2.348.292 1.797-.544-.74-1.913l-.017 2.313-1.9 7.216z" stroke="#eed000" class="C G J"/></g><g class="B C H"><path d="M1638.242 1490.782c1.04-17.388 2.47-31.72 5.094-42.874.85-3.608 0-5.306 0-5.306-4.52-.108-7.562-.45-12.24-5.86" class="K"/><path d="M1609.604 1680.39l1-7.205s2.233-4.12 1.384-12.184 0-30.563 2.123-42.024c2.01-10.852 19.04-44.57 20.737-53.486 1.465-7.69 1.698-33.535 1.698-35.657 0-.704-.84-3.16-.425-12.735" class="F"/><path d="M1631.908 1432.383l-3.853 6.608s-32.51 6.98-36.542 14.833c-3.25 6.33-4.583 42.8-4.583 49.167s1.647 33.21 2.497 37.88.53 5.624.318 9.87" class="I O"/><path d="M1650.553 1538.75c.424 3.396-.45 25.145 8.5 39.053 3.82 5.943 20.52 38.312 24.196 42.45 2.2 2.475 7.857 3.437 9.283 6.806 7.375 17.43-.417 34.583 10 37.083l2.917 10" class="F"/><path d="M1673.77 1432.057c-1.772 2.453-13.635 9.583-20.625 9.583-2.547 0-1.042 5.208-2.17 11.362-1.187 6.482-1.273 43.298-.424 47.968.344 1.896-.325 2.864-.425 8.914" class="K"/><g class="F"><path d="M1684.847 1477.575l4.334 17.027 5.943 31.412 2.122 19.102.425 16.98-.425 14.433-1.698 10.188-2.122 9.34-3.82 30.563c12.3-2.97 20.41-.1 26.318 4.67" stroke-linecap="round" class="I"/><path d="M1603.596 1446.325l.833 2.917c-1.158-6.398 19.38 84.414 89.42 126.863l3.396 2.124m-79.9-135.654c7.356 23.38 29.38 81.816 79.688 112.305l.637 4.245m-69.733 22.518c12.917 2.707 21.25 2.705 32.916-.42m-12.702 66.567l6.646 42.078c1.698 5.943 3.396 35.657 3.396 35.657l.85 28.865.85 36.506v42.45c-6.972 4.877-10.632 12.156-10.982 21.836"/></g><path d="M1578.322 1556.962c-4.333 6.515-25.726-5.853-26.8 12.606-.833 14.186 1.913 30.217 15.63 31.98l10.096-6.678 2.703-2.71" class="I P"/></g><path d="M1565.595 1549.397c-5.883-92.15-3.148-172.88 12.134-234.008-41.15 59.743-24.225 234.072-24.225 234.072z" class="D G"/><g class="B C H"><g class="I"><path d="M1589.85 1549.36l-2.97 8.065c-7.69 4.205-10.07 4.427-9.984 4.422" class="O"/><path d="M1575.868 1559.857s7.545 20.054 1.37 35.01" class="P"/><path d="M1565.802 1549.922l8.337.184h3.863s2.318 4.523-1.288 6.12-6.07 1.56-6.07 1.56" class="Q"/></g><path d="M1568.28 1600.448c-2.787 2.52-5.826 2.94-10.944 3.396-9.9.885-19.817-10.743-22.142-27.55-2.57-18.578-.094-26.3 18.3-26.832m17.976 8.153h-13.2s-7.026 1.87-7.34 7.583c-.5 9.1-.665 21.964 3.25 27.02l3.915 4.044" class="Q"/><path d="M1616.792 1380.182l1.146 6.875-1.628 2.95-7.142-.47-8.368-.277-5.914-.868c-1.222-.42-5.3-1.067-5.3-1.067s-6.055-8.015.316-12.86 12.934-8.258 14.167-9.064 1.843-.596 1.843-.596" class="K"/><path d="M1616.717 1381.68l.001 7.77" class="J"/><path d="M1617.845 1387.464s-1.984 6.644-.92 9.767 2.965 11.01 3.278 12.26c.212.85 1.836 9.573 2.76 11.46s3.04 9.88 9.695 11.662 14.082.534 18.32-2.312" class="R"/><path d="M1630.726 1417.067s3.24-1.18 4.34-.714 4.25.836 4.25.836 3.923-.715 5.232-.34 3.397.38 4.015.3m-15 4.113s7.73 1.508 10.972.145m-.255-33.323s6.973-2.867 13.075 1.645" class="S"/><path d="M1635.42 1387.67c.537 1.46-.503 5.7-1.4 7.4s-1.17 4.744-1.748 6.043-1.31 3.5-1.27 4.74.043 1.127 1.933 2.146 3.222.14 4.676-.296 2.746-.85 4.055-.474 3.204-.65 3.172-1.98-.44-3.295-1.32-4.057-2.76-1.985-2.76-1.985" stroke-width="1.96"/><path d="M1622.39 1388.52c1.054-.154 7.747-3.906 13.305-.04" class="S"/></g><ellipse cx="-1652.333" cy="-1364.352" rx="4.574" ry="1.136" transform="matrix(-.999847 -.017501 .017501 -.999847 0 0)" class="B J L"/><g class="C H B"><path d="M1631.908 1432.383c.243.1.492.164.748.232 6.655 1.78 14.082.534 18.32-2.312" class="R"/><path d="M1615.528 1339.16s-17.4 5.157-15.212 11.913 3.794 9.833 5.407 12.093 4.803 11.067 5.803 13.526.394 6.934 4.45 4.94c23.026-11.33 72.59 8.278 61.93 7.423-2.872-.23 32.086 6.995 37.816 3.247 1.232-.806 3.696-2.418-.335-8.374-2.305-3.406-9.316-12.335-14.22-16.703-3.242-2.887-12.65-9.047-15.47-13.768s-9.578-8.664-14.674-9.525-14.266-2.983-21.21-2.635-8.98-.282-12.65-.927c1.807.32-16.46-1.88-21.632-1.21z" stroke-width="3.265"/><path d="M1657.52 1705.8s18.333 11.248 40-.42l3.75-2.084m-87.084 5.01s20.3 9.595 41.123-1.24" class="F"/></g><ellipse cx="-1787.134" cy="-1213.38" rx="4.808" ry="1.195" transform="matrix(-.994514 -.104602 .104602 -.994514 0 0)" class="B J L"/><g class="C B"><path d="M1623.772 1593.31c12.292 4.582 31.25 3.332 43.124-.418" class="F H"/><path d="M1779.83 1834.177h168.543v22.744H1779.83z" stroke-width=".68" class="D G"/></g><path d="M0 2880h6912v1440H0z" fill="#b50027"/><defs ><path id="B" d="M1379.438 1613.774h119.926c8.354 0 15.125 5.09 15.125 11.372s-6.772 11.372-15.125 11.372h-119.926c-8.354 0-15.125-5.09-15.125-11.372s6.77-11.372 15.125-11.372z"/></defs></svg>