<svg xmlns="http://www.w3.org/2000/svg" xmlns:xlink="http://www.w3.org/1999/xlink" width="1000" height="600" xmlns:v="https://vecta.io/nano"><style><![CDATA[.B{stroke:#fff}.C{stroke:#3f863f}.D{stroke-width:1.02}.E{stroke-width:.82}.F{stroke:#000}.G{stroke-width:.91}.H{fill:none}.I{stroke-width:1.07}.J{fill:#fff}.K{stroke-width:.74}.L{fill:#785a3c}.M{fill:#d2b78c}.N{fill:#be0a2f}.O{stroke-width:1.01}.P{stroke-width:1.14}]]></style><path d="M0 0h1000v600H0z" class="J"/><g transform="matrix(.995735 0 0 .995735 2.132635 .25592)"><g fill="#002768"><path d="M379.4 541.043v-2.714h2.3c1.474 0 2.44-.2 2.905-.594s.7-1.453.7-3.16v-21.268c0-1.686-.233-2.735-.7-3.128s-1.43-.594-2.905-.594h-2.3v-2.682h16.847v2.682h-2.3c-1.495 0-2.47.2-2.916.594-.456.403-.68 1.442-.68 3.128v21.268c0 1.707.233 2.757.7 3.16s1.43.594 2.905.594h2.3v2.714H379.4zm19.774-34.15h16.794v2.682h-2.534c-1.495 0-2.47.2-2.937.594-.466.403-.7 1.442-.7 3.128v25.032h8.153c2.47 0 4.38-.233 5.715-.7 1.346-.477 2.3-1.23 2.83-2.27.445-.848.774-1.877.965-3.106.2-1.22.297-2.778.297-4.644v-.742h2.66v14.186h-31.255v-2.714h2.1c1.474 0 2.45-.2 2.926-.594s.7-1.453.7-3.16v-21.268c0-1.686-.233-2.735-.7-3.128s-1.442-.594-2.926-.594h-2.1v-2.693zm34.796 0h16.794v2.682h-2.534c-1.495 0-2.47.2-2.937.594-.466.403-.7 1.442-.7 3.128v25.032h8.153c2.47 0 4.38-.233 5.715-.7s2.3-1.23 2.83-2.27c.445-.848.774-1.877.965-3.106.2-1.22.297-2.778.297-4.644v-.742h2.66v14.186H433.98v-2.714h2.1c1.474 0 2.45-.2 2.926-.594s.7-1.453.7-3.16v-21.268c0-1.686-.233-2.735-.7-3.128s-1.442-.594-2.937-.594h-2.1v-2.693z"/><use xlink:href="#B"/><path d="M522.912 541.18h-4.326l-20.918-29.665v23.06c0 1.707.233 2.757.7 3.16s1.43.594 2.905.594h2.555v2.714h-15.182v-2.714h1.993c1.474 0 2.45-.2 2.916-.594.477-.392.7-1.453.7-3.16V513.36c0-1.707-.233-2.767-.7-3.17s-1.442-.604-2.916-.604h-1.983v-2.682h11.45l19.38 27.438v-20.97c0-1.707-.233-2.767-.7-3.17s-1.43-.604-2.905-.604h-2.714v-2.682H528.2v2.682h-1.686c-1.474 0-2.45.2-2.905.604-.466.403-.7 1.463-.7 3.17v27.83zm14.186-17.238c0 4.644 1.166 8.344 3.488 11.1s5.418 4.145 9.277 4.145 6.955-1.378 9.288-4.145c2.322-2.767 3.488-6.467 3.488-11.1 0-4.633-1.156-8.333-3.478-11.08s-5.418-4.124-9.298-4.124c-3.86 0-6.955 1.378-9.277 4.124s-3.488 6.446-3.488 11.08zm-5.534 0c0-2.65.477-5.1 1.442-7.4s2.364-4.273 4.198-6c1.612-1.495 3.5-2.64 5.704-3.456s4.517-1.22 6.966-1.22 4.77.403 6.966 1.22 4.092 1.96 5.704 3.456c1.855 1.74 3.265 3.743 4.2 6 .954 2.258 1.43 4.73 1.43 7.4 0 2.682-.477 5.163-1.43 7.432s-2.354 4.273-4.2 6c-1.6 1.495-3.5 2.64-5.704 3.456s-4.517 1.22-6.966 1.22-4.77-.403-6.966-1.22-4.092-1.96-5.704-3.456c-1.834-1.718-3.234-3.72-4.198-6s-1.442-4.76-1.442-7.432z"/><use xlink:href="#B" x="102.873"/><path d="M592.293 541.043V526.9h2.8c.53 3.71 1.92 6.626 4.177 8.757s5.09 3.19 8.503 3.19c2.47 0 4.453-.594 5.937-1.76 1.495-1.177 2.237-2.725 2.237-4.644 0-1.643-.562-2.916-1.686-3.838s-3.19-1.707-6.192-2.375l-4.22-.922c-4.57-1.028-7.623-2.258-9.16-3.68-1.527-1.42-2.3-3.52-2.3-6.287 0-2.884 1.113-5.184 3.33-6.89 2.216-1.718 5.216-2.566 8.99-2.566 1.877 0 3.637.307 5.3.933s3.287 1.58 4.856 2.873l1.495-3.085h2.385v12.924H616c-.435-3.446-1.612-6.086-3.54-7.93-1.93-1.834-4.495-2.757-7.687-2.757-2.523 0-4.485.51-5.895 1.527s-2.1 2.44-2.1 4.262c0 1.42.562 2.576 1.675 3.467 1.124.89 2.873 1.56 5.26 2.025l4.92 1.018c4.38.88 7.464 2.1 9.266 3.658s2.714 3.753 2.714 6.584c0 3.16-1.166 5.736-3.51 7.718s-5.397 2.97-9.16 2.97c-2.184 0-4.21-.392-6.054-1.166s-3.615-1.983-5.3-3.626l-1.665 3.774h-2.62v-.01z"/></g><g transform="matrix(1.256852 0 0 1.256852 12.793801 17.081243)"><path fill="#64b4ff" d="M445.24 277.48s11.2 21.85 14.75 21.86 14.4 1.04 18.25 1.07c3.86-.01 9.86-1.77 16.03-.9 6.37.9 9.35.92 13.35.01 3.5-.78 11.76.6 16.2 1.2 6.17-6.1 15.17-22.8 15.17-22.8l-93.6-.45"/><path stroke="#3c3c9e" stroke-width=".96" d="M460.92 299.07c3.56.01 14.7 1.48 18.54 1.5 3.86-.01 9.86-1.77 16.03-.9 6.37.9 9.35.92 13.35.01 3.5-.78 10.74 1.05 14.6.76" class="H"/><path fill="#64b4ff" d="M249.7 286.65l8.46 12.58c-4.15 1.26-16.27-1.26-20.05.14-4.36-4.12-10.4-12.73-10.4-12.73l22 .01z"/><g class="H"><path stroke-width=".96" d="M248.35 286.8l-20.55-.01m29.3 12.44c-4.15 1.26-14.25-.83-18.03.57" class="F"/><path d="M456.33 282.52c1.63-.45 5.04-1.04 8 .3m24.64 7.47c1.63-.45 5.04-1.04 8 .3m13.37-7.6c1.63-.44 5.04-1.04 8 .3m-37.82 1.6c1.64-.43 5.05-1.03 8.02.3m-23.02-.73c1.64-.45 5.05-1.04 8.02.3m30.42 11.35c1.64-.45 5.05-1.04 8.02.3m4.6-2.4c1.64-.45 5.05-1.03 8.02.3m-18.7-3.3c1.64-.43 5.05-1.03 8.02.3m-1.5-4.92c1.64-.43 5.05-1.03 8.02.3m-44.97 5.82c1.63-.45 5.04-1.04 8 .3m-20.93 3.1c1.64-.43 5.05-1.03 8.02.33" stroke="#3c3c9e" stroke-width="1.79"/></g><g fill="#3c3c9e" stroke-width="1.43" class="B"><path d="M488.1 290.4c1.3-1.07 5.34-3.57 9.62.38m7.25.22c1.3-1.08 5.34-3.58 9.62.38m-2.97-5.02c1.3-1.06 5.34-3.57 9.62.38M509.6 283c1.3-1.05 5.36-3.57 9.62.38m-54.4 1.05c1.3-1.05 5.34-3.58 9.62.36m.35 7.65c1.3-1.07 5.34-3.58 9.62.36m-22.7 3.07c1.3-1.07 5.35-3.57 9.62.38m44.4-2.12c1.3-1.07 5.34-3.58 9.62.35"/><path d="M479.67 285.14c1.3-1.07 5.35-3.56 9.62.38m-33.72-3c1.3-1.07 5.34-3.58 9.62.35m8.3 6.2c1.3-1.05 5.35-3.57 9.62.38m14.38-2.14c1.3-1.08 5.34-3.58 9.62.36m-3.95 8.46c1.3-1.07 5.35-3.57 9.63.35m-14.72-14.3c1.3-1.05 4.04-3.57 8.3.37m-36.9-.63c1.3-1.06 4.75-3.56 9 .4m43.73.1c1.3-1.05 4.04-3.55 8.3.37"/><path d="M492.5 294.34c1.3-1.07 4.05-3.57 8.3.37m-10.68-11.1c1.3-1.07 4.05-3.58 8.3.37m-16.52-1.87c.4-1.13 2.2-4.1 5.16.42m-25.9 5.46c1.3-1.06 4.03-3.55 8.3.37m4.75 8.83c1.98-1.63 4.65-3.04 8.3.35m-18.86-5.73c1.98-1.62 4.63-3 8.3.37m44.66-2.5c1.98-1.62 4.63-3 8.3.37m-4.74-4.3c2-1.62 4.64-3.02 8.32.37"/><path d="M486 297.56c1.3-1.07 4.05-3.57 8.3.37m-255.9-7.23c1.3-1.07 5.34-3.56 9.62.38m-3.62 4.97c1.3-1.07 4.05-3.57 8.3.37"/></g><g fill="#b4b4b4"><path d="M365.16 266.9l2.6-8.44 2.03-2.62 15.37 2.04 22.62 4.95 12.04 2.2 19.28 32.7 19.72 1.45L440.9 320h-59.76l-11.1-5.87-16.5-15.03 23.4-18.78-11.77-13.43z"/><path d="M407.2 262.38c3.7-.63 19.6-1.87 24.34 7.24 0 0-.22-.01-2.08.06 2.45.16 13-2.82 17.28 9.85-1.56-.6-2.9-.45-2.9-.45s10.25-1.07 16.17 18.94c1.03 3.7-13.2-1.35-20.93 1.18m20.85-.35c3.2 1.17 3.8 6.6 5.42 8.28 1.64 1.63 5.34 3.87 5.04 6.7-.3 2.84-4.75 6.86-8.77 7.76-4 .9-15-1.95-19.14-1.52-4.15.46-16.48 4.18-23.3 4.02s-13.8-3.14-19.58-3c-5.78.12-15.9.88-18.84-1.07m-5.66-4.32c-.74-2.68-1.9-11.6 8.18-15.2 3.1-1.1 4.97-1.12 6.37-1.56 2.3-.7 4.08-1.4 5.73-.83 1.63.6 3.18 4.2 8.82 4.93m3.14-26.24c-1.93-.16-3.4-3.57-8-3-4.6.6-11.45 5.22-12.48 11.33-1.05 6.12-1.13 8.57 3.17 13.33" class="F I"/></g><path d="M402.88 284.38v8.15c0 .5.25.83.76.83h1.07v1.45H398v-1.45h1.13c.52 0 .76-.33.76-.83v-5.32h-1.85v-1.45h.43c1 0 1.72-.32 2.17-1.38h2.22m13.08 2.35c0 1.1-.83 1.62-1.77 1.96 1.4.54 2.32 1.4 2.32 3 0 2.63-2.35 3.37-4.83 3.37-1.88 0-4.65-.38-4.65-2.84 0-1.38.74-2.12 2-2.57-.86-.43-1.6-1.2-1.6-2.22 0-2.65 2.25-3.3 4.5-3.3 1.65 0 4.06.52 4.06 2.6zm-5.62 3.64c-.67.23-1.25 1-1.25 1.57 0 1.5 1.4 1.86 2.65 1.86.9 0 2.1-.32 2.1-1.42 0-.5-.3-.85-1.52-1.3l-2-.72zm2.92-2.54c.43-.26.64-.58.64-1.1 0-1.07-1.15-1.33-2-1.33-.8 0-1.83.2-1.83 1.17 0 .4.23.68.64.82l2.12.74.44-.3m7.5 1.37c.93-.64 1.5-.78 2.63-.78 1.93 0 3.54 1.14 3.54 3.15 0 2.46-2.17 3.48-4.37 3.48-3.38 0-4.96-1.9-4.96-5 0-3.53 1.63-5.93 5.38-5.93 1.35 0 3.52.68 3.52 2.2 0 1.07-.62 1.5-1.7 1.5-.74 0-1.34-.5-1.34-1.14 0-.53.2-.76.67-1-.3-.2-.57-.26-.88-.26-1.77 0-2.5 1.28-2.5 2.86v.95zm.2 2.55c0 1.32.53 1.93 1.4 1.93s1.4-.6 1.4-1.93-.53-1.95-1.4-1.95-1.4.6-1.4 1.95m15.98-5.02c0 1.1-.83 1.62-1.77 1.96 1.4.54 2.32 1.4 2.32 3 0 2.63-2.36 3.37-4.83 3.37-1.88 0-4.66-.38-4.66-2.84 0-1.38.74-2.12 2-2.57-.86-.43-1.62-1.2-1.62-2.22 0-2.65 2.26-3.3 4.5-3.3 1.67 0 4.07.52 4.07 2.6zm-5.62 3.64c-.67.23-1.25 1-1.25 1.57 0 1.5 1.4 1.86 2.65 1.86.92 0 2.1-.32 2.1-1.42 0-.5-.3-.85-1.53-1.3l-1.98-.72zm2.93-2.54c.43-.26.64-.58.64-1.1 0-1.07-1.15-1.33-2.02-1.33-.8 0-1.82.2-1.82 1.17 0 .4.23.68.64.82l2.12.74.44-.3m-15.4 16.24v8.16c0 .48.24.83.76.83h1.07v1.44h-6.68v-1.44h1.14c.52 0 .76-.35.76-.83v-5.33h-1.85v-1.45h.43c1 0 1.72-.33 2.17-1.38h2.22m13.05 2.33c0 1.12-.82 1.64-1.77 1.96 1.4.56 2.32 1.4 2.32 3 0 2.64-2.36 3.38-4.83 3.38-1.88 0-4.66-.4-4.66-2.85 0-1.37.74-2.1 2-2.55-.86-.44-1.62-1.2-1.62-2.22 0-2.65 2.26-3.32 4.5-3.32 1.66 0 4.07.52 4.07 2.6h0zm-5.62 3.64c-.67.23-1.25 1-1.25 1.57 0 1.5 1.4 1.86 2.65 1.86.9 0 2.1-.32 2.1-1.42 0-.5-.3-.84-1.53-1.3l-1.98-.72zm2.92-2.52c.43-.26.63-.57.63-1.12 0-1.06-1.15-1.32-2-1.32-.8 0-1.82.18-1.82 1.17 0 .4.23.67.64.8l2.12.74.44-.27m10.6-3.45v8.16c0 .48.24.83.76.83h1.06v1.44h-6.68v-1.44h1.14c.52 0 .76-.35.76-.83v-5.33H435v-1.45h.43c1 0 1.7-.33 2.15-1.38h2.24m13.06 2.33c0 1.12-.82 1.64-1.77 1.96 1.4.56 2.32 1.4 2.32 3 0 2.64-2.36 3.38-4.83 3.38-1.87 0-4.65-.4-4.65-2.85 0-1.37.74-2.1 2-2.55-.86-.44-1.62-1.2-1.62-2.22 0-2.65 2.26-3.32 4.5-3.32 1.66 0 4.06.52 4.06 2.6h0zm-5.62 3.64c-.67.23-1.25 1-1.25 1.57 0 1.5 1.4 1.86 2.65 1.86.9 0 2.1-.32 2.1-1.42 0-.5-.3-.84-1.53-1.3l-1.98-.72zm2.92-2.52c.44-.26.64-.57.64-1.12 0-1.06-1.15-1.32-2-1.32-.8 0-1.82.18-1.82 1.17 0 .4.22.67.64.8l2.1.74.44-.27"/><path fill="#ffb30f" stroke-width="1.19" d="M355.3 245.37c2.22 6.9 16.52 26.7 35.78 26.23-1.05 5.6-28.53 61.94-102.13 65.92-20.76-70.12 17.5-114.1 30.58-118.35 4.37 17.8 28.67 25.85 35.76 26.2h.01z" class="F"/><path d="M353.34 248.46c2.03 6.3 9.04 35.3 20.7 44.84-4.55 4.8-33.86 37.45-81.3 39.34-15.37-47.9 4-82.53 10.6-93.6 15.06 11 43.5 9.1 50 9.43" class="J"/><path fill="#002768" d="M317.38 223.9c7.73 16.75 28.38 22.64 35.87 24.3 2.53 12.6 27.43 27.9 32.97 26.65-.97 6.85-14.02 21.1-18.36 24.9-.07-.08-69.58-50.93-69.56-50.95 1.94-5.88 14.7-24.8 19.08-24.9"/><g class="N"><path d="M361.08 300.18c.04-.01 3.7 2.68 3.75 2.66-3.02 2.45-10.76 8.38-12.5 9.55 0 .01 8.8-12.22 8.75-12.2m-64.64-47.33c.01-.01 5.5 4.06 5.5 4.06l-12.72 17.8c2.4-9.58 2.68-11.7 7.2-21.86"/><path d="M306.06 259.9l6.94 5.04-25.94 36.24c-.73-4.7-.2-10.57.2-15l18.8-26.28m11 7.98l6.9 5.1-34.42 48.1c-.7-3.8-1.8-8.62-1.98-12l29.5-41.2M339.1 284l6.9 5.07-28.44 39.58c-1.8.97-10.47 2.66-12.53 3L339.1 284m-10.9-7.93l6.78 5-36.6 51.08c-.8.44-3.16.36-5.58.42-.32-1.5-1.23-3.9-1.56-4.9l36.97-51.58m21.9 16l6.9 5.04-15.62 21.66c-1.8.96-12.92 6.68-15.67 7.44l24.38-34.14"/></g><g class="J"><use xlink:href="#C"/><use xlink:href="#C" x="11.25" y="-0.81"/><use xlink:href="#C" x="2.3" y="10.93"/><use xlink:href="#C" x="14" y="10.26"/><use xlink:href="#C" x="26.36" y="10.05"/><use xlink:href="#C" x="41.63" y="21.2"/><use xlink:href="#C" x="29.75" y="21.67"/><use xlink:href="#C" x="17.75" y="22.03"/><use xlink:href="#C" x="32.8" y="33.26"/><use xlink:href="#C" x="44.45" y="32.3"/><use xlink:href="#C" x="55.06" y="31.23"/><use xlink:href="#C" x="46.45" y="43.25"/><use xlink:href="#C" x="57.8" y="42.29"/></g><g fill="#ffe60f" stroke-width=".25" class="B"><path d="M456.38 277.14l71.36.1-52.3-23.65-19.07 23.55z"/><path d="M477.5 267.47l-13.73-6.7c-1.33-.6-4.45-.46-4.45-.46s.28 2.73 1.48 3.28 15.8 5.83 15.8 5.83m1.93-3.8l-12.1-7.08c-2.28-1.2-5.34-.82-5.34-.82s1.44 2.6 2.67 3.15c1.2.54 13.73 6.62 13.73 6.62m46.6 9.13l9.26-1.33c2.03-.34 5.5-4.9 5.5-4.9s-3.85-2.2-5.95-1.8c-2.08.36-20.48 5.8-20.48 5.8l22.1-5.92c1.87-.66 4.17-4.5 4.17-4.5s-3.1-1-4.74-.44l-22.43 7.72 24.94-8.6c1.84-.93 4.16-4.92 4.16-4.92s-3.16-.68-4.15-.16c-.6.3-9.86 4.6-17 8.47l15.65-7.74c2.83-1.48 8.47-8.94 8.47-8.94s-5.38.7-6.97 1.65c-1.6.95-26.36 16.97-26.36 16.97l29.1-18.45c2.2-1.44 4.67-7.46 4.67-7.46s-4.33.26-6 1.48l-29.18 21.82 31.42-23.6c1.9-1.5 3.78-7.37 3.78-7.37s-4.32-.23-6.07 1.06c-1.75 1.28-30.3 28.58-30.3 28.58l33.72-31.94c2.48-2.2 5.06-8.64 5.06-8.64s-4.7.9-6.17 2.53l-33.66 37.24 38.2-42.45c1.78-1.92 2.98-7.6 2.98-7.6s-4.4 1.85-6.25 3.82c-1.85 1.95-36.26 45.05-36.26 45.05l35.23-43.95c2.04-2.56 2.96-7.45 2.96-7.45s-4.56 1.6-6.45 4.1c-1.9 2.48-32.84 46.34-32.84 46.34l26.68-37.9c.84-1.1.9-4.92.9-4.92s-2.56.76-3.34 1.93c-.9 1.33-25.12 40.15-25.12 40.15l27.13-43.43c.92-1.56.6-4.6.6-4.6s-2.18.55-3.2 1.78c-1 1.23-25.57 45.73-25.57 45.73L530.03 210c.85-1.43.9-6.1.9-6.1s-3.3 1.05-4.6 2.62-24.9 52.9-24.9 52.9l27.13-57.75c1.47-3.27 1.8-8.5 1.8-8.5s-3.24.73-4.38 2.54c-1.03 1.63-26.1 62.7-26.1 62.7l27.68-67.18.9-6.7s-5.42 3.6-6.24 6.1c-.4 1.26-10.52 30.1-15.78 46.84l15.64-46.1c.6-1.44-.07-5.05-.07-5.05s-3.74 3.2-4.4 5.35L506.2 232l8.7-30.5c.74-2.2-.58-6.4-.58-6.4s-2.23 3.07-2.97 6.24l-11.95 51.4 11.05-47.5c.68-2.62-1.62-7.15-1.62-7.15s-2.58 2.34-2.83 4.15c-.17 1.32-4.5 29.56-6.9 45.4 2.68-16.22 6.66-45.8 6.9-47.6.35-2.53-1.92-7.32-1.92-7.32s-2.3 1.94-2.38 3.23c-.07 1.27-5.76 61.9-5.76 61.9l6.22-66.02c.23-2.37-1.93-6.4-1.93-6.4s-1.67 1.5-1.78 2.97c-.08.95-1.42 29.05-2.37 49.2l2.52-53.08c.18-3.06-2.07-5.94-2.07-5.94s-1.47 1.7-1.64 4.77c-.2 3.7-.67 74.38-.67 74.38l.68-77.8c-.04-2.37-3.25-7.17-3.25-7.17s-2.55 3.9-2.38 7.3l3.63 77.66-3.34-70.2c-.46-3.5-4.15-6.26-4.15-6.26s-1.36 3.9-1.04 8.33c.3 4.46 5.62 49.07 5.62 49.07l-5.04-41.6c-.26-2.3-4.37-6.86-4.37-6.86s-.32 7.25.37 10.8l10.33 56.85c-.01 0-9.3-51.52-9.9-54.54s-3.54-5.23-3.54-5.23-.72 5.05.28 9.84c.46 2.2 11.82 49.94 11.82 49.94-.8-4.03-11.23-47.5-11.8-49.94-.62-2.53-2.66-4.77-2.66-4.77s-.65 4.87-.02 6.85c.63 2 13.46 48.3 13.46 48.3l-15.53-53.37c-1.02-2.87-4.95-6.7-4.95-6.7s-.08 4.83.73 6.78c.58 1.4 10.52 28.56 16.25 43.54l-18.24-49.1c-.7-2.1-6.22-7.16-6.22-7.16s-.9 3.28-.15 4.9l26.95 61.5-26.2-59.86c-1.7-3.87-7.7-7-7.7-7s.46 7.54 2.06 10.6l30.52 56.96-27.85-52.05c-1-1.72-6.23-4.33-6.23-4.33s1.06 6.06 2.66 8.5l26.34 41.14-24.56-38.3c-1.52-1.5-6.75-4.1-6.75-4.1s2.97 8.13 4.8 10.43 30.1 39.4 30.1 39.4l-29.5-38.54c-1.7-1.7-5.93-2.75-5.93-2.75s2.82 6.48 4.9 8.94l28.16 33.47-26.08-31.03c-2.28-2.3-6.53-2.84-6.53-2.84s2.75 6.1 6.37 9.85l24.9 25.13m-5.46 9.2l-21.15-4.25c-2.43-.46-10.6.65-10.6.65s7.8 4.1 11.57 4.34c3.77.25 19.44 1.58 19.44 1.58"/><path d="M481.12 262.2s-18.35-19.48-20.45-20.95c-2.1-1.5-7-1.5-7-1.5s.46 4.52 2.82 6.1c2.37 1.6 23.37 17.7 23.37 17.7l-13.34-10.37c-1.98-1.47-6.4-.75-6.4-.75s3.22 4.3 5.42 5.8c2.2 1.5 13 7.4 13 7.4m-1.95 3.8l-17.58-6.43c-2.7-.85-11.73-.44-11.73-.44s5 4.16 7.34 4.7c2.35.5 21.15 4.25 21.15 4.25m-.75 2.32s-19.44-1.98-21.2-1.73c-1.78.25-7.58 2.67-7.58 2.67s5.74 1.46 7.86 1.5c2.12.04 20.78-1.03 20.78-1.03"/></g><path fill="#ffb316" d="M507.06 277.2c0-7.18-5.8-13-12.97-13s-12.96 5.83-12.96 13h25.93"/><g class="J"><g class="D"><use xlink:href="#D" class="C"/><path d="M265.9 305.5c.06 2.47 1.06 7.93 2 8.64" class="B"/></g><g class="E"><path d="M289 344.18c-.8-1.47-.9-5.1-.9-5.1s-.27 4.35-1.3 6" class="C"/><path d="M288.14 337.76c.06 1.98.86 6.4 1.62 6.98" class="B"/></g><g class="D"><path d="M364.8 358.24c.92-1.84.92-6.34.92-6.34s.5 5.35 1.83 7.35" class="C"/><path d="M365.62 350.26c.02 2.48-.8 8-1.72 8.72" class="B"/><use xlink:href="#E" class="C"/><path d="M405.48 348.43c.01 2.46-.8 7.97-1.72 8.7" class="B"/><path d="M270.8 323c.9-1.86.9-6.33.9-6.33s.52 5.33 1.83 7.35" class="C"/><path d="M271.6 315.03c.02 2.47-.8 7.98-1.73 8.73" class="B"/><path d="M330.53 355.46c.9-1.84.92-6.34.92-6.34s.5 5.35 1.83 7.37" class="C"/><path d="M331.34 347.47c.01 2.48-.8 8-1.72 8.72" class="B"/><path d="M448.38 363.85c-.97-1.82-1.1-6.3-1.1-6.3s-.34 5.35-1.6 7.4" class="C"/><path d="M447.33 355.92c.07 2.45 1.06 7.93 2 8.62" class="B"/></g><g class="G"><path d="M345.3 361.24c-.88-1.64-1-5.67-1-5.67s-.3 4.82-1.44 6.65" class="C"/><path d="M344.34 354.1c.05 2.2.95 7.14 1.8 7.76" class="B"/></g><g class="D"><path d="M350.85 364.5c.9-1.84.92-6.34.92-6.34s.5 5.35 1.83 7.35" class="C"/><path d="M351.65 356.53c.02 2.44-.8 7.97-1.7 8.7" class="B"/><path d="M360.8 361.62c-1-1.8-1.1-6.3-1.1-6.3s-.34 5.36-1.6 7.4" class="C"/><path d="M359.76 353.7c.05 2.47 1.06 7.93 2 8.65" class="B"/><use xlink:href="#D" x="91.16" y="61.78" class="C"/><path d="M357.07 367.26c.06 2.45 1.06 7.94 2 8.63" class="B"/></g><g class="G"><path d="M386.42 355.3c-.87-1.65-1-5.67-1-5.67s-.3 4.83-1.43 6.67" class="C"/><path d="M385.47 348.15c.06 2.23.95 7.15 1.8 7.8" class="B"/></g><g class="D"><path d="M389.37 371.12c-.97-1.83-1.1-6.3-1.1-6.3s-.34 5.35-1.6 7.4" class="C"/><path d="M388.32 363.18c.07 2.45 1.06 7.94 2 8.62" class="B"/><use xlink:href="#E" x="-25.39" y="10.7" class="C"/><use xlink:href="#F" class="B"/><path d="M371.85 375.82c.9-1.84.9-6.32.9-6.32s.52 5.33 1.84 7.33" class="C"/><use xlink:href="#F" x="-7.43" y="8.72" class="B"/></g><g class="E"><path d="M373.13 355.06c.75-1.52.74-5.13.74-5.13s.42 4.3 1.5 5.95" class="C"/><path d="M373.8 348.6c.01 2-.65 6.47-1.4 7.06" class="B"/><path d="M402.35 374.9c.74-1.52.75-5.13.75-5.13-.01 0 .4 4.3 1.48 5.95" class="C"/><path d="M403 368.44c.01 2-.65 6.47-1.4 7.04" class="B"/><path d="M395.84 354.54c.74-1.5.74-5.13.74-5.13s.4 4.34 1.5 5.95" class="C"/><path d="M396.5 348.1c.01 2-.65 6.45-1.4 7.05" class="B"/></g><g class="D"><path d="M381.72 377.48c.92-1.84.92-6.32.92-6.32s.5 5.33 1.83 7.35" class="C"/><path d="M382.52 369.5c.01 2.46-.8 7.97-1.72 8.7" class="B"/><path d="M394.33 378.07c.92-1.84.9-6.32.9-6.32s.52 5.33 1.84 7.33" class="C"/><use xlink:href="#F" x="15.06" y="10.96" class="B"/><path d="M365.4 374c-.98-1.82-1.1-6.3-1.1-6.3s-.34 5.36-1.6 7.4" class="C"/><path d="M364.34 366.06c.06 2.48 1.06 7.94 2 8.63" class="B"/><path d="M368.6 365.7c.9-1.86.9-6.34.9-6.34s.52 5.34 1.84 7.34" class="C"/><path d="M369.4 357.72c.02 2.47-.8 7.98-1.72 8.7" class="B"/><path d="M348.18 371.3c-.97-1.82-1.1-6.3-1.1-6.3s-.34 5.34-1.6 7.4" class="C"/><path d="M347.13 363.36c.06 2.48 1.05 7.96 2 8.65" class="B"/><path d="M338.83 367.75c.9-1.85.9-6.32.9-6.32s.52 5.35 1.83 7.35" class="C"/><path d="M339.63 359.78c.02 2.46-.8 7.97-1.72 8.72" class="B"/><path d="M309.6 357.97c.9-1.84.9-6.32.9-6.32s.52 5.35 1.83 7.35" class="C"/><use xlink:href="#F" x="-69.68" y="-9.14" class="B"/><path d="M320.2 362.73c-.97-1.82-1.1-6.3-1.1-6.3s-.34 5.34-1.6 7.4" class="C"/><path d="M319.15 354.8c.06 2.45 1.06 7.9 2 8.63" class="B"/><path d="M324.5 364.54c.9-1.85.92-6.34.92-6.34s.5 5.35 1.82 7.37" class="C"/><use xlink:href="#F" x="-54.78" y="-2.56" class="B"/></g><g class="E"><path d="M335.17 365.68c-.78-1.5-.9-5.1-.9-5.1s-.27 4.33-1.3 5.98" class="C"/><path d="M334.32 359.23c.05 2 .85 6.45 1.6 7" class="B"/></g><g class="D"><path d="M339.88 357.9c-.98-1.82-1.1-6.3-1.1-6.3s-.35 5.36-1.6 7.4" class="C"/><path d="M338.83 349.95c.05 2.47 1.06 7.94 2 8.63" class="B"/><use xlink:href="#E" x="-84.9" y="-8.18" class="C"/><path d="M320.58 340.25c.01 2.46-.8 7.97-1.72 8.7" class="B"/><path d="M303.15 354.16c-.98-1.85-1.1-6.32-1.1-6.32s-.34 5.35-1.6 7.4" class="C"/><path d="M302.1 346.2c.05 2.48 1.05 7.97 2 8.65" class="B"/><path d="M292.76 347.76c.9-1.87.92-6.34.92-6.34s.5 5.35 1.83 7.35" class="C"/><path d="M293.55 339.8c.02 2.46-.8 7.97-1.7 8.7" class="B"/><path d="M306.56 347.3c-.97-1.83-1.1-6.3-1.1-6.3s-.34 5.35-1.6 7.4" class="C"/><path d="M305.5 339.35c.06 2.46 1.05 7.95 2 8.63" class="B"/></g><g class="E"><path d="M313.7 346.52c.74-1.5.74-5.13.74-5.13s.42 4.3 1.5 5.95" class="C"/><path d="M314.37 340.05c.01 2-.65 6.47-1.4 7.06" class="B"/></g><g class="G"><path d="M378.06 354.8c.82-1.66.82-5.7.82-5.7s.46 4.82 1.66 6.6" class="C"/><path d="M378.78 347.65c.02 2.22-.72 7.17-1.55 7.83" class="B"/></g><g class="D"><path d="M390.2 354.6c.92-1.84.92-6.34.92-6.34s.5 5.35 1.83 7.35" class="C"/><path d="M391 346.64c.01 2.44-.8 7.97-1.72 8.7" class="B"/></g><g class="E"><path d="M401.7 364.33c-.78-1.5-.9-5.1-.9-5.1s-.27 4.33-1.3 6" class="C"/><path d="M400.85 357.88c.05 2 .85 6.42 1.6 7" class="B"/></g><g class="K"><path d="M413.5 372.22c-.72-1.33-.82-4.6-.82-4.6s-.25 3.9-1.17 5.4" class="C"/><path d="M412.73 366.45c.05 1.8.78 5.78 1.46 6.3" class="B"/></g><g class="D"><path d="M408.74 367.23c.92-1.88.92-6.34.92-6.34s.5 5.34 1.83 7.34" class="C"/><path d="M409.54 359.23c.02 2.47-.8 8-1.7 8.73" class="B"/><path d="M414.7 356.22c-.97-1.8-1.1-6.3-1.1-6.3s-.34 5.36-1.6 7.4" class="C"/><path d="M413.64 348.28c.06 2.47 1.06 7.93 2 8.65" class="B"/><use xlink:href="#E" x="-11.67" y="8.2" class="C"/><path d="M393.82 356.62c.01 2.46-.8 7.97-1.72 8.7" class="B"/><path d="M418.85 363.54c-.98-1.82-1.1-6.3-1.1-6.3s-.33 5.33-1.6 7.37" class="C"/><path d="M417.8 355.6c.06 2.47 1.05 7.96 2 8.64" class="B"/><path d="M442.46 353.1c-.98-1.82-1.12-6.3-1.12-6.3s-.33 5.36-1.6 7.4" class="C"/><path d="M441.4 345.18c.06 2.46 1.07 7.94 2 8.64" class="B"/><path d="M419.97 345.76c.9-1.85.9-6.32.9-6.32s.5 5.33 1.83 7.33" class="C"/><path d="M420.77 337.8c.02 2.46-.8 7.97-1.7 8.7" class="B"/><use xlink:href="#E" x="35.17" y="8.5" class="C"/><path d="M440.65 356.96c.02 2.44-.8 7.94-1.72 8.7" class="B"/><path d="M454.48 348.23c.92-1.84.92-6.34.92-6.34s.5 5.35 1.83 7.37" class="C"/><path d="M455.3 340.12c.01 2.46-.8 7.97-1.72 8.7" class="B"/><use xlink:href="#D" x="161.31" y="54.14" class="C"/><path d="M427.2 359.63c.06 2.45 1.06 7.94 2 8.63" class="B"/><path d="M427.08 353.06c.92-1.85.92-6.32.92-6.32s.5 5.33 1.83 7.35" class="C"/><use xlink:href="#F" x="47.82" y="-14.04" class="B"/></g><g class="E"><path d="M434.16 357.16c-.8-1.47-.9-5.1-.9-5.1s-.28 4.35-1.3 6" class="C"/><path d="M433.3 350.73c.05 2 .85 6.43 1.6 7" class="B"/></g><g class="D"><path d="M412.33 343.3c.9-1.84.9-6.34.9-6.34s.52 5.35 1.83 7.35" class="C"/><path d="M413.13 335.33c.02 2.44-.8 7.97-1.72 8.7" class="B"/><path d="M446.9 353.67c.92-1.86.92-6.34.92-6.34s.5 5.34 1.83 7.34" class="C"/><path d="M447.7 345.7c.02 2.47-.8 7.98-1.72 8.7" class="B"/><path d="M435.4 369.3c-.97-1.84-1.1-6.3-1.1-6.3s-.34 5.35-1.6 7.4" class="C"/><path d="M434.34 361.33c.06 2.48 1.05 7.96 2 8.65" class="B"/></g><g class="E"><path d="M433.25 345.7c.74-1.5.74-5.13.74-5.13s.4 4.34 1.5 5.95" class="C"/><path d="M433.9 339.24c.01 2-.65 6.45-1.4 7.04" class="B"/></g><g class="D"><path d="M400.46 334.13c.92-1.87.9-6.35.9-6.35s.5 5.35 1.83 7.35" class="C"/><use xlink:href="#F" x="21.18" y="-33" class="B"/></g><g class="K"><path d="M428.15 340.66c-.7-1.33-.8-4.6-.8-4.6s-.25 3.9-1.17 5.4" class="C"/><path d="M427.38 334.88c.04 1.78.77 5.78 1.46 6.3" class="B"/></g><g class="G"><path d="M448.92 342.34c-.87-1.65-1-5.68-1-5.68s-.3 4.82-1.43 6.65" class="C"/><path d="M447.97 335.2c.06 2.2.95 7.15 1.8 7.78" class="B"/></g><g class="D"><path d="M410.4 333.2c-.97-1.83-1.1-6.3-1.1-6.3s-.34 5.35-1.6 7.4" class="C"/><path d="M409.35 325.26c.07 2.45 1.06 7.93 2 8.64" class="B"/><path d="M391.64 332c-.98-1.83-1.1-6.3-1.1-6.3s-.35 5.35-1.6 7.4" class="C"/><path d="M390.57 324.06c.07 2.45 1.07 7.94 2 8.63" class="B"/></g><g class="C"><path d="M420.14 332.83c-.7-1.33-.8-4.6-.8-4.6s-.25 3.9-1.17 5.4" class="K"/><path d="M435.1 336.16c.74-1.5.74-5.13.74-5.13s.42 4.3 1.5 5.95" class="E"/></g><path d="M435.76 329.7c.01 2-.65 6.45-1.4 7.04" class="B E"/><g class="D"><path d="M441.43 340.22c-.98-1.82-1.1-6.3-1.1-6.3s-.34 5.35-1.6 7.4" class="C"/><path d="M440.38 332.3c.07 2.45 1.06 7.93 2 8.62" class="B"/></g><g class="C"><path d="M438.9 330.9c.83-1.66.83-5.68.83-5.68s.45 4.8 1.65 6.6" class="O"/><path d="M453.73 358.14c.82-1.66.82-5.7.82-5.7s.46 4.8 1.66 6.6" class="G"/></g><path d="M454.46 350.95c.01 2.22-.73 7.2-1.55 7.83" class="B G"/><g class="D"><path d="M425.4 332.56c.9-1.86.9-6.33.9-6.33s.5 5.35 1.83 7.35" class="C"/><path d="M426.2 324.58c.02 2.47-.8 7.98-1.72 8.72" class="B"/></g><g class="E"><path d="M422.83 360.63c.74-1.5.74-5.13.74-5.13s.42 4.3 1.48 5.95" class="C"/><path d="M423.48 354.16c.02 2-.64 6.45-1.4 7.04" class="B"/></g><g class="C"><path d="M444.74 330.53c.67-1.35.67-4.6.67-4.6s.37 3.88 1.34 5.33" class="K"/><path d="M433.34 330.18c-.8-1.47-.9-5.1-.9-5.1s-.27 4.33-1.3 6" class="E"/></g><path d="M432.5 323.74c.05 2 .85 6.45 1.62 7.03" class="B E"/><path d="M451.52 337.2c.74-1.5.74-5.13.74-5.13s.4 4.35 1.48 5.95" class="C E"/><path d="M452.16 330.76c.02 2-.64 6.45-1.4 7.05" class="B E"/><g class="G"><path d="M452.27 329.23c-.87-1.67-1-5.7-1-5.7s-.3 4.83-1.44 6.67" class="C"/><path d="M451.33 322.06c.06 2.23.95 7.15 1.8 7.8" class="B"/></g><g class="D"><path d="M460.35 333.27c.93-1.87.92-6.34.92-6.34s.5 5.34 1.84 7.34" class="C"/><path d="M461.16 325.28c.01 2.5-.8 8-1.72 8.73" class="B"/><use xlink:href="#D" x="201.48" y="37.68" class="C"/><path d="M467.38 343.18c.06 2.48 1.06 7.94 2 8.63" class="B"/></g><g class="G"><path d="M460.78 355.52c.82-1.65.83-5.68.83-5.68s.45 4.8 1.65 6.6" class="C"/><path d="M461.5 348.35c.02 2.22-.72 7.17-1.56 7.84" class="B"/><path d="M461 342.9c.82-1.68.82-5.7.82-5.7s.46 4.8 1.65 6.6" class="C"/><path d="M461.74 335.7c.01 2.22-.73 7.2-1.56 7.86" class="B"/><path stroke="#228b22" d="M470.83 328.7c-.9-1.65-1-5.67-1-5.67s-.3 4.8-1.44 6.65"/><path d="M469.88 321.56c.05 2.23.95 7.15 1.8 7.8" class="B"/></g><g class="D"><path d="M467.02 340.28c.93-1.87.92-6.34.92-6.34s.5 5.35 1.83 7.35" class="C"/><path d="M467.83 332.3c.02 2.45-.8 7.96-1.72 8.7" class="B"/></g><g class="E"><path d="M472.8 348.42c.74-1.5.75-5.13.75-5.13s.4 4.33 1.48 5.95" class="C"/><path d="M473.46 341.97c.01 2-.65 6.45-1.4 7.04" class="B"/><path d="M474.85 338.58c-.8-1.5-.9-5.1-.9-5.1s-.27 4.33-1.3 5.98" class="C"/><path d="M473.98 332.13c.05 2 .86 6.45 1.6 7" class="B"/></g><path stroke="#228b22" d="M477 328c.92-1.88.92-6.34.92-6.34-.01 0 .5 5.35 1.82 7.34" class="O"/><path d="M477.8 320c.02 2.5-.8 8-1.72 8.73" class="B D"/><g class="G"><path d="M484.9 337.84c.83-1.66.83-5.7.83-5.7s.45 4.8 1.65 6.6" class="C"/><path d="M485.64 330.65c.02 2.22-.72 7.17-1.54 7.83" class="B"/><path d="M479.96 339.36c-.87-1.65-1-5.68-1-5.68s-.3 4.82-1.43 6.65" class="C"/><path d="M479 332.2c.06 2.23.95 7.15 1.8 7.78" class="B"/></g><g class="D"><path d="M478.64 314.76c-.97-1.82-1.1-6.3-1.1-6.3s-.34 5.34-1.6 7.4" class="C"/><path d="M477.58 306.83c.07 2.45 1.06 7.93 2 8.63" class="B"/><path d="M483.37 327.83c.92-1.84.92-6.34.92-6.34s.5 5.35 1.83 7.37" class="C"/><use xlink:href="#F" x="104.09" y="-39.28" class="B"/></g><g class="G"><path d="M497.9 325.7c.83-1.66.83-5.7.83-5.7s.46 4.8 1.65 6.6" class="C"/><path d="M498.64 318.53c.02 2.22-.73 7.18-1.55 7.84" class="B"/><path d="M492.53 323.88c-.87-1.65-1-5.67-1-5.67s-.3 4.8-1.43 6.67" class="C"/><path d="M491.58 316.73c.06 2.23.95 7.15 1.8 7.8" class="B"/></g><g class="K"><path d="M492.84 333.4c-.7-1.33-.8-4.6-.8-4.6s-.25 3.9-1.17 5.4" class="C"/><path d="M492.07 327.6c.05 1.8.77 5.8 1.45 6.3" class="B"/></g><g class="D"><path d="M483.1 313.97c.9-1.85.9-6.35.9-6.35s.5 5.35 1.83 7.35" class="C"/><use xlink:href="#F" x="103.82" y="-53.14" class="B"/><path d="M488.73 312.34c.9-1.85.9-6.32.9-6.32s.52 5.33 1.84 7.33" class="C"/><path d="M489.53 304.37c.02 2.44-.8 7.97-1.72 8.7" class="B"/></g><g class="G"><path d="M497 315.55c-.88-1.65-1-5.7-1-5.7s-.3 4.84-1.45 6.68" class="C"/><path d="M496.04 308.4c.05 2.2.95 7.15 1.8 7.77" class="B"/><path d="M502.93 312.64c-.87-1.65-1-5.68-1-5.68s-.3 4.82-1.43 6.65" class="C"/><path d="M501.98 305.5c.06 2.23.95 7.15 1.8 7.78" class="B"/><path d="M506.16 314.02c.82-1.67.83-5.7.83-5.7s.46 4.8 1.65 6.6" class="C"/><path d="M506.9 306.83c.02 2.22-.73 7.2-1.56 7.86" class="B"/></g><g class="E"><path d="M512.72 311.92c-.8-1.47-.9-5.1-.9-5.1s-.27 4.33-1.3 5.98" class="C"/><path d="M511.86 305.48c.05 2 .86 6.45 1.6 7.03" class="B"/></g><g class="D"><path d="M281.78 336c.92-1.88.92-6.34.92-6.34s.5 5.34 1.82 7.34" class="C"/><path d="M282.58 328c.02 2.47-.8 8-1.73 8.73" class="B"/><path d="M275.26 334.74c-1-1.8-1.1-6.3-1.1-6.3s-.34 5.36-1.6 7.4" class="C"/><path d="M274.2 326.8c.06 2.47 1.06 7.93 2 8.65" class="B"/></g><g class="E"><path d="M270.3 330.9c-.78-1.5-.9-5.1-.9-5.1s-.27 4.33-1.28 5.97" class="C"/><path d="M269.45 324.48c.06 1.98.85 6.44 1.62 7" class="B"/></g><g class="D"><path d="M262.65 327.17c.9-1.84.9-6.32.9-6.32s.5 5.35 1.83 7.35" class="C"/><use xlink:href="#F" x="-116.64" y="-39.94" class="B"/><path d="M251.23 312.7c.9-1.85.9-6.32.9-6.32s.5 5.35 1.83 7.35" class="C"/><use xlink:href="#F" x="-128.05" y="-54.41" class="B"/></g><g class="K"><path d="M248.3 306.86c-.7-1.34-.82-4.6-.82-4.6s-.24 3.9-1.16 5.37" class="C"/><path d="M247.54 301.06c.04 1.8.77 5.8 1.46 6.3" class="B"/></g></g><g class="D F"><g fill="#3f863f"><path d="M269.38 274.34c-.38 4.17-.23 9.46 1.64 14-3.33-3-10.03-7.52-18.13-9.44-3.78-3.66-7.7-17-6.3-21.77 7.2-.44 21.3 11.42 22.78 17.22h0zm13.62 27.5c-6.54-4.27-12.54-5.5-27.15-5.14 2.22 8.18 24.48 17.96 28.2 17.28-.3-1.4-1.4-10.85-1.04-12.14h0z"/><path d="M282.93 301.63c-18.93-8.4-13.86-35.66-10.5-38.83 9.35 5.15 10.15 17.22 11.33 20.43-.82 6.94-.96 13.1-.82 18.4h0z"/><path d="M279.52 299.75c-4.52-3.27-7.27-7.22-8.43-11.27-5.58-5.04-14.18-10.12-25.16-10.5.2 8.9 7.63 17.15 12 18.72 7.12.01 14.47-.35 21.6 3.08l-.01-.03zm77.15 39.93c-3.1 3.44-13.74 14.3-32.3 6.17 2.75-3.2 5.05-3.58 6.76-3.8 5.94.6 13.96-1.77 18.56-5.5 2.3 1.2 6.3 2.98 6.97 3.13h0z"/><path d="M356.16 328.3c-5.5-3.66-11.28-3.2-16.92-4.93-.6 11.15 17 15.56 18.54 16.84 1.85-.97 5.94-1.9 8.7-1.7-2.08-1.58-7.94-4.55-10.3-10.2h0z"/><path d="M391.55 339.56c2.4-.07 9.65-1.77 11.73-.15 2.07 1.65 6.23 6.4 2.96 9.7-3.27 3.28-6.24-1.34-7.57-2.1-1.34-.74-5.63-5.2-23.15-1.8-7.65 1.5-7.66 6.43-16.42 8.2-6.4 1.3-7.2.08-14.55-.16 3.05-3.72 5.5-5.96 8.32-9.82 2.83-3.9 11.07-5.05 13.6-4.92-3.8-2.6-12.6-6.48-12.67-21.83 5.8 1.34 12.7 2.74 20.98 19-3.18-6.84-8.96-13.94-11.5-15.06-.57-.24.3-10.04 1.35-11.7 6.23 6.63 7.1 6.75 10.24 9.85 4.52 4.47 3.7 11.02 6.08 14.74 2.45 3.9 7.48 6.14 10.6 6.06h0zm-41.85-3c-2.45 2-13.6 8.87-26.65 3.65 7.2-9.1 11.73-9.25 19.46-8.78 1.78 1.78 4.52 4.02 7.2 5.13h0zM284.03 314c-.82-.47-10.7.82-12.1 2.98.45 3.87 11.05 9.76 14.02 8.95-.52-3.27-2-10.5-1.92-11.93h0z"/></g><path d="M404.37 343.15c1.04 1.48.56 4.96-2.16 3.32m.32.1c2 .3 2.3-1.86 2-3.12" class="H"/></g><path d="M404.54 342.3c3.18 6.06-1.64 5.97-3.05 3.68" class="C D H"/><g class="F"><path stroke-width=".9" d="M367.76 317.6c.9 3 6.57 9.6 7.76 13.8m-16.73-7.8c.9 1.8 6.86 8.72 10.45 11.43m-23.62-6.32c.9.9 7.47 6.3 13.75 8.1m-15.85-1.5c-2.7-.33-10.17-.01-14.36 3.3M348 341.3c-2.4.6-11.36 1.52-16.15 3.9m36.78-2.68c-7.17.58-10.48 6.6-16.45 7.8m-78.87-79.9c0 2.7.58 16.8 4.77 20.72M249.7 262.3c1.8 6.9 12.54 12.3 13.44 16.5m14 39.93c1.8-.6 5.08-.9 7.18.9m-21.5-19.83c2.7.02 15.84 3.02 19.72 8.73m-31.68-25.53c3.3 1.18 14.95 8.1 17.63 13.53" class="H"/><g class="E"><path d="M230.8 263.95c2.45.75 9.35.7 11.58-4 .65-1.37.6-4.02 2.68-6.7s5.23-3.2 5.73-6.48c.9-5.96-5.8-5.16-7.1-8.5-1.13-2.82.3-3.65 3.27-4.33 1.93-.42 7.95 1.86 20.9 7.17 9.5 3.88 18.1 1.5 21-.44 3.3-2.2 6.3-8.5 11.96-13.54.96-.86 13.66-5.07 18.12-12.82 2.2-3.84 5.07-17.28-6.5-25.93-11.56-8.65-27.88-14.32-34.7-17.3-6.83-2.98-17.02-4.7-18.17-13.27-.52-3.8 2.74-5.32 5.43-5.23 3.55.17 8.2 1.48 11.03 1.75 2.08.22 9.15 1.1 10.26-5.52-.54-.6-.66-.76-1.2-1.63-.23 1.18-.82 3.63-5.57 3.33-5.7-.36-11.5-4.07-15.9-4.06-5.33 0-9.02 2.87-14.36 4.36-5.15 1.43-11.4 1.03-14.25 6.24-1.8 3.28-3.28 14.9 5.32 23.25 8.6 8.37 13.4 12.36 33.5 20 14.77 5.6 18.43 8.66 20.22 10.76 1.78 2.1 1.7 4.1 1 4.9-.9 1.04-5.42 2-16.84-2.9-10.3-4.43-18.54-5.1-23.3-5.08-4.75-.02-17.9 2.38-20.2 7-2.67 5.35-.6 6.55-.1 14.52.14 2.26-.5 5.36.73 8.13.9 2 3.03 4.38 4.6 5.05 4.67 2 2.88 4.34 1.4 6.12s-3.56 5.14-3.05 7.98c.75 4.23-7.52 7.18-7.52 7.18h0zM377.72 60.6c-5.13 1.95-6.1 1.18-7.87 2.6-2.9 2.3-5.3 4.84-5.95 3.8-.88-1.42 7.6-2.9 9.36-8.25 1.4-4.34-.5-5.15-1.54-12.25-1.6-10.95-6.9-12.82-10.76-11.63-3.86 1.2-14.26 6.34-31.18 12.2-11.9 4.13-31.1 6.2-34.45 12.2-1.33 2.4-5.36 12.26 8.3 22.07 3.1 2.24 4.07 2.84 11.94 5.44-4.78-.73-11.23-2.7-26.74-1.64-28.25 1.96-58 28.13-54.42 48.9.88 5.12 7.5 3.06 12.84 3.94 5.34.9 6.15 3.42 10 2.8 3.86-.6 4.52-6.43 8.4-7.02 3.86-.6 3.56 3.3 7.7 3.28 4.16.01 7.6-7 10.57-6.7-1.48-.6-1.8-.52-2.83-.66-2.65 2.1-6 2.9-8.1 1.7-2.07-1.18-2.72-3.05-5.77-3.04-1.78-.02-3.56.94-7.27 3.64 3.1-3.8 16.44-24.05 44.84-18.16 12.98 2.7 14.55-1.4 15.14-3.5.6-2.08-.6-5.5.01-11.08.5-4.54 3.28-7.76 2.38-10.75-.9-2.97-2.4-4.5-7.4-6.17-2.22-.75-2-1.82-1.05-2.64.98-.87 4.1-1 6.32-1.4 3.9-.64 23.3-5.4 36.3-13.6 6.72-4.23 10.55-8.74 10.85-6.08.2 1.85-9.73 3.17-9.45 7.57.12 1.87.26 4.8 5.72 5.2 3.93.3 6.34-2.48 9.05-4.83 3.25-2.85 4.5-3.68 5.04-5.98h0z" class="J"/><path d="M276.62 173.94c-14.42-6.02-25.5-11.9-18.05-23.07-8.56 4.3-22.96 1.43-22.1 12.62 2.8 36.72 69.8 29.62 63.84 59.65 15.2-2.12 29-25.13 3.6-36.94l-27.28-12.26zm39.83-83.5c2.6.64-.2 5.18-.95 9.54-.5 2.85 2.1 8.6-.25 9.9-7.96 4.4-40.84-12.78-59.5 24.4-2.14 4.26-6.06.01-9.5-.3-5.96-.58-10.43.58-8.8-4.33 14.05-42.46 58.47-44.2 79-39.2h0zM351.5 42c5.33-2.27 9.7-4.1 12.5-3.26 5.58 1.68 4.15 13.13 6.16 15.76-3.3-1.12-8.7 2.5-14.76 6.5-4.8 3.15-10.36 6.2-15.3 8.16-3.88 1.53-9.67 3.28-15.1 4.42-9.34 1.97-17.86 3.36-15.54 7.37-3.56-1.32-14.84-8.83-11.62-17.4 1.8-4.78 8.23-6.88 15.74-8.8 7.5-1.9 14.12-3.37 20.97-5.97L351.5 42zM241.68 213.25c25.54-9.5 38.2 9.52 55.42 6.57.3 7.73-6.33 21.42-19.7 20.5-9.26-.6-31.73-17.45-39.07-3.77-.28-9.82-5.76-19.92 3.35-23.3h0z" class="N"/></g></g><path d="M247.03 218.3c-.47-.58-1-.83-1.77-.7-.8.1-1.6.8-1.5 1.7.12.78.96 1.1 1.63 1.25l.77.17c1.53.35 2.72 1 2.97 2.7.26 1.84-.97 3.38-2.8 3.64-1.64.24-3.1-.8-3.55-2.4l1.25-.45c.15 1.1 1.15 1.8 2.25 1.64 1.1-.15 1.74-1.2 1.58-2.26-.15-1.1-1.1-1.44-2.03-1.68l-.74-.2c-1.22-.34-2.37-.84-2.58-2.26-.24-1.64 1.06-2.85 2.6-3.06 1.12-.16 2.13.25 2.83 1.16l-.93.74m8.84 8.25l-1.28-.1.7-9.1-2.43-.18.1-1.16 6.14.47-.1 1.17-2.43-.18-.7 9.1m6.6-1.48l-2 1.98-1.3-.5 8.36-8.28.8 11.76-1.3-.5-.2-2.82-4.4-1.66zm4.1-4.16l-3.17 3.25 3.4 1.28-.24-4.53m7.02 11.05l-1.2-.4 2.86-8.63-2.3-.77.38-1.1 5.82 1.94-.37 1.1-2.3-.77-2.85 8.63m8.3-8.12l5.47.67-.14 1.17-4.2-.53-.35 2.86 4.07.5-.14 1.17-4.08-.5-.47 3.86 4.2.52-.14 1.17-5.46-.67 1.24-10.2m23.53-13.17c-.45.44-.62.93-.45 1.56.17.7.82 1.3 1.56 1.12.67-.17.84-.9.9-1.5l.08-.67c.17-1.3.6-2.4 2-2.75 1.54-.4 2.94.5 3.33 2.04.35 1.37-.4 2.7-1.7 3.22l-.5-1.02c.93-.22 1.42-1.14 1.2-2.05s-1.16-1.36-2.05-1.13c-.9.23-1.12 1.06-1.24 1.87l-.1.64c-.17 1.08-.5 2.1-1.68 2.4-1.37.35-2.5-.65-2.82-1.94a2.5 2.5 0 0 1 .72-2.51l.73.72M301.9 199c2.13-1.48 4.9-.92 6.36 1.15 1.44 2.08 1 4.9-1.1 6.4-2.06 1.44-4.93.9-6.36-1.15-1.44-2.06-.94-4.95 1.1-6.4h0zm.63.9c-1.58 1.1-2.08 3.22-.9 4.9 1.18 1.7 3.32 1.95 4.9.84 1.64-1.14 1.98-3.34.9-4.9a3.52 3.52 0 0 0-4.9-.84m-3.8-6.03l-5.98 3.56-.95-.72 8.6-5-2.58 9.64-.95-.73 1.86-6.74"/><path d="M290.32 195.96l-4.1-2.3.48-.86 3.15 1.76 1.2-2.15-3.06-1.7.48-.87 3.06 1.7 1.6-2.9-3.14-1.75.48-.87 4.1 2.28-4.24 7.67m-7.8-13.67l1.2.53.83 4.45.42.18 1.5-3.38 1 .45-3.58 8-1.2-.54c-.7-.32-1.46-.68-1.93-1.33-.5-.68-.53-1.6-.2-2.37.5-1.14 1.7-1.76 2.92-1.38l-.98-4.6zm2.08 6l-.32-.15c-1.02-.46-2.2-.77-2.77.5-.56 1.25.54 1.96 1.53 2.4l.27.12 1.3-2.88m-7.5 1.28l-4.34-1.8.38-.9 3.33 1.37.93-2.26-3.23-1.34.37-.92 3.24 1.33 1.25-3.05-3.33-1.38.38-.93 4.34 1.8-3.32 8.1m-4.5-11.37l1 .4-3.35 8.1-1-.4 3.35-8.1m-11.85-.4l.14-.32c1-2.2 3.3-3.18 5.53-2.16 2.23 1 3.15 3.76 2.15 5.97-1.03 2.3-3.73 3.35-6.02 2.3-1.24-.56-2.2-1.67-2.54-3l1-.35c.2 1.03.94 2 1.92 2.44 1.78.8 3.83-.01 4.64-1.8.76-1.68.1-3.88-1.62-4.67-1.23-.56-3.04-.1-3.67 1.18l2.05.94-.4.9-3.17-1.43m-5.23 2.64l-1.54-9.42-3.65 5.36-.9-.62 5.15-7.54 1.53 9.42 3.7-5.4.9.62-5.18 7.58m-4.04-15.5l.67.87-6.14 4.76 1.27 1.65-.8.6-3.2-4.17.8-.6 1.27 1.65 6.14-4.77m-9.83.98l-.46-1.17 2.7-3.38-4.26-.63-.46-1.17 5.64.86 3.54-1.4.4 1.02-3.54 1.38-3.55 4.5m.1-39.85l9.88-1.53-5.57-3.9.66-.93 7.85 5.5-9.88 1.52 5.6 3.94-.65.94-7.9-5.53m14.25-6.38l.87 2.38-.88.87-3.58-9.92 9.84 3.77-.88.85-2.36-.9-3 2.95zm-1.84-4.87l1.44 3.8 2.33-2.3-3.77-1.5m11.62-.7l-.9.7-4.92-6.5-1.73 1.33-.63-.84 4.38-3.33.63.84-1.73 1.3 4.9 6.5m5.32-3.56l-.98.6-4.77-7.86.98-.6 4.77 7.87m9.78-9.73c1.05 2.5-.14 5.26-2.58 6.3a4.73 4.73 0 0 1-6.28-2.57c-1.02-2.43.16-5.26 2.58-6.28 2.42-1.03 5.26.12 6.28 2.55h0zm-1.05.45c-.78-1.88-2.83-2.85-4.82-2s-2.72 2.98-1.94 4.85a3.69 3.69 0 0 0 4.82 2.02c1.83-.78 2.75-2.94 1.94-4.86m3.93-6.5l8.1 5.9-1.22-6.7 1.13-.2 1.72 9.44-8.1-5.9 1.23 6.76-1.13.22-1.73-9.52m14.55 5.55l-1.1 2.28-1.23-.02 4.6-9.53 4.18 9.72-1.23-.02-1-2.35-4.22-.08zm2.22-4.75l-1.72 3.7 3.27.07-1.55-3.76m8.33 6.86l2.76.47-.18 1.04-3.9-.67 1.57-9.1 1.13.2-1.4 8.07m-2.68-39.96l1.34 5.74c.36 1.6 1.2 2.96 3.05 2.52 1.87-.43 2-2 1.63-3.6l-1.33-5.74 1.2-.3 1.43 6.15c.5 2.16-.44 4.1-2.67 4.63-2.22.52-3.93-.8-4.43-2.96L305 62.84l1.2-.27m10.66-3.04l9.26 5.6L324.2 58l1.2-.32 2.7 10.03-9.26-5.63 1.94 7.2-1.2.34-2.72-10.1m17.62 5.75l-1.18.4-3.07-9.5 1.18-.4 3.07 9.5m12.4-11.3c1.43 2.6.47 5.68-2.04 7.06-2.52 1.4-5.64.58-7.06-2a5.23 5.23 0 0 1 2.04-7.06c2.5-1.4 5.68-.5 7.06 2zm-1.08.6c-1.06-1.92-3.38-2.74-5.42-1.6-2.04 1.13-2.6 3.52-1.53 5.45 1.1 2 3.54 2.65 5.42 1.6 1.88-1.03 2.63-3.46 1.53-5.45m2.6-7.68l10.2 3.6-3.33-6.57 1.1-.56 4.68 9.25-10.2-3.6 3.36 6.63-1.1.57-4.72-9.32"/><g class="F I"><path d="M288.53 206.82c10.7 5.36 8.28 14.47 8.42 16.13" class="H"/><path d="M397.14 225.42c4.35 4.37 5.7 11.88 5.8 13.67.16 2.8.58 8.35-3.57 8.94s-7.05-.53-8.68-1.57c0-1.2-1.24-2.9-1.9-3.1-1.36-.4-1.58-.7-2.78.01-.3.34-3.18-.2-3.92-1.15-2.66-3.5-3-15.54-10.9-22.24-4.74-4.02-5.86-5.5-19.57-11.6-27.5-12.27-44.6-44.43-46.34-46.84-2.23-3.06-6.14-7.05-8.83-7.75-12.54-3.3-12.7-9.1-13.06-12.53 3.12 5.15 15.44 9.26 14.84 6.56-.42-1.9-2.04-4.93-7.12-8.34-4.44-3-4.74-7.9-6.52-8.8-1.78-.9-4-1.5-7.27-.76 5.65-11.93 19.6-4.3 19.6-4.3 3.56 3.57 6.9 7.37 9.05 8.95 2.38 1.73 3.75 4.2 14.1 6.7 13.93 2.23 23.8 4.57 27.52 5.4 1.14-2.14 1.43-17.6-.94-21.16-2.37-3.58-5.63-5.97-7.4-13.73-1.77-7.74-4.14-14.9-7.1-22.05-2.95-7.15 2.4-13.12 11.9-14 25.42-2.4 38.42 13.9 40.8 15.36" class="L"/></g><path d="M397 226.72l32.64-25.95-38.3-26.84 5.67 52.8z" class="L"/><path d="M428.76 200.3c14.72 16.63 28.8 49.7 29.37 54.04-.15 5.95-3.63 3.36-5.4 2-.07 2.76-3.94 2.74-5.87.36-.9 3.6-5.05 2.47-7.42-.6.75 3.13-4.67 3.35-6.82-.02.58 2.18-3.5 1.26-4.74-.6-.01 1.2.2 3.06-3.27.6-3.85-5.67-28.68-31.9-27.46-30.67" class="F I M"/><path d="M403.43 222.83l9.93 10.67c1.2 1.44 3.3 4.73 1.34 6.3-2.24 1.8-6.43-2.1-6.88-2.54-.75-.77-14.56-16-14.56-16s17.47 20.58 20.76 18.03c3.45-2.67-10.3-16.14-10.6-16.45"/><g class="H"><path d="M427.85 255.53c0-4.3-11.06-18.36-13.75-21.2m18.5 21.78c-1.03-7.66-10.8-21.4-13.56-24.86m20.37 24.88c-.82-5.33-8.8-21.72-12.68-26.52m20.1 27.1c-.55-3.63-10.6-24.4-15.02-29.5m21.05 29.14c.4-5.27-5.8-18.4-20.6-39.2" class="F P"/><path stroke-width="1.15" d="M428.85 254.8c0-4.34-11.12-18.46-13.83-21.32m18.6 21.9c-1.03-7.7-10.86-21.52-13.64-25m20.5 25.03c-.82-5.36-8.85-21.84-12.75-26.68M447.96 256c-.55-3.65-10.67-24.55-15.1-29.68m21.17 29.3c.4-5.3-5.84-18.5-20.7-39.42" class="B"/><path d="M424.08 205.8c.4.5 12.6 17.32 14.48 20.42 1.5 2.47 1.72 5.17.23 6.08-1.5.9-3.6-1.27-5.16-2.92-1.57-1.64-14.7-19.9-15.9-21.4-1.2-1.5 12.03 16.13 13.6 18.53 1.06 1.66 1.77 3.82.9 4.88-1.04 1.28-3.73.23-4.64-.8-.9-1.06-10.3-12.7-10.45-13-.15-.3 8.22 9.97 9.2 11.5 1.04 1.63 1.34 4.28-.75 5.7-.87.6-2.66-.44-4.75-2.2-4.55-3.83-9.5-11.1-11.83-13.04 2.54 2.27 6.36 7.36 8.82 10.13 2.5 2.8 2.9 5.26 1.26 6.32-1.64 1.05-3.66-.38-5.23-2.1-1.57-1.73-9.26-9.76-10.3-10.98-1.05-1.2 9 9.6 9.93 10.67" class="F P"/></g><path d="M305.73 160.23l6 10.02 4.44 6.68v-8.24l7.1 1.34-2-8.46 8.66 1.1-4-6.24 7.1 1.34-4.22-7.13 8 2-5.77-6.9 9.77.45-13.1-2.67-8.44-1.34-13.55 18.04z" class="M"/><g class="F"><path d="M286.57 144.4c-.67-1.26.22-.67-1.2-2.6 4.22 2.32 6.76-.8 10.53 1.88.97 1.1 2.75 3.8 2.16 4.6-.9 1.57-8.4-1.42-11.5-3.88z" class="D N"/><path d="M305.35 161.6c-2.23-3.06-6.14-7.04-8.83-7.75-12.54-3.3-12.7-9.1-13.06-12.53 3.12 5.15 15.44 9.26 14.84 6.56-.42-1.9-2.04-4.94-7.12-8.34-4.44-3-4.74-7.9-6.52-8.8-1.78-.9-4-1.5-7.27-.76 5.65-11.93 19.6-4.3 19.6-4.3 3.56 3.57 6.9 7.37 9.05 8.95 2.38 1.73 3.75 4.2 14.1 6.7" class="I J"/></g><path fill="#ffb316" d="M297.2 126.54s-1.37 6.7 1.2 11 3.44 7.44 3.55 9.6c.23 4.35-2.1 7.08-4.8 6.38-12.54-3.3-12.4-7.8-13.5-11.94 2.98 5.87 14.36 9.3 15.27 7 .48-1.2-2.04-5.52-7.12-8.92-4.44-3-4.3-6.3-5.94-8.5-1.78-1.48-4-2.1-7.56-1.92 6.68-10.5 18.88-2.72 18.88-2.72h0z"/><g class="F J"><path d="M296.9 125.6c14.1-4.46 19.3 12.38 30.12 12.4-2.53 2.37-7.93 2.36-13.66 1.18-5.8-1.2-16.46-13.58-16.46-13.58h0z" class="I"/><path d="M304 139.04c2.22 1.8 8.3-.14 8.3-.14-5.33-2.54-9.63-7.3-9.63-7.3-1.8 4.62.02 6.4 1.32 7.45z" class="E"/></g><path d="M305.27 137.22c1.13.93 4.25-.06 4.25-.06-2.72-1.3-4.93-3.74-4.93-3.74-1.45 1.52.01 3.27.68 3.83"/><g class="F I"><path d="M353.08 209.04c-3.4.56-4.02 17.57 2.94 21.98.3-1.33 2.23-1.25 3.94.74.6.73.57 2.3.2 2.53.92 2.55 3.27 3.52 6.6 3.74 4.75.3 10.02-3.87 10.32-9.54-1.78-4.78-4.93-7.6-7.42-9.75-5.25-4.57-12.67-8.07-16.6-9.7l.02.01z" class="L"/><path d="M360.48 233.42c0 2.1-4.75 3.27-1.5 6.86 3.26 3.56 2.97 3.28 5.04 4.17 2.08.9 6.24-.3 5.64 3.3-.6 3.56-5.5 2.53-7.13-.16-.78-1.27-2.97-3.87-5.94-3.13-2.57.65-2.97 1.18-4.16 3.88-1.2 2.67-2.1 4.45-4.46 2.97-2.37-1.5-.88-3 .6-4.47 1.48-1.5 2.37-2.08 2.07-3.58-.3-1.48-3.55-1.78-5.92-1.2s-4.16-2.08-2.97-3.58c1.2-1.48 4.75-1.18 6.24 0 1.47 1.2 5.03 2.7 6.52 2.1 1.48-.58 1.2-7.45 1.5-9.53.32-2.1 4.47-.17 4.47 2.38h0zm29.97 12.03c1.27 3.4-4.1 7.43-.83 11 3.26 3.6 6.66 2.35 8.9 2.1 1.34-.13 6.24-.28 5.64 3.3-.47 2.83-5.76 1.74-10.4-.01-1.4-.52-4.6-1.77-6.97-.6-2.38 1.2-2.75 2.32-3.27 5.67-.45 2.9-2.75 4.3-5.12 2.8s-1.5-2.97 0-4.47c1.5-1.47 2-4.02 1.7-5.5s-3.56-1.78-5.94-1.2c-2.37.57-4.15-2.08-2.96-3.58 1.2-1.48 4.75-1.2 6.23 0 1.5 1.2 5.05 2.7 6.54 2.1 1.47-.6 1.7-11.6 2-13.68 1.27-.84 3.58-.3 4.46 2.07v.02z" fill="#ffb30f"/></g><path d="M362.9 218.23c1.95.75 6 4.95 6.88 8.55m-7.62-2.23c1.5 1.18 3.13 3.74 3.88 6m-10.6-8.42c.3 1.35 0 2.56 1.94 4.5m26.68 9.55c.14 3.15 4.7 3.9 5 5.48"/><path d="M380.7 227.03c2 .07 5.08.9 6.05 4.35-1.5-2.84-5.3-4.22-6.05-4.35m17.8 17.67c-2.5-8.65-6.92-9.9-6.6-8.6 2.48 2.32 2.54 1.9 3.5 3.33 2.04 3 2.65 6 3.1 5.27m1.4-1.23c-.43-3.28-2-2.8-1.9-1.8.38.42.86.93 1.1 1.4.18.42.44.9.8.4m4.27 17.2c2.46-.16 3.5 2.43 3.04 3.94-1.1-2.45-2.97-2.02-3.56-1.64-.01-.01.97-1.28.52-2.3m-33.1-5.4c-2.42-.38-3.7 2.1-3.4 3.63 1.34-2.35 3.16-1.72 3.7-1.28 0 0-.83-1.36-.3-2.35m-1.32-7.93c2.4.44 2.8 3.2 2.03 4.55-.5-2.64-2.4-2.66-3.08-2.43.01 0 1.25-1.02 1.05-2.12m-28.23-8.24c-2.46-.02-3.36 2.64-2.84 4.1.98-2.5 2.86-2.18 3.48-1.83 0 .01-1.04-1.2-.64-2.27m5.58 11.45c-.9 1.57-.68 3.4-.5 4.23 1.66-2.7 2.2-2.77 2.87-2.96 0 0-1.65-.24-2.38-1.27m31.1 18.4c-.9 1.57-.68 3.4-.5 4.23 1.66-2.7 2.2-2.77 2.87-2.96.01 0-1.64-.24-2.37-1.27m-.85-50.58c-.3 1.42 1.94 1.5 2.1 3.3m-13-5.48c7 2.95 8.1-3.2 6.65-4.12l-.23-.15c2.32.9 2 10.22-6.42 4.27m-42.68-58.36c-2.92 1.25-4.73-2.65-3.65-5.08-3.86 2.87 1.28 8.14 4.43 6.5 3.83-2.02 2.1-8.06-2.3-6.05 2.9-.14 4.24 3.46 1.5 4.64m-4.54 5.2c-2.05 1.7-3.85-.47-3.9-2.53-1.6 2.8 2.43 5.46 4.74 3.62 2.67-2.16.92-7.87-4.04-5.34 4.2-.07 4.86 2.85 3.2 4.25m-6.58 5.96c-2.67.16-3.48-1.55-2.45-3.46-2.15 1.67-.5 4.96 2.5 4.84 3.62-.14 4.48-4 1.53-5.87 1.68 2.64 1.2 4.33-1.57 4.5m21.4-12.08c-1.46-.34-2.47-2-1.55-3.56-2.98 2.52.14 4.66 1.4 4.96 3.2.7 5.64-3.2 1.84-5.8 1.73 2.47.9 5.05-1.7 4.4m-14.75 18.85c-.64 2.1-3.3.85-3.8-.94-.6 3.3 4 3.64 4.76 1.3.93-2.84-1.44-4.54-3.66-2.77 2-.5 3.4.23 2.7 2.4"/><path d="M326.54 180.7c-.26 2.66-4.15 1.85-5.37-.13.17 4.08 6.4 3.26 6.74.3.43-3.62-4.77-6.44-6.6-.94 3.04-3.1 5.52-2.03 5.24.76m4.48-5.84c-.26 2.7-4.15 1.85-5.37-.13.16 4.08 6.38 3.28 6.73.33.43-3.64-4.77-6.44-6.6-.95 3.05-3.1 5.53-2.02 5.25.75m11.28-15.4c-2.44-1.1-.43-4.54 1.82-5.08-3.9-1.12-5.12 5.05-2.43 6.3 3.3 1.56 7.6-2.48 3-6 1.97 3.88.16 5.92-2.38 4.78m8.07-6c-.26 2.7-3.2 1.8-3.86.55.96 3.18 4.9 2.6 5.24-.35.43-3.6-4.76-6.44-6.6-.95 3.03-3.1 5.5-2 5.23.75m-30.26-9.04c1.05.53 1.42 3.46.67 4.22-.75.74-2.32 1.87-2.3.73 1.04-.8 1.12-1.04 1.64-1.88.52-.82.3-2 0-3.07m-3.84 10.05c1.02-.8 1.12-3.1-.14-4.6-1.27-1.46-3.4-1.56-4.44-.74-1.02.82-.82 2.66.45 4.14 1.26 1.48 3.1 2 4.13 1.2"/><path d="M315.3 153.58c.73-.57.92-2.36.02-3.4-.9-1.03-2.5-.95-3.24-.36-.74.6-.6 1.9.28 2.95.9 1.03 2.2 1.4 2.94.8" class="M"/><path d="M311.63 156.9c-1.38 1.27-3.04-.6-3.8-2.06.3 2.75 2.7 4.22 4.4 3.05 2.1-1.42 1.7-4.17-1.27-5.8 2.14 2.32 2.25 3.4.68 4.82m-2.8 4.6c1.02-.8 1.27-2.67.01-4.15-1.27-1.46-3.57-2-4.6-1.2s-.82 2.68.44 4.16c1.26 1.46 3.12 2 4.14 1.18"/><path d="M307.84 160.62c.73-.57 1.05-1.9.17-2.92-.9-1.04-2.65-1.42-3.4-.8-.74.6-.6 1.9.28 2.95.9 1.03 2.2 1.4 2.95.78" class="M"/><path d="M326.82 151.04c-1.66-.77-1.6-3.26.7-3.4-3.48-1.27-3.96 2.73-1.52 4.5 2.95 2.13 8.58-.3 4.8-3.76 1.77 3.46-1.44 3.8-3.97 2.65m3.82 6.2c-.6-.05-1.2.1-1.66.47-1.02.8-.82 2.65.45 4.13 1.26 1.48 3.12 2.02 4.14 1.2s1.27-2.66 0-4.14c-.8-.94-1.9-1.57-2.93-1.66h0zm-.14.9c.78.05 1.68.43 2.24 1.07.9 1.03.57 2.35-.17 2.95-.73.57-2.06.22-2.95-.82-.9-1.03-1.02-2.36-.3-2.93.28-.2.7-.3 1.17-.27z"/><path d="M327.2 161.73c-.7.03-1.32.24-1.76.6-1.77 1.4.03 4.23.52 4.8 1.47 1.7 3.6 2.32 4.8 1.38 1.18-.93 1.3-3.62-.17-5.3-.92-1.1-2.23-1.53-3.38-1.47h0zm.47.9c.7.04 1.43.32 1.94.9 1.03 1.2 1.43 3.48.57 4.16-.85.68-2.98.02-4-1.18-1.03-1.2-1.17-2.72-.32-3.4.43-.34 1.1-.53 1.82-.5zm10.23-15.93c-1.38.1-2.68.8-3.2 1.57-.83 1.28.05 3.25 1.98 4.42 2.3 1.38 4.18 1.02 5-.22.83-1.25.56-4.12-1.37-5.28-.72-.43-1.57-.56-2.4-.5h0zm.46.83c.4.01.8.1 1.14.3 1.36.83 2 3.17 1.4 4.06-.6.9-2.82.96-4.18.16-1.35-.84-1.97-2.24-1.37-3.14.45-.7 1.8-1.42 3.02-1.4zm25.02 54.63c2.9-.75 5.16 1.28 4.7 3.9-.45 2.64-4.5 3.22-6 1.5 2.32.44 3.67.45 4.63-1.35.98-1.8-.8-3.4-3.35-4.07m1.02-9.8c.92.85 1.77 2.84-.25 3.3-1.86.42-3.53-1.1-2.53-3.04.42 1.1.5 2.47 2.02 2.3 1.34-.17.76-2.54.76-2.54m-8.28 3.15c-.52-.6 3-2.84 5.23-.68s.43 5.5-1.8 5.27c.86-.76 2.5-2 1.38-3.9-1.14-1.95-3.6-1.2-4.8-.7m-1.7 3.6c2.4-1.02 8 2.7 3.88 6.35-4.13 3.64-7.85-1.47-7.84-3.5 1.62 1.96 4.96 4.45 6.87 2.53 1.8-1.78.66-3.73-2.9-5.37m9.16-32.83c1.14-.36 3.44.32 3.2 2.34-.22 2.02-1.72 3.2-3.5 2.7-1.8-.5 2.32.3 2.25-2.62-.1-2.93-2.4-2.26-1.95-2.4m-3.83 8.1c.52-1.7 5.25-3.95 6.98.05 1.7 4-1.3 5.77-4.76 3.52 2.7.92 5.27-.2 3.9-2.75-1.7-3.1-4.4-1.74-6.1-.8m-8.7-3.25c-.96.04-1.94.5-2.58 2.05-1.28 3.1 2.86 4.8 4.14 5.12 1.27.32 3.9.54 5.08-1.5 1.7-2.93-2.84-4.97-4.23-5.25-.52-.1-1.45-.47-2.4-.43zm1 1.46c.47.03.87.13 1.1.17 2.37.4 4.23 1.94 3.07 3.3-1.17 1.4-3.27 1.3-3.9 1.07-.64-.2-3.72-1.82-2.65-3.43.65-1 1.6-1.16 2.38-1.1zm3.45 14.66c-.65.02-1.3.33-1.75 1.38-.86 2.08 1.94 3.25 2.8 3.47s2.65.35 3.44-1c1.15-2-1.92-3.35-2.86-3.54-.36-.07-.98-.33-1.63-.3zm.36 1c.45-.04.87.07 1.08.1 1.6.27 2.86 1.3 2.07 2.24-.8.93-2.2.87-2.65.72-.43-.15-2.52-1.23-1.8-2.3.36-.54.85-.7 1.3-.75zm-6.23 2.5c.56-.8 4.04-.4 4.86 1.88.73 1.97-.67 5.1-3.97 5.26 2.4-1.35 3.07-3.46 2.63-4.6-.64-1.6-1.87-2.18-3.52-2.55m-7.1 5.04c2.23-.95 8.52 3.45 4.7 6.82-3.82 3.38-7.25-1.35-7.25-3.24 1.4 2.73 4.66 4.17 6.35 2.34 2.1-2.26.01-4.66-3.8-5.92m15.4-14.9c-.96.04-1.94.5-2.58 2.05-1.28 3.1 2.86 4.8 4.14 5.12 1.28.3 3.9.54 5.08-1.5 1.7-2.93-2.83-4.96-4.23-5.25-.52-.1-1.45-.47-2.4-.43zm1.02 1.45c.47.03.87.12 1.1.16 2.37.4 4.23 1.92 3.06 3.3-1.17 1.4-3.27 1.28-3.92 1.07-.63-.2-3.7-1.82-2.65-3.43.66-.98 1.62-1.14 2.4-1.1zm-3.84-15.54c-.47.03-.96.34-1.28 1.4-.64 2.14 1.42 3.3 2.04 3.52.63.22 1.95.37 2.53-1.03.83-2-1.4-3.4-2.1-3.58-.25-.07-.7-.33-1.2-.3zm.55 1.15c.24-.03.42.05.58.1 1.18.3 2.03 1.17 1.44 2.12-.58.97-1.62.88-1.94.76-.3-.15-1.84-1.45-1-2.36.4-.42.7-.57.93-.6h0zm2.45-1.67c-.03-.6-.9-4.07 2.7-3.68 3.6.38-2.76-1.66-3.6.23-.8 1.86.98 4.64.9 3.45m2.32-6.22c.6-.93 1.95-3.1 5.6-1.2 2.02 1.07-.14-2.16-2.6-2.1-3.3.1-4.12 5.03-3 3.3"/><path d="M351.6 178.9c1.17-.5 4.7 3.02 2.46 5.4-2.24 2.4-7.1-.44-6.5-4.88.67 3.77 3.98 5.45 5.3 3.77 1.33-1.74-.07-3.32-1.27-4.3m-2.7 10.7c2.17-.2 2.54-3.72.82-4.93-1.7-1.2-4.78-1.05-5.08 2 1.2-1.78 3.1-2.12 4.26-1.04 1.04 1 1.4 2.56-.02 3.97m-8.5 4.75c2.07 1.65 5.38-1.08 4.9-3.6-.48-2.5-3.27-4.98-6.13-2.57 2.56-.56 4.5.8 4.6 2.7.1 1.74-.92 3.44-3.36 3.46m-7.32.5c3.04.26 4-3.56 2.33-5.83-1.6-2.17-6.38-2.26-6.5 1.7 1.53-3.5 4.22-2.4 5.5-.73 1.16 1.52 1.42 3.84-1.33 4.87m-1.88-12.52c1.4-.67 5.75.46 4.78 3.82-.97 3.38-4.1.3-4.5-1.5.75.92 3.2 3 3.52 1.12.42-2.6-1.72-3.2-3.8-3.43m6.7-1.4c1.5-.7 6.04.48 5.02 4.03-1.03 3.56-4.33.32-4.72-1.57.8.94 3.38 3.16 3.7 1.18.44-2.73-1.8-3.4-4-3.64m8.14-3.52c-.3 3.1-3.2 2.5-4.83 1.36 2.07 3.32 6 2.3 6.42-1.13.5-4.2-4.08-7.1-7.65-2.58 4.68-2.1 6.38-.85 6.06 2.35"/><path d="M346.53 169.53c.64 2.1-.08 3.32-2.8 2.65 2.64 2.66 5.6-.04 4.3-3.23-1.6-3.92-5.97-2.98-6.46.16 1.1-2.08 4.3-1.82 4.98.42m2.02-4.93c.8 1.16.52 2.38-.5 3.15.86.8 3.6-1.17 1.78-4.1-1.77-2.92-5.33-1.7-5.3.18 1.8-1.03 2.72-1.15 4.03.77m6.22-2.96c-.36 1.35-1.4 1.8-3.14 1.56.62 1 3.64 2.06 4.7-1.23 1.05-3.25-3.57-5.73-6.03-3.23 2.98-.5 5.08.63 4.46 2.9m.3-7.3c.3-1.38 1.33-1.86 3.07-1.7-.65-1-3.72-1.9-4.63 1.4-.9 3.3 3.8 5.6 6.15 2.98-2.95.63-5.1-.42-4.6-2.7m-19.14 19.83c-.47.03-.96.34-1.28 1.4-.63 2.13 1.42 3.28 2.06 3.5.63.24 1.94.37 2.52-1 .85-2.02-1.4-3.4-2.1-3.6-.26-.08-.73-.33-1.2-.3zm.55 1.15c.24-.03.43.06.58.1 1.17.27 2.02 1.15 1.44 2.1-.57.95-1.62.87-1.94.72-.3-.13-1.83-1.42-1-2.33.4-.43.68-.58.93-.6zm-1.64-7.7c-.55.03-1.1.4-1.48 1.6-.74 2.47 1.65 3.8 2.38 4.07.74.26 2.25.44 2.92-1.2.98-2.33-1.63-3.94-2.42-4.14-.32-.08-.86-.38-1.4-.35zm.63 1.35c.28-.04.5.06.67.1 1.36.32 2.34 1.35 1.67 2.46-.68 1.1-1.88 1-2.25.84-.37-.18-2.12-1.68-1.17-2.72.45-.48.8-.65 1.08-.7zm4.76-2.9c-2.28 1.88-3.97-.2-4.03-1.26-.7 2.76 2.54 4.22 4.87 2.35 2.85-2.27 1.93-6.72-2.53-5.86 3.25.72 3.82 3 1.7 4.77m-15.62 3.56c-.23 2.44-2.2 2.44-3.9 2.15 2.22 2.24 4.77.73 5.06-1.97.37-3.33-3.5-4.8-5.02-1.93 2.18-1.28 4.1-.77 3.85 1.75M341 94.64c-.7 1.74-1.93 2.43-4.3 1.86 2.12 1.58 4.67.4 4.95-1.72.3-1.34-1.18-3.96-4.56-3.05 3.05.1 4.04 2.3 3.92 2.9m11.45-12.03c-1.1 2.47-5.94 2.7-9.27 1.9 3.23 2.42 9.55 2.32 10.6-1.37.44-2.04-.55-5.68-5.7-4.27 4.34.16 4.65 2.35 4.38 3.74"/><path d="M342.38 86.3c-1 2.2-2.73 2.73-6.05 1.93 3.23 2.42 6.5.76 7.05-1.73.44-2.02-.55-5.66-5.7-4.25 4.34.13 4.98 2.65 4.7 4.05m6.76 14.65c-.36-3.13-5.3-3.8-8.87-3.12 3.97-2.08 9.8-.44 9.9 3.16.1 3.62-3.05 6.3-7.74 3.76 4.24.83 7.08-.65 6.72-3.8m12.5-16.25c-.2 1.8-3 1.8-4.5 1.45 2.03 1.5 4.75.68 5.12-1.33.36-2-1.13-3.78-4.34-2.9 2.9.1 3.92.96 3.7 2.78m7.17 2.25c-.25 2.33-3.9 1.95-5.8 1.5.45.34-.52.45.03.66 2.65 1 6.12.5 6.54-2 .43-2.56-1.43-4.8-5.52-3.7 3.68.14 5 1.2 4.74 3.53"/><path d="M363.77 91.5c-.25 2.3-3.4 4.16-7.77 3.58 5.36 1.76 8.1-.86 8.56-3.4.47-2.55-2.58-5.12-6.67-4.03 3.67.12 6.13 1.54 5.88 3.86m1.93 2.87c4 .06 6.36 1.9 4.63 3.78s-5.34 1.25-5.97 1.18c.95.86.86 2.13-.4 3.54-.83.92-2.2.94-3.77.4.94 1.02 1.66 2.03.78 3.77-1.18 2.38-5.8 1.43-6.43.72.16 1.33-.4 2.33-1.18 2.9-1.17.87-3.46 1.2-4.16.38 2.35-.2 3.4-.66 4.24-2.36.47-.92-.47-1.88-1.9-3.06 2.13 1.27 6.68 3 8.4.7.7-.92.55-3-4.16-4.88 2.28.8 6.26 1.7 7.54.4 1.26-1.27.08-3.33-3.76-4.34 3.06.7 8.86 2.2 9.73.23.72-1.62-.3-2.53-3.6-3.4M350.62 93c-1 2.18-6.04 2.5-9.35 1.03 3.4 2.93 9.8 1.68 10.35-.84.44-2.02-.55-5.66-5.7-4.25 4.34.13 4.97 2.68 4.7 4.06m.52 28.24c-.2 2.66-3.92 2.6-6.1 2.1 2.96 2.22 7.25 1.03 7.48-1.94.3-3.98-4.63-6.22-9.34-4.92 4.23.13 8.27 1.07 7.97 4.75m4.73 8.64c-.22 2.67-3.92 2.66-6.13 2.13 2.96 2.22 7.26 1.05 7.5-1.93.3-3.98-4.63-6.23-9.35-4.95 4.24.14 8.28 1.08 8 4.75m4.1 8.28c-.2 2.4-3.37 2.46-5.36 2 2.67 2 6.18.88 6.76-1.74.7-3.24-2.02-5.14-6.22-3.6 4.02-.16 5.05.6 4.82 3.34"/><path d="M359.8 146.57c-.26 2.67-3.92 2.65-6.1 2.1 2.96 2.2 7.12 1.05 7.48-1.94.43-3.6-2.64-5.82-7.36-4.55 4.24.15 6.27 1.6 6 4.38m7.38-11.96c-2.74 1.94-5.9.57-6.67-1.7-.72-2.14 2.63-2.4 5.13-2.85-.5-.12.13-.4-.34-.48-3.34-.6-6.73.8-6.18 3.66.63 3.26 5.44 5 8.67 1.93-.45.22-.24-.8-.6-.56m-2.7-9.17c-3.44 2.77-6.7.3-7.3-1.7-.56-1.88 2.52-3.14 4.77-3-.34-.07-.04-.4-.37-.44-2.94-.24-6.26 1.2-5.77 3.7.66 3.42 5.55 5.18 8.94 1.94-.25.1-.08-.66-.27-.5m-4.5-10c.94 3.32-1.27 3.8-3.56 3.55-2.47-.27-3.26-1.45-2.1-2.65-.01-1.05-.34-.54-.53-.38-2.34 2.05.7 3.8 2.67 4.02 3.05.33 5.24-1.16 3.94-4.58.01.2-.48-.13-.42.04m-11.47-2.76c-.22 2.67-3.34 1.94-5.8 1.8 2.78 1.97 6.94 1.26 7.17-1.7.3-4-4.25-5.68-8.97-4.38 4.24.13 7.88.6 7.6 4.28m28.95-17.7c-.05.34-1.92.94-1.92.94-1.58.35-2.9.03-3.6-.1.73.54 1.7.8 2.64.82l3.57-2c.36-2-2.23-3.93-5.45-3.05 2.9.1 5.1 1.05 4.75 3.4m-7.42 56.82c-.22 2.2-3.25 2.18-5.06 1.75 2.45 1.83 5.9.86 6.2-1.6.35-3-2.18-4.84-6.08-3.76 3.5.1 5.17 1.3 4.95 3.6"/><g class="F"><path stroke-width="1.08" d="M336.96 144.33c16.83 3.1 25.05 6.87 32.5 11.9" class="H"/><path d="M367.52 159.63c5.65-7.57 3.43-17.73 2.7-21-.74-3.28-2.74-7.67-4.44-10.3-5.14-7.87-7.1-14.45-5.17-21.02 1.93-6.55 15.73-11 21.1-14 5.35-2.98 6.83-5.8 15.52-9.98 13.04-6.25 23.38-3.4 43.87-.42 20.48 3 56.4 19.72 65.28 25.4 8.9 5.67 3.2 8.94.3 8.34 5.43 2.06 8.18 6.6 8.06 9.57-.14 3.2-2.6 3.7-12.23.26 5.6 3.67 4.18 7.48-1.5 6.68-6.88-.34-19.06-4.62-22.25-6.68 2.8 3.47 2.9 5.75 1.05 7.53-4.37 2.04-8.93-.3-16.78-2.17 4.22 10.36-7.95 8.1-12.18 5.65 1.18 8.12-6.46 7.82-11.28 5.65 3.85 3.05 14.23 18.2 16.3 21.77 1.74 3.5 4.24 12.68-6.65 1.7-3.53-3.54-.46.27-6.87-7.75 6.22 7.72 3.56 3.87 7.33 8.64 8.07 10.23 8.5 12.37 6.46 14.4-3.1.45-6.82-3.16-21.74-20.46 18.87 23.4 9.07 21.28 7.44 20.54-1.75-.78-9.06-6.98-14.1-12.13l-1-.95c1.2 1.57-1.05-.38 0 .96 1.3 1.7 2.2 4.5.23 6.46-1.1 1.1-3.4.83-4.34-.07-3.06-2.95-11.06-7.96-13.14-9.7 3.88 3.2 10.76 7.5 13.14 9.7 3.4 3.1 5.4 6.66 3.43 9.22-.97 1.26-4.18 1.14-6.35-.76-.55-.47-8.73-6.3-11.5-8.47l15.08 11.25c3.06 2.62 7.82 9.47 6.27 11.78a2.34 2.34 0 0 1-.91.81c-2.13 1.1-5.92-.8-7-1.7-1.27-1.05-11.66-8.84-15.24-11.5l14.94 11.28c2.24 1.6 3.88 8.34 1.7 9.66-2.16 1.35-3.58.68-5.46-.22-1.86-.9-8.66-6.75-12.77-9.98 3.36 2.7 10.75 8.34 12.32 9.9.84.84 5.45 7.28 2.68 9.37-1.7 1.3-5.67.9-8.52-.97-1.4-.93-4.1-3.14-5.98-4.13" class="I L"/></g><path d="M365.15 120.33c-1.24-2.67-.97-7.47-.33-9.63 1.94-6.57 15-10.72 20.35-13.7 5.36-2.98 6.84-5.82 15.53-10 13.04-6.24 23.53-4.15 44-1.16 11.2 1.66 27.24 7.05 40.6 13.2-13.88-5.64-27.93-10.97-40.86-12.64-14.32-1.84-28.6-5.98-43.4 1.13-9.03 4.36-11.54 7.77-15.58 10.03-4.03 2.23-18.16 8.23-19.52 13.35-1.35 5.1-.13 5.55.15 7.04.35 2.02.06 2.9-.94 2.37m24.25 70.88c2.7 2.2 8.66 4.74 9.86 2.5 1.2-2.23.68-3.9-3.35-6.6 3.2 2.1 10.1-.74 3.3-7.04 8.14 3.84 9.12-5.02 4.8-7.88 4.62 1.8 7.77-4.04 2.4-7.8 3.52.82 7.7-1.86 2.62-6.68 9.2 6.1 15.62 4.14 13-2.3 10.25.53 3.53-7.9-4.84-12.45 10.1 3.68 14.73-4.06 7.86-6.32 8.07.23 10.32-5.98 1.95-8.23 5.76.3 13.83-5.34 3.07-8.63 23.17 9.4 32.44 3.08 21.47-3.83 3.27.6 9.5-8.1-2.46-9.15 6.42 1.73 18.83-5.9 2.84-9.68 0 0-14.86-3.68-20.93-4.6.53.67 18 4.52 20.92 5.42s6.58 3 5.6 5.26c-.97 2.24-4.57 3.53-9.5 2.6l-17.05-3.24 17.2 4.73c1.42.4 7.28 2.04 6.58 4.68-.83 3.06-3.9 2.92-6.06 2.77s-16.15-3.62-17.94-3.9c-1.8-.3 18.76 5.1 19.66 5.7s4.64 2.95 4.18 4.8c-.45 1.88-7.7 2.1-11.58 1.13l-31.54-7.98c2.32.75 16.15 5.04 17.86 5.88 1.72.82 5.6 1.94 4.94 3.9-.68 1.97-6 3.6-8.08 3.22-2.1-.36-22.12-4.9-25.2-5.48 2.92.97 24 6.15 25.42 6.9 1.42.76 5.3 2.65 4.48 4.2-.83 1.58-3.07 2.86-6.58 2.18-3.52-.68-21.83-6.1-23.7-6.55 3.2 1.36 22.2 7.6 23.4 8.5 1.2.93 3.96 2.1 2.54 3.77-1.42 1.63-6.65 1.4-8.9.88-2.24-.5-18.45-5.56-20.25-6.1s17.16 6.94 18.82 7.82c3.6 1.9 11.2 8.35 9.42 9.68-2.47 1.85-5.3.45-5.83.22-.53-.2-21.36-9.3-22.34-9.9 2.62 1.14 22.12 10.75 23.16 11.96 1.04 1.17.66 3.67-.68 4.35-1.35.66-4.65-.06-8.6-2.1-4.33-2.26-15.76-6.24-18.9-6.24 2.92.68 13.46 4.88 15.7 6.7 1.86 1.5 2.76 3.53 1.78 4.35-.97.82-3.28 1.02-4.78.36-1.5-.68-8.52-4.2-13.37-5.56 3.44 1.64 11.52 5.97 13.15 7.13 2.1 1.52 3.65 4 2.9 5.34-.75 1.35-3.14 1.56-4.8.9-1.64-.68-17.26-7.67-18.9-8.33-1.65-.7 17.03 8.4 18.53 9.83 1.48 1.43 3.5 4.8 2.45 6.24-1.04 1.43-3.9 1.48-6.27.22-2.8-1.5-13.6-8.12-15.1-9.33 2.1 1.6 14.05 10.2 15.1 11.72 1.03 1.5 2.67 3.84 1.56 4.8-1.13 1-4.62.3-5.46-.4-.8-.65-13.8-9.45-15.16-10.26 3.07 2.75 14.05 11.84 15.32 12.9s4.26 4 2.9 4.96c-1.35 1-6.5-1.85-7.55-2.32-1.04-.45-3.2-1.03-3.65-1.35-.45-.3 3.65 2.94 2.15 4.13-1.44 1.18-1.5.68-3.13.92 1.64 1.2 6.13 5.1 3.58 7.05-2.53 1.93-7.7-1.66-8.06-2.4s2.24 3 .6 4.27c-1.65 1.28-4.33-.44-4.7-.82-.37-.37 2.54 1.8.82 3.6s-2.9-.37-3.37-.82c-.2.52-.08 2.17-1.65 2.17-1.12-.02-1.77-1.13-2.38-1.8.07.52.8 3.5 2.7 3 1.1-.3 1.72-1.05 1.7-1.66.67.75 2.84 1.35 3.66.53.82-.83.9-2.4.52-3 1.12.7 2.47.54 3.5-.06 1.05-.6.98-2.4.6-2.94 1.05 1.12 5.4 3 7.4.23 2.02-2.76-1.42-5.84-2.3-6.52.82.22 3.73-1.55.97-4.04"/><path d="M428.07 83.78c9.57.6 13 3 12.18 6.76-.58 2.63-3.9 2.7-5.68 2.4 2.68 1.64 2.3 3.6 2.08 5.56-.3 2.7-2.92 3.98-5.68 4.03 1.72.53 4.64 2.27 4.18 4.82-.56 3.2-2.84 3.6-4.04 3.6 1.58.6 4.1 1.73 3.22 5.2-.9 3.45-3.75 3.52-8.98 2.25 4.7 1.35 8.07-.97 8.08-2.64 0-1.65-1.04-3.75-3.13-4.05-2.1-.3-20.26-5.25-21.46-5.25 3.2.3 19.13 3.47 20.34 3.6 1.2.17 4.3-.6 4.56-2.1.45-2.7-1.94-4.2-3.88-4.65l-18.02-4.2 16.3 2.33c2.84.17 7.03-.67 7.17-2.98.1-1.4-.6-4.14-2.24-4.9-1.64-.75-11.5-3-16.44-2.7 6.36-.3 13.22.9 16.37 1.22 3.14.3 5.85-.6 6.06-1.94.38-2.56-2.24-5.4-10.97-6.32m54.77 12.88c17.04 7.65 30.25 13.76 28.16 17.95-1.12 2.24-3.32 1.83-4.36 2 6.3 2 9.06 8.53 7.57 11.22-1.42 2.57-10.76-1.14-11.74-1.4 2.16 1.1 5.67 4.47 2.1 6.43-3.6 1.95-22.65-4.07-25.84-6.43 1.48 1.3 3.12 4.3 1.78 6.7-2.34 4.15-15.26-.9-17.5-1.34 1 2.4 1.35 5.76-.82 6.9-3.6 1.85-8.6-.02-11.28-1.06.3 1.7.01 5.5-3.07 6.37-2.4.7-6.86.2-9.2-1.57-4.7-2.7-15.54-6-18.44-7.73 2.83.9 17.4 6.1 18.75 6.52 3.58 1.22 7.8 1.76 9.2.84 1.34-.9 2.02-4.7-.37-5.63l-24.44-9c-1.93-.6 25.04 7.6 27.13 8.36 2.1.74 9.2 2.98 10.62 1.43 1.64-1.8 1.05-6-1.34-6.9s-28.6-9.85-31.46-10.9c3.73 1.05 34.05 10.45 36 10.98 1.13.3 12.2 3.6 13.83 2.26s1.05-4.7-1.94-6.52-23.24-9.55-27.12-10.75l30.4 10c2.84 1.03 18.15 6.44 21.15 6.3 5-.23 4.5-2.85-.37-5.4-3.14-1.65-41.16-16.1-51.18-19.55 8.15 2.4 47 15.63 52.46 17.6 4.6 1.66 10.52 3.77 11.2 1.9 1.73-4.74-6.04-8.64-9.03-9.86-3-1.18-22.42-9.32-52.9-19.24 16.9 2.86 52 17.8 54.4 18.2 1.63.26 5.68.42 4.86-2.47-.48-1.6-2.86-4.22-27.22-16.18"/><path d="M437.37 141.4c2.84.53 17.3 21.17 18.48 23.5 1.16 2.34 2.5 5.8 1 6.7s-5.83-1.5-8.67-4.66c1.06.74 1.73 2.1 4.86 3.84 1.24.66 7.15 9.72 3.68 11.7-3.47 2.02-8.93-4.6-10.4-6.4l-6.34-7.73c-.75-.74 9.7 12.47 5.52 14.33-3.6 1.6-8.67-3.3-10-4.33-1.34-1.06-17.85-17.44-16.13-17.6.75-.6 15.16 14.95 17.25 16.6 2.1 1.65 5.45 5.03 7.85 4.28 2.4-.74-1.56-6.97-2.24-7.95-.67-.98-11.87-17.3-13.28-18.85 3.13 3.7 16.36 17.34 18.07 19.38 1.72 2.02 6.64 8.57 8.74 6.9 2.08-1.64-3.6-10.28-5-11.85-4.03-3.02-16.57-19.7-20-24.25 6.57 6.82 18.2 20.2 19.33 21.48 1.12 1.26 4.85 4.65 5.9 3.98 1.05-.7-1.05-5.55-1.85-6.6l-16.72-22.44m-36.8-43.33c2.3.83 8.5 2.1 7.3 6.3-.82 2.92-5.23 1.72-6.43 1.88 1.27.9 1.64 2.54.52 4.36-1.2 1.95-5 2.24-7.03 1.48 1.94 1.14 3.05 2.6 2.1 4.5-.9 1.8-2.92 1.66-4.4 1.65 1.58.8 3.9 2.24 2.6 5.02-.9 1.95-1.64 1.43-3 1.73 1.42.3 3.22 1.28 3 3.74-.17 1.9-1.05 2.7-2.84 3.16.9.44 2.1 2.26 1.7 4.43-.35 2.03-2.16 3.37-3.66 3.52.75.6 1.9.85 1.35 3.6-.38 1.88-1.65 2.4-3.14 2.56.97.52 2.43 1.73 1.94 4.5-.38 2.1-2.84 2.7-4.04 2.56-1.2-.17-5.67-.9-6.88-1.36 2.03-.2 5.54.15 7.04.15 1.5.01 2.48-.3 2.68-1.5.3-1.64-.6-3-1.5-3.44-.9-.45-3.28-1.5-5.08-1.96 2.17-.07 3.97.53 5.08.32 1.12-.24 2.7-.68 2.84-2.13.16-1.4.1-1.85-1.27-2.45-1.34-.6-3.35-1.14-6.05-1.73 2.24.15 4.63 0 5.98.01 1.35-.02 3.15-1.6 3.3-2.64.14-1.06.23-2.85-1.72-3.75-1.3-.6-6.2-.6-7.62-1.13 2-.6 6.65-.14 7.7-.3 1.04-.14 2.4-.66 2.76-2.47.2-1.03-.74-2.17-1.94-2.63l-8-2.7c1.95-.23 5.68.97 7.17.82 1.5-.15 2.83-.73 3-1.8.22-1.42-.9-2.62-2.4-3.38l-6.2-3.3c3.5.53 5.3 1.42 6.8 1.43 1.5-.01 3.37-.08 3.66-1 .3-.9.16-1.87-.9-2.76-1.05-.9-5.68-4.13-7.1-5.43 3.5 1.05 4.78 2.3 6.42 2.87 2.47.82 5.9.22 6.5-1 .6-1.2.74-2.3-.6-3.14-1-.6-6.8-2.86-8.74-3.98 4.18.82 6.35 1.73 8.3 2.18 1.25.28 6.27 1.05 6.95-.9.5-1.56-.68-3.22-6.2-5.94m7.68-2.45c-2.38-2.94-6.05-.6-3.37 2.8-.97-3.4.67-4.2 3.37-2.8m-10.56-3.9c4.16 2.22 7.33-1.83 3.56-4.62-.24-.17-.23.47-.54.3 2.52 2.82 1 4.67-3.02 4.3m-6.67 8.85c5.37 2.85 9.37-2.88 3.3-6.24 3.53 4.42 1.6 6.7-3.3 6.24M375.78 109c5.36 2.85 14.38-4.37 8.28-7.7 3.54 4.4-3.4 8.15-8.28 7.7m4.28 1.08c1.04 1.42 1.93 6.4-3.6 6.45 1.8 1.05 2.68 2.03 2.4 3.47-.46 2.16-2.2 2.03-3.74 2.54 3.88 1.35 7.77 1.88 3.5 6.67 5-2.54 2.63-5.78-.52-6.53.67-.38 3.37-3.15 1.27-5.78 1.73-.15 4.34-4.86.68-6.82"/><use xlink:href="#G"/><path d="M370.56 126.28c2.54-.35 5.82-.5 5 4 2.17-.53 5.9 1.87 3.3 5.1 1.5.98 3.06 3.76.6 5.62 1.8 2.84 2.17 4.82.07 5.94.75 3 2.6 6.15-3.06 7.96 2.75-1.2 3.43-4.36 2.3-5.94-1.12-1.56-.9-1.42-2.54-2.17 2.1-.9 3.3-.38 3.3-3.1.01-.93-1.05-2.38-2.6-2.85 2.23-.67 2.3-1.35 2.1-2.93-.2-1.57-2-2.47-2.68-2.53.9-.4 3-1.73 1.86-3.23-1.27-1.7-3.5-.67-5-.38 1.12-1.2 1.64-3 .97-3.7-.65-.67-3.05-1.87-3.56-1.8m3.04 34.33c1.35-.47 6.73.08 5.82 5.5-.9 5.4-.22-1.8-2.15-3.62-1.56-1.44-4.72-1.5-3.67-1.88m23.1 65.17l-5.1-5.94 5.8 5.3-.72.63m-15.44-10.3c3.15 1.13 5-.14 4.2-3.08 3 2.1 5.9 1.38 5.83-2.54 3.74 1.36 4.87-.45 4.12-3.6 7.23.7 5.74-4.8 3.5-6.9 2.24 2.1 3 6.75-4.26 6.08.74 3.13-.4 4.95-4.1 3.6.08 3.9-2.84 4.66-5.84 2.54.82 2.93-.3 5.03-3.45 3.9m18.1 4.9c-.3.8-1.8 2-5.1-.18 2.62.45 3.33.73 4.04-.67 1.2-2.4-3.2-5.48-3.2-5.48 1.36.52 5.68 2.78 4.27 6.33m5.24-8.2c-1 1.27-2.56 1.88-5.4.15 2.6.43 3.63.42 4.33-.96 1.2-2.4-1.12-4.67-1.12-4.67 1.36.54 3.6 1.94 2.18 5.48m-18.97-24.03c.6.05-1.88 1.05-1.13 2.1.75 1.06.45 1.27 1.27 1.42s-2.46.36-2.54-1.13c-.06-1.5.75-2.55 2.4-2.4M382 193.9c.15.76-1.8 5.86-6.73 1.88-3.83-3.1-.07-6.15 3.3-5.26-.75.23-5.16.6-2.1 4.28 2.3 2.77 5.16.15 5.53-.9m-8.37.98c.68.98 2.04 3.25.45 4.97-.97 1.05-2.92.74-4.1.14 0 .8-3.43 4.33-5.3-.83.75.52 2.24 1.8 3.44 1.2 1.42-.7.9-2.1.68-2.63s2.88 2.46 4.48 1.13c1.7-1.42.37-4 .37-4m-3.13-30.98c-.2-1.1 7.02 2.2 5.07 5.95-1.94 3.74-6.2.6-6.73-.22-.5-.84 3.72 1.76 5.1.06 1.87-2.34-3.3-4.87-3.43-5.8m3.34 10.07c.97.46 3.6 5.55-2.1 6.1-5.68.52-3.35-5.78-2.53-6.3s-1.8 5.18 2.46 4.66c4.26-.53 2.17-4.45 2.17-4.45"/><path d="M367.67 179.37c-.9.03-1.83.46-2.43 1.9-1.2 2.93 2.7 4.54 3.9 4.83 1.2.3 4.2.82 5.3-1.1 1.6-2.76-3.2-4.96-4.5-5.2-.5-.1-1.38-.46-2.28-.42zm1.03 1.36c.44.02.82.12 1.04.16 2.23.37 4.5 2.12 3.4 3.42-1.1 1.3-3.6.9-4.2.7-.6-.22-3.5-1.7-2.5-3.2.64-.95 1.54-1.12 2.27-1.07h0z"/><path d="M370.72 186.33c1.57.53 4.55 6.75-2.33 6.6-6.88-.16-4.1-4.96-2.68-6.32.14.76-3.02 5.3 2.68 5.05 4.87-.24 2.48-4.36 2.33-5.34m6.3-2.77c-.63-.06-1.34.16-1.9 1.52-.9 2.16 1.43 3.2 2.32 3.44.9.23 2.7.46 3.5-.95 1.2-2.07-1.93-3.58-2.9-3.78-.27-.06-.63-.2-1-.23zm.72 1.08l.38.07v-.02c1.66.28 2.9 1.44 2.1 2.4-.82 1-2.24.84-2.7.68-.44-.15-2-1.13-1.27-2.25.55-.85 1.07-.93 1.5-.88h0z"/><g fill="#c88e44"><path d="M387.08 189.32c2.7 2.2 8.66 4.74 9.86 2.5 1.2-2.23.68-3.9-3.35-6.6 3.2 2.1 10.1-.74 3.3-7.04 8.14 3.84 9.12-5.02 4.8-7.88 4.62 1.8 7.77-4.04 2.4-7.8 3.52.82 7.7-1.86 2.62-6.68 9.2 6.1 15.62 4.14 13-2.3 10.25.53 3.53-7.9-4.84-12.46 10.1 3.68 14.73-4.06 7.86-6.3 8.07.23 10.32-5.98 1.95-8.23 5.76.3 13.83-5.34 3.07-8.63 23.17 9.4 32.44 3.08 21.47-3.83 3.27.6 9.5-8.1-2.46-9.15 6.42 1.73 18.83-5.9 2.84-9.68 0 0-14.86-3.68-20.93-4.6.53.67 18 4.52 20.92 5.42 2.92.9 6.58 3 5.6 5.26-.97 2.24-4.57 3.53-9.5 2.6l-17.05-3.24 17.2 4.73c1.42.4 7.28 2.04 6.58 4.68-.83 3.06-3.9 2.92-6.06 2.77s-16.15-3.62-17.94-3.9c-1.8-.3 18.76 5.1 19.66 5.7.9.6 4.64 2.95 4.18 4.8-.45 1.88-7.7 2.1-11.58 1.13l-31.54-7.98c2.32.75 16.15 5.04 17.86 5.88 1.72.82 5.6 1.94 4.94 3.9-.68 1.97-6 3.6-8.08 3.22-2.1-.36-22.12-4.9-25.2-5.48 2.92.97 24 6.15 25.42 6.9 1.42.76 5.3 2.65 4.48 4.2-.83 1.58-3.07 2.86-6.58 2.18-3.52-.68-21.83-6.1-23.7-6.55 3.2 1.36 22.2 7.6 23.4 8.5 1.2.93 3.96 2.1 2.54 3.77-1.42 1.63-6.65 1.4-8.9.88-2.24-.5-18.45-5.56-20.25-6.1s17.16 6.94 18.82 7.82c3.6 1.9 11.2 8.35 9.42 9.68-2.47 1.85-5.3.45-5.83.22-.53-.2-21.36-9.3-22.34-9.9 2.62 1.14 22.12 10.75 23.16 11.96 1.04 1.17.66 3.67-.68 4.35-1.35.66-4.65-.06-8.6-2.1-4.33-2.26-15.76-6.23-18.9-6.24 2.9.68 13.46 4.87 15.7 6.7 1.86 1.5 2.76 3.53 1.78 4.35-.97.82-3.28 1.02-4.78.36-1.5-.68-8.52-4.2-13.37-5.56 3.44 1.64 11.52 5.96 13.15 7.13 2.1 1.52 3.65 4 2.9 5.34-.75 1.35-3.14 1.56-4.8.9-1.64-.68-17.26-7.67-18.9-8.33-1.65-.7 17.03 8.4 18.53 9.83 1.48 1.43 3.5 4.8 2.45 6.24-1.04 1.43-3.9 1.48-6.27.22-2.8-1.5-13.6-8.12-15.1-9.33 2.1 1.6 14.05 10.2 15.1 11.72 1.03 1.5 2.67 3.83 1.56 4.8-1.13 1-4.62.3-5.46-.4-.8-.65-13.8-9.45-15.16-10.26 3.07 2.75 14.05 11.84 15.3 12.9 1.27 1.05 4.26 4 2.9 4.96-1.35 1-6.5-1.85-7.55-2.32-1.04-.45-3.2-1.03-3.65-1.35-.45-.3 3.65 2.94 2.15 4.13-1.44 1.18-1.5.68-3.13.9 1.64 1.2 6.13 5.1 3.58 7.05-2.53 1.93-7.7-1.66-8.06-2.4s2.24 3 .6 4.27c-1.65 1.28-4.33-.44-4.7-.82-.37-.37 2.54 1.8.82 3.6s-2.9-.37-3.37-.82c-.22.52-.08 2.17-1.65 2.17-1.12-.02-1.77-1.13-2.38-1.8.07.52.8 3.5 2.7 3 1.1-.3 1.72-1.05 1.7-1.66.67.75 2.84 1.35 3.66.53.82-.83.9-2.4.52-3 1.12.7 2.47.53 3.5-.06 1.05-.6.98-2.4.6-2.94 1.05 1.12 5.4 3 7.4.23 2.02-2.76-1.42-5.84-2.3-6.52.82.22 3.73-1.55.97-4.04"/><path d="M425.75 81.88c9.57.6 13 3 12.18 6.76-.58 2.63-3.9 2.7-5.68 2.4 2.68 1.64 2.3 3.6 2.08 5.56-.3 2.7-2.9 3.98-5.68 4.03 1.72.53 4.64 2.27 4.18 4.82-.56 3.2-2.84 3.6-4.04 3.6 1.58.6 4.1 1.73 3.22 5.2-.9 3.45-3.75 3.52-8.98 2.25 4.7 1.35 8.07-.97 8.08-2.64 0-1.65-1.05-3.75-3.14-4.05-2.1-.3-20.26-5.25-21.46-5.25 3.2.3 19.13 3.47 20.34 3.6 1.2.17 4.3-.6 4.56-2.1.45-2.7-1.94-4.2-3.88-4.65l-18.02-4.2 16.3 2.33c2.84.17 7.03-.67 7.17-2.98.1-1.4-.6-4.14-2.24-4.9-1.64-.75-11.5-3-16.44-2.7 6.36-.3 13.22.9 16.37 1.22 3.14.3 5.85-.6 6.06-1.94.38-2.56-2.24-5.4-10.97-6.32m54.78 12.9c17.04 7.65 30.25 13.76 28.16 17.95-1.12 2.24-3.32 1.83-4.36 2 6.3 2 9.06 8.53 7.57 11.22-1.42 2.57-10.76-1.14-11.74-1.4 2.17 1.1 5.68 4.47 2.1 6.43-3.6 1.95-22.65-4.07-25.84-6.43 1.48 1.3 3.12 4.3 1.78 6.7-2.34 4.15-15.26-.9-17.5-1.34 1 2.4 1.35 5.76-.82 6.9-3.6 1.85-8.6-.02-11.28-1.06.3 1.7.01 5.5-3.07 6.37-2.4.7-6.86.2-9.2-1.57-4.7-2.7-15.54-6-18.45-7.73 2.83.9 17.4 6.1 18.75 6.52 3.58 1.22 7.8 1.76 9.2.84 1.35-.9 2.02-4.7-.37-5.63l-24.44-9c-1.93-.6 25.04 7.6 27.13 8.35 2.1.74 9.2 2.98 10.62 1.43 1.64-1.8 1.05-6-1.34-6.9s-28.6-9.85-31.46-10.9c3.73 1.05 34.05 10.45 36 10.98 1.13.3 12.2 3.6 13.83 2.26s1.05-4.7-1.94-6.52-23.24-9.55-27.12-10.75l30.4 10c2.84 1.03 18.15 6.44 21.15 6.3 5-.23 4.5-2.85-.37-5.4-3.14-1.65-41.16-16.1-51.18-19.55 8.15 2.4 47 15.63 52.46 17.6 4.6 1.66 10.52 3.77 11.2 1.9 1.73-4.74-6.04-8.64-9.03-9.86-3-1.18-22.42-9.32-52.9-19.24 16.9 2.86 52 17.82 54.4 18.2 1.63.26 5.67.42 4.86-2.47-.47-1.6-2.86-4.2-27.2-16.16M398.3 96.2c2.3.83 8.5 2.1 7.3 6.3-.82 2.92-5.23 1.72-6.43 1.88 1.27.9 1.64 2.54.52 4.36-1.2 1.95-5 2.24-7.03 1.48 1.94 1.14 3.05 2.6 2.1 4.5-.9 1.8-2.92 1.66-4.4 1.65 1.58.8 3.9 2.24 2.6 5.02-.9 1.95-1.65 1.43-3 1.73 1.42.3 3.22 1.28 3 3.74-.17 1.9-1.05 2.7-2.84 3.16.9.44 2.1 2.26 1.7 4.43-.35 2.03-2.16 3.37-3.66 3.52.75.6 1.9.85 1.35 3.6-.38 1.88-1.65 2.4-3.14 2.56.97.52 2.43 1.73 1.94 4.5-.38 2.1-2.84 2.7-4.04 2.56-1.2-.16-5.67-.9-6.88-1.36 2.03-.2 5.54.15 7.04.15 1.5.01 2.48-.3 2.68-1.5.3-1.64-.6-3-1.5-3.44-.9-.45-3.28-1.5-5.08-1.96 2.17-.06 3.97.53 5.08.32 1.12-.24 2.7-.68 2.84-2.13.16-1.4.1-1.85-1.27-2.45-1.34-.6-3.35-1.14-6.05-1.73 2.24.15 4.63 0 5.98.01 1.35-.02 3.15-1.6 3.3-2.64.14-1.06.23-2.85-1.72-3.75-1.3-.6-6.2-.6-7.62-1.13 2-.6 6.65-.14 7.7-.3 1.04-.14 2.4-.66 2.76-2.47.2-1.03-.74-2.17-1.94-2.63l-8-2.7c1.95-.23 5.68.97 7.17.8 1.5-.15 2.83-.73 3-1.8.22-1.42-.9-2.62-2.4-3.38l-6.2-3.3c3.5.53 5.3 1.42 6.8 1.43 1.5-.02 3.37-.1 3.66-1 .3-.9.16-1.87-.9-2.76-1.05-.9-5.68-4.13-7.1-5.43 3.5 1.05 4.78 2.3 6.42 2.87 2.47.82 5.9.22 6.5-1 .6-1.2.74-2.3-.6-3.14-1-.6-6.8-2.86-8.74-3.98 4.18.82 6.35 1.73 8.3 2.18 1.25.28 6.27 1.05 6.95-.9.5-1.54-.7-3.2-6.2-5.93m-2.87-6.34c4.16 2.22 7.33-1.83 3.56-4.62-.24-.17-.23.47-.54.3 2.53 2.82 1.02 4.68-3.02 4.3m-6.68 8.86c5.37 2.85 9.37-2.88 3.3-6.24 3.52 4.42 1.6 6.68-3.3 6.24m-15.24 8.46c5.36 2.85 14.38-4.37 8.28-7.7 3.54 4.4-3.4 8.16-8.28 7.7m4.28 1.08c1.05 1.42 1.93 6.4-3.6 6.46 1.8 1.05 2.68 2.03 2.4 3.47-.46 2.16-2.2 2.03-3.74 2.54 3.88 1.35 7.77 1.88 3.5 6.67 5-2.55 2.63-5.78-.52-6.53.67-.38 3.37-3.15 1.28-5.78 1.72-.15 4.33-4.87.67-6.83"/><use xlink:href="#G" x="-2.32" y="-1.89"/><path d="M368.23 124.38c2.54-.35 5.82-.5 5 4 2.17-.53 5.9 1.87 3.3 5.1 1.5.98 3.06 3.76.6 5.62 1.8 2.84 2.17 4.82.07 5.94.75 3 2.6 6.15-3.06 7.96 2.75-1.2 3.43-4.36 2.3-5.94-1.12-1.56-.9-1.42-2.54-2.17 2.1-.9 3.3-.38 3.3-3.08.01-.94-1.05-2.38-2.6-2.85 2.23-.67 2.3-1.34 2.1-2.93-.2-1.57-2-2.47-2.68-2.53.9-.4 3-1.73 1.86-3.23-1.27-1.7-3.5-.67-5-.38 1.12-1.2 1.64-3 .97-3.7-.66-.67-3.06-1.87-3.57-1.8"/></g><path stroke="#c88e44" d="M421.58 173.75c-3.06-2.95-11.06-7.96-13.14-9.7 3.87 3.22 10.75 7.52 13.14 9.7 3.4 3.1 5.4 6.66 3.43 9.22-.98 1.26-4.18 1.14-6.35-.76-.55-.47-8.73-6.3-11.5-8.47L422.24 185c3.06 2.62 7.82 9.47 6.27 11.78m-.92.83c-2.13 1.1-5.92-.8-7-1.72-1.27-1.05-11.66-8.84-15.24-11.5l14.94 11.28c2.24 1.6 3.88 8.34 1.7 9.66-2.16 1.35-3.58.68-5.46-.22-1.86-.9-8.66-6.75-12.77-9.98 3.36 2.7 10.75 8.34 12.32 9.9.83.84 5.45 7.28 2.68 9.37-1.7 1.3-5.67.9-8.52-.97-1.4-.93-4.1-3.14-5.98-4.13" class="H I"/></g></g><defs ><path id="B" d="M468.862 541.043v-2.714h2.31c1.474 0 2.44-.2 2.905-.594s.7-1.453.7-3.16v-21.268c0-1.686-.233-2.735-.7-3.128s-1.43-.594-2.905-.594h-2.31v-2.682h16.847v2.682h-2.3c-1.495 0-2.47.2-2.916.594-.456.403-.68 1.442-.68 3.128v21.268c0 1.707.233 2.757.7 3.16s1.43.594 2.905.594h2.3v2.714h-16.857z"/><path id="C" d="M314.8 238.77l-1.85 6.46-2.46-6.57 5.7 4.18-6.93-.3 5.53-3.77z"/><path id="D" d="M266.96 313.42c-.97-1.82-1.1-6.3-1.1-6.3s-.34 5.36-1.6 7.4"/><path id="E" d="M404.67 356.4c.92-1.84.92-6.32.92-6.32s.5 5.35 1.83 7.35"/><path id="F" d="M380.08 359.14c.02 2.46-.8 7.97-1.72 8.7"/><path id="G" d="M367.27 111.95c1.58 0 4.77 1 4.63 4.04-.07 1.66-.82 2.2-1.5 2.78.82.46 2.1 2.8.44 4.9.08-1.3.75-4.2-3.96-4.5 1.5-.68 2.47-.45 3.3-1.66.83-1.2.75-2.46.08-3.42-.7-1.03-3-2.12-3-2.12"/></defs></svg>