<svg xmlns="http://www.w3.org/2000/svg" width="685" height="457" xmlns:v="https://vecta.io/nano"><path d="M-2513.438 2322.123h0z"/><path d="M0 457h685V0H0v457z" fill="#00287e"/><path d="M324.033 280.764h65.827l.45-.382V298.3c0 4.073.577 7.56-7.17 9.488l-40.298 10.665-40.298-10.665c-7.748-1.928-7.17-5.415-7.17-9.488v-.292a8.88 8.88 0 0 0 .675-.105h.045l2.048-.322c.015 0 .023 0 .038-.015l.577-.1c.03 0 .068 0 .105-.015.18-.03.36-.053.547-.083.038-.015.068-.015.105-.015l.532-.1c.06-.015.12-.015.18-.03a5.31 5.31 0 0 1 .48-.075l.195-.045c.158-.015.315-.038.473-.068.068 0 .143-.015.2-.03.15-.03.293-.045.435-.075l.232-.045c.158-.015.3-.045.45-.075a.64.64 0 0 0 .172-.03c.2-.022.413-.067.615-.097 3.262-.57 5.752 0 10.748-.765 4.988-.773 8.438-.57 14.58-1.155 6.142-.57 13.05-1.335 14.97-1.92 1.92-.57 3.645-1.335 8.633-2.303 4.98-.952 3.075-1.155 3.075-1.155s-1.537-.382-4.035-1.335c-2.5-.96-2.107-1.343-5.37-1.913-3.262-.577-.96.57-3.84 0-2.88-.577-3.45-.953-3.45-.953s-3.457-.397-4.8-.78-2.303-.188-3.067-.757c-.772-.577-4.035-1.733-4.035-1.733s-1.755-.465-3.255-.952" fill="#9ed9ff"/><g fill="#006fff"><path d="M343.225 322.77c1.92 0 4.605.78 1.92 5.76-2.685 4.995 5.662 7.867 5.662 7.867l3.158-3.255c-3.84-3.457-3.84-4.597.765-7.673s6.525 4.215 6.525 4.215l3.458-1.537.382-4.215c9.2.757 14.588 0 22.643-4.98-15.353 4.98-24.18-.78-24.18-.78l23.032-6.135c6.127-1.523 9.967-3.06 9.967-11.122V223.38c0-24.562 9.2-21.87 9.2-21.87l-9.975-16.125c-25.335 8.835-30.705-7.298-52.582-7.298s-27.24 16.132-52.582 7.298L280.65 201.5s9.203-2.692 9.203 21.87v77.535c0 8.063 3.84 9.585 9.982 11.122l23.025 6.135s-8.827 5.76-24.18.78c8.063 4.98 13.433 5.738 22.642 4.98l.382 4.215 3.458 1.537s1.912-7.3 6.517-4.215c4.605 3.06 4.605 4.215.48 7.763l2.88 3.368s8.925-3.075 6.232-8.07c-2.685-4.98 0-5.76 1.92-5.76l-.382-4.32-40.298-10.665c-7.747-1.928-7.163-5.415-7.163-9.488v-69.345h94.928V298.3c0 4.073.577 7.56-7.162 9.488l-40.298 10.665.382 4.32m-37.4-20.14c4.605 0 6.33-1.155 9.2-1.155s4.597 0 8.625-1.148c4.035-1.155 15.548-2.295 10.365-.57-5.182 1.718-3.457 2.302 4.605 1.718 8.063-.562 13.245-1.148 12.668-2.873-.578-1.733.188-.57-4.418-.195-4.605.382-4.987-.375-4.987-.375s1.537-1.92 4.605-1.545c3.075.382 7.68-.172 9.405-.57 1.725-.382 3.645 1.733 1.53 2.115-2.107.375-.952 1.725.577 1.913 1.538.195 2.693 3.84-6.33 3.27s-11.895.382-18.038.57c-6.142.195-13.627.382-10.365-.57 3.263-.968 4.988-1.538-2.497-.382-7.47 1.147-6.5.195-12.465.57-5.947.383-9.015.383-9.015.383l6.525-1.14"/><path d="M357.378 291.78c-4.605.435 6.27-.705 8.513-.937 2.242-.2 7.252-.953 2.865.143-4.395 1.118-4.155 1.185-.412 1.087 3.75-.105 6.052-.66 6.4-.72.33-.06 2.385-.015 2.385-.015s2.632.06-4.072.952c-6.697.877-11.895 1.185-9.683.75 2.212-.443 7.02-1.043 1.477-.795-5.542.263-6.832 0-4.605-.337 2.227-.322-.615-.367-2.858-.127m32.472-4.28s3.067.368-2.88.135l-8.063-.135s-2.302-.113 2.498.502c4.793.63 10.748 1.245 5.948 1.493s-7.103.742-5.565.997c1.537.248 2.302.128 3.84-.135 1.53-.232 3.068 0 3.068 0l1.537.263v2.5s.96.12-3.457.12l-7.673.368 6.712.113h4.597"/><path d="M345.9 282.3c1.733 0 6.915.555 4.605.555-2.302 0-3.262.585.4.78l6.705.188-7.095.57s-4.605 0-3.645-.382c.96-.375-1.725-.953-1.725-.953l-1.343-.96 2.107.188m23.22 23.804c7.3-.2 5.76-.78 14.205-2.317 8.445-1.523.765-3.06-4.418-4.013-5.182-.968 8.64-1.725 7.103-2.108s-10.553.382-16.312.382c-5.752 0-1.147 3.443 4.8 4.027 5.947.57-6.72 1.328-12.668 1.538 0 0 2.498 1.14-9.592 1.7-12.1.585-20.73.765-15.548 1.538 5.183.765 25.717.967 11.513 2.302-14.197 1.35-18.42.585-21.3 1.155s-8.827 1.335-8.827 1.335 6.908 1.725 7.485 1.725-1.92-.757 6.72-.757c8.632 0 14.393-.57 21.3-1.35 6.908-.758 18.225-2.295 11.513-2.872-6.712-.57-10.935-1.538-5.565-1.538s9.592-.758 9.592-.758"/></g><path d="M326.725 144.3l-2.303-1.537s-.195 2.7 1.53 5.572m5.956 8.64s-2.498-.953-3.457-1.538c-.96-.57-3.262-.953-3.262-.953s.082-.427.067-1.087c.12-.262.195-.54.195-.848a1.95 1.95 0 0 0-.6-1.417c-.24-.705-.615-1.47-1.2-2.213-2.107-2.685-2.88-2.5-6.713-3.457-3.84-.952-6.525-2.5-6.525-2.5s-.757 2.677 3.262 4.215c4.027 1.537 8.25 3.84 8.25 3.84s-.382 1.538-3.068 1.35c-.5-.03-1.05-.12-1.605-.27a1.64 1.64 0 0 0 .135-.697c0-1.118-.885-1.995-1.987-1.995-.855 0-1.575.54-1.86 1.305-1.185-.6-2.28-1.3-3.127-1.995-2.115-1.725-5.947-3.645-9.203-3.645l4.02 3.075 2.813 2.228a1.97 1.97 0 0 0-1.92 1.98 2.93 2.93 0 0 0 .045.435c-1.312-.248-1.658-.697-2.82-1.402a2.18 2.18 0 0 0 .037-.368 1.99 1.99 0 0 0-1.995-2c-.675 0-1.283.353-1.65.885l-1.8-.2c-3.067-.382-6.135 0-6.135 0a5.98 5.98 0 0 0 2.303 1.335c1.335.398 3.06 0 3.45 1.725.233 1.072.105 1.335.015 2.055-.068 0-.143 0-.218.015.045-.18.083-.353.083-.54 0-1.103-.885-1.995-1.988-1.995-1.095 0-1.987.892-1.987 1.995a1.82 1.82 0 0 0 .127.682 2.03 2.03 0 0 0-.825-.173c-1.103 0-1.995.893-1.995 1.98a1.99 1.99 0 0 0 1.995 1.988 1.98 1.98 0 0 0 1.987-1.988 1.81 1.81 0 0 0-.127-.675c.255.097.532.172.825.172.135 0 .27-.015.398-.03-.053.165-.083.353-.083.533 0 1.035.795 1.882 1.815 1.973-.135.84-.712.75-2.317 1.688-2.3 1.35-6.72 4.995-6.72 4.995l5.565-1.538c2.303-.57 4.222-1.163 4.987-3.27s2.678-4.215 2.678-4.215.3-.262.735-.555a1.8 1.8 0 0 0-.037.345c0 1.102.892 1.995 1.995 1.995 1.095 0 1.987-.893 1.987-1.995 0-.202-.038-.405-.105-.6l1.185.615s.195 3.075-1.725 4.995c-1.92 1.905-5.947 4.4-5.947 4.4s4.027.57 6.33-1.155c2.303-1.733 2.108-2.677 3.262-4.792 1.147-2.123 2.108-2.505 2.108-2.505l1.065-.045c-.113.255-.172.533-.172.8a1.99 1.99 0 0 0 1.987 1.987c.143 0 .278-.007.412-.037-.232.188-.495.375-.795.555-2.88 1.725-5.377 4.597-5.377 4.597s1.92 1.35 5.183-1.335c3.262-2.678 4.035-4.4 5.76-5.183 1.725-.765 3.84-.187 3.84-.187s-.577 2.5-4.035 4.402c-3.45 1.92-5.752 4.808-5.752 4.808s2.5-.187 4.605-1.35l4.598-2.678m-27.437 110.53c2.115 0 3.84-.188 6.908 1.732 3.075 1.92 4.027 2.678 6.142 3.06 2.1.382 2.1 0 4.418.968 2.295.952 1.14 1.155 3.637.952 2.5-.195 4.4-.765 5.947-.195 1.53.592 4.4 1.35 4.4 1.35s3.262 1.155 4.035 1.733c.765.57 1.725.375 3.067.757s4.8.78 4.8.78.57.375 3.45.952c2.88.57.577-.577 3.84 0 3.262.57 2.88.952 5.37 1.913l4.035 1.335s1.905.2-3.075 1.162c-4.987.96-6.712 1.725-8.632 2.295-1.92.585-8.827 1.35-14.97 1.92-6.143.585-9.593.382-14.58 1.155-4.995.765-7.485.195-10.747.765-3.262.585-8.25 1.35-8.25 1.35l.188-24m21.37 60.03c7.192 5.76 10.215 5.332 18.278 16.26-3.743-9.78-4.605-12.083-9.788-16.403 8.632 6.045 11.228 6.045 17.558 16.125-14.108-42.022-71.385-19.567-86.64-13.245 19.86-4.612 34.83 1.44 42.6 10.943 0 0-3.458-9.2-6.908-13.238 13.238 8.055 12.953 7.192 19.86 14.678l-5.76-14.108c10.365 2.873 18.135 14.678 18.135 14.678s-3.308-9.36-7.335-15.7m52.105.01c-7.193 5.76-10.215 5.332-18.278 16.26 3.743-9.78 4.605-12.083 9.788-16.403-8.633 6.045-11.228 6.045-17.558 16.125 14.108-42.022 71.385-19.567 86.64-13.245-19.86-4.612-34.83 1.44-42.6 10.943 0 0 3.458-9.2 6.908-13.238-13.238 8.055-12.953 7.192-19.86 14.678l5.76-14.108c-10.365 2.873-18.135 14.678-18.135 14.678s3.308-9.36 7.335-15.7" fill="#35b336"/><path d="M200.643 99.46c-.72-3.015 0-5.04.577-2.873.578 2.153.863 2.445.863 2.445m87.795 124.348c0-24.562-9.2-21.885-9.2-21.885l9.975-16.1c8.805 3.06 15.195 3.12 20.708 1.9l.12-.457s-.577-2.295-2.018-6.908c-1.44-4.605-2.588-4.605-5.76-4.882-3.165-.292-10.357 4.32-16.117 6.038-5.76 1.725-12.1 4.027-12.1 4.027s-4.32-7.762-5.752-9.495c-1.433-1.725-3.45-2.587-4.9-6.915-1.44-4.305-2.017-4.305-4.9-7.47-2.468-2.723-6.833-7.748-8.033-9.135.075-.165.322-.6 1.125-1.53 1.005-1.14 3.308-.697 7.05-1.14 3.743-.435 3.593-4.178 4.462-5.46.863-1.305.428-1.163.143-4.328-.293-3.157-3.022-4.17-4.605-4.597-1.582-.435-4.035-1.305-6.765-3.457-2.737-2.153-10.507-5.903-12.1-6.915-1.582-1-.142-2.722 1.44-3.292 1.583-.585 11.37 0 14.963-.293 3.6-.293 1.298-1.155-.142-1.582s-8.633-1.013-8.633-1.013 4.027-.57 14.25-5.318c10.215-4.748 13.095-14.542 13.095-14.542-3.165 4.613-10.222 7.485-12.233 7.92-2.017.428-.72-1.875.143-4.9s-.578-1.305-2.88 3.015c-2.303 4.328-8.5 6.48-11.512 7.635-3.022 1.14-2.587.998.142-1.582 2.737-2.595 3.022-4.32 4.32-7.927 1.298-3.585.72-4.448-1.725.15-2.452 4.597-10.943 10.5-13.103 11.805-2.152 1.3-.57-2.318.72-5.6 1.298-3.308.72-3.458-.862-.72-1.583 2.73-3.165 5.175-5.752 7.05-2.595 1.875-2.16.863-2.16-.585 0-6.038-2.153-7.47-2.873-8.34-.72-.863-1.44-1.875-.577 1.148.863 3.03.292 6.472 0 7.778-.285 1.3-1.3.713-2.303.127-1.005-.555-1.868-2.295-1.005-4.155 5.183-9.5 4.463-15.12 4.463-19.575 0-4.463-1.298-1.155-1.298-1.155.72 16.553-7.628 20.438-7.628 20.438-1.582-6.48-2.595-5.6-2.595-5.6 0 2.88-.998 4.9-.998 4.9s-7.192-8.055-5.752-15.397c1.432-7.335-.577-11.235-.577-11.235-1.875 22.605-17.993 14.693-17.993 14.693l7.912 5.317c-2.73 10.357-15.975 4.9-15.975 4.9 4.178 7.928 28.215 4.605 28.215 4.605s2.16 2.738 6.765 5.903l8.775 6.045-1.3.675c-5.76-4.23-11.52-4.23-14.97-2.692-3.457 1.537-5.377 3.457-5.377 3.457 1.92 7.297 11.902 8.82 11.902 8.82-1.537 3.847-1.92 11.13-.772 19.582 1.155 8.438-1.53 16.493-1.53 16.493l3.067-1.92s.383 2.303 0 4.223c-.375 1.92.765 2.692 2.303 3.457 1.538.757 1.538 2.692 1.538 2.692v4.597l2.685-1.537s1.155 8.835 1.155 12.293-.772 6.517-1.155 8.055c-.382 1.522-.765 4.98-.765 4.98l2.303-1.14s-2.692 10.358-4.605 14.572c-1.913 4.238-11.903 10.373-22.268 21.127-10.35 10.733-8.055 20.708-8.812 25.702-.773 4.988 3.067 1.92 3.067 1.92s5.362 7.283 5.362 16.5c0 9.2-5.752 14.588-7.673 16.507-1.912 1.92-.375 3.443-.757 6.9-.4 3.458 0 7.3 1.905 10.748 1.92 3.457.4 16.117 0 19.575-.375 3.457 0 3.457 1.537 4.613 1.538 1.14 3.458 3.825 5.76 5.737 2.303 1.92 3.45-1.14 3.832-3.817.4-2.7-.765-3.075-.765-3.075l.577-.3s-1.725-1.14-4.32-4.598c-2.588-3.457-1.44-12.668-.578-22.163.863-9.488 1.44-7.777 11.228-16.695C220.24 291.6 226 276.63 226 276.63l10.072 6.622c6.907 4.613 4.897 4.32 3.165 12.098-1.725 7.762-1.44 9.787 0 11.8 1.44 2.025 3.165 3.735 7.485 5.76 4.32 2.018 4.597 2.302 8.925 8.055 4.32 5.76 6.615 7.208 10.65 7.777 4.02.57 4.02 2.303 4.02 2.303l6.623-2.872c-1.44-4.028-4.898-3.458-8.633-3.75-3.735-.278-4.035-1.155-8.34-5.753-4.32-4.605-6.908-8.355-9.788-15.547s.278-12.945 4.598-25.035c4.313-12.083-1.725-16.695-1.725-16.695s5.468-6.33 10.643-10.942c5.183-4.598 10.942-16.118 11.52-19.275.57-3.165 1.148-3.165 5.468-2.888 4.32.293 2.303 8.348 1.725 14.97s-1.148 7.192.577 9.2c1.725 2.025 1.147 3.735.285 8.355-.728 3.863 4.065 6.12 6.622 5.52V223.38m183.63-99.606c12.1-1.432 21.878-11.8 25.913-17.273 4.028-5.46-1.155-4.027-2.88-2.002-1.733 2.002-.293 1.14-4.035 4.597s-4.9 2.595-3.45-.847c1.44-3.458-2.88.555-7.485 3.735-4.597 3.165-4.9 1.432-2-1.733 2.872-3.157-.285-2.002-3.165-.57-2.88 1.44-9.2 3.735-9.2 3.735s-.577-2.295 6.623-6.322c7.192-4.035 16.98-12.105 18.412-15.84 1.44-3.75.285-6.045-1.717-1.432-2.018 4.597-4.32 4.028-7.77 1.14-8.355 7.193-8.062-.862-8.062-.862l-2.303 3.75c-1.44 2.302-3.457 2-4.897 1.14-1.433-.863-2-1.433-6.33 2.595s-8.925-4.32-9.2-8.64c-.285-4.312-.577-4.605-2.018-.278-1.44 4.32-.277 9.78 2.018 15.54 2.303 5.752-1.725 3.457-4.32 3.165-2.587-.293-8.347-5.468-11.512-8.632s-2.587-2.3-2.587.57 1.725 6.623 1.725 6.623-8.925-3.735-12.083-6.915c-3.165-3.157-3.743-1.433-2.303 1.162 1.44 2.573 2.303 8.333 16.688 10.357 14.393 2.003 17.843 5.183 17.273 10.072-17.558 1.44-23.603-5.46-25.035-6.623-1.44-1.155-.578 3.458-.578 3.458s-6.045-2.018-8.64-4.905c-2.587-2.873-2.295.292 0 3.18 10.365 13.245 34.358 10.162 34.358 10.162s-4.613 2.302-6.525 4.222c-1.92 1.92-3.458 2.3-5.565 2.5-6.143.382-9.405.202-14.782 2.692-5.37 2.5-4.605 7.68-3.832 10.942.765 3.255 5.752 3.255 6.907 4.605 1.147 1.327 4.222 1.538 5.183.952.952-.577 1.148-1.717 2.872-2.498 1.725-.757 2.685-.375 1.725 1.92-.952 2.303-7.673 9.405-10.942 12.675-3.255 3.248-2.483 2.873-2.873 5.168-.383 2.317 1.35 2.873 1.155 4.237-.195 1.328-.382 1.7-2.115 4.215-1.725 2.5-4.027 4.605-4.215 6.33-.195 1.725-4.995 5.76-4.995 5.76l-18.225-10.942c-3.458-2.303-3.458-2.873-9.023-2.873s-7.673 6.33-8.062 11.895l.465.338c3.915-.03 8.377-.765 13.74-2.64l9.975 16.1s-1.838-.525-3.87 1.073l.517.382 3.45 3.165-7.485 3.165h-.292c-.915 3.217-1.53 7.748-1.53 14.1v41.325c3.24-1.875 2.955-8.04 2.115-13.125 4.027-.57 2.872-4.597 2-4.9-.863-.278-1.44-14.4-.285-20.73 1.147-6.33 3.165-5.168 6.908-5.752 3.742-.577 2.595 3.458 3.742 8.347 1.155 4.9 4.32 9.2 4.32 9.2l-.292-3.457s-1.147-3.435 2.595 2.025c3.743 5.467 23.3 16.688 23.3 16.688s-3.743 2.587-6.908 12.097c-3.165 9.495 3.742 20.715 1.44 35.978-1.507 10-9.2 19.568-14.392 22.44-5.182 2.888-6.33 5.183-6.33 5.183l5.752 3.165s.87-1.433 2.302-2.873c1.44-1.447 0-1.447 3.735-1.447 3.743 0 4.898-5.168 7.2-10.065s10.65-13.815 10.65-13.815c3.458-5.183 2.587-4.598 2.018-7.2-.577-2.58-1.732-5.175-.293-10.358 3.632-13.1 16.102-21.57 16.102-21.57v5.183c0 10.942 3.165 12.1 12.375 25.05 9.2 12.952 6.908 28.785 6.045 36.548s-4.32 10.65-4.32 10.65l2.303 8.347s.292-.863 1.155-2.587c.863-1.732 2.587-5.467 4.32-6.623 1.718-1.163 2.288.585 2.003-6.9s.285-14.692 2.018-25.05c1.725-10.358.862-7.762-2.595-17.55-3.45-9.788-1.147-10.943 1.732-17.273 2.873-6.337 4.605-11.805 4.605-11.805s2.588.293 2.303-2.887c0-7.192-5.76-13.515-16.4-23.303s-12.375-19.86-12.375-19.86h.285c-1.44-5.483 2.017-2.873 2.017-2.873-1.725-6.345 2.295-13.245 2.295-13.245-2.595-5.183-2.295-6.915-2.295-6.915l2.295-1.433c-3.158-10.08-2.295-10.65-2.295-10.65l2.295-.585c-.278-5.175.285-9.203.285-9.203l2.88.293s-.285-6.337 1.44-14.4c1.725-8.055 3.742-3.735 0-19.86 9.788-2.873 9.2-7.762 9.2-7.762s-4.9-2.595-10.935-2.595-3.742-3.165.57-3.457m-111.088 1.155l2.88 2.302 1.147-4.012c.375 1.14 3.84 3.63 3.84 3.63l.952-3.075 2.88 4.995 2.303-1.725c.765 1.92 3.45 2.88 3.45 2.88l1.725-3.645s-2.107-4.027.578 0 5.565 3.443 5.565 3.443l.96-2.872 3.84 4.027 2.108-3.06c2.115 7.47 4.597 10.74 4.597 10.74l1.35-.57c.57 5.183 2.302 8.055 2.302 8.055l1.53-4.4 1.538 7.868c.765 3.84 2.107 5.752 2.107 5.752l.765-3.457 2.88 5.948c5.753-39.705-11.325-57.758-17.655-65.43-6.337-7.68-20.9-12.862-30.705-13.432-9.787-.57-8.242 9.787-.765 14.2 5.842 3.457-3.833 11.137-3.833 11.137l-2.183-3.345-.12.075s-.195.78.382 2.302c.57 1.537.57 2.888.57 2.888l-1.343.188s-.187 1.35-.57 2.5.57 2.692.57 2.692l-2.685-2.295-.57 3.248-2.88-1.913-.96 2.88-2.115-1.92-1.343 1.92-2.303-1.155-1.342 2.887-2.1-2.7-1.92 2.7-1.343-2.887-.4.765-1.147-1.733-1.343 3.27s-.96-2.5-2.302-2.685-1.733-.187-2.295-.585c-.577-.382-.577-3.06-.577-3.06l-1.92.57 1.92-8.437.195.188c-6.525-4.785-11.708-8.445-9.218-17.265 1.733-6.532-4.988-13.432-21.105.188-18.615 17.655-24.18 50.468-22.837 71.76l3.067-6.135 1.35 1.538 2.873-5.947 1.335.952s4.8-4.597 5.76-8.437.195.57.195.57l1.147 1.733s1.155.757 2.303-1.35l4.8-8.82s-.577 3.637 1.537 4.4c0 0 2.483-.757 4.598-4.597l1.53 2.303s3.652-1.537 4.417-3.652l.96 3.075s3.833-2.692 5.565-5.37l1.725 3.832s2.498-1.537 3.645-4.028l4.223 3.06s-1.92 2.7.96 6.158c-.382 2.295 0 6.518 0 6.518l-.765 3.457c-.4 1.725-.772 3.262-.578 5.362.188 2.108.96 4.028 3.262 4.4 2.302.4 3.067.96 5.565 1.358 2.498.382 4.4-.203 6.525-.773 2.1-.57 2.873-2.685 2.685-4.222s-.382-1.155-.382-3.84c0-2.692-.96-4.8.96-4.8s2.303-.765 3.645 2.3 1.342 2.303 1.342 5.558c0 3.263 0 5.37 1.913 5.768 1.92.382.96.765 4.4.555 3.457-.172 4.035-.172 6.337-.375 2.302-.18 3.832-1.522 4.4-3.255.577-1.725.383-2.5.195-4.027-.195-1.538.577.57-.772-2.677-1.343-3.27-2.685-8.453-3.068-11.52-.375-3.075-.96-6.135-.765-9.2m-36.5 41.668v-8.055l39.72-.712v8.055l-39.72.712" fill="#86473f"/><g fill="#ffef6f"><path d="M332.86 155.17s1.733.66-2.685 3.442c-4.4 2.783-7.3 2.88-7.3 5.37 0 2.498.48 2.595.48 2.595s1.343-.097 2.685 0 2.782.382 3.457.1c.668-.277 1.725 1.155 3.352.772 1.635-.375 3.36-1.245 3.36-1.245s-.098 0 1.342.472c1.44.48.863.382 2.88 0l3.36-.765s2.392-2.865-.765-4.785c-3.172-1.92-4.515-2.212-4.995-2.595s-.862-1.627-1.05-2.595m18.52.184s1.627 1.245-1.822 3.262c-3.458 2-5.76 1.245-6.045 4.118-.247 2.445.48 3.165.48 3.165s1.44-.292 2.783-.382c0 0 .57-.187 1.342-1.627.765-1.433 3.067-3.262 3.067-3.262s.96-.488.293 2.213c-.675 2.677 1.05 3.54 1.05 3.54l2.115-.187.277-2.678c.098-.967 0-2.8 0-2.8s.383-.188 1.343.765c.96.967 1.155 1.155 1.725 2.887.577 1.7.48 1.522.862 1.522.4 0 2.3-.472 2.3-.472s2.392-2.692.285-4.23c-2.115-1.522-5.468-2.58-6.8-5.55"/><path d="M365.898 162.7l10.755-2.6.27.923 3.188-2.655-4.1-.495.24.847-10.68 2.58m.387 4.474l15.165 3.615-.18.952 4.058-.923-3.45-2.302-.165.87-15.1-3.622"/><path d="M366.25 164.32l19.635-.218.06.877 3.698-1.905-3.915-1.358.06.938-19.567.233M390.3 280.95v-51.997h-94.935l.068 45.083c2.115 0 3.84-.188 6.908 1.732 3.075 1.92 4.027 2.678 6.135 3.075 2.108.382 2.108 0 4.418.952 2.295.967 1.147 1.155 3.645.967 2.5-.2 4.4-.78 5.947-.2l67.807.397"/></g><path d="M326.148 289.39c1.538-.757 2.303-.952 3.645.195l1.342-6.525c.195-1.14 2.303-6.907 2.303-6.907l.375 6.15c.195 3.825-.562 5.55 1.92 6.135 2.498.57 4.035 0 4.035 0s-1.537-.398-1.537-3.075-.96-12.668-1.147-13.815c-.188-1.155-.188-3.075-.188-3.075l.757-3.06s1.538.188 3.458 0c1.92-.202 2.685-.967 3.45-.967.772 0 1.733-.383 1.733-.383l.382-1.327s-2.498-.383-4.605-.383c-2.115 0-4.035-.78-4.035-.78s-.375-.383-.563-1.725c-.195-1.335-1.92-2.873-1.92-2.873s.758-.765.758-1.92.96-1.725.195-3.075c-.765-1.335-1.147-2.302-3.075-1.717-1.912.563-1.912.382-2.678 2.303s-.382 1.717-.195 2.678c.195.952-.187 1.35-.187 1.35s-1.155-1.155-1.725-.202c-.578.968-1.155 1.538-1.155 1.538l-2.107.188-.577-2.108s-.383-.952-.578-2.108c-.195-1.148-.96-4.222-.96-4.222l-1.342-1.538s-.758 1.92-.57 2.505c.188.57.96 2.5.96 4.012v4.808s0 1.92 1.912 2.303c1.92.375 4.223.375 4.223.375s.577.765.765 4.028c.195 3.27 0 .968.195 2.7.188 1.725-.195.952-.577 4.4s-1.343 7.673-1.725 9.195c-.382 1.538-.96 6.915-.96 6.915" fill="#86473f"/><g fill="#b37535"><path d="M253.42 261.384l-5.378 4.98s5.76 8.438 1.155 20.73c-4.605 12.27.765 16.1.765 16.1s-2.302-8.82 3.075-22.252c5.37-13.433 4.208-13.83.375-19.567M192.775 320.5c1.92-3.075 4.223-11.9-.765-16.507l-1.155 1.155.4 11.115 1.147 2.7"/><path d="M200.838 297.07c2.685-10.74.382-13.057 2.685-26.865 2.303-13.815.765-28.012 6.525-26.092s13.05 5.76 11.895 14.572c-1.147 8.835-7.3 21.495-13.043 29.168-5.76 7.68-8.062 11.895-7.68 7.68m-.382-27.633c5.332-8.895-.383-21.488 8.062-26.865 8.438-5.377 4.988-3.457 4.988-3.457s-14.587 1.538-15.352 18.8c-.773 17.272 1.147 13.433 2.303 11.512m33.76-56.036c-8.04 22.132-10.748 30.323-6.525 34.56 4.222 4.215 10.747 3.833 16.9-5.377 6.142-9.217 9.593-21.87 10.358-24.945.772-3.075.4-4.995 6.915-2.303 6.525 2.685 14.962 5.76 18.803 6.9 3.84 1.155 7.283 0 6.9 13.05-.375 13.05-2.295 11.512-1.522 18.053.757 6.517-.772 12.27 3.068 13.417l-.383-46.822s-18.428-7.3-21.113-9.2-6.908-22.65-12.668-33.382c-5.752-10.755-14.197-18.428-19.567-26.865-5.377-8.452-5.76-12.675-1.92-10.755s7.673 6.915 14.58 7.68c0 0-3.45-3.068-5.37-5.378-1.92-2.302-3.075-3.442-1.155-3.442s3.84.383 3.84 2.295c0 1.92-.382 1.92 3.067 3.067 3.457 1.155 5.377 0 1.92-1.92-3.45-1.92-3.45-5.745-3.45-5.745s3.84.765 6.142 2.303c2.303 1.522 3.832 3.442 3.832 3.442l6.142-3.06s-1.537-.78-4.987-.78c-3.458 0-8.445-2.288-9.6-3.442-1.147-1.155-6.135-6.135-12.66-4.598s-8.062 3.833-8.062 3.833H225.4l1.155 1.92s-1.92 1.522-2.3 5.363 1.92 1.92 1.92 1.92 1.155 1.92 1.537 8.835c.383 6.9-1.537 4.215-1.537 9.592s.4 6.518.4 6.518 1.53-4.598 1.912.382c.4 4.98-1.147 8.438 2.692 14.205 3.833 5.745 3.45 9.585 3.45 9.585l-3.84-3.84s2.692.765.382 8.835c-2.295 8.055 1.148 7.283 1.148 7.283s2.303.772.765 4.23c-1.53 3.457 1.92 1.14 1.92 1.14s1.155-.757-.382 3.457m-26.877-84.82s5.76-3.825 10.748-2.685c4.987 1.163 7.673 6.143 7.673 6.143s-7.3 3.457-9.975 1.912c-2.685-1.538-8.445-5.37-8.445-5.37M190.1 111.3c6.525 0 9.593-1.14 10.748-6.518-.383 5.378 2.685 5.378-10.748 6.518m10.355-9.976c-3.097 0 7.3-2.302 8.828-6.135 1.53-3.84 1.53-3.082 0 1.14-1.538 4.215-1.92 4.995-8.828 4.995m273.263 183.06c-6.825-10.7-6.143-13.035-6.525-21.1s-2.685-8.452-.382-13.83c2.303-5.362 12.668-8.437 14.97 0 2.302 8.453 4.987 13.05.382 23.025s-5.76 16.132-8.445 11.895m-11.895-22.618s-3.84-3.457-9.982 6.9c-6.142 10.365-8.445 9.592-8.827 17.647-.382 8.07.765 13.05.765 13.05l3.075-.382s-2.303-8.437-.765-12.668c1.53-4.215 4.988-11.115 9.2-14.955s6.907-6.533 6.907-6.533l-.383-3.06"/><path d="M433.803 216.1s.765 11.895 9.592 18.8c8.828 6.892 13.05 10.35 16.125 7.657 3.067-2.677 4.597-2.677.375-11.895-4.223-9.195-6.9-16.1-6.9-19.185v-11.52l2.678 4.238-.375-12.293 2.302 1.538s-.772-3.458-1.155-8.055c-.383-4.613-.383-7.298-.383-7.298l2.685 2.685s-.765-6.517-1.92-10.74c-1.148-4.215-.765-2.303-.765-2.303l3.068 1.905 1.155-8.437 1.537-9.975s1.148-1.14 1.92-7.3c.757-6.143 1.148-7.68 1.148-7.68s1.912 0 6.517-.757c4.605-.765 10.365-4.605 10.365-4.605s-5.76-3.832-12.285-1.538c-6.525 2.303-8.062 2.303-8.062 2.303s-4.98-4.98-9.202-2.303c-4.223 2.685-6.908 5.377-11.13 5.76s-10.748-.382-12.66 3.06c-1.92 3.457-3.84 6.15-.4 7.297 0 0 0-4.605 2.303-5.377l5.76-1.92s6.908-.383 9.975-2.303c3.067-1.912 4.988-3.442 8.055-3.06 3.075.383 5.76-1.155 3.457 3.06-2.302 4.238-6.135 4.995-6.135 4.995s3.06.765.757 4.995c-2.303 4.223-4.98 5.363-6.135 6.9-1.148 1.53-4.987 6.915-4.987 6.915l4.987-1.155-8.835 12.667 4.612-1.537-4.223 3.84 2.303.765-7.298 8.827s-.375 2.685-3.833 6.525c-3.45 3.833-3.84 3.45-5.37 5.37s-3.068 4.605-3.068 4.605-3.458 5.37-9.593 7.673c-6.142 2.303-13.822 4.597-13.822 4.597s-1.53 5.377-1.148 18.428l.383 18.413s1.537-.757 1.92-11.512c.382-10.733-3.458-20.708 7.3-23.025 10.747-2.303 17.655-5.363 25.335-5.745 7.673-.375 9.593 1.147 5.753 3.067-3.84 1.912-5.37 2.295-5.37 2.295s2.303-2.295 2.685 2.303m-50.66-27.99s-.383-8.437 4.222-8.812c4.605-.383 4.988-.383 10.365 4.597 5.37 4.98 4.98 8.835 3.833 10.755l-5.37-8.835-13.05 2.295m62.558-78.674s7.68 0 8.827 3.075c1.148 3.068 3.075 12.66 3.075 12.66s4.598 2.692 7.673.772c3.067-1.912 1.53-1.912 5.37-4.23 3.832-2.302 16.5-7.68 16.5-7.68s-3.067-.757-1.155-3.06c1.92-2.295-.375 1.147-.375 1.147s-6.525 3.458-9.2 3.832c-2.685.383-2.303-1.522-1.148-2.678l-8.445 2.303s-2.303-.383-1.155-3.068c1.155-2.692 3.84-4.995 3.84-4.995s-4.988-1.537-6.143 3.458c-1.14 4.98-.758 10.74-.758 10.74h-3.067s-.4-3.457-1.155-7.282c-.765-3.84-3.84-11.9-3.84-11.9s1.155 4.237-.382 6.157c-1.538 1.912-8.445.757-8.445.757m-24.58-11.138s4.223 4.98 7.298 6.915c3.067 1.92 9.593 2.678 9.593 2.678l-4.605-10.74.765 7.665s-9.975-3.84-13.05-6.517m-1.92 13.05s6.143 3.84 9.6 5.378v-3.458s3.45 3.458 9.202 5.753c5.752 2.303 7.3 1.92 16.5 1.148l-.757 1.92s-9.2 0-13.815-.765c-4.605-.757-9.2-3.84-9.2-3.84l1.148 2.685s-.765.757-3.45-.383c-2.692-1.14-9.6-7.282-9.6-7.282m-91.93 176.54l1.733-8.828 1.342-6.712c.375-1.92 1.148-2.692.765-3.84-.382-1.155-.195-.757-.382-2.5-.195-1.725-.772-3.458-.772-4.613 0-1.14-.57-.952.577-2.092 1.155-1.155 1.92-4.238 2.498-.968l.577 3.458 2.677-4.613.577.4-3.255 5.76s-.577-.78-.577 2.108c0 2.873.757 4.4-.195 4.98-.96.585-.765 1.733-.187 2.115.57.375.382.57-.578 3.075s-1.725 5.565-2.115 7.3l-1.148 4.793-1.538.187m9.023-1.166s.188.78-.195-3.248l-.96-8.077.772-2.5s-.577.57.188 3.457c.772 2.888.96 6.518 1.155 8.055.188 1.545.757 2.7.757 2.7l-1.725-.382m.196-34.165s-1.53 0-2.107-.757c-.577-.765-1.155.188-1.155.188s-.382.952 0 1.92l.773 1.92h1.725l1.155-1.522-.4-1.748"/><path d="M332.3 268.87s1.92.555 2.873.382l.96-.2-2.303.78h1.148l-3.06 1.905m-9.6-17.667s1.155.78 1.155 2.887 1.725 4.598 1.725 4.598-2.302.78-2.685-1.14-.195-6.345-.195-6.345"/></g><path d="M328.645 100.554s6.135-9.195 2.5-12.653-4.223-3.075-4.223-3.075-.765-.57-.765-1.92c0 0-1.155-.187-2.88.188-1.725.382-1.92-1.14-1.147-3.63.765-2.505 3.45-4.613 8.25-2.693 0 0 2.468-2.227 6.525-.765 4.793 1.725 9.015 3.84 11.513 10.357 2.498 6.532 3.067 6.915 4.417 8.835.72 1.02 2.377 3.54 3.765 5.662l-.12.075s-.195.78.382 2.317c.57 1.522.57 2.873.57 2.873l-1.343.188s-.187 1.35-.57 2.5.57 2.692.57 2.692l-2.685-2.295-.57 3.248-2.88-1.913-.96 2.88-2.115-1.92-1.343 1.92-2.302-1.155-1.343 2.887-2.1-2.7-1.92 2.7-1.343-2.887-.4.765-1.148-1.718-1.343 3.255s-.96-2.5-2.302-2.685-1.733-.187-2.303-.57-.57-3.075-.57-3.075l-1.92.57 1.92-8.437.187.188m34.73 34.933c4.028 4.027 12.66 8.438 8.25 9.975 0 0-2.115.383-3.457-.952-1.342-1.35.195.555.195.555s0 1.538-1.342 1.92c0 0-2.88-5.55-3.645-11.497m-13.816 13.223c-1.92 0-5.76.322-5.76-3.817 0-1.545-.96-1.92.765-2.505 1.732-.577 1.342-2.1 2.88.772 0 0 2.295 3.06 2.115 5.55m-27.3 99.8l-.143-.187-.015.015.158.173m.045 6.52v-.382c0-1.522-.765-3.457-.96-4.027-.082-.262.023-.788.172-1.305l-.555.923 1.155 3.067.188 1.725m9.555 25.573l1.875.015-.3-4.477-1.575 4.462m-3.03-7.334c.382-3.457.765-2.7.577-4.4-.195-1.748 0 .555-.195-2.7-.187-3.262-.765-4.028-.765-4.028s-2.303 0-4.223-.375c-1.92-.382-1.92-2.303-1.92-2.303v-2.332c-.473.8-1.958 2.918-5.565 5-4.597 2.685-4.98 5.377-1.92 5.377 3.075 0 2.303-1.538 6.143 1.538 3.84 3.06 3.457 2.685-3.84 1.147s-5.363-1.537-8.445-.765c-3.068.765-4.98 1.14-2.303 2.302 2.692 1.155 4.995 2.295 1.92 3.075-3.068.758-5.947.953-5.947.953 3.075 1.92 4.027 2.678 6.142 3.075 2.107.382 2.107 0 4.418.952 2.295.967 1.147 1.155 3.645.967 2.5-.2 4.4-.78 5.947-.2l5.048.03 1.282-7.305m56.61-24.954c-3.84 1.14-5.752 1.538-6.907-1.545-1.155-3.075-5.76-1.912-7.673-1.14-1.92.765-4.612 1.14-5.76 1.14s-5.37-2.677-3.067-3.45c2.302-.765 1.147-6.143-5.37-3.84-6.525 2.295-11.513 1.537-6.908 3.457 4.598 1.92 7.3 4.995 1.92 6.517-5.37 1.538-7.3 3.458-9.2 3.84-1.92.375-1.538 1.155-3.84-2.303s-3.457-6.135-6.908-3.457c-3.457 2.692-2.685 4.995-4.222 6.135-1.538 1.163-2.685 1.163-2.685 1.163l-1.305-4.237.728 3.27a11.44 11.44 0 0 0 .577 2.108l.577 2.123 2.108-.203s.577-.57 1.148-1.537c.57-.952 1.725.202 1.725.202s.382-.382.188-1.342c-.187-.953-.57-.765.195-2.685s.765-1.725 2.685-2.303c1.92-.585 2.302.382 3.075 1.717.765 1.35-.195 1.92-.195 3.075s-.765 1.92-.765 1.92 1.725 1.537 1.92 2.873c.188 1.342.57 1.725.57 1.725s1.92.78 4.035.78c2.108 0 4.605.382 4.605.382l-.383 1.327s-.96.383-1.732.383c-.765 0-1.53.765-3.45.967-1.92.188-3.457 0-3.457 0l-.765 3.06s0 1.92.188 3.075c.127.765.585 5.303.885 9.113l52.343.293V246.4s-1.027.757-4.868 1.92m-42.612 103.634c-39.533.765-60.255-4.222-93.263-16.507-33.007-12.278-34.162 2.295-44.52 10.373l-3.945 5.348 2.325-1.072.465.322c33.007 30.322 66.78 61.215 138.938 61.598 70.238-.765 101.707-31.658 134.715-61.98l.525-.397 2.438 1.147-3.345-5.73c-10.365-8.07-14.205-19.583-41.07-9.608-33.015 12.262-53.73 17.272-93.262 16.507v16.9c60.42-.337 84.2-11.483 99.788-18.578-19.5 15.78-46 40.245-99.788 38.715-53.993 1.53-84.615-22.748-104.213-38.5 16.305 7.013 43.343 18.015 104.213 18.353v-16.9" fill="#fff"/><g fill="#ffb935"><path d="M371.77 280.92c.975-1.095 1.56-2.565 1.56-4.14a6.31 6.31 0 0 0-6.307-6.315 6.31 6.31 0 0 0-6.308 6.315 6.26 6.26 0 0 0 1.312 3.848m-17.01-2.428h14.25v-1.493h-14.25v1.493z"/><path d="M359.223 275.2l-12.503-1.515-.135 1.147 12.495 1.507.143-1.14m.352-1.553l-13.177-5.835-.465 1.058 13.177 5.827.465-1.05m.93-1.47l-10.815-6.442-.585.982 10.815 6.442.585-.982m.953-1.3L350.47 258.8l-.855.78 10.995 12.097.848-.78m1.455-.967l-7.3-10.268-.937.66 7.282 10.282.945-.675m1.397-.79l-5.993-18.015-1.087.353 5.985 18.03 1.095-.367m1.7-.277l-2.498-12.353-1.132.24 2.505 12.33 1.125-.233m1.6-.148l1.822-18.907-1.147-.12-1.815 18.915 1.14.112m1.688.4l2.708-12.293-1.125-.248-2.708 12.308 1.125.233m1.512.5l9.315-16.567-1.005-.555-9.315 16.553 1.005.57m1.375 1.06l7.455-10.132-.93-.7-7.447 10.148.922.675m1.193 1.095l15.218-11.37-.7-.923-15.217 11.37.7.923m.816 1.538l10.92-6.27-.57-.998-10.92 6.255.57 1.012m.653 1.447l12.817-2.933-.255-1.1-12.817 2.933.255 1.1m.127 1.74l12.525-1.312-.12-1.148-12.525 1.305.12 1.155m.008 1.6l11.67 2.258.218-1.125-11.67-2.257-.218 1.125"/></g><path d="M342.558 63.63c25.328 0 52.672 6.323 73.395 17.265 0 0 2.017 0 3.457-2.88 1.44-2.873 2.018-3.165 2.018-3.165s11.512 10.073 17.257 12.098c0 0-2.587-5.475-2.587-11.805l13.815-4.028c-10.072-4.605-22.447-12.382-28.785-19.297-6.33-6.9-16.695-9.488-17.842-3.443-1.148 6.038-2.595 8.047-2.595 8.047s-24.172-9.495-58.14-9.495c-33.96 0-58.14 9.495-58.14 9.495s-1.44-2-2.595-8.047c-1.147-6.045-11.513-3.457-17.842 3.443-6.338 6.915-18.713 14.677-28.785 19.297l13.815 4.028c0 6.33-2.588 11.805-2.588 11.805 5.745-2.025 17.258-12.098 17.258-12.098s.577.293 2.017 3.165c1.44 2.88 3.457 2.88 3.457 2.88C289.87 69.954 317.215 63.63 342.55 63.63" fill="#ef1439"/><path d="M232.503 130.876c3.067-.187 4.605-1.7 7.3-.757 2.685.968 4.027 1.725 6.142 3.645l1.148.952s-2.5-.952-3.45.195c-.96 1.155-4.417 1.343-5.565 0-1.155-1.335-.772-1.92-2.303-2.302-1.537-.383-2.302-.195-4.417-.953-2.108-.78-2.108-.967-2.108-.967l4.988.78c1.342.173 2.303-.2 3.262.945s.578.968 1.343.382c.757-.57 1.343-1.537 1.92-1.155.57.382 2.1.202 1.53 1.537-.577 1.35-.382 1.35-.382 1.35s.57-.382 1.53-.57c.96-.195 1.342-.195 1.342-.195l-4.8-2.505c-.945-.57-1.905-.757-3.832-.57l-3.637.187m31.086 6.73c-1.732-.382-1.732.382-3.645 1.14l-3.075 1.163s1.538 1.14 2.88.757 3.45-1.155 4.605-1.155l-.765-1.92m-53.17-10.36c2.498-1.14 2.115-1.335 5.377-.757 3.255.57 4.98.375 6.705 2.693 1.725 2.303-3.255 1.92-4.598 1.14-1.342-.757-7.3-1.92-8.062-3.075m223.373 16.41c-3.45 4.9-7.005 1.065-4.028-2.303 1.08-1.215 1.485-1.35 2.303-1.785 2.04-1.132 4.32-1.38 4.32-1.38s-3.742 1.23-5.04 2.813-.217 1.432-.502 2.52c-.292 1.072-.143 1.012.72.353.863-.645 1.005.075 1.582-1.14.577-1.238 1.222.127.645.923m12.275-7.77c2.5-1.725 4.223-3.075 5.753-3.457 1.538-.375 2.692-.187 4.035.382 1.342.585 1.92.968 1.92.968l-3.263-.382s-1.155 4.605-2.88.577l-2.88.952-2.685.96m19.008-1.9c.96-.765.765-1.163 3.067-1.733s2.685-1.35 4.223-.967l4.417.967s-2.115 1.733-5.76 1.733h-5.947M330.37 76.68c2.303.952 4.125 1.7 7.672 4.012 3.555 2.317.48 1.83-.57.968-1.058-.863-1.732-.765-1.732-.765s-1.44 1.523-2.302-.375c-.863-1.92.195-1.44-.863-2.13l-2.783-1.62.577-.1m-2.684 88.856c0-2.115-.195-3.082.765-3.945.96-.847 3.158-2.002 3.158-2.002s-1.62.278-2.1 2.782-.96 3.54-.48 4.118l-1.538-.1.195-.863m7.77.678c.382-.375.863-.96.382-2.295-.48-1.35-1.147-2.887-.675-3.165.48-.293.772-.488 1.058 1.14.292 1.628 0 3.36 1.058 4.4l-.96-.382-.863.293m-12.187.585l.96 1.433.765-1.523m6.337.66s.668.57 1.05 1.92c.4 1.342.4.772.4.772l.563-1.35c.195-.375.4-1.245.4-1.245l-2.4-.097m8.62-.486c.382.585.96 2.13.96 2.13s.097-.382.577-.967c.48-.578.66-1.627.66-1.627l-1.905.292m7.958-.106c-.188.488.48 2.107.48 2.107l1.253-2.107h-1.732m8.256.674l1.44 1.905.667-2.197-2.107.293m6.045-.57l1.342 2.093s.098-.1.48-.757c.382-.675.863-1.822.863-1.822l-2.685.487m-16.792 95.46l.96-5.565.57.195-.765 5.565m-1.343 2.11l-2.108 16.507-.96 1.733-.772.375.577.577-1.14 4.215 1.522.382.772-4.98s.765-1.35 1.148-2.887 1.725-16.1 1.725-16.1m-19.76 25.124s2.108-1.14 3.45-.187c1.35.968-.188 1.537-.952 1.537-.773 0-2.498-1.35-2.498-1.35m13.627-.76l.382.57s-.577.188-2.497.188-3.067-1.14-3.067-1.14M277.6 329.394l-1.538-3.442-4.687 4.3 1.23-1.23-8.632-.848s4.027.848 4.9 1.44c.772.5 1.538 1.245 1.695 1.387l-.353.322 7.395-1.92m-80.995 18.037c2.303.293 6.907-.292 7.77-.862l-1.147 4.897-1.733.57-4.9-4.605m223.668-14.4l.285-1.14-5.175-4.32-2.302 3.165 7.192 2.295m57.862 7.206l4.312 2.58-1.147 1.748-3.457-1.748.293 6.915-1.44-5.76-1.732-.863 3.173-2.873m-233.042 5.73c-.217.645.188 1.185.788 1.395.57.172 1.192-.1 1.387-.675.285-.877-.367-1.395-.96-1.83-.48-.352-.892-.66-1.155-1.2a2.44 2.44 0 0 1-.127-1.763c.435-1.335 1.852-1.935 3.142-1.522 1.245.412 2.032 1.815 1.605 3.075l-1.538-.495c.142-.517-.165-.998-.63-1.148-.495-.157-.937.105-1.08.593-.2.585.262 1 .7 1.313.502.383.998.735 1.327 1.26.428.645.5 1.335.248 2.13-.473 1.433-2.033 2.168-3.465 1.68-1.38-.45-2.265-1.92-1.8-3.323l1.567.5m6.996-4.122l1.5.488-2.64 8.085-1.5-.487 2.64-8.085m12.593 13.2c-.772-.187-1.44-.66-1.912-1.3-.773.2-1.74.135-2.52-.113-2.332-.735-3.742-3.195-2.993-5.572.375-1.155 1.08-2.077 2.145-2.618a4.55 4.55 0 0 1 3.473-.278c2.347.743 3.772 3.188 3 5.625-.33 1.035-.885 1.77-1.8 2.325a2.11 2.11 0 0 0 .795.502l.24.068-.428 1.35m5.37-7.473l-1.522 5.085c-.113.368-.248.758-.173 1.14.098.488.398.878.87 1.028.397.112.87.015 1.2-.263.345-.308.457-.735.585-1.162l1.523-5.078 1.507.45-1.522 5.085c-.24.802-.533 1.538-1.252 2.017-.72.472-1.65.66-2.475.413-.772-.233-1.455-.892-1.793-1.613-.4-.848-.232-1.62.023-2.475l1.523-5.078 1.507.45m9.914 2.917l3.765 1.005-.397 1.47-2.437-.645-.503 1.9 2.3.615-.4 1.478-2.317-.615-.502 1.9 2.438.645-.397 1.478-3.953-1.05.57-2.13-2.182-.57-1.845 1.778-1.77-.473 7.62-6.765m6.227 1.503l2.407.5c.773.195 1.515.398 2.018 1.057.495.63.7 1.478.525 2.258a3.05 3.05 0 0 1-1.08 1.665c-.495.352-1.05.472-1.65.472l1.582 3.555-1.898-.405-1.492-3.652-.683 3.18-1.545-.337 1.815-8.317m6.834 1.424l1.553.292-1.515 8.37-1.553-.277 1.515-8.385m3.615 6.834c-.097.668.4 1.14 1.02 1.23.592.082 1.155-.285 1.245-.915.127-.923-.6-1.298-1.26-1.62-.533-.262-1-.502-1.35-.982-.345-.488-.5-1.148-.427-1.717.202-1.388 1.493-2.228 2.835-2.033 1.297.188 2.317 1.433 2.115 2.752l-1.612-.233c.06-.532-.323-.952-.817-1.027-.5-.06-.9.277-.96.78-.097.615.435.938.915 1.17.562.293 1.1.555 1.53 1.013.532.57.728 1.23.608 2.047-.217 1.493-1.627 2.475-3.12 2.272-1.433-.225-2.565-1.507-2.347-2.977l1.627.24m8.893 3.5l.683-8.482 1.995.165c.817.06 1.6.1 2.25.63a2.6 2.6 0 0 1 .952 2.227c-.06.833-.472 1.613-1.178 2.078-.742.5-1.732.382-2.565.307l-.308-.015-.255 3.2-1.575-.12m7.448-7.954l4.56.217-.075 1.538-2.993-.158-.098 1.958 2.865.15-.083 1.523-2.857-.15-.105 1.965 2.993.15-.082 1.523-4.56-.233.435-8.498m6.338.32l1.77.06 3.36 6.308.188-6.2 1.575.045-.255 8.497-1.748-.045-3.382-6.3-.187 6.195-1.575-.038.255-8.512m8.9.224l1.575.03-.157 8.498-1.575-.03.158-8.497m3.614.073l1.777.015 3.473 6.255.068-6.2 1.575.015-.1 8.505-1.755-.03-3.495-6.225-.068 6.195-1.583-.023.098-8.497m9.918 6.2c-.007.675.54 1.065 1.178 1.065.6 0 1.1-.435 1.1-1.05.008-.937-.772-1.215-1.477-1.455-.562-.187-1.042-.345-1.463-.787a2.42 2.42 0 0 1-.66-1.643c.007-1.387 1.162-2.4 2.52-2.4 1.313.015 2.5 1.095 2.475 2.43h-1.627c-.015-.54-.45-.893-.945-.893-.518 0-.855.382-.848.893-.007.615.555.862 1.065 1.043.6.202 1.17.382 1.65.787.608.488.893 1.118.885 1.935-.007 1.523-1.267 2.685-2.775 2.685-1.447-.015-2.745-1.148-2.737-2.625l1.65.015m6.94-6.114l.075 5.303c0 .382-.015.795.173 1.147.24.435.645.72 1.132.72.412-.015.833-.255 1.058-.623.24-.4.225-.832.217-1.282l-.075-5.303 1.575-.015.075 5.303c.015.833-.045 1.635-.592 2.3-.54.66-1.373 1.118-2.235 1.132-.8.015-1.65-.413-2.2-.998-.63-.705-.713-1.478-.728-2.377l-.06-5.303 1.575-.015m6.152-.1l1.575-.06.24 6.975 2.602-.1.052 1.523-4.177.15-.293-8.498m8.244-.344l1.23-.075 4.065 8.28-1.733.097-1.042-2.137-3.015.18-.8 2.25-1.74.1 3.045-8.685m5.967-.376l2.145-.202 2.88 6.27 1.688-6.697 2.13-.187.795 8.468-1.567.142-.585-6.353-1.598 6.563-1.335.113-2.782-6.135.592 6.345-1.567.143-.795-8.468m16.987-1.922l1.215-.173 4.793 7.898-1.725.247-1.23-2.04-2.985.442-.607 2.303-1.718.262 2.258-8.94m5.894-.893l2.115-.397 3.465 5.947 1.042-6.825 2.108-.398 1.6 8.37-1.538.277-1.2-6.255-.96 6.675-1.312.255-3.36-5.85 1.2 6.255-1.545.307-1.605-8.363m18.95 4.646l-.225-.908c-.397.832-1.53 1.508-2.4 1.732-2.348.57-4.657-.952-5.227-3.255-.57-2.355.757-4.747 3.127-5.332.885-.218 2.175-.143 2.925.442l-.225-.937 3.96-.968.368 1.478-2.453.6.465 1.905 2.332-.57.36 1.478-2.325.57.473 1.905 2.445-.6.368 1.493-3.968.968m3.562-9.73l1.695-.495 5.168 4.95-1.77-5.962 1.515-.45 2.422 8.16-1.68.495-5.183-4.92 1.762 5.933-1.507.45-2.423-8.16m11.14-3.457l1.17-.4 6.112 6.915-1.642.555-1.575-1.785-2.858.96-.187 2.392-1.65.555.63-9.203m5.662-1.917l2-.765 4.447 5.257-.158-6.9 1.995-.757 3.03 7.935-1.47.577-2.273-5.962.218 6.75-1.245.472-4.32-5.175 2.273 5.962-1.477.54-3.03-7.935m-178.257 31.39c.24-1.35.368-3-1.102-3.982-1.7-1.125-3.368.217-4.418 1.815-1.267 1.92-1.927 4.238-.157 5.392 1.35.893 2.782.1 4-.585l1.478 1.725c-1.598 1.26-4.08 1.762-6.863-.1-3.15-2.077-4.53-5.34-2.325-8.685 2.205-3.322 5.76-3.338 8.505-1.523 1.207.795 1.5 1.493 1.7 2l.45-.322 1.298.863-.487 4.162-2.078-.765m4.214 9.41l.472.278c.885.502 1.545.8 2.04-.1l3.158-5.55c.502-.877-.097-1.3-.983-1.785l-.465-.262.728-1.3 7.38 4.177-.735 1.283-.465-.262c-.885-.495-1.545-.788-2.047.1l-3.15 5.535c-.495.892.1 1.305.975 1.807l.473.277-.735 1.275-7.373-4.193.728-1.3m13.52 7.534l.495.203c.93.412 1.62.645 2.025-.293l2.528-5.857c.405-.923-.225-1.275-1.163-1.688l-.495-.202.592-1.365 7.432 3.225c3.6 1.553 4.988 4.132 4.35 5.6-.645 1.478-2.347 1.905-4.2 1.478l.6 2.858c.2 1.043.435 1.5 1.673 2.04l.668.278-.593 1.365-5.123-2.227-.967-5.558-.848-.36-.855 1.958c-.405.938.195 1.26.998 1.613l.517.233-.585 1.35-7.643-3.293.593-1.365m32.61 5.603c-.187-1.365-.592-2.985-2.287-3.457-1.988-.525-3.127 1.275-3.63 3.105-.6 2.227-.502 4.627 1.537 5.2 1.575.42 2.678-.795 3.608-1.807l1.943 1.177c-1.118 1.695-3.323 2.94-6.548 2.063-3.63-.998-5.97-3.66-4.92-7.515 1.043-3.87 4.418-4.995 7.598-4.117 1.387.367 1.9.938 2.242 1.35l.337-.442 1.5.412.847 4.102-2.227-.06m16.163-1.475l-.187 1.463-.518-.06c-.803-.097-1.207.03-1.282.615l-.758 5.917c-.142 1.208.54 1.995 2.018 2.183 1.613.2 2.317-.33 2.512-1.815l.728-5.708c.068-.577-.195-.8-.953-.9l-.855-.113.187-1.47 6.405.825-.188 1.463-.72-.1c-.96-.112-1.26.045-1.327.615l-.788 6.142c-.33 2.602-2.955 2.902-5.648 2.565-5.137-.66-5.452-2.655-5.197-4.687l.683-5.423c.075-.555-.323-.817-1.32-.952l-.517-.06.188-1.478 7.545.967m13.057 11.39h.54c1.012-.015 1.74-.068 1.732-1.08l-.053-6.405c-.007-1.005-.735-1.065-1.748-1.05h-.547l-.007-1.485 7.3-.052 2.67 6.308h.045l2.565-6.353 7.215-.06.008 1.478h-.533c-1.012.015-1.74.1-1.725 1.102l.045 6.368c.007 1.027.727 1.087 1.74 1.072h.548l.007 1.478-7.957.06-.015-1.463.608-.015c1 0 1.418-.15 1.4-.825l-.045-6.592h-.045l-3.675 8.925-1.53.015-3.84-8.94h-.045l.053 6.667c0 .7.435.8 1.425.8h.593l.007 1.463-6.727.06-.007-1.485m26.7-2.96l1.778-.908c1.103.788 3.3 2.123 5.55 1.77 1.3-.188 2.055-.863 1.98-1.35-.113-.727-.87-.907-2.437-1.155l-4.223-.705c-1.7-.292-2.798-1.26-3-2.4-.3-1.935 1.703-3.855 4.493-4.3a7.4 7.4 0 0 1 2.827.142l.023-.375 1.56-.255 2.392 2.872-1.8.923c-1.222-.982-2.685-2.003-4.582-1.7-1.132.173-1.658.758-1.567 1.327.113.735 1.35.915 2.64 1.133l3.998.615c1.755.262 2.805 1.095 3.015 2.46.315 2.025-2.018 3.915-4.935 4.365-.645.12-1.725.203-3.27-.135l-.038.443-1.83.292-2.58-3.075m19.986-1.522l.525-.15c.983-.262 1.658-.5 1.395-1.493l-1.68-6.15c-.263-.983-.983-.855-1.958-.585l-.525.142-.4-1.433 7.597-2.07c3.18-.878 6.555-.66 7.215 1.747.683 2.52-2.97 4.132-6.082 4.98l-.96.263.57 2.062c.262.983.975.87 1.958.593l.847-.24.4 1.44-8.513 2.3-.4-1.418m20.36-6l.503-.173c.952-.367 1.605-.675 1.252-1.627l-2.235-5.977c-.353-.953-1.058-.765-2.003-.412l-.5.195-.517-1.395 7.942-2.955.525 1.387-.5.18c-.953.345-1.605.668-1.252 1.62l2.235 5.977c.36.953 1.058.765 2 .412l.503-.187.517 1.373-7.942 2.978-.518-1.38m21.485-15.43c-1.035-.892-2.4-1.86-4-1.095-1.853.877-1.53 3-.712 4.717.998 2.077 2.64 3.825 4.553 2.918 1.463-.705 1.5-2.363 1.538-3.743l2.25-.375c.263 2.018-.592 4.4-3.607 5.843-3.4 1.642-6.908 1.14-8.64-2.46-1.725-3.607.083-6.653 3.053-8.085 1.305-.615 2.055-.517 2.595-.428l-.038-.555 1.403-.675 3.315 2.55-1.717 1.387m10.664.94l.45-.307c.84-.555 1.395-1.005.832-1.86l-3.562-5.288c-.57-.832-1.207-.495-2.048.075l-.45.308-.825-1.23 9.93-6.698 3.7 1.35-1.342 1.612c-2.018-.863-3.952-.1-5.895 1.215l-.412.277 1.912 2.827.765-.5c.7-.472.9-.923.48-1.553l-.263-.382 1.725-1.155 2.618 3.877-1.717 1.162-.278-.412c-.4-.57-.803-.825-1.68-.218l-.765.5 1.98 2.933.637-.427c2.467-1.658 3.263-2.752 3.593-5.318l1.935-.7-.06 4.102-10.418 7.043-.833-1.23"/><path d="M274.255 62.094l5.6-1.95.652 1.875-3.675 1.275.832 2.4 3.517-1.215.653 1.875-3.518 1.215.833 2.4 3.675-1.275.653 1.9-5.6 1.95-3.63-10.44m20.573 5.022l-2.782-10.702 2.52-.66c1.028-.262 1.988-.555 3.045-.18 1.043.367 1.837 1.26 2.122 2.332.27 1.042.097 2.183-.57 3.06-.697.938-1.957 1.2-3.015 1.477l-.4.1 1.05 4.058-1.98.525m6.273-12.986l2-.442L305 62.573l3.3-.72.42 1.95-5.302 1.155-2.355-10.823m9.46-1.92l1.162 6.8c.082.503.142 1.013.457 1.44.382.5.96.787 1.598.7a1.71 1.71 0 0 0 1.237-1.013c.225-.54.113-1.118.015-1.687l-1.155-6.795 2.025-.353 1.155 6.795c.18 1.088.27 2.13-.292 3.1-.57.968-1.545 1.732-2.655 1.92-1.028.18-2.205-.203-3.015-.848-.937-.78-1.2-1.755-1.395-2.888l-1.155-6.8 2.018-.338m8.527-1.383l3.18-.36c1.042-.105 2.032-.15 2.947.435.863.57 1.463 1.538 1.583 2.565.1.802-.165 1.845-.63 2.5s-1.103 1.042-1.83 1.3l3.442 3.72-2.513.277-3.367-3.877.48 4.215-2.032.233-1.26-10.995m9.563-1.003l2.04-.15.825 11.032-2.048.142-.817-11.025m5.13-.365l2.002-.06c1.005-.03 2.017-.12 2.963.322.923.443 1.597 1.395 1.627 2.43.03.862-.345 1.733-1.14 2.153 1.223.337 1.928 1.35 1.972 2.6.03 1.08-.427 2-1.267 2.677-.847.675-1.973.765-3.03.825l-2.767.097-.36-11.055m11.82-.17l-.18 6.885c-.015.518-.06 1.043.173 1.515.285.57.795.96 1.44.975a1.69 1.69 0 0 0 1.41-.742c.33-.502.33-1.073.345-1.658l.18-6.9 2.048.06-.18 6.9c-.03 1.095-.142 2.123-.885 2.97-.743.825-1.845 1.38-2.97 1.35-1.043-.015-2.123-.615-2.8-1.402-.788-.937-.848-1.95-.817-3.113l.18-6.892 2.047.052m9.28 8.37c-.075.877.6 1.433 1.425 1.507.772.06 1.478-.472 1.545-1.275.097-1.2-.893-1.658-1.778-2.025-.713-.292-1.32-.555-1.823-1.17a3.11 3.11 0 0 1-.697-2.183c.15-1.8 1.748-3 3.5-2.873 1.703.15 3.12 1.673 2.962 3.398l-2.1-.172c.03-.7-.503-1.185-1.14-1.245-.675-.06-1.148.427-1.185 1.08-.083.795.637 1.177 1.275 1.455.757.322 1.485.615 2.07 1.185.735.7 1.043 1.522.953 2.595-.157 1.973-1.905 3.368-3.863 3.203-1.875-.158-3.442-1.74-3.293-3.66l2.137.18m20.082-5.454l-1.297 6.78c-.098.503-.225 1.013-.083 1.515.188.6.63 1.065 1.268 1.2a1.69 1.69 0 0 0 1.507-.502c.405-.435.502-1.005.608-1.583l1.305-6.78 2.003.398-1.3 6.765c-.2 1.072-.487 2.07-1.357 2.797-.87.705-2.048 1.058-3.15.847-1.028-.187-1.995-.96-2.528-1.86-.622-1.035-.517-2.062-.3-3.187l1.298-6.772 2.017.382m8.46 1.704l2.235.57 2.483 8.963 1.98-7.838 1.988.502-2.707 10.718-2.205-.555-2.52-8.932-1.98 7.792-1.987-.502 2.715-10.718m13.686 3.7l-2.048 6.593c-.15.48-.337.968-.248 1.477.12.63.5 1.155 1.125 1.35.5.142 1.132.03 1.56-.337.443-.398.6-.937.773-1.493l2.04-6.593 1.958.615-2.04 6.577c-.33 1.035-.72 2.002-1.665 2.618-.937.6-2.145.84-3.225.502-1-.308-1.875-1.177-2.295-2.13-.502-1.1-.285-2.108.052-3.203l2.04-6.592 1.965.615m8.2 2.58l2.618.96-.15 8.955 5.752-6.885 2.6.968-3.832 10.372-1.92-.705 2.872-7.778-5.558 6.78-1.628-.6.195-8.76-2.88 7.777-1.92-.72 3.84-10.365m-110.35 158.445h.667c1.035 0 1.77-.082 1.77-1.538V206.47c-1.928.263-2.603 1.327-4.005 3.54l-1.98-.757 2.445-4.898h11.258l2.28 4.703-1.868.967c-1.035-1.7-2.07-3.165-4.125-3.555v10.657c0 1.455.742 1.538 1.778 1.538h.667v2.13h-8.887v-2.13m20.745-14.325v2.13h-.533c-.825 0-1.215.263-1.215 1.095v8.527c0 1.74.802 2.738 2.325 2.738 1.658 0 2.303-.892 2.303-3.03v-8.22c0-.832-.3-1.1-1.087-1.1h-.87v-2.13h6.585v2.13h-.735c-1 0-1.267.308-1.267 1.1v8.865c0 3.75-2.625 4.642-5.392 4.642-5.288 0-5.865-2.783-5.865-5.715v-7.792c0-.802-.443-1.1-1.47-1.1h-.525v-2.13h7.755m8.923 14.314h.555c1.035 0 1.77-.082 1.77-1.538v-9.105c0-1.455-.735-1.553-1.77-1.553h-.555v-2.115h12.225l2.348 4.56-2.048.832c-1.223-2.64-3.293-3.277-5.685-3.277h-.5v4.9h.945c.855 0 1.3-.368 1.3-1.463v-.66h2.115v6.705h-2.115v-.727c0-.983-.2-1.613-1.3-1.613h-.945v5.063h.788c3.037 0 4.327-.637 6.075-3.428l2.025.75-2.392 4.808H324.55v-2.13m16.598-.01h.555c1.035 0 1.77-.082 1.77-1.538v-9.105c0-1.455-.735-1.553-1.77-1.553h-.555v-2.115h6.285c3.435-.045 7.252.488 7.298 4.32.022 2.055-1.335 3.4-4.283 3.668v.045c3.368.037 5.273 1.9 5.325 3.735 0 4.365-3.87 4.657-7.163 4.657h-7.463v-2.115m23.918-14.617c4.882 0 6.885 4.238 6.885 8.512 0 4.3-2.003 8.528-6.885 8.528-3.84 0-6.855-2.798-6.855-8.528 0-5.7 3.015-8.512 6.855-8.512m8.873 14.618h.547c1.043 0 1.778-.082 1.778-1.538v-9.105c0-1.455-.735-1.553-1.778-1.553h-.547v-2.115h8.265c4.005 0 6.352 2.58 6.352 4.883 0 2.295-1.425 3.817-3.337 4.32l1.725 3.413c.615 1.23 1.005 1.695 2.392 1.695h.735v2.13h-5.715l-3.143-6.728h-.945v3.06c0 1.455.682 1.538 1.582 1.538h.577v2.115h-8.5v-2.115M263.163 351.88c.593-.322 1.005-.877 1.215-1.538.488-1.537-.353-3.2-1.897-3.705a2.99 2.99 0 0 0-2.295.233c-.608.308-1.17.908-1.38 1.567l-.12.457.105 1.357c.337 1.028 1.065 1.658 2.077 1.965.353.12.63.075 1.005.03l1.3-.367m15.372 3.15l.563-2.107-1.838 1.77 1.275.337m9.173 1.44c.397.083.93.143 1.298-.075.3-.195.502-.473.577-.825.082-.345 0-.743-.248-1.02-.3-.352-.653-.457-1.08-.548l-.855-.172-.54 2.46.848.18m20.062 2.7c.4.03.832.1 1.222 0 .473-.12.8-.495.848-.982.045-.5-.27-.908-.728-1.08-.338-.12-.825-.135-1.17-.15l-.285-.03-.18 2.213.293.03m57.1 1.54l-1.058-2.52-.757 2.64 1.815-.12m39.705-5.994c.367 1.508 1.868 2.43 3.368 2.07 1.493-.368 2.348-1.905 1.988-3.4-.368-1.493-1.822-2.528-3.367-2.153-1.605.412-2.37 1.92-1.988 3.473m23.992-6.342l-1.687-2.16-.037 2.745 1.725-.585M278.958 389c1.425.615 3.202 1.072 3.795-.308.563-1.298-.862-2.3-2.558-3.045l-.457-.202-1.425 3.293.645.263m104.992 6.405l.825-.217c1.395-.383 2.782-1.147 2.422-2.452-.397-1.463-2.295-1.298-3.773-.892l-.412.12.938 3.442m4.3-37.163l-1.275-2.415-.525 2.677 1.8-.263" fill="#fff"/><path d="M295.615 60.54c.488-.135 1.065-.255 1.5-.532.533-.338.795-.937.63-1.568-.165-.645-.72-.997-1.358-.997-.465-.015-1.065.18-1.5.292l-.367.1.727 2.797.367-.082m27.186-4.8c.533-.06 1.215-.217 1.567-.645a1.65 1.65 0 0 0 .368-1.26c-.053-.473-.315-.922-.735-1.155-.517-.308-.998-.278-1.56-.195l-1.132.12.375 3.248 1.118-.112m14.147 2.72c.6-.015 1.147-.06 1.68-.435.368-.27.517-.63.502-1.087-.015-.54-.285-.862-.772-1.1-.465-.225-.96-.195-1.455-.18l-.9.03.1 2.828.855-.03m-.633-4.816c.435-.015 1.005-.015 1.387-.203s.608-.615.6-1.043c-.015-.45-.315-.802-.72-.952-.397-.157-.915-.068-1.35-.053l-.375.015.075 2.25.375-.015" fill="#ef1439"/><path d="M347.943 211.224c1.403 0 2.505-.923 2.505-2.183 0-1.507-1.035-2.34-2.595-2.34h-.375v4.523h.465m0 7.44c2.115 0 3.27-.975 3.27-2.445 0-1.927-1.957-2.632-3.202-2.632h-.532v5.077h.465m17.12.166c1.988 0 2.467-3.442 2.467-6.2s-.48-6.2-2.467-6.2c-1.95 0-2.437 3.442-2.437 6.2s.487 6.2 2.438 6.2m15.914-7.02c1.6 0 3.435-.405 3.435-2.558 0-2.025-1.755-2.55-3.645-2.55h-.502v5.108h.712" fill="#006fff"/><g fill="none" stroke="#000" stroke-width=".863"><path d="M203.523 344.28s1.155.375.765 3.075c-.383 2.677-1.53 5.737-3.833 3.817-2.303-1.912-4.223-4.597-5.76-5.737-1.537-1.155-1.92-1.155-1.537-4.613.4-3.458 1.92-16.118 0-19.575-1.913-3.457-2.303-7.3-1.913-10.748.382-3.457-1.155-4.98.765-6.9s7.673-7.297 7.673-16.507c0-9.217-5.37-16.5-5.37-16.5s-3.84 3.067-3.067-1.92c.765-4.995-1.538-14.97 8.82-25.702 10.365-10.755 20.348-16.9 22.268-21.127 1.912-4.215 4.605-14.572 4.605-14.572l-2.303 1.14s.382-3.458.765-4.98c.375-1.538 1.148-4.598 1.148-8.055s-1.148-12.293-1.148-12.293l-2.685 1.537v-4.597s0-1.92-1.537-2.692c-1.537-.765-2.685-1.537-2.303-3.457s0-4.223 0-4.223l-3.067 1.92s2.685-8.055 1.53-16.493c-1.147-8.452-.765-15.735.773-19.582 0 0-9.983-1.523-11.903-8.82 0 0 1.92-1.92 5.377-3.457 3.45-1.523 9.202-1.523 14.963 2.692l1.3-.675-8.775-6.045c-4.598-3.165-6.757-5.903-6.757-5.903s-24.038 3.308-28.215-4.605c0 0 13.238 5.468 15.968-4.9l-7.905-5.317s16.1 7.912 17.985-14.693c0 0 2 3.9.577 11.235-1.44 7.343 5.753 15.397 5.753 15.397s1.005-2 1.005-4.9c0 0 1.012-.87 2.595 5.6 0 0 8.348-3.885 7.627-20.437 0 0 1.298-3.308 1.298 1.155 0 4.455.72 10.065-4.463 19.575-.863 1.86 0 3.6.998 4.155 1.013.585 2.018 1.163 2.303-.127.293-1.305.863-4.748 0-7.778-.862-3.023-.135-2 .577-1.148.72.87 2.88 2.303 2.88 8.34 0 1.447-.435 2.46 2.16.585 2.588-1.875 4.17-4.32 5.752-7.05 1.582-2.738 2.16-2.587.862.72-1.3 3.292-2.872 6.9-.72 5.6 2.16-1.3 10.65-7.193 13.102-11.805 2.445-4.598 3.015-3.735 1.725-.15-1.297 3.607-1.582 5.333-4.32 7.927-2.73 2.58-3.165 2.738-.143 1.582s9.2-3.307 11.513-7.635c2.302-4.32 3.742-6.045 2.88-3.015-.862 3.015-2.16 5.317-.142 4.9 2-.435 9.067-3.307 12.232-7.92 0 0-2.88 9.795-13.095 14.542-10.223 4.748-14.25 5.318-14.25 5.318s7.193.585 8.633 1.013 3.743 1.3.143 1.582c-3.593.293-13.38-.293-14.963.293-1.582.57-3.022 2.302-1.44 3.292 1.582 1.013 9.352 4.763 12.1 6.915 2.723 2.152 5.175 3.022 6.758 3.457 1.582.428 4.313 1.44 4.605 4.597.285 3.165.72 3.023-.143 4.328-.87 1.282-.72 5.025-4.462 5.46-3.735.442-6.038 0-7.05 1.14-1.005 1.163-1.147 1.598-1.147 1.598M200.643 99.46c-.72-3.015 0-5.04.577-2.873.578 2.153.863 2.445.863 2.445m49.515 52.68l8.348 9.488c2.865 3.165 3.45 3.165 4.882 7.485 1.44 4.313 3.458 5.175 4.9 6.915 1.44 1.718 5.76 9.495 5.76 9.495s6.33-2.303 12.1-4.027c5.76-1.733 12.953-6.345 16.118-6.053 3.173.292 4.32.292 5.76 4.897 1.44 4.598 2 6.893 2 6.893m-28.2 16.425c-1.44 1.433-3.743 2.887-4.028 4.32l-1.155 6.052 11.805 4.875m-.187 47.902c-2.603.435-7.14-1.785-6.435-5.58.863-4.605 1.44-6.33-.285-8.355-1.725-2.002-1.155-2.572-.577-9.195s2.595-14.678-1.725-14.97c-4.32-.277-4.897-.277-5.46 2.873-.578 3.157-6.337 14.677-11.52 19.3-5.175 4.597-10.642 10.942-10.642 10.942s6.037 4.597 1.725 16.68c-4.32 12.105-7.485 17.843-4.605 25.05 2.88 7.192 5.468 10.928 9.788 15.547 4.312 4.598 4.605 5.46 8.347 5.753 3.727.277 7.192-.293 8.625 3.735m-6.623 2.887s0-1.732-4.027-2.303-6.33-2.017-10.65-7.777c-4.32-5.753-4.605-6.037-8.925-8.055-4.32-2-6.045-3.735-7.485-5.76-1.433-2.002-1.725-4.027 0-11.8 1.732-7.778 3.743-7.485-3.158-12.098l-10.072-6.622s-5.76 14.97-15.548 23.895c-9.787 8.918-10.365 7.207-11.228 16.695-.863 9.495-2 18.705.578 22.163 2.595 3.457 4.32 4.598 4.32 4.598m72.532-115.995s-4.32-1.163-6.045-2.303c-1.733-1.155-3.173-1.432-6.915-1.155-3.735.293-10.935-4.027-10.935-4.027m25.327-7.192s-9.2-3.458-10.65-5.2l-5.175-6.33m13.238-16.972s1.155 1.432 2.302 6.623c1.155 5.167 2.595 7.47 2.303 10.35-.285 2.873-.863 4.313-.863 4.313m-53.25 70.53s2-8.918 1.725-13.815c-.285-4.9 2.018-8.918 2.018-8.918"/><path d="M253.038 261.384s-4.035 4.305-5.475 5.168-2.587 4.027-7.77 5.467c-5.183 1.447-8.925 3.165-8.925 3.165M200.065 103.44s4.612 1.92 7.298 5.565c0 0-4.988.577-4.035-3.263m16.9 5.183s-2.108 1.92-3.645-.188m10.17 5.167s3.84.585 5.565 1.92c1.725 1.35 5.947 5.947 5.947 5.947m9.787-11.3s-4.8 2.5-6.33 3.825c-1.537 1.35-3.075.968-2.303 3.855.765 2.873 1.343 3.457 1.343 3.457m23.603 20.138l-5.37 1.537c-2.302.578-3.262 1.717-4.035 2.303-.757.57-3.067.382-3.645.188m130.298 39.923c.4-5.572 2.497-11.895 8.063-11.895s5.565.57 9.022 2.873c3.45 2.295 11.895 7.102 18.225 10.942 0 0 4.793-4.035 4.988-5.76.187-1.732 2.5-3.84 4.215-6.33 1.732-2.505 1.92-2.887 2.115-4.215.195-1.365-1.538-1.92-1.155-4.237.4-2.295-.382-1.92 2.88-5.168 3.262-3.27 9.983-10.373 10.942-12.675.96-2.295 0-2.677-1.732-1.92-1.725.765-1.92 1.92-2.873 2.5-.96.593-4.035.383-5.182-.945-1.148-1.35-6.142-1.35-6.908-4.62-.765-3.247-1.53-8.437 3.833-10.942 5.377-2.475 8.64-2.295 14.782-2.677 2.108-.195 3.645-.57 5.565-2.5 1.913-1.92 6.525-4.222 6.525-4.222s-23.992 3.068-34.357-10.162c-2.295-2.888-2.588-6.053 0-3.18 2.595 2.888 8.64 4.905 8.64 4.905s-.863-4.612.577-3.458c1.44 1.148 7.478 8.063 25.043 6.623.57-4.9-2.88-8.07-17.273-10.08-14.392-2.018-15.255-7.778-16.695-10.35-1.44-2.595-.863-4.327 2.302-1.162s12.1 6.915 12.1 6.915-1.725-3.75-1.725-6.623c0-2.88-.577-3.75 2.587-.585s8.925 8.355 11.512 8.647c2.595.292 6.623 2.588 4.32-3.165-2.303-5.76-3.457-11.22-2.018-15.548 1.44-4.32 1.733-4.028 2.018.285.285 4.32 4.9 12.667 9.2 8.64 4.313-4.028 4.9-3.458 6.33-2.595 1.433.863 3.45 1.163 4.9-1.14l2.303-3.75s-.292 8.055 8.063.863c3.45 2.887 5.753 3.458 7.77-1.155 2-4.598 3.165-2.303 1.725 1.447-1.44 3.735-11.227 11.805-18.42 15.825-7.2 4.042-6.623 6.337-6.623 6.337s6.33-2.295 9.2-3.735c2.88-1.447 6.045-2.588 3.165.57-2.873 3.165-2.587 4.897 2.017 1.733 4.605-3.18 8.925-7.208 7.485-3.75s-.293 4.32 3.45.863c3.735-3.458 2.303-2.595 4.028-4.598 1.725-2.025 6.908-3.457 2.88 2.002-4.035 5.483-13.815 15.84-25.913 17.273-4.312.292-6.607 3.457-.562 3.457 6.038 0 10.928 2.595 10.928 2.595s.578 4.9-9.2 7.762c3.742 16.125 1.725 11.805 0 19.875-1.718 8.048-1.433 14.385-1.433 14.385l-2.88-.293s-.57 4.043-.285 9.217l-2.303.57s-.862.585 2.303 10.65l-2.303 1.433s-.292 1.732 2.303 6.915c0 0-4.028 6.9-2.303 13.245 0 0-3.457-2.595-2.017 2.88m-.27-.007s1.725 10.072 12.375 19.86 16.4 16.1 16.4 23.303c.285 3.18-2.303 2.887-2.303 2.887s-1.732 5.467-4.605 11.805c-2.88 6.33-5.183 7.47-1.732 17.273 3.457 9.787 4.32 7.192 2.595 17.55-1.733 10.358-2.303 17.565-2.018 25.05s-.285 5.737-2.003 6.9c-1.732 1.155-3.457 4.9-4.32 6.623-.863 1.725-1.155 2.588-1.155 2.588l-2.303-8.348s3.457-2.873 4.32-10.65c.862-7.763 3.165-23.595-6.045-36.548S462.3 280.66 462.3 269.716v-5.183s-12.48 8.467-16.125 21.592c-1.44 5.183-.285 7.778.293 10.358.57 2.603 1.44 2.018-2.018 7.2 0 0-8.347 8.925-10.65 13.815-2.303 4.897-3.457 10.065-7.2 10.065-3.735 0-2.467-.15-3.735 1.448l-2.302 2.872-5.752-3.165s1.148-2.295 6.33-5.183c5.183-2.872 12.885-12.45 14.392-22.44 2.303-15.262-4.605-26.5-1.44-35.977 3.165-9.5 6.908-12.098 6.908-12.098s-19.567-11.228-23.3-16.687c-3.742-5.467-2.595-2.025-2.595-2.025l.292 3.457s-3.165-4.32-4.32-9.2c-1.147-4.9 0-8.925-3.742-8.348-3.743.585-5.76-.577-6.908 5.752-1.155 6.33-.577 20.438.285 20.73s2.017 4.32-2 4.9c.862 5.2 1.147 11.512-2.303 13.245m1.995-55.545l7.485-3.165-3.45-3.165m3.45 2.873l7.77-2.595s.293-4.027 1.155-5.2c.863-1.14-.293-1.7 1.725-3.735 2-2.003 4.313-2.295 6.33-3.735 2-1.448 3.45-2.587 3.45-2.587"/><path d="M417.97 192.3s.293-2.6 1.44-4.612m2.303-3.165s1.44 2.587 4.028.277m2.302-12.382s.577 1.455 3.173-1.417c2.587-2.887 3.735-4.613 3.735-4.613m-25.613 53.82l24.465-4.882M462 264.55s.578-3.165-1.44-8.07m-30.5-106.223s2.303 1.732 4.32-.278c2-2.017 4.028-4.597 8.918-3.457m31.185-9.105s-.383-.2-3.45 0l-5.183.172M275.485 155.25c-1.343-21.292 4.222-54.105 22.837-71.76 16.118-13.635 22.838-6.72 21.105-.203-2.5 8.828 2.692 12.48 9.218 17.265 0 0 6.127-9.195 2.482-12.653s-4.222-3.075-4.222-3.075-.765-.57-.765-1.92c0 0-1.147-.172-2.873.203-1.725.382-1.92-1.155-1.147-3.645.765-2.505 3.45-4.598 8.25-2.693 0 0 2.468-2.227 6.525-.765 4.793 1.725 9.015 3.84 11.513 10.357 2.5 6.532 3.06 6.915 4.4 8.835 1.343 1.912 5.948 9.007 5.948 9.007s9.682-7.68 3.832-11.123c-7.47-4.4-9.015-14.775.772-14.205 9.787.585 24.368 5.767 30.705 13.432 6.33 7.673 23.408 25.725 17.655 65.43l-2.88-5.948-.772 3.457s-1.343-1.912-2.1-5.752l-1.538-7.868-1.53 4.4s-1.733-2.873-2.303-8.055l-1.35.57s-2.5-3.255-4.605-10.74l-2.1 3.075-3.84-4.027-.96 2.873s-2.88.57-5.565-3.458-.578 0-.578 0l-1.725 3.645s-2.685-.96-3.45-2.88l-2.303 1.74-2.88-4.995-.96 3.075s-3.458-2.505-3.84-3.645l-1.147 4.027-2.873-2.302m-86.947 30.307l3.067-6.135 1.35 1.523 2.873-5.947 1.335.967s4.8-4.597 5.76-8.452c.96-3.825.195.585.195.585l1.147 1.733s1.155.757 2.303-1.35l4.8-8.835s-.577 3.652 1.537 4.425c0 0 2.483-.773 4.598-4.598l1.53 2.303s3.652-1.545 4.417-3.652l.96 3.06s3.833-2.677 5.565-5.355l1.725 3.832s2.498-1.537 3.645-4.027l4.223 3.06s-1.92 2.7.96 6.142c-.382 2.295 0 6.533 0 6.533l-.765 3.457c-.4 1.7-.772 3.248-.578 5.363.188 2.107.96 4.027 3.262 4.4 2.302.4 3.067.96 5.565 1.342s4.4-.187 6.525-.757c2.1-.585 2.873-2.7 2.685-4.238-.187-1.523-.382-1.14-.382-3.825 0-2.692-.96-4.8.96-4.8s2.303-.765 3.645 2.295c1.342 3.083 1.342 2.303 1.342 5.573 0 3.262 0 5.37 1.913 5.752 1.92.382.96.765 4.4.57l6.337-.375c2.302-.195 3.832-1.537 4.4-3.255.577-1.725.383-2.5.195-4.027-.195-1.538.577.57-.772-2.692-1.343-3.255-2.685-8.437-3.068-11.505-.375-3.075-.96-6.15-.765-9.225m-83.843 23.805c.96-1.732 1.732-22.837 6.915-34.162m-2.88 29.925c.765-1.92 2.107-20.333 6.525-27.435m1.342 18.8c.765-5.377.96-8.648 4.027-15.923m3.645 9.578l1.538-5.55m4.605 4.995l1.155-2.888m103.432 25.515s-.4-7.485-1.342-13.433c-.96-5.947-1.733-8.243-1.733-8.243m-1.53 11.895s-.382-5.377-1.155-10.17c-.765-4.8-2.5-9.022-2.5-9.022m.188 15.165s-1.725-10.357-4.028-17.46m-2.115 7.485c-.96-3.458-3.45-9.975-3.45-9.975m-2.303 8.625l-2.303-6.9m-5.377 5.168l-1.53-3.45m-51.24-21.113l-1.92 8.438 1.92-.555s0 2.678.577 3.06c.57.383.96.383 2.303.57 1.343.195 2.303 2.7 2.303 2.7l1.335-3.27 1.147 1.733.4-.765 1.343 2.873 1.92-2.685 2.108 2.685 1.342-2.873 2.303 1.14 1.335-1.92 2.115 1.92.96-2.873 2.88 1.92.57-3.262 2.685 2.295s-.952-1.537-.57-2.677c.383-1.155.57-2.5.57-2.5l1.343-.202s0-1.335-.57-2.873c-.577-1.523-.382-2.303-.382-2.303"/><path d="M326.148 82.72s2.498-.382 6.33 1.537m-40.103 26.085c0 2.123-.382 5.2 4.222-.952m-2.88-5.565c0 2.107-.383 5.183 4.222-.968m-.382 7.688c0 2.1-.4 5.175 4.215-.96m1.733-3.27c0 2.107-.4 5.182 4.222-.952m-6.525-2.505c0 2.123-.383 5.183 4.222-.952m-7.103-6.915c0 2.122-.382 5.2 4.223-.953m-.195 21.87c0 2.13-.383 5.2 4.222-.952m2.303-12.48c0 2.13-.382 5.2 4.222-.953m-1.725 9.023c0 2.1-.382 5.175 4.223-.96m-3.653 9.023c0 2.107-.382 5.167 4.222-.968m3.075-4.4c0 2.108-.383 5.183 4.223-.952m-19.958-1.155c0 2.107-.4 5.167 4.222-.952M292.18 98.64c0 2.123-.382 5.183 4.222-.952m-8.25 8.438c0 2.123-.383 5.182 4.222-.953m6.908-15.165c0 2.108-.383 5.2 4.222-.968m90.577 21.3c0 2.123.383 5.2-4.222-.952m2.873-5.565c0 2.107.4 5.183-4.215-.968m.382 7.688c0 2.1.383 5.175-4.223-.96m-1.725-3.27c0 2.107.382 5.182-4.222-.952m6.525-2.505c0 2.123.383 5.183-4.222-.952m7.095-6.915c0 2.122.4 5.2-4.223-.953m.195 21.87c0 2.13.382 5.2-4.222-.952m-2.302-12.48c0 2.13.382 5.2-4.223-.953m1.725 9.023c0 2.1.4 5.175-4.215-.96m3.645 9.023c0 2.107.382 5.167-4.223-.968m-3.075-4.4c0 2.108.4 5.183-4.222-.952m19.965-1.155c0 2.107.382 5.167-4.222-.952m15.54-11.528c0 2.123.382 5.183-4.223-.952m8.25 8.438c0 2.123.4 5.182-4.215-.953m-6.915-15.165c0 2.108.4 5.2-4.215-.968m-19.575 46.455c4.028 4.027 12.66 8.438 8.25 9.975 0 0-2.115.383-3.457-.952-1.342-1.35.195.555.195.555s0 1.538-1.342 1.92m-17.46 1.725c-1.92 0-4.613.2-5.76-3.817M332.86 155.17s1.733.66-2.685 3.442c-4.4 2.783-7.3 2.88-7.3 5.37 0 2.498.48 2.595.48 2.595s1.343-.097 2.685 0c1.342.1 2.782.382 3.457.1.668-.277 1.725 1.155 3.352.772 1.635-.375 3.36-1.245 3.36-1.245s-.098 0 1.342.472c1.44.48.863.382 2.88 0 2-.382 3.36-.765 3.36-.765s2.392-2.865-.765-4.785c-3.172-1.92-4.515-2.212-4.995-2.595s-.862-1.627-1.05-2.595m18.517.195s1.627 1.245-1.822 3.262c-3.458 2-5.76 1.245-6.045 4.118-.247 2.445.48 3.165.48 3.165s1.44-.292 2.783-.382c0 0 .57-.187 1.342-1.627.765-1.433 3.067-3.262 3.067-3.262s.96-.488.293 2.213c-.675 2.677 1.05 3.54 1.05 3.54l2.115-.187.277-2.678c.098-.967 0-2.8 0-2.8s.383-.188 1.343.765c.96.967 1.155 1.155 1.725 2.887.577 1.7.48 1.522.862 1.522.4 0 2.3-.472 2.3-.472s2.392-2.692.285-4.23c-2.115-1.522-5.468-2.58-6.8-5.55M263.973 74.56l-3.165-7.485c-1.155-2.58-4.32-5.175 2.588-8.062 6.907-2.865 18.713-4.028 17.85-11.498M258.8 63.34c1.44 3.157 2.587 2.295 6.623.57 4.02-1.733 12.66-5.76 18.697-7.763m58.448 7.485c25.328 0 52.672 6.323 73.395 17.265 0 0 2.017 0 3.457-2.88 1.44-2.873 2.018-3.165 2.018-3.165s11.512 10.073 17.257 12.098c0 0-2.587-5.475-2.587-11.805l13.815-4.028c-10.072-4.605-22.447-12.382-28.785-19.297-6.33-6.9-16.695-9.488-17.842-3.443-1.148 6.038-2.595 8.047-2.595 8.047s-24.172-9.495-58.14-9.495c-33.96 0-58.14 9.495-58.14 9.495s-1.44-2-2.595-8.047c-1.147-6.045-11.513-3.457-17.842 3.443-6.338 6.915-18.713 14.677-28.785 19.297l13.815 4.028c0 6.33-2.588 11.805-2.588 11.805 5.745-2.025 17.258-12.098 17.258-12.098s.577.293 2.017 3.165c1.44 2.88 3.457 2.88 3.457 2.88C289.87 69.954 317.215 63.63 342.55 63.63h.007z"/><path d="M421.135 74.56l3.173-7.485c1.147-2.58 4.312-5.175-2.595-8.062-6.907-2.865-18.712-4.028-17.842-11.498m22.447 15.825c-1.44 3.157-2.587 2.295-6.623.57-4.027-1.733-12.66-5.76-18.705-7.763m-62.895 102.4l17.123-.308m5.04-.105l5.325-.082v4.027m-2.887 4.087l-3.877.053m-3.022.06l-4.898.105m-3.015.045l-5.76.097m-16.26-5.46v-2.302l4.17-.075m1.875-1.695s-2.498-.953-3.457-1.538c-.96-.57-3.262-.953-3.262-.953s.082-.427.067-1.087c.12-.262.195-.54.195-.848 0-.555-.225-1.058-.6-1.417-.24-.705-.615-1.47-1.2-2.213-2.107-2.685-2.88-2.5-6.713-3.457-3.84-.952-6.525-2.5-6.525-2.5s-.757 2.677 3.262 4.215c4.027 1.537 8.25 3.84 8.25 3.84s-.382 1.538-3.068 1.35c-.5-.03-1.05-.12-1.605-.27.1-.218.135-.45.135-.697 0-1.118-.885-1.995-1.987-1.995-.855 0-1.575.54-1.86 1.305-1.185-.6-2.28-1.3-3.127-1.995-2.115-1.725-5.947-3.645-9.203-3.645l4.02 3.075c.885.675 1.883 1.478 2.813 2.228a1.97 1.97 0 0 0-1.92 1.98c0 .142.023.292.045.435-1.312-.248-1.658-.697-2.82-1.402a2.18 2.18 0 0 0 .037-.368c0-1.118-.892-2-1.995-2-.675 0-1.283.353-1.65.885l-1.8-.2c-3.067-.382-6.135 0-6.135 0a5.98 5.98 0 0 0 2.303 1.335c1.335.398 3.06 0 3.45 1.725.233 1.072.105 1.335.015 2.055-.068 0-.143 0-.218.015.045-.18.083-.353.083-.54 0-1.103-.885-1.995-1.988-1.995-1.095 0-1.987.892-1.987 1.995 0 .247.045.48.127.682a2.03 2.03 0 0 0-.825-.173c-1.103 0-1.995.893-1.995 1.98 0 1.1.892 1.988 1.995 1.988a1.98 1.98 0 0 0 1.987-1.988c0-.24-.045-.473-.127-.675.255.097.532.172.825.172.135 0 .27-.015.398-.03-.053.165-.083.353-.083.533 0 1.035.795 1.882 1.815 1.973-.135.84-.712.75-2.317 1.688-2.3 1.35-6.72 4.995-6.72 4.995s3.262-.968 5.565-1.538 4.222-1.163 4.987-3.27 2.678-4.215 2.678-4.215.3-.262.735-.555a1.8 1.8 0 0 0-.037.345c0 1.102.892 1.995 1.995 1.995 1.095 0 1.987-.893 1.987-1.995 0-.202-.038-.405-.105-.6a14.28 14.28 0 0 1 1.185.615s.195 3.075-1.725 4.995c-1.92 1.905-5.947 4.4-5.947 4.4s4.027.57 6.33-1.155c2.303-1.733 2.108-2.677 3.262-4.792 1.147-2.123 2.108-2.505 2.108-2.505s.4 0 1.065-.045c-.113.255-.172.533-.172.8a1.99 1.99 0 0 0 1.987 1.987c.143 0 .278-.007.412-.037-.232.188-.495.375-.795.555-2.88 1.725-5.377 4.597-5.377 4.597s1.92 1.35 5.183-1.335c3.262-2.678 4.035-4.4 5.76-5.183 1.725-.765 3.84-.187 3.84-.187s-.577 2.5-4.035 4.402c-3.45 1.92-5.752 4.808-5.752 4.808s2.5-.187 4.605-1.35c2.1-1.14 4.598-2.678 4.598-2.678m3.848-19.208l-2.303-1.537s-.195 2.7 1.53 5.572m39.945 14.355l10.755-2.6.27.923 3.188-2.655-4.1-.495.24.847-10.68 2.58m.397 4.485l15.165 3.615-.18.952 4.058-.923-3.45-2.302-.165.87-15.1-3.622m-.045-.045l19.635-.218.06.877 3.698-1.905-3.915-1.358.06.938-19.567.233M342.843 318.45l-40.298-10.665c-7.748-1.928-7.17-5.415-7.17-9.488v-69.345H390.3V298.3c0 4.073.577 7.56-7.17 9.488l-40.3 10.665m-7.777 18.045s8.925-2.97 6.232-7.95c-2.685-4.995 0-5.76 1.92-5.76"/><path d="M325.188 329.394s1.92-6.998 6.525-3.923c4.598 3.075 4.223 4.702.375 8.16m32.73-6.053l.285-3.645c9.2.757 14.587 0 22.642-4.98-15.353 4.98-24.18-.78-24.18-.78l23.032-6.12c6.127-1.538 9.968-3.075 9.968-11.137V223.38c0-24.548 9.2-21.87 9.2-21.87l-9.975-16.1c-25.335 8.82-30.705-7.312-52.583-7.312s-27.24 16.132-52.582 7.313l-9.967 16.1s9.202-2.678 9.202 21.87v77.535c0 8.063 3.84 9.6 9.983 11.137 6.135 1.523 23.025 6.12 23.025 6.12s-8.828 5.76-24.18.78c8.063 4.98 13.432 5.753 22.643 4.98l.382 3.937m32.25 5.273c-3.84-3.457-3.84-4.597.765-7.673s6.337 3.457 6.337 3.457m-17.85-6.157c1.92 0 4.605.78 1.92 5.76-2.685 4.995 5.565 7.777 5.565 7.777m-55.267-62.272c2.115 0 3.84-.188 6.908 1.732 3.075 1.92 4.027 2.678 6.142 3.06 2.1.382 2.1 0 4.418.968 2.295.952 1.14 1.155 3.637.952 2.5-.195 4.4-.765 5.947-.195 1.53.592 4.4 1.35 4.4 1.35m11.9 3.27s.57.375 3.45.952c2.88.585.578-.577 3.84 0 3.263.585 2.88.968 5.37 1.913 2.5.968 4.035 1.35 4.035 1.35s1.905.195-3.075 1.155c-4.988.952-6.712 1.717-8.632 2.302-1.92.57-8.828 1.335-14.97 1.92-6.142.57-9.592.382-14.58 1.14-4.995.78-7.485.195-10.748.78l-8.25 1.335m94.605-17.257h-51.765m-4.537 0h-1.943m-4.32 0H322.8m3.337 8.625c1.538-.757 2.303-.952 3.645.195l1.342-6.525c.195-1.14 2.303-6.907 2.303-6.907s.195 2.295.375 6.15c.195 3.825-.562 5.55 1.92 6.135 2.498.57 4.035 0 4.035 0s-1.537-.398-1.537-3.075-.96-12.668-1.147-13.815c-.188-1.155-.188-3.075-.188-3.075l.757-3.06s1.538.188 3.458 0c1.92-.202 2.685-.967 3.45-.967.772 0 1.733-.383 1.733-.383l.382-1.327s-2.498-.383-4.605-.383c-2.115 0-4.035-.78-4.035-.78s-.375-.383-.563-1.725c-.195-1.335-1.92-2.873-1.92-2.873s.758-.765.758-1.92.96-1.725.195-3.075c-.765-1.335-1.147-2.302-3.075-1.717-1.912.563-1.912.382-2.678 2.303s-.382 1.717-.195 2.678c.195.952-.187 1.35-.187 1.35s-1.155-1.155-1.725-.202c-.578.968-1.155 1.538-1.155 1.538l-2.107.188-.577-2.108s-.383-.952-.578-2.108c-.195-1.148-.96-4.222-.96-4.222l-1.342-1.538s-.758 1.92-.57 2.505c.188.57.96 2.5.96 4.012v4.808s0 1.92 1.912 2.303c1.92.375 4.223.375 4.223.375s.577.765.765 4.028c.195 3.27 0 .968.195 2.7.188 1.725-.195.952-.577 4.4s-1.343 7.673-1.725 9.195c-.382 1.538-.96 6.915-.96 6.915zm4.8-6.135l2.873.968m-17.025 49.83c7.192 5.76 10.215 5.332 18.278 16.26-3.743-9.78-4.605-12.083-9.788-16.403 8.632 6.045 11.228 6.045 17.558 16.125-14.108-42.022-71.385-19.567-86.64-13.245 19.86-4.612 34.83 1.44 42.6 10.943 0 0-3.458-9.2-6.908-13.238 13.238 8.055 12.953 7.192 19.86 14.678l-5.76-14.108c10.365 2.873 18.135 14.678 18.135 14.678s-3.308-9.36-7.335-15.7zm52.095 0c-7.193 5.76-10.215 5.332-18.278 16.26 3.743-9.78 4.605-12.083 9.788-16.403-8.633 6.045-11.228 6.045-17.558 16.125 14.108-42.022 71.385-19.567 86.64-13.245-19.86-4.612-34.83 1.44-42.6 10.943 0 0 3.458-9.2 6.908-13.238-13.238 8.055-12.953 7.192-19.86 14.678l5.76-14.108c-10.365 2.873-18.135 14.678-18.135 14.678s3.308-9.36 7.335-15.7zm108.277 10.988c-10.357-8.055-14.197-19.568-41.062-9.593-33.015 12.262-53.73 17.272-93.262 16.507-39.533.765-60.255-4.222-93.263-16.507-33-12.278-34.155 2.295-44.512 10.373m274.02 4.597c-11.13-4.98-14.963-9.217-30.697-2.685-15.743 6.525-37.23 20.715-105.548 21.113-68.318-.382-94.035-14.213-109.77-20.73s-19.567-2.295-30.697 2.685"/><path d="M443.395 349.65c-19.567 15.735-46.05 40.875-100.552 39.33-54.503 1.545-85.208-23.213-104.775-38.948m239.5 0c-33.008 30.308-64.478 61.215-134.715 61.98-72.158-.382-105.93-31.275-138.938-61.598M326.148 82.72s2.498-.382 6.33 1.537"/></g></svg>