<svg xmlns="http://www.w3.org/2000/svg" height="450" width="750" xmlns:v="https://vecta.io/nano"><style><![CDATA[.B{fill:#ffea0f}.C{stroke-linecap:round}.D{stroke:#ffea0f}.E{stroke-width:2.316}.F{stroke:#002a86}.G{stroke-width:1.158}]]></style><path d="M0 450h750V0H0z" fill="#002a86"/><g class="B"><path d="M330.9 118.75c-5.72.318-12.785 2.756-17.53 6.594.576 1.392 1.623 1.248 2.78.906l.344-.437c.8 0 1.85-.813 2.78-1.28a1.1 1.1 0 0 1 .219-.25c.023-.017.07-.047.094-.062.75-.45 2.144-.266 2.813-.906.152-.154.287-.36.344-.625 4.746-2.904 9.357-2.08 15.375-1.625v1.156c-4.05-.8-11.464-1.386-14.937 2.094 3.474 3 7.9 4.6 12.75 4.03l3.47-1.5c1.734 6.816 9.148 9.823 14.813 12.03.696-1.164 1.173-2.656 1.28-4.156-1.386-1.626-3.837-1.646-4.875-3.5 1.962.12 4.53 1.052 5.688 2.906.582 1.734-.024 3.472-1.062 4.75.433.534 1.297.556 1.78.28.016-.01.048-.02.063-.03l8.125-6.5c.027-.022.065-.044.094-.062.578-.336 1.4.103 1.625.75l.25-.22c2.658 3.36 6.94 4.28 9.72 7.28l-.344.47.063.094c-.577-.048-1.357-.8-2.03-1.125-2.778-2.424-6.128-3.714-8.906-6.156-2.43 3.012-5.816 4.055-8.594 6.72-5.436-.24-10.638-3.595-15.156-7.062-1.038-1.5-2.413-3.12-2.875-4.97-1.158-.12-2.217 1.042-3.375 1.156-4.398-.234-10.057-.592-13.53-4.75-3.24.576-6.718 5.325-9.844 1.28h-.562c-10.884 10.758-25.83 17.465-34.625 29.97 1.854 2.544 4.648-.923 6.844-1.625 3.012-2.544 7.764-3.934 10.656-7.75l.22-1.03-.03-.03c-.005-.004-.026-.027-.03-.03-.015-.01-.046-.022-.062-.03-.01-.006-.05-.026-.062-.03-.455-.2-1.218.028-1.625-.187-.01-.006-.022-.025-.03-.03s-.027-.028-.03-.03c-.018-.015-.047-.045-.062-.062-.004-.005-.028-.026-.03-.03s-.028-.026-.03-.03a1.76 1.76 0 0 1-.031-.062c-.003-.006.002-.025 0-.03-.005-.013-.027-.048-.03-.062-.005-.022.004-.07 0-.094-.007-.05-.032-.13-.03-.187.001-.03-.003-.06 0-.094.576-.865 1.723-.65 2.156-1.125.008-.01.024-.02.03-.03s.028-.026.03-.03c.01-.016.023-.045.03-.062s.026-.05.03-.062a1.09 1.09 0 0 0 .03-.125c.003-.015-.002-.047 0-.062 3.702-2.202 8.222-4.197 11-7.437l4.97-4.156c.01.01.05.02.063.03.006.005.025.027.03.03.013.008.05.024.063.03a1.85 1.85 0 0 0 .063.031c.18.077.4.12.563.188.018.008.047.02.063.03.005.003.026.028.03.03a.46.46 0 0 1 .031.031c.004.005.028.026.03.03a.28.28 0 0 1 .03.063c.002.006-.001.025 0 .03a.79.79 0 0 1 0 .094c-.005.05-.01.123-.03.188-5.67 4.3-9.614 9.366-16.094 11.688v1.375c1.506.348 2.786-1.24 4.406-1.594 3.126-1.968 6.02-4.406 9.375-5.906.234.456.458.82.344 1.28-1.158.702-1.853 1.263-3.125 1.72l-.344.344.188.22c-.053-.01-.107.003-.156 0-.078-.004-.18-.008-.25 0-.4.056-.7.3-1.062.47v.375l-.22-.25c-.924 1.62-2.88 2.207-4.5 3.125-1.158.348-2.118 1.26-3.156 1.5a.82.82 0 0 0-.375-.375c-.17-.086-.376-.15-.53-.22a2 2 0 0 1-.062-.031c-.014-.008-.05-.023-.062-.03-.006-.005-.025-.027-.03-.03a.61.61 0 0 1-.186-.281c-1.763 5.742-8.13 6.668-12.28 10.125-.007.018-.025.044-.03.063-.162.6.3 1.564 1.063 1.78h1.875c4.632-3.132 9.696-6.715 14.094-10.53.555-.363 1.504-.818 2.03-.687a.59.59 0 0 1 .25.156c.007.008.025.023.03.03s-.003.027 0 .03c-.001.01.002.052 0 .063s.003.05 0 .063-.027.05-.03.063c-.002.006.002.025 0 .03-.306.726-1.6.88-2.03 1.406-3.936 3.936-7.988 6.727-12.5 9.625-.006.032.002.064 0 .094-.002.058-.01.138 0 .188a1.03 1.03 0 0 0 .031.094c.006.014.024.05.03.063s.022.05.03.063c.005.006.026.025.03.03s.026.026.03.03c.218.2.593.302.875.438 5.094-.7 8.23-5.534 12.28-7.844 3.936-3.234 7.182-6 10.656-9.375.222.218.654.35.78.563.002.004-.002.028 0 .03.08.145.146.25.156.344v.1c0 .003-.03.027-.03.03s.001.027 0 .03a.63.63 0 0 1-.031.063.49.49 0 0 1-.094.094c-.14.105-.367.195-.5.313l-.03.03c-.02.026-.05.062-.062.094-.002.004.001.027 0 .03s-.03.022-.03.03.001.026 0 .03 0 .026 0 .03a1.81 1.81 0 0 0 0 .031v.03c.006.057.036.147.063.22-3.348 1.854-5.8 5.08-8.812 7.28-2.43 1.968-5.534 4.06-7.844 6.25 1.968 1.854 4.383-.927 6.813-.812.348-1.38 2.316-3.258 3.594-3.594l.344.47c-.8 1.044-1.855 2.086-2.437 3.25a3.19 3.19 0 0 0 3.469-1.406c4.86-3.468 5.562-9.837 10.656-12.97.924 2.202-2.323 2.318-2.437 4.406-1.392 1.614-2.43 3.365-3.125 5.22l-.22-.25-1.75 2.313c.696.8 1.524 1.28 2.563 1.28 2.55-2.424 3.586-5.305 6.25-7.97.2.084.37.15.47.25.012.013.02.05.03.063.003.005.028.027.03.03s.026.02.03.03-.002.026 0 .03c.004.01.027.052.03.063s-.002.026 0 .03-.001.025 0 .03.03.025.03.03c.016.124.004.285-.03.47-1.044 1.044-2.34 2.313-2.687 3.813 3.006 1.38 3.818-2.894 5.438-4.406.93-2.424 2.213-5.08 3.72-6.812l.03.03a1.16 1.16 0 0 0 .188.125c.127.06.295.114.406.188.03.02.07.068.094.094.003.004.028.027.03.03s.026.022.03.03-.002.026 0 .03c.004.01.028.02.03.03.01.027.023.07.03.094.005.015-.003.05 0 .063s.03.047.03.063v.06c0 .003-.03.028-.03.03s.002.03 0 .03-.03-.002-.03 0-.023.028-.03.03-.025-.002-.03 0a.81.81 0 0 0-.187.063c-.007.004-.025.026-.03.03a2.71 2.71 0 0 0-.031.031c-.005.007-.027.023-.03.03s.002.027 0 .03.002.026 0 .03c-1.392 2.202-2.68 4.295-3.375 6.72.005.002.026-.002.03 0s.026-.002.03 0 .026.028.03.03c.4.22.7.933 1.094 1.156.005.003.026-.003.03 0s.026.03.03.03.026-.002.03 0 .026-.001.03 0c.017.004.045.03.063.03.012.001.05 0 .063 0 .006 0 .025.001.03 0 .012-.002.05-.03.063-.03.006-.002.025.002.03 0 .013-.004.05-.026.063-.03.007-.003.025.003.03 0a1.37 1.37 0 0 0 .219-.156c.015-.013.047-.048.063-.062.046-.047.107-.128.156-.187.8-1.037 1.515-2.383 2.313-3.312.014.01.05.02.063.03.006.006.025.026.03.03.046.046.094.107.125.156.007.012.025.05.03.063.003.006.028.025.03.03.117.28.062.616.063.938 0 .016.001.046 0 .063-.002.024-.027.07-.03.094-.125.567-.826 1.093-1.062 1.594-.006.014-.026.05-.03.063s-.027.05-.03.063.003.05 0 .063c-.006.035-.032.1-.03.125.001.014.03.05.03.063s-.004.048 0 .063.026.048.03.063.024.048.03.063a1.32 1.32 0 0 0 .5.469c1.506-.468 2.913-1.38 3.375-3 .15.084.273.194.344.313.003.006.028.025.03.03.012.025.022.068.03.094.317.94-1.043 2.62-1.03 3.344.002.034-.01.096 0 .125.003.008.028.024.03.03s.026.024.03.03-.003.028 0 .03a.83.83 0 0 0 .031.031c.003.003.028-.003.03 0a.17.17 0 0 0 .03.03c.007.003.027-.002.03 0s.026.03.03.03.026-.002.03 0c.27.073.8.006 1.656-.28.01-.004.023-.027.03-.03a.71.71 0 0 0 .22-.187c.015-.022.05-.07.063-.094.095-.178.155-.4.25-.562.004-.007.027-.025.03-.03a.44.44 0 0 1 .25-.156c.078-.012.2-.033.313 0 .14.06.236.163.313.25.026.032.075.1.094.125.038.08.057.193.063.28a1.26 1.26 0 0 1-.219.688c-.07.1-.163.212-.25.28 1.278 1.614 3.353 1.16 4.625 2.78l1.03-1.72h.594c.001.004-.001.027 0 .03.042.144.006.365.03.53.003.013-.004.05 0 .063s.028.023.03.03-.002.027 0 .03.026.024.03.03l.03.03c.012.008.05.024.063.03-.013.008-.02.054-.03.063-.05.036-.117.084-.156.125-.25.275-.318.66-.53.906a1.14 1.14 0 0 1-.156.125c-.022.014-.07.05-.094.063-.01.004-.022-.004-.03 0 .23.636.516.895.813.938.084.01.196-.015.28-.03.387-.086.807-.365 1.125-.437.015-.003.048-.03.063-.03a.99.99 0 0 1 .094 0c.028.003.068.022.094.03a.92.92 0 0 1 .063.031.55.55 0 0 1 .156.156c.093.164.154.43.188.844.303.3.63.608 1.03.75.203.067.455.1.72.063.625-.533.98-1.7 1.813-1.844.014-.002.048.001.063 0 .022-.002.07 0 .094 0s.07-.002.094 0c.114 1.164-.352 2.545.344 3.47a.93.93 0 0 0 .594.063c.044-.012.116-.045.156-.062.226-.103.44-.283.688-.344.1-.02.204-.02.313 0-.02.14-.04.277-.03.375.002.016.028.048.03.063s-.004.05 0 .063.026.05.03.063a.76.76 0 0 0 .031.063c.003.005.028.026.03.03.02.025.04.072.063.094.005.004.026.027.03.03.14.114.355.194.594.313l.03.03 1.438.72c.678-1.896 1.66-4.07 1.72-6.22.57-.6.883-1.095 1-1.5.02-.076.024-.18.03-.25.003-.035.032-.1.03-.125s-.027-.093-.03-.125c-.004-.024.005-.07 0-.094s-.024-.07-.03-.094c-.005-.015-.025-.048-.03-.062-.574-1.3-3.867-1.57-4.656-2.937-.004-.008-.027-.024-.03-.03-4.746-2.544-8.792-7.644-12.5-11.687a1.6 1.6 0 0 1-.125-.125c-.514-.587-.375-1.438-.906-1.97-2.778 4.398-8.1 2.906-12.375 2.906-3.708-1.164-8.697-3.822-9.97-8.687l.25-1.5a1.43 1.43 0 0 1 .25 0c.036.005.093.023.125.03a1.37 1.37 0 0 1 .094.031c.04.018.094.04.125.063.005.004.026.027.03.03a.42.42 0 0 1 .03.03c.007.008.027.026.03.03.014.02.02.07.03.094.003.006.03.025.03.03s-.002.025 0 .03c.138.425-.056 1.126.063 1.594.004.014.027.05.03.063s.026.05.03.063c.003.006-.003.025 0 .03s.028.025.03.03c.007.012.023.05.03.063.004.005.027.026.03.03a.63.63 0 0 0 .063.063c.772.55.713 1.84 1.5 2.063.033.008.1.027.125.03.696-1.044 1.373-1.534 2.063-2.344 1.74 1.866-3.464 3.258-.344 4.656l2.22-2.906.906.813c-.8.8-1.37 1.862-1.72 2.906.696.456 1.486.68 2.063 1.25.348-2.082 1.623-3.704 2.78-5.437 1.272 1.278-1.053 2.792-1.28 4.406-.183.268-.56.494-.72.78-.003.006-.028.025-.03.03-.005.012.004.05 0 .063-.002.006-.03.025-.03.03-.003.013.002.05 0 .063s.001.048 0 .063c3.354.12 7.385 2.1 9.125-2.53a.93.93 0 0 1 .344.281c.014.023.05.07.063.094.017.04.02.113.03.156.01.053.03.13.03.188-.002.3-.133.65-.25 1l-1.03.813c3 1.266 3.594-2.433 5.563-3.812.8.804.7 2.3 1.28 3.344 5.208 5.448 9.594 11.706 16.656 14.25 1.038-1.614 2.194-3.47 2.656-5.437 1.62-.924 3.027-.9 4.875-.687 1.74 1.044 2.764 2.4 3.688 4.03.462 2.658.118 5.33-.344 7.875 1.62.8 4.177.34 6.03-.47-.234-3-2.686-8.1 1.25-9.937 2.082-.576 4.18-.472 6.375-.25.696-3.246-.822-6.94-2.094-9.72-.158-.666-.034-1.077.22-1.344a1.42 1.42 0 0 1 .281-.219c.744-.387 2.053-.25 2.75-.656.036-.022.093-.068.125-.094 6.6-1.5 14.476-4.038 16.906-11.094h.438c-.348 7.056-8.453 9.47-13.78 11.438-1.968.576-4.14.592-5.875 1.75 0 1.386.788 2.555 1.25 3.72 3.126-.12 7.082-2.785 10.094-4.53.8 0 1.6-.813 2.063-1.28 3.936-.93 6.475-6 10.53-6 1.272.126 2.557 2.2 4.063 1.625 2.778.696 6.24-.025 8.094-2.563.033-.1.094-.18.156-.25.388-.4 1.254-.312 1.938-.312 2.43 2.202 5.322 3.44 8.094 4.72.468-.157.74-.038 1.03-.094.014-.003.05-.028.063-.03s.048.005.063 0 .048-.025.063-.03a1.51 1.51 0 0 0 .28-.187c-6.708-5.316-13.418-10.403-22.094-10.625-9.378-2.322-13.446 11.67-22.937 9.594-2.196.108-5.78.004-6.937-2.313-2.082 2.082-5.3 3.803-8.437 2.53-1.968-1.5-4.052-2.3-5.906-3.813-1.968 1.392-4.034 3.338-6.812 2.313-7.062-1.974-12.28-9.36-20.03-9.125-.136.005-.27-.008-.406 0zm14.938 9.594c.003-.002.028.002.03 0 1.272.456 2.882 1.378 3.344 2.656-.14.064-.277.078-.406.094-.055.005-.134.034-.187.03-.044-.003-.113-.023-.156-.03s-.114-.018-.156-.03c-.8-.26-1.456-1.26-2.22-1.687-.168-.246-.318-.615-.312-.844v-.03c0-.003-.001-.027 0-.03s-.001-.027 0-.03.03-.028.03-.03-.002-.028 0-.03.03.003.03 0-.003-.03 0-.03zm57.25 27.436c-.192.042-.376.14-.5.22-4.506 4.17-10.417 7.167-15.625 9.375-4.278 1.392-8.925 2.297-13.437 2.53-.003.005-.028.026-.03.03-.01.022-.022.074-.03.094a1.03 1.03 0 0 0-.062.156c-.008.03-.025.1-.03.125-.02.192.015.405 0 .594a1.01 1.01 0 0 1-.062.25c-.06.118-.167.25-.344.375l.22.22c-1.392 1.968-4.052 1.176-5.906 1.063-2.017-.9-6.052.808-7.594-1.03-.218-.268-.4-.627-.5-1.062l-.812-1.03c-2.97-.762-6.238-1.02-8.937-2.53l-2.53-.75c-1.584-.594-3.716-1.127-3.344-3.437a.64.64 0 0 0-.062 0 1.48 1.48 0 0 1-.031 0c-.035-.002-.097 0-.125 0h-.154l-.062.03h-.062c-.434.178-.682.7-1.03.875l-.03.03h-.06c-.002 0-.026.028-.03.03s-.03-.001-.03 0h-.094c-.01-.006-.052-.025-.062-.03h-.062l-.187-.094c-.047-.025-.113-.062-.156-.094l-.062-.062c-.734-.837-.73-2.235-1.75-2.844a2.05 2.05 0 0 0-.344-.156c-.234.708-.23 1.518-.812 2.094-1.734-.924-3.697-1.855-4.97-3.47-.2.266-.282.486-.312.688-.052.4.076.788-.156 1.406-2.082-.708-1.944-3.27-4.5-3.156-.336.576-.25 1.626-.25 2.094-.008.007-.023.025-.03.03a1.52 1.52 0 0 1-.187.125c-.055.03-.133.076-.187.094a1.14 1.14 0 0 1-.187.031c-.024.002-.07 0-.094 0-.016 0-.047.001-.062 0s-.046.002-.062 0c-.908-.157-1.9-1.498-3-1.75a1.74 1.74 0 0 0-.344-.031l-.22-.22c-.8.912.1 1.72-.812 2.53-1.506-.708-3.13-2.195-4.75-1.03.114 1.734.474 2.995-.906 4.375.217.2.412.33.594.375.004.001.027 0 .03 0 .032.001.093.002.125 0h.154c.025-.007.073-.025.094-.03.728-.246 1.258-1.52 2-1.844 1-.08 1.8-1.222 2.72-1.5.364-.102.764-.075 1.188.22.16.446.153.835.03 1.156-.3.747-1.14 1.276-1.437 1.97-.013.032-.047.085-.062.125-.002.006.002.026 0 .03l-.03.094c.868.477 1.497.542 1.938.375.023-.01.066-.02.094-.03a.55.55 0 0 0 .063-.031c.025-.015.07-.046.094-.062.007-.005.024-.026.03-.03.903-.722 1-2.75 1.78-3.625.013-.014.05-.05.063-.062.042-.04.1-.1.156-.125.023-.016.07-.048.094-.062a.52.52 0 0 1 .063-.03c.033-.015.1-.05.125-.062.493-.162 1.2-.016 2.22.625.01.017.022.046.03.063.017.034.05.1.063.125.03.076.05.176.063.25.147.908-.738 1.74-.812 2.344-.003.032-.002.094 0 .125v.063c.006.022.02.072.03.094.003.005.028.026.03.03.02.028.044.073.063.094l.03.03c.037.033.106.093.156.125.157.096.388.182.688.25.924-1.044 1.525-2.427 3.03-2.78.462.588.812 1.506.344 2.094-.12.178-.3.296-.375.438a.62.62 0 0 0-.03.063v.03c-.006.006-.025.026-.03.03a.7.7 0 0 1 0 .031v.093c0 .002-.001.027 0 .03.006.017.028.05.03.063v.03l.03.063c.003.003.028.03.03.03 2.196 1.38 3.222-3.25 6-1.28.114 1.278-.352 2.096.344 2.906 1.5-.354 2.9-1.96 4.625-1.03.043.024.1.06.156.094.004.003.028.028.03.03.6.647.878 2.6 1.656 3.094.02.01.043.022.063.03.355.155.837.04 1.47-.594 2.202 0 4.048 2.085 6.25.688 1.506-.57 2.8-.15 4.844 3.438l31.188.938c4.92-4.398 11.07-5.656 16.625-5.656l.03-.03c.1-.092.225-.18.313-.25a1 1 0 0 0 .094-.094l.03-.03v-.15c-6.018-1.968-9.72 1.73-15.625 1.844-.15-.383-.533-.742-.687-1.062l-.03-.062c-.002-.006.002-.025 0-.03-.01-.04-.028-.092-.03-.125v-.062c.002-.022-.005-.066 0-.094.002-.007.03-.025.03-.03s-.002-.026 0-.03c4.398-1.5 7.76-5.333 12.97-5.22 2.316-.468 4.652-1.375 6.5-2.875-1.158-.468-2.322-.604-3.594-.25-1.848 1.158-4.288 3.714-6.25 2.094.57-1.848 3.112-2.22 4.156-3.72-.01-.028-.02-.068-.03-.094-.01-.02-.02-.044-.03-.062-.004-.006-.027-.025-.03-.03-.023-.03-.07-.07-.094-.094-.005-.005-.026-.027-.03-.03s-.026-.028-.03-.03l-.062-.03a1.25 1.25 0 0 0-.094-.03 1.95 1.95 0 0 0-.125-.031c-.034-.002-.095 0-.125 0a1.48 1.48 0 0 1-.031 0 2.38 2.38 0 0 0-.094 0c-.006 0-.026-.001-.03 0s-.028 0-.03 0c-.013.002-.018-.003-.03 0zm-19.97 13.688a2.33 2.33 0 0 1 .813.063c.024.007.07.022.094.03a1.22 1.22 0 0 1 .219.125c.052.04.112.102.156.156.098.126.202.287.25.5-.762.247-2.056.3-2.72-.125-.007-.005-.024-.026-.03-.03-.046-.035-.117-.084-.156-.125-.005-.006-.026-.025-.03-.03-.01-.012-.022-.05-.03-.062a.94.94 0 0 1-.156-.406c.45.093 1.057-.052 1.594-.094zm-6 .03h.063a1.55 1.55 0 0 1 .063 0 5.66 5.66 0 0 1 .063 0c.02.006.073.024.094.03s.068.02.094.03l.063.03.03.03c.005.004.026.026.03.03.028.027.072.07.094.094l.063.063a1.63 1.63 0 0 1 .156.313.61.61 0 0 1-.03.063c-.004.006-.028.026-.03.03-.04.055-.08.116-.125.156-.5.415-1.554.105-2.25.22l-.22-.25h.06c.002 0 .024.001.03 0 .022-.005.07-.024.094-.03.414-.143 1-.605 1.5-.75.038-.01.088-.025.125-.03.003-.003.028-.027.03-.03z"/><path d="M367.213 112.217c-1.185.056-2.403.266-3.062.594-3.474 1.044-3.808 5.203-4.156 8.563-.23 1.364-1.235 2.638-1.375 3.78l.22-.187c.007-.002.024.002.03 0 .015-.003.048.002.063 0 .253-.032.543.016.75.156.066.047.14.126.188.188.004.006.027.025.03.03.008.012.024.05.03.063.003.006.028.025.03.03.015.033.022.1.03.125.752.417 1.64.945 2.375.875.086-.01.2-.034.28-.062a1.58 1.58 0 0 0 .188-.094c.034-.02.092-.07.125-.094.238-.2.467-.498.625-.97.346-.085.628-.046.844.125a1.24 1.24 0 0 1 .188.22c-.2.647-.046 1.485-.47 1.97l-.094.094c.02.058.034.143.063.188.01.015.05.05.063.063l.094.094c.014.01.048.023.063.03.022.012.07.053.094.063a.85.85 0 0 0 .094.03c.165.05.368.077.53.125l.094.03c.023.01.072.02.094.03a.8.8 0 0 1 .125.094c.018.018.046.04.063.063 2.898.93 4.38-1.264 6.47-2.656.462-2.436-2.667-5.208-1.28-8.094 1.278-1.734 2.907-.705 4.875-1.28a3.15 3.15 0 0 0 .53.875l.156.156c.257.217.583.352.938.25.462-1.512.1-3.263-1.28-4.187-1.272-.456-2.877-.216-3.687.594-.303.328-.57.486-.78.5h-.094c-.014-.002-.05-.028-.062-.03l-.094-.03-.062-.03c-.006-.004-.025-.027-.03-.03-.024-.018-.07-.042-.094-.062l-.03-.03c-.415-.436-.686-1.382-1.094-1.656a1.5 1.5 0 0 1-.25.063c-.416.07-.756-.122-1.22-.312l.22-.22-1.344-.03zm.188 2.188c.54-.137 1.184.528 1.625.97.234.804-.715 1.146-1.062 1.5a1.76 1.76 0 0 1-1.03-2.094.97.97 0 0 1 .156-.187l.03-.03c.005-.004.026-.027.03-.03.015-.012.047-.02.063-.03.005-.003.026-.028.03-.03s.026.003.03 0 .026-.03.03-.03l.094-.03zm49.065 14.27c3.012 1.278 5.8 3.942 9.378 3.132 5.67 3.582 11.802 8.568 17.706 11.448 2.778 3.246 7.176 4.524 9.378 8.112-6.714-4.866-13.9-6.954-20.604-12.036-2.664-.93-5.442.114-7.752-1.632-3.708-1.5-6.6-5.202-10.188-7.17-.576-1.032-1.506-2.076-1.044-3.234 1.626-.924 1.74 1.266 3.126 1.392m-14.58.684c-.582 8.796-10.764 14.352-16.668 19.788-1.392.234-2.43 1.62-4.164 1.398-1.392-3.132-2.316-6.834-2.424-10.182 6.474-1.74 12.03-6.258 17.814-9.4.8-1.146 1.968-2.076 3.126-2.646.924-.132 1.854.336 2.316 1.032m16.434 6.038c-1.392 1.632-3.012 1.278-4.98 1.044.234-.702-.576-.702-.576-1.278-1.272.354-2.43 2.898-3.936 1.044-2.424-.8-2.772 2.436-5.088.8l-2.43.234c-.8 2.886 2.778.342 3.708 1.5 1.734 1.62 2.778-3.468 4.626-.456 1.392.456 2.202-.8 3.126-1.044.696 1.5 2.082.576 3.474.8.576-.12 1.032-.576 1.728-.354 1.158 3.012 3.702 5.448 6.48 7.302.8-1.854-1.968-3.012-3.006-4.17-1.158-1.386-2.778-3.354-2.43-4.632l-.456-.468c.336.12.7-.456 1.032.234l.234-.234-.234.234c3.24 1.512 7.524 5.8 10.65 3.936 0 .228-.114.354-.234.462 3.822-.462 6.366 3.702 9.84 4.746 2.664 1.848 5.442 3.126 8.334 5.094 2.778 1.266 4.626 2.2 6.018 5.202 0 .8 0 1.974-.8 2.208l-.804-.12c-5.208-3.936-10.302-7.872-15.624-11.106-.93.456.114 1.26.348 1.734 4.626 3.348 9.954 6.48 14.004 10.182-.468.8-1.044 2.424-2.316 1.38-3.822-.7-7.4-3.804-10.65-6.246-3.24-4.158-8.1-6.126-10.416-10.758-.348.222-.8.222-1.044.576v.7c6.024 5.448 11.46 12.858 18.756 16.206 0 .474.114 1.044-.348 1.278-1.614-1.044-3.354-2.316-5.214-2.082-1.146 1.614-3.234.468-4.626.234-2.772-3.132-6.942-6.378-9.138-10.08-.348-.108-.582.234-.8.468.8 2.898 4.746 5.9 6.828 8.568-.576.456-.924 1.614-1.62 1.146l-3.822-3.702c-.114.354-.7.354-.8 0-3.354-3.114-6.018-5.892-7.752-9.948-.348-.12-.696 0-1.044.354 1.506 4.734 5.094 7.518 8.334 11.214-.348.234-.114.582-.114.936-3.006-1.158-4.968-4.404-7.98-5.214-.582-3.12-2.892-5.088-3.474-7.992-.462-.108-.576.234-.924.468.348 2.892 2.892 5.214 3.012 7.86.114 0 .228.132.342.234-2.196 0-3.354-2.424-5.436-3.582 0-1.854-.582-4.164-1.392-6.012H409c-.114 1.848 1.278 4.392.468 6.012-1.044-.7-1.62-3.012-3.36-2.664-1.386 2.544-5.556.93-6.48 3.708l.234.234h-.348c0-.702 0-1.278-.696-1.62-1.038.8-.462 2.544-1.614 3.468-.8-.7-2.202-.114-2.082-1.614-1.854.102-.348 2.424-1.74 3.126-.924-.234-.576-2.556-2.082-1.626l-.114 2.892c-.8-.234-2.082-.456-2.778.222-.582.468-.582 1.164-.804 1.866-.696-.12-1.272-1.164-2.082-.468-.816.468-.582 2.316-1.854 1.734.228-1.032-1.158-1.266-1.044-2.088-.228-1.956-1.386-4.044-.7-5.658 6.132-1.044 9.954-6.6 14.466-10.422 4.398-3.012 5.67-7.062 7.062-11.46 2.892.93 6.018.222 8.556-1.044.576 3.132 4.284 4.056 6.366 6.486m-54.56 13.542c-.114 5.9-1.386 11.46-2.082 16.914h-1.272c.228-1.044.462-2.556-.234-3.366-1.968.354.582 5.67-3.354 3.702-1.044-.7.462-1.968-1.158-2.082-.228.468-.696 1.038-.228 1.512-.8.102-1.734-.234-2.544-.474.234-1.848 3.012-3.582 1.734-5.436-1.272 1.398-2.778 3.246-2.778 5.1h-1.038c2.082-4.278 1.038-9.024 3.354-13.194l-.228-.234.7-.342c-.114-.936.582-2.088 1.044-3.132.234-.924 1.158-1.848 2.082-2.082.462.468 1.392 0 1.152-.7 2.316.114 3.822 1.968 4.86 3.816m10.118-2.336l-2.25.03c-1.158.456-1.292 1.732-1.406 2.656 1.386 5.67.485 11.47 2.22 16.906.07.1.144.204.22.28.054.054.13.117.188.156.014.01.048.023.063.03s.048.024.063.03a1.43 1.43 0 0 0 .156.063c.707.202 1.546-.344 2.313-.344l-.22-.812c.088-1.072-.998-2.644-.53-3.562.05-.1.133-.204.22-.28.152-.128.38-.236.656-.312.924 1.62.797 3.465 1.03 5.188l6.5-1.72c-.696-1.158-.367-2.9-1.062-4.156a1.42 1.42 0 0 1-.187-.344c-.005-.013-.027-.05-.03-.062-.002-.006.001-.025 0-.03-.003-.012.002-.05 0-.062-.001-.006 0-.025 0-.03a1.48 1.48 0 0 1 0-.062c0-.006-.001-.025 0-.03s-.001-.025 0-.03-.002-.025 0-.03c.004-.012.027-.05.03-.062.003-.006-.003-.026 0-.03s.028-.026.03-.03c.018-.028.04-.066.063-.094.01-.01.05-.052.063-.062.006-.005.025-.026.03-.03s.025-.026.03-.03c.055-.044.146-.082.22-.125-2.898-3.942-1.052-9.048-4.406-12.75-1.67-.235-2.622-.262-4-.25zm5.5 15.875c.93.468.797 1.732 1.03 2.656-.004.006.004.026 0 .03s-.027.026-.03.03-.027.027-.03.03l-.03.03a.59.59 0 0 1-.156.094.81.81 0 0 1-.187.031c-.126.005-.273 0-.375 0-.175-.698-.8-1.54-.656-2.25.008-.037.02-.1.03-.125.008-.022.022-.072.03-.094.027-.057.085-.133.125-.187.063-.082.153-.174.25-.25z"/><path d="M369.822 157.614c.12 3.582.234 7.638 2.316 10.65.348.8-.576 1.266-.8 1.734-1.506.7-2.658-1.734-4.164-.924.114-.7.576-1.854 0-2.43-.582.228-1.278.8-1.278 1.386v1.278h-1.728c-.576-1.044.582-2.898-1.038-3.702.348-2.322.348-5.442.924-8.334 1.728 1.044 4.398-.354 5.778.342m-8.92 11.928v-2.088c.696.222 1.044-.456 1.62-.582l.228 2.67z"/></g><path d="M305.706 171.66s-3.762-7.038-8.682-7.614c-4.92-.588-7.716-.402-11.2 1.626s-10.002 6.084-13.698 19.77c-3.66 13.608-4.05 21.222-2.892 29.814 0 0 4.632 34.428 22.572 59.028s32.8 36.456 43.1 42.246c8.832 4.944 34.146 14.178 34.146 14.178s32.118-7.818 56.712-33.864c24.594-26.04 28.26-35.874 35.208-52.656 6.942-16.782 7.326-29.802 6.168-39.348-1.152-9.552-4.914-28.938-13.884-35.016-8.97-6.072-14.472-5.202-18.8-3.468s-8.1 6.36-8.1 6.36z" fill="none" stroke-width="3.474" class="D"/><g class="B"><path d="M346.62 180.717c-.003.003.003.028 0 .03l-.25.125a.73.73 0 0 0-.312.438c-.17.896.938 2.5.938 2.5l1.72 27.78-2.687-.187-.594-8.875-4.22.375v7.156h-4.25l-2.906 2.688-.562-8.312 5.97-.375-.562-2.5-5.844.594-1.312-14.094h-2.125l.406 25.47-5.22-.78-3.656-17.156-1.562.188-.75.75-4.25-.375v5.78l5 .78 2.53 11.375s-.738.177-1.22.5l-.094.063-.03.03c-.007.006-.024.025-.03.03l-.03.03-.094.125-.03.03a1.28 1.28 0 0 1 0 .031l-.03.03c-.01.024-.025.07-.03.094v.28l.03.063a1.39 1.39 0 0 0 0 .031c.4.972 2.313 3.094 2.313 3.094l11-.937 1.563-1.75 1.906 1.53 3.688.22 1.344-1.937 2.688 1.53c0 0 6.952-2.125 9.844-2.125s53.03 1.344 53.03 1.344l-1.72 2.72c.027.19.312 1.752 1.938 1.938 1.74.186 31.25.156 31.25.156l-1.75 5.03.78 3.28-3.47 4.844 3.28.188-4.844 6.906 3.094.406-3.094 3.094 4.438-.22v10.813l2.313-.187V251.5h3.094l-.187 4.063h3.094v-5.97l1.72.188v6.188h2.125l.97-17 2.688 1.75-.375-4.625 1.156-.187c0 0-2.72-4.455-2.72-6.375 0-1.932-.187-4.25-.187-4.25l2.125.97 1.344 2.313-.937 2.5 2.313-.97-.406 17.375-2.687 3.656 2.5-1.156.594 1.375 2.875-5.625V230.28l.78-4.812 3.094-.375.188-1.53-2.906-1.75 3.094-1.72-2.312-2.344-.406-4.812 2.906-2.5-2.906-.97-.75-4.812 1.906-1.375s-1.522-2.5-1.906-3.437c-.384-.972-.78-2.906-.78-2.906l3.875-1.344c0 0-4.45-3.858-7.156-5.406-2.595-1.476-7.154-3.33-8.187-4.156-.03-.026-.073-.073-.094-.094-.768-.774-3.094-3.28-3.094-3.28s-2.07-.613-3.03-.156c-.05.025-.114.063-.156.094l-.062.03-.062.063c-1.126 1.056-13.867 11.405-14.437 12.313-.384.774-1.543 4.852-2.125 5.813-.576.96-2.51 3.638-3.47 5-.906 1.26-1.3 2.368-1.344 2.5.08.062.61.465 1.094.594.003 0 .028 0 .03 0l.125.03h.094c.01 0 .046 0 .063 0 .022-.006.073-.024.094-.03.003 0 .028 0 .03 0 .576-.186 3.096-1.16 4.063-.78.906.36 1.464 1.07 1.53 1.156 0 0-.958 0-2.5 0s-4.623 1.54-5.78 2.5-3.656 2.125-3.656 2.125l-.78-.375 5.406-3.875c-.125-.1-1.13-.873-1.687-.594-.01.005-.052.026-.062.03-.576.372-4.046 1.913-5.594 2.688-1.446.726-2.72 1.975-2.875 2.125v.53c-.3-.496-5.053-8.433-12.156-8.625-7.103-.18-11.867 8.136-12.156 8.656l-14.656-2.312.375 1.563-8.47-.594 4.22-1.344.406.78 2.5-.78-13.5-3.47-1.344 3.47-3.687-.375-3.062-27.78c0 0 .564-1.465.156-2.312l-.03-.062c-.024-.037-.068-.092-.094-.125-.02-.024-.07-.072-.094-.094-.033-.027-.093-.072-.125-.094a1.48 1.48 0 0 0-.531-.187c-.074-.01-.167-.03-.25-.03-.017 0-.046 0-.062 0-.006 0-.026 0-.03 0-.013 0-.046 0-.062 0a2.32 2.32 0 0 1-.031 0c-.003 0-.03 0-.03 0s-.03 0-.03 0-.028 0-.03 0-.028 0-.03 0-.028 0-.03 0-.028-.003-.03 0zm104.22 10.094c.197.087 1.36.566 2.063.906.774.402.75 1.56.75 3.28 0 1.626-.333 2.74-.375 2.875l1.344 2.344 1.344-2.53h.97l-2.312 4.656c.003.003.028.028.03.03l.063.063a.98.98 0 0 0 .125.094c.014.008.047.023.063.03.174.082.46.156.875.156.015 0 .048-.001.063 0s.052 0 .063 0c.035.007.097.023.125.03.693.22.884 1.348.906 1.5 0 0-.188 2.72-.187 4.844 0 .563-.133.978-.312 1.28a1.8 1.8 0 0 1-.25.313l-.03.03a2.1 2.1 0 0 1-.344.25 2.12 2.12 0 0 1-.687.219h-.062c.065.068.587.636 1.313 1.188.768.57.938 2.29.938 6.53 0 4.11-2.705 5.157-2.875 5.22l-2.906-5.78 2.313-1.156-3.062-5.812 3.063-1.53s-.748-1.546-1.906-3.094c-1.152-1.536.188-4.812.188-4.812.082-.134.728-1.25.188-2.875-.527-1.57.23-2.526.375-2.687 0-.002 0-.03 0-.03s-.38-1.524-.187-2.687c.01-.068.032-.176.03-.25v-.03c.001-.013.001-.05 0-.062-.15-.98-1.378-2.205-1.687-2.5zm-2.625.938l-.906 1.53 1.72 1.906c0 0-.664 3.3-.25 4.47 0 .003 0 .028 0 .03l.063.125c.582.96 2.698 2.142 1.156 6-1.542 3.852-1.755 5.59-1.562 7.125.192 1.548 0 3.656 0 3.656l-.937-.187-.594-3.47-.562-1.344c0 0 .563-3.296.563-4.844 0-1.536-1.156-4.406-1.156-4.406s-6.155 1.13-7.312 1.72c-1.158.57-3.875 1.563-3.875 1.563l-.375-1.187s8.364-3.04 9.063-3.47c.576-.384 2.125-.375 2.125-.375l1.156-4.625c0 0-1.344-1.35-1.344-1.937a4.07 4.07 0 0 1 0-.031c0-.003 0-.028 0-.03s0-.028 0-.03.028-.028.03-.03c.35-.628 2.687-1.978 3-2.156zm-8.78 15h.125c.004 0 .027 0 .03 0s.028 0 .03 0a2.21 2.21 0 0 1 .156 0c.003 0 .028 0 .03 0 .046.008.107.02.156.03.003 0 .028 0 .03 0s.028 0 .03 0c.006.006.026.026.03.03.003 0 .028 0 .03 0l.03.03h.03l.094.094c.006.007.025.024.03.03.045.057.092.148.125.22.207.48.17 1.195.156 1.313l-1.375 2.906.78.75 2.688 1.375.97-4.25 1.156-.562s.406 1.726.406 2.5c0 .762-1.17 3.86-1.937 5.594-.726 1.626.25 2.908.375 3.063l-.562 2.125h-.97v-1.156c.018-.13.132-1.225-.594-2.125l-.062-.062a3.33 3.33 0 0 0-.125-.125l-.03-.03c-.673-.532-1.57-.07-2.125.03-.01.001-.05.001-.062 0-.004 0-.028 0-.03 0h-.062c-.576 0-2.312-1.156-2.312-1.156s-.768.2-1.344.563l-.03.03c-.01.006-.046.023-.062.03-.003 0-.028 0-.03 0-.01.006-.052.026-.062.03a.75.75 0 0 0-.031 0c-.62.042-1.585-.988-2.094-2-.576-1.158-1.156-4.25-1.156-4.25l-.97.406-.97-.97 4.063-3.28.188 1.53-1.156 1.344s-.01.976.375 3.094c.36 1.99 2.1 2.45 2.313 2.5l1.75-1.344 1.344 1.938 2.688.375.97-2.5s-4.44-1.948-5.406-3.094a1.76 1.76 0 0 1-.25-.406c-.48-1.124.348-2.572 1.03-3.25.516-.52.972-1.053 1.438-1.28a1.77 1.77 0 0 1 .156-.062c0-.002 0-.024 0-.03zm9.22 11.78l-.187 2.875-1.156 3.094-.406-.75-.562-4.25zm-6 5.594l1.156 2.313-.937 2.5-1.375.97v-3.28zm4.438 5.03l1.75.375s.188 2.332.188 3.094c0 .774-1.344 4.438-1.344 4.438l-1.344-2.344zm-5.375 2.875l.938 1.563-.75 2.875-1.156-.187V233zm.75 6.188l.78 1.72-.594.97-1.906-.187zm3.28 2.313l1.938.375-.97 6.188-.97-.22zm-4.437 3.28l2.5.78.22.75-2.906 2.875-.78-.344-.187-3.125z"/><path d="M351.463 216.842c-1.774.24-3.29 1.526-4.47 2.47-.045.036-.084.084-.125.125l-.062.063c-1.565 1.783.42 7.11 1.344 11.188.966 4.242 8.5 15.25 8.5 15.25l3.656 6.938s-.955.784-1.53 1.75c-.582.96-2.14 4.623-1.75 9.063.384 4.434 4.454 6.153 6.188 7.125 1.74.96 5.78.375 5.78.375l1.344 1.156-23.72-1.156 1.72-6.75 1.375-3.062.938 5.375c.002.006-.002.025 0 .03.014.04.046.1.063.125.024.045.062.115.094.156.006.007.025.024.03.03.013.014.048.048.063.063s.047.05.063.063c.065.054.15.117.22.156.325.18.755.26 1.063.188.027-.008.068-.02.094-.03.017-.008.046-.022.063-.03.01-.005.052-.026.063-.03a1.06 1.06 0 0 0 .094-.094c.006-.005.026-.026.03-.03.384-.576.563-3.093.563-6.375 0-3.27.192-12.16 0-14.47-.198-2.322-2.312-2.687-2.312-2.687l-5.97-.375s.005-1.162-.187-1.75c0-.003 0-.028 0-.03s-.028-.028-.03-.03a1.24 1.24 0 0 0-.062-.094c-.445-.548-2.15-1.24-3.375-1.594-1.35-.372-9.06-.937-11.375-.937-2.3 0-8.88 1.135-14.094.938-5.208-.186-13.875 1.75-13.875 1.75l-3.47-2.875-1.937 1.53-2.53.188.78 3.28s-1.522 7.53-1.906 8.688c-.01.035-.023.092-.03.125a1.44 1.44 0 0 0-.031.313 1.16 1.16 0 0 1 0 .031c.11 1.15 1.558 2.683 2.563 3.188 1.152.576 3.28.563 3.28.563l1.875-1.844c-.085.247-.156.564-.156.906 0 .774.594 1.906.594 1.906s2.622.94 3.625.78c.003 0 .028 0 .03 0 .966-.198 3.47-.594 3.47-.594l2.5 5.78c.774 1.746-.188 7.156-.187 7.156s-2.9.482-3.844 1.156c-.003.003-.03.028-.03.03-.04.038-.093.09-.125.125l-.03.03c-.006.005-.026.026-.03.03l-.03.063c-.01.022-.025.068-.03.094 0 .006 0 .028 0 .03a2.31 2.31 0 0 0 0 .063c0 .01 0 .052 0 .063.002.002.024.024.03.03.014.034.044.1.063.125l.03.063c.005.01.026.052.03.063l.03.03c.005.006.026.025.03.03.618.63 2.367 1.25 3.906 1.25 2.124 0 8.12.375 12.938.375 4.824 0 14.258-.396 18.5-.594 4.242-.192 9.082-.75 13.906-.75 4.818 0 16.383.75 19.28.75 2.892 0 12.55.78 15.25.78 2.706 0 14.08.22 16.78.406 2.706.198 17.744 1.905 19.094 1.72.24-.035.458-.1.625-.187.118-.057.23-.122.313-.187l.156-.156a1.9 1.9 0 0 0 .094-.125 1.45 1.45 0 0 0 .094-.187c.013-.028.048-.093.063-.125v-.062c0-.003 0-.028 0-.03s0-.026 0-.03 0-.028 0-.03c0-.012 0-.03 0-.03l-4.437-1.53-9.25.313a.66.66 0 0 0-.031 0c0-.002 0-.024 0-.03.003 0 .028 0 .03 0a19.55 19.55 0 0 1 .969-.094c4.626-.396 8.66-4.634 9.625-6.937.966-2.3.375-7.344.375-7.344s2.128.375 3.094.375c.954 0 3.678-.192 5.406 0 1.734.198 2.904-.57 4.063-1.53 1.158-.966 2.125-1.53 2.125-1.53l-6.375-.594.97-3.656.375 3.28 2.125-.594-.187-8.47-.594-.406-2.312 2.53.78.563-1.156.78-1.344-2.312-2.72 5h1.375l-.594 2.906H425.9l.375-7.53c.192-3.672 6.157-16 8.28-18.125 2.124-2.118 2.14-4.815 1.75-5.78l-.03-.062c-.013-.022-.046-.07-.062-.094l-.03-.03c-.032-.035-.084-.1-.125-.125-1.016-.842-4.43-1.625-6.312-1.625-2.118 0-4.255 1.174-6.187.406-1.85-.744-5.85-.05-6.844.688l-.03.03c-.01.005-.052.026-.062.03l-.03.03c-.047.04-.124.086-.187.125-1.106.643-4.412.896-6.906-.53-2.7-1.536-5.418-.577-7.344-.187-1.932.384-3.668.192-5.594-1.344-1.932-1.548-5.007-.57-5.78 0l-.125.063c-.94.483-3.61.427-5.25-.656-1.74-1.164-2.898-.778-6.75-.406-3.864.402-3.684-.57-6-1.53s-7.9.984-11 1.188c-3.084.186-3.28-.398-6.562-2.906-1.1-.843-2.164-1.16-3.156-1.125-.008 0-.023 0-.03 0-.03-.001-.094 0-.125 0-.004 0-.025 0-.03 0-.012 0-.05 0-.062 0-.004 0-.027 0-.03 0-.01 0-.05.001-.062 0-.004 0-.027 0-.03 0-.028.003-.066-.004-.094 0zm-52.625 31.03a.26.26 0 0 1 .125 0v1.344c-.002.035-.02.093-.03.125a.71.71 0 0 1-.094.156c-.012.013-.05.05-.062.063-.074.068-.185.138-.28.188a2.93 2.93 0 0 1-.687.219s-.2-.07-.375-.22a1.45 1.45 0 0 1-.125-.125c-.06-.075-.127-.184-.156-.28-.037-.145-.034-.338.063-.53.312-.63 1.28-.87 1.625-.937zm7.156 1.938c.063-.01.13.002.188 0a1.5 1.5 0 0 1 .594.125c.037.018.083.024.094.03 0 0-.205.955-.78 1.53-.108.1-.22.2-.312.25a1.07 1.07 0 0 1-.156.063c-.014.003-.05.03-.062.03-.007.001-.025-.001-.03 0-.012.001-.05 0-.062 0-.006 0-.026 0-.03 0s-.026.001-.03 0c-.053-.008-.118-.046-.156-.062-.014-.007-.05-.024-.062-.03-.025-.016-.055-.024-.062-.03 0 0-.368-1.36.406-1.75a1.59 1.59 0 0 1 .469-.156zm116.406 1.72l.406 5.188s-1.364-2.305-2.906-2.875c-1.548-.576-3.462-.78-8.094-.78-4.48 0-7.357 4.882-7.53 5.188l-.97-.375 1.156-5-25.625.78c.26.112 2.408 1.054 4.22 2.5 1.926 1.536 3.844 5.594 3.844 5.594l-.562.78 9.844.188c0 0-.768 3.645 0 5.188.774 1.536 2.313 3.688 2.313 3.688H381.9c0 0 3.08-3.494 3.47-4.844.384-1.35.97-4.22.97-4.22s-.772-.973-1.156-2.125c-.4-1.158-1.735-2.52-3.47-4.062-.007-.006-.024-.025-.03-.03-1.836-1.524-10.97-2.28-10.97-2.28l-1.937-1.156zm-31.25 2.313l.78 1.156v1.906l-1.344.22V255zm23.156.97l.97.938-.78 3.28-.562-.187zM313.213 255l.97 2.125-.97 12.03c-.17-.982-1.535-8.734-2.094-9.5-.005-.005.004-.027 0-.03-.582-.576-1.75-3.28-1.75-3.28zm50.156 0l3.875.75-2.125 1.75-2.312-1.344zm36.28 0l1.344.375-.78 3.094-.75-2.125zm12.53 0l.594 3.656-1.75.375-1.156-3.47zm-4.25.97l1.344 2.688-.375.78-2.5-1.156zm-35.094.188l1.72.188-.375 3.656-2.5-2.125zm44.563 0l.97 1.156-1.562 2.125-.75-.375zm-40.125.375l1.72 1.563-1.156 2.688h-1.156l-.187-.97zm-37.625.97l.594 2.688 4.03 2.344-1.72 7.906-6.75.188zm21.625.594l3.47 1.156-.406.563-3.656-.97zm28.344 0l5 .188.22 1.156h-5.03zm-19.28 1.156l1.72 1.53-.97 1.53-1.906-.187zm35.688.188l2.688 1.72.188 1.375-2.687.938zm-88.562.563l4.625 3.656v6.78l-5.594-.594zm102.625.188l-.187 1.375-2.687.75-.22-1.906zm-40.5.22h1.156l.188 2.875-2.312.188-.375-.937zm-19.5.375l3.875.78-3.875.563zm53.438.75c.012-.005.05.003.063 0 .006-.001.025 0 .03 0s.024 0 .03 0c.027.001.07 0 .094 0 .033.001.086-.006.125 0 .03.005.07.025.094.03.005.002.025-.002.03 0 .04.015.094.048.125.063.15.073.298.202.406.344.02.028.07.1.094.125.127.223.188.515.188.813a1.86 1.86 0 0 1-.031.344 1.6 1.6 0 0 1-.219.531c-.015.022-.045.07-.062.094-.033.036-.094.096-.125.125l-.062.063c-.023.017-.07.047-.094.063-.135.08-.3.12-.47.125-.17 0-.357-.04-.5-.125-.024-.015-.07-.045-.094-.062l-.062-.062c-.03-.03-.092-.09-.125-.125-.018-.025-.048-.072-.062-.094-.097-.147-.177-.34-.22-.53-.02-.106-.03-.23-.03-.344 0-.335.094-.668.25-.906.005-.008.026-.024.03-.03a1.21 1.21 0 0 1 .406-.344c.03-.014.085-.048.125-.062.006-.002.026.002.03 0 .01-.004.02-.026.03-.03zm-78.312.22l-3.656 8.875-4.25.188s-.777-1.528-.97-2.5c-.192-.96 0-6.375 0-6.375zm39.28 1.313c.016-.005.046.004.063 0 .003 0 .03 0 .03 0h.063c.003 0 .03 0 .03 0s.023 0 .03 0h.063c.01 0 .046 0 .063 0 .01 0 .052 0 .063 0 .003 0 .028 0 .03 0 .05.012.11.04.156.063a1.14 1.14 0 0 1 .156.094c.08.065.166.16.22.25.008.015.024.047.03.063s.025.046.03.063c.006.01.026.052.03.063 0 .003 0 .03 0 .03.006.01.026.052.03.063v.063c.001.014 0 .048 0 .063a2.15 2.15 0 0 0 0 .063c0 .008.001.026 0 .03-.006.023-.024.072-.03.094a1.02 1.02 0 0 1-.031.094 1.21 1.21 0 0 1-.062.125c-.015.024-.045.072-.062.094-.012.014-.05.05-.062.063a1.2 1.2 0 0 1-.156.125c-.033.02-.1.048-.125.063s-.088.023-.125.03c-.005.006-.026.025-.03.03-.01 0-.052 0-.062 0-.016 0-.052 0-.062 0s-.044 0-.062 0c-.008 0-.026 0-.03 0s-.028 0-.03 0l-.062-.03c-.178-.04-.356-.146-.47-.28a1.16 1.16 0 0 1-.094-.156c-.007-.014-.025-.05-.03-.062s-.027-.05-.03-.062c-.002-.007.002-.025 0-.03V264c0-.003 0-.03 0-.03-.004-.014-.024-.045-.03-.062-.001-.004.001-.028 0-.03 0-.014-.001-.048 0-.062s.025-.052.03-.062c0-.01 0-.052 0-.062 0-.003 0-.028 0-.03l.03-.062c.006-.016.025-.047.03-.062s.023-.048.03-.062.022-.048.03-.062a1.36 1.36 0 0 1 .094-.125c.04-.042.108-.093.156-.125.014-.01.048-.023.063-.03.03-.015.062-.052.094-.062zm-9.97.594l.406.97-3.28 1.75-.97-1.53zm52.875 0l1.906.22-.187.97-1.72-.22zm-48.437.22h2.906l.188 1.156-1.72 1.906zm31.438.375h1.188l-.22 1.563-.97.75zm8.313.188l.375 1.156-2.5 1.75-.78-2.312zm-30.28.406l2.688.563-.562 1.53-2.5-.562zm37.22.97l1.156 3.28-2.125.938-.375-3.844zm-50.156.188l.78.75-.78 1.938-1.906-.78zm10.813.97h.97l.563 2.125-1.344.563zm-2.687.188l1.53 1.156-.187 1.53-2.5-.187zm36.063 1.156l-.187 2.313-1.375-.594zm2.125.78l.97.375v1.906h-1.75z"/></g><g fill="none" class="C G"><path d="M354.702 234.36s-2.7-4.83-2.892-6.762c-.198-1.926.96-5.976 3.66-3.27 2.7 2.694 3.474 4.428 3.282 5.586-.192 1.164-.192 3.084-.192 3.084m2.892-9.258l4.05 10.218c1.158 2.9 1.542 6.762 1.542 6.762m4.056-.972l-1.158-11.178m13.5 14.07l.582-10.026m11.766 5.598l.576-6.174m9.84 8.682l1.158-9.84m10.224 11.574l3.084-9.066m-51.696 9.066s3.282.576 4.242 1.164c.966.57 2.316.762 2.316 1.734v2.88m0-2.88s.192-2.124 2.892-1.938c2.7.204 4.44 0 4.632 2.3l.192 3.096m2.508-.186s-.774-4.056 2.124-4.056c2.892 0 5.784.198 5.976 1.548l.4 2.694m7.524 0s0-4.242 2.892-4.044m9.642-1.158s-3.666.57-3.474 2.508c.198 1.92.582 2.508.582 2.508m5.592-.402s.966-3.27 2.316-3.654l3.1-.774m-62.3.384l3.474-1.548" class="F"/><path d="M428.004 263.094h2.124m2.3-.192l10.998-2.316m-14.856 5.988l2.898-.198m-6.558 2.892l5.976-1.158m.192 2.508s5.4 1.344 6.366.768" class="D"/><path d="M361.068 246.144l3.468-1.542m-2.94 3.258l3.474-1.548m-2.316 3.282l3.474-1.548m-2.892 3.258l3.468-1.536m-63.222-5.2s6.558-1.734 8.292-1.734c1.74 0 3.474 1.146 4.056.96l4.236-1.164c1.542-.372 11.958.774 11.958.774m11.97.4l-2.508.186m-24.888 2.136s-1.926.762-1.542 1.734c.384.96.966 2.508.576 3.078-.384.576-1.926 2.124-.768 2.706 1.158.576 2.118.762 2.118.762m1.356-3.078s-.582-2.694.768-3.084c1.35-.384 2.7-.198 2.7-.198m2.898 4.626l2.3 6.564" class="F"/></g><path d="M287.557 181.5l-1.344.22-.187.938-3.28 1.53 3.28.22v1.53l-2.5 2.125-1.937 4.25-.187 4.438-8.312 7.688 9.47 11 27.594.594.75-2.906 1.938-2.5.188-5.22.97.22.188-1h-5v.03l-.594 2.72 1.53.375-1.344 2.125-2.125.563.594-11 2.688-.75-.187-1.75-5.97-.375.375 14.063-5-.187-.22-6.562 3.094.375v-9.625l-2.875-.406v-2.5l2.313.22-.187-5.812-1.937-.187-.406-2.687h-2.094l-.406 4.063-2.312 2.5-.375 1.72 2.875.406v2.125l-5.375-.406v5.594h-1.75l.188-9.656 3.094-2.28-4.437-1zm-1.72 18.906l.78 10.594-2.312-.187.188-10.22zm-3.875 2.125v7.5l-2.094-1.906 1.53-5.406zm12.156 0l2.313.188v8.47h-8.094v-3.625l1.156.156-.187.97 4.438-.187zm-16.562 1.906l-.22 1.75-1.156-1.156z" class="B"/><g class="D"><path d="M410.448 209.466l11.766-4.83m-13.116 3.282l15.624-8.286 35.298-17.748m-1.536-4.818l-49.77 29.118m43.206-35.496l-44.556 33.564m25.464-35.868l-26.622 36.252 38.772-37.8m-21.606 6.75l-19.674 30.294m9.066-30.486l-11.2 28.74m5.4-29.124l-6.558 29.124m.198-28.938l-2.508 28.176m-3.666-28.176l.966 28.176m-9.072-27.978l6.756 27.4m-19.68-27.588l17.556 27.972-11.382-27.774m-14.466-.198l23.34 29.706M357.786 173l28.746 32.016M349.686 173l35.298 32.8M337.728 173l46.872 31.83m-58.836-32.016l58.062 33.36m-95.676-40.122l94.716 41.286m-102.048-36.846l99.54 40.128M276 177.252l103.776 35.112m-106.284-29.9l96.258 27.402m-97.806-19.878l10.224 2.508m40.128 8.886l20.442 6.162m-72.912 6.372l12.534.4m27.204 0l11.766.774" fill="none" class="E"/><g class="B"><path d="M280.434 217.95s-1.926-1.536-2.892-1.344c-.966.198-3.474.972-3.474.972s1.542.762 2.892.96c1.35.186 3.474-.588 3.474-.588m.12 4.032s-1.926-1.548-2.892-1.35c-.966.192-3.474.966-3.474.966s1.542.774 2.892.96 3.474-.576 3.474-.576"/><path d="M286.224 222.006s-1.932-1.548-2.898-1.35c-.966.192-3.468.966-3.468.966s1.542.768 2.892.96c1.35.198 3.474-.576 3.474-.576m-4.248 3.468s-1.926-1.548-2.892-1.344c-.966.198-3.474.96-3.474.96s1.542.774 2.898.972c1.35.186 3.468-.588 3.468-.588"/><path d="M286.248 220.086s-1.932-1.548-2.898-1.362c-.96.198-3.468.96-3.468.96s1.542.774 2.892.972c1.35.192 3.474-.57 3.474-.57m6.726-.588s-1.932-1.548-2.898-1.35c-.96.192-3.468.966-3.468.966s1.542.774 2.892.972c1.35.186 3.474-.588 3.474-.588m0 3.282s-1.932-1.548-2.898-1.362c-.96.204-3.468.972-3.468.972s1.542.774 2.892.966c1.35.198 3.474-.576 3.474-.576m6.942-3.396s-1.926-1.548-2.892-1.35c-.966.186-3.474.96-3.474.96s1.542.762 2.892.96c1.356.198 3.474-.57 3.474-.57m-7.668 5.748s-1.926-1.53-2.892-1.344c-.966.198-3.474.96-3.474.96s1.542.774 2.898.972c1.344.186 3.468-.588 3.468-.588m7.74.774s-1.926-1.53-2.892-1.344c-.966.198-3.474.972-3.474.972s1.542.762 2.892.96c1.35.186 3.474-.588 3.474-.588m-2.58 3.438s-1.926-1.548-2.892-1.35c-.966.186-3.474.948-3.474.948s1.542.774 2.892.972c1.356.192 3.474-.57 3.474-.57m5.622-7.902s-1.932-1.536-2.898-1.332c-.96.186-3.468.96-3.468.96s1.542.774 2.892.96 3.474-.588 3.474-.588m4.4 1.338s-1.926-1.548-2.892-1.362c-.966.204-3.474.972-3.474.972s1.542.774 2.892.966c1.35.198 3.474-.576 3.474-.576m3.276-2.124s-1.926-1.542-2.892-1.344c-.96.186-3.468.96-3.468.96s1.542.774 2.892.96 3.468-.576 3.468-.576m8.5-1.932s-1.926-1.548-2.892-1.344c-.966.198-3.474.96-3.474.96s1.542.774 2.892.972c1.35.186 3.474-.588 3.474-.588m-.966 3.282s-1.926-1.548-2.892-1.35c-.966.192-3.474.966-3.474.966s1.548.768 2.898.96c1.35.198 3.468-.576 3.468-.576m6.948.186s-1.932-1.536-2.892-1.344c-.966.198-3.474.972-3.474.972s1.542.762 2.892.96c1.35.186 3.474-.588 3.474-.588m-11.574 4.644s-1.932-1.548-2.898-1.35c-.96.186-3.468.948-3.468.948s1.542.774 2.892.972c1.35.192 3.474-.57 3.474-.57m5.986 1.92s-1.926-1.548-2.892-1.35c-.966.192-3.474.966-3.474.966s1.548.768 2.898.972c1.35.186 3.468-.588 3.468-.588m9.542-.642s-1.932-1.548-2.892-1.35c-.966.186-3.474.948-3.474.948s1.542.774 2.892.972c1.35.192 3.474-.57 3.474-.57"/><path d="M285.066 260.586l11.184.582-2.7 1.926 4.05-2.508 11.766-.4" class="E"/><path d="M305.682 265.212s-1.932-1.548-2.898-1.344c-.96.198-3.468.96-3.468.96s1.542.774 2.892.972c1.35.186 3.474-.588 3.474-.588m1.182 2.706s-1.932-1.542-2.898-1.344c-.96.186-3.468.96-3.468.96s1.542.774 2.892.96 3.474-.576 3.474-.576m-6.948 3.084s-1.926-1.548-2.892-1.35c-.966.192-3.474.966-3.474.966s1.542.768 2.892.972c1.356.186 3.474-.588 3.474-.588m8.884 8.298s-1.926-1.548-2.892-1.35c-.966.186-3.474.96-3.474.96s1.542.774 2.892.966c1.35.198 3.474-.576 3.474-.576"/></g><g fill="none" class="E"><path d="M320.604 286.002l6.174-.96c2.316-.198 3.1.186 5.4 1.344 2.316 1.152.576 1.536.768 3.858.192 2.3-5 3.084-9.45 3.468-4.434.4-2.892-3.468-2.7-8.298.192-4.812-1.158-4.038-5.016-4.038-3.852 0-9.834 3.276-9.834 3.276l5.208 2.7-.582 3.468 9.456-1.152" class="C"/><path d="M426.894 287.16s-5.982-4.824-9.84-5.4c-3.858-.588-6.75-.588-6.168 3.468.576 4.044 1.302 6.612 1.302 6.612s1.008-.246 3.906-.246c2.892 0 4.626 1.158 4.626 1.158l.4-4.428zm-98.382-8.496s-1.926 8.1 7.14 7.722c9.066-.384 67.7-.198 67.7-.198s4.242-.57 4.05-4.242c-.192-3.654 1.92-6.36-10.224-6.936-12.156-.588-62.694-.588-62.694-.588s-6.366-.57-5.982 4.242z"/><path d="M402.156 286.626s.126 4.5 3.084 5.784c6.174 2.712 8.874-.186 8.874-.186m-3.666-8.106l-3.276.768" class="C"/></g></g><path d="M358.838 287.092l2.5 4.22-4.437-1.906-1.156 1.72 2.875 2.906-4.812-.78-1.906 4.063 9.438 1.53-.97 6.75-8.687-.78-3.062-8.656-2.906.375 1.938 8.5-11-.22 3.094 10.438h2.125l-1.75-7.344 8.688.594.97 3.656-5.22-1.156.375 3.28 9.28 2.906 1.53 4.625s3.082 1.33 7.906 1.906c4.824.588 17.938-.562 17.938-.562l-.594-4.25s1.356-.967 4.063-2.125c2.7-1.158 5.594-8.47 5.594-8.47l2.906-1.156-3.28-1.344 4.813-6.97 8.313-.187v-1.937l-8.875-.187-3.28 2.125 2.125-3.47 7.313-.78.188-1.53-8.875-.22-10.22 12.375-2.5-.406.375-6.562 3.094.78-1.344-1.937 2.5-.75-1.344-1.156 1.156-2.125-5.78-1.156 2.688-3.094-2.312-1.344-3.844 3.28.938-3.28h-7.125l-.375 2.906-1.156-3.094h-3.28l-.187 2.688-.97-2.5zm-.78 21.03l.375 1.938-3.47 3.063-1.937-4.812z" class="B"/><path d="m360.366 315.25172-2.118 3.084m8.1 2.118 1.158-2.118m4.434 2.892.582-2.118m-8.298-13.704h8.682m5.208 3.48-4.632 6.942h6.366" fill="none" class="C E F"/><g class="B"><path d="M338.916 278.55h-2.244v-1.302h6.582v1.302h-2.304v5.376h-2.034z" class="D"/><path d="M344.034 283.926v-6.678h2.046v2.646h2.5v-2.646h2.028v6.678h-2.028v-2.742h-2.502v2.742zm7.95 0v-6.678h5.598v1.302h-3.564v1.368h3.276v1.3h-3.276v1.422h3.564v1.284h-5.598m17.232-6.676v4.23c-.018 1.854-1.656 2.58-3.504 2.58-1.854 0-3.492-.714-3.5-2.58v-4.23h2.034v4.14c.03.84.516 1.38 1.476 1.38.954 0 1.44-.54 1.47-1.38v-4.14h2.028m1.388 0h2.85l2.46 4.968.024-.012v-4.956h1.824v6.678h-2.82l-2.484-5.118h-.018v5.118h-1.836zm8.454 6.665h2.094v-6.653h-2.094zm3.198-3.313c0-2.202 1.368-3.48 3.804-3.48 2.43 0 3.804 1.278 3.804 3.48s-1.374 3.48-3.804 3.48c-2.436 0-3.804-1.278-3.804-3.48zm3.804-2.196c-1.386 0-1.668 1.176-1.668 2.22 0 .996.282 2.154 1.668 2.154 1.38 0 1.668-1.158 1.668-2.154 0-1.044-.288-2.22-1.668-2.22m4.896-1.156h2.85l2.46 4.968.024-.012v-4.956h1.83v6.678h-2.82l-2.5-5.118h-.018v5.118h-1.836zm-132.264-67.404l1.956 3.078 3.06.4-2.046 2.718.498 3.444-3.144-1.524-3.414 1.152.774-3.06-2.124-2.73 3.132-.4zm-.06-13.488l1.962 3.078 3.054.4-2.046 2.718.504 3.444-3.144-1.524-3.414 1.152.768-3.06-2.118-2.73 3.132-.4zm4.062-15.048l1.572 3.306 2.982.75-2.364 2.448.078 3.492-2.934-1.902-3.528.708 1.14-2.946-1.77-2.964 3.156.012 1.668-2.916m4.854-13.866l1.566 3.306 2.988.75-2.364 2.46.072 3.48-2.934-1.896-3.528.714 1.146-2.952-1.776-2.964 3.156.012zm-7.92 55.362l2.004 3.072 3.06.324-2 2.754.552 3.444-3.168-1.488-3.396 1.2.732-3.072-2.166-2.694 3.132-.426zm1.656 13.896l2.004 3.06 3.06.354-2 2.742.546 3.444-3.156-1.488-3.402 1.194.732-3.072-2.16-2.694 3.126-.42zm4.596 12.75l2.148 2.964 3.072.204-1.878 2.844.714 3.402-3.228-1.326-3.342 1.35.582-3.108-2.286-2.592 3.108-.558zm4.5 11.64l2.148 2.964 3.072.186-1.878 2.862.714 3.396-3.228-1.326-3.342 1.35.582-3.108-2.286-2.586 3.102-.576zm6.942 12.15l2.148 2.964 3.072.198-1.872 2.838.714 3.408-3.234-1.32-3.336 1.344.582-3.102-2.286-2.592 3.102-.576zm7.524 11.58l2.148 2.964 3.072.186-1.872 2.85.714 3.408-3.234-1.326-3.336 1.338.582-3.096-2.286-2.586 3.102-.576zm8.5 10.416l2.148 2.964 3.072.192-1.878 2.844.714 3.408-3.234-1.332-3.336 1.356.582-3.114-2.286-2.58 3.102-.576zm10.608 9.834l2.148 2.964 3.072.198-1.872 2.838.708 3.408-3.228-1.326-3.342 1.35.588-3.102-2.292-2.592 3.108-.576zm11.97 7.5l1.9 3.126 3.048.456-2.106 2.676.426 3.456-3.108-1.596-3.444 1.068.84-3.048-2.058-2.766 3.138-.312zm10.698 7.794l1.9 3.126 3.048.456-2.106 2.676.426 3.456-3.114-1.596-3.438 1.068.84-3.048-2.058-2.766 3.138-.318zm12.15 6.948l1.896 3.126 3.042.45-2.106 2.682.426 3.456-3.108-1.596-3.438 1.056.84-3.036-2.064-2.778 3.138-.3 1.368-3.06m14.472 4.242l1.896 3.126 3.042.45-2.106 2.682.426 3.456-3.108-1.596-3.438 1.068.84-3.048-2.064-2.778 3.144-.3 1.362-3.06m14.862 2.694l1.9 3.144 3.048.444-2.106 2.67.426 3.456-3.108-1.6-3.444 1.062.846-3.042-2.064-2.766 3.138-.306 1.368-3.072"/><path d="M292.356 409.86h12.6v-44.406h-12.6zm38.394-22.188c-5.412-.762-7.296-4.206-7.296-9.996 0-9.036 7.23-11.574 14.55-11.574 7.956 0 13.998 2.472 13.998 11.574 0 5.472-1.398 9.366-6.234 10.056v.33c6.24.63 9.702 5.892 9.702 12.762 0 10.44-10.278 11.226-18.678 11.226-7.698 0-16.428-3.2-16.428-12.4 0-6.936 4.02-10.968 10.386-11.796zm14.064 10.056c0-4.194-3.054-6.048-6.8-6.048s-6.8 1.854-6.8 6.048c0 4.206 3.054 6.048 6.8 6.048s6.8-1.842 6.8-6.048zm-12.732-19.158c0 3.432 2.418 5.472 5.922 5.472 3.498 0 5.916-2.04 5.916-5.472 0-3.438-2.418-5.472-5.916-5.472-3.504 0-5.922 2.034-5.922 5.472m39.978 19.56c1.158.768 4.92 3.078 8.106 3.078 4.392 0 5.778-1.266 5.778-5.016 0-4.062-1.92-6.948-3.846-6.786-2.22.18-7.788 1.02-8.106 3.318l-6.948-2.694 4.368-22.7 24.594.048v8.268l-15.456-.276-1.542 6.948c.384-1.164.756-.4 5.4-.4 8.592 0 13.9 5.298 13.9 13.5 0 10.254-6.15 15.822-16.206 15.822-9.294 0-11.958-3.084-13.9-3.852zm45.912 3.468c.066 1.464 4.608.606 5.688 1.242 1.086.63 2.25-.672 3.57-.858 2.7-.384 6.306-2.436 6.558-8.094-2.478 3.114-6.054 2.832-10.026 2.304-5.8-.774-11.2-6.066-11.2-14.658 0-10.632 5.94-15.234 15.612-15.48 12.93-.33 18.012 11.376 17.568 24.738-.192 6.114-2.856 12.96-5.4 15.444-4.524 4.386-9.264 5.394-13.314 5.766-7.8.726-12.54-1.524-12.54-1.524zm10.02-27.27c-4.266 0-6.876 2.598-6.876 6.618 0 4.572 2.928 6.612 6.876 6.612 4.584 0 6.87-3.564 6.87-6.612 0-4.266-2.736-6.618-6.87-6.618M137.88 67.974l-6.366 5.202s-3.762-3.762-7.236-3.468c-3.462.294-7.212 4.536.582 9.552 8.1 5.202 9.486 11.8 9.258 17.076-.288 6.642-5.76 11.376-11.574 11.562-8.97.294-17.94-5.496-17.94-5.496l5.208-8.388 9.546 4.056s4.632 0 3.762-4.926c-.864-4.908-9.672-13.92-11.862-17.94-3.468-6.36 4.344-16.194 10.128-15.618 8.64.864 11.574 2.028 13.02 3.762s3.474 4.626 3.474 4.626m6.078-5.8v10.7l10.416-.864.288 33.846 10.704-1.152-.288-33.564 9.258-1.746-.576-9.534-29.802 2.316m60.755-5.78l-13.875 1.156-9.844 46.313 10.72-.312 2.594-7.22 11.844-1.156 2.344 4.906 9.53-2.03zm-6.062 13.313l5.78 16.78-9.562 1.438zm20.823-16.5v9.846l11.868-1.44.576 35.292 12.726-2.022-.282-34.728 8.388-2.598V47.43z"/><path d="M262.302 45.696l1.158 44.556 27.774-4.056-.576-9.258-16.206 1.734.288-7.512 7.23-1.452-.282-8.388-6.366.294-.582-8.982 17.076-3.174-.87-9.27zm75.818-7.822c-9.558.396-19.408 6.078-18.25 20.844 1.674 21.378 10.135 27.188 19.97 27.188 9.84 0 17.67-13.295 17.094-24.875-.582-11.568-4.923-23.732-18.812-23.156zm.313 8.688c.184-.012.38-.007.563 0 8.1.294 8.094 9.267 8.094 14.47 0 5.214-1.15 14.17-9.25 13.875-8.106-.276-7.817-8.965-8.687-15.03-.84-5.87 4.24-12.987 9.28-13.312zm48.867-7.52l-23.436-.588-.288 45.726h11.28V64.8h5.214l-.294-8.682-5.208-.294V46.86l13.026.276zM432.65 42c-9.427.187-19.167 5.566-18.594 20.125.84 21.42 9.078 27.56 18.906 27.938 9.834.384 18.126-12.602 18-24.187C450.837 54.282 447 41.963 433.088 42c-.15 0-.288-.003-.437 0zm.344 8.688c.205-.008.422.016.625.03 8.082.612 7.735 9.58 7.53 14.78s-1.725 14.112-9.812 13.5c-8.082-.6-7.432-9.267-8.062-15.375-.6-5.875 4.687-12.75 9.72-12.937zm27.344-5.378c-1.015.008-1.562.094-1.562.094L457.62 94l9.25 1.75.594-11L483.37 99.5l1.72-10.125L476.994 81s11.288-6.095 11-13.03c-.294-6.936-2.028-15.337-12.156-19.375-7.28-2.915-12.907-3.302-15.5-3.28zM470.4 57.75c1.5-.04 3.393.156 5.156.97 3.762 1.734 2.596 8.67 1.438 12.156-1.158 3.468-10.125 4.03-10.125 4.03l.594-16.78s1.226-.33 2.938-.375zm28.302-3.1L495.8 99.5l24.018 5.214.576-9.84-12.732-4.044.288-7.242h6.654l.294-9.54-6.078-1.164v-7.8l11.574 1.44.576-8.682-22.278-3.18m61.354 18.514l-6.948 5.214s-4.05-7.518-11.28-3.48c-7.236 4.056-7.236 11.58-6.078 16.782 1.158 5.214 2.652 10.326 7.524 11.004 8.388 1.152 6.366-4.056 6.366-4.056l-5.208-.57-.294-9.552 15.63.87s.546 16.884-3.474 19.968c-4.92 3.762-16.35 6.792-23.436-.294-6.078-6.084-8.34-14.556-7.23-23.718.696-5.778 3.468-15.342 8.964-18.234 5.496-2.898 12.15-3.762 15.624-2.3 3.474 1.44 9.84 8.388 9.84 8.388m24.948-4.074c-9.558.4-19.377 6.1-18.22 20.844 1.674 21.4 10.13 27.188 19.97 27.188 9.834 0 17.64-13.295 17.063-24.875s-4.923-23.738-18.812-23.156zm.375 8.688a5.73 5.73 0 0 1 .5 0c8.1.294 8.094 9.255 8.094 14.47 0 5.202-1.15 14.17-9.25 13.875-8.1-.288-7.818-8.953-8.687-15.03-.843-5.894 4.282-13.042 9.344-13.312zm25.605-6.94l.576 44.844 9.84-.294.288-19.086 12.726 17.352h10.992l-1.446-45.714-10.128.87 1.158 23.718-16.782-21.984-7.23.294M476.796 211l-1.962 3.096-3.054.384 2.046 2.718-.498 3.444 3.144-1.518 3.414 1.134-.774-3.06 2.124-2.718-3.132-.384-1.308-3.084"/><path d="M476.856 197.502l-1.962 3.096-3.054.384 2.046 2.718-.504 3.444 3.144-1.518 3.414 1.134-.768-3.06 2.118-2.718-3.132-.384-1.302-3.084m-4.068-15.06l-1.566 3.318-2.982.75 2.364 2.448-.078 3.492 2.934-1.908 3.528.714-1.14-2.94 1.77-2.964-3.156.012zm-4.848-13.86l-1.566 3.3-2.988.75 2.364 2.466-.072 3.468 2.928-1.902 3.534.726-1.146-2.952 1.776-2.964-3.156.012zm7.92 55.356l-2.004 3.06-3.06.342 2 2.754-.552 3.444 3.168-1.488 3.396 1.182-.732-3.06 2.16-2.706-3.126-.408zm-1.656 13.902l-2.004 3.054-3.06.342 2 2.754-.552 3.444 3.162-1.488 3.402 1.194-.732-3.066 2.16-2.706-3.126-.414zm-4.596 12.75l-2.148 2.964-3.072.186 1.878 2.85-.714 3.408 3.228-1.326 3.342 1.35-.582-3.108 2.286-2.586-3.102-.576zm-4.5 11.634l-2.148 2.964-3.072.186 1.878 2.85-.714 3.408 3.228-1.332 3.342 1.356-.582-3.102 2.286-2.592-3.102-.576zm-6.942 12.15l-2.148 2.97-3.072.198 1.872 2.832-.714 3.414 3.234-1.338 3.336 1.35-.582-3.096 2.286-2.586-3.102-.576zm-7.524 11.58l-2.148 2.964-3.072.192 1.872 2.844-.708 3.414 3.228-1.338 3.336 1.344-.582-3.102 2.286-2.58-3.102-.57zm-8.5 10.422l-2.148 2.964-3.072.186 1.878 2.85-.714 3.396 3.234-1.326 3.336 1.35-.582-3.108 2.286-2.574-3.102-.588zm-10.608 9.828l-2.148 2.964-3.072.204 1.878 2.832-.714 3.414 3.228-1.338 3.342 1.356-.588-3.102 2.286-2.592-3.102-.57zm-11.97 7.5l-1.9 3.132-3.048.456 2.106 2.67-.426 3.456 3.108-1.6 3.444 1.062-.846-3.042 2.064-2.766-3.138-.318zm-10.698 7.782l-1.9 3.138-3.048.45 2.106 2.682-.426 3.456 3.114-1.6 3.438 1.062-.84-3.048 2.058-2.772-3.138-.306-1.374-3.06m-12.14 6.946l-1.9 3.144-3.048.444 2.106 2.67-.426 3.468 3.108-1.602 3.438 1.062-.84-3.03 2.064-2.778-3.138-.306-1.374-3.06m-14.462 4.23l-1.9 3.144-3.042.444 2.106 2.682-.426 3.456 3.108-1.602 3.438 1.068-.84-3.048 2.064-2.766-3.144-.318z"/></g></svg>