<svg xmlns="http://www.w3.org/2000/svg" width="750" height="500" xmlns:v="https://vecta.io/nano"><path d="M0 0h750v500H0z" fill="#036"/><path d="M41.52 93.346c-21.148 70.502 63.886 127.468 121.808 76.353 60.744-63.782-7.044-149.927-77.44-122.428 51.38-8.834 82.004 50.53 47.455 87.572-33.37 34.1-94.226 11.688-91.822-41.497zm371.043-8.74c-2.695 1.253-4.686 4.898-5.823 7.775l-8.186 24.064-4.207 10.852c-2.616-.353 1.032-4.823.83-6.736.865-3.926 2.787-7.764 2.95-11.77-.658-3 .067-6.894-1.423-9.336-2.223 5.13-5.04 10.044-6.953 15.3-1.44 6.295-3.37 12.477-4.177 18.9-.482 3.325-1.067 6.603-2.146 9.8-2.662-.248-1.96-4.94-3.525-6.874-1.42-4.52-4.282-8.43-6.35-12.67-1.057-1.05-3.485-8.437-3.44-4.32l-.714 8.922-17.775-33.16c.482 3.6-.015 7.46 1.3 10.854 2.873 6.194 5.498 12.5 8.242 18.75-1.444 1.367-1.735-.892-2.456-1.8l-16.42-29c-2.2 1.553-.67 4.416-.956 6.655.903 3.14 2.983 5.95 4.4 8.924l7.913 14.465c-1.907 2.102-2.945-3.85-4.3-5.2l-14.943-25.703c-2.233.772-2.924 2.407-2.548 4.57-.37 2.168.53 4.012 1.783 5.754l11.556 19.844c-1.308 1.52-1.708-.7-2.47-1.588l-18.64-29.494c-1.512-.68-3.65-2.495-3.166.518-.72 3.77 3.38 6.408 4.72 9.67l16.724 25.613c-1.152 1.553-1.68-.43-2.423-1.283l-10.475-14.856c-1.304-.34-2.98-1.186-2.486.93-.086 1.343-.444 2.76.696 3.77l16.796 25.133c1.8 3.664 3.423 7.438 5.312 11.033l9.57 9.847c-2.3 1.843-4.6-4.008-6.9-5.065-2.415-2.718-5.664-4.9-7.027-8.372-1.657-2.6-2.607-5.682-5.163-7.576-2.83-2.124-5.006-5.993-8.3-6.955-1.06 2.34-.196 7.605 2.984 9.414.317.873 4.775 3.875 2.327 3.26-4.8-.527-9.308-2.206-13.805-3.864-2.718 2.607 6.488 4.694 1.32 5.757-3.737.05-6.62-3.338-10.036-4.593-8.514-4.656-17.237-8.944-25.943-13.213l-5.422-1.636c-.503 3.153 4.424 4.042 6.06 6.272l19.988 10.527c-.212 2-2.007.485-3.208.293l-37.155-11.965c-2.08-.497-1.718.594-.876 1.998.207 1.623 1.82 1.704 3.078 2.173L300.438 149c.383 1.533.704 3.08 1.038 4.625-2.2-1.82-4.388-3.902-7.415-4.1-6.332-1.568-12.857-.24-19.276-.165-3.426-.82-3.87 1.944-.458 2.534 2.742 2.13 6.276.934 9.463 1.103l15.548-.506c.918 2.953-5.06.977-5.287 3.375-.598 2.847 4.776 2.848 6.715 2.266 2.964.05 5.02-4.344 7.538-3.596-.658 2.818-5.606 3.448-6.168 6.363-.373 2.92 5.588 2.06 7.303.813 2-1.653 5.414-4.148 5.597.28.58 4 5.87 2.452 8.746 3.807 5.127.782 10.377 1.106 15.457 1.946l14.587 6.6c-.997 2.752-5.272-1.42-7.487-1.258-3.67-1.024-7.052-3.108-10.95-3.146-3.37-.62-6.756-.547-10.14-.153L294.5 172.3l-28.6 4.724c-2.42.75-7.68 2.17-2.643 3.146 10.815-.508 21.608-1.418 32.404-2.234.78 1.888-1.54 1.244-2.7 1.545l-26.934 2.733c-2.764 2.044-6.453 3.17-7.96 6.512.433 4.76 6.4.407 9.344.724 7.768-1.306 15.507-2.543 22.997-4.94 2.232.178 7.8-3.807 8.148-.944l-25.5 7.628-5.456 1.275c-.53 4.372 6.08 1.822 8.777 2.517 5.927-1.386 11.576-3.778 17.434-5.44 3.124-.257 7.856-3.92 10.12-2.415-2 2.053-6.682 3.137-9.602 4.836-6.027 2.637-12.14 5.058-18.014 8.052-3.87 3.92 4.1 3.56 6.07 1.53 6.276-2.88 12.474-5.918 18.657-9.018 1.516 1.254-.713 1.853-1.502 2.713-3.503 2.742-6.92 5.578-10.825 7.734-1.513 1.215-3.987 1.64-4.283 3.866 3.43 1.95 6.7-.415 9.784-1.95l24.35-15.258c3.537-1.584 7.166-2.956 10.76-4.404 1.388 1.386-.88 1.807-1.74 2.62l-11.85 7.92c-4.306 4.454-8.205 9.352-13.3 12.967-2.37 1.984-4.792 3.77-6.666 5.957l-11.253 11.12c-1.15 3.812-3.6 7.395-3.328 11.485.047 4.403-.453 8.855-.038 13.228.452 1.817 1.5 5.96 1.855 1.82.2-1.894 1.507-8.424 2.9-3.842.77 1.714 1.53 6.882 2.443 5.985 1.338-2.652 1.586-6.373 3.74-8.383 1.92 1.12 3.435 3.883 5.264.704 2.32-2.7 1.976-6.762 3.13-10.05l2.994-12.8c1.818-.526 1.388 1.676 1.84 2.805l1.746 7.9c3.97-1.72 2.35-7.085 3.628-10.48.254-2.544 1.063-9.24 3.795-4.13 1.605 3.85 6.05-.588 5.916-3.387l2.706-13.307 3.65 6.323c4.144-.192 5.57-4.35 8.258-6.812 2.416-2.508 4.57-5.414 7.25-7.596 3.055-1.575 5.918-3.678 9.06-5.034 3.066 2.834-1.56 6.66-3.303 9.092-3.888 4.803-8.686 8.76-12.756 13.4-1.607 1.854-4.12 3.4-3.446 6.17l6.23 2.66c-3.107 1.557-6.446 2.897-9.312 4.782-2.776 2.4-5.772 4.532-8.683 6.764-.786 2.112-1.294 4.498 1.83 3.62 2.23-.384 8.238.57 3.517 2.767-4.437 2.9-9.575 4.7-13.968 7.582-1.216 1.624-4.482 4.173-.503 4.058 2.657-.382 6.635-4.43 8.6-2.38-2.793 3.086-6.413 6.064-9.47 9.147-1.557 1.205-5 4.554-2.965 5.495 4.843-2.315 8.245-6.667 12.37-9.983 1.45-2.303 5.335-4.35 4.105.14l-14.348 17.903c.496 5.832 4.246-1.674 6.094-3.24 2.88-3.4 5.56-7.044 9.324-9.53 1.307-.284 4.754-5.195 4.937-3.188-.088 1.67.428 3.534-1 4.833-2.978 4.015-4.97 8.607-7.408 12.948-.403 1.874-.82 7.26 1.888 4.72 3.224-6.012 7.157-11.635 9.695-18 2.602-5.46 4.357-11.32 6.538-16.92 1.835-2.74 2.732-1.8 2.477 1.052.296 2.663.184 8.36 2.022 8.763 3.342-7.635 7.537-14.856 11.1-22.377 1.233-3.67 2.698-7.274 4.22-10.844 1.92-.2 1.038 1.883 1.227 3.093-.13 2.428.257 4.94-.2 7.316-2.07 5.945-3.623 12.076-6.5 17.704-1.75 3.62-4.224 6.88-5.917 10.52-1.696 2.2-1.067 2.226.845.927 3.38-1.548 5.65-4.45 7.994-7.2 3.686-2.956.95 3.766.1 5.192-2.005 5.684-3.302 11.648-5.572 17.262-.028 1.7-.618 5.612 1.55 2.618 4.068-3.18 5.55-8.276 7.983-12.622 1.476 2.156 4.252 3.402 5.597.743-.226-3.358-1.774-6.838-.263-10.1 1.493-5.38 2.72-10.86 3.56-16.373.405-3.352.63-6.742 1.046-10.082 1.865-.96 1.077 2 1.227 3.124v7.666c1.827.2 5.18-3.037 6.135-.912-1.844 1.58-4.66 2.558-6.33 4.277l-.213 6.42 6.827-4.153c1.614 1.135-.525 1.92-1.257 2.86l-5.6 5.226-.094 4.53 4.75-1.48c1.298 1.477-.94 1.8-1.87 2.58-1.05.975-3.4 1.142-3.068 2.976l-.474 13.823c.832-1.647 3.767-5.613 3.338-5.838-.962 1.883-4.463 2-2.08.05 1-1.204 6.393-5.05 4.486-1.207-1.86 2.682-3.475 6.252-5.427 8.454-.555-.054-1.22 3.888.46 3.1 1.397.95 5.708 1.384 2.73 3.038-1.274 1.28-2.87 2.417-3.95 3.782.088 3.857-.884 10.282-.13 12.523 1.138-1.6 4.883-4.488 4.097-5.243-1.58.755-6.393.395-3.024-.83 2.052-.778 7.784-.997 4.12 2.234-1.952 3.48-6.6 4.574-5.722 8.38.018 2.808-1.132 4.523 2.304 4 3.933-.344 4.207 3.488.662 4.537-2.438 1.423-4.57 1.33-3.096 4.562.76 2.124 6.004 3.557 4.688 5.757-.196-2.48-.754.957-2.1-1.532-1.67-1.332-3.82-4.5-3.114-.298l-.94 24.04c1.653-.506 4.585 1.8 4.615 2.883-1.705 1.58-5.774-5.324-4.716.144.057 2.463-.6 7.014-.1 8.16.82-.7 2.123 1.283 3.13 1.624l3.447 2.384c-.633 1.953-1.98-.06-3.06-.58l-3.8-2.63c.297 3.258-1.134 9.253.177 10.938 1.495 1.102 5.4 4.27 5.305 6.042-1.933.516-4.724-5.25-5.94-4.922l-.548 14.6c2.03.68 6.142 3.324 7.214 4.988-1.834 1.554-5.706-4.217-7.293-3.484-.288 3.928-.052 7.944-.615 11.826-.745 2.823 7.032 2.126 5.35 5-2.868-.946-6.85-5.05-6.872.254-.613 4.227-4.46 8.544-1.465 12.55 1.153 3.253 4.847 4.638 7.613 6.292 3.267-.515 6.403-2.13 9.805-2.257 5.014-.777 10.114-1.057 15.112-1.864 2.112-1.54 4.73-2.992 1.546-4.967-2.534-3.1-1.932-7.545-3.402-11.077-.003-2.875-.594-4.125-3.124-2.05-1.983.393-5.065 4.62-6.188 1.986 2.963-1.434 5.65-3.3 8.65-4.687-.355-3.762-1.082-7.504-1.007-11.294-2.37 1.53-5.87 4.707-8.146 4.27.928-2.117 5.46-3.048 7.4-5.275 1.403-.02.486-2 .725-3.185l-.096-9.84c-2.196 2.48-4.824 4.246-8.148 4.782-2.472-2.16 3.773-1.383 4.58-3.223 1.495-1.7 4.258-2.74 3.517-5.38l-.075-8.7c-1.932 1.283-5.472 5.884-7.338 3.978 2.018-1.798 6.385-3.517 7.3-6.207l-.12-11.3a14.9 14.9 0 0 1-8.289 5.565c-1.65 1.83-5.02.205-1.662-.7 3.275-1.086 6.582-2.272 8.62-5.25 1.85-.992 1.23-2.755 1.295-4.582l-.1-8.048c-3.912 3.468-7.445 7.314-11.326 10.822-2.043-2.156 3.796-4.026 4.625-6.166 1.93-2.314 5.206-4.55 6.696-6.54l-.1-8.78c-1.5 1.38-3.905 3.127-.85 1.48 1.368 1.54-1.033 1.697-2.04 2.365l-4.158 1.945c-1.446-2.716 4.68-4.047 5.9-6.436 1.653.406 1.04-1.152 1.116-2.76l-.064-6.125c-2.044 3.72-6.116 1.563-9.366.888-2.4-.196-.142-.928.856-1.522l7.724-4.148c1.452 1.465-.943 1.743-1.914 2.46l-4.567 2.415c2.854 1.6 6.354.576 7.23-2.197.008-4.904-.134-9.723-.37-14.634-2.256 2.267-3.55 4.746-6.355 5.757 1.312-.606 6.72.18 3.083 1.133-2.086.417-9.05.682-4.177-1.975 2.5-.978 4.105-2.795 5.688-4.884 1.882-1.084 1.864-1.82 1.6-4.034l-.383-9.053c-1.142 1.404-6.007 5.25-4.766 5.245 1.456-.918 7.165-1.184 3.77.464-2.177-.138-6.882 2.894-7.656.237 3.033-1.742 5.263-4.46 7.796-6.858 1.483.2.506-2 .692-3.338l-1.095-27.178c-1.425 1.265-7.4 6.087-5.2 1.3 1.463-1.676 2.953-4.608 4.577-5.178 1.063-.546.093-2.524.34-3.644.245-2.773-1.446-5.135-2.273-7.68-.058-1.04-2.007-2.858-.35-3.166 1.805 1.533 2.66 5.695 4.12 8.158 2.224 5.148 4.764 10.182 6.72 15.432 1.082 4.368 2.234 8.722 2.4 13.245 1.1-.405 3.183.265 3.106-1.467.26-1.704 1.5-3.46.4-5.092-4.872-13.26-10.413-26.254-15.564-39.405 1.222-1.27 1.627.46 2.106 1.492 2.997 5.974 4.954 12.4 7.45 18.595 2.534 6.718 5.2 13.398 8.25 19.898 4.694-2.73.812-7.62.15-11.594-2.194-7.266-5.16-14.277-7.7-21.428-.755-1.27-2.404-1.867-3.5-2.88L389 223.5c1.324-2.5 4.263 1.895 6.295 2.112 3.494 3.68 4.354-1.977 7.454-2.627.87 3.2-5.024 5.772-1.886 9.456 2.26 7.714 4.3 15.506 7.285 22.978l1.5 4.04c-1.013 1.456.43 7.688 2.495 6.082.708-3.364 2.86-6.694 1.032-10.094-2.682-10.25-6.364-20.2-9.464-30.34.04-3.692 2.347 1.574 2.605 3.16 3.563 9.677 7.418 19.265 10.568 29.083-.67 2.884-.648 8.984 3.115 5.537.17-3.85.47-7.794-1.133-11.42-3.258-8.67-5.847-17.594-8.746-26.395-1.656 1.8-4.77.076-5.253-1.913.556-4.373-3.055-4.25-6.316-3.97-1.426-.14 2.5-2.183 2.95-2.926 1.762-.968 5.516-3.932 1.896-4.727l-3.47-1.597c1.728-2.974 3.518-5.892 5.807-8.48 1.4-2.57.34-7.183-2.397-8.75-1.984-1.1-1.76-3.604-2.546-5.467-1.036-1.097.003-3.2.83-1.62l1.547 5.316c2.988 1.603 4.375 4.234 4.306 7.552 1.363 3.096-2.23 4.974-3.554 7.318-.8 1.148-1.456 2.385-2.2 3.566 1.663.784 3.362 1.497 5.002 2.328.344 3.126-5.05 5.193-4.656 6.26 5.237-1.405 2.058 5.893 6 6.5 1.343-.013 2.5-1.35 3.783-1.904 2.268.43-.952 1.486-.418 2.5l12.583 34.535c-.383 4.175 3.595 4.72 6.072 6.45.343 2.226 1.408 6.453 3.756 5.545l.5-17.877c.34-2.033-3.114-6.96-.283-7.204 1.6 4.656 3.693 9.195 4.785 13.988.77 3.113-.763 8.17 3.7 8.633 1.97.8.445-6.354 2.556-4.406l3.492 2.768c4.725.113 1.212-5.067 1.3-7.708l-4.373-11.137c2.2-.9-1.182.322-.545-2.037-.508-3.653-2.875-6.4-4.994-9.257-.9-1.936-.838-4.228-2.517-1.48-1.997 1.654-1.117 4.382.284 6.126 2.278 3.527 2.053 8.188 4.9 11.377 1.252 2.054 2.93 4.126 2.496 6.675.1 1.173.204 3.505-1.258 2.376-.195-2 .535-4.144-.697-5.725-1.5-2.966-3.674-4.817-4.273-8.15-.654-3.35-2.523-6.215-3.932-9.25.316-.737-4.7.404-4.312-1.164 1.388-.195 1.142-.806 3.494-.283 1.78-1.506 1.763-4.342.566-6.23-2.363-5.295-6.002-9.936-8.65-15.07-.668-3.35.663-7.475-2.55-9.8-3.32-3.233-5-7.593-6.856-11.74-2.133-2.973-5.606-4.724-8.085-7.424-1.35.427-6.44.586-3.912-.938 3.482-1.393 5.88.594 8.096 2.952 2.527 1.965 5.2 3.997 6.058 7.223 1.576 3.767 3.628 7.252 6.547 10.143 2.572 2.415 1.244 6.276 1.93 9.374 3.166 5.743 7.402 10.987 9.532 17.24-.46 2.735.756-.875 2.055-.556-.123-3.097.955-7.285-1.048-10.17-2.1-3.888-4.527-7.637-6.418-11.6l-4.394-9.474c-1.54-3.575-3.778-6.785-5.894-10.03 2.1-2.206 3.208 4.15 4.845 5.254 3.684 6.517 6.003 13.716 10.03 20.05 1.175 2.78 3.666 5.22 4.193 8.18.405 1.77-.702 7.503.734 7.028l2.157-4.143c1.148-.544 3.42-.197 3.696-1.454.398-3.864-3.493-6.677-3.884-10.47-1.1-5.174-3.173-10.066-5.746-14.67-2.76-6.06-6.813-11.444-8.998-17.77-.578-3.7 2.415 1.02 2.477 2.744 2.125 4.835 5.227 9.178 7.422 13.998 2.1 3.92 4.1 7.875 5.24 12.193.787 4.06 2.462 7.814 4.576 11.37.363 1.623-.048 2.887 1.335 3.035.64 1.5-2.466.736-1.238 3.02.354 1.43-.37 6.832-1.443 3.758.094-2.535 1.3-6.658-2.333-4.717-.965.836-1.333 2.43-2.075 3.55-.6 1.523-2.9 1.416-1.338 3.577 2.03 3.025 4.734 5.717 5.265 9.482.43 3.358 3.22 5.633 4.908 8.534 1.83 1.88 3.976 7.637 5.8 6.604.82-3.575-2.32-5.96-3.468-9.066-2.456-5.254-4.684-10.613-7.03-15.918 1.906 1.375 4.335 2.176 5.422 4.432l13.14 17.4c4.7 2.257 1.813-3.6.378-5.443-3.584-7.232-8.5-13.702-12.724-20.562-.92-.938-3.86-5.502-1.114-4.097l14.5 17.895c1.633 1.116 4.582 2.045 3.6-.733-4.145-7.57-9.422-14.44-14.037-21.73-4.825-6.863-8.924-14.2-13.253-21.392 2.278-1.844 5.268 2.785 7.808 3.4 4.062 2.22 7.682 5.052 11.007 8.255 5.604 4.873 10.992 10.03 16.815 14.632 2.902 1.6 5.166 4.367 8.287 5.402.052-1.048-3.192-4.986-1.83-4.96 3.27.922 6.364 2.28 9.386 3.8 2.025.997 8.36 3.38 5.185-.75-1-2.066-5.822-3.184-5.036-5.425.893-.48 2.343 1.028 3.45 1.313 2.542 1.528 5.4 2.22 8.317 2.633 4.265-.2 1.585-4.633-1.296-4.662l-19.75-10.722c1.364-2.763 5.827 1.624 8.4 1.48 1.503-.473 7.025.662 5.093-1.944-.818-1.002-2.5-1.035-3.68-1.645l-27.053-9.78-11.6-7.645c.6-2.366 4.46.682 6.386.44 3.373.88 6.763 1.6 10.267 1.567 2.25.062 6.97.634 7.788.26-1.5-.804-8.066-2.707-4.312-3.733 1.883-.116 7.8-.235 2.756-.423-3.58-.372-7.318-.244-10.774-1.194.442-1.28 2.23-.797 4.565-.55 2.55.874 7.712-.623 8.7 1.515 2.53.8 6.974-.23 10.23-.033 4.506-.396 9.462.226 13.683-.887 1.472-2.292 5.873-3.036 5.793-6-.294-2.76-.326-5.607-.78-8.315-.937-1.024-1.136-3.105-2.724-3.197-4.255-.698-8.324-1.868-12.358-3.317-8.396-.205-16.827-.13-25.2-.63-2.713-.177-5.943 2.28-9.06 2.108-4.816.484-9.735.086-14.405 1.575-1.8 1.396-4.305-.618-1.42-.977 3.608-.955 7.258-1.608 11.002-1.55 3.807-.122 7.634-.406 11.164-1.964 2.164-1.468 2.643 1.026 3.067-1.696 1.98-.75 8.318-.22 6.825-2.307l-23.47.503c-2.814-.278-6.402 1.46-9.186 2.8-3.263 1.32-.57-2 1.447-2.076 3.464-2.054 7.773-1.545 11.137-3.775 5.258-2.45 10.198-5.55 15.32-8.242 1.33-1.178 5.035-3.014 1.116-3.395-3.075-.7-6.362 1.062-9.547 1.1-4.2.742.005-2.92 1.584-3.624 4.906-2.522 9.706-5.28 14.398-8.205 1.5-1.136 5.88-1.9 4.467-3.807-3.977 1.328-7.915 3.23-11.986 4.34-1.377.328-7.623 1.1-4.538-1.335l17.845-12.098c1.98-2.66.546-2.73-1.83-1.643-2.753.838-4.805 3.1-7.37 4.398-.88 1.543-5.814 2.85-3.195.176 2.656-2.308 5.25-4.694 8.023-6.864 1.4-1.95 2.838-6.596-.968-4.408-2.453 1.292-5.607 1.484-7.316 3.87l-9.082 9.4c-2.182-2.046 3.46-4.302 4.156-6.47 2.45-2.807 5.032-5.536 7.232-8.538.465-2.46.573-4.194-1.925-2.48l-3.643 1.567c.365 2.54-5.023 5.2-6.732 7.708-2.894 2.47-6.83 3.508-9.375 6.45-2.034-2.172 3.563-3.82 5.002-5.096 4.07-1.98 6.822-5.7 10.1-8.714-3.585.727-7.716.58-9.815 4.153l-16.265 15.5c-6.772 4.696-13.655 9.298-20.606 13.685-3.18 1.28-7.697.228-9.203 4.062-2.656 3.735-5.8 7.077-8.76 10.567 3.182-.7 6.203.026 9.076 1.437 2.762.966 5.1 2.876 7.755 4.07-.6 2.63-4.217 4.622-7.072 4.14-1.794-.05-3.4-1.262-5.134-1.78.17-2.068 1.925-.4 3.096-.107 2.3 1.245 5.42.76 7.114-1.28-.884-1.815-5.576-3.65-8.3-4.663-2.47-1.485-5.303-.463-7.983-.43-3.17.72.885-2.1 1.353-3.186 3.508-3.943 6.865-8 9.9-12.324-.22-3.185 3.3-5.436 4.486-8.375 3.46-5.1 5.247-11.1 7.902-16.652 1.13-2.312.547-5.012.84-7.514-.084-1.357.397-2.837-.08-4.1l-7.362 13.622c-2.914.168-.3-4.45.54-5.65 2.24-4.527 4.766-8.977 6.86-13.54l.182-5.727c-1.887-1.64-2.837 3.956-4.335 5.267-3.28 5.46-6.307 11.1-9.726 16.458-.335 1.8-3.957 3.127-2.505.562l14.912-26.83c2.014-3.57 1.367-7.74 1.654-11.657-1.93-3.05-3.278 1.642-4.825 2.854-1.98 2.458-2.707 5.685-4.227 8.445l-7.528 16.008c-2.803-1.155 1.617-5.34 1.654-7.695l7.186-18.637c-1.198-2.492-3.9 4.084-5.16 5.6-2.282 5.1-4.93 10.025-7.456 15.006-2.7-1.176 1.647-5.322 1.53-7.58 1.307-3.774 3.027-7.512 4.3-11.234-.2-1.405 1.8-5.057.03-5.128zm17.303 67.7c.62 2.482-3.118 3.614-4.656 5.537-1.933.72-8.845 2.418-5.87 3.972l5.9-3.123c2.513 2.385 6.314 4.938 6.017 8.58-2.388.6-1.37-4.68-4.2-5.17-1.3-2.267-2.968-1.688-4.732-.44-1.402.756-2.834 1.46-4.215 2.254-2.347-3.206.254-5.796 3.63-6.178 3.35-.523 5.3-3.4 7.82-5.336l.07-.057.245-.037zm17.806 6.92c.232 2.802-4.695 1.58-6.023 3.943-2.15 1.04-4.323 4.232-6.243 4.205-2.12-.413 2.547-2.46 3.3-3.612 2.686-2.153 5.428-4.136 8.976-4.536zm22.84 10.948c-.545.52-.163.417 0 0zm-64.524 2.737c2.92 1.098 6.03 1.796 8.503 3.814 3.194 1.13 3.345 4.783 4.272 7.54.1 1.777-1.446 7.43-3.057 6.22.65-2.606 2.963-5.817 1-8.798-.257-3.277-3.66-4.187-5.963-5.767l-5.205-1.846.44-1.164zm82.236.315c5.93.243 11.9.502 17.806 1.07.657.694-1.185.736-.912 1.1-7.637-.348-15.274-1.276-22.92-.643-3.58-.46-6.706 2.274-10.33 1.502-1.932.378-6.38-.654-3.337-1.457 3.472.4 7.007.43 10.247-1.057 3.07-.56 6.32-.185 9.447-.516zm-9.123 4.97c6.127.872 12.28 1.416 18.474 1.34 3.903.218 8.468-.172 11.974.45-.583 2.6-6.033.092-8.36.868-6.878-.082-13.77-.08-20.576-1.212-1.317.037-1.725-.17-1.5-1.447zm6.638 6.858c2.52 2.626 6.13 3.1 9.758 2.5 4.27-.276 8.643.88 12.784-.7 3.6-.335-.262 2.026-2.147 1.792-4.184.878-8.46-.283-12.687.247-3.376 1.195-6.143-1.652-8.566-2.285-1.813 1.07-3.804 1.303-5.852 1.152h-8.83c-.596-1.963 1.665-1.068 2.84-1.258l8.83-.03c1.275-.5 2.515-1.158 3.87-1.416zm-120.27 3.995c3.066 1.262-2.492 4.298-1.587 6.295.137 2.094.384 3.583 1.367.7l1.353-4.058c1.24 2.044 2.868 3.188 5.222 3.2 1.006 1.726 1.488 5.637 2.547 2.024.97-1.865 1.72-4.02 3.115-5.547 2.27 1.296-.314 5.9.346 8.274-.187 3.724.605 7.45.078 11.185.326 2.223-1.867 7.88 2.084 5.182 1.364-.65 1.543-2.57 2.38-3.787 1.513-2.928.954-6.494 1.94-9.6 2.932-.752.27 8.145 3.098 5.323.825-3-1.406-5.547-1.65-8.878v-5.914c1.963-.596 1.068 1.665 1.258 2.84-.144 2.37.104 4.728 1.133 6.9 3.232 1.744 2.713-4.266 5.285-5.474 2.8-1.12 1.227-6.96 4.058-6.323-.263 3.6-2.268 6.576-4.75 9.03-1.017 1.715-1.5 5.854-4.404 4.184 2.114 2.168-.285 6.715-2.894 5.946-.577-1.927-.623-4.182-.93-.888-.1 2.748-2.013 4.923-3.002 7.4-2.376 1.304-6.648 2.734-5.085-1.686.3-4.735.633-9.474.052-14.2-.055-1.553.8-6.437.02-5.477l-3.228 6.672c-1.352-2.024-.814-6.8-4.017-6.317-1.776-.353-2.404-2.473-2.84.402-.787.85-1.764 5.603-3.177 3.46-.345-2.615-.128-6.676-3.115-3.492l-1.604-6.386c1.76-1.068 1.448 1.34 1.916 2.442-.1 3.613 3.763.092 4.22-1.78l.818-1.667zm49.33 15.95c3.353 6.795 6.907 13.512 10.508 20.197 1.944 4.744 4.293 9.376 5.112 14.482-.77 2.424 4.946 5.713 2.155 6.344-3.082-2.408-3.4-6.234-4.247-9.753-2.013-6.278-4.915-12.263-8.137-18.018-2.323-4.13-4.295-8.426-6.46-12.624l1.07-.63zm-6.858 7.424c3.206.367-2.913 3.703 1.074 4.078 2.065.34 1.532 3.258 3.403 3.75 4.7.27-.5 6.97 4.33 5.984 2.324 1.83-.12 6.564 3.523 7.77 3.027 1.455 2.17 5.044 3.584 7.53.336 1.906 1.428 1.62 2.743.68.98-.648 2.937-1.66 2.57.13l-5.12 2.545c-1.36-2.634-2.57-5.348-2.863-8.337-2.666-2.005-5.082-4.236-4.664-7.9.633-2.8-4.72.052-3.306-3.484 1.854-3.594-2.296-3.13-3.152-5.543-.237-2.42-3.865-2.024-4.073-4.15.597-1.05 1.35-2.003 1.95-3.052zm-19.222 34.7c-.526 1.565-5.56 6.263-1.838 3.294 1.926-1.165 2.2-.407 1.852-3l-.014-.304zm-.755 11.168c3.64.62-4.525 4.122-2.772 4.2 1.068-.776 3.35-.676 2.165.67l-5.308 1.633c-1.32-2.825 4.48-4.235 5.852-6.45l.063-.063zm.378 12.05c2.987.093-1.636 3.1-2.485 4.404-3.26 2.65 3.875-2.627 3.303-.007-1.365.958-6.32 4.075-8.033 2.35 2.143-2.44 5.215-4.03 7.215-6.748zm-17.932 10.8c-.166 2.3-.605 5.2 1.607 2.33 2.46-1.5-.258-1.443-1.607-2.33zm-1.07 27.842c-.054 2.16-.87 5.597 1.982 2.894 2.1-.918 3.7-2.576.295-2.547l-2.277-.347zm-.535 23.595c1.898 1.158 6.747 1.447 6.624 3.6-1.36-.2-6.385-1.37-6.624-3.007v-.603zm-8.65 79.5c-7.43.205-14.886-.035-22.305.22-3.206 2.043-6.9 3.386-9.418 6.342-1.898 2.667 3.187 4.952 5.8 4.354 1.318.875 6.022-.837 5.222 1.636-1.23 3.57-5.247 4.198-7.896 6.355-1.634 3.395 2.244 7.6 5.16 4.373 1.728-1.64 3.218-1.83 4.442.195 2.023 1.586-1.417 5.855 3.014 5.625 2.894-1.458 5.477-4.005 8.196-5.935 1.804-2.306 4.723-4.87 5.867-.514 2.65 2.265 5.97 1.703 9.137 1.493 3.888-.133 8.168-.655 10.402-4.317 3.634-1.736 7.1 1.8 8.93 4.654 2.454 1.6 6.545 1.824 5.294-2.258-.964-2.67-.13-5.496 3.08-3.774 3.517.672 6.247 3.336 9.62 4.265-.204-2.565-.24-7.396 3.32-4.113 3 2.175 6.137 4.284 9.767 5.246.13-1.515-.27-3.173.22-4.593 2.333-2.398 7 4.637 5.977-.724.486-1.84-2.034-5.908.535-5.63 3.546 1.496 7.288 2.53 11.074 3.2-2.507-4.168-6.982-6.458-10.8-9.25-3.678-1.53-7.564-2.745-11.588-2.67-4.342-.396-8.8-.215-13.075-.85-1.835-1.333-1.532-.143-1.197.247-2.56 3.67-7.138 2.96-11.013 3.654-5.414.517-10.883 1.06-16 2.984-3.544.46-6.68-2.666-9.245-4.846-1.127-1.562-1.662-3.614-2.52-5.378z" fill="#fff" fill-rule="evenodd"/></svg>