<svg xmlns="http://www.w3.org/2000/svg" width="1000" height="700" viewBox="0 0 3000 2100" shape-rendering="geometricprecision" fill-rule="evenodd" xmlns:v="https://vecta.io/nano"><style><![CDATA[.H{stroke:#002868}.I{stroke-width:4}.J{fill:#fff}.K{fill:#002868}.L{fill:none}]]></style><path d="M0 0h3000v2100H0z" fill="#bf0a30"/><path d="M150 150h2700v1800H150z" class="J"/><path d="M225 225h2550v1650H225z" class="K"/><g class="J"><path d="M1006.58 1200.68c-9.935-49.674-41.395-91.07-51.33-94.38s-28.15-8.278-28.15-8.278 13.247-9.935 6.625-28.15-36.43-67.89-38.085-96.037 6.624-64.577 0-87.758-31.46-43.05-33.116-86.102 69.543-102.66 110.94-104.315 79.478 13.246 102.66 11.59 51.33-31.46 69.545-38.085 26.492 3.312 38.082-1.655 105.973-82.792 200.353-82.792 165.58 34.773 187.108 34.773 61.264-9.935 91.07 0 66.232 54.64 109.284 66.23 291.422 56.298 319.57 101.004 46.363 109.283 46.363 140.745-8.278 115.906-8.278 132.464 8.278 38.083 4.967 59.61-13.246 29.804-13.246 29.804-6.624-36.428-8.278-57.953 13.245-81.135 11.6-115.906-16.558-77.823-16.558-77.823-9.935 49.674-18.215 81.135-33.116 120.874-33.116 172.204 14.902 125.84 14.902 125.84-41.395 71.2-44.707 99.348-9.933 94.382-8.278 102.66-9.934-3.312-13.246 6.622-1.656 23.18-1.656 23.18l-38.085-3.31s1.657-16.56 8.28-28.15 16.558-19.87 14.903-34.772 1.655-79.48 1.655-79.48-28.148 48.02-36.428 66.233-8.28 41.395-11.6 49.675-9.934 8.278-13.246 18.213-8.28 9.935-8.28 9.935l-29.805 1.655s57.954-142.398 61.266-178.826-36.43-110.94-44.707-135.776-8.28-44.707-16.56-54.64-36.428-21.526-46.362-16.56-64.577 56.298-76.167 71.2-41.395 43.05-41.395 43.05-66.233-36.428-101.004-44.707-120.874-14.902-120.874-14.902 6.624 127.498 3.31 147.367-19.87 26.493-19.87 39.74V1406c0 9.935-26.492 13.247-33.115 21.526s0 14.902-8.28 26.493-19.87 8.278-24.837 14.9-1.656 46.364-1.656 46.364l-66.233-1.657s26.493-54.64 24.837-86.1-28.148-77.823-33.116-102.66-19.87-62.92-39.74-62.92-36.428 9.935-36.428 9.935 4.968-82.79-23.182-117.562-96.037-31.46-117.562-26.493-44.707 36.428-52.987 39.74-14.902 0-28.15 4.967-29.804 18.215-41.394 28.15z"/><g class="H I"><path d="M1307.6 689.937c0-13.64 11.76-9.876 23.048-15.052s21.167-12.7 21.167-12.7l.47 35.28H1309l-1.4-7.527zm186.72 33.87c-11.76 7.056-14.58.47-22.107-6.586s-30.105-23.518-30.105-23.518l60.2 9.878-7.997 20.226z"/><path d="M1307.66 687.855c-1.446 13.525-.522 23.33 6.51 29.835 7.055 6.586 12.7 4.234 17.874 3.293s68.204-26.34 87.5-26.34 45.632.934 60.208 14.582c6.56 6.142 13.17 10.818 12.23 14.582s23.52-13.172 23.048-23.99-34.337-32.456-70.555-37.63-84.57 23.993-119.476 26.812c-12.527 1.193-17.343 3.03-17.327-1.142z" stroke-linejoin="bevel"/></g></g><path d="M1493.26 703.22c-1.228 1.708-.754 3.36.87 4.67 1.102.9 2.932 1.753 4.044.374 1.024-1.27.124-2.444-.722-3.517-.86-1.087-2.056-2.295-2.483-3.62-.67-2.087 1.333-4.015 3.315-4.148 2.356-.162 4.822 2.067 5.454 4.233.333 1.108.046 2.226-.862 3.35l-1.3-1.04c.37-.596.556-1.13.566-1.603.014-1.547-2.074-3.54-3.643-3.405-1.144.098-2.235 1.137-1.746 2.344.515 1.24 1.713 2.438 2.552 3.504 1.168 1.48 1.685 3.125.37 4.756-1.852 2.296-4.6 1.46-6.587-.152-2.2-1.775-3.065-4.45-1.128-6.8l1.3 1.04zm1.46-9.94l-.9 1.265-3.57-2.533-6.63 9.343-1.46-1.034 6.63-9.343-3.58-2.535.9-1.262zm-24.2-12.873l1.6.74-2.23 4.885 6.15 2.816 2.23-4.886 1.62.74-5.4 11.822-1.62-.74 2.53-5.53-6.15-2.816-2.53 5.53-1.62-.74zm-13.2-3.315c1.183.3 2.148.8 2.895 1.468 1.085.976 1.56 2.323 1.42 4.04l-1.7-.43c.027-.972-.228-1.75-.768-2.332-.54-.588-1.3-1.007-2.283-1.257a3.96 3.96 0 0 0-3.285.561c-1.018.673-1.747 1.876-2.187 3.608-.38 1.5-.364 2.803.054 3.914s1.37 1.847 2.86 2.224c1.137.3 2.163.2 3.072-.268.918-.474 1.573-1.444 1.965-2.915l-3.946-1.004.36-1.415 5.53 1.407-1.714 6.742-1.097-.28v-1.726c-.74.5-1.363.798-1.87.93-.857.233-1.864.202-3.02-.1-1.492-.38-2.653-1.2-3.482-2.43-.865-1.5-1.028-3.322-.5-5.44.536-2.1 1.535-3.643 2.996-4.6 1.4-.912 2.947-1.15 4.675-.7zm-14.27-2.24l1.77.182-1.33 12.935-1.77-.182zm-10 5.214c.826.045 1.486-.085 1.98-.4.5-.304.775-.885.82-1.746.05-.925-.252-1.574-.905-1.945-.35-.197-.824-.3-1.426-.344l-4.296-.233-.24 4.436 4.064.22m-5.502-6.263l6 .325c1 .054 1.8.243 2.426.566 1.2.62 1.743 1.676 1.662 3.165-.04.778-.237 1.407-.588 1.884s-.815.85-1.408 1.12c.495.234.86.526 1.095.875.24.35.356.904.345 1.658l-.032 1.746c-.01.495.012.866.064 1.1.084.42.257.693.522.826l-.015.293-2.157-.118a1.62 1.62 0 0 1-.118-.439c-.026-.18-.037-.523-.033-1.03l.012-2.17c.005-.852-.28-1.437-.853-1.757-.328-.177-.85-.286-1.57-.325l-4.003-.216-.302 5.567-1.76-.094.703-12.983zm-50.235 8.8l1.73-.367 2.38 11.202 6.44-1.37.32 1.515-8.16 1.736zm-7.73 10.728l-3.405-5.03-.524 6.093 3.93-1.064m-4.798-6.652l1.923-.52 7.948 11.32-1.86.503-2.3-3.416-4.964 1.343-.34 4.128-1.743.47 1.33-13.83zm-16.223 6.1l1.635 7.867c.2.924.524 1.657 1 2.197.706.82 1.67 1.1 2.888.847 1.46-.305 2.352-1 2.67-2.12.17-.6.16-1.363-.03-2.28l-1.636-7.87 1.75-.364 1.486 7.15c.326 1.566.364 2.815.118 3.745-.455 1.697-1.756 2.77-3.906 3.216s-3.767-.02-4.856-1.395c-.596-.757-1.057-1.918-1.383-3.482l-1.486-7.15 1.752-.363zm-31.4 10.148l9.02-2.918.5 1.514-7.38 2.4 1.2 3.756 6.83-2.2.46 1.433-6.83 2.2 1.36 4.194 7.5-2.43.48 1.473-9.14 2.96zm28.66 4.45l-.586 1.26-2.332-.972a7.06 7.06 0 0 1-3.083 1.715c-1.952.5-3.648.273-5.092-.716-1.302-1-2.198-2.418-2.688-4.3-.446-1.7-.405-3.267.122-4.698.678-1.837 2.08-3.034 4.202-3.6 2.22-.582 4.05-.3 5.492.847 1.126.895 1.915 2.2 2.37 3.945.48 1.827.5 3.937-.488 5.6l2.082.892m-5.218.094c.294-.13.537-.3.73-.502l-1.66-.718.58-1.277 1.978.846c.687-1.38.643-3 .26-4.46-.387-1.48-1.087-2.568-2.1-3.266-1.006-.7-2.182-.874-3.522-.523-1.36.357-2.32 1.074-2.888 2.148s-.615 2.503-.144 4.302c.397 1.513 1.093 2.617 2.086 3.314 1.44 1.003 3.16.72 4.684.136z" class="K"/><g class="H I J"><path d="M1476.77 1013.57s-11.1-9.028-13.887-13.194-10.415-17.36-10.415-17.36l19.442-20.138s14.582 18.054 14.582 21.527-9.722 29.164-9.722 29.164zm2.78-97.903s-24.302-20.138-26.387-24.998-2.777-22.22-2.777-22.22l11.805-2.777s4.86 4.166 11.1 7.637 15.276 4.167 15.276 4.167l-9.027 38.2z"/><path d="M1496.38 741.43l-.478-11.632c-.16-3.665-5.257-8.285-5.257-8.285s-6.054 5.895-6.374 8.127-.477 13.224-.477 13.224l12.587-1.434zm9.4 280.7l-4.33-233.827-25.1.864-3.47 234.703z"/></g><path d="M1481.3 1024.4l2.218-243.656M1481.3 1024.4h0zm-4.44 0l.444-243.656m-.444 243.656h0zm17.74 1.32l1.774-245.875m-1.774 245.875h0zm-6.64-.44c-.443-2.22 1.775-245.876 1.775-245.876m-1.775 245.876h0zm14.2.88l.443-246.763m-.443 246.763h0z" class="L H I"/><g class="J H I"><path d="M1510.98 1039.46v-14.72l-4.33-3.46h-31.18l-7.8 4.33 1.73 15.6zm-6.15-285.6l-4.62-7.33 9.24-8.125-37.45-.64 8.13 8.764-3.66 7.17z"/><path d="M1501.72 776.963l-6.93-7.17s15.137-14.34 17.2-14.34 3.346 3.346 5.576 3.187 3.506-1.115 3.506-3.506-2.23-3.506-5.576-3.346l-49.076-.637c-3.506.158-4.622 2.23-4.46 3.983s2.55 3.506 4.62 3.346 2.708-3.506 4.94-3.346 11.8 13.384 11.8 14.34l-7.967 7.65 26.37-.16zm5.72 7.505c6.8 7.604 11.344 12.38 10.998 24.265 0 12.5-17.063 31.482-29.784 42.926-12.86 11.574-35.538 19.828-35.538 30.008 0 9.893 1.965 11.154 4.4 14.32-2.015-2.302-12.692-9.483-12.692-26.148s13.887-34.72 29.858-44.44 35.413-22.915 35.413-29.858c.426-6.187-2.666-11.072-2.666-11.072z"/><path d="M1504.07 889.256c.237 6.826 0 12.524.482 18.08.606 6.56-20.138 20.138-28.47 28.47s-29.164 17.36-30.553 29.858 10.94 24.135 13.818 28.882c-3.164-6.618 4.017-14.3 12.255-20.98 7.257-5.885 22.917-14.555 30.866-23.178 7.88-8.55 16.665-22.22 16.665-35.413s-8.815-23.634-15.064-25.717zm6.1-106.796l-8.76 6.454-25.4.797-8.45-7 8.45-5.737h25.73zm-122.66-62.358c-17.945 2.87-22.25 25.84-22.25 25.84s7.894 1.435 7.894 8.613.718 15.8.718 15.8l15.8-17.226-2.153-33.017z"/><path d="M1366.7 745.224c-6.46 6.46-9.33 14.355-9.33 14.355s-8.613-19.38-6.46-23.687 7.894-9.33 7.178-13.637-4.306-5.024-8.613-4.306-4.307 25.122-4.307 31.582 1.436 17.943 5.024 22.25 6.46 10.766 10.05 11.484 13.637-14.355 13.637-14.355 1.435-14.354-.718-17.943-6.46-5.74-6.46-5.74zm66.74-18.664c23.686 13.638 20.816 32.3 20.098 38.76s0 10.766 0 10.766 10.05 10.05 14.355 16.508l16.507 25.122-4.306 4.306s-17.943-12.92-25.12-21.533-38.758-60.3-38.758-60.3l17.225-13.638z"/></g><path d="M1373.87 964.854l-17.943-252.82m17.943 252.82h0z" class="H I L"/><g class="J H I"><path d="M1436.1 960.737l-62.138-.056c0-1.713 8.447-210.04 8.447-221.532s-1.7-20.295.733-22.984 24.208-1.956 29.098 0 19.805 6.602 21.027 9.292-2.933 18.827-2.933 24.45 6.356 20.783 5.868 28.606 6.373 88.395 6.373 93.774c0 6.638-5.445-3.406-7.903-.23-2.952 3.81 8.604 85.452 1.427 88.68z"/><path d="M1400.26 697.583l-.733 19.56c0 4.156 6.846 11.246 11.248 11.98s9.047-4.156 8.558-11.003-2.69-5.868-2.69-13.936-1.467-13.938-1.467-13.938l-14.915 7.336z"/><path d="M1397.08 679.245c-1.222 6.846-.98 18.093-.246 20.783s.735 10.025 5.135 10.76 11.737-8.803 13.938-12.96 3.177-9.292 3.177-9.292l-11.735-17.115-10.27 7.825z"/><path d="M1397.57 703.695l6.602-.5m-6.602.5h0zm6.83-14.915h5.135m-5.135 0h0zm-8.54-9.3c-2.2-4.646.733-13.694 9.047-13.45s17.36 12.226 17.36 18.338-1.7 11.737-3.178 11.737-8.313-19.316-13.937-19.56-5.134 3.178-9.3 2.935zm15.9 71.885c-12.47 24.45-22.005 33.008-26.407 33.254s-10.025-.5-10.025-.5l2.484 50.74 35.68.945m-1.73-84.448h0z"/><path d="M1422.5 752.108c-12.226 48.412-49.88 73.84-49.88 73.84l4.663 75.378 37.036-36.742m8.18-112.478h0z"/><path d="M1416.4 788.54c-10.025 78.243-44.5 65.772-44.5 65.772l1.904 69.353c28.78-6.9 30.932-29.87 30.932-29.87s10.048 2.87 17.225-4.307.718-30.862 2.87-41.63 2.87-22.25 2.87-22.25m-11.303-37.07h0z"/></g><g class="L H I"><path d="M1424.83 794.03c-2.87 12.203-5.743 38.04-5.743 38.04m5.743-38.04h0zm-40.2 39.476c12.2-5.743 27.274-44.502 27.274-44.502m-27.274 44.502h0zm30.87 28.71c-1.435 7.894.718 18.66.718 18.66m-.718-18.66h0zm.7 51.677c.717-17.945-1.436-20.098-1.436-20.098m1.436 20.098h0z"/><path d="M1421.24 743.07c4.306-7.18 5.023-20.098 5.023-20.098m-5.023 20.098h0zm15.8 128.476c-7.896-3.588-12.202-6.46-12.202-6.46m12.202 6.46h0z"/></g><g class="J H I"><path d="M1336.12 1015.2s11.1-9.027 13.887-13.194 10.416-17.36 10.416-17.36l-19.442-20.135s-14.583 18.053-14.583 21.524 9.722 29.165 9.722 29.165zm-2.78-97.905s24.305-20.137 26.387-24.998 2.777-22.22 2.777-22.22L1350.7 867.3s-4.86 4.167-11.1 7.64-15.276 4.166-15.276 4.166l9.026 38.2z"/><path d="M1316.5 743.06l.477-11.63c.16-3.665 5.26-8.287 5.26-8.287s6.054 5.896 6.373 8.126.477 13.226.477 13.226l-12.587-1.435zm-9.4 280.7l4.33-233.83 25.12.867L1340 1025.5z"/></g><path d="M1331.6 1026.02l-2.22-243.656m2.22 243.656h0zm4.44 0l-.443-243.656m.443 243.656h0zm-17.76 1.33l-1.775-245.876m1.775 245.876h0zm6.66-.45c.443-2.22-1.776-245.875-1.776-245.875m1.776 245.875h0zm-14.2.9l-.444-246.762m.444 246.762h0z" class="L H I"/><g class="J H I"><path d="M1301.92 1041.1v-14.72l4.33-3.46h31.17l7.8 4.33-1.73 15.58zm6.15-285.613l4.62-7.33-9.24-8.126 37.44-.636-8.12 8.762 3.66 7.17z"/><path d="M1311.26 778.114l6.853-6.692s-15.137-14.34-17.2-14.34-3.346 3.347-5.576 3.187-3.507-1.115-3.507-3.506 2.23-3.504 5.577-3.346l49.076-.638c3.506.16 4.62 2.232 4.46 3.984s-2.55 3.506-4.62 3.346-2.7-3.506-4.94-3.346-11.8 13.385-11.8 14.34l7.967 7.648-26.3-.637zm-5.34 8.326c-6.8 8.332-11.6 12.183-11.465 23.92 0 12.5 17.063 31.48 29.783 42.927 12.862 11.572 35.54 19.827 35.54 30.008 0 9.893-1.964 11.154-4.4 14.32 2.015-2.303 12.693-9.484 12.693-26.15s-13.887-34.72-29.858-44.44-35.413-22.915-35.413-29.858c-.18-6.006 3.132-10.727 3.132-10.727z"/><path d="M1308.83 890.883c-.24 6.826 0 12.524-.482 18.08-.607 6.56 20.138 20.135 28.47 28.468s29.164 17.36 30.553 29.858-10.94 24.135-13.82 28.883c3.165-6.62-4.016-14.3-12.254-20.98-7.257-5.884-22.918-14.553-30.866-23.177-7.88-8.552-16.665-22.22-16.665-35.414s8.815-23.634 15.064-25.717zm-6.1-106.793l8.76 6.452 25.42.798 8.44-7.013-8.44-5.735h-25.73z"/></g><path d="M1360.05 859.923l.977.863-3.2 3.604 6.795-.412 1.383 1.224-5.713.257-.746 7.212-1.303-1.154.696-6-2.185.085-2.28 2.576-.977-.863 6.546-7.393m-4.074-3.966c.935.828 1.443 1.717 1.524 2.668s-.13 1.765-.628 2.443l-.976-.863c.312-.575.424-1.148.338-1.72s-.422-1.12-1.018-1.648c-.73-.645-1.545-.908-2.448-.794-.898.115-1.815.7-2.75 1.757-.767.866-1.187 1.747-1.263 2.643-.07.896.296 1.698 1.098 2.4.738.653 1.55.868 2.44.643.47-.118.97-.376 1.5-.772l.977.863c-.777.703-1.644 1.1-2.6 1.192-1.148.115-2.22-.27-3.217-1.152-.86-.76-1.35-1.66-1.473-2.696-.16-1.368.397-2.77 1.668-4.206.965-1.1 2.046-1.73 3.24-1.916 1.294-.206 2.5.177 3.588 1.15m-.202-.178h0m-7.735-6.85c1.305 1.156 1.9 2.432 1.785 3.824-.1 1.1-.585 2.143-1.488 3.163-.977 1.103-2.07 1.773-3.278 2.008-1.418.276-2.735-.124-3.953-1.202-1.137-1.006-1.7-2.174-1.685-3.502.06-1.238.582-2.412 1.563-3.52.886-1 1.9-1.636 3.017-1.907 1.446-.347 2.793.03 4.04 1.135m-6.02 7.004c.882.782 1.8 1.03 2.75.748.958-.283 1.8-.837 2.528-1.66.77-.868 1.16-1.77 1.174-2.704s-.37-1.747-1.157-2.444c-.765-.677-1.623-.966-2.572-.867s-1.873.656-2.78 1.677c-.724.82-1.13 1.694-1.217 2.622-.08.928.345 1.804 1.274 2.627m6.052-6.977h0m-4.32-3.465l-.78.88-2.5-2.206-5.766 6.513-1.016-.9 5.765-6.5-2.5-2.205.78-.88 6 5.3m-15.88-5.128c-.348.44-.552.867-.608 1.283-.102.785.268 1.548 1.106 2.3.377.332.765.58 1.17.746.782.32 1.4.214 1.885-.322.357-.403.484-.802.385-1.195-.107-.393-.377-.894-.8-1.498l-.8-1.114c-.523-.726-.842-1.3-.957-1.718-.196-.724-.022-1.393.52-2.008.588-.664 1.302-1.005 2.138-1.025s1.676.344 2.52 1.1c.774.686 1.265 1.456 1.473 2.3.214.853-.044 1.7-.77 2.513l-.94-.834c.3-.44.462-.84.484-1.196.037-.654-.312-1.306-1.043-1.955-.6-.522-1.126-.774-1.603-.755s-.862.194-1.154.523c-.32.36-.405.76-.252 1.195.103.282.432.814.987 1.592l.828 1.155c.4.556.646 1.054.743 1.493.164.76-.046 1.47-.627 2.128-.726.82-1.543 1.14-2.452.963s-1.753-.6-2.54-1.306c-.92-.814-1.43-1.687-1.535-2.617s.197-1.785.915-2.574l.94.834m6.633-3.418h0m-9.624-8.163l5.4 4.773-.803.906-4.413-3.907-1.988 2.244 4.082 3.613-.757.856-4.082-3.614-2.22 2.506 4.5 3.974-.78.88-5.465-4.84 6.544-7.393m2.733 2.42h0m-9.15-8.1l-3.45 8.176 7.672-4.437 1.123.993-9.243 5.004-1.062-.94 3.853-9.776 1.107.98m-3.215-2.848l1 .895-6.544 7.394-1-.896 6.544-7.393m.508.45h0m-6.43-5.694l1 .887-5.764 6.5 3.744 3.315-.78.88-4.744-4.202 6.544-7.393zm31.286 136.476l1.182 1.048-1.57 9.294 5.302-5.988.952.842-6.546 7.4-1.123-.993 1.5-9.338-5.298 5.983-.956-.846 6.546-7.394m2.868 2.54h0m-5.5-4.87l1 .894-6.544 7.393-1.012-.895 6.546-7.4m.5.45h0m-7.73.943l1.77-4.26-4.085 2.2 2.315 2.05m2.218-5.82l1.132 1.003-3.863 9.767-1.096-.972 1.2-2.877-2.922-2.6-2.76 1.506-1.026-.9 9.328-4.928m.52.458h0m-9.576-2.437c.47.416.924.65 1.362.703s.88-.16 1.312-.65c.467-.528.593-1.056.38-1.585-.116-.28-.345-.574-.687-.876l-2.446-2.166-2.236 2.526 2.315 2.05m-.318-6.322l3.422 3.03c.563.498.956.992 1.176 1.48.415.93.247 1.82-.506 2.668-.392.443-.804.723-1.24.842s-.886.122-1.367.002c.185.373.265.718.24 1.037s-.215.705-.578 1.15l-.842 1.022c-.24.3-.403.52-.488.7-.148.3-.174.535-.078.738l-.148.167-1.228-1.087a1.24 1.24 0 0 1 .139-.318c.07-.12.224-.33.465-.63l1.032-1.286c.403-.503.5-.986.32-1.448-.1-.26-.37-.57-.78-.933l-2.28-2.017-2.806 3.17-1.002-.887 6.546-7.393m-4.688-4.492c.696.615 1.178 1.282 1.446 1.998.392 1.036.244 2.1-.446 3.222l-.992-.878c.358-.647.456-1.26.293-1.84s-.528-1.13-1.104-1.643c-.684-.606-1.5-.86-2.413-.763s-1.832.66-2.73 1.676c-.78.88-1.22 1.766-1.324 2.66s.285 1.724 1.156 2.497c.667.6 1.4.886 2.167.886.785 0 1.565-.428 2.342-1.284l-2.315-2.05.735-.83 3.246 2.874-3.502 3.956-.645-.57.6-1.166c-.67.072-1.198.065-1.587-.022-.66-.142-1.328-.5-2.006-1.1-.875-.776-1.377-1.726-1.506-2.852-.058-1.32.463-2.6 1.56-3.842s2.303-1.925 3.62-2.062c1.256-.135 2.4.248 3.403 1.144m-.156-.156h0zM1490.2 832.63c.392.458.8.762 1.228.907.807.272 1.7.04 2.646-.7a4.45 4.45 0 0 0 1.032-1.078c.5-.757.516-1.443.05-2.056-.352-.46-.745-.678-1.18-.654-.437.03-1.02.213-1.75.543l-1.34.615c-.876.4-1.546.62-2 .653-.804.057-1.475-.266-2-.967-.578-.76-.8-1.582-.637-2.467s.7-1.697 1.672-2.432c.885-.676 1.8-1.033 2.743-1.075.946-.048 1.775.397 2.492 1.335l-1.075.82c-.403-.407-.8-.66-1.16-.758-.685-.175-1.444.057-2.28.694-.673.514-1.05 1.024-1.13 1.534s.026.95.312 1.325c.317.413.72.585 1.2.514.32-.05.947-.287 1.885-.7l1.4-.633c.67-.306 1.247-.464 1.73-.475.837-.015 1.543.353 2.114 1.104.713.935.882 1.864.5 2.786s-1.007 1.723-1.907 2.4c-1.05.8-2.076 1.16-3.08 1.077-.998-.08-1.84-.58-2.525-1.5l1.075-.82m-2.23-7.7h0m-10.6 8.46l6.152-4.695.8 1.033-5.04 3.844 1.956 2.563 4.66-3.555.745.977-4.66 3.556 2.184 2.86 5.125-3.9.768 1.005-6.24 4.76-6.44-8.44m3.12-2.38h0m-11.663 8.9l1.35-1.03 9.48 3.586-5.217-6.84 1.085-.828 6.44 8.44-1.28.977-9.54-3.53 5.213 6.833-1.1.83-6.44-8.44m3.274-2.5h0m-6.28 4.792l1.155-.88 6.44 8.44-1.154.882-6.442-8.44m.58-.442h0m-10.728 8.185l1.637-1.25 7.87 5.287-3.038-8.974 1.62-1.235 6.44 8.44-1.085.83-3.802-4.983-1.61-2.165 3.026 8.956-1.133.863-7.857-5.27.197.26.735.94.728.917 3.8 4.983-1.1.83-6.44-8.44zm12.052 101.325l1.143-.873 5.674 7.435 4.274-3.262.768 1.006-5.42 4.134-6.44-8.44m-3.006 2.293l1.155-.88 6.44 8.44-1.154.882-6.442-8.44m.58-.443h0m-6.518 4.6c1.5-1.137 2.957-1.5 4.406-1.1 1.128.32 2.138 1.063 3.026 2.228.963 1.26 1.442 2.552 1.44 3.875-.004 1.553-.7 2.86-2.1 3.92-1.298 1-2.646 1.34-4.044 1.05-1.294-.32-2.422-1.115-3.387-2.38-.872-1.14-1.333-2.334-1.387-3.578-.067-1.598.612-2.94 2.037-4.028m6.138 7.807c1-.77 1.46-1.684 1.36-2.746-.1-1.07-.5-2.073-1.225-3.012-.757-.992-1.626-1.6-2.6-1.8s-1.918.027-2.818.715c-.873.665-1.356 1.5-1.45 2.532s.302 2.112 1.194 3.28c.713.934 1.55 1.543 2.512 1.827.964.276 1.976.012 3.037-.798m-6.105-7.833h0z" class="K"/><g class="H I J"><path d="M1212.2 1036l397.043.59-42.35 62.35s-160.58 58.82-167.64 57.644-168.817-58.82-168.817-58.82L1212.2 1036z"/><path d="M1362.18 971.3v88.82l8.83-2.35v-87.645zm80-1.175l1.76 89.995h8.83l-1.18-89.995z"/><path d="M1353.95 1058.37l.6 15.3h104.1l-.6-15.3z"/><path d="M1348.65 1067.2v14.12l114.12.6-.6-14.7zm141.62 38.6v25.38l-19.22-1.72.25-30.3zm-150.77-4.67l-.74 26.86-17-8.87 1.97-16.5z"/><path d="M1322.5 1112.47c-.985-13.058 3.943-19.71 7.884-19.71h150.043c7.884.49 9.854 8.13 9.854 12.318v14.043s-.797-7.6-17.06-8.585-6.346 3.41-68.185 2.92-60.363-2.91-69.725-3.65-11.825.2-12.81 2.665z"/></g><path d="M1471.68 1095.75c1.556 0 2.68.64 3.374 1.92.536 1 .806 2.348.806 4.07 0 1.633-.244 2.983-.73 4.052-.704 1.533-1.857 2.3-3.457 2.3-1.443 0-2.517-.626-3.222-1.88-.587-1.046-.88-2.452-.88-4.213 0-1.365.176-2.537.528-3.516.66-1.824 1.856-2.735 3.583-2.735m-.015 10.968c.782 0 1.407-.347 1.87-1.04s.696-1.987.696-3.876c0-1.365-.168-2.487-.503-3.366s-.987-1.325-1.955-1.325c-.9 0-1.54.42-1.956 1.26-.4.833-.613 2.063-.613 3.7 0 1.226.132 2.2.394 2.954.403 1.136 1.1 1.704 2.066 1.704zm-11.917-1.856c.045.833.367 1.4.966 1.73a2.13 2.13 0 0 0 1.04.252c.723 0 1.337-.3 1.846-.9s.87-1.826 1.083-3.666c-.335.53-.752.906-1.25 1.123a3.96 3.96 0 0 1-1.594.319c-1.157 0-2.075-.36-2.752-1.082-.67-.722-1.006-1.65-1.006-2.786 0-1.1.332-2.05.998-2.878s1.648-1.24 2.946-1.24c1.75 0 2.96.8 3.625 2.366.37.868.554 1.952.554 3.255 0 1.472-.22 2.776-.663 3.9-.732 1.892-1.976 2.837-3.726 2.837-1.174 0-2.067-.308-2.676-.922s-.915-1.388-.915-2.316h1.527m2.3-2.467a2.56 2.56 0 0 0 1.636-.588c.498-.397.748-1.088.748-2.073 0-.883-.224-1.54-.67-1.97-.443-.437-1.007-.654-1.695-.654-.74 0-1.328.248-1.763.746-.43.5-.646 1.153-.646 1.98 0 .783.2 1.407.57 1.87s1 .7 1.82.7zm-9.463-1.615c.666 0 1.186-.184 1.56-.553a1.82 1.82 0 0 0 .562-1.335c0-.448-.18-.86-.537-1.233s-.902-.563-1.636-.563c-.728 0-1.253.188-1.578.563a1.95 1.95 0 0 0-.485 1.317c0 .565.2 1.007.628 1.325s.914.478 1.486.478m.092 5.95c.7 0 1.278-.188 1.737-.562.464-.38.696-.945.696-1.695 0-.777-.237-1.37-.713-1.77s-1.085-.605-1.828-.605c-.723 0-1.312.208-1.772.62-.452.4-.68.977-.68 1.703a2.35 2.35 0 0 0 .621 1.629c.42.454 1.065.68 1.938.68m-2.148-5.37c-.42-.18-.746-.4-.98-.63-.442-.448-.663-1.03-.663-1.746a3.14 3.14 0 0 1 .972-2.308c.648-.645 1.57-.965 2.76-.965 1.153 0 2.056.306 2.7.915s.983 1.312.983 2.122c0 .75-.2 1.357-.572 1.82-.213.263-.542.52-1 .772.497.23.9.5 1.174.8.53.56.797 1.286.797 2.182 0 1.057-.354 1.955-1.065 2.694-.7.732-1.715 1.098-3.012 1.098-1.17 0-2.16-.317-2.97-.948-.807-.638-1.2-1.56-1.2-2.768 0-.7.174-1.323.52-1.838s.862-.918 1.544-1.192zm-10.543-2.1v-1.157c1.1-.106 1.852-.282 2.283-.528.43-.252.752-.842.965-1.772h1.192v11.967h-1.6v-8.5h-2.83zm-71.58 5.3c.045.834.367 1.4.965 1.728a2.13 2.13 0 0 0 1.041.254c.723 0 1.337-.3 1.846-.9s.87-1.826 1.083-3.667c-.335.53-.752.907-1.25 1.124a3.98 3.98 0 0 1-1.594.319c-1.157 0-2.074-.36-2.752-1.082-.67-.723-1.006-1.65-1.006-2.786 0-1.1.332-2.052.998-2.878s1.648-1.243 2.946-1.243c1.75 0 2.96.8 3.625 2.367.37.867.554 1.952.554 3.255 0 1.472-.22 2.776-.663 3.9-.732 1.9-1.976 2.837-3.726 2.837-1.174 0-2.067-.308-2.676-.922s-.915-1.388-.915-2.317h1.527m2.3-2.467a2.57 2.57 0 0 0 1.637-.587c.497-.397.746-1.088.746-2.073 0-.885-.224-1.54-.67-1.97-.443-.437-1-.654-1.695-.654-.74 0-1.328.248-1.763.746-.43.5-.645 1.153-.645 1.98 0 .783.2 1.407.57 1.87s1 .687 1.82.687zm-9.093-6.692c1.343 0 2.277.35 2.803 1.05.53.693.797 1.4.797 2.148h-1.494c-.1-.475-.23-.848-.426-1.116-.365-.503-.915-.755-1.654-.755-.844 0-1.517.4-2.015 1.174-.498.777-.775 1.894-.83 3.348.347-.5.784-.9 1.3-1.14.482-.224 1.018-.337 1.6-.337a3.92 3.92 0 0 1 2.635.965c.75.645 1.126 1.604 1.126 2.88a4.36 4.36 0 0 1-1.067 2.902c-.71.845-1.723 1.26-3.038 1.26-1.124 0-2.095-.425-2.9-1.274-.817-.856-1.226-2.294-1.226-4.315 0-1.493.183-2.76.546-3.8.7-2 1.977-2.987 3.835-2.987m-.1 11.034c.795 0 1.388-.265 1.78-.796.398-.537.596-1.17.596-1.897a3.21 3.21 0 0 0-.53-1.754c-.35-.56-.992-.84-1.92-.84a2.51 2.51 0 0 0-1.71.646c-.5.43-.73 1.08-.73 1.946 0 .762.222 1.402.664 1.922.446.514 1.065.77 1.854.77zm-9.822-5.957c.665 0 1.186-.184 1.56-.553.374-.376.562-.82.562-1.335 0-.448-.18-.86-.537-1.234s-.902-.562-1.637-.562c-.726 0-1.252.188-1.577.562s-.487.815-.487 1.318c0 .565.2 1.006.63 1.325s.914.478 1.486.478m.1 5.95c.7 0 1.278-.187 1.737-.562.465-.38.697-.944.697-1.694 0-.778-.237-1.37-.713-1.772s-1.085-.604-1.83-.604c-.722 0-1.3.207-1.77.62-.452.407-.68.976-.68 1.703 0 .627.206 1.17.62 1.628.42.452 1.065.68 1.938.68m-2.148-5.37c-.42-.18-.745-.4-.98-.63-.443-.448-.664-1.03-.664-1.746 0-.895.325-1.664.973-2.308s1.57-.965 2.76-.965c1.154 0 2.056.305 2.712.915.654.604.98 1.312.98 2.122 0 .75-.2 1.357-.572 1.82-.2.262-.542.52-1 .77.498.23.9.493 1.175.8.53.56.797 1.285.797 2.18 0 1.056-.356 1.955-1.067 2.694-.7.732-1.714 1.098-3.012 1.098-1.17 0-2.16-.317-2.97-.948-.806-.638-1.208-1.56-1.208-2.77 0-.7.174-1.322.52-1.837s.86-.918 1.543-1.192zm-10.53-2.108v-1.157c1.1-.106 1.852-.282 2.282-.528.43-.252.754-.843.965-1.772h1.192v11.967h-1.6v-8.5h-2.828z" class="K"/><g class="H I J"><path d="M1243.95 1076.6l325.28 1.77-5.3 12.35-305.28.6zm112.35-108.818l.6 6.47h20.58l.6-7.058zm81.17-.588l.6 7.058h17.65l.6-7.058z"/><path d="M1362.18 957.783l-.6 9.4h88.24v-8.823zm54.72 48.237c-1.176-6.47-4.12-35.293-14.118-35.882s-12.94 7.648-12.94 7.648 14.117 1.763 12.94 7.646-7.058 20.588-10 22.35 18.823-1.176 24.117-1.763z"/><path d="M1396.9 1003.07l-2.36 40 28.24.6-1.18-38.82z"/><path d="M1371 1033.48s-.52-24.697 1.175-31.586c1.178-7.058 5.294-11.764 12.353-11.176s19.41 13.528 19.41 13.528 18.823-17.058 25.882-16.47c8.08 2.326 12.22 8.063 12.986 14.658.196 5.126.614 31.342.614 31.342s-14.672-16.587-19.484-18.353c-4.117-1.178-12.352-2.353-12.352-2.353l-1.123 32-6.523-.237s-.59-15.293-1.178-21.175-2.94-11.177-2.94-11.177-10.59 5.295-14.118 9.41c-4.258 3.88-14.705 11.588-14.705 11.588z"/><path d="M1371.58 1035.78l70.604.23v29.41c-.554 25.9-35.663 62.373-35.665 62.374s-35.538-33.542-35.51-63.55c-.59-30 .57-28.465.57-28.465z"/></g><path d="M1381.5 1069.86v26.48l5 7.8-.02-34.3zm11 0l.1 42.45 4.9 5.9v-48.36zm11 0v54.98l3 2.96 2.97-3.28v-54.66zm11.98 0l.05 47.65 4.96-6.26-.02-41.4zm11 0l.07 33.03 4.92-7.68.01-25.35zm-54.97 0h5v15.8zm65 0l.02 15.9 5.35-15.9z" class="K"/><path d="M1371 1035.25l71.17.76v28l-71.17.24z" class="H I J"/><path d="M1406.63 1038.5l2.952 9.082h9.548l-7.726 5.613 2.952 9.082-7.726-5.613-7.726 5.613 2.952-9.082-7.726-5.613h9.548l2.952-9.082zm-1.475 4.54" class="K"/><g class="H I J"><path d="M1584.98 1020.62l2.48-95.83h6.6l-.83 96.66z"/><path d="M1594.9 876.874v26.437c0 7.435-11.567 18.175-10.74 23.96s8.262 4.956 10.74 3.304 15.698-23.96 15.698-37.176 1.65-33.046-1.652-33.872-14.87 12.4-14.87 12.4l.826 4.958zm-53.7 127.226l-1.654 39.655c0 8.262-.826 17.35-6.6 22.305s-10.74 3.306-12.392 6.6.827 5.784.827 5.784l37.178-.827s-1.654-29.74-.827-40.48 8.26-27.263 4.13-30.567-17.35-3.306-20.653-2.48z"/><path d="M1502.36 995.014s19.827 15.697 19.002 21.48-9.914 12.392-6.6 15.697 5.783 2.48 5.783 2.48l27.265-24.785-31.395-25.6-14.044 10.74zm64.44 12.386s8.262 11.567 19.002 11.567 24.785-29.742 24.785-29.742-4.958 40.482-23.96 39.655-19.828-13.22-19.828-21.48zm-3.3-99.96c4.957-4.13 6.6-28.1 6.6-28.1l7.435-14.044s12.392 14.044 18.176 13.218 14.044-.827 14.044-5.783 2.478-12.392-1.652-16.524-25.6-21.48-29.74-23.96-47.1-7.435-50.395-7.435-16.524 8.262-18.176 15.697-4.957 32.22-4.957 38.83.707 16.66.707 16.66l12.5-8.398 4.13 11.567 41.308 8.26z"/><path d="M1519.7 828.13c9.087 9.913 11.566 35.525 11.566 35.525s2.478-14.046 9.087-19.003 22.306-5.783 22.306-13.218-17.35-9.914-22.306-9.914-13.22.827-20.654 6.61z"/><path d="M1531.28 824c0 8.26 3.305 11.567 7.435 12.392s14.044-4.132 13.22-8.262-20.654-4.13-20.654-4.13z"/><path d="M1534.6 823.173s0 9.914 4.956 9.087 9.087-10.74 9.087-10.74l-14.043 1.652z"/><path d="M1531.67 783.926c-.306 5.825-.92 12.573-1.84 13.8s-3.987 6.133-4.293 8.587 2.76 2.147 2.76 2.147l-.92 13.493c-.307 2.146 4.906.306 7.054 3.986s2.147 8.894 3.373 7.974 5.826-5.52 8.28-8.28 6.133-.613 7.054-4.292 1.84-31.28 1.84-31.28l-23.307-6.132zm19.43 221.004c-9.087.827-12.392-.826-13.22-4.956s-.826-30.57-2.478-39.656-4.13-13.22-4.13-13.22-21.48 15.697-21.48 23.132 6.6 13.22 6.6 13.22l-13.22 11.567s-27.263-15.697-27.263-24.785 28.1-39.655 33.046-46.265 6.6-25.6 11.566-26.437 35.525 1.654 40.482 5.784 15.697 22.305 14.87 33.872-4.957 9.914-5.784 14.046 0 7.434-.826 13.218-4.957 1.652-4.957 6.6 1.65 26.437-.827 30.568-4.13 3.304-12.392 3.304z"/><path d="M1535.4 775.256c-5.783 4.958-9.1 6.6-7.435 9.915s14.87 4.13 16.522 8.26 0 10.74 0 10.74l6.6-1.65v19s16.524-13.218 14.87-26.437-18.174-14.87-23.132-15.697-4.957-1.652-7.435-4.132zM1504.68 897.4c.306 4.292 1.227 26.986-.307 30.36s-4.293 8.894-.614 13.187 7.974 6.132 9.814 2.76-.613-19.012 1.533-27.906 2.454-24.84.92-26.986-10.734-1.227-11.347 8.587z"/></g><path d="M1531.36 947.07c-4.907-9.813-4.294-19.625-4.294-19.625m4.294 19.625h0zm-12.88-57.97l.307-32.813m-.307 32.813h0zm51.82-9.496s-4.906-3.68-6.44-5.52-3.373-4.6-3.373-4.6m9.814 10.12h0zm19.02-3.374c-.307-15.64 19.626-18.706 19.626-18.706m-19.626 18.706h0zm-61.64-62.252l4.906.307m-4.906-.307h0zm2.76-19.013l7.054 6.135m-7.054-6.135h0z" class="L H I"/><g class="J H I"><path d="M1251.25 800.8s-2.588-9.705-.324-11.646 16.822-12.295 21.028-11.97 12.294 12.293 12.294 12.293l-33 11.323zm8.25 30.495s-53.5 39.24-54.104 49.346 23.783 39.24 23.783 39.24l10.107-9.513s-1.188-7.134-3.567-13.675-7.73-13.674-7.73-13.674 1.2.595 7.135-1.783 10.107-5.352 10.107-5.352-1.783 11.9 1.2 18.43 12.485 22.592 12.485 22.592l35.078-2.378s1.2-46.374.594-57.076-13.674-30.917-13.674-30.917l-21.404 4.757z"/><path d="M1267.84 1008.47s14.27 10.108 19.62 14.864 7.134 7.18 7.134 7.18l.576 5.395-14.84-.05-15.463-17.874 2.972-9.514zm-6.87-178.146c-.646 2.587 14.592 11.672 18.755 16.428s13.08 11.297 13.08 11.297.594-7.73-4.756-17.837-3.086-11.725-5.464-12.32-23.914-.9-21.614 2.43z"/><path d="M1255.95 923.448s-9.513 39.24-10.702 70.75 6.54 63.02 6.54 63.02l22.592-2.973v-37.455s42.213-43.4 42.213-49.942-23.187-38.05-21.998-42.21-.594-10.108-.594-10.108l-38.05 8.918z"/><path d="M1274.97 990.63l7.886-24.322c1.783-5.352 2.326-9.514 2.326-9.514s7.03 5.893 6.435 9.46-8.917-1.188-16.647 24.377z"/></g><path d="M1241.22 1004.6s-.647-17.793-1.94-22.97-6.146-20.06-6.146-31.382 2.264-19.088 9.38-28.146 14.558-11.97 14.558-11.97 7.117 0 17.792-.324 20.382-.97 20.382-.97l-.324 11.322s-13.587 3.882-22.323 3.882-18.117-1.94-18.117-1.94-14.882 14.235-14.235 27.822 4.53 33.322 4.206 38.823-3.235 15.852-3.235 15.852z" class="H I K"/><g class="J H I"><path d="M1258.65 831.67s-.918-14.05.272-19.995 6.54-20.215 6.54-20.215l20.81-.594-.594 27.942-4.162-.594 1.783 9.513s-7.134 3.568-13.675 4.162-10.972-.22-10.972-.22z"/><path d="M1262.7 810.058c-13.08 2.972-19.846 8.75-24.008 4.6s4.756-16.648 23.78-24.376 36.862-3.568 38.052 0-8.324 10.107-13.08 10.7-13.675 0-17.242 2.378-7.502 6.707-7.502 6.707z"/><path d="M1258.4 824.864c-7.35.36-8.813-6.9-5.413-12 3.568-5.352 10.108-14.864 17.836-17.242s14.27 0 14.864 4.16c1.415 4.37.246 7.498.246 7.498s-10.975-8.544-15.704-3.93c-4.162 4.757-4.756 13.675-8.323 17.837-1.165 1.746-1.48 3.582-3.506 3.677zm-7.2 86.693c.594-10.107 9.302-12.485 11.9-12.485 2.264 0 5.944 11.296 5.944 19.025s-4.756 23.187-8.917 23.78-2.973-20.215-2.973-20.215h-4.757l-1.188-10.107zm1.18 145.063l-.594 21.404 46.374-1.2s1.2-3.567-1.783-6.54-16.05-4.162-18.43-8.323-2.973-6.54-2.973-6.54l-22.593 1.2z"/></g><path d="M1272.6 831.2c8.735 5.176 19.088 20.703 19.735 23.293s.646 3.56.646 3.56m-20.38-26.85h0z" class="H I L"/><path d="M1226 916.284c4.205-9.058 12.293-8.734 12.293-8.734s11.323 5.824 11 8.734-9.06-.322-9.706 1.618 4.853 8.088 1.942 11-12.618-5.823-15.528-12.618z" class="H I J"/><path d="M1282.4 822.954l-3.657-.5m4.853.647h0zm-9.056 193.79c.215-9.274-1.186-19.195.647-27.823m-.647 27.823h0z" class="L H I"/><path d="M1281.66 809.687c0-1.697-1.448-3.074-3.235-3.074s-3.235 1.377-3.235 3.074 1.448 3.072 3.235 3.072 3.235-1.375 3.235-3.072z" class="K"/><g class="H I"><path d="M1285.22 956.725c1.942-11.97.646-24.263.646-24.263m-.646 24.263h0z" class="L"/><path d="M1704.6 891.04c0 164.388-133.604 297.804-298.224 297.804s-298.22-133.416-298.22-297.804 133.604-297.806 298.22-297.806S1704.6 726.65 1704.6 891.04zm-59.29-.94c0 132.38-107.04 239.818-238.93 239.818s-238.932-107.44-238.932-239.818 107.042-239.817 238.932-239.817S1645.3 757.72 1645.3 890.098z" class="J"/></g><path d="M1482.86 612.633c3.124 1.146 5.603 2.74 7.437 4.786 2.668 2.948 3.574 6.73 2.717 11.348l-4.457-1.637c.347-2.628-.13-4.806-1.43-6.534-1.294-1.743-3.24-3.1-5.836-4.045-3.078-1.13-6.098-.928-9.058.605-2.946 1.54-5.257 4.594-6.937 9.168-1.452 3.953-1.766 7.493-.945 10.62.826 3.112 3.202 5.388 7.124 6.83 3.004 1.102 5.805 1.146 8.404.13 2.62-1.024 4.667-3.475 6.14-7.35l-10.4-3.822 1.37-3.736 14.6 5.36-6.53 17.792-2.898-1.065.485-4.676c-2.14 1.115-3.917 1.78-5.333 1.998-2.387.4-5.104.026-8.153-1.094-3.938-1.446-6.857-3.965-8.76-7.557-1.918-4.335-1.852-9.294.197-14.877 2.044-5.57 5.18-9.443 9.406-11.624 4.02-2.087 8.308-2.293 12.866-.62zm-233.9 39.487l4.97-2.706 29.43 16.666-13.7-25.212 4-2.175 16.9 31.122-4.72 2.567-29.64-16.518 13.7 25.2-4.03 2.2zm-26.5 20.608l3.6-3.258 23.8 26.23-3.6 3.257zm-48.26 48.644l4.22-5.422 29.883 10.37-17.424-26.372 4.178-5.366 27.95 21.763-2.8 3.595-16.495-12.843-2.806-2.246-4.212-3.34 17.366 26.327-2.918 3.748-29.825-10.325.856.667 3.17 2.406 3.128 2.342 16.495 12.843-2.815 3.617-27.95-21.762zm-22.8 36.502c2.532-5.72 6.244-9.138 11.135-10.26 3.816-.876 7.96-.326 12.428 1.654 4.835 2.143 8.3 5.15 10.43 9.024 2.487 4.546 2.55 9.488.185 14.824-2.206 4.982-5.588 8.17-10.142 9.565-4.302 1.135-8.877.63-13.728-1.518-4.38-1.94-7.646-4.688-9.798-8.243-2.76-4.564-2.93-9.58-.5-15.046m30.488 12.974c1.713-3.866 1.567-7.27-.433-10.214-2-2.965-4.817-5.244-8.417-6.84-3.808-1.687-7.315-2.043-10.522-1.074-3.2.957-5.567 3.16-7.096 6.614-1.485 3.352-1.543 6.596-.17 9.736 1.355 3.13 4.274 5.7 8.758 7.676 3.587 1.6 7.015 2.024 10.284 1.3 3.262-.736 5.796-3.14 7.598-7.2zm-50.958 51.382l1.3-5.442 18.9-5.972-14.22-13.83 1.3-5.468 17.5 17.902 13.9 3.296-1.1 4.67-13.9-3.296zm-10.08 58.82l29.1-5.28-28.4-9.387.25-5.202 29.17-6.605-28.46-8.062.26-5.25 34.93 11.007-.25 5.033-29.73 6.747 28.94 9.63-.24 5.034-35.83 7.538zm13.25 94.822l-7-23.557 4.17-1.234 5.62 18.957 10.3-3.058-4.94-16.667 4.04-1.2 4.94 16.667 15.45-4.58 1.36 4.6zm15.86 41.068c-3.804-4.963-5.027-9.86-3.666-14.7 1.06-3.77 3.53-7.14 7.407-10.114 4.198-3.217 8.504-4.827 12.918-4.828 5.183-.004 9.55 2.3 13.1 6.94 3.317 4.324 4.493 8.82 3.533 13.486-1.063 4.32-3.7 8.093-7.9 11.32-3.802 2.915-7.78 4.465-11.93 4.65-5.328.236-9.8-2.02-13.45-6.765m26-20.54c-2.572-3.356-5.63-4.86-9.172-4.514-3.565.344-6.9 1.714-10.036 4.1-3.305 2.533-5.3 5.44-5.986 8.72-.694 3.267.106 6.4 2.405 9.4 2.23 2.908 5.05 4.514 8.463 4.815 3.398.3 7.043-1.025 10.935-4 3.112-2.385 5.14-5.185 6.08-8.396.917-3.216.02-6.6-2.688-10.124zm31.008 98.46l-16.95-19.48 3.27-2.85 13.88 15.95 8.12-7.06-12.84-14.75 3.1-2.7 12.84 14.75 9.06-7.88-14.12-16.23 3.2-2.77 17.18 19.76zm15.02 15.04l2.37-3.5 9.87 6.7 17.55-25.8 4.02 2.74-17.54 25.8 9.87 6.7-2.38 3.5zm51.5 9.74l-2.787 16.312 12.52-11-9.732-5.322m-3.1 22.127l-4.76-2.603 5.713-37.246 4.613 2.523-1.937 11.033 12.292 6.72 8.454-7.47 4.316 2.36-28.7 24.685zm27.35 14.403l1.36-4 11.3 3.84 10.05-29.54 4.6 1.57-10.05 29.54 11.3 3.84-1.35 4zm64.26-6.82c.207-2.003-.004-3.687-.63-5.06-1.2-2.568-3.787-4.17-7.755-4.805-1.778-.283-3.438-.3-4.978-.015-2.983.533-4.677 2.07-5.085 4.6-.304 1.905.074 3.358 1.135 4.357 1.08.987 2.858 1.98 5.336 2.98l4.567 1.828c2.983 1.193 5.052 2.314 6.202 3.36 2 1.817 2.75 4.175 2.287 7.08-.502 3.143-2.002 5.55-4.5 7.217s-5.74 2.184-9.723 1.547c-3.667-.587-6.635-1.972-8.907-4.16-2.3-2.172-3.125-5.204-2.502-9.093l4.452.712c-.06 1.912.217 3.43.835 4.553 1.153 2.057 3.46 3.363 6.92 3.915 2.793.448 4.894.18 6.305-.798s2.24-2.246 2.5-3.802c.273-1.715-.24-3.084-1.543-4.106-.855-.658-2.874-1.63-6.052-2.92l-4.727-1.904c-2.278-.918-3.986-1.948-5.122-3.1-1.96-2-2.693-4.54-2.196-7.652.62-3.874 2.476-6.417 5.568-7.632 3.077-1.218 6.478-1.528 10.2-.932 4.35.696 7.577 2.352 9.68 4.968 2.108 2.6 2.836 5.784 2.184 9.554l-4.453-.7zm101.33 21.7l-25.42 4.55-.77-4.27 20.82-3.73-1.9-10.6-19.25 3.45-.72-4.03 19.25-3.45-2.12-11.82-21.17 3.8-.75-4.15 25.78-4.62zm56.77-17.1l-4.6 1.52-4.6-13.9-17.5 5.78 4.6 13.9-4.6 1.52-11.12-33.63 4.6-1.52 5.2 15.73 17.5-5.78-5.2-15.73 4.6-1.52zm25-12.8l-2.25-3.57 10.1-6.35-16.6-26.42 4.12-2.6 16.6 26.42 10.1-6.36 2.24 3.58zm84.78-70.05l-16.3 18.4-3.25-2.87 13.1-14.8-8.05-7.12-11.52 13-3.16-2.8 11.52-13-12.05-10.68 3.18-3.6zm23.3-27.42c-4.147 4.68-8.72 6.814-13.722 6.4-3.902-.322-7.683-2.102-11.342-5.343-3.96-3.507-6.36-7.427-7.202-11.76-.992-5.087.446-9.814 4.315-14.183 3.614-4.08 7.8-6.093 12.565-6.04 4.443.22 8.652 2.088 12.622 5.606 3.586 3.176 5.867 6.785 6.84 10.825 1.248 5.186-.1 10.017-4.074 14.495m-25.123-21.606c-2.803 3.164-3.696 6.452-2.68 9.865 1.017 3.435 3 6.457 5.948 9.07 3.117 2.76 6.35 4.165 9.702 4.212 3.34.06 6.263-1.325 8.768-4.153 2.43-2.744 3.467-5.82 3.112-9.226-.343-3.396-2.348-6.72-6.02-9.968-2.936-2.6-6.072-4.057-9.404-4.368-3.332-.287-6.474 1.237-9.426 4.57zm59.24-72.488l-1.28 4.625-30.07-8.336-4.8 17.288-4.07-1.127 6.07-21.912zm-15.8-32.436l16.185-3.443-14.842-7.567-1.343 11m21.706-5.296l-.657 5.385-36.717 8.47.637-5.218 10.965-2.282 1.696-13.906-10.067-5.1.595-4.884 33.547 17.525zm-3.286-58.484l1.92 25.753-4.33.324-1.57-21.088-10.72.8 1.45 19.5-4.1.306-1.45-19.502-11.98.894 1.6 21.45-4.2.314-1.95-26.114zm-33.7-42.84c-1.85.8-3.223 1.8-4.117 3.002-1.667 2.295-1.815 5.333-.448 9.112.612 1.693 1.4 3.146 2.398 4.363 1.9 2.352 4.075 3.1 6.495 2.215 1.813-.656 2.9-1.7 3.262-3.104.34-1.422.347-3.458.02-6.1l-.612-4.88c-.402-3.2-.423-5.54-.065-7.054.625-2.62 2.32-4.43 5.087-5.43 2.994-1.082 5.824-.935 8.493.442s4.7 3.96 6.063 7.755c1.263 3.493 1.488 6.762.676 9.807-.793 3.057-3.04 5.255-6.743 6.595l-1.534-4.24c1.702-.872 2.895-1.85 3.58-2.935 1.24-2.006 1.264-4.655.072-7.95-.963-2.66-2.213-4.37-3.752-5.13s-3.05-.87-4.532-.334c-1.633.6-2.58 1.702-2.845 3.335-.16 1.068-.035 3.305.377 6.712l.625 5.055c.3 2.44.226 4.43-.223 5.98-.8 2.68-2.668 4.556-5.63 5.627-3.7 1.335-6.814.943-9.373-1.173-2.556-2.102-4.475-4.93-5.76-8.482-1.5-4.142-1.613-7.767-.345-10.876 1.253-3.104 3.687-5.283 7.302-6.54l1.533 4.24zm-2.23-62.16l-3.6 2.185-6.18-10.212-26.7 16.156-2.52-4.168 26.7-16.155-6.18-10.212 3.6-2.185zm-49.77-31.27l8.75-14.044-15.747 5.44 6.997 8.606m11.247-19.308l3.422 4.2-19.374 32.32-3.317-4.078 5.965-9.482-8.838-10.87-10.65 3.72-3.104-3.816 35.896-12.002zm-48.557-43.294l20.5 15.703-2.64 3.445-16.8-12.858-6.54 8.537 15.53 11.892-2.5 3.254-15.52-11.9-7.3 9.532 17.07 13.08-2.56 3.35-20.8-15.922zm-251.52-36.02c3.228-.8 6.176-.886 8.843-.23 3.865.937 6.743 3.554 8.634 7.852l-4.6 1.157c-1.2-2.37-2.8-3.902-4.858-4.598-2.052-.7-4.417-.73-7.1-.058-3.18.798-5.563 2.665-7.148 5.597-1.567 2.93-1.76 6.757-.573 11.48 1.025 4.085 2.757 7.2 5.196 9.312 2.435 2.108 5.68 2.652 9.732 1.635 3.104-.778 5.444-2.318 7.02-4.62 1.6-2.322 1.902-5.5.94-9.533l-10.758 2.7-.97-3.86 15.085-3.787 4.613 18.383-2.993.752-2.233-4.14c-1.14 2.126-2.235 3.676-3.282 4.652-1.753 1.665-4.204 2.895-7.352 3.685-4.07 1.022-7.902.582-11.494-1.317-4.025-2.503-6.762-6.64-8.2-12.4-1.444-5.753-1.033-10.72 1.23-14.902 2.15-3.987 5.578-6.57 10.286-7.753zm211.36 31.854c1.994 1.044 3.776 1.47 5.347 1.276 1.585-.188 2.922-1.32 4-3.4 1.17-2.236 1.155-4.185-.045-5.846-.645-.88-1.694-1.702-3.148-2.463l-10.383-5.433-5.6 10.726 9.828 5.14m-6.56-21.744l14.53 7.6c2.392 1.252 4.182 2.634 5.37 4.143 2.25 2.882 2.43 6.124.544 9.728-.983 1.88-2.18 3.214-3.6 4-1.395.794-2.98 1.2-4.756 1.185.964 1.14 1.54 2.276 1.728 3.4.2 1.14-.14 2.64-1.02 4.5l-2.053 4.287c-.583 1.22-.95 2.16-1.098 2.826-.266 1.13-.145 2 .36 2.64l-.37.705-5.213-2.727c-.001-.345.067-.754.206-1.225s.498-1.336 1.082-2.6l2.484-5.368c.973-2.104.93-3.878-.13-5.32-.6-.8-1.785-1.67-3.522-2.578l-9.68-5.063-7.042 13.46-4.25-2.225 16.418-31.385z" class="K"/></svg>