<svg xmlns="http://www.w3.org/2000/svg" xmlns:xlink="http://www.w3.org/1999/xlink" viewBox="0 0 1064.3 745.37" xmlns:v="https://vecta.io/nano"><style><![CDATA[.B{fill:#fff}.C{fill-rule:evenodd}]]></style><g class="C"><path d="M1063.64 744.73H.64V.64h1063z" stroke="#000" stroke-width="1.025pt" fill="#69f"/><g class="B"><path d="M530.55 375.47h5.828V521.8h-5.828zm-28.834-14.373l4.118 4.124L402.3 468.605l-4.118-4.124zM492.2 330.03v5.828H345.9v-5.828zm13.5-27.608l-4.122 4.12L398.133 203.06l4.122-4.12zm31.167-12.062l-5.828-.005.128-146.32 5.828.005zm31.54 13.977l-4.115-4.126 103.602-103.325 4.115 4.126zm10.872 33.303v-5.828H725.6v5.828zm-16.466 29.05l4.117-4.124 103.55 103.377-4.117 4.124z"/><path d="M604 151.88c100.03 37.4 150.87 148.93 113.48 248.96S568.56 551.7 468.53 514.32 317.66 365.4 355.05 265.36 503.98 114.5 604 151.88zm-2.46 6.58c96.4 36.04 145.4 143.52 109.36 239.92S567.4 543.77 471 507.74c-96.4-36.04-145.4-143.52-109.36-239.92s143.52-145.4 239.92-109.36zm-10.7 28.64c80.6 30.13 121.54 119.98 91.42 200.56-30.12 80.6-119.97 121.54-200.56 91.42S360.16 359.1 390.28 278.52 510.26 157 590.84 187.1zm-2.36 6.32c77.1 28.82 116.28 114.78 87.46 191.88s-114.78 116.3-191.88 87.47S367.78 358 396.6 280.9s114.78-116.28 191.88-87.46zm-10.14 27.14c62.12 23.22 93.7 92.5 70.47 154.6s-92.5 93.7-154.6 70.47-93.7-92.48-70.47-154.6c23.22-62.12 92.5-93.7 154.6-70.47zm-2.38 6.36c58.62 21.9 88.4 87.26 66.5 145.88-21.9 58.6-87.27 88.4-145.88 66.5-58.62-21.9-88.4-87.27-66.5-145.88 21.92-58.62 87.27-88.4 145.88-66.5zM566.2 253c44.2 16.53 66.68 65.83 50.16 110.04-16.53 44.22-65.83 66.68-110.04 50.16-44.2-16.53-66.68-65.82-50.16-110.04C472.7 258.95 522 236.48 566.2 253zm-2.17 5.82c41 15.33 61.84 61.04 46.5 102.05-15.33 41-61.04 61.84-102.05 46.5-41-15.32-61.84-61.04-46.5-102.04 15.33-41 61.04-61.85 102.05-46.52zm-11.46 30.68c24.07 9 36.3 35.83 27.3 59.9s-35.83 36.3-59.9 27.3-36.3-35.83-27.3-59.9 35.83-36.3 59.9-27.3zm-2.35 6.3c20.6 7.7 31.06 30.66 23.36 51.26s-30.66 31.06-51.26 23.36-31.06-30.66-23.36-51.25c7.7-20.6 30.66-31.07 51.26-23.37z"/></g></g><path d="M660.66 405.818c.238.978.22 3.465.752 3.96.58.695 2.348.265 3.077-.125 2.013-1.114 3.75-4.233 4.452-6.475.54-1.167.84-2.49.51-3.855l-2.077-4.275c-.582-1.518-1.44-4.218-3.195-4.613.093-.434.54-1.167.396-1.756-.618-1.722-3.516-.804-4.407.66-.446.733-.113 2.1-.112 2.922.184 1.628.17 4.952-.287 6.5-.445 1.556-1.97 3.8-1.79 5.415.287 1.178 1.655 1.67 2.68 1.63zm-100.052 2.37l.672 1.07c.05.2.33.543.532.495 1.514 1.092 3.002-2.178.702-2.243-.2.05-.638-.057-.8.192-.39.095-.777.19-1.117.484zm1.087-3.173c-.79 1.015-1.034 1.7.525 2.156l-.525-2.156zm-26.2-13.95c-1.296 1.55-1.284.724-1.967 1.302-.495.532.037 1.027-.36 1.96-.093.434-.634.778-.54 1.167-.057.638.627.883 1.262.928.826.01 3.183-.562 3.865-1.14.646-.78.257-1.5.502-2.194l.597-.982c-.037-1.027-2.338-1.914-3.36-1.04zm56.56-14.82l.48 1.968-.007 1.662c2.095-.723 3.33-1.647 5.142-2.713.543-.33 1.624-1.02 2.1-.713.684.245.426.932.333 1.366-.196.884-1.243 2.587-1.688 3.32-1.374 1.994-3.73 2.568-5.505 4.66-.928 1.262-1.09 2.337-2.02 3.6-.94 1.265-1.68 1.658-2.163 2.187-.446.733.037 1.027-.997 1.903l.457-1.56c-.638-.057-1.428.135-1.96-.36a2.71 2.71 0 0 1-.427-1.755c.102-1.273-.072-4.55.525-5.533.142-.234 1.612-1.017 2.155-1.348l-.102 1.273c.59-.143 1.567-.382 1.907-.677.93-.44 1.63-2.68 2.03-3.602l-2.556 1.446c.302-1.322 1.3-4.048 2.285-5.124zm-52.402 14.007c-.16 1.91.864 1.038 1.642 1.672.5.303.642.893.783 1.47l-1.518.582-.552 1.17-.74 1.216 2.783.358c-1.27.734-2.107.726-2.798 2.142l3.335-.812c2.202-.337 3.912-.13 5.818-1.63l-.483-.294.36-1.96-1.617-.642-.676-1.084-2.92-2.61-.872-.2c.588-.966 1.82-2.727-.28-2.84l-1.024.05.74-1.216c-1.227.086-2.254.124-3.04 1.152-.89 1.465-.698 3.078 1.058 3.474zm-4.583-25.642l.132 1.415-.532-.495.373 2.406c.533 1.318 2.006.547 2.297.052.343-.283.35-1.12.257-1.5s-.393-.74-.627-.883c-.45-.103-.638-.057-1.027.037l-.284-1.166-.59.143zm-161.692 37.283c.325 3.04 1.108 2.85 2.12 5.3.528 1.32.035 1.85 1.487 4.405.68 1.083 1.162 2.214 2.482 2.503-.81-3.322-1.486-5.23-3.032-8.172-1.067-1.825-1.7-1.87-2.666-4.13l-.39.095zm269.5-74.325c-.896.63-1.14 1.314-.903 2.29a1.33 1.33 0 0 0 1.949 1.185c1.272-.72 1.05-4.2-1.046-3.477zm-187.454 27.793c-.34 1.118-.298 2.157.87 2.697-.238-.978-.088-2.05-.87-2.697zm58.682-7.847l.73.433c1.283-1.547 1.48-2.432 2.37-3.897.74-1.216 1.33-1.36 1.824-1.89.294-.483.2-.872.257-1.5.196-.884.74-1.216.404-2.595-.1-1.224-1.103-2.84-2.433-2.302l-.442-.942c-.577.14-1.506.58-2 1.11-.492.545-.114 1.276-.748 2.054-.74 1.216-2.212 1.986-2.564 2.284-.528.34-.2.872-1.034 1.7-1.174 1.122-2.107.726-2.84 1.103-.93.44-2.16 2.2-2.8 2.968-.89 1.465-1.088 2.35-1.344 3.86-.093.434-.35 1.12-.056 1.46.298.352.875.212 1.227-.086.728-.4 2.307-1.597 2.942-1.553.59-.143.875.212 1.322.302.625.06 1.027-.037 1.464.068.434.093.966.588 1.462.88 1.12.35 2.003-1.1 2.212-1.986.093-.434.196-.884.056-1.46zm-.88-15.56l.05.2-.25-.152.2-.05zm1.95 1.185c.676 1.084 2.776 2.02 3.992 2.76.343-.283.495-.532.588-.966.35-1.12-.125-3.077-1.246-3.428-.687-.258-1.415.132-1.956.476-.05-.2-.393-.74-.642-.893-1.745-1.222-3.137 3.26-.735 2.05zm-8.644-1.414c1.51 1.08 1.557 1.268 3.312.84-.102 1.273-1.44 3.47-2.855 2.78-.92-.4-1.113-1.2-1.547-1.283-.687-.258-.552 1.17-.846 1.653-.645 1.604-2.057 1.75-1.888 4.19l.695-.58c.97 1.424 2.156-.525 3.04-1.152-.152.25-.446.733-.552 1.17-.045.635.688 1.08 1.216.74.54-.344 1.092-1.514 1.587-2.046s.683-.578 1.223-.922l1.623-1.843c1.48-1.61 1.673-.82 1.97-2.976-.095-.39.057-.638-.037-1.027-1.017-1.612-3.666.268-3.912.13l-1.273-.102c-.437-.106-1.166.284-1.755.427zm9.095-1.803l-.978.238.344.54c1.13-.487 1.907-.677 1.775-2.092-.978.238-1.178.287-1.14 1.314zm-61.932 13.207l-.316 4.645.664 1.9 1.356 3.826c.397-.933.943-3.762.906-4.79l.007-1.662c-.086-1.227.007-1.662-.668-2.745l-1.128 1.3-.42-2.594-.4.098zm63.8-14.9c-.287-1.178-.037-1.027.986-1.077l-.276-2.004c-.54.344-1.33.536-1.812 1.065-.752 1.22-.514 2.197 1.102 2.016zm-6.24-1.8l.78.646c1.318-.533 1.8-.24 3.074-.138l-.578-.683.397-.933c1.178-.287 1.128-1.3.502-2.194-.246-.14-.684-.245-.933-.397-2.288-.9-2.247.972-2.647 1.893l-.596 1.805zm5.04-1.44c.39-.095.8-.192 1.133-.475.634-.778-.03-2.688-.717-2.946-.635-.045-.88.64-.786 1.028l-.057.638.427 1.755zm-63.057 14.53c.585-.98.64-2.44.603-3.467-1.223.922-.936 2.1-.603 3.467zm5.315-13.95c.427 1.755.408 3.42.012 5.176-.547 2.006-2.133 4.875-2.292 6.786l-.532-.495c-.69 1.416-.424 4.26.3 5.528.94-1.265.996-2.726 1.487-4.093.947-2.926 2.378-5.56 2.654-8.733-.004-.836-.128-3.09-.718-3.77-.286-.355-.486-.307-.92-.4zm181.196-21.914c.83-1.663.705-4.74.864-6.65.378-4.448 2.09-6.737.806-12.015-.287-1.178-1.05-3.49-2.522-3.542-2.25.136-.947 2.926-.992 3.56.143.59.037 1.027-.065 1.477-.7 2.24.07 4.538.406 6.74l.54 7.345.964 3.085zm-36.64-29.47c.095.39.344.54.627.883l.733.446c1.368.5 1.86-.865 1.28-1.56-.295-.34-1.12-.35-1.5-.257-.4.098-.8.192-1.13.487zm29.192-7.944c.43 1.768 1.536 4.62 2.504 6.03l2.178 3.002 2.893 5.935c.89-1.465.12-2.938-.412-4.255-1.258-2.602-2.904-5.11-4.3-7.465-.922-1.223-1.643-2.495-2.862-3.247zm-11.38-1.585l.124 2.254-2.832-.56c.148 1.425 1.06 3.486 2.326 4.427l2.383 1.28c1.95 1.185 3.946 2.572 5.74 3.994 1.61 1.48 1.752 2.07 2.343 2.75.486.307.97.6 1.5.257.343-.283.305-1.31.396-1.756l.503-1.37c.15-1.072-.82-2.496-1.447-3.38l-1.692-2.695c-.72-1.272-1.21-2.4-2.273-3.39-1.76-1.23-2.94-.944-4.65-1.152l-2.43-.656zm-54.793 11.057c.004.836.09 2.063-.84 2.49-.2.05-1.024.05-1.273-.102l-.453 2.394c-.245.684-.653 2.443-.5 3.032.05 1.024 1.416.69 2.014-.29.634-.778.596-1.805.996-2.726.596-1.805 2.02-2.776 1.932-4.826l-1.865.03zm60.45-16.79c.82 1.673 1.253 1.766 2.428 3.154.627.883.567 1.51 1.7 1.034-.827-.834-3.206-3.787-4.127-4.187zm-81.7 23.21c-2.25.136-.465 2.397-.616 3.47-.35 1.12-2.36 3.07-3.53 2.52a2.75 2.75 0 0 1-1.768.43c-.635-.045-1.12-.35-1.7-.208l-2.843 2.777c-.495.532-1.2 1.113-1.967 1.302-.59.143-1.38.336-1.673.82-.492.545.18 1.616.525 2.156l1.126 1.187c-1.874.868-1.54 2.234-1.1 4.002.238.978 1.096 4.5 1.49 5.24.426.932 1.843 1.623 2.915 1.773.687.258 1.7.208 2.3.064l-.17-2.442.577-.14.877 1.858.777-.19 2.546.203c.237.155.237.155.486.307.328.53-.007 1.662.136 2.25.52 1.32 1.994 1.374 3.16 1.1.193 1.613.287 1.178.337 2.202.238.978-.35 1.12 1.152 3.04.295.34.922 1.223 1.51 1.08s1.623-1.843 2.846-2.764c.44.93.487 1.13 1.42 1.526l-.163 1.075 2.07-1.752c-.264 3.17-1.63 2.68-2.768 4.83-.35 1.12.088 2.05-.076 3.126l.25.152.68-.6.543-.33c1.72-.63.628 1.706.726 2.107.14.577.578.683 1.028.786l-.847.83.734 1.27-3.535.86c-1.706.628-2.99 2.175-4.315 3.547l.095.39.635.045-3.2 2.24c1.072.15 2.357-.574 3.335-.812.93-.44.777-.19 1.907-.677l.684.245.004.836 4.54.754c1.075.163 1.755-.427 2.442-.17.933.397.77 1.472 2.244 1.525 1.7.208 2.885-.915 4.218-1.44l-1.386 1.997.922 1.223 1.86-.865c-1.234 1.748-1.318.533-4.063 1.202.684.245 2.677.796 3.124.886 1.075.163 1.567-.382 3.077-.125 1.276.114 2.88.76 3.04-1.152.295.34.58.695.827.834.687.258 1.075.163 1.7.208.826.01 2.926.947 2.964 1.974-.14.246-.29.496-.433.73-.344-.54-.688-1.08-1.22-1.575-1.3-1.128-2.983-.31-4.444-.365l-2.983-.31-2.25.136c-1.227.086-1.993-.55-3.17-.264-.39.095-.932.426-.837.815.098.4.58.695.83.847 1.355.493.823-.001 2.926.947 1.167.54 1.507.244 2.582.407l1.12.35c.836-.004.942-.442 1.768-.43a4.63 4.63 0 0 1 1.662.007l-3.236 2.036-2.688.03c.672 1.07.922 1.223.17 2.442l-.578-.683c-.446.733-.35 1.12-.797 1.854l-.74 1.216c-.093.434-.54 1.167-.94 1.265-.577.14-1.358-.506-1.84-.8-.933-.397-1.322-.302-2.25.136.864 1.038 1.216.74 2.337 1.09.92.4 3.365 1.876 4.146 2.523-.2.05-.4.098-.495.532-.307.486.324 2.205.856 2.7.496.29.933.397 1.522.253l-2.08 2.578c1.085.147 1.425-.148 2.394.453l-1.956.476-2.87-1.585-2.877-.747c1.024-.05 2.64-.23 3.523-.858 1.563-1.217.497-3.03-.955-3.924-.933-.397-1.522-.253-2.546-.203-.826-.01-2.148-.314-2.938-.12l-2.095.723.045-.635c-.638-.057-.872-.2-1.366.333-.733-.446-.78-.646-1.604-.645l.238.978-1.028-.786.037 1.027c-.58-.695-.627-.883-1.502-1.095l1.01 2.463-.248.67c-.986 1.077-.71 3.08-.424 4.26.57 2.344.125 3.077.167 4.94.132 1.415.677 1.907.564 4.006-.008.84-.46 3.233-.706 3.917l-.74 1.216-.503 1.37c-.248.67-.74 1.216-.985 1.9-.2.872.284 1.166.582 1.518.472 1.12-.4.92 1.196 2.404l-.588.966.777-.19c-.24 1.52.774 2.308 2.092 1.775.945-.43 1.824-1.89 1.974-2.964l.4-.098 3.252 3.975c.532.495.77 1.472 1.596 1.484.836-.004 1.035-.876 1.28-1.56.307-.486.646-.78.94-1.265.35-1.12-.82-2.496-.86-3.535.01-.826.506-1.358.456-2.382-.336-1.38-1.408-1.53-2.187-2.163-.78-.646-.974-1.436-1.212-2.414-.525-2.156.513-3.02.47-4.882-.086-1.227-.865-1.86-1.057-2.65-.143-.59-.086-1.227.503-1.37 1.32-.52 1.702 1.046 1.94 2.024l.088 2.05c-.008.84-.253 1.522-.015 2.5.4.728.922 1.223 1.253 1.766.545.492.688 1.08 1.17 1.375.437.106.684.245 1.072.15.437.106.887.21 1.276.114.93-.44 1.677-2.493 2.51-3.32.495-.532 1.32-.52 1.9-.664-.245.684-.985 1.9-1.29 2.386-.683.578-2.013 1.114-1.914 2.338-.208 1.7 1.95 1.185 2.08 2.6.05 1.024-1.662-.007-1.967 1.302-.5 1.368.48 1.968.918 2.897.143.59-.102 1.273-.16 1.91-.645 1.604-1.472.77-2.507 1.646-.883.627-1.73 2.28-2.658 2.72-.728.4-1.46-.056-2.05.088-.777.19-1.283 1.547-2.745.668-1.502-1.095-.078-2.066-.562-3.183l-1.068-1.825c-1.035.876-2.008 1.95-1.44 3.47.734 1.27 2.187 2.163 1.647 3.33-.495.532-1.673.82-2.507 1.646-1.035.876-1.925 3.164-2.265 3.46-.495.532-1.084.676-1.578 1.208l-1.726 2.293c-.14.246-.14.246-.294.483l-2.595-.404.333 1.366c-.978.238-.978.238-1.8.24-.638-.057-1.862.042-2.062.914-.245.684 1.465.89 1.903.997 2.677.796 3.546 3.492 2.606 4.757-.634.778-1.956.476-2.782.465-1.862.042-4.846-.268-6.65-.04-2.357.574-1.386 1.997-1.688 3.32-.01.826-.69 1.416-.75 2.042-.14.246-.1.447-.045.635-.046-.188.962 2.262.914 2.062.393.74 1.76.408 2.582.407 1.088.16 1.42.703 2.35 1.088.875.212 1.215-.083 1.956-.476 1.755-.427 3.573.166 6.022-1.665.54-.344 1.035-.876 1.14-1.314.433-.73.102-1.273.735-2.05.8-1.018 2.507-1.646 3.342-2.474.646-.78-.03-1.865 1.243-2.587.932-.426 2.1.113 3.37-.608 1.13-.487 2.222-2.002 3.342-2.474 1.178-.287 2.1.936 3.81 1.144l6.744.43c.2-.05.638.057.887.21 1.933 1.176-.514 2.197-1.446 2.623-.728.4-.93.44-1.706.628.237.155.283.343.532.495.872.2 2.935.11 3.57-.657.29-.496.196-.884.053-1.474.74-.393 1.084-.676 1.28-1.56-.14-.577-.472-1.12.02-1.665.294-.483 1.07-.672 1.66-.816-1.064-.99-1.756-.396-2.983-.31-.625-.06-.92-.4-1.556-.445-.59.143-1.084.676-1.956.476-.638-.057-1.37-.503-2.01-.56-.684-.245-2.345-.252-2.383-1.28.106-.437.245-.684.634-.778.152-.25.352-.298.54-.344l.393.74c2.013-1.114 1.46.056 3.323.014 1.7.208 3.57-.657 5.328-.26 1.075.163.83.847 1.858 1.632 1.216.74 2.734.158 4.1-.175-.14.246-.34.295-.294.483-.245.684.24 1 .676 1.084 1.604.645 3.58-1.496 1.574-2.043l2.847-1.94c-1.556-.445-2.19.334-4.293-.615.978-.238 1.178-.287 1.812-1.065l.01-.826 2.99-2.175c-.784 1.85.284 1.166.915 2.885.978-.238 2.25-.136 3.23-.374.73-.377 2.744-1.49 3.236-2.036.495-.532.552-1.17 1.046-1.702l2.155-1.348c.834-.827 1.432-1.81 2.02-2.776.294-.483.597-.982 1.236-.925.872.2 1.348 2.155 1.54 2.945.344.54.72 1.272.865 1.86.23 2.64-2.466 3.508-3.934 5.114-.99 1.064-1.634 2.67-2.715 3.357-1.33 1.36-5.354 3.588-7.215 4.452l-4.017 1.4c-.883.627-1.87 1.703-2.07 2.575-.196.884.43 1.768-.453 2.394-.88.64-4.758 1.783-5.782 1.833-1.665-.02-1.17-.552-3.527.022-2.144.522-4.452 1.296-6.75 1.232.29-.496.89-1.465.95-2.103.093-.434-.143-.59-.238-.978-.05-.2-.143-.59-.393-.74-.53-.482-2.096-.1-2.685.043-1.333.524-1.038.864-3.194 1.39l-7.197 1.965c-3.523.858-6.182 2.753-7.548 3.086-.978.238-3.23.374-4.304.21-.884-.196-1.85-.784-2.734-.158-.932.426-1.14 1.314-2.212 1.986-1.08.688-3.237 1.213-4.414 2.323-1.2 1.113-.408 1.76-1.832 2.73-.728.4-3.322.81-4.312 1.05-2.192.32-3.18 1.398-4.99 2.463l-2.016 1.102c-.74.393-2.26.975-2.504 1.66s.333 1.366.476 1.956.086 1.227.042 1.862c-.846 1.653-3.353 3.3-2.627 5.407.52 1.32 1.36 1.33 3.058 2.363 2.293 1.726 4.188 4.385 6.57 5.664 3.07 1.537 7.46 3.375 11.022 3.544l6.07-.654c3.277-.174 5.872.23 9.243-.378l7.303-2.402c1.567-.382 3.878-1.143 5.585-.948 1.7.208 2.185 1.34 5.13.623l4.063-1.202c.932-.426 1.66-.816 2.794-.468 2.726.996-1.25 4.248.933 5.576 1.22.752 4.898.48 6.404.725 1.027-.037 4.45 1.2 5.218 1.85.496.29.6.68 1.122 1.174s1.604.645 1.748 1.234-.985 1.9-1.28 2.383c-.937 1.277-2.674 4.396-1.27 5.913.545.492 1.866.794 2.538 1.042l6.016.82c2.63.608 3.107 2.563 4.773 3.406 1.167.54 2.935.11 4.35-.023l6.155.573c2.148.314 1.454 1.718 3.12 1.737 3.478-.223 8.337-4.1 10.898-6.398l5.296-3.773c2.12-1.552 3.988-3.255 5.857-4.958 3.492-3.546 6.157-7.926 7.513-12.612.5-1.368 1.978-4.638 1.99-5.464.102-1.273-1.266-1.763-.915-2.885.44-1.568 2.76-3.992 3.165-5.763.387-.918.055-2.284-.866-2.684-.875-.212-1.366.333-3.077.125.804-3.516 2.63-7.08 4.122-10.34.69-1.416 1.92-4 1.74-5.616-.23-1.816-1.843-1.623-2.624-2.27-.73-.433-.64-.88-1.074-.974-.875-.212-2.1.713-2.933.714-.59.143-1.075-.163-1.5-.257-.687-.258-1.428.135-2.017.28-1.258-2.602-.045-7.877.513-10.708 1-6.05 2.62-12.257.942-18.276l-1.533-4.606c-.344-.54-.922-1.223-1.666-.843-1.117.484-1.687 4.142-2.038 5.263l-2.035 5.276c-.54 1.167-.796 2.677-1.58 3.705-.646.78-1.718 1.454-2.613 2.084-.426-.932-.966-.588-1.7-.208l-3.33 2.47c-.692.593-2.02 1.953-3 2.19-.8.192-1.322-.302-2.45.185-.777.19-2.062.914-2.687.853-.836.004-1.805-.596-2.644-.605-.635-.045-1.755.427-2.295.77-1.968.48-5.188.015-7.288-.098.343-.283.73-.377.637-.766.16-1.088-1.646-2.507.215-3.372l.8-.192 3.368-.62 1.922-.667c1.024-.05 1.355.493 2.734.158l4.7-1.968c1.968-.48 3.033 1.333 4.903-.37 1.517-1.405 2.566-5.604 2.925-7.564l1.155-4.637.264-3.17c.453-2.394 1.005-3.564.385-6.11l-.907-3.723c-.382-1.567-.87-2.697-2.304-.9-1.08 1.51-1.333 3.033-3.386 3.108-.216 2.55.547 5.683-1.71 7.48-.837.815-1.9.664-2.84 1.103-.543.33-1.236.925-1.673.82-.59.143-1.072-.15-1.216-.74.01-.826 1.28-1.56 1.824-1.89 1.812-1.065 2.74-1.504 3.927-3.453.69-1.416.653-2.443 1.205-3.613.588-.966 1.223-.922 1.81-1.888.446-.733 1.148-2.975 1.545-3.908l1.464-7.62c.9-2.288 2.797-2.965 2.967-5.702l.44.93c1.954-1.3 1.68-3.304 1-5.223 1.178-.287 3.633-.46 4.562-.898l4.13-3.49c1.035-.876 2.704-2.53 2.805-3.804.2-.872-1.447-3.38-1.98-3.874-.295-.34-.532-.495-.97-.6-1.085-.147-2.403.386-3.324-.837-1.064-.99-2.61-4.77-3.58-6.193-2.18-3.825-2.175-2.99-3.146-4.413-.64-.88-.68-1.92-.918-2.897-.4-.728-.922-1.223-1.016-1.612-.192-.8.302-1.322.748-2.054.645-1.604.358-2.783 1.144-3.81.65-.77 1.333-.524 1.578-1.208.985-1.9-2.142-2.798-1.394-4.853.4-.92 1.63-2.68 2.61-2.92.744-.38 1.415-.132 2.156-.525.695-.58.55-1.993.747-2.877.502-2.194 1.73-2.28 1.65-5.17-.037-1.027-.185-2.45-.763-3.134-1.064-.99-2.25.136-2.45 1.008-.54 1.167-.203 2.546.08 3.712.086 1.227.08 2.89-.472 4.06-.642 1.617-2.496.82-3.077.125-.295-.34-.19-.777-.284-1.166-.193-1.613-.726-2.107-.567-4.018.01-.826.464-3.22.17-3.56-.143-.59-2.235-2.364-2.768-2.858-1.028-.786-2.92-2.61-4.297-1.45-1.223.922-.603 3.467-.67 4.943-.045.635-.162 1.898-.74 2.04-.352.298-1.072-.15-1.568-.44-1.265-.94-2.043-1.574-2.474-3.342.638.057 2.348.265 2.357-.574-.192-.8-1.315-1.964-2.092-1.775-.836.004-.834.827-2 .288-.982-.597-3.36-3.55-4.422-4.527-1.372-1.326-3.275-2.323-5.08-2.92-1.072-.15-4.588-.954-5.422-.127-.343.283-.2.872-.302 1.322-.237-.155-.486-.307-.875-.212-1.474-.053-1.67 1.655-1.63 2.68.095.39.287 1.178-.253 1.522-.543.33-1.027.037-1.5-.257-1.17-.552-1.22-.752-2.738-.993.4.728.77 1.472 1.36 2.152 1.36 1.33 2.137 1.14 2.224 3.2-1.756-.396-3.762-.943-5.075-2.084l1.472-.77-.095-.39c-.684-.245-3.07-1.537-3.26-2.314-.143-.59.646-.78.503-1.37.045-.635-.64-.88-.43-1.768.446-.733 1.517-1.405 1.325-2.195-.095-.39-.578-.683-1.015-.79-.93-.384-2.584-1.23-3.372-.215-.646.78.088 2.05-.07 3.96-.635-.045-1.756-.396-2.394-.453-.84-.008-1.72.63-2.84.28-1.5-.257-2.198-1.337-3.507-1.643-2.443-.653-4.3.224-6.41.937-.978.238-2.557.623-3.437 1.262-.683.578-.928 1.262-1.185 1.95-.74 1.216-2.4 2.032-2.02 3.6.52 1.32 1.748 1.234 2.23 1.528l1.597 2.307c-1.318.533-2 .288-3.18.575l-4.558 1.734c-2.393.37-3.315-.853-4.874-1.3-.884-.196-1.474-.053-2.157-.298-.72-.45-.864-1.038-1.113-1.2-.532-.495-2.595-.404-3.17-.264.095.39.143.59-.163 1.075-.245.684-1.82 1.904-2.598 2.093-.343.283-.978.238-1.428.135l.008-.84c-.037-1.027-.627-.883-1.368-.5-1.117.484-1.718 1.454-2.552 2.28.245-.684.445-1.556.9-2.288.646-.78 1.575-1.22 2.458-1.847l2.752-2.33c.695-.58 1.766-1.253 2.258-1.798 1.48-1.61 1.257-5.9.544-8.02-2.893 1.753-2.07 1.752-3.988 3.255-.68.6-1.068.685-1.612 1.017-.495.532-.552 1.17-.596 1.805zm20.062-10.483l2.135 1.135 1.847 2.458c1.084-.676 1.2-1.113 1.918-1.503.34-.295 2.89-.08 2.12-1.552-.25-.152-.496-.29-.733-.446l-.057.638c-.733-.446-1.702-1.046-2.587-1.243-.872-.2-3.665.273-4.643.512zm6.836-.01c2.745-.668 2.168-1.35 3.735-1.733.728-.4 2-.288 2.84-.28l-.008.84c1.756.396 1.518-.582 2.79-.48 1.322.302 2.28 1.73 4.44 2.04.872.2 1.31.305 2-.288.58.695.78.646 1.56.457-.037-1.027.503-1.37.16-1.91-.33-.543-2.538-1.042-2.45 1.008-.827-.834-.484-1.117-.816-1.66-.827-.834-2.255-.7-3.184-.26-.666-1.917-.336-1.38-3.26-2.324-.92-.397-2.926-.947-3.952-.905-1.226.09-1.424.97-2.306 1.6-.446.73-1.083.678-1.577 1.213-.446.73-.16 1.91.03 2.686zm40.73-15.098l2.87 2.412c1.122 1.173 2.235 2.363 3.5 3.303.98.585 2.288.9 3.418.403.744-.38 2.764-3.156.71-3.904-.684-.245-1.567.382-2.156.525-.133-1.418-.324-2.203-.858-3.524-.096-.392-.286-1.176-1.016-.8-.883.63.6 3.378-.995 2.73l-.684-.248-.732-.444c-.586.973.286 1.176 1.066 1.816.968.596 1.747 1.23 2.034 2.408-2.337-1.09-2.623-2.264-4.23-3.74-1.016-.79-1.748-1.234-2.926-.947zm8.338-3.276c.723 1.277 3.24 3.984 4.762 4.232-1.218-1.568-2.816-3.876-4.762-4.232zM476 289.973l1.768-.43 5.378.765c1.462.06 2.876-.077 4 1.103-2.545.62-2.05.088-4.162-.025-1.85.035-2.344.57-3.76.707-.837-.003-1.274-.104-1.91-.158l-5.195 1.68c-1.414.137-1.853-.793-2.726-.996-.933-.396-1.663-.01-2.357.574-1.27.725-2.46 1.843-3.635 2.96-2.212 1.99-4.776 4.273-6.207 6.905-.985 1.9-.56 2.832-1.544 4.73-1.034 1.7-3.693 3.595-5.263 6.473-1.152 2.14-.865 3.318-1.3 4.048-.307.486-2.564 2.284-3.105 2.628-.53.328-1.12.472-1.472.77-.495.532-.74 1.216-.985 1.9l-1.68 2.48c-.397.933-2.027 4.437-2.035 5.276.132 1.415 2.478 1.668 1.54 3.768l-.446.733c-1.177 1.1-1.7-.208-2.737-.17-1.273-.102-2.896 1.74-4.112 1-.778-.634-.628-1.706-.82-2.496-.426-.932-.922-1.223-1.302-1.967-.627-.883-.477-2.78-2.122-4.463-.873-1.022-1.76-1.23-2.202.337l-.305 1.31c-1.017-1.612-.763-3.134-2.237-3.187-1.85.04-2.114 2.387-2.993 3.85-2.232 3.65-2.715 3.357-4.538 5.248l-2.314 3.26-1.53 1.408c-.786 1.028-1.148 2.975-1.438 4.294l-.884 8.315c-.208 1.7-.566 4.493-2.24 5.312-.54.344-2.344.57-2.982.514-.684-.245-1.216-.74-1.85-.784-.59.143-2.156.525-3.715.068-.98-.585-2.338-1.914-3.213-2.126-.884-.196-1.674-.004-2.45.185-.978.238-2.357.574-3.18.575-2.148-.314-3.89-3.2-4.908-4.834-.4-.728-1.065-1.812-1.75-2.057-.982-.597-1.86.865-2.933.714-.84-.008-2.882-1.582-4.003-1.933-.25-.152-.98-.585-1.322-.302-.39.095-.397.933-.5 1.368.18 1.616.664 1.9 1.74 2.896.237.155 1.015.79.52 1.32-.834.827-2.575-2.07-3.418-.403-.093.434-.045.635-.2.872l-.39.095-1.398-3.18-.336-1.38-1.74-2.896-1.432 1.81-.618-1.722-.72-1.272c-.442-.942-1.23-.75-1.91-.16-1.33 1.36-2.126 3.213-2.96 4.04-1.03.875-1.958.477-2.696.856-.883.64-1.382 1.996-1.535 3.07l-.443 8.407c-.48 6.557-1.125 8.162.495 14.818l1.3 3.628 1.435 5.042 1.014 2.462.392-.096c-.623-2.557-1.176-7.39-.77-9.984.36-2.783 1.44-3.458 1.07-6.687l.815 2.497c.938-1.264.746-2.054 2.17-3.025.63.883.875 1.035 1.357 2.166.434.93.623 1.707 1.256 2.602.63.883 1.064.976 1.644 1.67.545.492.97 1.424 1.36 2.152.724 1.284 1.447 3.38 3.157 3.587.445-1.556.014-3.323-.167-4.94.106-.437.007-1.662.362-1.947.93-.44 1.547 1.283 1.69 1.872.77 1.472 1.447 3.38 2.57 4.553 1.208 1.578 1.95 1.185 3.595 3.693l.15-1.072c.72 1.272.182 2.44 1.8 3.097-.192-.8-.804-4.173-.558-4.857.106-.437.683-.578 1.084-.676l1.81 6.61c.192.8.63 1.72 1.163 2.213 1.265.94 2.45-.185 3.078.698l1.25 3.44c1.02 2.447 2.36 5.44 3.72 7.593 1.02 1.624 2.368 3.78 3.882 4.87.532.495 1.3 1.128 2.05.735.73-.377.305-1.31.35-1.944.008-.84.35-1.12.408-1.76-.05-1.024-.525-2.156-.14-3.086-.102 1.273.336 1.38.623 2.557.382 1.567 1.01 3.273 1.78 4.746 1.163 2.213 2.09 4.272 3.78 6.144 1.122 1.174 3.508 2.466 4.97 3.345 2.046 1.587 4.04 2.96 6.426 4.252l2.833 1.382 2.337 1.09c2.042.75 2.013-1.114 3.18-1.398.638.057 3.02 1.336 3.754 1.782 3.758 2.617 2.542 1.878 5.212 4.335l5.932 4.784c1.51 1.08 3.497 3.292 5.362 3.262l1.862-.042c2.1.113 4.493.566 6.555-.348.777-.19 1.27-.734 1.563-1.217.446-.733.645-1.604 1.435-1.797.823-.001 2.832.56 3.704.758 2.252.687 5.477 1.986 7.764 2.054 2.297.052 3.686-1.933 3.1-3.464-.767-1.46-3.354-2.702-4.95-5.01-1.503-1.918-2.666-4.13-4.32-5.8l-3.734-3.446-2.343-2.75-1.1-1.177c-.298-.352-.82-1.673-.962-2.262l-2.95-5.297c-1.266-1.763-3.222-1.287-4.868-3.794 1.064.99 3.013 2.175 4.335 2.477-.77-1.472-2.37-3.792-3.493-4.966l-2.28-1.73c1.216.74 2.185 1.34 3.66 1.393l.195-1.707c.408-1.76.952-2.09.673-4.108-.62-3.368-4.408-7.85-5.41-11.962-.427-1.755-.268-3.666-.3-5.528l-.374-3.23c-.143-.59.163-1.075.162-1.898l-.324-2.205c.102-1.273.208-1.7-.08-2.89l-1.4-3.19-.37-2.393-.763-3.134c-.57-2.344.555-3.667.562-5.33.01-.826-1.303-2.8-1.787-3.084-.684-.245-2.004.276-1.653-.846s2.382.456 2.926.947c.3-2.145-.185-2.45-.813-4.158l-1.427-5.044c-.536-1.33-1.503-1.918-1.646-2.507.045-.635.634-.778 1.234-1.748.585-.98.735-2.05.698-3.078l-.423-3.43c.007-1.662 1.1-4.002 2.77-4.818 1.72-.63 3.762.943 4.74.705s1.33-1.36 1.574-2.043 1.407-6.982 1.407-6.982l.4-.098c1.208 1.578 2.28 1.73 3.794 2.82l1.3 1.128c.246.14.59-.143.93-.44.6-.97 1.016-4.4.377-5.27-.38-.744-1.36-1.33-1.785-2.26-.143-.59.102-1.273.347-1.957.302-1.322.358-2.783 1.144-3.81 1.54-2.234 5.063-3.092 7.446-1.813 1.216.74 1.17 1.375 1.703 1.87.78.646 1.76.408 2.23 1.528.098.4.148 1.425.09 2.063.284 1.166.582 1.518.277 2.827-.5 1.368-1.476 2.444-1.733 3.954-.408 1.76.618 1.722.562 3.183-.257 1.5-1.18 2.784-1.438 4.294-.4.92-.208 1.7-1.042 2.538-.695.58-1.922.667-2.7.856-1.13.487-1.964 1.315-2.847 1.94.095.39.192.8.487 1.13.475 1.133 1.453.895 2.394.453 1.506-.58 3.424-2.082 5.138-1.04 1.51 1.08 2.418 4.803 3.728 5.93 1.216.74 1.993.55 3.27.665.872.2 1.556.445 2.288.9 1.712 1.03 1.364 2.164 2.19 3 .717.436 1.26.105 2.04.74l3.55 4.328 1.775-2.092c.77.65 1.56.457 1.518-.582-.143-.59-.628-1.706-.972-2.247 1.51 1.08 1.75 2.057 1.99 3.87.095.39-.01.826.287 1.178.19.777 1.348 2.155 2.08 2.6.92.4 1.46.056 2.156-.525.54-1.167.698-3.078 1.593-4.53.74-1.216 2.458-1.847 3.783-4.042-.434-.093-1.756-.396-1.7-1.034.196-.884 1.375-1.17 2.057-1.75.99-1.064 1.63-2.68 1.687-4.142l-2.44.182-1.464-.068-1.968.48-2.137-1.14-2.84.28c.35-1.12.596-1.805 1.775-2.092.59-.143 1.46.056 1.804-.227.74-.393.552-1.17 1.043-1.715.895-1.453 2.413-2.035 2.42-3.696 1.662.007 1.956-.476 2.794-.468 1.756.396 2.662 3.296 3.63 4.707-2.145-.3-1.514 1.418-1.382 2.833.683-.578 1.422-1.794 2.163-2.187l2.594-.42c.59-.143.74-.393 1.28-.737 1.32-.52 2.336.268 3.212 1.303.692-.593.597-.982.02-1.665l.978-.238-.783-1.47c-.978.238-1.215.083-1.378 1.16-.92-.4-.92-.4-1.944-.35l.634-.778-.095-.39c-1.808-.61.053-1.474.216-2.55.045-.635-.238-.978-.533-1.318l2.353-1.41c.89-1.465 1.92-.68 2.163-2.187 2.112.1 1.09-2.337 2.563-3.107.352-.298.978-.238 1.38-.336l1.612-1.017c.8-.192 1.178-.287 1.92-.68.683-.578 1.234-1.748 1.668-2.478.307-.486.94-1.265 1.046-1.702.057-.638-.287-1.178-.525-2.156.823-.001 1.412-.145 1.858-.877.495-.532.305-1.31-.582-1.518l-.978.238 2.424-2.86.203-2.546-.728.4.102-1.273-2.156.525 1.48-2.432c.834-.827 1.87-.88 2.176-2.2-1.922.667-4.086 2.854-5.116 4.565l-1.585 2.87-.001-.823c-1.86.865-1.574 2.043-2.257 2.62l-.352.298c.59-.143-3.37.608-2.733.665-1.027.037-2.243-.702-3.225-1.3-.733-.446-1.262-.928-1.957-.347L507.572 302c.294-.483.446-.733-.05-1.024-.486-.307-1.56-.457-2.492-.854-1.7-1.034-1.785-2.26-2.213-4.016-.385-1.58-.585-1.53-1.306-2.803-.344-.54-.44-.93-.97-1.424s-1.7-1.034-2.432-1.48c-.982-.597-2.198-1.337-3.222-1.287-1.463-.063-2.45 1.008-3.723.907-1.074-.158-2.587-1.243-3.896-1.547-.837-.003-1.815.235-2.605.427-.096-.392-.286-1.175-.723-1.277-.684-.248-1.768.43-2.545.62s-1.12-.35-1.758-.402-3.43.42-3.723.907c-.34.3-.01.832.086 1.225zm138.934-42.126c1.89 1.82 5.15 4.14 7.65 4.154-.875-1.03-1.512-1.085-2.48-1.68-1.417-.692-3.85-2.175-5.17-2.475zM598 242.218l-.627-.884c.872.202 1.758.402 2.337 1.09.344.54.44.93.582 1.518.286 1.175 2.71 3.5 3.935 3.4.436.1.39-.095.777-.19l-1.53-3.777c-.544-.5-1.073-.154-1.853-.793l-4.775-4.233c-.284-.347-1.36-1.33-1.302-1.966.293-.486 1.27-.724 1.672-.82l-4.24-2.9c-.484-.298-1.264-.937-2.006-.55-.73.385-.88 1.458-1.138 2.144-.245.683-.692 1.414-.55 2 .39.735 1.407 1.524 1.95 2.015l3.897 2.37c1.016.8 1.547 1.283 2.87 1.584zm51.346-8.145c-.916-2.888-3.198-5.445-5.726-7.32l-3.897-2.37c-1.56-1.28-3.358-3.54-5.6-5.07-2.445-1.48-4.155-1.685-6.292-2.825l-3.71-2.417-6.565-4.004c-1.713-1.036-3.805-2.81-5.164-4.138-1.407-1.524-1.16-2.206-1.94-2.847-.53-.492-2.29-.894-3.127-.9l.21-.88-1.57-.45c.596-1.805-.474-1.13-1.833-2.458-.544-.5-.735-1.274-1.6-2.305-1.312-1.133-2.964-1.977-4.57-2.623l-7.766-2.88c-2.5-.846-5.9-2.092-8.54-1.863-2.004.28-3.144 1.595-5.052 2.267-1.72.626-5.526 1.138-6.523 3.04-1.033 1.704 2.428 3.973 3.692 4.91l3.544 2.664c1.028.787 1.372 1.326 2.435 2.31.98.592 2.834 1.386 3.66 2.22.815.84-.303 1.32.808 2.502.875 1.03 2.824 2.217 3.498 3.297.392.736.678 1.91 1.4 2.355.684.248 1.366-.333 1.956-.476.93-.434 3.6-2.327 4.5-1.928s4.24 2.9 5.008 3.552c.497.295 1.512 1.085 1.467 1.718.238.98-3.04.325-2.118 1.553.296.344 2.337 1.09 3.07 1.535l2.728 1.826 3.117 1.73c.732.444 1.608 1.476 2.292 1.725 1.32.3 1.765-1.26 2.933-.714 2.242.698 4.135 3.35 6.568 4.833 1.617.643 1.958.352 3.28.653 1.12.35 1.9 1 3.07 1.535 1.805.598 1.863-.04 4.047 1.297 2.93 1.777 5.457 3.65 8.032 5.72 1.028.787 3.508 2.466 4.58 2.62l.59-.143 2.106-1.55s.2-.05.153-.244c.057-.637-.133-1.42-.088-2.054.058-.636.4-.926.408-1.76.058-.636-.23-1.81.3-2.147.542-.34 1.758.402 2.207.5zM594.12 189.63c-.19-.785-.44-.93-.818-1.67-1.407-1.524-2.87-2.412-4.83-2.767-.637-.052-2.535-.21-2.793.473-.386.924 1.95 2.015 2.636 2.264.732.443 1.605.646 2.337 1.09 1.37.497 2.006.55 3.468.608zm-79.866-5.04c2.64-.228 3.618-.467 6.26.136 2.395.454 3.894 1.542 6.535 1.314l-3.356-2.71 1.53-1.41c-.968-.594-1.37-.497-2.3-.895-.496-.293-.592-.686-1.076-.982l-1.755.427c-1.13.482-2.06.916-3.344 1.644-1.118.48-2.638 1.057-2.504 2.477zm11.286-7.313c-.15 1.075-1.08 1.51-1.915 2.335.248.147.296.342.532.493.684.248 4.01.268 4.834.274 2.016-.282 1.918-1.504 4.227-2.273l2.886-.9c2.745-.668 6.516-1.38 8.822-2.98-1.123-1.178-1.7-1.037-3.222-1.3-2.347-.26-4.787-.08-7 1.082-2.048.914-1.857 1.698-4.603 2.366l-4.56.902zm2.96 347.033c-47.604-2.937 9.68.538 0 0z" class="B"/><g class="C B"><use xlink:href="#B"/><use xlink:href="#C"/><use xlink:href="#D"/><use xlink:href="#E"/><use xlink:href="#F"/><path d="M277.232 380.596c19.096 8.967 34.114 26.45 43.706 36.708 5.36 5.908 7.818 10.954 13.125 19.256 5.313 8.307 9.535 22.7 14.215 33.905-5.517-10.29-13.5-17.342-19.6-22.4L309.86 432.27c-10.682-9.66-25.984-26.358-32.627-51.675z"/><use xlink:href="#G"/><use xlink:href="#H"/><use xlink:href="#I"/><use xlink:href="#J"/><use xlink:href="#K"/><use xlink:href="#L"/><use xlink:href="#M"/></g><g transform="matrix(-1 0 0 1 1073.066 .660015)" class="B C"><use xlink:href="#B" x="0.534" y="-0.65"/><use xlink:href="#C" x="0.534" y="-0.66"/><use xlink:href="#D" x="0.534" y="-0.66"/><use xlink:href="#E" x="0.534" y="-0.66"/><use xlink:href="#F" x="0.534" y="-0.66"/><path d="M277.766 379.936c19.096 8.967 34.114 26.45 43.706 36.708 5.36 5.908 7.818 10.954 13.125 19.256 5.313 8.307 9.535 22.7 14.215 33.905-5.517-10.29-13.5-17.342-19.6-22.4l-18.818-15.794c-10.682-9.66-25.984-26.358-32.627-51.675z"/><use xlink:href="#G" x="0.534" y="-0.66"/><use xlink:href="#H" x="0.534" y="-0.66"/><use xlink:href="#I" x="0.534" y="-0.66"/><use xlink:href="#J" x="0.534" y="-0.66"/><use xlink:href="#K" x="0.533" y="-0.66"/><use xlink:href="#L" x="0.533" y="-0.66"/><use xlink:href="#M" x="0.534" y="-0.66"/></g><g class="B"><path d="M533.35 562.2c-15.1.5-14.1-8.9-42.85-9.67-11.06-.28-62.1 21.05-93 16 2 8 31.72 20.4 58 19 13.57-.73 53.2-26.42 69-15 0 0-19.12 6.82-40 24-12.82 10.72-23 28-25 35 8 0 16 3 24-2 7-4 19.68-43.9 49.98-51.33"/><path d="M533.03 562.2c15.1.5 14.1-8.9 42.85-9.67 11.06-.28 62.1 21.05 93 16-2 8-31.72 20.4-58 19-13.57-.73-53.2-26.42-69-15 0 0 19.12 6.82 40 24 12.82 10.72 23 28 25 35-8 0-16 3-24-2-7-4-19.68-43.9-49.98-51.33"/></g><defs ><path id="B" d="M373.493 158c-16.667 8.474-22.673 19.422-27.143 28.14-2.434 4.994-3.705 8.51-5.25 15.168s-4.186 16.546-7.683 22.35c3.642-5.66 10.793-12.867 15.24-16.488 4.45-3.626 9.512-8.285 12.346-12.408 5.6-8.48 12.39-18.36 12.492-36.76z"/><path id="C" d="M341.612 520.022c26.954-.745 52.895 5.14 66.763 8.207 8.205 2.452 13.927 3.722 23.966 6.943 10.05 3.22 31.952 8.96 42.026 10.65-8.633-.397-31.756-1.768-40.3-1.357l-23.697.825c-19.882.492-49.382-7.707-68.75-25.266z"/><path id="D" d="M383.106 478.372c6.213 24.592 16.805 36.343 27.088 47.45 5.93 6.222 11.86 10.48 21.702 14.358 10.63 3.975 30.226 5.467 42.213 5.575-10.17-2.593-23.624-6.287-30.855-11.46-7.054-4.888-12.395-12.776-17.037-18.837-9.617-12.207-18.55-24.094-43.11-37.087z"/><path id="E" d="M297.833 452.885c21.83 2.496 41.597 17.348 53.532 24.732 6.727 4.304 10.865 8.513 17.62 15.688 6.42 7.3 20.458 20.023 28.53 27.53-9.555-4.086-23.336-13.21-30.167-16.905-6.91-3.96-15.402-6.852-21.753-9.967-12.838-6.527-34.83-18.784-47.76-41.078z"/><path id="F" d="M350.943 424.37c-1.8 24.923.52 35.817 5.712 48.72 3.012 7.6 4.503 14 10.452 22.016 5.86 7.637 18.202 19.848 29.926 25.29-9.86-8.778-15.52-16.885-18.426-24.95-2.604-7.768-4.426-16.8-5.996-23.923-3.39-14.427-5.838-26.42-21.67-47.152z"/><path id="G" d="M333.283 361.282c-10.558 22.13-8.314 37.8-7.536 52.16.754 10.148 3.32 16.733 7.217 25.922 4.195 10.078 9.38 20.062 14.855 30.382-3.87-9.927-5.446-19.467-6.18-27.418-.958-8.14-.182-17.36.165-24.637.504-14.81 1.33-32.246-8.52-56.41z"/><path id="H" d="M272.086 313.91c19.82 12.146 26.14 24.802 32.314 36.582 3.796 6.85 6.63 18.014 8.153 25.673 2.246 10.268 4.424 22.616 7.226 33.837-5.165-8.925-9.04-19.57-13.948-26.612-4.138-6.378-9.43-15.395-13.296-20.938-7.696-11.385-16.952-24.672-20.45-48.542z"/><path id="I" d="M333.334 306.354c-15.827 16.605-18.544 33.037-21.65 45.846-1.65 7.31-1.135 19.75.103 26.63 1.84 9.178 5.19 20.103 7.75 30.664-1.128-9.78-.88-20.895.24-28.79 1.08-7.435 4.24-16.53 6.458-22.836 4.325-12.89 10.237-27.598 7.098-51.513z"/><path id="J" d="M318.116 180.83c11.63 19.25 10.22 31.022 10.4 43.386-.014 7.017-1.13 15.145-2.728 23.494s-8.682 20.612-12.072 30.588c2.437-13.057 1.68-20.25 1.573-27.536.1-7.097-1.166-15.252-2.324-21.523-1.934-12.688-3.145-27.79 5.15-48.4z"/><path id="K" d="M375.52 204.58c-21.813 5.48-32.33 16.856-41.158 25.503-4.937 4.998-9.17 11.15-12.603 18.928-3.345 8.047-5.177 18.834-7.963 28.442 3.672-8.294 9.077-17.1 13.893-21.897 4.222-4.397 12.904-10.148 17.596-14.374 9.94-9.112 21.407-17.32 30.235-36.6z"/><path id="L" d="M294.867 238.47c11.32 18.64 14.1 35.28 15.597 48.787.775 6.005.78 18.308-.08 27.485-1.136 9.95-2.002 20.626-2.82 31.705-1.344-9.836-3.352-18.412-4.818-26.195-.917-5.062-4.36-16.28-5.66-23.83-2.804-13.46-8.166-33.432-2.22-57.952z"/><path id="M" d="M344.614 250.847c-18.906 12.992-26.912 31.977-31.458 44.345-2.52 7.412-3.443 11.896-4.718 21.037-1.133 9.622-1.275 19.28-.945 30.142.9-9.803 4.622-16.104 7.164-23.23 2.723-7.005 10.4-17.28 15-26.347 5.774-11.954 12.44-25.024 14.956-45.947z"/></defs></svg>