<svg version="1" xmlns="http://www.w3.org/2000/svg" width="682.667" height="682.667" viewBox="0 0 512.000000 512.000000"><path d="M270.5 74.6c-3.3.7-7.4 1.5-9.2 1.8-1.7.3-9.4 2-17 3.7-16.9 3.8-19.1 4.2-22.3 4.2-2.6 0-15.1-1.3-18.5-1.9-1.1-.2-5.2-.7-9-1-11-1-16.9 2.1-21 10.8-1.8 4-2.1 5.6-1.4 9.9 1.5 9.4 7.2 14.4 18.9 16.4l6.5 1.2-38 9.2c-20.9 5.1-43.4 10.8-50 12.7-40.6 11.7-69.3 29.6-74.7 46.6-4.6 14.4.3 32.2 11.8 42.8 5 4.6 14 9 22.1 10.9 5.2 1.3 23.3 1.7 28.8.8 1.7-.3 5-.8 7.5-1.2 5.8-.8 9-1.4 11.7-1.9 1.1-.3 4.3-.7 7-1.1 4.4-.6 11.8-2.1 29.3-6 3.6-.8 7.6-1.6 9-1.9 2.8-.5 17.2-3.3 21-4.1 2.6-.5 5.8-1.1 11-2 1.6-.3 7.4-1.4 12.7-2.4 5.4-1.1 11.6-2.2 13.8-2.5 23.3-3.6 65.2-12 93-18.6 6.3-1.5 18.5-3.8 24.5-4.5 3-.4 6.2-.9 7.1-1 13.4-2.5 24.3-2.5 29.7-.1 2.3 1 4.2 2.3 4.2 2.7 0 .4-1.9 2.4-4.2 4.3-3.5 3.1-7.9 5.1-13.4 6.2-.6.1-3.6.9-6.5 1.7-3 .9-6.7 1.8-8.4 2.1-1.6.2-6.4 1.2-10.5 2.1-4.1.9-8.8 1.8-10.5 2.1-2.6.3-10 1.5-11.5 1.9-.3.1-3.4.5-7 1s-6.7.9-7 1c-.3.1-3.4.5-7 .9-3.6.5-7.2 1-8 1.1-.8.2-4 .6-7.1.9-3.1.4-6.5.8-7.5 1-1.1.2-4.6.7-7.9 1-3.3.4-6.7.9-7.5 1.1-.8.2-3.3.7-5.5 1-5.7.8-10.4 1.6-12.9 2.1-29.5 5.6-52.7 10-58.6 10.9-1.9.3-7.1 1.2-11.5 2s-9.3 1.7-11 1.9c-14.1 2.3-34 5.8-34.5 6.1-.3.1-2.7.5-5.5.9-2.7.3-6.1.8-7.5 1.1-1.4.2-3.6.7-5 1-1.4.2-4.1.7-6 1-8.2 1.3-9.8 1.7-16.8 4.1-19.4 6.5-37.1 18.4-42.1 28.3-5.2 10.3-3.9 30.5 2.6 40.6 5.8 8.8 10.2 11.2 31.3 16.7 13.2 3.5 15.5 3.4 39-.6 20.6-3.5 20.9-3.6 27.5-4.7 3.3-.5 8-1.4 10.5-1.9s6-1.2 7.8-1.5c1.8-.3 6.4-1.2 10.2-2 6.8-1.4 8.6-1.8 16-3 1.9-.3 4.2-.8 5-1 .8-.2 3.1-.7 5-1 1.9-.3 4.2-.8 5-1 .8-.2 3.1-.7 5-1 1.9-.3 5.3-1 7.5-1.5s5.6-1.2 7.5-1.5c1.9-.3 4.2-.8 5-1 .8-.2 3.5-.7 6-1 2.4-.4 4.7-.8 5-1 .3-.2 2.3-.6 4.5-.9 3.2-.5 18.3-3.3 28-5.2 1.1-.2 6.7-1.3 12.5-2.4 5.8-1.1 11.9-2.2 13.5-2.5 1.7-.3 4.4-.8 6-1.1 1.7-.3 6.6-1.1 11-1.9 4.4-.8 9.4-1.6 11-1.9 1.7-.3 7.3-1.2 12.5-2.1 5.2-.9 10.8-1.8 12.3-2 1.6-.2 4-.6 5.5-.9 1.5-.3 4.3-.8 6.2-1.1 8.3-1.3 16.4-2.8 25-4.5 3-.6 6.6-1.3 8-1.5 1.4-.3 3.6-.7 5-1 1.4-.3 4-.8 5.9-1.1 1.8-.3 4.2-.7 5.3-.9 4.8-1 13.7-1.8 19.2-1.9 5.6-.1 6 0 6.9 2.7.6 2 .5 3.4-.6 5-3.8 5.9-22.2 12.3-51.2 17.8-14.1 2.7-39.2 8.1-57 12.4-3.3.8-7.1 1.6-8.5 1.9-1.4.3-3.6.7-5 1-28.2 6.1-36.2 7.8-45 9.5-13.7 2.6-32.2 5.8-38.5 6.7-2.7.3-5.7.7-6.5.9-.8.1-4 .6-7 1-3 .3-6.6.8-8 1-1.4.3-5.6.9-9.5 1.5-3.8.5-7.9 1.2-9 1.4-1.1.2-5.8 1.1-10.5 2-11.7 2.2-11.5 2.2-20.5 4.5-22.8 5.8-41.9 14.4-48.3 21.6-5.9 6.7-8.6 14.8-8.6 25.9.1 21.1 9.9 37.7 24.9 42.2 4.9 1.5 23.1 2 32 .9 2.2-.3 6-.7 8.5-1 3.8-.5 17.6-2.7 24.5-4 1.1-.2 7.3-1.5 13.7-2.9 6.4-1.4 12.7-2.8 14-3 4.1-.9 6.2-1.4 10.3-2.4 2.2-.6 5.7-1.3 7.7-1.6 2-.3 7.7-1.5 12.5-2.5 4.8-1.1 10.4-2.3 12.3-2.6 1.9-.3 11.4-2.2 21-4.1 9.6-2 18.2-3.7 19-3.9.8-.1 3.1-.5 5-.9 1.9-.3 4.5-.8 5.6-1 1.2-.2 3.9-.7 6-1 2.2-.4 6.4-1.1 9.4-1.6 6.8-1.2 17.6-2.7 25.5-3.5 3.3-.4 7.1-.8 8.4-1 1.3-.2 7.1-.7 13-1l10.6-.7 11 5.2c12.8 6.1 19.1 7 26 3.5 8.2-4.1 12.3-16.3 8.1-24.4-5.9-11.2-28.5-21.4-47.6-21.4-6.1 0-22.9 1.4-34 2.8-1.9.2-5.9.7-8.9 1.1-3 .3-6.1.7-7 .9-.9.1-4.1.6-7.1 1s-6.4.9-7.5 1.1c-1.1.2-6.9 1.3-13 2.4-6 1.1-11.9 2.2-13 2.4-1.1.3-7.8 1.6-15 3.1-7.1 1.4-13.9 2.8-15 3.1-1.1.2-3.1.6-4.5.9-8.7 1.6-43.4 8.8-53 11-10.7 2.4-30.3 6.2-36 7-8.8 1.2-16.4 1.9-22.4 1.9-6.6.1-7 0-7.6-2.4-.4-1.4-.3-3.2.1-4.2 1.9-3.7 34.4-13.4 54.9-16.4 1.9-.3 5.8-.9 8.5-1.4 2.8-.5 7.4-1.2 10.4-1.5 3-.4 6.2-.8 7.1-1 .9-.2 4.1-.6 7.1-1 3-.3 6.1-.8 6.9-1 .8-.2 4-.7 7-1 3-.4 5.7-.8 6-1 .3-.2 2.6-.6 5-.9 7.4-.9 45-8.4 68.5-13.7 12.1-2.8 22.9-5.2 24-5.3 1.1-.2 8-1.8 15.3-3.5 11.4-2.7 28.7-6.2 37.2-7.6 4.8-.7 17.6-3.7 24.5-5.7 44.3-12.7 61-39.1 46-72.7-5.9-13-17.5-19.3-36.5-19.7-5.8-.1-12.7.2-15.5.6-2.7.4-7.3 1-10.1 1.4-2.7.3-12.8 2.1-22.2 4-9.5 1.9-19.2 3.8-21.5 4.1-2.3.3-6.4 1-9.2 1.5-5.4 1-10.9 1.8-16.5 2.6-1.9.2-4.6.6-6 .9-1.4.3-3.8.8-5.5 1-1.6.3-6.6 1.2-11 2s-9.8 1.7-12 2c-2.2.3-4.6.8-5.3 1-.7.3-4.1.9-7.5 1.5-8.2 1.3-8.8 1.4-33.1 6.1-11.5 2.1-22.3 4.2-24 4.4-1.7.3-3.9.8-4.9 1.1-1.1.3-2.9.7-4 .9-2.5.3-4.7.7-22.2 4.2-7.1 1.4-14.1 2.7-15.5 3-1.4.2-9 1.7-17 3.3-12.5 2.5-40.8 7.6-52 9.5-1.9.3-6 1-9 1.5s-7.2 1.2-9.4 1.6c-2.1.3-4.7.7-5.7.9-2.8.6-16.9-3.6-16.9-4.9 0-1.5 13.7-8.8 20.5-11 4.2-1.3 22.9-4.7 67.5-12.2 10.2-1.7 13.7-2.3 17-2.9 4.8-1 6.8-1.3 10.6-1.9 2.2-.4 6.2-1.1 8.9-1.6 2.8-.5 6.1-1.1 7.5-1.4 2.4-.4 16.9-3.1 21.8-4 6.1-1.3 30.1-5.6 33.2-6 2-.3 12.1-1.7 22.5-3.1 10.5-1.4 20.4-2.7 22-3 4.4-.7 9.8-1.4 15.7-2.1 2.9-.4 5.6-.8 5.9-1 .4-.2 3.1-.6 6-1 3-.3 5.7-.8 6-1 .4-.2 2.4-.6 4.5-.9 6.6-1 34.6-8.2 40.5-10.4 7.5-2.9 14.2-7.4 21.5-14.6 23.1-22.9 18.2-49.5-11.7-63.8-15.9-7.6-24.8-8.5-47.9-4.7-3 .5-7.7 1.2-10.5 1.5-7.7.8-34.6 6.2-56.5 11.4-4.7 1.1-9.6 2.2-11 2.5-1.4.2-4.5.9-7 1.5-2.5.5-9.9 1.9-16.5 3-12.7 2.2-13.4 2.3-26 4.6-4.4.8-9.8 1.7-12 2-2.2.4-4.7.8-5.5 1-.8.2-3.1.7-5 1-1.9.3-9.3 1.8-16.5 3.2-7.1 1.4-14.1 2.7-15.5 2.9-1.4.2-3.6.7-5 1-4.7 1.1-14 3.1-19 4-1.4.3-3.3.7-4.2 1-2.1.6-4.2 1-15.8 3-5.2.9-9.9 1.7-10.5 1.9-.5.1-3.2.5-6 .9-2.7.4-6.1.9-7.3 1.1-4.7.8-14.8.7-17.7 0-3-.8-6.5-3.2-6.5-4.5 0-1.3 8.9-7 17.6-11.3 15.6-7.7 29.1-12.2 54.9-18.3 8.3-1.9 15.7-3.7 16.5-3.9 33-8 52.1-12.7 54.5-13.4 1.7-.5 5.7-1.5 9-2.1 14.9-2.9 56.2-18.9 75.4-29.3 15.4-8.2 20.5-14.3 21.5-25.7 1-11-3.7-19.2-12.9-22.3-5.6-2-27.4-2-36-.1z"/></svg>